<svg xmlns="http://www.w3.org/2000/svg" xmlns:xlink="http://www.w3.org/1999/xlink" xmlns:inkscape="http://www.inkscape.org/namespaces/inkscape" version="1.1" width="184.6" height="111.588" viewBox="0 0 184.6 111.588">
<defs>
<path id="font_1_1" d="M.47698976 .3423462C.48199464 .36236573 .4909973 .39837647 .4909973 .40237428 .4909973 .41537477 .48199464 .43138124 .45999146 .43138124 .44699098 .43138124 .42900086 .42337037 .42099 .40437318 .4189911 .39837647 .37098695 .205307 .36499024 .17930603 .35899354 .1552887 .35598756 .13928223 .35499574 .11528015 .35899354 .090270999 .34399415 .06826782 .32899476 .04826355 .30699159 .021255494 .2849884 .014251709 .2639923 .014251709 .22799683 .014251709 .18199158 .029251099 .18199158 .104278568 .18199158 .15629578 .20799256 .22731018 .23899842 .30934144 .24398804 .32234193 .25099183 .33935548 .25099183 .35835267 .25099183 .40737916 .21398926 .4423828 .16499329 .4423828 .068984989 .4423828 .0289917 .30033876 .0289917 .28833009 .0289917 .2793274 .035995485 .27633668 .042999269 .27633668 .053985597 .27633668 .054992677 .28233338 .05899048 .29533387 .07998657 .36836244 .11999512 .41737367 .1619873 .41737367 .18199158 .41737367 .18598938 .40437318 .18598938 .3843689 .18598938 .36735536 .18199158 .34934999 .17298889 .3253479 .12399292 .1973114 .11399841 .16029358 .11399841 .11828613 .11399841 .004257202 .21099854-.0107421879 .26098634-.0107421879 .2999878-.0107421879 .33699037 .0052490236 .3659973 .057266237 .3959961-.0017547608 .45899964-.0107421879 .49598695-.0107421879 .5669861-.0107421879 .6100006 .041259767 .6419983 .107284549 .66999819 .16630554 .70899966 .3083496 .70899966 .3693695 .70899966 .43937684 .6719971 .44337464 .6629944 .44337464 .6380005 .44337464 .6119995 .41638185 .6119995 .39337159 .6119995 .3783722 .62098696 .37036134 .6279907 .36436463 .6549988 .33935548 .6639862 .30734254 .6639862 .28134156 .6639862 .2513275 .6389923 .15930176 .60899356 .10127258 .58699038 .058258058 .5529938 .014251709 .49899293 .014251709 .42399598 .014251709 .42399598 .08427429 .42399598 .10227966 .42399598 .12928772 .42900086 .15029907 .43798829 .18530274L.47698976 .3423462Z"/>
<path id="font_2_1" d="M.2689972 .39065553H.37799073C.397995 .39065553 .4119873 .39065553 .4119873 .4156494 .4119873 .43066407 .39898683 .43066407 .3809967 .43066407H.2789917L.31399537 .5685272C.31799317 .58351138 .31799317 .5894928 .31799317 .5904999 .31799317 .6144867 .29899598 .6244812 .2829895 .6244812 .2709961 .6244812 .24499512 .6174774 .23599243 .58551028L.19699097 .43066407H.08898926C.067993167 .43066407 .066986087 .42965699 .06298828 .426651 .057998659 .4226532 .053985597 .4096527 .053985597 .4046631 .056991579 .39065553 .06599426 .39065553 .085998538 .39065553H.18699646L.12799073 .15501404C.12199402 .13204956 .11399841 .09811401 .11399841 .086120609 .11399841 .028213501 .1659851-.009765625 .22698975-.009765625 .34199525-.009765625 .4099884 .12705994 .4099884 .14404297 .4099884 .14703369 .4079895 .15802002 .3909912 .15802002 .37799073 .15802002 .37599183 .1530304 .37098695 .14103699 .33699037 .06616211 .27999879 .023223877 .23098755 .023223877 .19400025 .023223877 .19299317 .060165407 .19299317 .073150638 .19299317 .087127689 .19299317 .08912659 .19799805 .10809326L.2689972 .39065553Z"/>
<path id="font_3_13" d="M.35598756 .4202881C.35598756 .4362793 .35598756 .44628907 .34298707 .44628907 .33799745 .44628907 .33499146 .44628907 .31900025 .4302826 .31698609 .4292755 .30799867 .4202881 .30499269 .4202881 .3039856 .4202881 .3019867 .4202881 .29599 .4242859 .27999879 .43528749 .25099183 .44628907 .20599365 .44628907 .06599426 .44628907 .034988405 .37026979 .034988405 .32226563 .034988405 .27226258 .07199097 .24325562 .07499695 .24024964 .114990238 .21025086 .13798523 .20625305 .20498657 .19424439 .2519989 .18525696 .32899476 .17124939 .32899476 .10324097 .32899476 .0642395 .30299378 .018234253 .21099854 .018234253 .10998535 .018234253 .08099365 .09623718 .067993167 .14924622 .06399536 .1622467 .06298828 .16725159 .050994874 .16725159 .034988405 .16725159 .034988405 .15924073 .034988405 .14024353V.016220093C.034988405 .00022888184 .034988405-.009765625 .04798889-.009765625 .053985597-.009765625 .054992677-.008773804 .07299805 .010223389 .07798767 .0152282719 .08898926 .02822876 .09399414 .033233644 .13899231-.0077667238 .18598938-.009765625 .21199036-.009765625 .33898927-.009765625 .3829956 .06323242 .3829956 .12924195 .3829956 .1772461 .35398866 .24725342 .23498535 .2692566 .22698975 .2712555 .17098999 .28126527 .16699219 .28126527 .13598633 .28826905 .08898926 .30926515 .08898926 .34927369 .08898926 .37927247 .11099243 .4212799 .20599365 .4212799 .31799317 .4212799 .32299806 .33926393 .32499696 .31126405 .32598878 .30326844 .33299256 .30026246 .33999635 .30026246 .35598756 .30026246 .35598756 .30726625 .35598756 .32626344V.4202881Z"/>
<path id="font_3_15" d="M.33399964 .43040467V.3973999C.4019928 .3973999 .4099884 .39039613 .4099884 .34136964V.16729737C.4099884 .08125305 .35798646 .018234253 .2829895 .018234253 .19699097 .018234253 .19299317 .06124878 .19299317 .11126709V.44140626L.040985109 .43040467V.3973999C.116989139 .3973999 .116989139 .39439393 .116989139 .3053589V.1552887C.116989139 .08325195 .116989139-.009765625 .2769928-.009765625 .37098695-.009765625 .40699769 .0622406 .4119873 .071243289H.41299439V-.009765625L.56199648 .00022888184V.033233644C.49398805 .033233644 .48599244 .040237428 .48599244 .089263919V.44140626L.33399964 .43040467Z"/>
<path id="font_3_12" d="M.18399048 .22821045C.18399048 .30329896 .21499634 .4113922 .31098939 .4133911 .30499269 .4093933 .29499818 .4013977 .29499818 .3783722 .29499818 .34735108 .31900025 .33332826 .33898927 .33332826 .36299134 .33332826 .38398744 .34934999 .38398744 .3783722 .38398744 .4133911 .35198976 .44140626 .30799867 .44140626 .24299622 .44140626 .19898987 .39239503 .17799378 .33633424H.1769867V.44140626L.034988405 .43040467V.3973999C.102996829 .3973999 .11099243 .39039613 .11099243 .3413391V.078048709C.11099243 .032989503 .09899902 .032989503 .034988405 .032989503V0C.07398987 .0029907227 .1289978 .0029907227 .15299988 .0029907227 .21199036 .0029907227 .21398926 .0029907227 .2789917 0V.032989503H.25898744C.18598938 .032989503 .18399048 .044006349 .18399048 .08004761V.22821045Z"/>
<path id="font_3_10" d="M.5 .21325684C.5 .3382721 .39698792 .44628907 .2649994 .44628907 .1329956 .44628907 .02999878 .3382721 .02999878 .21325684 .02999878 .08824158 .13699341-.009765625 .2649994-.009765625 .3939972-.009765625 .5 .08824158 .5 .21325684M.2649994 .021224976C.21099854 .021224976 .16899109 .047225954 .14698792 .082229617 .12199402 .12324524 .11898804 .17224121 .11898804 .22225952 .11898804 .2602539 .11898804 .32026673 .1499939 .363266 .17599488 .3982849 .21798706 .41827394 .2649994 .41827394 .31698609 .41827394 .3600006 .39328004 .3829956 .35827638 .4099884 .31626893 .41099549 .2622528 .41099549 .22225952 .41099549 .17625427 .40899659 .12124634 .3809967 .07923889 .35398866 .039230348 .30899049 .021224976 .2649994 .021224976Z"/>
<path id="font_3_7" d="M.17298889 .06889343C.14199829 .07191467 .116989139 .099105838 .116989139 .13536072 .116989139 .15945435 .12298584 .16845703 .12998963 .17745972 .17199707 .15245056 .21099854 .14746094 .23498535 .14746094 .33399964 .14746094 .40699769 .21644593 .40699769 .29441834 .40699769 .33241273 .3899994 .3644104 .3659973 .39039613 .37998963 .4024048 .41299439 .42340089 .46199037 .4243927 .45799256 .42140199 .45298768 .4163971 .45298768 .40040589 .45298768 .3824005 .46598817 .36941529 .48399354 .36941529 .49798585 .36941529 .5149994 .3784027 .5149994 .4013977 .5149994 .418396 .5019989 .45239259 .45799256 .45239259 .44099427 .45239259 .3929901 .44839479 .34700013 .4064026 .32199098 .4243927 .2829895 .44140626 .23599243 .44140626 .13699341 .44140626 .06399536 .372406 .06399536 .29441834 .06399536 .24743653 .08999634 .21244812 .11099243 .19244385 .08898926 .16744995 .08099365 .13536072 .08099365 .111190799 .08099365 .06990051 .100997928 .038894655 .12298584 .021896363 .070999149 .007904053 .02999878-.031097413 .02999878-.0770874 .02999878-.14909363 .1329956-.20507813 .2649994-.20507813 .3899994-.20507813 .5-.15408325 .5-.0750885 .5-.021102906 .46798707 .020904541 .43499757 .037902833 .37599183 .06889343 .32699586 .06889343 .22898865 .06889343H.17298889M.23599243 .17645264C.14299011 .17645264 .14299011 .27243043 .14299011 .29441834 .14299011 .3314209 .147995 .35740663 .16299439 .3774109 .17999268 .40040589 .20799256 .4123993 .23498535 .4123993 .32798768 .4123993 .32798768 .3164215 .32798768 .29441834 .32798768 .25743104 .32299806 .23144531 .30799867 .21144104 .28599549 .18345642 .2539978 .17645264 .23599243 .17645264M.2829895 .00390625C.30999757 .00390625 .44099427 .00390625 .44099427-.07609558 .44099427-.13009644 .3639984-.17608643 .2649994-.17608643 .16499329-.17608643 .08898926-.13009644 .08898926-.07609558 .08898926-.055099489 .10499573 .00390625 .18699646 .00390625H.2829895Z"/>
<path id="font_3_3" d="M.41999818 .29855348C.41999818 .39653016 .32499696 .44628907 .23399353 .44628907 .15098572 .44628907 .07699585 .4143219 .07699585 .34857179 .07699585 .318573 .09799194 .30056764 .12399292 .30056764 .1519928 .30056764 .17098999 .3205719 .17098999 .3475647 .17098999 .37156678 .1559906 .38856507 .13398743 .3935547 .17098999 .41827394 .22499085 .41827394 .23199463 .41827394 .28799439 .41827394 .34399415 .37957765 .34399415 .2975464V.2662201C.28599549 .26322938 .21899414 .2602234 .14898682 .23123169 .06098938 .19322205 .04399109 .13522339 .04399109 .10223389 .04399109 .016220093 .14498902-.009765625 .21398926-.009765625 .2869873-.009765625 .33198548 .031219483 .35398866 .07122803 .35899354 .033233644 .3849945-.004776001 .42900086-.004776001 .43899537-.004776001 .5239868-.00077819827 .5239868 .09022522V.14523316H.49299623V.09022522C.49299623 .049224855 .47799684 .033233644 .45700074 .033233644 .41999818 .033233644 .41999818 .07922363 .41999818 .09022522V.29855348M.34399415 .1412201C.34399415 .04421997 .2619934 .018234253 .22200012 .018234253 .16999817 .018234253 .12599182 .053222658 .12599182 .10122681 .12599182 .16722107 .18798828 .23522949 .34399415 .24023438V.1412201Z"/>
<path id="font_3_14" d="M.18598938 .3976593H.33499146V.43066407H.18598938V.6147156H.15499878C.1539917 .5236969 .11299133 .4286499 .019989014 .42565919V.3976593H.10998535V.1250763C.10998535 .008224487 .19999695-.009765625 .24598694-.009765625 .31298829-.009765625 .35299684 .050186159 .35299684 .1250763V.1809845H.32199098V.12705994C.32199098 .058166505 .29100038 .021224976 .25299073 .021224976 .18598938 .021224976 .18598938 .10710144 .18598938 .12307739V.3976593Z"/>
<path id="font_3_6" d="M.41299439 .22851563C.43499757 .22851563 .44099427 .22851563 .44099427 .25151063 .44099427 .34039308 .3919983 .44628907 .25099183 .44628907 .1269989 .44628907 .02999878 .3433838 .02999878 .21949768 .02999878 .09031677 .13798523-.009765625 .2639923-.009765625 .3909912-.009765625 .44099427 .097335819 .44099427 .12036133 .44099427 .12435913 .43798829 .13438416 .4249878 .13438416 .4139862 .13438416 .4119873 .12736511 .4099884 .12136841 .37399293 .024230957 .28799439 .021224976 .269989 .021224976 .22499085 .021224976 .1789856 .042251588 .14898682 .08831787 .11898804 .13438416 .11898804 .19847107 .11898804 .22851563H.41299439M.11999512 .25450135C.1289978 .39431764 .21398926 .41827394 .25099183 .41827394 .36799623 .41827394 .37199403 .27748109 .37298585 .25450135H.11999512Z"/>
<path id="font_3_4" d="M.36799623 .39746095C.33999635 .3884735 .33599855 .36547853 .33599855 .35346986 .33599855 .32647706 .35499574 .30647279 .3829956 .30647279 .40899659 .30647279 .42999269 .32447816 .42999269 .35447694 .42999269 .41627503 .3619995 .44628907 .2679901 .44628907 .1289978 .44628907 .034988405 .33547975 .034988405 .21640015 .034988405 .089279178 .13899231-.009765625 .2649994-.009765625 .4059906-.009765625 .44099427 .108306888 .44099427 .12031555 .44099427 .13232422 .42799378 .13232422 .4249878 .13232422 .41799928 .13232422 .41299439 .13131714 .4099884 .12130737 .40299989 .10029602 .375 .021224976 .2749939 .021224976 .21299744 .021224976 .12399292 .0692749 .12399292 .21739197 .12399292 .3614807 .19799805 .4152832 .2709961 .4152832 .27999879 .4152832 .33299256 .4152832 .36799623 .39746095Z"/>
<path id="font_3_9" d="M.19099427 .69433596 .041992189 .68333438V.6503296C.10998535 .6503296 .117996219 .6433258 .117996219 .5942993V.07801819C.117996219 .032989503 .10598755 .032989503 .041992189 .032989503V0C.08099365 .0029907227 .13699341 .0029907227 .1539917 .0029907227 .17399597 .0029907227 .22799683 .0029907227 .2669983 0V.032989503C.20298767 .032989503 .19099427 .032989503 .19099427 .07801819V.69433596Z"/>
<path id="font_3_8" d="M.19499207 .61586C.19499207 .64486697 .17199707 .671875 .13899231 .671875 .10998535 .671875 .083999637 .64886477 .083999637 .61686709 .083999637 .5818634 .11299133 .5608673 .13899231 .5608673 .17399597 .5608673 .19499207 .58987429 .19499207 .61586M.04499817 .43040467V.3973999C.10899353 .3973999 .117996219 .39138795 .117996219 .34233094V.078048709C.117996219 .032989503 .10598755 .032989503 .041992189 .032989503V0C.08099365 .0029907227 .13699341 .0029907227 .1519928 .0029907227 .16499329 .0029907227 .22499085 .0029907227 .2599945 0V.032989503C.19499207 .032989503 .19099427 .037994386 .19099427 .077041629V.44140626L.04499817 .43040467Z"/>
<path id="font_3_11" d="M.2630005-.16134644C.19898987-.16134644 .18699646-.16134644 .18699646-.11618042V.049240114C.23399353-.0017700195 .2849884-.009765625 .31698609-.009765625 .44400025-.009765625 .55400088 .088256839 .55400088 .2163086 .55400088 .34136964 .45298768 .44140626 .33198548 .44140626 .29299928 .44140626 .23498535 .43139649 .18399048 .37937928V.44140626L.034988405 .43040467V.39738465C.10598755 .39738465 .11099243 .39138795 .11099243 .34936524V-.11618042C.11099243-.16134644 .09899902-.16134644 .034988405-.16134644V-.19433594C.07798767-.19134522 .12199402-.19134522 .14898682-.19134522 .17799378-.19134522 .21998596-.19134522 .2630005-.19433594V-.16134644M.18699646 .33335877C.20999146 .37338258 .2599945 .4104004 .32299806 .4104004 .3999939 .4104004 .46499635 .32536317 .46499635 .2163086 .46499635 .101257327 .3929901 .018234253 .31199647 .018234253 .2769928 .018234253 .23098755 .033233644 .19898987 .08325195 .18699646 .1002655 .18699646 .101257327 .18699646 .120269779V.33335877Z"/>
<path id="font_3_5" d="M.32899476 .68333438V.6503296C.39698792 .6503296 .40499879 .6433258 .40499879 .5943451V.38339234C.36999513 .42140199 .32299806 .44140626 .2709961 .44140626 .1459961 .44140626 .034988405 .3443756 .034988405 .21531677 .034988405 .09225464 .1349945-.009765625 .26098634-.009765625 .31999208-.009765625 .36898805 .018234253 .4019928 .053237916V-.009765625L.55400088 .00022888184V.033233644C.48599244 .033233644 .47799684 .040237428 .47799684 .089263919V.69433596L.32899476 .68333438M.4019928 .12426758C.4019928 .10626221 .4019928 .102264408 .3869934 .08226013 .35899354 .042236329 .31298829 .018234253 .2659912 .018234253 .21998596 .018234253 .17999268 .042236329 .1559906 .07925415 .1289978 .118270877 .12399292 .16729737 .12399292 .21430969 .12399292 .27233888 .1329956 .3133545 .1559906 .3483734 .17999268 .38539125 .22499085 .4133911 .27598573 .4133911 .32398988 .4133911 .37199403 .38938905 .4019928 .33737184V.12426758Z"/>
<path id="font_3_2" d="M.31399537 .63708499C.31399537 .664032 .31199647 .66503909 .2849884 .66503909 .24398804 .6251831 .19099427 .6013489 .09599304 .6013489V.5683594C.12298584 .5683594 .1769867 .5683594 .23498535 .5953522V.08203125C.23498535 .04499817 .23199463 .032989503 .13699341 .032989503H.101989749V0C.14299011 .0029907227 .22898865 .0029907227 .27398683 .0029907227 .31900025 .0029907227 .4059906 .0029907227 .44699098 0V.032989503H.4119873C.31698609 .032989503 .31399537 .04499817 .31399537 .08203125V.63708499Z"/>
<path id="font_4_1" d="M.69898989 .22743225C.71499636 .22743225 .7369995 .22743225 .7369995 .25042726 .7369995 .2734375 .71499636 .2734375 .69898989 .2734375H.12599182C.10998535 .2734375 .08799744 .2734375 .08799744 .25042726 .08799744 .22743225 .10998535 .22743225 .12599182 .22743225H.69898989Z"/>
<path id="font_5_1" d="M.31900025 .22480774C.33499146 .22480774 .35299684 .22480774 .35299684 .24180603 .35299684 .2578125 .33999635 .2578125 .32199098 .2578125H.14898682C.1639862 .30474855 .20399475 .3976593 .32798768 .3976593H.3619995C.37998963 .3976593 .3959961 .3976593 .3959961 .4156494 .3959961 .43066407 .38198854 .43066407 .3639984 .43066407H.32398988C.19898987 .43066407 .049987794 .3407135 .049987794 .18289185 .049987794 .06512451 .13699341-.009765625 .24598694-.009765625 .31399537-.009765625 .38598634 .030197144 .38598634 .044174196 .38598634 .045166017 .3849945 .061141969 .37298585 .061141969 .36898805 .061141969 .36698915 .060134889 .36299134 .057144166 .34498597 .046173097 .29899598 .018234253 .24798584 .018234253 .18798828 .018234253 .1309967 .058151246 .1309967 .1489563 .1309967 .15394593 .1309967 .18188477 .14099121 .22480774H.31900025Z"/>
<path id="font_3_1" d="M.43598939 .22743225H.7299957C.74398806 .22743225 .7659912 .22743225 .7659912 .25042726 .7659912 .2734375 .74398806 .2734375 .7299957 .2734375H.43598939V.56799319C.43598939 .5819855 .43598939 .6039734 .41299439 .6039734 .3899994 .6039734 .3899994 .5819855 .3899994 .56799319V.2734375H.09498596C.08099365 .2734375 .05899048 .2734375 .05899048 .25042726 .05899048 .22743225 .08099365 .22743225 .09498596 .22743225H.3899994V-.067993167C.3899994-.08201599 .3899994-.104019168 .41299439-.104019168 .43598939-.104019168 .43598939-.08201599 .43598939-.067993167V.22743225Z"/>
</defs>
<path transform="matrix(1,0,0,-1,22.515,96.222)" d="M62.36288 0V72.28444H96.37897V0ZM96.37897 72.28444" fill="#ededff"/>
<path transform="matrix(1,0,0,-1,22.515,96.222)" stroke-width=".69739" stroke-linecap="butt" stroke-miterlimit="10" stroke-linejoin="miter" fill="none" stroke="#16181d" d="M0 0H139.30274"/>
<path transform="matrix(1,0,0,-1,159.53939,96.222)" d="M5.13399 0 1.12613 1.51437 2.45268 0 1.12613-1.51437Z"/>
<path transform="matrix(1,0,0,-1,159.53939,96.222)" stroke-width=".69739" stroke-linecap="butt" stroke-miterlimit="10" stroke-linejoin="miter" fill="none" stroke="#16181d" d="M5.13399 0 1.12613 1.51437 2.45268 0 1.12613-1.51437Z"/>
<use data-text="w" xlink:href="#font_1_1" transform="matrix(8.9664,0,0,-8.9664,169.334,97.654)"/>
<use data-text="t" xlink:href="#font_2_1" transform="matrix(5.9776,0,0,-5.9776,175.939,98.649997)"/>
<path transform="matrix(1,0,0,-1,22.515,96.222)" stroke-width=".69739" stroke-linecap="butt" stroke-miterlimit="10" stroke-linejoin="miter" fill="none" stroke="#16181d" d="M0 0V76.93983"/>
<path transform="matrix(0,-1,-1,-0,22.515,21.560517)" d="M5.13399 0 1.12613 1.51437 2.45268 0 1.12613-1.51437Z"/>
<path transform="matrix(0,-1,-1,-0,22.515,21.560517)" stroke-width=".69739" stroke-linecap="butt" stroke-miterlimit="10" stroke-linejoin="miter" fill="none" stroke="#16181d" d="M5.13399 0 1.12613 1.51437 2.45268 0 1.12613-1.51437Z"/>
<use data-text="s" xlink:href="#font_3_13" transform="matrix(7.9701,0,0,-7.9701,5.3129999,10.214996)"/>
<use data-text="u" xlink:href="#font_3_15" transform="matrix(7.9701,0,0,-7.9701,8.652472,10.214996)"/>
<use data-text="r" xlink:href="#font_3_12" transform="matrix(7.9701,0,0,-7.9701,13.354832,10.214996)"/>
<use data-text="r" xlink:href="#font_3_12" transform="matrix(7.9701,0,0,-7.9701,16.654454,10.214996)"/>
<use data-text="o" xlink:href="#font_3_10" transform="matrix(7.9701,0,0,-7.9701,19.954075,10.214996)"/>
<use data-text="g" xlink:href="#font_3_7" transform="matrix(7.9701,0,0,-7.9701,24.1862,10.214996)"/>
<use data-text="a" xlink:href="#font_3_3" transform="matrix(7.9701,0,0,-7.9701,28.418324,10.214996)"/>
<use data-text="t" xlink:href="#font_3_14" transform="matrix(7.9701,0,0,-7.9701,32.650449,10.214996)"/>
<use data-text="e" xlink:href="#font_3_6" transform="matrix(7.9701,0,0,-7.9701,35.9421,10.214996)"/>
<path transform="matrix(1,0,0,-1,22.515,96.222)" stroke-width=".3985" stroke-linecap="butt" stroke-dasharray="2.98883,2.98883" stroke-miterlimit="10" stroke-linejoin="miter" fill="none" stroke="#5b626e" d="M62.36288 0V72.28444"/>
<path transform="matrix(1,0,0,-1,22.515,96.222)" stroke-width=".3985" stroke-linecap="butt" stroke-dasharray="2.98883,2.98883" stroke-miterlimit="10" stroke-linejoin="miter" fill="none" stroke="#5b626e" d="M96.37897 0V72.28444"/>
<path transform="matrix(1,0,0,-1,22.515,96.222)" stroke-width="1.39478" stroke-linecap="butt" stroke-miterlimit="10" stroke-linejoin="miter" fill="none" stroke="#2f43c4" d="M4.25183 6.23631 96.37897 60.94545"/>
<path transform="matrix(1,0,0,-1,22.515,96.222)" stroke-width="1.39478" stroke-linecap="butt" stroke-miterlimit="10" stroke-linejoin="miter" fill="none" stroke="#c0392b" d="M96.37897 60.94545H141.73404"/>
<path transform="matrix(1,0,0,-1,22.515,96.222)" d="M97.97302 60.94545C97.97302 61.82584 97.25935 62.5395 96.37897 62.5395 95.4986 62.5395 94.78493 61.82584 94.78493 60.94545 94.78493 60.06508 95.4986 59.35141 96.37897 59.35141 97.25935 59.35141 97.97302 60.06508 97.97302 60.94545ZM96.37897 60.94545" fill="#c0392b"/>
<use data-text="c" xlink:href="#font_3_4" transform="matrix(7.9701,0,0,-7.9701,128.28,29.615998)" fill="#c0392b"/>
<use data-text="l" xlink:href="#font_3_9" transform="matrix(7.9701,0,0,-7.9701,132.04189,29.615998)" fill="#c0392b"/>
<use data-text="i" xlink:href="#font_3_8" transform="matrix(7.9701,0,0,-7.9701,134.39307,29.615998)" fill="#c0392b"/>
<use data-text="p" xlink:href="#font_3_11" transform="matrix(7.9701,0,0,-7.9701,136.74425,29.615998)" fill="#c0392b"/>
<use data-text="p" xlink:href="#font_3_11" transform="matrix(7.9701,0,0,-7.9701,141.44661,29.615998)" fill="#c0392b"/>
<use data-text="e" xlink:href="#font_3_6" transform="matrix(7.9701,0,0,-7.9701,146.38808,29.615998)" fill="#c0392b"/>
<use data-text="d" xlink:href="#font_3_5" transform="matrix(7.9701,0,0,-7.9701,150.14997,29.615998)" fill="#c0392b"/>
<use data-text="1" xlink:href="#font_3_2" transform="matrix(7.9701,0,0,-7.9701,77.285,105.445)"/>
<use data-text="&#x2212;" xlink:href="#font_4_1" transform="matrix(7.9701,0,0,-7.9701,81.987369,105.445)"/>
<use data-text="&#x03f5;" xlink:href="#font_5_1" transform="matrix(7.9701,0,0,-7.9701,89.04091,105.445)"/>
<use data-text="1" xlink:href="#font_3_2" transform="matrix(7.9701,0,0,-7.9701,99.768,105.445)"/>
<use data-text="1" xlink:href="#font_3_2" transform="matrix(7.9701,0,0,-7.9701,111.301,105.445)"/>
<use data-text="+" xlink:href="#font_3_1" transform="matrix(7.9701,0,0,-7.9701,116.003368,105.445)"/>
<use data-text="&#x03f5;" xlink:href="#font_5_1" transform="matrix(7.9701,0,0,-7.9701,123.05691,105.445)"/>
</svg>
