<svg xmlns="http://www.w3.org/2000/svg" xmlns:xlink="http://www.w3.org/1999/xlink" xmlns:inkscape="http://www.inkscape.org/namespaces/inkscape" version="1.1" width="180.182" height="99.314" viewBox="0 0 180.182 99.314">
<defs>
<path id="font_1_2" d="M.38198854 .3803711C.36299134 .41638185 .33198548 .4423828 .2869873 .4423828 .17098999 .4423828 .041992189 .30433656 .041992189 .1512909 .041992189 .041259767 .11199951-.0107421879 .1789856-.0107421879 .24398804-.0107421879 .29699708 .043258668 .31298829 .06227112 .32398988 .007247925 .37399293-.0107421879 .4059906-.0107421879 .43499757-.0107421879 .45999146 .002243042 .48199464 .044265748 .5 .07727051 .5139923 .13928223 .5139923 .14329529 .5139923 .14828491 .5109863 .1552887 .5009918 .1552887 .4889984 .1552887 .48799134 .15029907 .48399354 .13128662 .46199037 .044265748 .43998719 .014251709 .40899659 .014251709 .38398744 .014251709 .37799073 .038253786 .37799073 .060272218 .37799073 .07926941 .3829956 .09927368 .3919983 .1342926L.4169922 .23731995C.42399598 .2623291 .44198609 .33735658 .44599916 .35235597 .44999696 .36636354 .45599366 .3903656 .45599366 .39337159 .45599366 .40937806 .44299317 .42237855 .4249878 .42237855 .4119873 .42237855 .3869934 .41438294 .38198854 .3803711M.31698609 .122283939C.31199647 .103271488 .31199647 .10227966 .29599 .08326721 .2599945 .040252687 .21899414 .014251709 .18199158 .014251709 .1329956 .014251709 .115997318 .06526184 .115997318 .10827637 .115997318 .15730286 .14498902 .27233888 .16899109 .32034303 .20098877 .3803711 .24699402 .41737367 .2869873 .41737367 .35398866 .41737367 .36898805 .33735658 .36898805 .33035279 .36898805 .3253479 .36698915 .3193512 .3659973 .31533814L.31698609 .122283939Z"/>
<path id="font_2_1" d="M.28399659 .36465455H.39898683C.37799073 .2738037 .3600006 .19992066 .3600006 .1260376 .3600006 .11904907 .3600006 .0761261 .37098695 .04017639 .38398744-.0017700195 .3939972-.009765625 .4119873-.009765625 .43399049-.009765625 .45700074 .009231567 .45700074 .033187868 .45700074 .04017639 .45599366 .042175294 .45199586 .05116272 .43099977 .097091678 .41600038 .14500427 .41600038 .22688294 .41600038 .24984741 .41600038 .29177857 .43099977 .36465455H.5519867C.56799319 .36465455 .57899478 .36465455 .58898928 .37265016 .6009979 .38365174 .60398867 .39665223 .60398867 .40264894 .60398867 .43066407 .57899478 .43066407 .56199648 .43066407H.20098877C.17999268 .43066407 .14199829 .43066407 .09298706 .3826599 .056991579 .3466797 .0289917 .300766 .0289917 .29377748 .0289917 .28479005 .035995485 .28178407 .04399109 .28178407 .053985597 .28178407 .055999757 .28479005 .06199646 .2927704 .11099243 .36465455 .16999817 .36465455 .19299317 .36465455H.25099183C.22200012 .25883485 .16899109 .13801575 .13198853 .06513977 .125 .0501709 .114990238 .030197144 .114990238 .021209717 .114990238 .00022888184 .13198853-.009765625 .147995-.009765625 .18598938-.009765625 .19599915 .028198243 .21699524 .110061649L.28399659 .36465455Z"/>
<path id="font_3_1" d="M.33299256-.25C.34098817-.25 .35299684-.25 .35299684-.23800659 .35299684-.23400879 .35198976-.23300171 .33898927-.22000122 .20199585-.09100342 .16799927 .09498596 .16799927 .25 .16799927 .5379944 .2869873 .6729889 .33799745 .71899417 .35198976 .7319946 .35299684 .73298647 .35299684 .73799136 .35299684 .7429962 .34899903 .75 .33898927 .75 .32299806 .75 .272995 .69898989 .2649994 .6899872 .1309967 .5499878 .102996829 .36999513 .102996829 .25 .102996829 .025985718 .19699097-.15400696 .33299256-.25Z"/>
<path id="font_2_3" d="M.3919983 .38137818C.3829956 .39839173 .35398866 .44140626 .29299928 .44140626 .17399597 .44140626 .042999269 .3023529 .042999269 .15428162 .042999269 .050247194 .10998535-.009765625 .18699646-.009765625 .25099183-.009765625 .30599977 .041229249 .32398988 .06124878 .34199525-.0077667238 .4099884-.009765625 .42199708-.009765625 .46798707-.009765625 .4909973 .02822876 .49899293 .04524231 .5189972 .08125305 .5329895 .13928223 .5329895 .14328003 .5329895 .14927674 .5289917 .15628052 .5169983 .15628052 .5049896 .15628052 .5029907 .15028382 .49699403 .12527466 .48298646 .070251468 .46398927 .018234253 .4249878 .018234253 .4019928 .018234253 .3929901 .037231447 .3929901 .06524658 .3929901 .08226013 .4019928 .11627197 .4079895 .14128113 .4139862 .16629029 .42900086 .22631836 .43299867 .24432373L.45298768 .32035829C.45799256 .3443756 .46899415 .38638307 .46899415 .39138795 .46899415 .4143982 .44999696 .4223938 .43699647 .4223938 .42199708 .4223938 .39698792 .4123993 .3919983 .38137818M.32398988 .10826111C.27398683 .039230348 .22200012 .018234253 .18998719 .018234253 .14399719 .018234253 .12098694 .0602417 .12098694 .11227417 .12098694 .1592865 .147995 .2663269 .16999817 .3103485 .19898987 .37138368 .24798584 .4133911 .2939911 .4133911 .35899354 .4133911 .37799073 .34036256 .37799073 .32835389 .37799073 .32435609 .35299684 .22631836 .34700013 .20030213 .33399964 .1532898 .33399964 .1512909 .32398988 .10826111Z"/>
<path id="font_4_1" d="M.16999817 .71199038C.16999817 .7279968 .16999817 .75 .14698792 .75 .12399292 .75 .12399292 .7279968 .12399292 .71199038V-.21200562C.12399292-.22801209 .12399292-.25 .14698792-.25 .16999817-.25 .16999817-.22801209 .16999817-.21200562V.71199038Z"/>
<path id="font_2_4" d="M.40299989 .37600709C.37998963 .37199403 .35899354 .35398866 .35899354 .32899476 .35899354 .31098939 .37098695 .2979889 .3929901 .2979889 .4079895 .2979889 .43899537 .30899049 .43899537 .35398866 .43899537 .4163971 .37399293 .44140626 .31199647 .44140626 .17799378 .44140626 .13598633 .34599305 .13598633 .29499818 .13598633 .28501893 .13598633 .24909973 .17298889 .22114563 .19599915 .20318604 .21299744 .20019531 .2649994 .19021607 .2999878 .18322754 .35699464 .17324829 .35699464 .121292117 .35699464 .09529114 .33799745 .062286378 .30999757 .043258668 .272995 .019226075 .22399903 .018234253 .20799256 .018234253 .18399048 .018234253 .115997318 .022232056 .09098816 .062286378 .14199829 .06428528 .14898682 .105285648 .14898682 .11729431 .14898682 .14729309 .12199402 .15429688 .10998535 .15429688 .09399414 .15429688 .052993776 .14228821 .052993776 .08729553 .052993776 .028244019 .114990238-.009765625 .20799256-.009765625 .38198854-.009765625 .4189911 .11329651 .4189911 .1552887 .4189911 .24510193 .32099916 .2640686 .28399659 .27104188 .23599243 .2800293 .19699097 .28701783 .19699097 .32899476 .19699097 .34698487 .21398926 .4133911 .31098939 .4133911 .34899903 .4133911 .3880005 .4022827 .40299989 .37600709Z"/>
<path id="font_3_2" d="M.30899049 .25C.30899049 .34500123 .29299928 .45899964 .23098755 .57699587 .18199158 .6689911 .09098816 .75 .07299805 .75 .06298828 .75 .05999756 .7429962 .05999756 .73799136 .05999756 .73399356 .05999756 .7319946 .07199097 .7200012 .21199036 .58699038 .24398804 .4039917 .24398804 .25 .24398804-.037002565 .125-.17300415 .07398987-.2190094 .06098938-.23200989 .05999756-.23300171 .05999756-.23800659 .05999756-.24301148 .06298828-.25 .07299805-.25 .08898926-.25 .13899231-.19900513 .14698792-.19000244 .2809906-.05000305 .30899049 .12998963 .30899049 .25Z"/>
<path id="font_1_1" d="M.272995 .36865235H.3869934C.37199403 .30575563 .34599305 .20193482 .34599305 .11906433 .34599305 .112075809 .34599305 .075149539 .35499574 .03919983 .36499024 .0012512207 .37399293-.0107421879 .3939972-.0107421879 .4149933-.0107421879 .43699647 .007247925 .43699647 .030212403 .43699647 .037200929 .43598939 .04020691 .42999269 .05317688 .39898683 .123062137 .39898683 .19694519 .39898683 .21990967 .39898683 .24485779 .39898683 .28878785 .41600038 .36865235H.5329895C.54599 .36865235 .58299258 .36865235 .58299258 .4046631 .58299258 .43066407 .5609894 .43066407 .5419922 .43066407H.19599915C.17199707 .43066407 .13699341 .43066407 .08999634 .38365174 .06298828 .3566742 .026992798 .30177308 .026992798 .29377748 .026992798 .2828064 .037994386 .2828064 .040985109 .2828064 .04899597 .2828064 .050994874 .28479005 .056991579 .29478456 .10598755 .36865235 .16699219 .36865235 .18699646 .36865235H.24398804C.20098877 .21791077 .13198853 .07614136 .125 .061172487 .117996219 .047195436 .10798645 .026229859 .10798645 .018234253 .10798645 .0052490236 .116989139-.0107421879 .13899231-.0107421879 .1749878-.0107421879 .18399048 .025222779 .20498657 .10609436L.272995 .36865235Z"/>
<path id="font_5_1" d="M.54499819 .4801178C.54499819 .59609988 .49598695 .70410159 .3959961 .70410159 .23999024 .70410159 .07598877 .4431305 .07598877 .21417237 .07598877 .08421326 .13198853-.009765625 .22499085-.009765625 .38198854-.009765625 .54499819 .25515748 .54499819 .4801178M.19198609 .36714173C.25698854 .61509707 .34799195 .6710968 .394989 .6710968 .46499635 .6710968 .46499635 .55111697 .46499635 .53611758 .46499635 .52711489 .46499635 .46913148 .43798829 .36714173H.19198609M.42799378 .32714845C.37199403 .10121155 .2809906 .023223877 .22599793 .023223877 .1599884 .023223877 .1559906 .124191287 .1559906 .15818787 .1559906 .19218445 .1599884 .23616028 .18199158 .32714845H.42799378Z"/>
<path id="font_6_1" d="M.3600006 .46505738C.36099244 .46606446 .36999513 .48506166 .36999513 .50006106 .36999513 .5360565 .33799745 .5590515 .30799867 .5590515 .2669983 .5590515 .2559967 .5280609 .25099183 .5130615L.09700012 .080078128C.09298706 .06808472 .09298706 .065078739 .09298706 .064071658 .09298706 .048080446 .1349945 .038085939 .13598633 .038085939 .14498902 .038085939 .14698792 .04307556 .15299988 .05508423L.3600006 .46505738Z"/>
<path id="font_2_2" d="M.16699219 .07896423C.1579895 .040985109 .1559906 .032989503 .08198547 .032989503 .06298828 .032989503 .050994874 .032989503 .050994874 .01399231 .050994874 0 .06399536 0 .08099365 0H.4249878C.6359863 0 .84599307 .20188904 .84599307 .42474366 .84599307 .577652 .74398806 .6826172 .59498599 .6826172H.24499512C.22698975 .6826172 .21398926 .6826172 .21398926 .66360476 .21398926 .6496124 .22599793 .6496124 .24299622 .6496124 .27598573 .6496124 .30499269 .6496124 .30499269 .6336212 .30499269 .6296234 .3039856 .62861636 .30099488 .6156311L.16699219 .07896423M.3880005 .6126251C.39698792 .64660647 .397995 .6496124 .43899537 .6496124H.55999758C.6769867 .6496124 .7559967 .58265689 .7559967 .46072389 .7559967 .42774964 .74198916 .2648468 .6549988 .15292359 .61099246 .096954349 .5249939 .032989503 .40699769 .032989503H.2579956C.24899292 .034988405 .24598694 .034988405 .24598694 .041992189 .24598694 .049987794 .24798584 .0579834 .25 .0639801L.3880005 .6126251Z"/>
<path id="font_7_1" d="M.48199464 .41474916 .69599917 .5866394C.7639923 .64060977 .82398989 .6436157 .848999 .6436157V.6826172C.83399966 .6816101 .79599 .6786041 .7569885 .6786041 .71499636 .6786041 .6359863 .6816101 .61698916 .6826172V.6436157C.6319885 .6436157 .6529999 .63760378 .6529999 .6166229 .6529999 .6006317 .6380005 .5886383 .6309967 .5826416L.2709961 .29182435V.5986328C.2709961 .63160708 .2709961 .6436157 .35099793 .6436157H.3769989V.6826172C.36299134 .6816101 .2630005 .6786041 .22099304 .6786041 .1789856 .6786041 .08099365 .6816101 .06498718 .6826172V.6436157H.09098816C.17098999 .6436157 .17098999 .63160708 .17098999 .5986328V.083969119C.17098999 .050979616 .17098999 .038986207 .09098816 .038986207H.06498718V0C.07899475 .0009918213 .1789856 .0039978029 .22099304 .0039978029 .2630005 .0039978029 .36099244 .0009918213 .3769989 0V.038986207H.35099793C.2709961 .038986207 .2709961 .050979616 .2709961 .083969119V.24386597L.41299439 .35879518 .6259918 .095962528C.6339874 .08596802 .6419983 .07597351 .6419983 .064971927 .6419983 .038986207 .60899356 .038986207 .58898928 .038986207V0C.6119995 .0009918213 .7049866 .0039978029 .7429962 .0039978029 .7659912 .0039978029 .83399966 .0019989014 .86499026 0V.038986207C.81199648 .038986207 .7859955 .040985109 .7509918 .083969119L.48199464 .41474916Z"/>
<path id="font_7_2" d="M.6899872 .26585389H.6529999C.6409912 .14492798 .6100006 .038986207 .42900086 .038986207H.31999208C.2709961 .038986207 .2709961 .04698181 .2709961 .07797241V.5986328C.2709961 .63160708 .2709961 .6436157 .36698915 .6436157H.4039917V.6826172C.35099793 .6786041 .27799989 .6786041 .22399903 .6786041 .1789856 .6786041 .08898926 .6816101 .06498718 .6826172V.6436157H.09098816C.17098999 .6436157 .17098999 .63160708 .17098999 .5986328V.083969119C.17098999 .050979616 .17098999 .038986207 .09098816 .038986207H.06498718V0H.6589966L.6899872 .26585389Z"/>
</defs>
<path transform="matrix(1,0,0,-1,18.916,92.071)" stroke-width=".69739" stroke-linecap="butt" stroke-miterlimit="10" stroke-linejoin="miter" fill="none" stroke="#16181d" d="M0 0H143.55458"/>
<path transform="matrix(1,0,0,-1,160.19223,92.071)" d="M5.13399 0 1.12613 1.51437 2.45268 0 1.12613-1.51437Z"/>
<path transform="matrix(1,0,0,-1,160.19223,92.071)" stroke-width=".69739" stroke-linecap="butt" stroke-miterlimit="10" stroke-linejoin="miter" fill="none" stroke="#16181d" d="M5.13399 0 1.12613 1.51437 2.45268 0 1.12613-1.51437Z"/>
<use data-text="a" xlink:href="#font_1_2" transform="matrix(8.9664,0,0,-8.9664,169.987,94.001)"/>
<path transform="matrix(1,0,0,-1,18.916,92.071)" stroke-width=".69739" stroke-linecap="butt" stroke-miterlimit="10" stroke-linejoin="miter" fill="none" stroke="#16181d" d="M0 0V71.27013"/>
<path transform="matrix(0,-1,-1,-0,18.916,23.079216)" d="M5.13399 0 1.12613 1.51437 2.45268 0 1.12613-1.51437Z"/>
<path transform="matrix(0,-1,-1,-0,18.916,23.079216)" stroke-width=".69739" stroke-linecap="butt" stroke-miterlimit="10" stroke-linejoin="miter" fill="none" stroke="#16181d" d="M5.13399 0 1.12613 1.51437 2.45268 0 1.12613-1.51437Z"/>
<use data-text="&#x03c0;" xlink:href="#font_2_1" transform="matrix(7.9701,0,0,-7.9701,5.3130009,11.291)"/>
<use data-text="(" xlink:href="#font_3_1" transform="matrix(7.9701,0,0,-7.9701,10.461685,11.291)"/>
<use data-text="a" xlink:href="#font_2_3" transform="matrix(7.9701,0,0,-7.9701,13.753336,11.291)"/>
<use data-text="|" xlink:href="#font_4_1" transform="matrix(7.9701,0,0,-7.9701,20.599652,11.291)"/>
<use data-text="s" xlink:href="#font_2_4" transform="matrix(7.9701,0,0,-7.9701,25.30201,11.291)"/>
<use data-text=")" xlink:href="#font_3_2" transform="matrix(7.9701,0,0,-7.9701,29.215329,11.291)"/>
<path transform="matrix(1,0,0,-1,18.916,92.071)" stroke-width="1.29515" stroke-linecap="butt" stroke-miterlimit="10" stroke-linejoin="miter" fill="none" stroke="#2f43c4" d="M1.4174 .48833C1.4174 .48833 2.5562 .60587 2.99358 .6622 3.43095 .71855 4.13237 .82114 4.56975 .89447 5.00713 .9678 5.70854 1.09727 6.14592 1.19077 6.5833 1.28426 7.2847 1.44907 7.72208 1.56836 8.15945 1.68767 8.86087 1.90056 9.29825 2.05064 9.73563 2.20074 10.43704 2.46375 10.87442 2.65013 11.3118 2.83653 12.01321 3.16588 12.45059 3.3941 12.88797 3.62233 13.58939 4.01927 14.02676 4.29509 14.46414 4.57089 15.16554 5.0515 15.60292 5.38205 16.0403 5.7126 16.74171 6.2864 17.1791 6.6775 17.61647 7.0686 18.31789 7.74434 18.75526 8.20091 19.19264 8.65749 19.89406 9.44241 20.33144 9.96825 20.76881 10.49408 21.47023 11.3933 21.90761 11.9908 22.34499 12.58829 23.04639 13.60365 23.48376 14.2746 23.92114 14.94556 24.62256 16.08385 25.05994 16.82657 25.49731 17.5693 26.19873 18.81715 26.63611 19.62769 27.07349 20.43823 27.7749 21.79741 28.21228 22.66844 28.64966 23.53946 29.35106 24.98387 29.78844 25.90555 30.22581 26.82722 30.92723 28.35162 31.36461 29.31136 31.80199 30.27109 32.5034 31.84117 32.94078 32.8227 33.37816 33.8042 34.07957 35.40074 34.51695 36.38551 34.95433 37.37029 35.65575 38.95322 36.09312 39.92023 36.5305 40.88722 37.2319 42.42761 37.66928 43.355 38.10666 44.28238 38.80807 45.73895 39.24545 46.60423 39.68283 47.4695 40.38425 48.81073 40.82162 49.59132 41.259 50.37192 41.96042 51.55594 42.3978 52.23026 42.83517 52.90457 43.53659 53.90202 43.97397 54.45132 44.41135 55.00061 45.11275 55.78131 45.55013 56.18927 45.9875 56.59723 46.68892 57.1369 47.1263 57.39172 47.56367 57.64653 48.26509 57.93149 48.70247 58.02582 49.13985 58.12015 49.84126 58.14182 50.27864 58.07167 50.71602 58.00153 51.41743 57.75159 51.85481 57.52019 52.29219 57.28879 52.99359 56.78938 53.43097 56.40381 53.86835 56.01822 54.56976 55.27098 55.00714 54.74113 55.4445 54.21129 56.14594 53.24213 56.58331 52.58493 57.02068 51.92773 57.7221 50.77048 58.15948 50.00441 58.59685 49.23833 59.29828 47.91763 59.73566 47.06358 60.17302 46.20953 60.87444 44.76836 61.31181 43.84895 61.74918 42.92957 62.4506 41.40001 62.88797 40.4371 63.32535 39.4742 64.02678 37.89275 64.46414 36.90889 64.90152 35.92503 65.60295 34.32921 66.04031 33.34607 66.47769 32.36292 67.17912 30.78687 67.61649 29.82304 68.05386 28.85924 68.75528 27.32774 69.19264 26.3995 69.63002 25.47127 70.33144 24.012 70.76881 23.13298 71.20619 22.25397 71.90761 20.88434 72.34499 20.06413 72.78236 19.24391 73.48378 17.97476 73.92116 17.22148 74.35854 16.46819 75.05995 15.31635 75.49733 14.6349 75.93471 13.95346 76.63611 12.91891 77.07349 12.31003 77.51086 11.70114 78.21228 10.78267 78.64966 10.24638 79.08704 9.7101 79.78845 8.91098 80.22583 8.44485 80.66321 7.97873 81.36462 7.28683 81.802 6.88686 82.23938 6.48688 82.9408 5.9007 83.37817 5.56198 83.81555 5.22327 84.51695 4.72952 84.95433 4.44562 85.39171 4.1617 86.09312 3.75023 86.5305 3.51564 86.96788 3.28107 87.6693 2.94673 88.10667 2.75482 88.54405 2.56291 89.24547 2.28813 89.68285 2.1324 90.12022 1.97667 90.82164 1.75575 91.25902 1.63239 91.6964 1.509 92.3978 1.34068 92.83517 1.2431 93.27255 1.14552 93.97397 1.00558 94.41135 .92908 94.84872 .85257 95.55014 .74957 95.98752 .6916 96.4249 .63364 97.12631 .5554 97.56369 .51125 98.00107 .46709 98.70248 .40692 99.13986 .37326 99.57724 .3396 100.27864 .29375 100.71602 .2686 101.1534 .24345 101.85481 .21051 102.29219 .19203 102.72957 .17357 103.43098 .14886 103.86836 .13536 104.30574 .12187 105.00716 .10443 105.44453 .09471 105.88191 .085 106.58333 .07231 107.0207 .0653 107.45808 .05829 108.15948 .04901 108.59686 .04411 109.03424 .0392 109.73566 .03313 110.17303 .02983 110.61041 .02654 111.31183 .02266 111.7492 .02032 112.18658 .01797 112.888 .01457 113.32538 .01295 113.76276 .01135 114.46417 .01031 114.90155 .00864 115.33893 .00697 116.04033 .00192 116.4777 .00084 116.91508-.00021 117.6165 .00084 118.05388 .00084 118.49126 .00084 119.19267 .00084 119.63005 .00084 120.06743 .00084 120.76884 .00084 121.20622 .00084 121.6436 .00084 122.34502 .00084 122.7824 .00084 123.21977 .00084 123.92117 .00084 124.35855 .00084 124.79591 .00084 125.49734 .00084 125.93472 .00084 126.37209 .00084 127.07352 .00084 127.5109 .00084 127.94826 .00084 128.64969 .00084 129.08707 .00084 129.52443 .00084 130.22586 .00084 130.66324 .00084 131.1006 .00084 131.80202 .00084 132.2394 .00084 132.67676 .00084 133.37819 .00084 133.81555 .00084 134.25293 .00084 134.95436 .00084 135.39173 .00084 135.8291 .00084 136.53054 .00084 136.9679 .00084 137.40528 .00084 138.1067 .00084 138.54407 .00084 138.98145 .00084 139.68286 .00084 140.12023 .00084 140.5576 .00084 141.6964 .00084 141.6964 .00084"/>
<path transform="matrix(1,0,0,-1,18.916,92.071)" stroke-width="1.29515" stroke-linecap="butt" stroke-miterlimit="10" stroke-linejoin="miter" fill="none" stroke="#2f43c4" d="M1.4174 .00084C1.4174 .00084 2.5562 .00084 2.99358 .00084 3.43095 .00084 4.13237 .00084 4.56975 .00084 5.00713 .00084 5.70854 .00084 6.14592 .00084 6.5833 .00084 7.2847 .00084 7.72208 .00084 8.15945 .00084 8.86087 .00084 9.29825 .00084 9.73563 .00084 10.43704 .00084 10.87442 .00084 11.3118 .00084 12.01321 .00084 12.45059 .00084 12.88797 .00084 13.58939 .00084 14.02676 .00084 14.46414 .00084 15.16554 .00084 15.60292 .00084 16.0403 .00084 16.74171 .00084 17.1791 .00084 17.61647 .00084 18.31789 0 18.75526 .00084 19.19264 .00168 19.89406 .0056 20.33144 .00691 20.76881 .00821 21.47023 .00917 21.90761 .01036 22.34499 .01155 23.04639 .01358 23.48376 .01556 23.92114 .01753 24.62256 .02176 25.05994 .02463 25.49731 .02751 26.19873 .03226 26.63611 .03633 27.07349 .0404 27.7749 .04831 28.21228 .05405 28.64966 .0598 29.35106 .06975 29.78844 .07784 30.22581 .08592 30.92723 .101 31.36461 .11244 31.80199 .12389 32.5034 .14485 32.94078 .16045 33.37816 .17604 34.07957 .20355 34.51695 .2249 34.95433 .24626 35.65575 .28554 36.09312 .31444 36.5305 .34335 37.2319 .39487 37.66928 .43338 38.10666 .47191 38.80807 .54184 39.24545 .59212 39.68283 .64241 40.38425 .72968 40.82162 .79587 41.259 .86205 41.96042 .983 42.3978 1.06923 42.83517 1.15546 43.53659 1.30855 43.97397 1.4174 44.41135 1.52628 45.11275 1.71678 45.55013 1.85384 45.9875 1.9909 46.68892 2.23357 47.1263 2.40532 47.56367 2.57707 48.26509 2.87968 48.70247 3.09177 49.13985 3.30385 49.84126 3.6767 50.27864 3.93391 50.71602 4.19113 51.41743 4.63667 51.85481 4.94562 52.29219 5.25458 52.99359 5.79288 53.43097 6.16063 53.86835 6.52838 54.56976 7.16563 55.00714 7.59622 55.4445 8.02682 56.14594 8.76573 56.58331 9.26408 57.02068 9.76244 57.7221 10.61777 58.15948 11.188 58.59685 11.75826 59.29828 12.73048 59.73566 13.37405 60.17302 14.01762 60.87444 15.11041 61.31181 15.82654 61.74918 16.54268 62.4506 17.75002 62.88797 18.53554 63.32535 19.32106 64.02678 20.6388 64.46414 21.48804 64.90152 22.33728 65.60295 23.75233 66.04031 24.65639 66.47769 25.56042 67.17912 27.05707 67.61649 28.00378 68.05386 28.9505 68.75528 30.50458 69.19264 31.47968 69.63002 32.45477 70.33144 34.04613 70.76881 35.03168 71.20619 36.01721 71.90761 37.60706 72.34499 38.58281 72.78236 39.55856 73.48378 41.1191 73.92116 42.0643 74.35854 43.00952 75.05995 44.50336 75.49733 45.39528 75.93471 46.28719 76.63611 47.67734 77.07349 48.49268 77.51086 49.30801 78.21228 50.5547 78.64966 51.27173 79.08704 51.98877 79.78845 53.06154 80.22583 53.66064 80.66321 54.25977 81.36462 55.1261 81.802 55.58977 82.23938 56.05342 82.9408 56.6887 83.37817 57.00244 83.81555 57.31618 84.51695 57.69727 84.95433 57.85107 85.39171 58.00488 86.09312 58.11829 86.5305 58.11102 86.96788 58.10378 87.6693 57.96779 88.10667 57.79874 88.54405 57.62968 89.24547 57.22084 89.68285 56.89258 90.12022 56.5643 90.82164 55.9094 91.25902 55.43275 91.6964 54.95613 92.3978 54.06781 92.83517 53.45735 93.27255 52.84691 93.97397 51.75967 94.41135 51.03297 94.84872 50.30627 95.55014 49.04314 95.98752 48.21976 96.4249 47.39638 97.12631 45.99617 97.56369 45.09856 98.00107 44.20094 98.70248 42.69945 99.13986 41.75027 99.57724 40.80112 100.27864 39.23575 100.71602 38.25754 101.1534 37.27931 101.85481 35.68552 102.29219 34.6999 102.72957 33.7143 103.43098 32.12732 103.86836 31.15398 104.30574 30.18062 105.00716 28.62804 105.44453 27.68457 105.88191 26.7411 106.58333 25.25328 107.0207 24.35403 107.45808 23.45479 108.15948 22.04703 108.59686 21.20343 109.03424 20.35982 109.73566 19.05293 110.17303 18.27385 110.61041 17.49477 111.31183 16.2971 111.7492 15.58823 112.18658 14.87933 112.888 13.80103 113.32538 13.1647 113.76276 12.52838 114.46417 11.56572 114.90155 11.00201 115.33893 10.43831 116.04033 9.5946 116.4777 9.10188 116.91508 8.60918 117.6165 7.87596 118.05388 7.45088 118.49126 7.0258 119.19267 6.39955 119.63005 6.03822 120.06743 5.67688 120.76884 5.15059 121.20622 4.84657 121.6436 4.54254 122.34502 4.10016 122.7824 3.84697 123.21977 3.59378 123.92117 3.22897 124.35855 3.02168 124.79591 2.8144 125.49734 2.52066 125.93472 2.35298 126.37209 2.1853 127.07352 1.94861 127.5109 1.81317 127.94826 1.67775 128.64969 1.48405 129.08707 1.37675 129.52443 1.26947 130.22586 1.12285 130.66324 1.03981 131.1006 .95676 131.80202 .84268 132.2394 .77812 132.67676 .71356 133.37819 .62396 133.81555 .5744 134.25293 .52484 134.95436 .45822 135.39173 .42084 135.8291 .38347 136.53054 .33295 136.9679 .30493 137.40528 .27692 138.1067 .23967 138.54407 .21886 138.98145 .19804 139.68286 .17007 140.12023 .15485 140.5576 .1396 141.6964 .109 141.6964 .109"/>
<use data-text="&#x03c0;" xlink:href="#font_1_1" transform="matrix(8.9664,0,0,-8.9664,53.854,31.674996)" fill="#2f43c4"/>
<use data-text="&#x03b8;" xlink:href="#font_5_1" transform="matrix(5.9776,0,0,-5.9776,59.128,32.73699)" fill="#2f43c4"/>
<use data-text="&#x03c0;" xlink:href="#font_1_1" transform="matrix(8.9664,0,0,-8.9664,109.199,31.508996)" fill="#2f43c4"/>
<use data-text="&#x03b8;" xlink:href="#font_5_1" transform="matrix(5.9776,0,0,-5.9776,114.473,32.902994)" fill="#2f43c4"/>
<use data-text="&#x2032;" xlink:href="#font_6_1" transform="matrix(4.9813,0,0,-4.9813,118.196,31.187996)" fill="#2f43c4"/>
<path transform="matrix(1,0,0,-1,18.916,92.071)" stroke-width=".89664" stroke-linecap="butt" stroke-miterlimit="10" stroke-linejoin="miter" fill="none" stroke="#c0392b" d="M53.97884 36.28386H82.0859"/>
<path transform="matrix(-1,-0,0,1,75.54663,55.78714)" d="M5.7469 0 1.44785 1.62683 2.87593 0 1.44785-1.62683Z" fill="#c0392b"/>
<path transform="matrix(-1,-0,0,1,75.54663,55.78714)" stroke-width=".89664" stroke-linecap="butt" stroke-miterlimit="10" stroke-linejoin="miter" fill="none" stroke="#c0392b" d="M5.7469 0 1.44785 1.62683 2.87593 0 1.44785-1.62683Z"/>
<path transform="matrix(1,0,0,-1,98.35011,55.78714)" d="M5.7469 0 1.44785 1.62683 2.87593 0 1.44785-1.62683Z" fill="#c0392b"/>
<path transform="matrix(1,0,0,-1,98.35011,55.78714)" stroke-width=".89664" stroke-linecap="butt" stroke-miterlimit="10" stroke-linejoin="miter" fill="none" stroke="#c0392b" d="M5.7469 0 1.44785 1.62683 2.87593 0 1.44785-1.62683Z"/>
<path transform="matrix(1,0,0,-1,18.916,92.071)" d="M58.28473 31.89471H77.77959V40.673H58.28473Z" fill="#ffffff"/>
<use data-text="D" xlink:href="#font_2_2" transform="matrix(7.9701,0,0,-7.9701,78.196,57.840997)" fill="#c0392b"/>
<use data-text="K" xlink:href="#font_7_1" transform="matrix(5.9776,0,0,-5.9776,85.144,59.179998)" fill="#c0392b"/>
<use data-text="L" xlink:href="#font_7_2" transform="matrix(5.9776,0,0,-5.9776,90.69719,59.179998)" fill="#c0392b"/>
</svg>
