<?xml version="1.0" encoding="utf-8" standalone="no"?>
<!DOCTYPE svg PUBLIC "-//W3C//DTD SVG 1.1//EN"
  "http://www.w3.org/Graphics/SVG/1.1/DTD/svg11.dtd">
<svg xmlns:xlink="http://www.w3.org/1999/xlink" width="256.022188pt" height="200.79625pt" viewBox="0 0 256.022188 200.79625" xmlns="http://www.w3.org/2000/svg" version="1.1">
 <metadata>
  <rdf:RDF xmlns:dc="http://purl.org/dc/elements/1.1/" xmlns:cc="http://creativecommons.org/ns#" xmlns:rdf="http://www.w3.org/1999/02/22-rdf-syntax-ns#">
   <cc:Work>
    <dc:type rdf:resource="http://purl.org/dc/dcmitype/StillImage"/>
    <dc:format>image/svg+xml</dc:format>
    <dc:creator>
     <cc:Agent>
      <dc:title>Matplotlib v3.10.9, https://matplotlib.org/</dc:title>
     </cc:Agent>
    </dc:creator>
   </cc:Work>
  </rdf:RDF>
 </metadata>
 <defs>
  <style type="text/css">*{stroke-linejoin: round; stroke-linecap: butt}</style>
 </defs>
 <g id="figure_1">
  <g id="patch_1">
   <path d="M 0 200.79625 
L 256.022188 200.79625 
L 256.022188 0 
L 0 0 
z
" style="fill: #ffffff"/>
  </g>
  <g id="axes_1">
   <g id="patch_2">
    <path d="M 42.742188 163.24 
L 248.822188 163.24 
L 248.822188 7.2 
L 42.742188 7.2 
z
" style="fill: #ffffff"/>
   </g>
   <g id="FillBetweenPolyCollection_1">
    <defs>
     <path id="ma8942ec15e" d="M 52.10946 -131.085432 
L 52.10946 -131.085432 
L 52.494153 -131.085432 
L 52.878846 -131.085432 
L 53.263539 -131.085432 
L 53.648232 -131.085432 
L 54.032925 -131.085432 
L 54.417618 -131.085432 
L 54.802311 -131.085432 
L 55.187004 -131.085432 
L 55.571697 -131.085432 
L 55.956389 -131.085432 
L 56.341082 -131.085432 
L 56.725775 -131.085432 
L 57.110468 -131.085432 
L 57.495161 -131.085432 
L 57.879854 -131.085432 
L 58.264547 -131.085432 
L 58.64924 -131.085432 
L 59.033933 -131.085432 
L 59.418626 -131.085432 
L 59.803319 -131.085432 
L 60.188012 -131.085432 
L 60.572705 -131.085432 
L 60.957398 -131.085432 
L 61.34209 -131.085432 
L 61.726783 -131.085432 
L 62.111476 -131.085432 
L 62.496169 -131.085432 
L 62.880862 -131.085432 
L 63.265555 -131.085432 
L 63.650248 -131.085432 
L 64.034941 -131.085432 
L 64.419634 -131.085432 
L 64.804327 -131.085432 
L 65.18902 -131.085432 
L 65.573713 -131.085432 
L 65.958406 -131.085432 
L 66.343098 -131.085432 
L 66.727791 -131.085432 
L 67.112484 -131.085432 
L 67.497177 -131.085432 
L 67.88187 -131.085432 
L 68.266563 -131.085432 
L 68.651256 -131.085432 
L 69.035949 -131.085432 
L 69.420642 -131.085432 
L 69.805335 -131.085432 
L 70.190028 -131.085432 
L 70.574721 -131.085432 
L 70.959414 -131.085432 
L 71.344106 -131.085432 
L 71.728799 -131.085432 
L 72.113492 -131.085432 
L 72.498185 -131.085432 
L 72.882878 -131.085432 
L 73.267571 -131.085432 
L 73.652264 -131.085432 
L 74.036957 -131.085432 
L 74.42165 -131.085432 
L 74.806343 -131.085432 
L 75.191036 -131.085432 
L 75.575729 -131.085432 
L 75.960422 -131.085432 
L 76.345115 -131.085432 
L 76.729807 -131.085432 
L 77.1145 -131.085432 
L 77.499193 -131.085432 
L 77.883886 -131.085432 
L 78.268579 -131.085432 
L 78.653272 -131.085432 
L 79.037965 -131.085432 
L 79.422658 -131.085432 
L 79.807351 -131.085432 
L 80.192044 -131.085432 
L 80.576737 -131.085432 
L 80.96143 -131.085432 
L 81.346123 -131.085432 
L 81.730815 -131.085432 
L 82.115508 -131.085432 
L 82.500201 -131.085432 
L 82.884894 -131.085432 
L 83.269587 -131.085432 
L 83.65428 -131.085432 
L 84.038973 -131.085432 
L 84.423666 -131.085432 
L 84.808359 -131.085432 
L 85.193052 -131.085432 
L 85.577745 -131.085432 
L 85.962438 -131.085432 
L 86.347131 -131.085432 
L 86.731823 -131.085432 
L 87.116516 -131.085432 
L 87.501209 -131.085432 
L 87.885902 -131.085432 
L 88.270595 -131.085432 
L 88.655288 -131.085432 
L 89.039981 -131.085432 
L 89.424674 -131.085432 
L 89.809367 -131.085432 
L 90.19406 -131.085432 
L 90.578753 -131.085432 
L 90.963446 -131.085432 
L 91.348139 -131.085432 
L 91.732832 -131.085432 
L 92.117524 -131.085432 
L 92.502217 -131.085432 
L 92.88691 -131.085432 
L 93.271603 -131.085432 
L 93.656296 -131.085432 
L 94.040989 -131.085432 
L 94.425682 -131.085432 
L 94.810375 -131.085432 
L 95.195068 -131.085432 
L 95.579761 -131.085432 
L 95.964454 -131.085432 
L 96.349147 -131.085432 
L 96.73384 -131.085432 
L 97.118532 -131.085432 
L 97.503225 -131.085432 
L 97.887918 -131.085432 
L 98.272611 -131.085432 
L 98.657304 -131.085432 
L 99.041997 -131.085432 
L 99.42669 -131.085432 
L 99.811383 -131.085432 
L 100.196076 -131.085432 
L 100.580769 -131.085432 
L 100.965462 -131.085432 
L 101.350155 -131.085432 
L 101.734848 -131.085432 
L 102.11954 -131.085432 
L 102.504233 -131.085432 
L 102.888926 -131.085432 
L 103.273619 -131.085432 
L 103.658312 -131.085432 
L 104.043005 -131.085432 
L 104.427698 -131.085432 
L 104.812391 -131.085432 
L 105.197084 -131.085432 
L 105.581777 -131.085432 
L 105.96647 -131.085432 
L 106.351163 -131.085432 
L 106.735856 -131.085432 
L 107.120549 -131.085432 
L 107.505241 -131.085432 
L 107.889934 -131.085432 
L 108.274627 -131.085432 
L 108.65932 -131.085432 
L 109.044013 -131.085432 
L 109.428706 -131.085432 
L 109.813399 -131.085432 
L 110.198092 -131.085432 
L 110.582785 -131.085432 
L 110.967478 -131.085432 
L 111.352171 -131.085432 
L 111.736864 -131.085432 
L 112.121557 -131.085432 
L 112.506249 -131.085432 
L 112.890942 -131.085432 
L 113.275635 -131.085432 
L 113.660328 -131.085432 
L 114.045021 -131.085432 
L 114.429714 -131.085432 
L 114.814407 -131.085432 
L 115.1991 -131.085432 
L 115.583793 -131.085432 
L 115.968486 -131.085432 
L 116.353179 -131.085432 
L 116.737872 -131.085432 
L 117.122565 -131.085432 
L 117.507258 -131.085432 
L 117.89195 -131.085432 
L 118.276643 -131.085432 
L 118.661336 -131.085432 
L 119.046029 -131.085432 
L 119.430722 -131.085432 
L 119.815415 -131.085432 
L 120.200108 -131.085432 
L 120.584801 -131.085432 
L 120.969494 -131.085432 
L 121.354187 -131.085432 
L 121.73888 -131.085432 
L 122.123573 -131.085432 
L 122.508266 -131.085432 
L 122.892958 -131.085432 
L 123.277651 -131.085432 
L 123.662344 -131.085432 
L 124.047037 -131.085432 
L 124.43173 -131.085432 
L 124.816423 -131.085432 
L 125.201116 -131.085432 
L 125.585809 -131.085432 
L 125.970502 -131.085432 
L 126.355195 -131.085432 
L 126.739888 -131.085432 
L 127.124581 -131.085432 
L 127.509274 -131.085432 
L 127.893966 -131.085432 
L 128.278659 -131.085432 
L 128.663352 -131.085432 
L 129.048045 -131.085432 
L 129.432738 -131.085432 
L 129.817431 -131.085432 
L 130.202124 -131.085432 
L 130.586817 -131.085432 
L 130.97151 -131.085432 
L 131.356203 -131.085432 
L 131.740896 -131.085432 
L 132.125589 -131.085432 
L 132.510282 -131.085432 
L 132.894975 -131.085432 
L 133.279667 -131.085432 
L 133.66436 -131.085432 
L 134.049053 -131.085432 
L 134.433746 -131.085432 
L 134.818439 -131.085432 
L 135.203132 -131.085432 
L 135.587825 -131.085432 
L 135.972518 -131.085432 
L 136.357211 -131.085432 
L 136.741904 -131.085432 
L 137.126597 -131.085432 
L 137.51129 -131.085432 
L 137.895983 -131.085432 
L 138.280675 -131.085432 
L 138.665368 -131.085432 
L 139.050061 -131.085432 
L 139.434754 -131.085432 
L 139.819447 -131.085432 
L 140.20414 -131.085432 
L 140.588833 -131.085432 
L 140.973526 -131.085432 
L 141.358219 -131.085432 
L 141.742912 -131.085432 
L 142.127605 -131.085432 
L 142.512298 -131.085432 
L 142.896991 -131.085432 
L 143.281683 -131.085432 
L 143.666376 -131.085432 
L 144.051069 -131.085432 
L 144.435762 -131.085432 
L 144.820455 -131.085432 
L 145.205148 -131.085432 
L 145.589841 -131.085432 
L 145.974534 -131.085432 
L 146.359227 -131.085432 
L 146.74392 -131.085432 
L 147.128613 -131.085432 
L 147.513306 -131.085432 
L 147.897999 -131.085432 
L 148.282692 -131.085432 
L 148.667384 -131.085432 
L 149.052077 -131.085432 
L 149.43677 -131.085432 
L 149.821463 -131.085432 
L 150.206156 -131.085432 
L 150.590849 -131.085432 
L 150.975542 -131.085432 
L 151.360235 -131.085432 
L 151.744928 -131.085432 
L 152.129621 -131.085432 
L 152.514314 -131.085432 
L 152.899007 -131.085432 
L 153.2837 -131.085432 
L 153.668392 -131.085432 
L 154.053085 -131.085432 
L 154.437778 -131.085432 
L 154.822471 -131.085432 
L 155.207164 -131.085432 
L 155.591857 -131.085432 
L 155.97655 -131.085432 
L 156.361243 -131.085432 
L 156.745936 -131.085432 
L 157.130629 -131.085432 
L 157.515322 -131.085432 
L 157.900015 -131.085432 
L 158.284708 -131.085432 
L 158.6694 -131.085432 
L 159.054093 -131.085432 
L 159.438786 -131.085432 
L 159.823479 -131.085432 
L 160.208172 -131.085432 
L 160.592865 -131.085432 
L 160.977558 -131.085432 
L 161.362251 -131.085432 
L 161.746944 -131.085432 
L 162.131637 -131.085432 
L 162.51633 -131.085432 
L 162.901023 -131.085432 
L 163.285716 -131.085432 
L 163.670409 -131.085432 
L 164.055101 -131.085432 
L 164.439794 -131.085432 
L 164.824487 -131.085432 
L 165.20918 -131.085432 
L 165.593873 -131.085432 
L 165.978566 -131.085432 
L 166.363259 -131.085432 
L 166.747952 -131.085432 
L 167.132645 -131.085432 
L 167.517338 -131.085432 
L 167.902031 -131.085432 
L 168.286724 -131.085432 
L 168.671417 -131.085432 
L 169.056109 -131.085432 
L 169.440802 -131.085432 
L 169.825495 -131.085432 
L 170.210188 -131.085432 
L 170.594881 -131.085432 
L 170.979574 -131.085432 
L 171.364267 -131.085432 
L 171.74896 -131.085432 
L 172.133653 -131.085432 
L 172.518346 -131.085432 
L 172.903039 -131.085432 
L 173.287732 -131.085432 
L 173.672425 -131.085432 
L 174.057117 -131.085432 
L 174.44181 -131.085432 
L 174.826503 -131.085432 
L 175.211196 -131.085432 
L 175.595889 -131.085432 
L 175.980582 -131.085432 
L 176.365275 -131.085432 
L 176.749968 -131.085432 
L 177.134661 -131.085432 
L 177.519354 -131.085432 
L 177.904047 -131.085432 
L 178.28874 -131.085432 
L 178.673433 -131.085432 
L 179.058126 -131.085432 
L 179.442818 -131.085432 
L 179.827511 -131.085432 
L 180.212204 -131.085432 
L 180.596897 -131.085432 
L 180.98159 -131.085432 
L 181.366283 -131.085432 
L 181.750976 -131.085432 
L 182.135669 -131.085432 
L 182.520362 -131.085432 
L 182.905055 -131.085432 
L 183.289748 -131.085432 
L 183.674441 -131.085432 
L 184.059134 -131.085432 
L 184.443826 -131.085432 
L 184.828519 -131.085432 
L 185.213212 -131.085432 
L 185.597905 -131.085432 
L 185.982598 -131.085432 
L 186.367291 -131.085432 
L 186.751984 -131.085432 
L 187.136677 -131.085432 
L 187.52137 -131.085432 
L 187.906063 -131.085432 
L 188.290756 -131.085432 
L 188.675449 -131.085432 
L 189.060142 -131.085432 
L 189.444835 -131.085432 
L 189.829527 -131.085432 
L 190.21422 -131.085432 
L 190.598913 -131.085432 
L 190.983606 -131.085432 
L 191.368299 -131.085432 
L 191.752992 -131.085432 
L 192.137685 -131.085432 
L 192.522378 -131.085432 
L 192.907071 -131.085432 
L 193.291764 -131.085432 
L 193.676457 -131.085432 
L 194.06115 -131.085432 
L 194.445843 -131.085432 
L 194.830535 -131.085432 
L 195.215228 -131.085432 
L 195.599921 -131.085432 
L 195.984614 -131.085432 
L 196.369307 -131.085432 
L 196.754 -131.085432 
L 197.138693 -131.085432 
L 197.523386 -131.085432 
L 197.908079 -131.085432 
L 198.292772 -131.085432 
L 198.677465 -131.085432 
L 199.062158 -131.085432 
L 199.446851 -131.085432 
L 199.831543 -131.085432 
L 200.216236 -131.085432 
L 200.600929 -131.085432 
L 200.985622 -131.085432 
L 201.370315 -131.085432 
L 201.755008 -131.085432 
L 202.139701 -131.085432 
L 202.524394 -131.085432 
L 202.909087 -131.085432 
L 203.29378 -131.085432 
L 203.678473 -131.085432 
L 204.063166 -131.085432 
L 204.447859 -131.085432 
L 204.832552 -131.085432 
L 205.217244 -131.085432 
L 205.601937 -131.085432 
L 205.98663 -131.085432 
L 206.371323 -131.085432 
L 206.756016 -131.085432 
L 207.140709 -131.085432 
L 207.525402 -131.085432 
L 207.910095 -131.085432 
L 208.294788 -131.085432 
L 208.679481 -131.085432 
L 209.064174 -131.085432 
L 209.448867 -131.085432 
L 209.83356 -131.085432 
L 210.218252 -131.085432 
L 210.602945 -131.085432 
L 210.987638 -131.085432 
L 211.372331 -131.085432 
L 211.757024 -131.085432 
L 212.141717 -131.085432 
L 212.52641 -131.085432 
L 212.911103 -131.085432 
L 213.295796 -131.085432 
L 213.680489 -131.085432 
L 214.065182 -131.085432 
L 214.449875 -131.085432 
L 214.834568 -131.085432 
L 215.21926 -131.085432 
L 215.603953 -131.085432 
L 215.988646 -131.085432 
L 216.373339 -131.085432 
L 216.758032 -131.085432 
L 217.142725 -131.085432 
L 217.527418 -131.085432 
L 217.912111 -131.085432 
L 218.296804 -131.085432 
L 218.681497 -131.085432 
L 219.06619 -131.085432 
L 219.450883 -131.085432 
L 219.835576 -131.085432 
L 220.220269 -131.085432 
L 220.604961 -131.085432 
L 220.989654 -131.085432 
L 221.374347 -131.085432 
L 221.75904 -131.085432 
L 222.143733 -131.085432 
L 222.528426 -131.085432 
L 222.913119 -131.085432 
L 223.297812 -131.085432 
L 223.682505 -131.085432 
L 224.067198 -131.085432 
L 224.451891 -131.085432 
L 224.836584 -131.085432 
L 225.221277 -131.085432 
L 225.605969 -131.085432 
L 225.990662 -131.085432 
L 226.375355 -131.085432 
L 226.760048 -131.085432 
L 227.144741 -131.085432 
L 227.529434 -131.085432 
L 227.914127 -131.085432 
L 228.29882 -131.085432 
L 228.683513 -131.085432 
L 229.068206 -131.085432 
L 229.452899 -131.085432 
L 229.837592 -131.085432 
L 230.222285 -131.085432 
L 230.606977 -131.085432 
L 230.99167 -131.085432 
L 231.376363 -131.085432 
L 231.761056 -131.085432 
L 232.145749 -131.085432 
L 232.530442 -131.085432 
L 232.915135 -131.085432 
L 233.299828 -131.085432 
L 233.684521 -131.085432 
L 234.069214 -131.085432 
L 234.453907 -131.085432 
L 234.8386 -131.085432 
L 235.223293 -131.085432 
L 235.607986 -131.085432 
L 235.992678 -131.085432 
L 236.377371 -131.085432 
L 236.762064 -131.085432 
L 237.146757 -131.085432 
L 237.53145 -131.085432 
L 237.916143 -131.085432 
L 238.300836 -131.085432 
L 238.685529 -131.085432 
L 239.070222 -131.085432 
L 239.454915 -131.085432 
L 239.454915 -131.085432 
L 239.454915 -131.085432 
L 239.070222 -131.085432 
L 238.685529 -131.085432 
L 238.300836 -131.085432 
L 237.916143 -131.085432 
L 237.53145 -131.085432 
L 237.146757 -131.085432 
L 236.762064 -131.085432 
L 236.377371 -131.085432 
L 235.992678 -131.085432 
L 235.607986 -131.085432 
L 235.223293 -131.085432 
L 234.8386 -131.085432 
L 234.453907 -131.085432 
L 234.069214 -131.085432 
L 233.684521 -131.085432 
L 233.299828 -131.085432 
L 232.915135 -131.085432 
L 232.530442 -131.085432 
L 232.145749 -131.085432 
L 231.761056 -131.085432 
L 231.376363 -131.085432 
L 230.99167 -131.085432 
L 230.606977 -131.085432 
L 230.222285 -131.085432 
L 229.837592 -131.085432 
L 229.452899 -131.085432 
L 229.068206 -131.085432 
L 228.683513 -131.085432 
L 228.29882 -131.085432 
L 227.914127 -131.085432 
L 227.529434 -131.085432 
L 227.144741 -131.085432 
L 226.760048 -131.085432 
L 226.375355 -131.085432 
L 225.990662 -131.085432 
L 225.605969 -131.085432 
L 225.221277 -131.085432 
L 224.836584 -131.085432 
L 224.451891 -131.085432 
L 224.067198 -131.085432 
L 223.682505 -131.085432 
L 223.297812 -131.085432 
L 222.913119 -131.085432 
L 222.528426 -131.085432 
L 222.143733 -131.085432 
L 221.75904 -131.085432 
L 221.374347 -131.085432 
L 220.989654 -131.085432 
L 220.604961 -131.085432 
L 220.220269 -131.085432 
L 219.835576 -131.085432 
L 219.450883 -131.085432 
L 219.06619 -131.085432 
L 218.681497 -131.085432 
L 218.296804 -131.085432 
L 217.912111 -131.085432 
L 217.527418 -131.085432 
L 217.142725 -131.085432 
L 216.758032 -131.085432 
L 216.373339 -131.085432 
L 215.988646 -131.085432 
L 215.603953 -131.085432 
L 215.21926 -131.085432 
L 214.834568 -131.085432 
L 214.449875 -131.085432 
L 214.065182 -131.085432 
L 213.680489 -131.085432 
L 213.295796 -131.085432 
L 212.911103 -131.085432 
L 212.52641 -131.085432 
L 212.141717 -131.085432 
L 211.757024 -131.085432 
L 211.372331 -131.085432 
L 210.987638 -131.085432 
L 210.602945 -131.085432 
L 210.218252 -131.085432 
L 209.83356 -131.085432 
L 209.448867 -131.085432 
L 209.064174 -131.085432 
L 208.679481 -131.085432 
L 208.294788 -131.085432 
L 207.910095 -131.085432 
L 207.525402 -131.085432 
L 207.140709 -131.085432 
L 206.756016 -131.085432 
L 206.371323 -131.085432 
L 205.98663 -131.085432 
L 205.601937 -131.085432 
L 205.217244 -131.085432 
L 204.832552 -131.085432 
L 204.447859 -131.085432 
L 204.063166 -131.085432 
L 203.678473 -131.085432 
L 203.29378 -131.085432 
L 202.909087 -131.085432 
L 202.524394 -131.085432 
L 202.139701 -131.085432 
L 201.755008 -131.085432 
L 201.370315 -131.085432 
L 200.985622 -131.085432 
L 200.600929 -131.085432 
L 200.216236 -131.085432 
L 199.831543 -131.085432 
L 199.446851 -131.085432 
L 199.062158 -131.085432 
L 198.677465 -131.085432 
L 198.292772 -131.085432 
L 197.908079 -131.085432 
L 197.523386 -131.085432 
L 197.138693 -131.085432 
L 196.754 -131.085432 
L 196.369307 -131.085432 
L 195.984614 -131.085432 
L 195.599921 -131.085432 
L 195.215228 -131.085432 
L 194.830535 -131.085432 
L 194.445843 -131.085432 
L 194.06115 -131.085432 
L 193.676457 -131.085432 
L 193.291764 -131.085432 
L 192.907071 -131.085432 
L 192.522378 -131.085432 
L 192.137685 -131.085432 
L 191.752992 -131.085432 
L 191.368299 -131.085432 
L 190.983606 -131.085432 
L 190.598913 -131.085432 
L 190.21422 -131.085432 
L 189.829527 -131.085432 
L 189.444835 -131.085432 
L 189.060142 -131.085432 
L 188.675449 -131.085432 
L 188.290756 -131.085432 
L 187.906063 -131.085432 
L 187.52137 -131.085432 
L 187.136677 -131.085432 
L 186.751984 -131.085432 
L 186.367291 -131.085432 
L 185.982598 -131.085432 
L 185.597905 -131.085432 
L 185.213212 -131.085432 
L 184.828519 -131.085432 
L 184.443826 -131.085432 
L 184.059134 -131.085432 
L 183.674441 -131.085432 
L 183.289748 -131.085432 
L 182.905055 -131.085432 
L 182.520362 -131.085432 
L 182.135669 -131.085432 
L 181.750976 -131.085432 
L 181.366283 -131.085432 
L 180.98159 -131.085432 
L 180.596897 -131.085432 
L 180.212204 -131.085432 
L 179.827511 -131.085432 
L 179.442818 -131.085432 
L 179.058126 -131.085432 
L 178.673433 -131.085432 
L 178.28874 -131.085432 
L 177.904047 -131.085432 
L 177.519354 -131.085432 
L 177.134661 -131.085432 
L 176.749968 -131.085432 
L 176.365275 -131.085432 
L 175.980582 -131.085432 
L 175.595889 -131.085432 
L 175.211196 -131.085432 
L 174.826503 -131.085432 
L 174.44181 -131.085432 
L 174.057117 -131.085432 
L 173.672425 -131.085432 
L 173.287732 -131.085432 
L 172.903039 -131.085432 
L 172.518346 -131.085432 
L 172.133653 -131.085432 
L 171.74896 -131.085432 
L 171.364267 -131.085432 
L 170.979574 -131.085432 
L 170.594881 -131.085432 
L 170.210188 -131.085432 
L 169.825495 -131.085432 
L 169.440802 -131.085432 
L 169.056109 -131.085432 
L 168.671417 -131.085432 
L 168.286724 -131.085432 
L 167.902031 -131.085432 
L 167.517338 -131.085432 
L 167.132645 -131.085432 
L 166.747952 -131.085432 
L 166.363259 -131.085432 
L 165.978566 -131.085432 
L 165.593873 -131.085432 
L 165.20918 -131.085432 
L 164.824487 -131.085432 
L 164.439794 -131.085432 
L 164.055101 -131.085432 
L 163.670409 -131.085432 
L 163.285716 -131.085432 
L 162.901023 -131.085432 
L 162.51633 -131.085432 
L 162.131637 -131.085432 
L 161.746944 -131.085432 
L 161.362251 -131.085432 
L 160.977558 -131.085432 
L 160.592865 -131.085432 
L 160.208172 -131.085432 
L 159.823479 -131.085432 
L 159.438786 -131.085432 
L 159.054093 -131.085432 
L 158.6694 -131.085432 
L 158.284708 -131.085432 
L 157.900015 -131.085432 
L 157.515322 -131.085432 
L 157.130629 -131.085432 
L 156.745936 -131.085432 
L 156.361243 -131.085432 
L 155.97655 -131.085432 
L 155.591857 -131.085432 
L 155.207164 -131.085432 
L 154.822471 -131.085432 
L 154.437778 -131.085432 
L 154.053085 -131.085432 
L 153.668392 -131.085432 
L 153.2837 -131.085432 
L 152.899007 -131.085432 
L 152.514314 -131.085432 
L 152.129621 -131.085432 
L 151.744928 -131.085432 
L 151.360235 -131.085432 
L 150.975542 -131.085432 
L 150.590849 -131.085432 
L 150.206156 -131.085432 
L 149.821463 -131.085432 
L 149.43677 -131.085432 
L 149.052077 -131.085432 
L 148.667384 -131.085432 
L 148.282692 -131.085432 
L 147.897999 -131.085432 
L 147.513306 -131.085432 
L 147.128613 -131.085432 
L 146.74392 -131.085432 
L 146.359227 -131.085432 
L 145.974534 -131.085432 
L 145.589841 -131.085432 
L 145.205148 -131.085432 
L 144.820455 -131.085432 
L 144.435762 -131.085432 
L 144.051069 -131.085432 
L 143.666376 -131.085432 
L 143.281683 -131.085432 
L 142.896991 -131.085432 
L 142.512298 -131.085432 
L 142.127605 -131.085432 
L 141.742912 -131.085432 
L 141.358219 -131.085432 
L 140.973526 -131.085432 
L 140.588833 -131.085432 
L 140.20414 -131.085432 
L 139.819447 -131.085432 
L 139.434754 -131.085432 
L 139.050061 -131.085432 
L 138.665368 -131.085432 
L 138.280675 -131.085432 
L 137.895983 -131.085432 
L 137.51129 -131.085432 
L 137.126597 -131.085432 
L 136.741904 -131.085432 
L 136.357211 -131.085432 
L 135.972518 -131.085432 
L 135.587825 -131.085432 
L 135.203132 -131.085432 
L 134.818439 -131.085432 
L 134.433746 -131.085432 
L 134.049053 -131.085432 
L 133.66436 -131.085432 
L 133.279667 -131.085432 
L 132.894975 -131.085432 
L 132.510282 -131.085432 
L 132.125589 -131.085432 
L 131.740896 -131.085432 
L 131.356203 -131.085432 
L 130.97151 -131.085432 
L 130.586817 -131.085432 
L 130.202124 -131.085432 
L 129.817431 -131.085432 
L 129.432738 -131.085432 
L 129.048045 -131.085432 
L 128.663352 -131.085432 
L 128.278659 -131.085432 
L 127.893966 -131.085432 
L 127.509274 -131.085432 
L 127.124581 -131.085432 
L 126.739888 -131.085432 
L 126.355195 -131.085432 
L 125.970502 -131.085432 
L 125.585809 -131.085432 
L 125.201116 -131.085432 
L 124.816423 -131.085432 
L 124.43173 -131.085432 
L 124.047037 -131.085432 
L 123.662344 -131.085432 
L 123.277651 -131.085432 
L 122.892958 -131.085432 
L 122.508266 -131.085432 
L 122.123573 -131.085432 
L 121.73888 -131.085432 
L 121.354187 -131.085432 
L 120.969494 -131.085432 
L 120.584801 -131.085432 
L 120.200108 -131.085432 
L 119.815415 -131.085432 
L 119.430722 -131.085432 
L 119.046029 -131.085432 
L 118.661336 -131.085432 
L 118.276643 -131.085432 
L 117.89195 -131.085432 
L 117.507258 -131.085432 
L 117.122565 -131.085432 
L 116.737872 -131.085432 
L 116.353179 -131.085432 
L 115.968486 -131.085432 
L 115.583793 -131.085432 
L 115.1991 -131.085432 
L 114.814407 -131.085432 
L 114.429714 -131.085432 
L 114.045021 -131.085432 
L 113.660328 -131.085432 
L 113.275635 -131.085432 
L 112.890942 -131.085432 
L 112.506249 -131.085432 
L 112.121557 -131.085432 
L 111.736864 -131.085432 
L 111.352171 -131.085432 
L 110.967478 -131.085432 
L 110.582785 -131.085432 
L 110.198092 -131.085432 
L 109.813399 -131.085432 
L 109.428706 -131.085432 
L 109.044013 -131.085432 
L 108.65932 -131.085432 
L 108.274627 -131.085432 
L 107.889934 -131.085432 
L 107.505241 -131.085432 
L 107.120549 -131.085432 
L 106.735856 -131.085432 
L 106.351163 -131.085432 
L 105.96647 -131.085432 
L 105.581777 -131.085432 
L 105.197084 -131.085432 
L 104.812391 -131.085432 
L 104.427698 -131.085432 
L 104.043005 -131.085432 
L 103.658312 -131.085432 
L 103.273619 -131.085432 
L 102.888926 -131.085432 
L 102.504233 -131.085432 
L 102.11954 -131.085432 
L 101.734848 -131.085432 
L 101.350155 -131.085432 
L 100.965462 -131.085432 
L 100.580769 -131.085432 
L 100.196076 -131.085432 
L 99.811383 -131.085432 
L 99.42669 -131.085432 
L 99.041997 -131.085432 
L 98.657304 -131.085432 
L 98.272611 -131.085432 
L 97.887918 -131.085432 
L 97.503225 -131.085432 
L 97.118532 -131.085432 
L 96.73384 -131.085432 
L 96.349147 -131.085432 
L 95.964454 -131.085432 
L 95.579761 -131.085432 
L 95.195068 -131.085432 
L 94.810375 -131.085432 
L 94.425682 -131.085432 
L 94.040989 -131.085432 
L 93.656296 -131.085432 
L 93.271603 -131.085432 
L 92.88691 -131.085432 
L 92.502217 -131.085432 
L 92.117524 -131.085432 
L 91.732832 -131.085432 
L 91.348139 -131.085432 
L 90.963446 -131.085432 
L 90.578753 -131.085432 
L 90.19406 -131.085432 
L 89.809367 -131.085432 
L 89.424674 -131.085432 
L 89.039981 -131.085432 
L 88.655288 -131.085432 
L 88.270595 -131.085432 
L 87.885902 -131.085432 
L 87.501209 -131.085432 
L 87.116516 -131.085432 
L 86.731823 -131.085432 
L 86.347131 -131.085432 
L 85.962438 -131.085432 
L 85.577745 -131.085432 
L 85.193052 -131.085432 
L 84.808359 -131.085432 
L 84.423666 -131.085432 
L 84.038973 -131.085432 
L 83.65428 -131.085432 
L 83.269587 -131.085432 
L 82.884894 -131.085432 
L 82.500201 -131.085432 
L 82.115508 -131.085432 
L 81.730815 -131.085432 
L 81.346123 -131.085432 
L 80.96143 -131.085432 
L 80.576737 -131.085432 
L 80.192044 -131.085432 
L 79.807351 -131.085432 
L 79.422658 -131.085432 
L 79.037965 -131.085432 
L 78.653272 -131.085432 
L 78.268579 -131.085432 
L 77.883886 -131.085432 
L 77.499193 -131.085432 
L 77.1145 -131.085432 
L 76.729807 -131.085432 
L 76.345115 -131.085432 
L 75.960422 -131.085432 
L 75.575729 -131.085432 
L 75.191036 -131.085432 
L 74.806343 -131.085432 
L 74.42165 -131.085432 
L 74.036957 -131.085432 
L 73.652264 -131.085432 
L 73.267571 -131.085432 
L 72.882878 -131.085432 
L 72.498185 -131.085432 
L 72.113492 -131.085432 
L 71.728799 -131.085432 
L 71.344106 -131.085432 
L 70.959414 -131.085432 
L 70.574721 -131.085432 
L 70.190028 -131.085432 
L 69.805335 -131.085432 
L 69.420642 -131.085432 
L 69.035949 -131.085432 
L 68.651256 -131.085432 
L 68.266563 -131.085432 
L 67.88187 -131.085432 
L 67.497177 -131.085432 
L 67.112484 -131.085432 
L 66.727791 -131.085432 
L 66.343098 -131.085432 
L 65.958406 -131.085432 
L 65.573713 -131.085432 
L 65.18902 -131.085432 
L 64.804327 -131.085432 
L 64.419634 -131.085432 
L 64.034941 -131.085432 
L 63.650248 -131.085432 
L 63.265555 -131.085432 
L 62.880862 -131.085432 
L 62.496169 -131.085432 
L 62.111476 -131.085432 
L 61.726783 -131.085432 
L 61.34209 -131.085432 
L 60.957398 -131.085432 
L 60.572705 -131.085432 
L 60.188012 -131.085432 
L 59.803319 -131.085432 
L 59.418626 -131.085432 
L 59.033933 -131.085432 
L 58.64924 -131.085432 
L 58.264547 -131.085432 
L 57.879854 -131.085432 
L 57.495161 -131.085432 
L 57.110468 -131.085432 
L 56.725775 -131.085432 
L 56.341082 -131.085432 
L 55.956389 -131.085432 
L 55.571697 -131.085432 
L 55.187004 -131.085432 
L 54.802311 -131.085432 
L 54.417618 -131.085432 
L 54.032925 -131.085432 
L 53.648232 -131.085432 
L 53.263539 -131.085432 
L 52.878846 -131.085432 
L 52.494153 -131.085432 
L 52.10946 -131.085432 
z
"/>
    </defs>
    <g clip-path="url(#pa15525bd17)">
     <use xlink:href="#ma8942ec15e" x="0" y="200.79625" style="fill: #c0392b; fill-opacity: 0.25"/>
    </g>
   </g>
   <g id="FillBetweenPolyCollection_2">
    <defs>
     <path id="m4252fb2757" d="M 52.10946 -155.964075 
L 52.10946 -88.554339 
L 52.494153 -72.637095 
L 52.878846 -72.380623 
L 53.263539 -78.319744 
L 53.648232 -76.35275 
L 54.032925 -65.032684 
L 54.417618 -69.848613 
L 54.802311 -71.964243 
L 55.187004 -81.831493 
L 55.571697 -63.939486 
L 55.956389 -77.073748 
L 56.341082 -70.583765 
L 56.725775 -73.095723 
L 57.110468 -71.164869 
L 57.495161 -74.07545 
L 57.879854 -69.331094 
L 58.264547 -70.229453 
L 58.64924 -66.51595 
L 59.033933 -67.466083 
L 59.418626 -64.659235 
L 59.803319 -66.300682 
L 60.188012 -74.357938 
L 60.572705 -72.986999 
L 60.957398 -60.995108 
L 61.34209 -64.842293 
L 61.726783 -65.116233 
L 62.111476 -69.732002 
L 62.496169 -67.504112 
L 62.880862 -74.374438 
L 63.265555 -65.570614 
L 63.650248 -64.979061 
L 64.034941 -59.923534 
L 64.419634 -67.545839 
L 64.804327 -65.930445 
L 65.18902 -69.365767 
L 65.573713 -68.532869 
L 65.958406 -64.696547 
L 66.343098 -71.62288 
L 66.727791 -65.432768 
L 67.112484 -72.137799 
L 67.497177 -63.969938 
L 67.88187 -68.389244 
L 68.266563 -63.454807 
L 68.651256 -58.478814 
L 69.035949 -61.408034 
L 69.420642 -63.899262 
L 69.805335 -66.479799 
L 70.190028 -64.720192 
L 70.574721 -65.357918 
L 70.959414 -64.863482 
L 71.344106 -70.273852 
L 71.728799 -67.859694 
L 72.113492 -57.518513 
L 72.498185 -68.771905 
L 72.882878 -67.702509 
L 73.267571 -58.847384 
L 73.652264 -57.501567 
L 74.036957 -65.828164 
L 74.42165 -63.101681 
L 74.806343 -65.834627 
L 75.191036 -65.431891 
L 75.575729 -66.886631 
L 75.960422 -56.11472 
L 76.345115 -69.337449 
L 76.729807 -62.001498 
L 77.1145 -62.745925 
L 77.499193 -63.620443 
L 77.883886 -55.310911 
L 78.268579 -66.007372 
L 78.653272 -60.419008 
L 79.037965 -62.791671 
L 79.422658 -71.121649 
L 79.807351 -64.930757 
L 80.192044 -65.348946 
L 80.576737 -66.662746 
L 80.96143 -64.648057 
L 81.346123 -59.544477 
L 81.730815 -64.759465 
L 82.115508 -65.415649 
L 82.500201 -60.809351 
L 82.884894 -65.701715 
L 83.269587 -70.599913 
L 83.65428 -61.170749 
L 84.038973 -61.017361 
L 84.423666 -61.278562 
L 84.808359 -60.531676 
L 85.193052 -59.710447 
L 85.577745 -64.484509 
L 85.962438 -67.040706 
L 86.347131 -66.437336 
L 86.731823 -65.23734 
L 87.116516 -59.083813 
L 87.501209 -59.649191 
L 87.885902 -64.177205 
L 88.270595 -69.359916 
L 88.655288 -63.566188 
L 89.039981 -61.862587 
L 89.424674 -67.167919 
L 89.809367 -59.759995 
L 90.19406 -63.741915 
L 90.578753 -68.015612 
L 90.963446 -63.707911 
L 91.348139 -63.72428 
L 91.732832 -63.330389 
L 92.117524 -67.06269 
L 92.502217 -64.127647 
L 92.88691 -61.114368 
L 93.271603 -64.018586 
L 93.656296 -65.448562 
L 94.040989 -66.984285 
L 94.425682 -63.001158 
L 94.810375 -68.89426 
L 95.195068 -62.154742 
L 95.579761 -65.345088 
L 95.964454 -56.674661 
L 96.349147 -63.504679 
L 96.73384 -61.074559 
L 97.118532 -63.17966 
L 97.503225 -59.940588 
L 97.887918 -58.834997 
L 98.272611 -59.83595 
L 98.657304 -62.378223 
L 99.041997 -62.744302 
L 99.42669 -63.225578 
L 99.811383 -60.284245 
L 100.196076 -60.091339 
L 100.580769 -57.879705 
L 100.965462 -61.406161 
L 101.350155 -57.12968 
L 101.734848 -63.83112 
L 102.11954 -57.723774 
L 102.504233 -58.022486 
L 102.888926 -67.256039 
L 103.273619 -62.060993 
L 103.658312 -62.348146 
L 104.043005 -65.855424 
L 104.427698 -44.648977 
L 104.812391 -55.463163 
L 105.197084 -60.015818 
L 105.581777 -53.122779 
L 105.96647 -61.347298 
L 106.351163 -59.175626 
L 106.735856 -64.562965 
L 107.120549 -60.36763 
L 107.505241 -54.820291 
L 107.889934 -54.210841 
L 108.274627 -59.16261 
L 108.65932 -61.848256 
L 109.044013 -60.27444 
L 109.428706 -56.930835 
L 109.813399 -55.986959 
L 110.198092 -61.505107 
L 110.582785 -66.381538 
L 110.967478 -60.243201 
L 111.352171 -59.39731 
L 111.736864 -59.226748 
L 112.121557 -62.520697 
L 112.506249 -55.503846 
L 112.890942 -58.98468 
L 113.275635 -60.597877 
L 113.660328 -55.622553 
L 114.045021 -58.390141 
L 114.429714 -57.517964 
L 114.814407 -59.279574 
L 115.1991 -57.840705 
L 115.583793 -57.87541 
L 115.968486 -69.459134 
L 116.353179 -51.425518 
L 116.737872 -61.101533 
L 117.122565 -59.429772 
L 117.507258 -59.41199 
L 117.89195 -56.074558 
L 118.276643 -72.486107 
L 118.661336 -62.474133 
L 119.046029 -57.35997 
L 119.430722 -62.556842 
L 119.815415 -60.227059 
L 120.200108 -57.37451 
L 120.584801 -61.769779 
L 120.969494 -60.063155 
L 121.354187 -54.391409 
L 121.73888 -62.940072 
L 122.123573 -60.278479 
L 122.508266 -55.376194 
L 122.892958 -52.776813 
L 123.277651 -65.408423 
L 123.662344 -62.779699 
L 124.047037 -55.116846 
L 124.43173 -77.093465 
L 124.816423 -60.379841 
L 125.201116 -58.984951 
L 125.585809 -57.584313 
L 125.970502 -53.869649 
L 126.355195 -60.769645 
L 126.739888 -65.067006 
L 127.124581 -58.784725 
L 127.509274 -61.666668 
L 127.893966 -61.480634 
L 128.278659 -55.57279 
L 128.663352 -54.536396 
L 129.048045 -55.92409 
L 129.432738 -52.268958 
L 129.817431 -54.944858 
L 130.202124 -61.469239 
L 130.586817 -62.66244 
L 130.97151 -61.118843 
L 131.356203 -60.903609 
L 131.740896 -53.528958 
L 132.125589 -59.654582 
L 132.510282 -52.240348 
L 132.894975 -54.930456 
L 133.279667 -60.452552 
L 133.66436 -57.501415 
L 134.049053 -61.056876 
L 134.433746 -57.607024 
L 134.818439 -58.647583 
L 135.203132 -52.141508 
L 135.587825 -59.715659 
L 135.972518 -61.142579 
L 136.357211 -60.557305 
L 136.741904 -58.713908 
L 137.126597 -64.008947 
L 137.51129 -61.188312 
L 137.895983 -57.920609 
L 138.280675 -60.958065 
L 138.665368 -60.327683 
L 139.050061 -60.811512 
L 139.434754 -55.411186 
L 139.819447 -59.234402 
L 140.20414 -57.84613 
L 140.588833 -59.893862 
L 140.973526 -62.115183 
L 141.358219 -55.9459 
L 141.742912 -59.507162 
L 142.127605 -54.020127 
L 142.512298 -55.657768 
L 142.896991 -60.272358 
L 143.281683 -62.996113 
L 143.666376 -60.454701 
L 144.051069 -55.872066 
L 144.435762 -61.22231 
L 144.820455 -57.147288 
L 145.205148 -65.428555 
L 145.589841 -63.110638 
L 145.974534 -56.366233 
L 146.359227 -61.826191 
L 146.74392 -55.281953 
L 147.128613 -69.190916 
L 147.513306 -59.633126 
L 147.897999 -57.965088 
L 148.282692 -64.528842 
L 148.667384 -62.837215 
L 149.052077 -58.098256 
L 149.43677 -60.870177 
L 149.821463 -55.481387 
L 150.206156 -60.039556 
L 150.590849 -53.627341 
L 150.975542 -62.693492 
L 151.360235 -56.428365 
L 151.744928 -58.656043 
L 152.129621 -63.080116 
L 152.514314 -57.26833 
L 152.899007 -58.69982 
L 153.2837 -62.549281 
L 153.668392 -66.112456 
L 154.053085 -54.839334 
L 154.437778 -61.522329 
L 154.822471 -61.572168 
L 155.207164 -57.097758 
L 155.591857 -59.965942 
L 155.97655 -65.021031 
L 156.361243 -59.582421 
L 156.745936 -68.355812 
L 157.130629 -63.909175 
L 157.515322 -61.644022 
L 157.900015 -62.858043 
L 158.284708 -61.167574 
L 158.6694 -55.42439 
L 159.054093 -57.482457 
L 159.438786 -67.558662 
L 159.823479 -54.69504 
L 160.208172 -61.283519 
L 160.592865 -62.009076 
L 160.977558 -60.909038 
L 161.362251 -61.78757 
L 161.746944 -65.68435 
L 162.131637 -63.839321 
L 162.51633 -63.917637 
L 162.901023 -59.305714 
L 163.285716 -55.235663 
L 163.670409 -57.818008 
L 164.055101 -61.977083 
L 164.439794 -58.671498 
L 164.824487 -64.687163 
L 165.20918 -61.16104 
L 165.593873 -60.636426 
L 165.978566 -62.104082 
L 166.363259 -62.685237 
L 166.747952 -58.337524 
L 167.132645 -57.450779 
L 167.517338 -57.439628 
L 167.902031 -60.702039 
L 168.286724 -64.400758 
L 168.671417 -62.937358 
L 169.056109 -59.409444 
L 169.440802 -58.698601 
L 169.825495 -63.228514 
L 170.210188 -64.544182 
L 170.594881 -62.403783 
L 170.979574 -60.286697 
L 171.364267 -63.553969 
L 171.74896 -56.312026 
L 172.133653 -74.245455 
L 172.518346 -52.640845 
L 172.903039 -56.01889 
L 173.287732 -55.806195 
L 173.672425 -64.65448 
L 174.057117 -61.829564 
L 174.44181 -58.267765 
L 174.826503 -61.37325 
L 175.211196 -66.509301 
L 175.595889 -64.205719 
L 175.980582 -64.237273 
L 176.365275 -63.146188 
L 176.749968 -59.907575 
L 177.134661 -62.089903 
L 177.519354 -67.371879 
L 177.904047 -62.641951 
L 178.28874 -61.969216 
L 178.673433 -66.672916 
L 179.058126 -61.532992 
L 179.442818 -66.092051 
L 179.827511 -69.335679 
L 180.212204 -65.972845 
L 180.596897 -63.221544 
L 180.98159 -64.187815 
L 181.366283 -67.309507 
L 181.750976 -63.194419 
L 182.135669 -62.705068 
L 182.520362 -60.297916 
L 182.905055 -63.497721 
L 183.289748 -59.257658 
L 183.674441 -61.343488 
L 184.059134 -59.617595 
L 184.443826 -59.125816 
L 184.828519 -66.699331 
L 185.213212 -66.982479 
L 185.597905 -65.935411 
L 185.982598 -65.981095 
L 186.367291 -65.442272 
L 186.751984 -64.878188 
L 187.136677 -66.483953 
L 187.52137 -72.047209 
L 187.906063 -60.026435 
L 188.290756 -70.791166 
L 188.675449 -62.664451 
L 189.060142 -64.809088 
L 189.444835 -62.39323 
L 189.829527 -64.199681 
L 190.21422 -66.782515 
L 190.598913 -67.120709 
L 190.983606 -62.108642 
L 191.368299 -69.778308 
L 191.752992 -64.357118 
L 192.137685 -62.354038 
L 192.522378 -64.849158 
L 192.907071 -65.058665 
L 193.291764 -67.026431 
L 193.676457 -66.114974 
L 194.06115 -64.106411 
L 194.445843 -63.637525 
L 194.830535 -66.756258 
L 195.215228 -69.600302 
L 195.599921 -65.161592 
L 195.984614 -71.905126 
L 196.369307 -64.596621 
L 196.754 -66.765146 
L 197.138693 -69.644038 
L 197.523386 -61.025248 
L 197.908079 -66.034137 
L 198.292772 -68.433202 
L 198.677465 -77.250251 
L 199.062158 -71.064135 
L 199.446851 -68.977997 
L 199.831543 -66.660881 
L 200.216236 -67.750982 
L 200.600929 -67.224968 
L 200.985622 -66.691629 
L 201.370315 -67.807451 
L 201.755008 -71.504965 
L 202.139701 -63.599633 
L 202.524394 -68.455137 
L 202.909087 -67.437901 
L 203.29378 -66.764229 
L 203.678473 -68.240749 
L 204.063166 -75.230564 
L 204.447859 -65.052161 
L 204.832552 -73.679284 
L 205.217244 -75.51236 
L 205.601937 -68.771407 
L 205.98663 -72.764635 
L 206.371323 -70.283417 
L 206.756016 -67.993551 
L 207.140709 -72.757015 
L 207.525402 -70.517954 
L 207.910095 -67.957725 
L 208.294788 -70.654645 
L 208.679481 -77.168222 
L 209.064174 -70.954539 
L 209.448867 -72.239165 
L 209.83356 -75.141987 
L 210.218252 -70.309645 
L 210.602945 -69.075762 
L 210.987638 -68.182039 
L 211.372331 -69.525052 
L 211.757024 -77.328256 
L 212.141717 -72.26433 
L 212.52641 -75.055809 
L 212.911103 -73.556513 
L 213.295796 -74.696567 
L 213.680489 -67.069484 
L 214.065182 -76.55917 
L 214.449875 -80.125213 
L 214.834568 -71.255399 
L 215.21926 -73.016609 
L 215.603953 -72.068176 
L 215.988646 -73.374657 
L 216.373339 -77.652626 
L 216.758032 -81.853977 
L 217.142725 -74.359096 
L 217.527418 -77.096277 
L 217.912111 -74.243931 
L 218.296804 -79.859393 
L 218.681497 -79.253788 
L 219.06619 -75.30005 
L 219.450883 -78.569668 
L 219.835576 -75.115723 
L 220.220269 -75.206599 
L 220.604961 -78.349361 
L 220.989654 -78.257127 
L 221.374347 -74.645808 
L 221.75904 -79.071907 
L 222.143733 -71.306342 
L 222.528426 -79.692801 
L 222.913119 -82.7769 
L 223.297812 -83.376307 
L 223.682505 -84.183577 
L 224.067198 -74.917098 
L 224.451891 -77.266553 
L 224.836584 -84.874429 
L 225.221277 -81.764319 
L 225.605969 -77.920907 
L 225.990662 -82.881504 
L 226.375355 -77.063752 
L 226.760048 -79.559142 
L 227.144741 -81.849389 
L 227.529434 -82.906899 
L 227.914127 -78.177865 
L 228.29882 -82.608493 
L 228.683513 -83.742366 
L 229.068206 -80.24979 
L 229.452899 -84.525751 
L 229.837592 -88.190228 
L 230.222285 -89.829786 
L 230.606977 -90.107572 
L 230.99167 -92.801824 
L 231.376363 -88.68236 
L 231.761056 -94.864024 
L 232.145749 -92.694089 
L 232.530442 -89.031125 
L 232.915135 -93.937864 
L 233.299828 -91.69452 
L 233.684521 -102.649481 
L 234.069214 -95.590864 
L 234.453907 -94.602571 
L 234.8386 -93.972689 
L 235.223293 -95.436741 
L 235.607986 -95.147971 
L 235.992678 -100.766936 
L 236.377371 -123.703657 
L 236.762064 -114.920516 
L 237.146757 -131.085432 
L 237.53145 -131.085432 
L 237.916143 -131.085432 
L 238.300836 -131.085432 
L 238.685529 -131.085432 
L 239.070222 -131.085432 
L 239.454915 -131.085432 
L 239.454915 -131.085432 
L 239.454915 -131.085432 
L 239.070222 -131.085432 
L 238.685529 -131.085432 
L 238.300836 -131.085432 
L 237.916143 -131.085432 
L 237.53145 -131.085432 
L 237.146757 -131.085432 
L 236.762064 -131.085432 
L 236.377371 -131.085432 
L 235.992678 -135.640312 
L 235.607986 -144.193447 
L 235.223293 -144.017332 
L 234.8386 -142.537145 
L 234.453907 -142.754096 
L 234.069214 -141.99103 
L 233.684521 -140.579903 
L 233.299828 -146.120883 
L 232.915135 -148.272362 
L 232.530442 -148.903968 
L 232.145749 -153.965166 
L 231.761056 -145.850929 
L 231.376363 -151.970719 
L 230.99167 -153.075943 
L 230.606977 -152.075915 
L 230.222285 -150.458166 
L 229.837592 -152.285725 
L 229.452899 -150.517428 
L 229.068206 -156.594341 
L 228.683513 -157.314909 
L 228.29882 -156.815674 
L 227.914127 -153.492408 
L 227.529434 -157.437335 
L 227.144741 -157.278302 
L 226.760048 -161.8271 
L 226.375355 -157.986599 
L 225.990662 -160.367819 
L 225.605969 -158.701163 
L 225.221277 -162.859159 
L 224.836584 -161.152393 
L 224.451891 -155.105559 
L 224.067198 -169.257265 
L 223.682505 -157.674854 
L 223.297812 -162.55708 
L 222.913119 -162.266485 
L 222.528426 -163.152162 
L 222.143733 -164.411559 
L 221.75904 -164.254906 
L 221.374347 -161.121119 
L 220.989654 -161.680833 
L 220.604961 -163.661783 
L 220.220269 -164.37384 
L 219.835576 -162.807194 
L 219.450883 -163.284444 
L 219.06619 -161.724131 
L 218.681497 -164.665412 
L 218.296804 -160.536942 
L 217.912111 -165.522438 
L 217.527418 -163.396914 
L 217.142725 -167.762467 
L 216.758032 -164.387521 
L 216.373339 -162.90295 
L 215.988646 -161.464198 
L 215.603953 -162.09912 
L 215.21926 -164.799282 
L 214.834568 -165.853071 
L 214.449875 -172.197986 
L 214.065182 -166.389639 
L 213.680489 -165.473456 
L 213.295796 -168.023026 
L 212.911103 -165.714816 
L 212.52641 -165.348469 
L 212.141717 -164.211248 
L 211.757024 -162.772054 
L 211.372331 -164.579701 
L 210.987638 -167.868253 
L 210.602945 -168.678455 
L 210.218252 -165.367813 
L 209.83356 -160.254065 
L 209.448867 -166.276605 
L 209.064174 -171.383169 
L 208.679481 -167.669414 
L 208.294788 -170.842402 
L 207.910095 -167.101932 
L 207.525402 -169.13663 
L 207.140709 -173.213664 
L 206.756016 -167.989107 
L 206.371323 -169.127065 
L 205.98663 -174.314735 
L 205.601937 -170.337195 
L 205.217244 -170.536922 
L 204.832552 -169.981784 
L 204.447859 -168.553433 
L 204.063166 -169.047592 
L 203.678473 -169.569732 
L 203.29378 -169.078111 
L 202.909087 -168.503796 
L 202.524394 -173.256269 
L 202.139701 -166.927561 
L 201.755008 -170.217185 
L 201.370315 -168.198562 
L 200.985622 -168.583093 
L 200.600929 -168.220829 
L 200.216236 -167.714575 
L 199.831543 -168.613625 
L 199.446851 -166.852214 
L 199.062158 -168.388456 
L 198.677465 -172.287088 
L 198.292772 -168.13457 
L 197.908079 -169.093403 
L 197.523386 -168.950372 
L 197.138693 -169.334836 
L 196.754 -171.325831 
L 196.369307 -170.968869 
L 195.984614 -169.210935 
L 195.599921 -169.233024 
L 195.215228 -170.101079 
L 194.830535 -171.561978 
L 194.445843 -169.156015 
L 194.06115 -171.320094 
L 193.676457 -173.586609 
L 193.291764 -168.996755 
L 192.907071 -167.120784 
L 192.522378 -170.443187 
L 192.137685 -169.713516 
L 191.752992 -172.990428 
L 191.368299 -170.593812 
L 190.983606 -172.251426 
L 190.598913 -170.013508 
L 190.21422 -169.79435 
L 189.829527 -172.54594 
L 189.444835 -172.66963 
L 189.060142 -171.40835 
L 188.675449 -170.208546 
L 188.290756 -172.277922 
L 187.906063 -169.441759 
L 187.52137 -170.620066 
L 187.136677 -173.375443 
L 186.751984 -170.235302 
L 186.367291 -169.24035 
L 185.982598 -171.400789 
L 185.597905 -173.143355 
L 185.213212 -167.320556 
L 184.828519 -173.682327 
L 184.443826 -168.489695 
L 184.059134 -171.65304 
L 183.674441 -176.491697 
L 183.289748 -172.202677 
L 182.905055 -170.074551 
L 182.520362 -172.284294 
L 182.135669 -169.382958 
L 181.750976 -173.229057 
L 181.366283 -172.549681 
L 180.98159 -172.100396 
L 180.596897 -170.602883 
L 180.212204 -172.40941 
L 179.827511 -175.777268 
L 179.442818 -173.418102 
L 179.058126 -170.238545 
L 178.673433 -176.22876 
L 178.28874 -172.088107 
L 177.904047 -172.525111 
L 177.519354 -172.174684 
L 177.134661 -171.143823 
L 176.749968 -172.300829 
L 176.365275 -172.798082 
L 175.980582 -171.41877 
L 175.595889 -176.041696 
L 175.211196 -171.912043 
L 174.826503 -168.979911 
L 174.44181 -174.88753 
L 174.057117 -174.925784 
L 173.672425 -172.395287 
L 173.287732 -169.963627 
L 172.903039 -167.572711 
L 172.518346 -174.048438 
L 172.133653 -174.14273 
L 171.74896 -173.479175 
L 171.364267 -171.319148 
L 170.979574 -172.329647 
L 170.594881 -174.114142 
L 170.210188 -168.936194 
L 169.825495 -173.87832 
L 169.440802 -174.489525 
L 169.056109 -173.425714 
L 168.671417 -175.180793 
L 168.286724 -174.956573 
L 167.902031 -172.051592 
L 167.517338 -175.631815 
L 167.132645 -172.311721 
L 166.747952 -171.106838 
L 166.363259 -171.350502 
L 165.978566 -174.368661 
L 165.593873 -176.564666 
L 165.20918 -171.944137 
L 164.824487 -175.071721 
L 164.439794 -174.894914 
L 164.055101 -175.141566 
L 163.670409 -171.399137 
L 163.285716 -177.058448 
L 162.901023 -177.008014 
L 162.51633 -173.991646 
L 162.131637 -176.014288 
L 161.746944 -169.501163 
L 161.362251 -171.956046 
L 160.977558 -173.319976 
L 160.592865 -171.997815 
L 160.208172 -174.032804 
L 159.823479 -170.06688 
L 159.438786 -170.254464 
L 159.054093 -173.817938 
L 158.6694 -173.8411 
L 158.284708 -177.550162 
L 157.900015 -174.914485 
L 157.515322 -167.740342 
L 157.130629 -177.284802 
L 156.745936 -184.30422 
L 156.361243 -176.454701 
L 155.97655 -172.986741 
L 155.591857 -170.113163 
L 155.207164 -174.110577 
L 154.822471 -173.674546 
L 154.437778 -172.110119 
L 154.053085 -170.081523 
L 153.668392 -176.758153 
L 153.2837 -174.268609 
L 152.899007 -175.590063 
L 152.514314 -172.38885 
L 152.129621 -173.637959 
L 151.744928 -174.159367 
L 151.360235 -178.023033 
L 150.975542 -171.631234 
L 150.590849 -174.038455 
L 150.206156 -174.768697 
L 149.821463 -171.240382 
L 149.43677 -174.495272 
L 149.052077 -177.504952 
L 148.667384 -172.456559 
L 148.282692 -177.358109 
L 147.897999 -176.903161 
L 147.513306 -172.518218 
L 147.128613 -175.779337 
L 146.74392 -171.318956 
L 146.359227 -175.46513 
L 145.974534 -170.572595 
L 145.589841 -175.359172 
L 145.205148 -178.558093 
L 144.820455 -172.538596 
L 144.435762 -172.43614 
L 144.051069 -172.363802 
L 143.666376 -171.784598 
L 143.281683 -174.518962 
L 142.896991 -171.338191 
L 142.512298 -177.480336 
L 142.127605 -170.884995 
L 141.742912 -173.774547 
L 141.358219 -170.10019 
L 140.973526 -173.656861 
L 140.588833 -172.867104 
L 140.20414 -171.161324 
L 139.819447 -173.389613 
L 139.434754 -170.40353 
L 139.050061 -172.602947 
L 138.665368 -174.507153 
L 138.280675 -171.589873 
L 137.895983 -174.65636 
L 137.51129 -175.991573 
L 137.126597 -175.797702 
L 136.741904 -174.721635 
L 136.357211 -178.190246 
L 135.972518 -172.713474 
L 135.587825 -173.564908 
L 135.203132 -170.550667 
L 134.818439 -177.270902 
L 134.433746 -171.358329 
L 134.049053 -173.379367 
L 133.66436 -174.314282 
L 133.279667 -175.848057 
L 132.894975 -173.36977 
L 132.510282 -172.455918 
L 132.125589 -176.385384 
L 131.740896 -173.11332 
L 131.356203 -177.971941 
L 130.97151 -173.088601 
L 130.586817 -174.411366 
L 130.202124 -173.294302 
L 129.817431 -172.010941 
L 129.432738 -168.001994 
L 129.048045 -170.961816 
L 128.663352 -172.918089 
L 128.278659 -177.374538 
L 127.893966 -175.89814 
L 127.509274 -175.478282 
L 127.124581 -173.53722 
L 126.739888 -174.821777 
L 126.355195 -179.59798 
L 125.970502 -172.135529 
L 125.585809 -173.350886 
L 125.201116 -174.200609 
L 124.816423 -176.130964 
L 124.43173 -186.503523 
L 124.047037 -174.946572 
L 123.662344 -177.328505 
L 123.277651 -176.578611 
L 122.892958 -173.835195 
L 122.508266 -175.103735 
L 122.123573 -173.82709 
L 121.73888 -175.552629 
L 121.354187 -171.110788 
L 120.969494 -171.630996 
L 120.584801 -173.782482 
L 120.200108 -173.980723 
L 119.815415 -176.609833 
L 119.430722 -174.131439 
L 119.046029 -174.265188 
L 118.661336 -173.637689 
L 118.276643 -178.222781 
L 117.89195 -172.140897 
L 117.507258 -175.932825 
L 117.122565 -172.814068 
L 116.737872 -175.161881 
L 116.353179 -175.188622 
L 115.968486 -172.910756 
L 115.583793 -174.592335 
L 115.1991 -173.861839 
L 114.814407 -173.552076 
L 114.429714 -171.815463 
L 114.045021 -175.517882 
L 113.660328 -171.181151 
L 113.275635 -171.019061 
L 112.890942 -176.69905 
L 112.506249 -173.380414 
L 112.121557 -174.799577 
L 111.736864 -179.481956 
L 111.352171 -172.556265 
L 110.967478 -175.963048 
L 110.582785 -174.29268 
L 110.198092 -173.579345 
L 109.813399 -173.045389 
L 109.428706 -170.964871 
L 109.044013 -175.621397 
L 108.65932 -173.732023 
L 108.274627 -175.024281 
L 107.889934 -172.91992 
L 107.505241 -173.022133 
L 107.120549 -174.992981 
L 106.735856 -172.490809 
L 106.351163 -170.540583 
L 105.96647 -177.619222 
L 105.581777 -171.141403 
L 105.197084 -176.686819 
L 104.812391 -168.473528 
L 104.427698 -170.009599 
L 104.043005 -177.785695 
L 103.658312 -175.920258 
L 103.273619 -176.233355 
L 102.888926 -178.898053 
L 102.504233 -171.935698 
L 102.11954 -174.47496 
L 101.734848 -172.59975 
L 101.350155 -171.754088 
L 100.965462 -178.751056 
L 100.580769 -172.091017 
L 100.196076 -175.453412 
L 99.811383 -171.064322 
L 99.42669 -175.897572 
L 99.041997 -174.929904 
L 98.657304 -173.721619 
L 98.272611 -178.355765 
L 97.887918 -173.259951 
L 97.503225 -174.807265 
L 97.118532 -172.697586 
L 96.73384 -173.377132 
L 96.349147 -172.367354 
L 95.964454 -171.76904 
L 95.579761 -173.616714 
L 95.195068 -171.92421 
L 94.810375 -173.738055 
L 94.425682 -171.004642 
L 94.040989 -167.268 
L 93.656296 -177.664672 
L 93.271603 -173.884932 
L 92.88691 -171.456255 
L 92.502217 -177.768224 
L 92.117524 -173.972155 
L 91.732832 -175.662332 
L 91.348139 -171.885225 
L 90.963446 -171.35101 
L 90.578753 -173.209085 
L 90.19406 -170.792653 
L 89.809367 -170.768605 
L 89.424674 -178.718794 
L 89.039981 -174.877628 
L 88.655288 -176.116727 
L 88.270595 -175.566605 
L 87.885902 -171.562194 
L 87.501209 -173.392159 
L 87.116516 -172.185004 
L 86.731823 -175.366597 
L 86.347131 -169.619026 
L 85.962438 -172.932363 
L 85.577745 -173.077035 
L 85.193052 -171.123639 
L 84.808359 -174.3255 
L 84.423666 -176.321346 
L 84.038973 -170.481727 
L 83.65428 -173.280945 
L 83.269587 -175.403672 
L 82.884894 -167.672401 
L 82.500201 -173.347292 
L 82.115508 -170.597265 
L 81.730815 -174.059275 
L 81.346123 -168.857754 
L 80.96143 -174.518142 
L 80.576737 -174.053744 
L 80.192044 -173.37636 
L 79.807351 -175.474523 
L 79.422658 -173.398479 
L 79.037965 -170.018937 
L 78.653272 -174.352298 
L 78.268579 -172.251746 
L 77.883886 -170.503184 
L 77.499193 -180.544096 
L 77.1145 -173.983394 
L 76.729807 -175.234638 
L 76.345115 -176.998988 
L 75.960422 -166.963769 
L 75.575729 -170.348555 
L 75.191036 -174.823301 
L 74.806343 -176.482343 
L 74.42165 -163.45782 
L 74.036957 -171.67795 
L 73.652264 -170.34173 
L 73.267571 -168.410953 
L 72.882878 -174.46273 
L 72.498185 -167.503509 
L 72.113492 -170.724638 
L 71.728799 -169.593536 
L 71.344106 -172.357708 
L 70.959414 -172.276737 
L 70.574721 -172.093591 
L 70.190028 -170.42118 
L 69.805335 -169.525282 
L 69.420642 -169.261517 
L 69.035949 -170.374494 
L 68.651256 -172.602109 
L 68.266563 -166.685427 
L 67.88187 -168.365621 
L 67.497177 -168.709967 
L 67.112484 -170.310138 
L 66.727791 -172.951475 
L 66.343098 -170.371862 
L 65.958406 -166.426967 
L 65.573713 -171.263414 
L 65.18902 -167.105708 
L 64.804327 -171.532802 
L 64.419634 -172.088234 
L 64.034941 -165.760007 
L 63.650248 -167.357574 
L 63.265555 -171.710952 
L 62.880862 -168.605181 
L 62.496169 -167.993503 
L 62.111476 -169.940835 
L 61.726783 -165.138035 
L 61.34209 -171.849266 
L 60.957398 -167.261616 
L 60.572705 -167.590986 
L 60.188012 -176.912841 
L 59.803319 -170.216455 
L 59.418626 -167.928954 
L 59.033933 -166.008562 
L 58.64924 -164.822135 
L 58.264547 -163.597673 
L 57.879854 -166.491497 
L 57.495161 -168.464125 
L 57.110468 -166.443703 
L 56.725775 -169.382628 
L 56.341082 -170.847986 
L 55.956389 -172.490556 
L 55.571697 -164.795078 
L 55.187004 -165.677331 
L 54.802311 -164.576362 
L 54.417618 -161.535433 
L 54.032925 -165.598228 
L 53.648232 -166.220505 
L 53.263539 -165.596608 
L 52.878846 -161.199623 
L 52.494153 -164.836901 
L 52.10946 -155.964075 
z
"/>
    </defs>
    <g clip-path="url(#pa15525bd17)">
     <use xlink:href="#m4252fb2757" x="0" y="200.79625" style="fill: #c0392b; fill-opacity: 0.12"/>
    </g>
   </g>
   <g id="matplotlib.axis_1">
    <g id="xtick_1">
     <g id="line2d_1">
      <path d="M 51.724767 163.24 
L 51.724767 7.2 
" clip-path="url(#pa15525bd17)" style="fill: none; stroke: #b0b0b0; stroke-opacity: 0.3; stroke-width: 0.8; stroke-linecap: square"/>
     </g>
     <g id="line2d_2">
      <defs>
       <path id="md52ec2ff24" d="M 0 0 
L 0 3.5 
" style="stroke: #000000; stroke-width: 0.8"/>
      </defs>
      <g>
       <use xlink:href="#md52ec2ff24" x="51.724767" y="163.24" style="stroke: #000000; stroke-width: 0.8"/>
      </g>
     </g>
     <g id="text_1">
      <text style="font-size: 10px; font-family: 'DejaVu Sans', 'Bitstream Vera Sans', 'Computer Modern Sans Serif', 'Lucida Grande', 'Verdana', 'Geneva', 'Lucid', 'Arial', 'Helvetica', 'Avant Garde', sans-serif; text-anchor: middle" x="51.724767" y="177.838437" transform="rotate(-0 51.724767 177.838437)">0.0</text>
     </g>
    </g>
    <g id="xtick_2">
     <g id="line2d_3">
      <path d="M 89.292436 163.24 
L 89.292436 7.2 
" clip-path="url(#pa15525bd17)" style="fill: none; stroke: #b0b0b0; stroke-opacity: 0.3; stroke-width: 0.8; stroke-linecap: square"/>
     </g>
     <g id="line2d_4">
      <g>
       <use xlink:href="#md52ec2ff24" x="89.292436" y="163.24" style="stroke: #000000; stroke-width: 0.8"/>
      </g>
     </g>
     <g id="text_2">
      <text style="font-size: 10px; font-family: 'DejaVu Sans', 'Bitstream Vera Sans', 'Computer Modern Sans Serif', 'Lucida Grande', 'Verdana', 'Geneva', 'Lucid', 'Arial', 'Helvetica', 'Avant Garde', sans-serif; text-anchor: middle" x="89.292436" y="177.838437" transform="rotate(-0 89.292436 177.838437)">0.2</text>
     </g>
    </g>
    <g id="xtick_3">
     <g id="line2d_5">
      <path d="M 126.860104 163.24 
L 126.860104 7.2 
" clip-path="url(#pa15525bd17)" style="fill: none; stroke: #b0b0b0; stroke-opacity: 0.3; stroke-width: 0.8; stroke-linecap: square"/>
     </g>
     <g id="line2d_6">
      <g>
       <use xlink:href="#md52ec2ff24" x="126.860104" y="163.24" style="stroke: #000000; stroke-width: 0.8"/>
      </g>
     </g>
     <g id="text_3">
      <text style="font-size: 10px; font-family: 'DejaVu Sans', 'Bitstream Vera Sans', 'Computer Modern Sans Serif', 'Lucida Grande', 'Verdana', 'Geneva', 'Lucid', 'Arial', 'Helvetica', 'Avant Garde', sans-serif; text-anchor: middle" x="126.860104" y="177.838437" transform="rotate(-0 126.860104 177.838437)">0.4</text>
     </g>
    </g>
    <g id="xtick_4">
     <g id="line2d_7">
      <path d="M 164.427773 163.24 
L 164.427773 7.2 
" clip-path="url(#pa15525bd17)" style="fill: none; stroke: #b0b0b0; stroke-opacity: 0.3; stroke-width: 0.8; stroke-linecap: square"/>
     </g>
     <g id="line2d_8">
      <g>
       <use xlink:href="#md52ec2ff24" x="164.427773" y="163.24" style="stroke: #000000; stroke-width: 0.8"/>
      </g>
     </g>
     <g id="text_4">
      <text style="font-size: 10px; font-family: 'DejaVu Sans', 'Bitstream Vera Sans', 'Computer Modern Sans Serif', 'Lucida Grande', 'Verdana', 'Geneva', 'Lucid', 'Arial', 'Helvetica', 'Avant Garde', sans-serif; text-anchor: middle" x="164.427773" y="177.838437" transform="rotate(-0 164.427773 177.838437)">0.6</text>
     </g>
    </g>
    <g id="xtick_5">
     <g id="line2d_9">
      <path d="M 201.995441 163.24 
L 201.995441 7.2 
" clip-path="url(#pa15525bd17)" style="fill: none; stroke: #b0b0b0; stroke-opacity: 0.3; stroke-width: 0.8; stroke-linecap: square"/>
     </g>
     <g id="line2d_10">
      <g>
       <use xlink:href="#md52ec2ff24" x="201.995441" y="163.24" style="stroke: #000000; stroke-width: 0.8"/>
      </g>
     </g>
     <g id="text_5">
      <text style="font-size: 10px; font-family: 'DejaVu Sans', 'Bitstream Vera Sans', 'Computer Modern Sans Serif', 'Lucida Grande', 'Verdana', 'Geneva', 'Lucid', 'Arial', 'Helvetica', 'Avant Garde', sans-serif; text-anchor: middle" x="201.995441" y="177.838437" transform="rotate(-0 201.995441 177.838437)">0.8</text>
     </g>
    </g>
    <g id="xtick_6">
     <g id="line2d_11">
      <path d="M 239.56311 163.24 
L 239.56311 7.2 
" clip-path="url(#pa15525bd17)" style="fill: none; stroke: #b0b0b0; stroke-opacity: 0.3; stroke-width: 0.8; stroke-linecap: square"/>
     </g>
     <g id="line2d_12">
      <g>
       <use xlink:href="#md52ec2ff24" x="239.56311" y="163.24" style="stroke: #000000; stroke-width: 0.8"/>
      </g>
     </g>
     <g id="text_6">
      <text style="font-size: 10px; font-family: 'DejaVu Sans', 'Bitstream Vera Sans', 'Computer Modern Sans Serif', 'Lucida Grande', 'Verdana', 'Geneva', 'Lucid', 'Arial', 'Helvetica', 'Avant Garde', sans-serif; text-anchor: middle" x="239.56311" y="177.838437" transform="rotate(-0 239.56311 177.838437)">1.0</text>
     </g>
    </g>
    <g id="text_7">
     <text style="font-size: 10px; font-family: 'DejaVu Sans', 'Bitstream Vera Sans', 'Computer Modern Sans Serif', 'Lucida Grande', 'Verdana', 'Geneva', 'Lucid', 'Arial', 'Helvetica', 'Avant Garde', sans-serif; text-anchor: middle" x="145.782188" y="191.516562" transform="rotate(-0 145.782188 191.516562)">environment step</text>
    </g>
    <g id="text_8">
     <text style="font-size: 10px; font-family: 'DejaVu Sans', 'Bitstream Vera Sans', 'Computer Modern Sans Serif', 'Lucida Grande', 'Verdana', 'Geneva', 'Lucid', 'Arial', 'Helvetica', 'Avant Garde', sans-serif; text-anchor: end" x="248.822188" y="190.516562" transform="rotate(-0 248.822188 190.516562)">1e6</text>
    </g>
   </g>
   <g id="matplotlib.axis_2">
    <g id="ytick_1">
     <g id="line2d_13">
      <path d="M 42.742188 132.998352 
L 248.822188 132.998352 
" clip-path="url(#pa15525bd17)" style="fill: none; stroke: #b0b0b0; stroke-opacity: 0.3; stroke-width: 0.8; stroke-linecap: square"/>
     </g>
     <g id="line2d_14">
      <defs>
       <path id="meb23fb85bc" d="M 0 0 
L -3.5 0 
" style="stroke: #000000; stroke-width: 0.8"/>
      </defs>
      <g>
       <use xlink:href="#meb23fb85bc" x="42.742188" y="132.998352" style="stroke: #000000; stroke-width: 0.8"/>
      </g>
     </g>
     <g id="text_9">
      <text style="font-size: 10px; font-family: 'DejaVu Sans', 'Bitstream Vera Sans', 'Computer Modern Sans Serif', 'Lucida Grande', 'Verdana', 'Geneva', 'Lucid', 'Arial', 'Helvetica', 'Avant Garde', sans-serif; text-anchor: end" x="35.742188" y="136.79757" transform="rotate(-0 35.742188 136.79757)">−2</text>
     </g>
    </g>
    <g id="ytick_2">
     <g id="line2d_15">
      <path d="M 42.742188 101.354585 
L 248.822188 101.354585 
" clip-path="url(#pa15525bd17)" style="fill: none; stroke: #b0b0b0; stroke-opacity: 0.3; stroke-width: 0.8; stroke-linecap: square"/>
     </g>
     <g id="line2d_16">
      <g>
       <use xlink:href="#meb23fb85bc" x="42.742188" y="101.354585" style="stroke: #000000; stroke-width: 0.8"/>
      </g>
     </g>
     <g id="text_10">
      <text style="font-size: 10px; font-family: 'DejaVu Sans', 'Bitstream Vera Sans', 'Computer Modern Sans Serif', 'Lucida Grande', 'Verdana', 'Geneva', 'Lucid', 'Arial', 'Helvetica', 'Avant Garde', sans-serif; text-anchor: end" x="35.742188" y="105.153804" transform="rotate(-0 35.742188 105.153804)">−1</text>
     </g>
    </g>
    <g id="ytick_3">
     <g id="line2d_17">
      <path d="M 42.742188 69.710818 
L 248.822188 69.710818 
" clip-path="url(#pa15525bd17)" style="fill: none; stroke: #b0b0b0; stroke-opacity: 0.3; stroke-width: 0.8; stroke-linecap: square"/>
     </g>
     <g id="line2d_18">
      <g>
       <use xlink:href="#meb23fb85bc" x="42.742188" y="69.710818" style="stroke: #000000; stroke-width: 0.8"/>
      </g>
     </g>
     <g id="text_11">
      <text style="font-size: 10px; font-family: 'DejaVu Sans', 'Bitstream Vera Sans', 'Computer Modern Sans Serif', 'Lucida Grande', 'Verdana', 'Geneva', 'Lucid', 'Arial', 'Helvetica', 'Avant Garde', sans-serif; text-anchor: end" x="35.742188" y="73.510037" transform="rotate(-0 35.742188 73.510037)">0</text>
     </g>
    </g>
    <g id="ytick_4">
     <g id="line2d_19">
      <path d="M 42.742188 38.067052 
L 248.822188 38.067052 
" clip-path="url(#pa15525bd17)" style="fill: none; stroke: #b0b0b0; stroke-opacity: 0.3; stroke-width: 0.8; stroke-linecap: square"/>
     </g>
     <g id="line2d_20">
      <g>
       <use xlink:href="#meb23fb85bc" x="42.742188" y="38.067052" style="stroke: #000000; stroke-width: 0.8"/>
      </g>
     </g>
     <g id="text_12">
      <text style="font-size: 10px; font-family: 'DejaVu Sans', 'Bitstream Vera Sans', 'Computer Modern Sans Serif', 'Lucida Grande', 'Verdana', 'Geneva', 'Lucid', 'Arial', 'Helvetica', 'Avant Garde', sans-serif; text-anchor: end" x="35.742188" y="41.86627" transform="rotate(-0 35.742188 41.86627)">1</text>
     </g>
    </g>
    <g id="text_13">
     <!-- $\beta_t$ -->
     <g transform="translate(14.9 89.92) rotate(-90)">
      <text>
       <tspan x="0" y="-0.34375" style="font-style: oblique; font-size: 10px; font-family: 'DejaVu Sans'">β</tspan>
       <tspan x="6.381836" y="1.296875" style="font-style: oblique; font-size: 7px; font-family: 'DejaVu Sans'">t</tspan>
      </text>
     </g>
    </g>
   </g>
   <g id="line2d_21">
    <path d="M 52.10946 69.710818 
L 239.454915 69.710818 
L 239.454915 69.710818 
" clip-path="url(#pa15525bd17)" style="fill: none; stroke: #c0392b; stroke-width: 1.5; stroke-linecap: square"/>
   </g>
   <g id="patch_3">
    <path d="M 42.742188 163.24 
L 42.742188 7.2 
" style="fill: none; stroke: #000000; stroke-width: 0.8; stroke-linejoin: miter; stroke-linecap: square"/>
   </g>
   <g id="patch_4">
    <path d="M 248.822188 163.24 
L 248.822188 7.2 
" style="fill: none; stroke: #000000; stroke-width: 0.8; stroke-linejoin: miter; stroke-linecap: square"/>
   </g>
   <g id="patch_5">
    <path d="M 42.742188 163.24 
L 248.822187 163.24 
" style="fill: none; stroke: #000000; stroke-width: 0.8; stroke-linejoin: miter; stroke-linecap: square"/>
   </g>
   <g id="patch_6">
    <path d="M 42.742188 7.2 
L 248.822187 7.2 
" style="fill: none; stroke: #000000; stroke-width: 0.8; stroke-linejoin: miter; stroke-linecap: square"/>
   </g>
  </g>
 </g>
 <defs>
  <clipPath id="pa15525bd17">
   <rect x="42.742188" y="7.2" width="206.08" height="156.04"/>
  </clipPath>
 </defs>
</svg>
