<?xml version="1.0" encoding="utf-8" standalone="no"?>
<!DOCTYPE svg PUBLIC "-//W3C//DTD SVG 1.1//EN"
  "http://www.w3.org/Graphics/SVG/1.1/DTD/svg11.dtd">
<svg xmlns:xlink="http://www.w3.org/1999/xlink" width="256.022188pt" height="200.79625pt" viewBox="0 0 256.022188 200.79625" xmlns="http://www.w3.org/2000/svg" version="1.1">
 <metadata>
  <rdf:RDF xmlns:dc="http://purl.org/dc/elements/1.1/" xmlns:cc="http://creativecommons.org/ns#" xmlns:rdf="http://www.w3.org/1999/02/22-rdf-syntax-ns#">
   <cc:Work>
    <dc:type rdf:resource="http://purl.org/dc/dcmitype/StillImage"/>
    <dc:format>image/svg+xml</dc:format>
    <dc:creator>
     <cc:Agent>
      <dc:title>Matplotlib v3.10.9, https://matplotlib.org/</dc:title>
     </cc:Agent>
    </dc:creator>
   </cc:Work>
  </rdf:RDF>
 </metadata>
 <defs>
  <style type="text/css">*{stroke-linejoin: round; stroke-linecap: butt}</style>
 </defs>
 <g id="figure_1">
  <g id="patch_1">
   <path d="M 0 200.79625 
L 256.022188 200.79625 
L 256.022188 0 
L 0 0 
z
" style="fill: #ffffff"/>
  </g>
  <g id="axes_1">
   <g id="patch_2">
    <path d="M 42.742188 163.24 
L 248.822188 163.24 
L 248.822188 7.2 
L 42.742188 7.2 
z
" style="fill: #ffffff"/>
   </g>
   <g id="FillBetweenPolyCollection_1">
    <defs>
     <path id="m5a35fc517d" d="M 52.10946 -129.858793 
L 52.10946 -129.858793 
L 52.494153 -129.858793 
L 52.878846 -129.858793 
L 53.263539 -129.858793 
L 53.648232 -129.858793 
L 54.032925 -129.858793 
L 54.417618 -129.858793 
L 54.802311 -129.858793 
L 55.187004 -129.858793 
L 55.571697 -129.858793 
L 55.956389 -129.858793 
L 56.341082 -129.858793 
L 56.725775 -129.858793 
L 57.110468 -129.858793 
L 57.495161 -129.858793 
L 57.879854 -129.858793 
L 58.264547 -129.858793 
L 58.64924 -129.858793 
L 59.033933 -129.858793 
L 59.418626 -129.858793 
L 59.803319 -129.858793 
L 60.188012 -129.858793 
L 60.572705 -129.858793 
L 60.957398 -129.858793 
L 61.34209 -129.858793 
L 61.726783 -129.858793 
L 62.111476 -129.858793 
L 62.496169 -129.858793 
L 62.880862 -129.858793 
L 63.265555 -129.858793 
L 63.650248 -129.858793 
L 64.034941 -129.858793 
L 64.419634 -129.858793 
L 64.804327 -129.858793 
L 65.18902 -129.858793 
L 65.573713 -129.858793 
L 65.958406 -129.858793 
L 66.343098 -129.858793 
L 66.727791 -129.858793 
L 67.112484 -129.858793 
L 67.497177 -129.858793 
L 67.88187 -129.858793 
L 68.266563 -129.858793 
L 68.651256 -129.858793 
L 69.035949 -129.858793 
L 69.420642 -129.858793 
L 69.805335 -129.858793 
L 70.190028 -129.858793 
L 70.574721 -129.858793 
L 70.959414 -129.858793 
L 71.344106 -129.858793 
L 71.728799 -129.858793 
L 72.113492 -129.858793 
L 72.498185 -129.858793 
L 72.882878 -129.858793 
L 73.267571 -129.858793 
L 73.652264 -129.858793 
L 74.036957 -129.858793 
L 74.42165 -129.858793 
L 74.806343 -129.858793 
L 75.191036 -129.858793 
L 75.575729 -129.858793 
L 75.960422 -129.858793 
L 76.345115 -129.858793 
L 76.729807 -129.858793 
L 77.1145 -129.858793 
L 77.499193 -129.858793 
L 77.883886 -129.858793 
L 78.268579 -129.858793 
L 78.653272 -129.858793 
L 79.037965 -129.858793 
L 79.422658 -129.858793 
L 79.807351 -129.858793 
L 80.192044 -129.858793 
L 80.576737 -129.858793 
L 80.96143 -129.858793 
L 81.346123 -129.858793 
L 81.730815 -129.858793 
L 82.115508 -129.858793 
L 82.500201 -129.858793 
L 82.884894 -129.858793 
L 83.269587 -129.858793 
L 83.65428 -129.858793 
L 84.038973 -129.858793 
L 84.423666 -129.858793 
L 84.808359 -129.858793 
L 85.193052 -129.858793 
L 85.577745 -129.858793 
L 85.962438 -129.858793 
L 86.347131 -129.858793 
L 86.731823 -129.858793 
L 87.116516 -129.858793 
L 87.501209 -129.858793 
L 87.885902 -129.858793 
L 88.270595 -129.858793 
L 88.655288 -129.858793 
L 89.039981 -129.858793 
L 89.424674 -129.858793 
L 89.809367 -129.858793 
L 90.19406 -129.858793 
L 90.578753 -129.858793 
L 90.963446 -129.858793 
L 91.348139 -129.858793 
L 91.732832 -129.858793 
L 92.117524 -129.858793 
L 92.502217 -129.858793 
L 92.88691 -129.858793 
L 93.271603 -129.858793 
L 93.656296 -129.858793 
L 94.040989 -129.858793 
L 94.425682 -129.858793 
L 94.810375 -129.858793 
L 95.195068 -129.858793 
L 95.579761 -129.858793 
L 95.964454 -129.858793 
L 96.349147 -129.858793 
L 96.73384 -129.858793 
L 97.118532 -129.858793 
L 97.503225 -129.858793 
L 97.887918 -129.858793 
L 98.272611 -129.858793 
L 98.657304 -129.858793 
L 99.041997 -129.858793 
L 99.42669 -129.858793 
L 99.811383 -129.858793 
L 100.196076 -129.858793 
L 100.580769 -129.858793 
L 100.965462 -129.858793 
L 101.350155 -129.858793 
L 101.734848 -129.858793 
L 102.11954 -129.858793 
L 102.504233 -129.858793 
L 102.888926 -129.858793 
L 103.273619 -129.858793 
L 103.658312 -129.858793 
L 104.043005 -129.858793 
L 104.427698 -129.858793 
L 104.812391 -129.858793 
L 105.197084 -129.858793 
L 105.581777 -129.858793 
L 105.96647 -129.858793 
L 106.351163 -129.858793 
L 106.735856 -129.858793 
L 107.120549 -129.858793 
L 107.505241 -129.858793 
L 107.889934 -129.858793 
L 108.274627 -129.858793 
L 108.65932 -129.858793 
L 109.044013 -129.858793 
L 109.428706 -129.858793 
L 109.813399 -129.858793 
L 110.198092 -129.858793 
L 110.582785 -129.858793 
L 110.967478 -129.858793 
L 111.352171 -129.858793 
L 111.736864 -129.858793 
L 112.121557 -129.858793 
L 112.506249 -129.858793 
L 112.890942 -129.858793 
L 113.275635 -129.858793 
L 113.660328 -129.858793 
L 114.045021 -129.858793 
L 114.429714 -129.858793 
L 114.814407 -129.858793 
L 115.1991 -129.858793 
L 115.583793 -129.858793 
L 115.968486 -129.858793 
L 116.353179 -129.858793 
L 116.737872 -129.858793 
L 117.122565 -129.858793 
L 117.507258 -129.858793 
L 117.89195 -129.858793 
L 118.276643 -129.858793 
L 118.661336 -129.858793 
L 119.046029 -129.858793 
L 119.430722 -129.858793 
L 119.815415 -129.858793 
L 120.200108 -129.858793 
L 120.584801 -129.858793 
L 120.969494 -129.858793 
L 121.354187 -129.858793 
L 121.73888 -129.858793 
L 122.123573 -129.858793 
L 122.508266 -129.858793 
L 122.892958 -129.858793 
L 123.277651 -129.858793 
L 123.662344 -129.858793 
L 124.047037 -129.858793 
L 124.43173 -129.858793 
L 124.816423 -129.858793 
L 125.201116 -129.858793 
L 125.585809 -129.858793 
L 125.970502 -129.858793 
L 126.355195 -129.858793 
L 126.739888 -129.858793 
L 127.124581 -129.858793 
L 127.509274 -129.858793 
L 127.893966 -129.858793 
L 128.278659 -129.858793 
L 128.663352 -129.858793 
L 129.048045 -129.858793 
L 129.432738 -129.858793 
L 129.817431 -129.858793 
L 130.202124 -129.858793 
L 130.586817 -129.858793 
L 130.97151 -129.858793 
L 131.356203 -129.858793 
L 131.740896 -129.858793 
L 132.125589 -129.858793 
L 132.510282 -129.858793 
L 132.894975 -129.858793 
L 133.279667 -129.858793 
L 133.66436 -129.858793 
L 134.049053 -129.858793 
L 134.433746 -129.858793 
L 134.818439 -129.858793 
L 135.203132 -129.858793 
L 135.587825 -129.858793 
L 135.972518 -129.858793 
L 136.357211 -129.858793 
L 136.741904 -129.858793 
L 137.126597 -129.858793 
L 137.51129 -129.858793 
L 137.895983 -129.858793 
L 138.280675 -129.858793 
L 138.665368 -129.858793 
L 139.050061 -129.858793 
L 139.434754 -129.858793 
L 139.819447 -129.858793 
L 140.20414 -129.858793 
L 140.588833 -129.858793 
L 140.973526 -129.858793 
L 141.358219 -129.858793 
L 141.742912 -129.858793 
L 142.127605 -129.858793 
L 142.512298 -129.858793 
L 142.896991 -129.858793 
L 143.281683 -129.858793 
L 143.666376 -129.858793 
L 144.051069 -129.858793 
L 144.435762 -129.858793 
L 144.820455 -129.858793 
L 145.205148 -129.858793 
L 145.589841 -129.858793 
L 145.974534 -129.858793 
L 146.359227 -129.858793 
L 146.74392 -129.858793 
L 147.128613 -129.858793 
L 147.513306 -129.858793 
L 147.897999 -129.858793 
L 148.282692 -129.858793 
L 148.667384 -129.858793 
L 149.052077 -129.858793 
L 149.43677 -129.858793 
L 149.821463 -129.858793 
L 150.206156 -129.858793 
L 150.590849 -129.858793 
L 150.975542 -129.858793 
L 151.360235 -129.858793 
L 151.744928 -129.858793 
L 152.129621 -129.858793 
L 152.514314 -129.858793 
L 152.899007 -129.858793 
L 153.2837 -129.858793 
L 153.668392 -129.858793 
L 154.053085 -129.858793 
L 154.437778 -129.858793 
L 154.822471 -129.858793 
L 155.207164 -129.858793 
L 155.591857 -129.858793 
L 155.97655 -129.858793 
L 156.361243 -129.858793 
L 156.745936 -129.858793 
L 157.130629 -129.858793 
L 157.515322 -129.858793 
L 157.900015 -129.858793 
L 158.284708 -129.858793 
L 158.6694 -129.858793 
L 159.054093 -129.858793 
L 159.438786 -129.858793 
L 159.823479 -129.858793 
L 160.208172 -129.858793 
L 160.592865 -129.858793 
L 160.977558 -129.858793 
L 161.362251 -129.858793 
L 161.746944 -129.858793 
L 162.131637 -129.858793 
L 162.51633 -129.858793 
L 162.901023 -129.858793 
L 163.285716 -129.858793 
L 163.670409 -129.858793 
L 164.055101 -129.858793 
L 164.439794 -129.858793 
L 164.824487 -129.858793 
L 165.20918 -129.858793 
L 165.593873 -129.858793 
L 165.978566 -129.858793 
L 166.363259 -129.858793 
L 166.747952 -129.858793 
L 167.132645 -129.858793 
L 167.517338 -129.858793 
L 167.902031 -129.858793 
L 168.286724 -129.858793 
L 168.671417 -129.858793 
L 169.056109 -129.858793 
L 169.440802 -129.858793 
L 169.825495 -129.858793 
L 170.210188 -129.858793 
L 170.594881 -129.858793 
L 170.979574 -129.858793 
L 171.364267 -129.858793 
L 171.74896 -129.858793 
L 172.133653 -129.858793 
L 172.518346 -129.858793 
L 172.903039 -129.858793 
L 173.287732 -129.858793 
L 173.672425 -129.858793 
L 174.057117 -129.858793 
L 174.44181 -129.858793 
L 174.826503 -129.858793 
L 175.211196 -129.858793 
L 175.595889 -129.858793 
L 175.980582 -129.858793 
L 176.365275 -129.858793 
L 176.749968 -129.858793 
L 177.134661 -129.858793 
L 177.519354 -129.858793 
L 177.904047 -129.858793 
L 178.28874 -129.858793 
L 178.673433 -129.858793 
L 179.058126 -129.858793 
L 179.442818 -129.858793 
L 179.827511 -129.858793 
L 180.212204 -129.858793 
L 180.596897 -129.858793 
L 180.98159 -129.858793 
L 181.366283 -129.858793 
L 181.750976 -129.858793 
L 182.135669 -129.858793 
L 182.520362 -129.858793 
L 182.905055 -129.858793 
L 183.289748 -129.858793 
L 183.674441 -129.858793 
L 184.059134 -129.858793 
L 184.443826 -129.858793 
L 184.828519 -129.858793 
L 185.213212 -129.858793 
L 185.597905 -129.858793 
L 185.982598 -129.858793 
L 186.367291 -129.858793 
L 186.751984 -129.858793 
L 187.136677 -129.858793 
L 187.52137 -129.858793 
L 187.906063 -129.858793 
L 188.290756 -129.858793 
L 188.675449 -129.858793 
L 189.060142 -129.858793 
L 189.444835 -129.858793 
L 189.829527 -129.858793 
L 190.21422 -129.858793 
L 190.598913 -129.858793 
L 190.983606 -129.858793 
L 191.368299 -129.858793 
L 191.752992 -129.858793 
L 192.137685 -129.858793 
L 192.522378 -129.858793 
L 192.907071 -129.858793 
L 193.291764 -129.858793 
L 193.676457 -129.858793 
L 194.06115 -129.858793 
L 194.445843 -129.858793 
L 194.830535 -129.858793 
L 195.215228 -129.858793 
L 195.599921 -129.858793 
L 195.984614 -129.858793 
L 196.369307 -129.858793 
L 196.754 -129.858793 
L 197.138693 -129.858793 
L 197.523386 -129.858793 
L 197.908079 -129.858793 
L 198.292772 -129.858793 
L 198.677465 -129.858793 
L 199.062158 -129.858793 
L 199.446851 -129.858793 
L 199.831543 -129.858793 
L 200.216236 -129.858793 
L 200.600929 -129.858793 
L 200.985622 -129.858793 
L 201.370315 -129.858793 
L 201.755008 -129.858793 
L 202.139701 -129.858793 
L 202.524394 -129.858793 
L 202.909087 -129.858793 
L 203.29378 -129.858793 
L 203.678473 -129.858793 
L 204.063166 -129.858793 
L 204.447859 -129.858793 
L 204.832552 -129.858793 
L 205.217244 -129.858793 
L 205.601937 -129.858793 
L 205.98663 -129.858793 
L 206.371323 -129.858793 
L 206.756016 -129.858793 
L 207.140709 -129.858793 
L 207.525402 -129.858793 
L 207.910095 -129.858793 
L 208.294788 -129.858793 
L 208.679481 -129.858793 
L 209.064174 -129.858793 
L 209.448867 -129.858793 
L 209.83356 -129.858793 
L 210.218252 -129.858793 
L 210.602945 -129.858793 
L 210.987638 -129.858793 
L 211.372331 -129.858793 
L 211.757024 -129.858793 
L 212.141717 -129.858793 
L 212.52641 -129.858793 
L 212.911103 -129.858793 
L 213.295796 -129.858793 
L 213.680489 -129.858793 
L 214.065182 -129.858793 
L 214.449875 -129.858793 
L 214.834568 -129.858793 
L 215.21926 -129.858793 
L 215.603953 -129.858793 
L 215.988646 -129.858793 
L 216.373339 -129.858793 
L 216.758032 -129.858793 
L 217.142725 -129.858793 
L 217.527418 -129.858793 
L 217.912111 -129.858793 
L 218.296804 -129.858793 
L 218.681497 -129.858793 
L 219.06619 -129.858793 
L 219.450883 -129.858793 
L 219.835576 -129.858793 
L 220.220269 -129.858793 
L 220.604961 -129.858793 
L 220.989654 -129.858793 
L 221.374347 -129.858793 
L 221.75904 -129.858793 
L 222.143733 -129.858793 
L 222.528426 -129.858793 
L 222.913119 -129.858793 
L 223.297812 -129.858793 
L 223.682505 -129.858793 
L 224.067198 -129.858793 
L 224.451891 -129.858793 
L 224.836584 -129.858793 
L 225.221277 -129.858793 
L 225.605969 -129.858793 
L 225.990662 -129.858793 
L 226.375355 -129.858793 
L 226.760048 -129.858793 
L 227.144741 -129.858793 
L 227.529434 -129.858793 
L 227.914127 -129.858793 
L 228.29882 -129.858793 
L 228.683513 -129.858793 
L 229.068206 -129.858793 
L 229.452899 -129.858793 
L 229.837592 -129.858793 
L 230.222285 -129.858793 
L 230.606977 -129.858793 
L 230.99167 -129.858793 
L 231.376363 -129.858793 
L 231.761056 -129.858793 
L 232.145749 -129.858793 
L 232.530442 -129.858793 
L 232.915135 -129.858793 
L 233.299828 -129.858793 
L 233.684521 -129.858793 
L 234.069214 -129.858793 
L 234.453907 -129.858793 
L 234.8386 -129.858793 
L 235.223293 -129.858793 
L 235.607986 -129.858793 
L 235.992678 -129.858793 
L 236.377371 -129.858793 
L 236.762064 -129.858793 
L 237.146757 -129.858793 
L 237.53145 -129.858793 
L 237.916143 -129.858793 
L 238.300836 -129.858793 
L 238.685529 -129.858793 
L 239.070222 -129.858793 
L 239.454915 -129.858793 
L 239.454915 -129.858793 
L 239.454915 -129.858793 
L 239.070222 -129.858793 
L 238.685529 -129.858793 
L 238.300836 -129.858793 
L 237.916143 -129.858793 
L 237.53145 -129.858793 
L 237.146757 -129.858793 
L 236.762064 -129.858793 
L 236.377371 -129.858793 
L 235.992678 -129.858793 
L 235.607986 -129.858793 
L 235.223293 -129.858793 
L 234.8386 -129.858793 
L 234.453907 -129.858793 
L 234.069214 -129.858793 
L 233.684521 -129.858793 
L 233.299828 -129.858793 
L 232.915135 -129.858793 
L 232.530442 -129.858793 
L 232.145749 -129.858793 
L 231.761056 -129.858793 
L 231.376363 -129.858793 
L 230.99167 -129.858793 
L 230.606977 -129.858793 
L 230.222285 -129.858793 
L 229.837592 -129.858793 
L 229.452899 -129.858793 
L 229.068206 -129.858793 
L 228.683513 -129.858793 
L 228.29882 -129.858793 
L 227.914127 -129.858793 
L 227.529434 -129.858793 
L 227.144741 -129.858793 
L 226.760048 -129.858793 
L 226.375355 -129.858793 
L 225.990662 -129.858793 
L 225.605969 -129.858793 
L 225.221277 -129.858793 
L 224.836584 -129.858793 
L 224.451891 -129.858793 
L 224.067198 -129.858793 
L 223.682505 -129.858793 
L 223.297812 -129.858793 
L 222.913119 -129.858793 
L 222.528426 -129.858793 
L 222.143733 -129.858793 
L 221.75904 -129.858793 
L 221.374347 -129.858793 
L 220.989654 -129.858793 
L 220.604961 -129.858793 
L 220.220269 -129.858793 
L 219.835576 -129.858793 
L 219.450883 -129.858793 
L 219.06619 -129.858793 
L 218.681497 -129.858793 
L 218.296804 -129.858793 
L 217.912111 -129.858793 
L 217.527418 -129.858793 
L 217.142725 -129.858793 
L 216.758032 -129.858793 
L 216.373339 -129.858793 
L 215.988646 -129.858793 
L 215.603953 -129.858793 
L 215.21926 -129.858793 
L 214.834568 -129.858793 
L 214.449875 -129.858793 
L 214.065182 -129.858793 
L 213.680489 -129.858793 
L 213.295796 -129.858793 
L 212.911103 -129.858793 
L 212.52641 -129.858793 
L 212.141717 -129.858793 
L 211.757024 -129.858793 
L 211.372331 -129.858793 
L 210.987638 -129.858793 
L 210.602945 -129.858793 
L 210.218252 -129.858793 
L 209.83356 -129.858793 
L 209.448867 -129.858793 
L 209.064174 -129.858793 
L 208.679481 -129.858793 
L 208.294788 -129.858793 
L 207.910095 -129.858793 
L 207.525402 -129.858793 
L 207.140709 -129.858793 
L 206.756016 -129.858793 
L 206.371323 -129.858793 
L 205.98663 -129.858793 
L 205.601937 -129.858793 
L 205.217244 -129.858793 
L 204.832552 -129.858793 
L 204.447859 -129.858793 
L 204.063166 -129.858793 
L 203.678473 -129.858793 
L 203.29378 -129.858793 
L 202.909087 -129.858793 
L 202.524394 -129.858793 
L 202.139701 -129.858793 
L 201.755008 -129.858793 
L 201.370315 -129.858793 
L 200.985622 -129.858793 
L 200.600929 -129.858793 
L 200.216236 -129.858793 
L 199.831543 -129.858793 
L 199.446851 -129.858793 
L 199.062158 -129.858793 
L 198.677465 -129.858793 
L 198.292772 -129.858793 
L 197.908079 -129.858793 
L 197.523386 -129.858793 
L 197.138693 -129.858793 
L 196.754 -129.858793 
L 196.369307 -129.858793 
L 195.984614 -129.858793 
L 195.599921 -129.858793 
L 195.215228 -129.858793 
L 194.830535 -129.858793 
L 194.445843 -129.858793 
L 194.06115 -129.858793 
L 193.676457 -129.858793 
L 193.291764 -129.858793 
L 192.907071 -129.858793 
L 192.522378 -129.858793 
L 192.137685 -129.858793 
L 191.752992 -129.858793 
L 191.368299 -129.858793 
L 190.983606 -129.858793 
L 190.598913 -129.858793 
L 190.21422 -129.858793 
L 189.829527 -129.858793 
L 189.444835 -129.858793 
L 189.060142 -129.858793 
L 188.675449 -129.858793 
L 188.290756 -129.858793 
L 187.906063 -129.858793 
L 187.52137 -129.858793 
L 187.136677 -129.858793 
L 186.751984 -129.858793 
L 186.367291 -129.858793 
L 185.982598 -129.858793 
L 185.597905 -129.858793 
L 185.213212 -129.858793 
L 184.828519 -129.858793 
L 184.443826 -129.858793 
L 184.059134 -129.858793 
L 183.674441 -129.858793 
L 183.289748 -129.858793 
L 182.905055 -129.858793 
L 182.520362 -129.858793 
L 182.135669 -129.858793 
L 181.750976 -129.858793 
L 181.366283 -129.858793 
L 180.98159 -129.858793 
L 180.596897 -129.858793 
L 180.212204 -129.858793 
L 179.827511 -129.858793 
L 179.442818 -129.858793 
L 179.058126 -129.858793 
L 178.673433 -129.858793 
L 178.28874 -129.858793 
L 177.904047 -129.858793 
L 177.519354 -129.858793 
L 177.134661 -129.858793 
L 176.749968 -129.858793 
L 176.365275 -129.858793 
L 175.980582 -129.858793 
L 175.595889 -129.858793 
L 175.211196 -129.858793 
L 174.826503 -129.858793 
L 174.44181 -129.858793 
L 174.057117 -129.858793 
L 173.672425 -129.858793 
L 173.287732 -129.858793 
L 172.903039 -129.858793 
L 172.518346 -129.858793 
L 172.133653 -129.858793 
L 171.74896 -129.858793 
L 171.364267 -129.858793 
L 170.979574 -129.858793 
L 170.594881 -129.858793 
L 170.210188 -129.858793 
L 169.825495 -129.858793 
L 169.440802 -129.858793 
L 169.056109 -129.858793 
L 168.671417 -129.858793 
L 168.286724 -129.858793 
L 167.902031 -129.858793 
L 167.517338 -129.858793 
L 167.132645 -129.858793 
L 166.747952 -129.858793 
L 166.363259 -129.858793 
L 165.978566 -129.858793 
L 165.593873 -129.858793 
L 165.20918 -129.858793 
L 164.824487 -129.858793 
L 164.439794 -129.858793 
L 164.055101 -129.858793 
L 163.670409 -129.858793 
L 163.285716 -129.858793 
L 162.901023 -129.858793 
L 162.51633 -129.858793 
L 162.131637 -129.858793 
L 161.746944 -129.858793 
L 161.362251 -129.858793 
L 160.977558 -129.858793 
L 160.592865 -129.858793 
L 160.208172 -129.858793 
L 159.823479 -129.858793 
L 159.438786 -129.858793 
L 159.054093 -129.858793 
L 158.6694 -129.858793 
L 158.284708 -129.858793 
L 157.900015 -129.858793 
L 157.515322 -129.858793 
L 157.130629 -129.858793 
L 156.745936 -129.858793 
L 156.361243 -129.858793 
L 155.97655 -129.858793 
L 155.591857 -129.858793 
L 155.207164 -129.858793 
L 154.822471 -129.858793 
L 154.437778 -129.858793 
L 154.053085 -129.858793 
L 153.668392 -129.858793 
L 153.2837 -129.858793 
L 152.899007 -129.858793 
L 152.514314 -129.858793 
L 152.129621 -129.858793 
L 151.744928 -129.858793 
L 151.360235 -129.858793 
L 150.975542 -129.858793 
L 150.590849 -129.858793 
L 150.206156 -129.858793 
L 149.821463 -129.858793 
L 149.43677 -129.858793 
L 149.052077 -129.858793 
L 148.667384 -129.858793 
L 148.282692 -129.858793 
L 147.897999 -129.858793 
L 147.513306 -129.858793 
L 147.128613 -129.858793 
L 146.74392 -129.858793 
L 146.359227 -129.858793 
L 145.974534 -129.858793 
L 145.589841 -129.858793 
L 145.205148 -129.858793 
L 144.820455 -129.858793 
L 144.435762 -129.858793 
L 144.051069 -129.858793 
L 143.666376 -129.858793 
L 143.281683 -129.858793 
L 142.896991 -129.858793 
L 142.512298 -129.858793 
L 142.127605 -129.858793 
L 141.742912 -129.858793 
L 141.358219 -129.858793 
L 140.973526 -129.858793 
L 140.588833 -129.858793 
L 140.20414 -129.858793 
L 139.819447 -129.858793 
L 139.434754 -129.858793 
L 139.050061 -129.858793 
L 138.665368 -129.858793 
L 138.280675 -129.858793 
L 137.895983 -129.858793 
L 137.51129 -129.858793 
L 137.126597 -129.858793 
L 136.741904 -129.858793 
L 136.357211 -129.858793 
L 135.972518 -129.858793 
L 135.587825 -129.858793 
L 135.203132 -129.858793 
L 134.818439 -129.858793 
L 134.433746 -129.858793 
L 134.049053 -129.858793 
L 133.66436 -129.858793 
L 133.279667 -129.858793 
L 132.894975 -129.858793 
L 132.510282 -129.858793 
L 132.125589 -129.858793 
L 131.740896 -129.858793 
L 131.356203 -129.858793 
L 130.97151 -129.858793 
L 130.586817 -129.858793 
L 130.202124 -129.858793 
L 129.817431 -129.858793 
L 129.432738 -129.858793 
L 129.048045 -129.858793 
L 128.663352 -129.858793 
L 128.278659 -129.858793 
L 127.893966 -129.858793 
L 127.509274 -129.858793 
L 127.124581 -129.858793 
L 126.739888 -129.858793 
L 126.355195 -129.858793 
L 125.970502 -129.858793 
L 125.585809 -129.858793 
L 125.201116 -129.858793 
L 124.816423 -129.858793 
L 124.43173 -129.858793 
L 124.047037 -129.858793 
L 123.662344 -129.858793 
L 123.277651 -129.858793 
L 122.892958 -129.858793 
L 122.508266 -129.858793 
L 122.123573 -129.858793 
L 121.73888 -129.858793 
L 121.354187 -129.858793 
L 120.969494 -129.858793 
L 120.584801 -129.858793 
L 120.200108 -129.858793 
L 119.815415 -129.858793 
L 119.430722 -129.858793 
L 119.046029 -129.858793 
L 118.661336 -129.858793 
L 118.276643 -129.858793 
L 117.89195 -129.858793 
L 117.507258 -129.858793 
L 117.122565 -129.858793 
L 116.737872 -129.858793 
L 116.353179 -129.858793 
L 115.968486 -129.858793 
L 115.583793 -129.858793 
L 115.1991 -129.858793 
L 114.814407 -129.858793 
L 114.429714 -129.858793 
L 114.045021 -129.858793 
L 113.660328 -129.858793 
L 113.275635 -129.858793 
L 112.890942 -129.858793 
L 112.506249 -129.858793 
L 112.121557 -129.858793 
L 111.736864 -129.858793 
L 111.352171 -129.858793 
L 110.967478 -129.858793 
L 110.582785 -129.858793 
L 110.198092 -129.858793 
L 109.813399 -129.858793 
L 109.428706 -129.858793 
L 109.044013 -129.858793 
L 108.65932 -129.858793 
L 108.274627 -129.858793 
L 107.889934 -129.858793 
L 107.505241 -129.858793 
L 107.120549 -129.858793 
L 106.735856 -129.858793 
L 106.351163 -129.858793 
L 105.96647 -129.858793 
L 105.581777 -129.858793 
L 105.197084 -129.858793 
L 104.812391 -129.858793 
L 104.427698 -129.858793 
L 104.043005 -129.858793 
L 103.658312 -129.858793 
L 103.273619 -129.858793 
L 102.888926 -129.858793 
L 102.504233 -129.858793 
L 102.11954 -129.858793 
L 101.734848 -129.858793 
L 101.350155 -129.858793 
L 100.965462 -129.858793 
L 100.580769 -129.858793 
L 100.196076 -129.858793 
L 99.811383 -129.858793 
L 99.42669 -129.858793 
L 99.041997 -129.858793 
L 98.657304 -129.858793 
L 98.272611 -129.858793 
L 97.887918 -129.858793 
L 97.503225 -129.858793 
L 97.118532 -129.858793 
L 96.73384 -129.858793 
L 96.349147 -129.858793 
L 95.964454 -129.858793 
L 95.579761 -129.858793 
L 95.195068 -129.858793 
L 94.810375 -129.858793 
L 94.425682 -129.858793 
L 94.040989 -129.858793 
L 93.656296 -129.858793 
L 93.271603 -129.858793 
L 92.88691 -129.858793 
L 92.502217 -129.858793 
L 92.117524 -129.858793 
L 91.732832 -129.858793 
L 91.348139 -129.858793 
L 90.963446 -129.858793 
L 90.578753 -129.858793 
L 90.19406 -129.858793 
L 89.809367 -129.858793 
L 89.424674 -129.858793 
L 89.039981 -129.858793 
L 88.655288 -129.858793 
L 88.270595 -129.858793 
L 87.885902 -129.858793 
L 87.501209 -129.858793 
L 87.116516 -129.858793 
L 86.731823 -129.858793 
L 86.347131 -129.858793 
L 85.962438 -129.858793 
L 85.577745 -129.858793 
L 85.193052 -129.858793 
L 84.808359 -129.858793 
L 84.423666 -129.858793 
L 84.038973 -129.858793 
L 83.65428 -129.858793 
L 83.269587 -129.858793 
L 82.884894 -129.858793 
L 82.500201 -129.858793 
L 82.115508 -129.858793 
L 81.730815 -129.858793 
L 81.346123 -129.858793 
L 80.96143 -129.858793 
L 80.576737 -129.858793 
L 80.192044 -129.858793 
L 79.807351 -129.858793 
L 79.422658 -129.858793 
L 79.037965 -129.858793 
L 78.653272 -129.858793 
L 78.268579 -129.858793 
L 77.883886 -129.858793 
L 77.499193 -129.858793 
L 77.1145 -129.858793 
L 76.729807 -129.858793 
L 76.345115 -129.858793 
L 75.960422 -129.858793 
L 75.575729 -129.858793 
L 75.191036 -129.858793 
L 74.806343 -129.858793 
L 74.42165 -129.858793 
L 74.036957 -129.858793 
L 73.652264 -129.858793 
L 73.267571 -129.858793 
L 72.882878 -129.858793 
L 72.498185 -129.858793 
L 72.113492 -129.858793 
L 71.728799 -129.858793 
L 71.344106 -129.858793 
L 70.959414 -129.858793 
L 70.574721 -129.858793 
L 70.190028 -129.858793 
L 69.805335 -129.858793 
L 69.420642 -129.858793 
L 69.035949 -129.858793 
L 68.651256 -129.858793 
L 68.266563 -129.858793 
L 67.88187 -129.858793 
L 67.497177 -129.858793 
L 67.112484 -129.858793 
L 66.727791 -129.858793 
L 66.343098 -129.858793 
L 65.958406 -129.858793 
L 65.573713 -129.858793 
L 65.18902 -129.858793 
L 64.804327 -129.858793 
L 64.419634 -129.858793 
L 64.034941 -129.858793 
L 63.650248 -129.858793 
L 63.265555 -129.858793 
L 62.880862 -129.858793 
L 62.496169 -129.858793 
L 62.111476 -129.858793 
L 61.726783 -129.858793 
L 61.34209 -129.858793 
L 60.957398 -129.858793 
L 60.572705 -129.858793 
L 60.188012 -129.858793 
L 59.803319 -129.858793 
L 59.418626 -129.858793 
L 59.033933 -129.858793 
L 58.64924 -129.858793 
L 58.264547 -129.858793 
L 57.879854 -129.858793 
L 57.495161 -129.858793 
L 57.110468 -129.858793 
L 56.725775 -129.858793 
L 56.341082 -129.858793 
L 55.956389 -129.858793 
L 55.571697 -129.858793 
L 55.187004 -129.858793 
L 54.802311 -129.858793 
L 54.417618 -129.858793 
L 54.032925 -129.858793 
L 53.648232 -129.858793 
L 53.263539 -129.858793 
L 52.878846 -129.858793 
L 52.494153 -129.858793 
L 52.10946 -129.858793 
z
"/>
    </defs>
    <g clip-path="url(#pf87be1c5b9)">
     <use xlink:href="#m5a35fc517d" x="0" y="200.79625" style="fill: #c0392b; fill-opacity: 0.25"/>
    </g>
   </g>
   <g id="FillBetweenPolyCollection_2">
    <defs>
     <path id="med554a6c8b" d="M 52.10946 -163.141418 
L 52.10946 -69.815415 
L 52.494153 -53.784652 
L 52.878846 -44.648977 
L 53.263539 -55.944109 
L 53.648232 -48.290963 
L 54.032925 -71.667014 
L 54.417618 -76.707534 
L 54.802311 -78.360984 
L 55.187004 -75.176737 
L 55.571697 -82.226341 
L 55.956389 -79.459969 
L 56.341082 -78.088206 
L 56.725775 -77.898279 
L 57.110468 -81.21931 
L 57.495161 -72.738508 
L 57.879854 -74.061192 
L 58.264547 -74.302149 
L 58.64924 -68.553006 
L 59.033933 -77.525615 
L 59.418626 -77.999107 
L 59.803319 -74.270234 
L 60.188012 -75.811191 
L 60.572705 -79.561104 
L 60.957398 -74.881928 
L 61.34209 -70.882605 
L 61.726783 -79.548282 
L 62.111476 -73.190689 
L 62.496169 -74.505604 
L 62.880862 -80.980991 
L 63.265555 -71.053177 
L 63.650248 -81.219346 
L 64.034941 -81.401803 
L 64.419634 -76.652623 
L 64.804327 -76.569816 
L 65.18902 -80.818945 
L 65.573713 -77.308314 
L 65.958406 -83.213293 
L 66.343098 -74.501367 
L 66.727791 -77.565837 
L 67.112484 -78.760367 
L 67.497177 -70.798691 
L 67.88187 -73.490691 
L 68.266563 -64.292909 
L 68.651256 -67.873069 
L 69.035949 -77.266835 
L 69.420642 -69.645789 
L 69.805335 -69.003505 
L 70.190028 -70.783522 
L 70.574721 -67.348914 
L 70.959414 -71.846797 
L 71.344106 -84.218397 
L 71.728799 -80.744212 
L 72.113492 -67.600484 
L 72.498185 -74.486047 
L 72.882878 -71.773028 
L 73.267571 -67.30501 
L 73.652264 -77.677104 
L 74.036957 -76.541095 
L 74.42165 -83.600795 
L 74.806343 -78.080686 
L 75.191036 -71.785292 
L 75.575729 -73.203652 
L 75.960422 -72.829431 
L 76.345115 -69.575599 
L 76.729807 -71.616397 
L 77.1145 -66.881233 
L 77.499193 -71.891108 
L 77.883886 -73.621147 
L 78.268579 -67.646775 
L 78.653272 -64.246358 
L 79.037965 -62.874318 
L 79.422658 -71.167982 
L 79.807351 -70.503873 
L 80.192044 -64.900935 
L 80.576737 -74.914743 
L 80.96143 -59.131432 
L 81.346123 -79.797674 
L 81.730815 -70.580333 
L 82.115508 -66.542115 
L 82.500201 -76.403905 
L 82.884894 -78.686749 
L 83.269587 -61.123288 
L 83.65428 -76.890893 
L 84.038973 -77.839279 
L 84.423666 -68.323338 
L 84.808359 -69.7795 
L 85.193052 -64.874495 
L 85.577745 -66.995439 
L 85.962438 -70.99049 
L 86.347131 -67.182939 
L 86.731823 -70.108509 
L 87.116516 -63.993 
L 87.501209 -75.376775 
L 87.885902 -64.356698 
L 88.270595 -62.599224 
L 88.655288 -62.860609 
L 89.039981 -66.015467 
L 89.424674 -61.767049 
L 89.809367 -63.528531 
L 90.19406 -69.421452 
L 90.578753 -52.203632 
L 90.963446 -77.769475 
L 91.348139 -61.431682 
L 91.732832 -67.895641 
L 92.117524 -72.175586 
L 92.502217 -70.159207 
L 92.88691 -65.39934 
L 93.271603 -65.898344 
L 93.656296 -68.897257 
L 94.040989 -70.940734 
L 94.425682 -73.450025 
L 94.810375 -61.740797 
L 95.195068 -69.884893 
L 95.579761 -62.924071 
L 95.964454 -84.845195 
L 96.349147 -76.605409 
L 96.73384 -75.697709 
L 97.118532 -76.470015 
L 97.503225 -78.228564 
L 97.887918 -67.028257 
L 98.272611 -73.454 
L 98.657304 -76.368859 
L 99.041997 -59.570805 
L 99.42669 -75.375091 
L 99.811383 -73.571823 
L 100.196076 -60.291609 
L 100.580769 -78.069507 
L 100.965462 -68.07173 
L 101.350155 -72.042992 
L 101.734848 -66.875782 
L 102.11954 -66.044835 
L 102.504233 -72.46888 
L 102.888926 -62.455694 
L 103.273619 -58.395384 
L 103.658312 -67.184665 
L 104.043005 -67.864677 
L 104.427698 -59.268185 
L 104.812391 -70.992457 
L 105.197084 -67.728086 
L 105.581777 -70.453797 
L 105.96647 -67.314509 
L 106.351163 -71.393344 
L 106.735856 -73.546492 
L 107.120549 -68.355529 
L 107.505241 -66.904166 
L 107.889934 -72.974889 
L 108.274627 -61.584452 
L 108.65932 -63.550371 
L 109.044013 -70.878412 
L 109.428706 -70.998321 
L 109.813399 -72.508305 
L 110.198092 -66.279861 
L 110.582785 -62.056033 
L 110.967478 -71.626238 
L 111.352171 -79.454824 
L 111.736864 -72.398461 
L 112.121557 -71.249816 
L 112.506249 -67.35019 
L 112.890942 -77.303433 
L 113.275635 -65.04447 
L 113.660328 -67.094021 
L 114.045021 -72.980039 
L 114.429714 -53.754257 
L 114.814407 -64.210252 
L 115.1991 -73.290923 
L 115.583793 -63.032271 
L 115.968486 -65.077414 
L 116.353179 -79.573623 
L 116.737872 -63.484855 
L 117.122565 -74.289303 
L 117.507258 -74.727759 
L 117.89195 -73.213434 
L 118.276643 -65.782789 
L 118.661336 -71.321562 
L 119.046029 -56.860735 
L 119.430722 -56.905014 
L 119.815415 -58.293735 
L 120.200108 -65.252592 
L 120.584801 -68.916245 
L 120.969494 -67.690567 
L 121.354187 -64.457266 
L 121.73888 -59.673162 
L 122.123573 -66.238931 
L 122.508266 -68.954581 
L 122.892958 -65.006508 
L 123.277651 -64.602764 
L 123.662344 -58.309709 
L 124.047037 -57.3494 
L 124.43173 -66.264098 
L 124.816423 -78.873604 
L 125.201116 -63.523679 
L 125.585809 -85.428202 
L 125.970502 -71.53305 
L 126.355195 -69.778093 
L 126.739888 -75.899574 
L 127.124581 -76.831626 
L 127.509274 -56.651248 
L 127.893966 -68.517355 
L 128.278659 -64.486903 
L 128.663352 -59.780879 
L 129.048045 -86.719559 
L 129.432738 -65.703519 
L 129.817431 -70.426268 
L 130.202124 -87.196339 
L 130.586817 -61.281413 
L 130.97151 -70.598868 
L 131.356203 -67.164333 
L 131.740896 -67.474606 
L 132.125589 -71.502046 
L 132.510282 -85.087006 
L 132.894975 -69.050191 
L 133.279667 -65.259345 
L 133.66436 -71.494399 
L 134.049053 -69.573554 
L 134.433746 -78.529584 
L 134.818439 -64.244453 
L 135.203132 -62.863873 
L 135.587825 -67.872384 
L 135.972518 -57.058683 
L 136.357211 -86.046066 
L 136.741904 -70.140634 
L 137.126597 -64.619187 
L 137.51129 -78.361155 
L 137.895983 -77.423202 
L 138.280675 -67.641265 
L 138.665368 -67.92546 
L 139.050061 -67.898357 
L 139.434754 -70.787106 
L 139.819447 -64.777766 
L 140.20414 -62.069479 
L 140.588833 -73.076738 
L 140.973526 -67.057985 
L 141.358219 -65.490872 
L 141.742912 -73.037011 
L 142.127605 -69.857583 
L 142.512298 -76.100031 
L 142.896991 -67.239562 
L 143.281683 -67.039609 
L 143.666376 -74.301516 
L 144.051069 -74.471968 
L 144.435762 -69.153684 
L 144.820455 -61.370307 
L 145.205148 -81.971142 
L 145.589841 -82.138115 
L 145.974534 -60.688394 
L 146.359227 -64.612413 
L 146.74392 -67.662577 
L 147.128613 -78.586644 
L 147.513306 -63.376936 
L 147.897999 -69.153771 
L 148.282692 -70.95639 
L 148.667384 -66.6818 
L 149.052077 -72.390348 
L 149.43677 -85.192847 
L 149.821463 -71.620773 
L 150.206156 -80.731335 
L 150.590849 -68.660933 
L 150.975542 -81.54937 
L 151.360235 -68.932623 
L 151.744928 -75.887156 
L 152.129621 -75.748356 
L 152.514314 -61.373728 
L 152.899007 -69.38389 
L 153.2837 -78.75726 
L 153.668392 -67.18039 
L 154.053085 -60.873944 
L 154.437778 -65.916066 
L 154.822471 -84.942536 
L 155.207164 -65.09501 
L 155.591857 -72.214483 
L 155.97655 -68.283366 
L 156.361243 -73.36924 
L 156.745936 -79.836833 
L 157.130629 -58.297687 
L 157.515322 -66.963033 
L 157.900015 -66.90545 
L 158.284708 -63.570955 
L 158.6694 -78.907172 
L 159.054093 -68.080738 
L 159.438786 -71.832451 
L 159.823479 -69.54869 
L 160.208172 -62.834926 
L 160.592865 -76.934044 
L 160.977558 -69.556482 
L 161.362251 -82.971726 
L 161.746944 -77.78327 
L 162.131637 -69.431592 
L 162.51633 -69.171276 
L 162.901023 -74.449575 
L 163.285716 -65.843428 
L 163.670409 -61.088395 
L 164.055101 -65.521054 
L 164.439794 -60.465917 
L 164.824487 -76.7146 
L 165.20918 -70.209664 
L 165.593873 -72.50858 
L 165.978566 -80.650774 
L 166.363259 -75.190221 
L 166.747952 -68.920094 
L 167.132645 -87.995214 
L 167.517338 -69.642089 
L 167.902031 -61.286732 
L 168.286724 -74.055257 
L 168.671417 -69.728424 
L 169.056109 -85.525072 
L 169.440802 -81.215171 
L 169.825495 -77.05281 
L 170.210188 -86.070515 
L 170.594881 -66.429753 
L 170.979574 -70.170785 
L 171.364267 -67.426794 
L 171.74896 -81.715552 
L 172.133653 -84.522633 
L 172.518346 -59.610966 
L 172.903039 -90.739281 
L 173.287732 -63.896695 
L 173.672425 -62.024106 
L 174.057117 -73.100712 
L 174.44181 -84.378113 
L 174.826503 -81.48251 
L 175.211196 -72.339671 
L 175.595889 -83.139427 
L 175.980582 -65.412833 
L 176.365275 -72.246649 
L 176.749968 -72.980442 
L 177.134661 -83.5371 
L 177.519354 -69.377459 
L 177.904047 -72.044756 
L 178.28874 -65.29676 
L 178.673433 -62.074505 
L 179.058126 -63.743888 
L 179.442818 -69.354163 
L 179.827511 -74.03071 
L 180.212204 -70.848538 
L 180.596897 -80.117855 
L 180.98159 -95.748479 
L 181.366283 -78.189573 
L 181.750976 -77.990742 
L 182.135669 -84.130806 
L 182.520362 -81.655555 
L 182.905055 -77.761579 
L 183.289748 -81.65383 
L 183.674441 -70.039671 
L 184.059134 -77.730967 
L 184.443826 -74.489232 
L 184.828519 -72.248061 
L 185.213212 -82.276533 
L 185.597905 -89.170546 
L 185.982598 -73.537178 
L 186.367291 -82.548076 
L 186.751984 -65.323699 
L 187.136677 -82.998129 
L 187.52137 -68.6779 
L 187.906063 -66.844768 
L 188.290756 -70.257129 
L 188.675449 -79.638822 
L 189.060142 -79.175042 
L 189.444835 -83.325979 
L 189.829527 -72.498779 
L 190.21422 -72.277613 
L 190.598913 -67.898933 
L 190.983606 -78.042415 
L 191.368299 -79.355745 
L 191.752992 -81.192196 
L 192.137685 -79.932509 
L 192.522378 -84.264791 
L 192.907071 -78.503272 
L 193.291764 -77.554582 
L 193.676457 -68.968818 
L 194.06115 -72.882833 
L 194.445843 -79.219506 
L 194.830535 -70.965765 
L 195.215228 -79.05021 
L 195.599921 -77.173682 
L 195.984614 -77.524621 
L 196.369307 -87.716421 
L 196.754 -91.588566 
L 197.138693 -74.796555 
L 197.523386 -72.369112 
L 197.908079 -78.652252 
L 198.292772 -83.443572 
L 198.677465 -78.26177 
L 199.062158 -89.66663 
L 199.446851 -85.338932 
L 199.831543 -99.253932 
L 200.216236 -85.978357 
L 200.600929 -92.605876 
L 200.985622 -81.528812 
L 201.370315 -90.965816 
L 201.755008 -83.69934 
L 202.139701 -75.672704 
L 202.524394 -77.226366 
L 202.909087 -71.267883 
L 203.29378 -76.91992 
L 203.678473 -86.198412 
L 204.063166 -90.27399 
L 204.447859 -76.475308 
L 204.832552 -76.720283 
L 205.217244 -87.661048 
L 205.601937 -82.952639 
L 205.98663 -89.04011 
L 206.371323 -82.283444 
L 206.756016 -91.719383 
L 207.140709 -82.925896 
L 207.525402 -83.572207 
L 207.910095 -81.98979 
L 208.294788 -87.328297 
L 208.679481 -81.689457 
L 209.064174 -97.809827 
L 209.448867 -86.240876 
L 209.83356 -87.591473 
L 210.218252 -73.939857 
L 210.602945 -89.632722 
L 210.987638 -86.019779 
L 211.372331 -83.204363 
L 211.757024 -83.17934 
L 212.141717 -82.810927 
L 212.52641 -86.843665 
L 212.911103 -81.987111 
L 213.295796 -92.789451 
L 213.680489 -84.434846 
L 214.065182 -100.246184 
L 214.449875 -93.993739 
L 214.834568 -83.598173 
L 215.21926 -86.898875 
L 215.603953 -84.114517 
L 215.988646 -89.663862 
L 216.373339 -95.361394 
L 216.758032 -94.325232 
L 217.142725 -88.256855 
L 217.527418 -103.178701 
L 217.912111 -93.154168 
L 218.296804 -91.108828 
L 218.681497 -86.075077 
L 219.06619 -93.943436 
L 219.450883 -101.226774 
L 219.835576 -86.166736 
L 220.220269 -94.663043 
L 220.604961 -96.803081 
L 220.989654 -85.45776 
L 221.374347 -99.214612 
L 221.75904 -93.258307 
L 222.143733 -100.632186 
L 222.528426 -99.265037 
L 222.913119 -97.098846 
L 223.297812 -101.356895 
L 223.682505 -95.344566 
L 224.067198 -93.294794 
L 224.451891 -96.79305 
L 224.836584 -98.962422 
L 225.221277 -100.863992 
L 225.605969 -103.689636 
L 225.990662 -103.715801 
L 226.375355 -103.523869 
L 226.760048 -94.437781 
L 227.144741 -105.733787 
L 227.529434 -108.575799 
L 227.914127 -99.560627 
L 228.29882 -106.274578 
L 228.683513 -110.504298 
L 229.068206 -105.771232 
L 229.452899 -108.406905 
L 229.837592 -112.617751 
L 230.222285 -97.821095 
L 230.606977 -115.489431 
L 230.99167 -114.341264 
L 231.376363 -105.695848 
L 231.761056 -106.848173 
L 232.145749 -121.627936 
L 232.530442 -119.423643 
L 232.915135 -122.89636 
L 233.299828 -114.159869 
L 233.684521 -121.475654 
L 234.069214 -117.99845 
L 234.453907 -123.549756 
L 234.8386 -129.858793 
L 235.223293 -129.858793 
L 235.607986 -124.420798 
L 235.992678 -129.858793 
L 236.377371 -125.001752 
L 236.762064 -129.858793 
L 237.146757 -129.858793 
L 237.53145 -129.858793 
L 237.916143 -129.858793 
L 238.300836 -129.858793 
L 238.685529 -129.858793 
L 239.070222 -129.858793 
L 239.454915 -129.858793 
L 239.454915 -129.858793 
L 239.454915 -129.858793 
L 239.070222 -129.858793 
L 238.685529 -129.858793 
L 238.300836 -129.858793 
L 237.916143 -129.858793 
L 237.53145 -129.858793 
L 237.146757 -129.858793 
L 236.762064 -129.858793 
L 236.377371 -129.858793 
L 235.992678 -129.858793 
L 235.607986 -129.858793 
L 235.223293 -129.858793 
L 234.8386 -129.858793 
L 234.453907 -129.858793 
L 234.069214 -131.718817 
L 233.684521 -129.858793 
L 233.299828 -132.400133 
L 232.915135 -129.858793 
L 232.530442 -131.506677 
L 232.145749 -130.136987 
L 231.761056 -130.960581 
L 231.376363 -134.214369 
L 230.99167 -135.226325 
L 230.606977 -132.519939 
L 230.222285 -139.431447 
L 229.837592 -139.633374 
L 229.452899 -140.645564 
L 229.068206 -136.441899 
L 228.683513 -134.979422 
L 228.29882 -137.854914 
L 227.914127 -143.118218 
L 227.529434 -141.096003 
L 227.144741 -143.264805 
L 226.760048 -145.726845 
L 226.375355 -145.580399 
L 225.990662 -140.629781 
L 225.605969 -142.009891 
L 225.221277 -142.286883 
L 224.836584 -146.581186 
L 224.451891 -149.383386 
L 224.067198 -147.65952 
L 223.682505 -150.262915 
L 223.297812 -141.550409 
L 222.913119 -141.130922 
L 222.528426 -153.297813 
L 222.143733 -145.221741 
L 221.75904 -147.683341 
L 221.374347 -148.437506 
L 220.989654 -148.728982 
L 220.604961 -155.496384 
L 220.220269 -147.269784 
L 219.835576 -156.533764 
L 219.450883 -152.324196 
L 219.06619 -147.918558 
L 218.681497 -152.375091 
L 218.296804 -151.022292 
L 217.912111 -151.187092 
L 217.527418 -165.592265 
L 217.142725 -150.077278 
L 216.758032 -152.164657 
L 216.373339 -164.791838 
L 215.988646 -155.266306 
L 215.603953 -149.612668 
L 215.21926 -150.736129 
L 214.834568 -153.792385 
L 214.449875 -152.561652 
L 214.065182 -164.644551 
L 213.680489 -154.690054 
L 213.295796 -151.23347 
L 212.911103 -154.33264 
L 212.52641 -150.247219 
L 212.141717 -159.877794 
L 211.757024 -158.941354 
L 211.372331 -158.48094 
L 210.987638 -154.645644 
L 210.602945 -161.499538 
L 210.218252 -154.89152 
L 209.83356 -169.490987 
L 209.448867 -155.029887 
L 209.064174 -157.35939 
L 208.679481 -154.772894 
L 208.294788 -156.446052 
L 207.910095 -156.617188 
L 207.525402 -164.384674 
L 207.140709 -160.57894 
L 206.756016 -156.866447 
L 206.371323 -157.108388 
L 205.98663 -153.563207 
L 205.601937 -156.359147 
L 205.217244 -158.501952 
L 204.832552 -162.281714 
L 204.447859 -156.420483 
L 204.063166 -172.90832 
L 203.678473 -153.987986 
L 203.29378 -157.312894 
L 202.909087 -159.030212 
L 202.524394 -152.944832 
L 202.139701 -166.890331 
L 201.755008 -158.150278 
L 201.370315 -176.863503 
L 200.985622 -157.999111 
L 200.600929 -158.860295 
L 200.216236 -165.253578 
L 199.831543 -175.06836 
L 199.446851 -163.826048 
L 199.062158 -160.18864 
L 198.677465 -159.421154 
L 198.292772 -161.955615 
L 197.908079 -173.053779 
L 197.523386 -165.30499 
L 197.138693 -170.476225 
L 196.754 -156.724409 
L 196.369307 -162.994191 
L 195.984614 -175.519309 
L 195.599921 -164.255273 
L 195.215228 -161.936012 
L 194.830535 -158.958124 
L 194.445843 -157.630484 
L 194.06115 -159.773835 
L 193.676457 -162.626139 
L 193.291764 -162.623744 
L 192.907071 -159.236445 
L 192.522378 -171.087762 
L 192.137685 -163.971681 
L 191.752992 -182.472662 
L 191.368299 -167.98097 
L 190.983606 -162.532016 
L 190.598913 -164.839251 
L 190.21422 -163.999316 
L 189.829527 -166.546604 
L 189.444835 -164.790933 
L 189.060142 -158.63084 
L 188.675449 -179.26162 
L 188.290756 -162.590377 
L 187.906063 -163.729767 
L 187.52137 -168.140968 
L 187.136677 -168.068292 
L 186.751984 -161.939638 
L 186.367291 -168.491429 
L 185.982598 -159.922597 
L 185.597905 -170.747697 
L 185.213212 -171.1151 
L 184.828519 -154.336136 
L 184.443826 -181.399587 
L 184.059134 -175.979427 
L 183.674441 -173.465909 
L 183.289748 -173.208366 
L 182.905055 -167.712494 
L 182.520362 -167.090794 
L 182.135669 -177.357732 
L 181.750976 -174.501011 
L 181.366283 -164.814834 
L 180.98159 -174.37324 
L 180.596897 -179.842065 
L 180.212204 -170.592512 
L 179.827511 -175.51661 
L 179.442818 -169.751219 
L 179.058126 -165.710312 
L 178.673433 -163.228795 
L 178.28874 -159.460815 
L 177.904047 -173.51478 
L 177.519354 -161.032153 
L 177.134661 -177.067445 
L 176.749968 -175.099108 
L 176.365275 -164.911821 
L 175.980582 -171.625163 
L 175.595889 -173.483634 
L 175.211196 -170.436851 
L 174.826503 -156.502192 
L 174.44181 -171.75328 
L 174.057117 -157.832322 
L 173.672425 -164.143238 
L 173.287732 -161.777594 
L 172.903039 -174.78897 
L 172.518346 -163.559344 
L 172.133653 -167.440785 
L 171.74896 -170.206582 
L 171.364267 -165.341437 
L 170.979574 -167.856532 
L 170.594881 -174.77811 
L 170.210188 -181.12454 
L 169.825495 -172.329874 
L 169.440802 -174.63582 
L 169.056109 -170.15816 
L 168.671417 -170.518714 
L 168.286724 -172.555798 
L 167.902031 -171.277592 
L 167.517338 -167.968815 
L 167.132645 -171.584324 
L 166.747952 -165.690258 
L 166.363259 -172.335176 
L 165.978566 -171.70476 
L 165.593873 -175.555345 
L 165.20918 -174.24927 
L 164.824487 -177.368865 
L 164.439794 -173.334139 
L 164.055101 -170.954398 
L 163.670409 -168.983628 
L 163.285716 -164.413449 
L 162.901023 -177.297012 
L 162.51633 -171.646881 
L 162.131637 -173.384688 
L 161.746944 -169.423712 
L 161.362251 -172.695923 
L 160.977558 -171.752432 
L 160.592865 -175.550045 
L 160.208172 -175.24904 
L 159.823479 -174.501533 
L 159.438786 -169.631407 
L 159.054093 -167.629302 
L 158.6694 -166.484436 
L 158.284708 -169.057882 
L 157.900015 -173.18099 
L 157.515322 -173.952694 
L 157.130629 -168.408072 
L 156.745936 -170.706526 
L 156.361243 -162.154793 
L 155.97655 -169.62523 
L 155.591857 -169.814373 
L 155.207164 -176.840419 
L 154.822471 -170.432754 
L 154.437778 -170.421543 
L 154.053085 -165.233838 
L 153.668392 -167.499363 
L 153.2837 -176.634426 
L 152.899007 -160.352391 
L 152.514314 -174.120294 
L 152.129621 -174.033378 
L 151.744928 -163.074884 
L 151.360235 -170.289306 
L 150.975542 -168.316613 
L 150.590849 -168.157391 
L 150.206156 -177.635963 
L 149.821463 -186.503523 
L 149.43677 -177.433056 
L 149.052077 -177.206868 
L 148.667384 -172.766413 
L 148.282692 -176.662497 
L 147.897999 -169.017612 
L 147.513306 -169.524838 
L 147.128613 -180.284448 
L 146.74392 -178.122749 
L 146.359227 -162.862467 
L 145.974534 -169.233044 
L 145.589841 -171.034057 
L 145.205148 -175.076477 
L 144.820455 -164.345682 
L 144.435762 -169.839915 
L 144.051069 -183.673001 
L 143.666376 -174.571761 
L 143.281683 -167.999152 
L 142.896991 -172.58001 
L 142.512298 -167.317331 
L 142.127605 -170.503458 
L 141.742912 -170.497673 
L 141.358219 -169.221421 
L 140.973526 -177.367899 
L 140.588833 -176.083884 
L 140.20414 -175.697129 
L 139.819447 -177.874467 
L 139.434754 -165.653838 
L 139.050061 -174.994925 
L 138.665368 -172.943939 
L 138.280675 -168.071955 
L 137.895983 -178.257415 
L 137.51129 -169.889065 
L 137.126597 -174.102887 
L 136.741904 -174.099839 
L 136.357211 -181.421462 
L 135.972518 -170.11106 
L 135.587825 -174.408502 
L 135.203132 -175.283213 
L 134.818439 -176.551917 
L 134.433746 -177.718011 
L 134.049053 -169.653872 
L 133.66436 -176.19419 
L 133.279667 -164.675875 
L 132.894975 -172.593403 
L 132.510282 -170.948097 
L 132.125589 -171.916374 
L 131.740896 -176.053116 
L 131.356203 -178.255751 
L 130.97151 -167.387283 
L 130.586817 -170.383264 
L 130.202124 -184.875738 
L 129.817431 -169.633309 
L 129.432738 -169.656454 
L 129.048045 -184.688604 
L 128.663352 -172.831854 
L 128.278659 -172.974228 
L 127.893966 -174.836476 
L 127.509274 -169.485439 
L 127.124581 -180.524172 
L 126.739888 -180.588941 
L 126.355195 -172.895266 
L 125.970502 -174.529485 
L 125.585809 -170.295707 
L 125.201116 -172.791511 
L 124.816423 -176.836839 
L 124.43173 -176.978823 
L 124.047037 -172.283786 
L 123.662344 -173.991483 
L 123.277651 -172.268776 
L 122.892958 -176.241862 
L 122.508266 -170.578438 
L 122.123573 -167.239682 
L 121.73888 -176.59863 
L 121.354187 -166.904578 
L 120.969494 -170.630935 
L 120.584801 -168.539965 
L 120.200108 -177.252651 
L 119.815415 -165.285177 
L 119.430722 -171.872112 
L 119.046029 -170.119531 
L 118.661336 -170.911214 
L 118.276643 -172.106637 
L 117.89195 -177.943566 
L 117.507258 -172.662162 
L 117.122565 -179.653609 
L 116.737872 -170.13981 
L 116.353179 -183.671053 
L 115.968486 -171.446636 
L 115.583793 -171.35732 
L 115.1991 -182.649141 
L 114.814407 -177.406828 
L 114.429714 -169.97171 
L 114.045021 -172.790578 
L 113.660328 -178.449104 
L 113.275635 -173.773229 
L 112.890942 -184.040834 
L 112.506249 -175.273497 
L 112.121557 -175.213392 
L 111.736864 -180.077481 
L 111.352171 -179.58376 
L 110.967478 -168.310468 
L 110.582785 -173.506747 
L 110.198092 -171.634823 
L 109.813399 -169.474365 
L 109.428706 -175.428983 
L 109.044013 -174.014893 
L 108.65932 -169.671975 
L 108.274627 -169.334115 
L 107.889934 -171.298021 
L 107.505241 -172.769327 
L 107.120549 -174.45549 
L 106.735856 -179.9582 
L 106.351163 -169.302485 
L 105.96647 -169.810958 
L 105.581777 -167.020774 
L 105.197084 -168.518235 
L 104.812391 -167.720379 
L 104.427698 -173.652003 
L 104.043005 -176.048888 
L 103.658312 -168.313417 
L 103.273619 -176.613295 
L 102.888926 -171.456436 
L 102.504233 -173.307171 
L 102.11954 -182.09239 
L 101.734848 -177.653808 
L 101.350155 -176.240969 
L 100.965462 -172.358397 
L 100.580769 -172.102263 
L 100.196076 -166.727201 
L 99.811383 -174.422933 
L 99.42669 -170.996579 
L 99.041997 -168.201624 
L 98.657304 -178.556707 
L 98.272611 -169.168731 
L 97.887918 -173.610911 
L 97.503225 -175.87425 
L 97.118532 -171.549797 
L 96.73384 -184.185257 
L 96.349147 -173.658227 
L 95.964454 -171.010662 
L 95.579761 -173.106543 
L 95.195068 -170.28782 
L 94.810375 -173.597998 
L 94.425682 -181.855067 
L 94.040989 -170.630559 
L 93.656296 -166.888176 
L 93.271603 -175.783342 
L 92.88691 -168.006421 
L 92.502217 -175.942609 
L 92.117524 -174.078345 
L 91.732832 -166.611174 
L 91.348139 -169.523718 
L 90.963446 -174.143218 
L 90.578753 -171.022093 
L 90.19406 -177.461988 
L 89.809367 -174.167527 
L 89.424674 -175.224823 
L 89.039981 -170.917975 
L 88.655288 -168.210905 
L 88.270595 -169.594226 
L 87.885902 -170.130643 
L 87.501209 -166.639996 
L 87.116516 -168.795644 
L 86.731823 -170.116464 
L 86.347131 -172.111888 
L 85.962438 -167.815153 
L 85.577745 -162.900907 
L 85.193052 -174.049081 
L 84.808359 -172.203583 
L 84.423666 -163.924167 
L 84.038973 -169.058084 
L 83.65428 -172.254457 
L 83.269587 -166.300859 
L 82.884894 -170.955194 
L 82.500201 -171.371284 
L 82.115508 -172.03909 
L 81.730815 -171.578531 
L 81.346123 -174.428925 
L 80.96143 -169.517285 
L 80.576737 -165.42997 
L 80.192044 -169.034527 
L 79.807351 -177.061869 
L 79.422658 -167.957529 
L 79.037965 -165.699877 
L 78.653272 -166.54776 
L 78.268579 -174.451731 
L 77.883886 -174.905522 
L 77.499193 -166.260888 
L 77.1145 -171.443176 
L 76.729807 -166.858698 
L 76.345115 -169.9659 
L 75.960422 -165.947737 
L 75.575729 -169.217148 
L 75.191036 -172.398485 
L 74.806343 -168.036196 
L 74.42165 -175.267791 
L 74.036957 -163.945129 
L 73.652264 -173.386004 
L 73.267571 -171.844892 
L 72.882878 -172.479618 
L 72.498185 -174.848641 
L 72.113492 -171.43528 
L 71.728799 -164.527833 
L 71.344106 -169.111042 
L 70.959414 -168.339819 
L 70.574721 -165.338653 
L 70.190028 -173.153661 
L 69.805335 -172.075535 
L 69.420642 -168.214706 
L 69.035949 -169.914699 
L 68.651256 -163.04281 
L 68.266563 -163.24952 
L 67.88187 -166.323572 
L 67.497177 -167.334175 
L 67.112484 -165.20153 
L 66.727791 -161.073721 
L 66.343098 -168.611042 
L 65.958406 -164.086987 
L 65.573713 -161.991972 
L 65.18902 -165.639949 
L 64.804327 -162.747081 
L 64.419634 -166.64298 
L 64.034941 -162.655531 
L 63.650248 -165.774314 
L 63.265555 -162.476847 
L 62.880862 -169.428308 
L 62.496169 -160.389485 
L 62.111476 -166.712693 
L 61.726783 -167.269271 
L 61.34209 -165.758325 
L 60.957398 -168.363511 
L 60.572705 -160.46237 
L 60.188012 -162.413144 
L 59.803319 -159.815363 
L 59.418626 -164.478396 
L 59.033933 -161.743661 
L 58.64924 -160.255774 
L 58.264547 -160.355857 
L 57.879854 -164.423627 
L 57.495161 -162.690244 
L 57.110468 -166.702458 
L 56.725775 -161.436243 
L 56.341082 -163.942977 
L 55.956389 -165.789147 
L 55.571697 -167.378507 
L 55.187004 -165.331412 
L 54.802311 -164.574719 
L 54.417618 -164.486177 
L 54.032925 -162.432312 
L 53.648232 -157.670872 
L 53.263539 -160.830255 
L 52.878846 -158.962301 
L 52.494153 -160.75838 
L 52.10946 -163.141418 
z
"/>
    </defs>
    <g clip-path="url(#pf87be1c5b9)">
     <use xlink:href="#med554a6c8b" x="0" y="200.79625" style="fill: #c0392b; fill-opacity: 0.12"/>
    </g>
   </g>
   <g id="matplotlib.axis_1">
    <g id="xtick_1">
     <g id="line2d_1">
      <path d="M 51.724767 163.24 
L 51.724767 7.2 
" clip-path="url(#pf87be1c5b9)" style="fill: none; stroke: #b0b0b0; stroke-opacity: 0.3; stroke-width: 0.8; stroke-linecap: square"/>
     </g>
     <g id="line2d_2">
      <defs>
       <path id="md52ec2ff24" d="M 0 0 
L 0 3.5 
" style="stroke: #000000; stroke-width: 0.8"/>
      </defs>
      <g>
       <use xlink:href="#md52ec2ff24" x="51.724767" y="163.24" style="stroke: #000000; stroke-width: 0.8"/>
      </g>
     </g>
     <g id="text_1">
      <text style="font-size: 10px; font-family: 'DejaVu Sans', 'Bitstream Vera Sans', 'Computer Modern Sans Serif', 'Lucida Grande', 'Verdana', 'Geneva', 'Lucid', 'Arial', 'Helvetica', 'Avant Garde', sans-serif; text-anchor: middle" x="51.724767" y="177.838437" transform="rotate(-0 51.724767 177.838437)">0.0</text>
     </g>
    </g>
    <g id="xtick_2">
     <g id="line2d_3">
      <path d="M 89.292436 163.24 
L 89.292436 7.2 
" clip-path="url(#pf87be1c5b9)" style="fill: none; stroke: #b0b0b0; stroke-opacity: 0.3; stroke-width: 0.8; stroke-linecap: square"/>
     </g>
     <g id="line2d_4">
      <g>
       <use xlink:href="#md52ec2ff24" x="89.292436" y="163.24" style="stroke: #000000; stroke-width: 0.8"/>
      </g>
     </g>
     <g id="text_2">
      <text style="font-size: 10px; font-family: 'DejaVu Sans', 'Bitstream Vera Sans', 'Computer Modern Sans Serif', 'Lucida Grande', 'Verdana', 'Geneva', 'Lucid', 'Arial', 'Helvetica', 'Avant Garde', sans-serif; text-anchor: middle" x="89.292436" y="177.838437" transform="rotate(-0 89.292436 177.838437)">0.2</text>
     </g>
    </g>
    <g id="xtick_3">
     <g id="line2d_5">
      <path d="M 126.860104 163.24 
L 126.860104 7.2 
" clip-path="url(#pf87be1c5b9)" style="fill: none; stroke: #b0b0b0; stroke-opacity: 0.3; stroke-width: 0.8; stroke-linecap: square"/>
     </g>
     <g id="line2d_6">
      <g>
       <use xlink:href="#md52ec2ff24" x="126.860104" y="163.24" style="stroke: #000000; stroke-width: 0.8"/>
      </g>
     </g>
     <g id="text_3">
      <text style="font-size: 10px; font-family: 'DejaVu Sans', 'Bitstream Vera Sans', 'Computer Modern Sans Serif', 'Lucida Grande', 'Verdana', 'Geneva', 'Lucid', 'Arial', 'Helvetica', 'Avant Garde', sans-serif; text-anchor: middle" x="126.860104" y="177.838437" transform="rotate(-0 126.860104 177.838437)">0.4</text>
     </g>
    </g>
    <g id="xtick_4">
     <g id="line2d_7">
      <path d="M 164.427773 163.24 
L 164.427773 7.2 
" clip-path="url(#pf87be1c5b9)" style="fill: none; stroke: #b0b0b0; stroke-opacity: 0.3; stroke-width: 0.8; stroke-linecap: square"/>
     </g>
     <g id="line2d_8">
      <g>
       <use xlink:href="#md52ec2ff24" x="164.427773" y="163.24" style="stroke: #000000; stroke-width: 0.8"/>
      </g>
     </g>
     <g id="text_4">
      <text style="font-size: 10px; font-family: 'DejaVu Sans', 'Bitstream Vera Sans', 'Computer Modern Sans Serif', 'Lucida Grande', 'Verdana', 'Geneva', 'Lucid', 'Arial', 'Helvetica', 'Avant Garde', sans-serif; text-anchor: middle" x="164.427773" y="177.838437" transform="rotate(-0 164.427773 177.838437)">0.6</text>
     </g>
    </g>
    <g id="xtick_5">
     <g id="line2d_9">
      <path d="M 201.995441 163.24 
L 201.995441 7.2 
" clip-path="url(#pf87be1c5b9)" style="fill: none; stroke: #b0b0b0; stroke-opacity: 0.3; stroke-width: 0.8; stroke-linecap: square"/>
     </g>
     <g id="line2d_10">
      <g>
       <use xlink:href="#md52ec2ff24" x="201.995441" y="163.24" style="stroke: #000000; stroke-width: 0.8"/>
      </g>
     </g>
     <g id="text_5">
      <text style="font-size: 10px; font-family: 'DejaVu Sans', 'Bitstream Vera Sans', 'Computer Modern Sans Serif', 'Lucida Grande', 'Verdana', 'Geneva', 'Lucid', 'Arial', 'Helvetica', 'Avant Garde', sans-serif; text-anchor: middle" x="201.995441" y="177.838437" transform="rotate(-0 201.995441 177.838437)">0.8</text>
     </g>
    </g>
    <g id="xtick_6">
     <g id="line2d_11">
      <path d="M 239.56311 163.24 
L 239.56311 7.2 
" clip-path="url(#pf87be1c5b9)" style="fill: none; stroke: #b0b0b0; stroke-opacity: 0.3; stroke-width: 0.8; stroke-linecap: square"/>
     </g>
     <g id="line2d_12">
      <g>
       <use xlink:href="#md52ec2ff24" x="239.56311" y="163.24" style="stroke: #000000; stroke-width: 0.8"/>
      </g>
     </g>
     <g id="text_6">
      <text style="font-size: 10px; font-family: 'DejaVu Sans', 'Bitstream Vera Sans', 'Computer Modern Sans Serif', 'Lucida Grande', 'Verdana', 'Geneva', 'Lucid', 'Arial', 'Helvetica', 'Avant Garde', sans-serif; text-anchor: middle" x="239.56311" y="177.838437" transform="rotate(-0 239.56311 177.838437)">1.0</text>
     </g>
    </g>
    <g id="text_7">
     <text style="font-size: 10px; font-family: 'DejaVu Sans', 'Bitstream Vera Sans', 'Computer Modern Sans Serif', 'Lucida Grande', 'Verdana', 'Geneva', 'Lucid', 'Arial', 'Helvetica', 'Avant Garde', sans-serif; text-anchor: middle" x="145.782188" y="191.516562" transform="rotate(-0 145.782188 191.516562)">environment step</text>
    </g>
    <g id="text_8">
     <text style="font-size: 10px; font-family: 'DejaVu Sans', 'Bitstream Vera Sans', 'Computer Modern Sans Serif', 'Lucida Grande', 'Verdana', 'Geneva', 'Lucid', 'Arial', 'Helvetica', 'Avant Garde', sans-serif; text-anchor: end" x="248.822188" y="190.516562" transform="rotate(-0 248.822188 190.516562)">1e6</text>
    </g>
   </g>
   <g id="matplotlib.axis_2">
    <g id="ytick_1">
     <g id="line2d_13">
      <path d="M 42.742188 159.676499 
L 248.822188 159.676499 
" clip-path="url(#pf87be1c5b9)" style="fill: none; stroke: #b0b0b0; stroke-opacity: 0.3; stroke-width: 0.8; stroke-linecap: square"/>
     </g>
     <g id="line2d_14">
      <defs>
       <path id="meb23fb85bc" d="M 0 0 
L -3.5 0 
" style="stroke: #000000; stroke-width: 0.8"/>
      </defs>
      <g>
       <use xlink:href="#meb23fb85bc" x="42.742188" y="159.676499" style="stroke: #000000; stroke-width: 0.8"/>
      </g>
     </g>
     <g id="text_9">
      <text style="font-size: 10px; font-family: 'DejaVu Sans', 'Bitstream Vera Sans', 'Computer Modern Sans Serif', 'Lucida Grande', 'Verdana', 'Geneva', 'Lucid', 'Arial', 'Helvetica', 'Avant Garde', sans-serif; text-anchor: end" x="35.742188" y="163.475718" transform="rotate(-0 35.742188 163.475718)">−3</text>
     </g>
    </g>
    <g id="ytick_2">
     <g id="line2d_15">
      <path d="M 42.742188 130.096818 
L 248.822188 130.096818 
" clip-path="url(#pf87be1c5b9)" style="fill: none; stroke: #b0b0b0; stroke-opacity: 0.3; stroke-width: 0.8; stroke-linecap: square"/>
     </g>
     <g id="line2d_16">
      <g>
       <use xlink:href="#meb23fb85bc" x="42.742188" y="130.096818" style="stroke: #000000; stroke-width: 0.8"/>
      </g>
     </g>
     <g id="text_10">
      <text style="font-size: 10px; font-family: 'DejaVu Sans', 'Bitstream Vera Sans', 'Computer Modern Sans Serif', 'Lucida Grande', 'Verdana', 'Geneva', 'Lucid', 'Arial', 'Helvetica', 'Avant Garde', sans-serif; text-anchor: end" x="35.742188" y="133.896037" transform="rotate(-0 35.742188 133.896037)">−2</text>
     </g>
    </g>
    <g id="ytick_3">
     <g id="line2d_17">
      <path d="M 42.742188 100.517138 
L 248.822188 100.517138 
" clip-path="url(#pf87be1c5b9)" style="fill: none; stroke: #b0b0b0; stroke-opacity: 0.3; stroke-width: 0.8; stroke-linecap: square"/>
     </g>
     <g id="line2d_18">
      <g>
       <use xlink:href="#meb23fb85bc" x="42.742188" y="100.517138" style="stroke: #000000; stroke-width: 0.8"/>
      </g>
     </g>
     <g id="text_11">
      <text style="font-size: 10px; font-family: 'DejaVu Sans', 'Bitstream Vera Sans', 'Computer Modern Sans Serif', 'Lucida Grande', 'Verdana', 'Geneva', 'Lucid', 'Arial', 'Helvetica', 'Avant Garde', sans-serif; text-anchor: end" x="35.742188" y="104.316356" transform="rotate(-0 35.742188 104.316356)">−1</text>
     </g>
    </g>
    <g id="ytick_4">
     <g id="line2d_19">
      <path d="M 42.742188 70.937457 
L 248.822188 70.937457 
" clip-path="url(#pf87be1c5b9)" style="fill: none; stroke: #b0b0b0; stroke-opacity: 0.3; stroke-width: 0.8; stroke-linecap: square"/>
     </g>
     <g id="line2d_20">
      <g>
       <use xlink:href="#meb23fb85bc" x="42.742188" y="70.937457" style="stroke: #000000; stroke-width: 0.8"/>
      </g>
     </g>
     <g id="text_12">
      <text style="font-size: 10px; font-family: 'DejaVu Sans', 'Bitstream Vera Sans', 'Computer Modern Sans Serif', 'Lucida Grande', 'Verdana', 'Geneva', 'Lucid', 'Arial', 'Helvetica', 'Avant Garde', sans-serif; text-anchor: end" x="35.742188" y="74.736676" transform="rotate(-0 35.742188 74.736676)">0</text>
     </g>
    </g>
    <g id="ytick_5">
     <g id="line2d_21">
      <path d="M 42.742188 41.357776 
L 248.822188 41.357776 
" clip-path="url(#pf87be1c5b9)" style="fill: none; stroke: #b0b0b0; stroke-opacity: 0.3; stroke-width: 0.8; stroke-linecap: square"/>
     </g>
     <g id="line2d_22">
      <g>
       <use xlink:href="#meb23fb85bc" x="42.742188" y="41.357776" style="stroke: #000000; stroke-width: 0.8"/>
      </g>
     </g>
     <g id="text_13">
      <text style="font-size: 10px; font-family: 'DejaVu Sans', 'Bitstream Vera Sans', 'Computer Modern Sans Serif', 'Lucida Grande', 'Verdana', 'Geneva', 'Lucid', 'Arial', 'Helvetica', 'Avant Garde', sans-serif; text-anchor: end" x="35.742188" y="45.156995" transform="rotate(-0 35.742188 45.156995)">1</text>
     </g>
    </g>
    <g id="ytick_6">
     <g id="line2d_23">
      <path d="M 42.742188 11.778096 
L 248.822188 11.778096 
" clip-path="url(#pf87be1c5b9)" style="fill: none; stroke: #b0b0b0; stroke-opacity: 0.3; stroke-width: 0.8; stroke-linecap: square"/>
     </g>
     <g id="line2d_24">
      <g>
       <use xlink:href="#meb23fb85bc" x="42.742188" y="11.778096" style="stroke: #000000; stroke-width: 0.8"/>
      </g>
     </g>
     <g id="text_14">
      <text style="font-size: 10px; font-family: 'DejaVu Sans', 'Bitstream Vera Sans', 'Computer Modern Sans Serif', 'Lucida Grande', 'Verdana', 'Geneva', 'Lucid', 'Arial', 'Helvetica', 'Avant Garde', sans-serif; text-anchor: end" x="35.742188" y="15.577315" transform="rotate(-0 35.742188 15.577315)">2</text>
     </g>
    </g>
    <g id="text_15">
     <!-- $\beta_t$ -->
     <g transform="translate(14.9 89.92) rotate(-90)">
      <text>
       <tspan x="0" y="-0.34375" style="font-style: oblique; font-size: 10px; font-family: 'DejaVu Sans'">β</tspan>
       <tspan x="6.381836" y="1.296875" style="font-style: oblique; font-size: 7px; font-family: 'DejaVu Sans'">t</tspan>
      </text>
     </g>
    </g>
   </g>
   <g id="line2d_25">
    <path d="M 52.10946 70.937457 
L 239.454915 70.937457 
L 239.454915 70.937457 
" clip-path="url(#pf87be1c5b9)" style="fill: none; stroke: #c0392b; stroke-width: 1.5; stroke-linecap: square"/>
   </g>
   <g id="patch_3">
    <path d="M 42.742188 163.24 
L 42.742188 7.2 
" style="fill: none; stroke: #000000; stroke-width: 0.8; stroke-linejoin: miter; stroke-linecap: square"/>
   </g>
   <g id="patch_4">
    <path d="M 248.822188 163.24 
L 248.822188 7.2 
" style="fill: none; stroke: #000000; stroke-width: 0.8; stroke-linejoin: miter; stroke-linecap: square"/>
   </g>
   <g id="patch_5">
    <path d="M 42.742188 163.24 
L 248.822187 163.24 
" style="fill: none; stroke: #000000; stroke-width: 0.8; stroke-linejoin: miter; stroke-linecap: square"/>
   </g>
   <g id="patch_6">
    <path d="M 42.742188 7.2 
L 248.822187 7.2 
" style="fill: none; stroke: #000000; stroke-width: 0.8; stroke-linejoin: miter; stroke-linecap: square"/>
   </g>
  </g>
 </g>
 <defs>
  <clipPath id="pf87be1c5b9">
   <rect x="42.742188" y="7.2" width="206.08" height="156.04"/>
  </clipPath>
 </defs>
</svg>
