<?xml version="1.0" encoding="utf-8" standalone="no"?>
<!DOCTYPE svg PUBLIC "-//W3C//DTD SVG 1.1//EN"
  "http://www.w3.org/Graphics/SVG/1.1/DTD/svg11.dtd">
<svg xmlns:xlink="http://www.w3.org/1999/xlink" width="256.022188pt" height="200.79625pt" viewBox="0 0 256.022188 200.79625" xmlns="http://www.w3.org/2000/svg" version="1.1">
 <metadata>
  <rdf:RDF xmlns:dc="http://purl.org/dc/elements/1.1/" xmlns:cc="http://creativecommons.org/ns#" xmlns:rdf="http://www.w3.org/1999/02/22-rdf-syntax-ns#">
   <cc:Work>
    <dc:type rdf:resource="http://purl.org/dc/dcmitype/StillImage"/>
    <dc:format>image/svg+xml</dc:format>
    <dc:creator>
     <cc:Agent>
      <dc:title>Matplotlib v3.10.9, https://matplotlib.org/</dc:title>
     </cc:Agent>
    </dc:creator>
   </cc:Work>
  </rdf:RDF>
 </metadata>
 <defs>
  <style type="text/css">*{stroke-linejoin: round; stroke-linecap: butt}</style>
 </defs>
 <g id="figure_1">
  <g id="patch_1">
   <path d="M 0 200.79625 
L 256.022188 200.79625 
L 256.022188 0 
L 0 0 
z
" style="fill: #ffffff"/>
  </g>
  <g id="axes_1">
   <g id="patch_2">
    <path d="M 42.742188 163.24 
L 248.822188 163.24 
L 248.822188 7.2 
L 42.742188 7.2 
z
" style="fill: #ffffff"/>
   </g>
   <g id="FillBetweenPolyCollection_1">
    <defs>
     <path id="m042c891178" d="M 52.10946 -125.353545 
L 52.10946 -125.353545 
L 52.494153 -125.353545 
L 52.878846 -125.353545 
L 53.263539 -125.353545 
L 53.648232 -125.353545 
L 54.032925 -125.353545 
L 54.417618 -125.353545 
L 54.802311 -125.353545 
L 55.187004 -125.353545 
L 55.571697 -125.353545 
L 55.956389 -125.353545 
L 56.341082 -125.353545 
L 56.725775 -125.353545 
L 57.110468 -125.353545 
L 57.495161 -125.353545 
L 57.879854 -125.353545 
L 58.264547 -125.353545 
L 58.64924 -125.353545 
L 59.033933 -125.353545 
L 59.418626 -125.353545 
L 59.803319 -125.353545 
L 60.188012 -125.353545 
L 60.572705 -125.353545 
L 60.957398 -125.353545 
L 61.34209 -125.353545 
L 61.726783 -125.353545 
L 62.111476 -125.353545 
L 62.496169 -125.353545 
L 62.880862 -125.353545 
L 63.265555 -125.353545 
L 63.650248 -125.353545 
L 64.034941 -125.353545 
L 64.419634 -125.353545 
L 64.804327 -125.353545 
L 65.18902 -125.353545 
L 65.573713 -125.353545 
L 65.958406 -125.353545 
L 66.343098 -125.353545 
L 66.727791 -125.353545 
L 67.112484 -125.353545 
L 67.497177 -125.353545 
L 67.88187 -125.353545 
L 68.266563 -125.353545 
L 68.651256 -125.353545 
L 69.035949 -125.353545 
L 69.420642 -125.353545 
L 69.805335 -125.353545 
L 70.190028 -125.353545 
L 70.574721 -125.353545 
L 70.959414 -125.353545 
L 71.344106 -125.353545 
L 71.728799 -125.353545 
L 72.113492 -125.353545 
L 72.498185 -124.903289 
L 72.882878 -125.353545 
L 73.267571 -125.353545 
L 73.652264 -125.353545 
L 74.036957 -125.353545 
L 74.42165 -125.353545 
L 74.806343 -125.353545 
L 75.191036 -125.353545 
L 75.575729 -125.353545 
L 75.960422 -124.743283 
L 76.345115 -125.353545 
L 76.729807 -125.353545 
L 77.1145 -125.312092 
L 77.499193 -125.353545 
L 77.883886 -124.926269 
L 78.268579 -125.353545 
L 78.653272 -123.68483 
L 79.037965 -124.709817 
L 79.422658 -125.205142 
L 79.807351 -123.45626 
L 80.192044 -125.353545 
L 80.576737 -122.411402 
L 80.96143 -125.328508 
L 81.346123 -125.353545 
L 81.730815 -123.38493 
L 82.115508 -123.724435 
L 82.500201 -123.898051 
L 82.884894 -122.614405 
L 83.269587 -122.837041 
L 83.65428 -124.41292 
L 84.038973 -125.002962 
L 84.423666 -124.774696 
L 84.808359 -122.463488 
L 85.193052 -120.959905 
L 85.577745 -120.909015 
L 85.962438 -123.158831 
L 86.347131 -124.441391 
L 86.731823 -122.196647 
L 87.116516 -124.010189 
L 87.501209 -123.966619 
L 87.885902 -125.10913 
L 88.270595 -122.109803 
L 88.655288 -123.914366 
L 89.039981 -122.644613 
L 89.424674 -123.428608 
L 89.809367 -120.96795 
L 90.19406 -122.53101 
L 90.578753 -122.441482 
L 90.963446 -122.132278 
L 91.348139 -123.083616 
L 91.732832 -121.346057 
L 92.117524 -121.5421 
L 92.502217 -124.833161 
L 92.88691 -120.697366 
L 93.271603 -120.077538 
L 93.656296 -120.960232 
L 94.040989 -122.682474 
L 94.425682 -121.707091 
L 94.810375 -122.589854 
L 95.195068 -122.090831 
L 95.579761 -123.189121 
L 95.964454 -122.656618 
L 96.349147 -121.601092 
L 96.73384 -121.990181 
L 97.118532 -120.462412 
L 97.503225 -122.516851 
L 97.887918 -123.085449 
L 98.272611 -120.456854 
L 98.657304 -122.911505 
L 99.041997 -120.332274 
L 99.42669 -120.001386 
L 99.811383 -121.915544 
L 100.196076 -121.475445 
L 100.580769 -121.00178 
L 100.965462 -122.335592 
L 101.350155 -121.683846 
L 101.734848 -119.264189 
L 102.11954 -124.482981 
L 102.504233 -118.839149 
L 102.888926 -118.768266 
L 103.273619 -119.385875 
L 103.658312 -118.825778 
L 104.043005 -121.661979 
L 104.427698 -121.229478 
L 104.812391 -121.103656 
L 105.197084 -119.595377 
L 105.581777 -120.508254 
L 105.96647 -121.764405 
L 106.351163 -122.792816 
L 106.735856 -120.498367 
L 107.120549 -119.33939 
L 107.505241 -121.38953 
L 107.889934 -125.353545 
L 108.274627 -118.893501 
L 108.65932 -121.857696 
L 109.044013 -120.133813 
L 109.428706 -120.230217 
L 109.813399 -122.427294 
L 110.198092 -120.577812 
L 110.582785 -120.204411 
L 110.967478 -119.588022 
L 111.352171 -117.128476 
L 111.736864 -118.075152 
L 112.121557 -116.850844 
L 112.506249 -120.896609 
L 112.890942 -122.507383 
L 113.275635 -117.929502 
L 113.660328 -119.673958 
L 114.045021 -120.122378 
L 114.429714 -121.155354 
L 114.814407 -120.984246 
L 115.1991 -120.235062 
L 115.583793 -119.448631 
L 115.968486 -121.614431 
L 116.353179 -120.030903 
L 116.737872 -121.130587 
L 117.122565 -119.750327 
L 117.507258 -119.998181 
L 117.89195 -120.25761 
L 118.276643 -118.357339 
L 118.661336 -119.389197 
L 119.046029 -119.056322 
L 119.430722 -120.731874 
L 119.815415 -119.508253 
L 120.200108 -122.331866 
L 120.584801 -119.677858 
L 120.969494 -119.148417 
L 121.354187 -118.988619 
L 121.73888 -120.158617 
L 122.123573 -122.453438 
L 122.508266 -121.604415 
L 122.892958 -119.976436 
L 123.277651 -119.031696 
L 123.662344 -119.842358 
L 124.047037 -116.892015 
L 124.43173 -119.895313 
L 124.816423 -119.836282 
L 125.201116 -118.264564 
L 125.585809 -117.846066 
L 125.970502 -117.030897 
L 126.355195 -120.030041 
L 126.739888 -116.987283 
L 127.124581 -121.13408 
L 127.509274 -120.329502 
L 127.893966 -119.867057 
L 128.278659 -118.773567 
L 128.663352 -120.133931 
L 129.048045 -118.211799 
L 129.432738 -120.578473 
L 129.817431 -119.195911 
L 130.202124 -120.669947 
L 130.586817 -120.835036 
L 130.97151 -117.550101 
L 131.356203 -118.235911 
L 131.740896 -120.776902 
L 132.125589 -117.40795 
L 132.510282 -118.37016 
L 132.894975 -117.305275 
L 133.279667 -118.146376 
L 133.66436 -117.682636 
L 134.049053 -119.135126 
L 134.433746 -119.007162 
L 134.818439 -118.620701 
L 135.203132 -120.155041 
L 135.587825 -119.04162 
L 135.972518 -119.965502 
L 136.357211 -117.879303 
L 136.741904 -118.400298 
L 137.126597 -118.073333 
L 137.51129 -119.66947 
L 137.895983 -121.448852 
L 138.280675 -119.638561 
L 138.665368 -117.818924 
L 139.050061 -116.629007 
L 139.434754 -117.363612 
L 139.819447 -116.959371 
L 140.20414 -115.774751 
L 140.588833 -118.054448 
L 140.973526 -116.747774 
L 141.358219 -119.253123 
L 141.742912 -117.721831 
L 142.127605 -118.33637 
L 142.512298 -117.216728 
L 142.896991 -116.504191 
L 143.281683 -117.738936 
L 143.666376 -117.58086 
L 144.051069 -120.751519 
L 144.435762 -116.650766 
L 144.820455 -118.96916 
L 145.205148 -119.874361 
L 145.589841 -118.595827 
L 145.974534 -116.814726 
L 146.359227 -119.178759 
L 146.74392 -116.143132 
L 147.128613 -118.36395 
L 147.513306 -119.99578 
L 147.897999 -117.708466 
L 148.282692 -119.436742 
L 148.667384 -119.408944 
L 149.052077 -118.624871 
L 149.43677 -117.550443 
L 149.821463 -117.993808 
L 150.206156 -119.906218 
L 150.590849 -118.107395 
L 150.975542 -117.750208 
L 151.360235 -118.019027 
L 151.744928 -116.234753 
L 152.129621 -117.101421 
L 152.514314 -116.299093 
L 152.899007 -116.847473 
L 153.2837 -119.414205 
L 153.668392 -120.73844 
L 154.053085 -120.528764 
L 154.437778 -118.693603 
L 154.822471 -118.088363 
L 155.207164 -119.979905 
L 155.591857 -118.830827 
L 155.97655 -118.510456 
L 156.361243 -116.815188 
L 156.745936 -118.625637 
L 157.130629 -120.533284 
L 157.515322 -116.961671 
L 157.900015 -118.97121 
L 158.284708 -118.733291 
L 158.6694 -118.610989 
L 159.054093 -119.058463 
L 159.438786 -118.626818 
L 159.823479 -118.992695 
L 160.208172 -118.045022 
L 160.592865 -120.600507 
L 160.977558 -118.045584 
L 161.362251 -119.291466 
L 161.746944 -119.20655 
L 162.131637 -118.691322 
L 162.51633 -119.096982 
L 162.901023 -117.997614 
L 163.285716 -118.455395 
L 163.670409 -119.789828 
L 164.055101 -118.426621 
L 164.439794 -119.694987 
L 164.824487 -119.411761 
L 165.20918 -117.447167 
L 165.593873 -120.105359 
L 165.978566 -121.988941 
L 166.363259 -118.674125 
L 166.747952 -120.10548 
L 167.132645 -120.116256 
L 167.517338 -118.149852 
L 167.902031 -118.163612 
L 168.286724 -117.178307 
L 168.671417 -116.445886 
L 169.056109 -119.252216 
L 169.440802 -119.338295 
L 169.825495 -118.274883 
L 170.210188 -119.169206 
L 170.594881 -118.272977 
L 170.979574 -119.058642 
L 171.364267 -120.031106 
L 171.74896 -119.368215 
L 172.133653 -121.353731 
L 172.518346 -119.015169 
L 172.903039 -119.213439 
L 173.287732 -118.590813 
L 173.672425 -118.808747 
L 174.057117 -122.883768 
L 174.44181 -119.786009 
L 174.826503 -119.382811 
L 175.211196 -119.541076 
L 175.595889 -120.246129 
L 175.980582 -121.395515 
L 176.365275 -119.473795 
L 176.749968 -117.620243 
L 177.134661 -121.378117 
L 177.519354 -121.418035 
L 177.904047 -120.780549 
L 178.28874 -120.082394 
L 178.673433 -122.507375 
L 179.058126 -119.313796 
L 179.442818 -119.124597 
L 179.827511 -120.984169 
L 180.212204 -123.467612 
L 180.596897 -120.451129 
L 180.98159 -119.299428 
L 181.366283 -120.295576 
L 181.750976 -120.378806 
L 182.135669 -119.338771 
L 182.520362 -120.646902 
L 182.905055 -124.398207 
L 183.289748 -119.655004 
L 183.674441 -120.228682 
L 184.059134 -120.40888 
L 184.443826 -121.347682 
L 184.828519 -119.758342 
L 185.213212 -119.916114 
L 185.597905 -120.045484 
L 185.982598 -120.235909 
L 186.367291 -120.704612 
L 186.751984 -121.667272 
L 187.136677 -121.590242 
L 187.52137 -120.947587 
L 187.906063 -122.040641 
L 188.290756 -121.864921 
L 188.675449 -123.550989 
L 189.060142 -122.090487 
L 189.444835 -121.693346 
L 189.829527 -121.243204 
L 190.21422 -122.662371 
L 190.598913 -120.189431 
L 190.983606 -122.108677 
L 191.368299 -125.353545 
L 191.752992 -125.033192 
L 192.137685 -123.014236 
L 192.522378 -122.169487 
L 192.907071 -122.73741 
L 193.291764 -122.209799 
L 193.676457 -122.490625 
L 194.06115 -124.733181 
L 194.445843 -124.938019 
L 194.830535 -121.218198 
L 195.215228 -122.964167 
L 195.599921 -123.465501 
L 195.984614 -122.372492 
L 196.369307 -125.353545 
L 196.754 -123.268117 
L 197.138693 -122.950208 
L 197.523386 -125.353545 
L 197.908079 -123.104838 
L 198.292772 -125.353545 
L 198.677465 -124.093457 
L 199.062158 -125.353545 
L 199.446851 -124.379554 
L 199.831543 -123.495011 
L 200.216236 -125.353545 
L 200.600929 -125.353545 
L 200.985622 -125.353545 
L 201.370315 -125.353545 
L 201.755008 -125.353545 
L 202.139701 -124.953288 
L 202.524394 -125.353545 
L 202.909087 -125.353545 
L 203.29378 -125.353545 
L 203.678473 -125.353545 
L 204.063166 -125.353545 
L 204.447859 -125.353545 
L 204.832552 -123.963391 
L 205.217244 -125.152216 
L 205.601937 -125.353545 
L 205.98663 -125.353545 
L 206.371323 -125.353545 
L 206.756016 -125.353545 
L 207.140709 -125.353545 
L 207.525402 -125.353545 
L 207.910095 -125.353545 
L 208.294788 -125.353545 
L 208.679481 -125.353545 
L 209.064174 -125.353545 
L 209.448867 -125.353545 
L 209.83356 -125.353545 
L 210.218252 -125.353545 
L 210.602945 -125.353545 
L 210.987638 -125.353545 
L 211.372331 -125.353545 
L 211.757024 -125.353545 
L 212.141717 -125.353545 
L 212.52641 -125.353545 
L 212.911103 -125.353545 
L 213.295796 -125.353545 
L 213.680489 -125.353545 
L 214.065182 -125.353545 
L 214.449875 -125.353545 
L 214.834568 -125.353545 
L 215.21926 -125.353545 
L 215.603953 -125.353545 
L 215.988646 -125.353545 
L 216.373339 -125.353545 
L 216.758032 -125.353545 
L 217.142725 -125.353545 
L 217.527418 -125.353545 
L 217.912111 -125.353545 
L 218.296804 -125.353545 
L 218.681497 -125.353545 
L 219.06619 -125.353545 
L 219.450883 -125.353545 
L 219.835576 -125.353545 
L 220.220269 -125.353545 
L 220.604961 -125.353545 
L 220.989654 -125.353545 
L 221.374347 -125.353545 
L 221.75904 -125.353545 
L 222.143733 -125.353545 
L 222.528426 -125.353545 
L 222.913119 -125.353545 
L 223.297812 -125.353545 
L 223.682505 -125.353545 
L 224.067198 -125.353545 
L 224.451891 -125.353545 
L 224.836584 -125.353545 
L 225.221277 -125.353545 
L 225.605969 -125.353545 
L 225.990662 -125.353545 
L 226.375355 -125.353545 
L 226.760048 -125.353545 
L 227.144741 -125.353545 
L 227.529434 -125.353545 
L 227.914127 -125.353545 
L 228.29882 -125.353545 
L 228.683513 -125.353545 
L 229.068206 -125.353545 
L 229.452899 -125.353545 
L 229.837592 -125.353545 
L 230.222285 -125.353545 
L 230.606977 -125.353545 
L 230.99167 -125.353545 
L 231.376363 -125.353545 
L 231.761056 -125.353545 
L 232.145749 -125.353545 
L 232.530442 -125.353545 
L 232.915135 -125.353545 
L 233.299828 -125.353545 
L 233.684521 -125.353545 
L 234.069214 -125.353545 
L 234.453907 -125.353545 
L 234.8386 -125.353545 
L 235.223293 -125.353545 
L 235.607986 -125.353545 
L 235.992678 -125.353545 
L 236.377371 -125.353545 
L 236.762064 -125.353545 
L 237.146757 -125.353545 
L 237.53145 -125.353545 
L 237.916143 -125.353545 
L 238.300836 -125.353545 
L 238.685529 -125.353545 
L 239.070222 -125.353545 
L 239.454915 -125.353545 
L 239.454915 -125.353545 
L 239.454915 -125.353545 
L 239.070222 -125.353545 
L 238.685529 -125.353545 
L 238.300836 -125.353545 
L 237.916143 -125.353545 
L 237.53145 -125.353545 
L 237.146757 -125.353545 
L 236.762064 -125.353545 
L 236.377371 -125.353545 
L 235.992678 -125.353545 
L 235.607986 -125.353545 
L 235.223293 -125.353545 
L 234.8386 -125.353545 
L 234.453907 -125.353545 
L 234.069214 -125.353545 
L 233.684521 -125.353545 
L 233.299828 -125.353545 
L 232.915135 -125.353545 
L 232.530442 -125.353545 
L 232.145749 -125.353545 
L 231.761056 -125.353545 
L 231.376363 -125.353545 
L 230.99167 -125.353545 
L 230.606977 -125.353545 
L 230.222285 -125.353545 
L 229.837592 -125.353545 
L 229.452899 -125.353545 
L 229.068206 -125.353545 
L 228.683513 -125.353545 
L 228.29882 -125.353545 
L 227.914127 -125.353545 
L 227.529434 -125.353545 
L 227.144741 -125.353545 
L 226.760048 -125.353545 
L 226.375355 -125.353545 
L 225.990662 -125.353545 
L 225.605969 -125.353545 
L 225.221277 -125.353545 
L 224.836584 -125.353545 
L 224.451891 -125.353545 
L 224.067198 -125.353545 
L 223.682505 -125.353545 
L 223.297812 -125.353545 
L 222.913119 -125.353545 
L 222.528426 -125.353545 
L 222.143733 -125.353545 
L 221.75904 -125.353545 
L 221.374347 -125.353545 
L 220.989654 -125.353545 
L 220.604961 -125.353545 
L 220.220269 -125.353545 
L 219.835576 -125.353545 
L 219.450883 -125.353545 
L 219.06619 -125.353545 
L 218.681497 -125.353545 
L 218.296804 -125.353545 
L 217.912111 -125.353545 
L 217.527418 -125.353545 
L 217.142725 -125.353545 
L 216.758032 -125.353545 
L 216.373339 -125.353545 
L 215.988646 -125.353545 
L 215.603953 -125.353545 
L 215.21926 -125.353545 
L 214.834568 -125.353545 
L 214.449875 -125.353545 
L 214.065182 -125.353545 
L 213.680489 -125.353545 
L 213.295796 -125.353545 
L 212.911103 -125.353545 
L 212.52641 -125.353545 
L 212.141717 -125.353545 
L 211.757024 -125.353545 
L 211.372331 -125.353545 
L 210.987638 -125.353545 
L 210.602945 -125.353545 
L 210.218252 -125.353545 
L 209.83356 -125.353545 
L 209.448867 -125.353545 
L 209.064174 -125.353545 
L 208.679481 -125.353545 
L 208.294788 -125.353545 
L 207.910095 -125.353545 
L 207.525402 -125.353545 
L 207.140709 -125.353545 
L 206.756016 -125.353545 
L 206.371323 -125.353545 
L 205.98663 -125.353545 
L 205.601937 -125.353545 
L 205.217244 -125.353545 
L 204.832552 -125.353545 
L 204.447859 -125.353545 
L 204.063166 -125.353545 
L 203.678473 -125.353545 
L 203.29378 -125.353545 
L 202.909087 -125.353545 
L 202.524394 -125.353545 
L 202.139701 -125.353545 
L 201.755008 -125.353545 
L 201.370315 -125.353545 
L 200.985622 -125.353545 
L 200.600929 -125.353545 
L 200.216236 -125.353545 
L 199.831543 -125.353545 
L 199.446851 -125.353545 
L 199.062158 -125.353545 
L 198.677465 -125.353545 
L 198.292772 -125.353545 
L 197.908079 -125.353545 
L 197.523386 -125.353545 
L 197.138693 -125.353545 
L 196.754 -125.353545 
L 196.369307 -125.353545 
L 195.984614 -125.353545 
L 195.599921 -125.353545 
L 195.215228 -125.353545 
L 194.830535 -125.353545 
L 194.445843 -125.353545 
L 194.06115 -125.353545 
L 193.676457 -125.353545 
L 193.291764 -125.353545 
L 192.907071 -125.353545 
L 192.522378 -125.353545 
L 192.137685 -125.353545 
L 191.752992 -125.353545 
L 191.368299 -125.353545 
L 190.983606 -125.353545 
L 190.598913 -125.353545 
L 190.21422 -125.353545 
L 189.829527 -125.353545 
L 189.444835 -125.353545 
L 189.060142 -125.353545 
L 188.675449 -125.353545 
L 188.290756 -125.353545 
L 187.906063 -125.66966 
L 187.52137 -125.353545 
L 187.136677 -125.353545 
L 186.751984 -125.353545 
L 186.367291 -125.412597 
L 185.982598 -125.353545 
L 185.597905 -125.353545 
L 185.213212 -125.353545 
L 184.828519 -125.353545 
L 184.443826 -125.353545 
L 184.059134 -125.353545 
L 183.674441 -125.353545 
L 183.289748 -125.353545 
L 182.905055 -125.353545 
L 182.520362 -125.353545 
L 182.135669 -125.353545 
L 181.750976 -125.353545 
L 181.366283 -125.353545 
L 180.98159 -125.465574 
L 180.596897 -125.353545 
L 180.212204 -125.353545 
L 179.827511 -125.353545 
L 179.442818 -125.353545 
L 179.058126 -125.353545 
L 178.673433 -125.353545 
L 178.28874 -125.61583 
L 177.904047 -125.353545 
L 177.519354 -125.354222 
L 177.134661 -125.353545 
L 176.749968 -125.353545 
L 176.365275 -125.353545 
L 175.980582 -126.450806 
L 175.595889 -125.38206 
L 175.211196 -125.353545 
L 174.826503 -125.353545 
L 174.44181 -125.353545 
L 174.057117 -125.353545 
L 173.672425 -125.353545 
L 173.287732 -125.353545 
L 172.903039 -125.353545 
L 172.518346 -125.353545 
L 172.133653 -127.681817 
L 171.74896 -125.353545 
L 171.364267 -125.353545 
L 170.979574 -125.353545 
L 170.594881 -125.353545 
L 170.210188 -125.353545 
L 169.825495 -125.799712 
L 169.440802 -125.353545 
L 169.056109 -125.353545 
L 168.671417 -125.413835 
L 168.286724 -125.501133 
L 167.902031 -125.353545 
L 167.517338 -125.353545 
L 167.132645 -125.679236 
L 166.747952 -125.353545 
L 166.363259 -129.035425 
L 165.978566 -125.353545 
L 165.593873 -125.95746 
L 165.20918 -125.353545 
L 164.824487 -125.353545 
L 164.439794 -126.079469 
L 164.055101 -125.826945 
L 163.670409 -127.649607 
L 163.285716 -125.353545 
L 162.901023 -125.353545 
L 162.51633 -125.629766 
L 162.131637 -125.353545 
L 161.746944 -125.353545 
L 161.362251 -125.353545 
L 160.977558 -125.353545 
L 160.592865 -127.467069 
L 160.208172 -125.353545 
L 159.823479 -125.354356 
L 159.438786 -125.7719 
L 159.054093 -125.353545 
L 158.6694 -125.353545 
L 158.284708 -125.878907 
L 157.900015 -125.466557 
L 157.515322 -127.272252 
L 157.130629 -126.933251 
L 156.745936 -125.353545 
L 156.361243 -125.490556 
L 155.97655 -126.486994 
L 155.591857 -127.47874 
L 155.207164 -127.235402 
L 154.822471 -125.702794 
L 154.437778 -125.482317 
L 154.053085 -125.506 
L 153.668392 -126.714589 
L 153.2837 -127.920396 
L 152.899007 -125.353545 
L 152.514314 -126.232908 
L 152.129621 -125.875438 
L 151.744928 -129.585792 
L 151.360235 -127.743152 
L 150.975542 -125.353545 
L 150.590849 -126.32497 
L 150.206156 -126.29091 
L 149.821463 -125.490004 
L 149.43677 -125.849064 
L 149.052077 -125.780256 
L 148.667384 -125.745526 
L 148.282692 -127.163799 
L 147.897999 -126.491946 
L 147.513306 -125.353545 
L 147.128613 -126.11889 
L 146.74392 -127.253761 
L 146.359227 -127.158608 
L 145.974534 -125.876279 
L 145.589841 -126.541108 
L 145.205148 -125.353545 
L 144.820455 -127.259222 
L 144.435762 -125.417668 
L 144.051069 -126.720851 
L 143.666376 -125.995539 
L 143.281683 -127.794108 
L 142.896991 -128.34549 
L 142.512298 -129.680131 
L 142.127605 -125.858822 
L 141.742912 -126.518094 
L 141.358219 -126.620306 
L 140.973526 -127.093915 
L 140.588833 -125.353545 
L 140.20414 -129.35292 
L 139.819447 -127.161389 
L 139.434754 -126.168868 
L 139.050061 -127.404569 
L 138.665368 -125.670414 
L 138.280675 -127.945277 
L 137.895983 -127.31406 
L 137.51129 -127.338951 
L 137.126597 -125.353545 
L 136.741904 -127.480395 
L 136.357211 -125.488173 
L 135.972518 -127.33323 
L 135.587825 -125.353545 
L 135.203132 -125.353545 
L 134.818439 -128.234137 
L 134.433746 -126.992321 
L 134.049053 -129.244263 
L 133.66436 -127.666063 
L 133.279667 -125.740113 
L 132.894975 -126.543259 
L 132.510282 -126.872356 
L 132.125589 -126.277093 
L 131.740896 -127.923134 
L 131.356203 -125.753382 
L 130.97151 -125.353545 
L 130.586817 -127.168369 
L 130.202124 -126.885275 
L 129.817431 -127.266284 
L 129.432738 -125.353545 
L 129.048045 -126.763218 
L 128.663352 -126.367641 
L 128.278659 -125.353545 
L 127.893966 -127.793618 
L 127.509274 -126.640089 
L 127.124581 -127.113566 
L 126.739888 -126.131917 
L 126.355195 -127.903664 
L 125.970502 -127.771142 
L 125.585809 -128.199849 
L 125.201116 -126.970318 
L 124.816423 -126.347682 
L 124.43173 -129.343176 
L 124.047037 -126.488716 
L 123.662344 -126.322384 
L 123.277651 -127.121706 
L 122.892958 -125.907688 
L 122.508266 -126.786806 
L 122.123573 -128.920955 
L 121.73888 -126.273895 
L 121.354187 -125.989601 
L 120.969494 -126.699361 
L 120.584801 -126.968408 
L 120.200108 -128.339314 
L 119.815415 -126.685015 
L 119.430722 -127.563731 
L 119.046029 -126.21192 
L 118.661336 -126.582959 
L 118.276643 -126.618465 
L 117.89195 -129.307914 
L 117.507258 -127.846704 
L 117.122565 -127.395541 
L 116.737872 -125.673587 
L 116.353179 -129.107601 
L 115.968486 -126.554963 
L 115.583793 -127.51441 
L 115.1991 -127.723044 
L 114.814407 -127.443571 
L 114.429714 -125.77405 
L 114.045021 -126.554096 
L 113.660328 -127.444349 
L 113.275635 -127.895039 
L 112.890942 -126.438638 
L 112.506249 -127.02212 
L 112.121557 -127.166912 
L 111.736864 -127.122468 
L 111.352171 -128.107503 
L 110.967478 -127.220439 
L 110.582785 -127.851143 
L 110.198092 -126.496213 
L 109.813399 -127.060651 
L 109.428706 -128.413452 
L 109.044013 -127.354541 
L 108.65932 -127.919375 
L 108.274627 -126.38139 
L 107.889934 -129.400833 
L 107.505241 -127.835087 
L 107.120549 -126.39663 
L 106.735856 -127.435219 
L 106.351163 -127.668555 
L 105.96647 -126.730534 
L 105.581777 -126.771829 
L 105.197084 -127.684706 
L 104.812391 -128.381005 
L 104.427698 -126.109643 
L 104.043005 -127.795963 
L 103.658312 -127.889376 
L 103.273619 -126.715453 
L 102.888926 -128.370745 
L 102.504233 -127.173246 
L 102.11954 -128.102356 
L 101.734848 -125.890323 
L 101.350155 -126.12808 
L 100.965462 -126.760751 
L 100.580769 -128.08456 
L 100.196076 -127.540219 
L 99.811383 -125.834189 
L 99.42669 -127.593029 
L 99.041997 -127.646488 
L 98.657304 -127.042895 
L 98.272611 -127.357028 
L 97.887918 -127.129625 
L 97.503225 -126.528726 
L 97.118532 -127.835622 
L 96.73384 -126.893702 
L 96.349147 -127.267429 
L 95.964454 -125.942561 
L 95.579761 -126.446192 
L 95.195068 -126.261142 
L 94.810375 -127.384468 
L 94.425682 -128.48902 
L 94.040989 -128.111505 
L 93.656296 -128.216755 
L 93.271603 -126.468887 
L 92.88691 -127.747045 
L 92.502217 -125.86852 
L 92.117524 -125.874753 
L 91.732832 -126.212044 
L 91.348139 -126.820767 
L 90.963446 -129.204262 
L 90.578753 -126.9134 
L 90.19406 -125.982322 
L 89.809367 -126.132055 
L 89.424674 -125.353545 
L 89.039981 -125.546082 
L 88.655288 -126.215866 
L 88.270595 -125.353545 
L 87.885902 -126.920538 
L 87.501209 -125.353545 
L 87.116516 -125.353545 
L 86.731823 -125.353545 
L 86.347131 -126.821376 
L 85.962438 -125.443271 
L 85.577745 -125.353545 
L 85.193052 -125.353545 
L 84.808359 -125.353545 
L 84.423666 -125.353545 
L 84.038973 -125.353545 
L 83.65428 -125.353545 
L 83.269587 -125.353545 
L 82.884894 -125.712618 
L 82.500201 -125.880976 
L 82.115508 -125.353545 
L 81.730815 -125.353545 
L 81.346123 -125.353545 
L 80.96143 -125.353545 
L 80.576737 -125.353545 
L 80.192044 -125.353545 
L 79.807351 -125.353545 
L 79.422658 -125.353545 
L 79.037965 -125.353545 
L 78.653272 -125.353545 
L 78.268579 -125.353545 
L 77.883886 -125.353545 
L 77.499193 -125.353545 
L 77.1145 -125.353545 
L 76.729807 -125.353545 
L 76.345115 -125.353545 
L 75.960422 -125.353545 
L 75.575729 -125.353545 
L 75.191036 -125.353545 
L 74.806343 -125.353545 
L 74.42165 -125.353545 
L 74.036957 -125.353545 
L 73.652264 -125.353545 
L 73.267571 -125.353545 
L 72.882878 -125.353545 
L 72.498185 -125.353545 
L 72.113492 -125.353545 
L 71.728799 -125.353545 
L 71.344106 -125.353545 
L 70.959414 -125.353545 
L 70.574721 -125.353545 
L 70.190028 -125.353545 
L 69.805335 -125.353545 
L 69.420642 -125.353545 
L 69.035949 -125.353545 
L 68.651256 -125.353545 
L 68.266563 -125.353545 
L 67.88187 -125.353545 
L 67.497177 -125.353545 
L 67.112484 -125.353545 
L 66.727791 -125.353545 
L 66.343098 -125.353545 
L 65.958406 -125.353545 
L 65.573713 -125.353545 
L 65.18902 -125.353545 
L 64.804327 -125.353545 
L 64.419634 -125.353545 
L 64.034941 -125.353545 
L 63.650248 -125.353545 
L 63.265555 -125.353545 
L 62.880862 -125.353545 
L 62.496169 -125.353545 
L 62.111476 -125.353545 
L 61.726783 -125.353545 
L 61.34209 -125.353545 
L 60.957398 -125.353545 
L 60.572705 -125.353545 
L 60.188012 -125.353545 
L 59.803319 -125.353545 
L 59.418626 -125.353545 
L 59.033933 -125.353545 
L 58.64924 -125.353545 
L 58.264547 -125.353545 
L 57.879854 -125.353545 
L 57.495161 -125.353545 
L 57.110468 -125.353545 
L 56.725775 -125.353545 
L 56.341082 -125.353545 
L 55.956389 -125.353545 
L 55.571697 -125.353545 
L 55.187004 -125.353545 
L 54.802311 -125.353545 
L 54.417618 -125.353545 
L 54.032925 -125.353545 
L 53.648232 -125.353545 
L 53.263539 -125.353545 
L 52.878846 -125.353545 
L 52.494153 -125.353545 
L 52.10946 -125.353545 
z
"/>
    </defs>
    <g clip-path="url(#pa15525bd17)">
     <use xlink:href="#m042c891178" x="0" y="200.79625" style="fill: #c0392b; fill-opacity: 0.25"/>
    </g>
   </g>
   <g id="FillBetweenPolyCollection_2">
    <defs>
     <path id="mfd0ffbc5ad" d="M 52.10946 -150.255003 
L 52.10946 -92.597926 
L 52.494153 -79.898857 
L 52.878846 -76.928925 
L 53.263539 -80.940273 
L 53.648232 -71.573089 
L 54.032925 -71.208351 
L 54.417618 -67.602617 
L 54.802311 -64.355077 
L 55.187004 -65.821947 
L 55.571697 -67.677074 
L 55.956389 -68.263843 
L 56.341082 -68.340155 
L 56.725775 -70.806193 
L 57.110468 -70.068919 
L 57.495161 -66.138797 
L 57.879854 -62.092481 
L 58.264547 -68.100948 
L 58.64924 -68.515429 
L 59.033933 -70.456582 
L 59.418626 -83.263422 
L 59.803319 -67.806944 
L 60.188012 -71.502693 
L 60.572705 -70.613066 
L 60.957398 -66.857041 
L 61.34209 -74.665294 
L 61.726783 -65.260128 
L 62.111476 -77.943725 
L 62.496169 -69.253768 
L 62.880862 -73.887732 
L 63.265555 -70.355975 
L 63.650248 -68.804916 
L 64.034941 -71.344229 
L 64.419634 -66.354314 
L 64.804327 -69.145832 
L 65.18902 -79.137447 
L 65.573713 -71.476763 
L 65.958406 -73.723665 
L 66.343098 -70.705764 
L 66.727791 -70.758768 
L 67.112484 -74.882113 
L 67.497177 -70.590376 
L 67.88187 -70.006469 
L 68.266563 -68.237028 
L 68.651256 -78.750349 
L 69.035949 -73.536094 
L 69.420642 -69.975892 
L 69.805335 -76.027979 
L 70.190028 -72.354024 
L 70.574721 -73.838198 
L 70.959414 -73.115133 
L 71.344106 -67.386683 
L 71.728799 -72.626425 
L 72.113492 -74.623144 
L 72.498185 -73.546942 
L 72.882878 -58.565923 
L 73.267571 -76.376936 
L 73.652264 -75.909148 
L 74.036957 -72.043135 
L 74.42165 -68.793107 
L 74.806343 -72.278107 
L 75.191036 -72.371512 
L 75.575729 -67.589904 
L 75.960422 -80.639151 
L 76.345115 -74.729146 
L 76.729807 -68.106127 
L 77.1145 -78.081081 
L 77.499193 -73.01136 
L 77.883886 -70.098335 
L 78.268579 -67.587559 
L 78.653272 -76.974446 
L 79.037965 -71.685609 
L 79.422658 -64.075572 
L 79.807351 -70.215755 
L 80.192044 -70.901453 
L 80.576737 -75.663684 
L 80.96143 -73.527612 
L 81.346123 -61.295266 
L 81.730815 -68.116124 
L 82.115508 -68.177154 
L 82.500201 -57.876079 
L 82.884894 -72.283557 
L 83.269587 -71.267469 
L 83.65428 -69.18754 
L 84.038973 -67.161936 
L 84.423666 -62.379822 
L 84.808359 -67.745822 
L 85.193052 -68.222162 
L 85.577745 -71.160195 
L 85.962438 -70.272989 
L 86.347131 -58.995948 
L 86.731823 -69.369618 
L 87.116516 -65.956517 
L 87.501209 -65.7893 
L 87.885902 -61.967899 
L 88.270595 -67.221245 
L 88.655288 -66.524034 
L 89.039981 -60.018283 
L 89.424674 -59.82341 
L 89.809367 -68.688405 
L 90.19406 -61.838512 
L 90.578753 -55.304497 
L 90.963446 -59.00735 
L 91.348139 -65.517014 
L 91.732832 -58.74599 
L 92.117524 -60.53457 
L 92.502217 -60.87215 
L 92.88691 -60.063619 
L 93.271603 -60.367919 
L 93.656296 -63.515911 
L 94.040989 -64.517504 
L 94.425682 -63.958286 
L 94.810375 -56.847001 
L 95.195068 -57.667367 
L 95.579761 -58.970381 
L 95.964454 -70.230963 
L 96.349147 -51.843638 
L 96.73384 -50.216271 
L 97.118532 -52.795112 
L 97.503225 -61.704659 
L 97.887918 -52.931199 
L 98.272611 -63.927884 
L 98.657304 -55.516564 
L 99.041997 -59.979108 
L 99.42669 -57.490052 
L 99.811383 -62.564535 
L 100.196076 -62.316427 
L 100.580769 -54.487462 
L 100.965462 -59.758803 
L 101.350155 -55.04896 
L 101.734848 -69.687907 
L 102.11954 -55.127469 
L 102.504233 -67.524038 
L 102.888926 -59.880325 
L 103.273619 -61.137207 
L 103.658312 -63.662451 
L 104.043005 -65.252315 
L 104.427698 -58.05607 
L 104.812391 -62.496458 
L 105.197084 -67.573974 
L 105.581777 -66.269605 
L 105.96647 -54.03939 
L 106.351163 -51.810935 
L 106.735856 -54.527611 
L 107.120549 -69.10141 
L 107.505241 -58.260309 
L 107.889934 -44.648977 
L 108.274627 -67.933823 
L 108.65932 -54.921999 
L 109.044013 -63.791493 
L 109.428706 -68.291017 
L 109.813399 -61.284451 
L 110.198092 -73.067355 
L 110.582785 -62.377234 
L 110.967478 -67.008107 
L 111.352171 -75.893485 
L 111.736864 -74.901435 
L 112.121557 -70.093653 
L 112.506249 -68.082356 
L 112.890942 -62.512728 
L 113.275635 -73.631698 
L 113.660328 -71.193573 
L 114.045021 -69.844206 
L 114.429714 -77.311331 
L 114.814407 -67.698341 
L 115.1991 -67.809113 
L 115.583793 -68.375773 
L 115.968486 -66.269011 
L 116.353179 -62.839029 
L 116.737872 -69.699902 
L 117.122565 -62.21669 
L 117.507258 -62.536965 
L 117.89195 -64.636676 
L 118.276643 -68.103371 
L 118.661336 -74.642852 
L 119.046029 -75.658215 
L 119.430722 -55.496068 
L 119.815415 -78.194004 
L 120.200108 -57.505469 
L 120.584801 -65.335896 
L 120.969494 -75.743984 
L 121.354187 -61.908028 
L 121.73888 -73.41017 
L 122.123573 -64.882321 
L 122.508266 -76.124816 
L 122.892958 -76.33432 
L 123.277651 -58.84637 
L 123.662344 -84.56418 
L 124.047037 -75.813459 
L 124.43173 -63.76911 
L 124.816423 -77.508993 
L 125.201116 -80.485009 
L 125.585809 -81.853348 
L 125.970502 -67.672883 
L 126.355195 -72.2597 
L 126.739888 -83.999109 
L 127.124581 -77.95538 
L 127.509274 -71.286909 
L 127.893966 -72.359754 
L 128.278659 -86.366119 
L 128.663352 -73.612232 
L 129.048045 -79.273565 
L 129.432738 -79.927801 
L 129.817431 -71.751113 
L 130.202124 -68.183837 
L 130.586817 -60.762935 
L 130.97151 -84.097108 
L 131.356203 -78.718484 
L 131.740896 -68.457255 
L 132.125589 -84.486695 
L 132.510282 -81.286688 
L 132.894975 -73.436153 
L 133.279667 -83.875354 
L 133.66436 -76.437505 
L 134.049053 -68.116963 
L 134.433746 -80.781885 
L 134.818439 -75.714571 
L 135.203132 -73.144695 
L 135.587825 -78.349506 
L 135.972518 -71.936133 
L 136.357211 -81.195618 
L 136.741904 -80.549361 
L 137.126597 -81.403471 
L 137.51129 -77.683333 
L 137.895983 -71.798851 
L 138.280675 -75.033037 
L 138.665368 -88.293158 
L 139.050061 -81.202039 
L 139.434754 -79.768744 
L 139.819447 -80.09121 
L 140.20414 -66.933831 
L 140.588833 -92.288141 
L 140.973526 -74.085388 
L 141.358219 -82.713331 
L 141.742912 -86.858242 
L 142.127605 -79.953459 
L 142.512298 -73.488472 
L 142.896991 -80.589719 
L 143.281683 -75.603695 
L 143.666376 -79.197388 
L 144.051069 -77.930319 
L 144.435762 -88.339054 
L 144.820455 -85.555159 
L 145.205148 -90.042245 
L 145.589841 -66.17377 
L 145.974534 -85.941105 
L 146.359227 -86.306204 
L 146.74392 -82.730587 
L 147.128613 -85.417308 
L 147.513306 -86.399721 
L 147.897999 -87.964154 
L 148.282692 -75.891491 
L 148.667384 -80.651077 
L 149.052077 -81.90767 
L 149.43677 -87.289273 
L 149.821463 -83.548152 
L 150.206156 -86.507096 
L 150.590849 -83.475116 
L 150.975542 -88.895317 
L 151.360235 -82.305656 
L 151.744928 -66.810833 
L 152.129621 -92.328131 
L 152.514314 -82.095447 
L 152.899007 -91.079522 
L 153.2837 -79.868107 
L 153.668392 -83.87503 
L 154.053085 -82.921499 
L 154.437778 -84.375265 
L 154.822471 -90.642476 
L 155.207164 -76.381636 
L 155.591857 -77.820749 
L 155.97655 -80.467573 
L 156.361243 -87.025685 
L 156.745936 -87.692421 
L 157.130629 -87.727644 
L 157.515322 -84.459613 
L 157.900015 -90.079638 
L 158.284708 -85.152846 
L 158.6694 -91.717136 
L 159.054093 -91.837596 
L 159.438786 -90.56534 
L 159.823479 -83.609223 
L 160.208172 -97.789767 
L 160.592865 -70.450958 
L 160.977558 -89.254367 
L 161.362251 -85.231408 
L 161.746944 -92.866935 
L 162.131637 -91.719945 
L 162.51633 -92.380636 
L 162.901023 -96.094376 
L 163.285716 -90.213026 
L 163.670409 -82.123435 
L 164.055101 -87.461913 
L 164.439794 -79.935032 
L 164.824487 -92.195824 
L 165.20918 -92.173832 
L 165.593873 -61.786405 
L 165.978566 -84.466568 
L 166.363259 -84.885775 
L 166.747952 -92.107914 
L 167.132645 -87.594623 
L 167.517338 -85.732131 
L 167.902031 -89.725911 
L 168.286724 -94.875699 
L 168.671417 -91.379012 
L 169.056109 -91.237644 
L 169.440802 -86.819129 
L 169.825495 -84.676521 
L 170.210188 -90.161204 
L 170.594881 -95.156345 
L 170.979574 -84.365405 
L 171.364267 -90.667862 
L 171.74896 -88.493082 
L 172.133653 -77.432558 
L 172.518346 -92.692096 
L 172.903039 -93.055249 
L 173.287732 -96.196247 
L 173.672425 -88.228965 
L 174.057117 -73.964071 
L 174.44181 -88.788715 
L 174.826503 -95.5869 
L 175.211196 -90.892477 
L 175.595889 -85.069135 
L 175.980582 -72.052995 
L 176.365275 -91.223462 
L 176.749968 -90.513859 
L 177.134661 -87.544545 
L 177.519354 -90.38525 
L 177.904047 -92.395729 
L 178.28874 -78.258372 
L 178.673433 -86.535998 
L 179.058126 -89.00949 
L 179.442818 -86.526484 
L 179.827511 -91.431885 
L 180.212204 -92.573499 
L 180.596897 -77.545742 
L 180.98159 -88.675417 
L 181.366283 -91.100523 
L 181.750976 -92.609383 
L 182.135669 -96.70991 
L 182.520362 -92.01389 
L 182.905055 -78.747153 
L 183.289748 -91.671167 
L 183.674441 -86.931461 
L 184.059134 -86.792663 
L 184.443826 -89.564155 
L 184.828519 -84.850441 
L 185.213212 -87.820472 
L 185.597905 -94.255453 
L 185.982598 -78.754184 
L 186.367291 -81.31934 
L 186.751984 -95.102647 
L 187.136677 -93.51669 
L 187.52137 -79.997119 
L 187.906063 -84.726457 
L 188.290756 -90.382233 
L 188.675449 -80.797969 
L 189.060142 -83.505731 
L 189.444835 -80.526718 
L 189.829527 -90.061409 
L 190.21422 -86.442849 
L 190.598913 -97.96783 
L 190.983606 -96.292103 
L 191.368299 -81.394115 
L 191.752992 -84.162972 
L 192.137685 -92.566586 
L 192.522378 -94.320964 
L 192.907071 -85.871541 
L 193.291764 -93.610153 
L 193.676457 -85.758488 
L 194.06115 -88.886784 
L 194.445843 -75.740172 
L 194.830535 -94.499857 
L 195.215228 -92.305796 
L 195.599921 -94.399089 
L 195.984614 -93.873693 
L 196.369307 -86.932355 
L 196.754 -88.239302 
L 197.138693 -87.389975 
L 197.523386 -79.797369 
L 197.908079 -96.569279 
L 198.292772 -74.360065 
L 198.677465 -81.989644 
L 199.062158 -79.932496 
L 199.446851 -92.35226 
L 199.831543 -95.026864 
L 200.216236 -82.645135 
L 200.600929 -79.355208 
L 200.985622 -82.210337 
L 201.370315 -84.307246 
L 201.755008 -81.584466 
L 202.139701 -97.244206 
L 202.524394 -77.615824 
L 202.909087 -90.444186 
L 203.29378 -84.062326 
L 203.678473 -90.001132 
L 204.063166 -77.169216 
L 204.447859 -89.238253 
L 204.832552 -95.661053 
L 205.217244 -97.053097 
L 205.601937 -83.69154 
L 205.98663 -91.292873 
L 206.371323 -86.781331 
L 206.756016 -97.027872 
L 207.140709 -96.830582 
L 207.525402 -100.196983 
L 207.910095 -93.909074 
L 208.294788 -94.894239 
L 208.679481 -91.574365 
L 209.064174 -79.616071 
L 209.448867 -89.381663 
L 209.83356 -96.351451 
L 210.218252 -82.426488 
L 210.602945 -88.016458 
L 210.987638 -96.890914 
L 211.372331 -85.085847 
L 211.757024 -93.153721 
L 212.141717 -89.961199 
L 212.52641 -92.792889 
L 212.911103 -82.658864 
L 213.295796 -86.658256 
L 213.680489 -86.071497 
L 214.065182 -81.644906 
L 214.449875 -102.600945 
L 214.834568 -90.631272 
L 215.21926 -97.051493 
L 215.603953 -84.011757 
L 215.988646 -94.10783 
L 216.373339 -90.608364 
L 216.758032 -98.614569 
L 217.142725 -91.836038 
L 217.527418 -87.452123 
L 217.912111 -85.126119 
L 218.296804 -88.701784 
L 218.681497 -88.685215 
L 219.06619 -94.914159 
L 219.450883 -101.024778 
L 219.835576 -96.589837 
L 220.220269 -84.356743 
L 220.604961 -87.496622 
L 220.989654 -91.956227 
L 221.374347 -88.168243 
L 221.75904 -101.65783 
L 222.143733 -96.572383 
L 222.528426 -101.621312 
L 222.913119 -88.965777 
L 223.297812 -91.176946 
L 223.682505 -94.675336 
L 224.067198 -105.055007 
L 224.451891 -91.682959 
L 224.836584 -100.534958 
L 225.221277 -95.018401 
L 225.605969 -101.836145 
L 225.990662 -86.249928 
L 226.375355 -83.909304 
L 226.760048 -95.161407 
L 227.144741 -90.975391 
L 227.529434 -100.009442 
L 227.914127 -97.209152 
L 228.29882 -100.740983 
L 228.683513 -99.972377 
L 229.068206 -91.794295 
L 229.452899 -91.285092 
L 229.837592 -96.15808 
L 230.222285 -101.440349 
L 230.606977 -99.470275 
L 230.99167 -100.812657 
L 231.376363 -94.610832 
L 231.761056 -108.390145 
L 232.145749 -98.976735 
L 232.530442 -100.819059 
L 232.915135 -101.26654 
L 233.299828 -109.567913 
L 233.684521 -97.98784 
L 234.069214 -107.70172 
L 234.453907 -103.662979 
L 234.8386 -109.465643 
L 235.223293 -102.800615 
L 235.607986 -105.993632 
L 235.992678 -109.193062 
L 236.377371 -107.575514 
L 236.762064 -112.068633 
L 237.146757 -112.659556 
L 237.53145 -124.508964 
L 237.916143 -122.020612 
L 238.300836 -125.353545 
L 238.685529 -125.353545 
L 239.070222 -125.353545 
L 239.454915 -125.353545 
L 239.454915 -125.353545 
L 239.454915 -125.353545 
L 239.070222 -125.353545 
L 238.685529 -125.353545 
L 238.300836 -125.353545 
L 237.916143 -125.353545 
L 237.53145 -125.353545 
L 237.146757 -125.353545 
L 236.762064 -125.353545 
L 236.377371 -125.353545 
L 235.992678 -129.307254 
L 235.607986 -131.0271 
L 235.223293 -135.455658 
L 234.8386 -129.771964 
L 234.453907 -136.239869 
L 234.069214 -138.375751 
L 233.684521 -135.037991 
L 233.299828 -139.440515 
L 232.915135 -140.134707 
L 232.530442 -139.078779 
L 232.145749 -140.542955 
L 231.761056 -136.692105 
L 231.376363 -139.455422 
L 230.99167 -145.394597 
L 230.606977 -144.266002 
L 230.222285 -144.82826 
L 229.837592 -146.729456 
L 229.452899 -146.283446 
L 229.068206 -146.687776 
L 228.683513 -139.392051 
L 228.29882 -140.971579 
L 227.914127 -146.590922 
L 227.529434 -140.38117 
L 227.144741 -149.185461 
L 226.760048 -149.021413 
L 226.375355 -151.94668 
L 225.990662 -148.154803 
L 225.605969 -144.525708 
L 225.221277 -148.925764 
L 224.836584 -144.291177 
L 224.451891 -150.657501 
L 224.067198 -156.522132 
L 223.682505 -149.019686 
L 223.297812 -148.114318 
L 222.913119 -152.437184 
L 222.528426 -147.025892 
L 222.143733 -145.032267 
L 221.75904 -158.570913 
L 221.374347 -148.745477 
L 220.989654 -158.289417 
L 220.604961 -153.616283 
L 220.220269 -149.645291 
L 219.835576 -155.116274 
L 219.450883 -158.168353 
L 219.06619 -151.553899 
L 218.681497 -153.255402 
L 218.296804 -151.058285 
L 217.912111 -151.606429 
L 217.527418 -157.073808 
L 217.142725 -151.137136 
L 216.758032 -159.797888 
L 216.373339 -155.0906 
L 215.988646 -159.588357 
L 215.603953 -154.57398 
L 215.21926 -154.532357 
L 214.834568 -151.931967 
L 214.449875 -164.2153 
L 214.065182 -153.711896 
L 213.680489 -152.86394 
L 213.295796 -156.311467 
L 212.911103 -153.013978 
L 212.52641 -159.478895 
L 212.141717 -152.865462 
L 211.757024 -151.900813 
L 211.372331 -154.988294 
L 210.987638 -158.449479 
L 210.602945 -157.344073 
L 210.218252 -157.922205 
L 209.83356 -164.365316 
L 209.448867 -154.103386 
L 209.064174 -156.266644 
L 208.679481 -162.523754 
L 208.294788 -168.842078 
L 207.910095 -156.197441 
L 207.525402 -177.377348 
L 207.140709 -162.949903 
L 206.756016 -148.621393 
L 206.371323 -158.349638 
L 205.98663 -163.02195 
L 205.601937 -154.597351 
L 205.217244 -179.024709 
L 204.832552 -161.999769 
L 204.447859 -160.660236 
L 204.063166 -153.175742 
L 203.678473 -153.317401 
L 203.29378 -160.965272 
L 202.909087 -155.458038 
L 202.524394 -152.365258 
L 202.139701 -179.513988 
L 201.755008 -158.595358 
L 201.370315 -155.417111 
L 200.985622 -155.278996 
L 200.600929 -162.814281 
L 200.216236 -177.540071 
L 199.831543 -167.359761 
L 199.446851 -167.404496 
L 199.062158 -156.116652 
L 198.677465 -161.876703 
L 198.292772 -155.122779 
L 197.908079 -179.324794 
L 197.523386 -156.536291 
L 197.138693 -162.128844 
L 196.754 -161.846929 
L 196.369307 -159.031859 
L 195.984614 -174.120799 
L 195.599921 -164.932032 
L 195.215228 -162.310601 
L 194.830535 -177.472232 
L 194.445843 -155.957041 
L 194.06115 -170.160776 
L 193.676457 -169.270766 
L 193.291764 -172.413655 
L 192.907071 -165.894212 
L 192.522378 -170.784851 
L 192.137685 -151.532867 
L 191.752992 -162.461294 
L 191.368299 -159.991532 
L 190.983606 -182.053358 
L 190.598913 -182.706177 
L 190.21422 -157.463906 
L 189.829527 -181.061981 
L 189.444835 -157.548626 
L 189.060142 -153.670793 
L 188.675449 -157.863537 
L 188.290756 -170.864624 
L 187.906063 -156.928952 
L 187.52137 -166.035918 
L 187.136677 -178.301817 
L 186.751984 -175.479391 
L 186.367291 -161.257281 
L 185.982598 -168.979605 
L 185.597905 -168.30076 
L 185.213212 -165.030991 
L 184.828519 -170.853621 
L 184.443826 -175.891953 
L 184.059134 -160.814357 
L 183.674441 -158.792424 
L 183.289748 -162.145807 
L 182.905055 -158.161418 
L 182.520362 -182.967093 
L 182.135669 -174.90098 
L 181.750976 -168.583348 
L 181.366283 -175.055076 
L 180.98159 -158.698102 
L 180.596897 -173.193758 
L 180.212204 -173.587373 
L 179.827511 -167.602849 
L 179.442818 -170.483249 
L 179.058126 -172.508256 
L 178.673433 -173.998428 
L 178.28874 -168.161241 
L 177.904047 -172.009678 
L 177.519354 -161.398721 
L 177.134661 -161.07073 
L 176.749968 -168.619292 
L 176.365275 -157.293545 
L 175.980582 -155.675042 
L 175.595889 -151.593919 
L 175.211196 -175.086689 
L 174.826503 -185.589302 
L 174.44181 -183.549081 
L 174.057117 -167.497559 
L 173.672425 -165.675412 
L 173.287732 -184.261486 
L 172.903039 -184.996776 
L 172.518346 -183.104294 
L 172.133653 -161.096788 
L 171.74896 -178.532883 
L 171.364267 -164.007103 
L 170.979574 -176.775349 
L 170.594881 -185.136403 
L 170.210188 -158.952308 
L 169.825495 -167.556905 
L 169.440802 -167.931854 
L 169.056109 -182.149395 
L 168.671417 -166.646274 
L 168.286724 -161.710929 
L 167.902031 -169.521092 
L 167.517338 -179.079552 
L 167.132645 -163.747601 
L 166.747952 -182.479695 
L 166.363259 -173.455762 
L 165.978566 -161.522332 
L 165.593873 -169.019834 
L 165.20918 -182.751437 
L 164.824487 -167.919202 
L 164.439794 -164.172322 
L 164.055101 -174.010512 
L 163.670409 -156.031355 
L 163.285716 -181.147314 
L 162.901023 -186.503523 
L 162.51633 -185.083868 
L 162.131637 -176.530001 
L 161.746944 -177.954056 
L 161.362251 -164.044179 
L 160.977558 -181.074298 
L 160.592865 -165.575485 
L 160.208172 -176.177521 
L 159.823479 -162.479744 
L 159.438786 -169.82248 
L 159.054093 -180.283839 
L 158.6694 -178.707005 
L 158.284708 -158.118358 
L 157.900015 -178.023332 
L 157.515322 -161.761176 
L 157.130629 -170.446971 
L 156.745936 -182.367915 
L 156.361243 -169.255287 
L 155.97655 -159.582938 
L 155.591857 -163.970573 
L 155.207164 -173.800524 
L 154.822471 -180.544739 
L 154.437778 -157.597705 
L 154.053085 -182.984838 
L 153.668392 -164.588513 
L 153.2837 -171.874201 
L 152.899007 -179.655168 
L 152.514314 -166.649572 
L 152.129621 -182.543088 
L 151.744928 -157.693971 
L 151.360235 -159.29538 
L 150.975542 -179.509916 
L 150.590849 -181.651121 
L 150.206156 -171.652336 
L 149.821463 -175.23041 
L 149.43677 -178.987204 
L 149.052077 -169.313112 
L 148.667384 -170.11359 
L 148.282692 -167.480711 
L 147.897999 -176.608005 
L 147.513306 -180.744564 
L 147.128613 -167.743575 
L 146.74392 -182.286202 
L 146.359227 -163.334341 
L 145.974534 -174.509531 
L 145.589841 -173.774617 
L 145.205148 -180.168867 
L 144.820455 -156.501514 
L 144.435762 -183.31853 
L 144.051069 -164.831492 
L 143.666376 -171.48451 
L 143.281683 -169.669601 
L 142.896991 -158.561055 
L 142.512298 -157.164692 
L 142.127605 -186.447647 
L 141.742912 -180.8279 
L 141.358219 -159.953021 
L 140.973526 -169.749423 
L 140.588833 -183.472712 
L 140.20414 -154.193087 
L 139.819447 -181.842989 
L 139.434754 -170.732011 
L 139.050061 -169.75781 
L 138.665368 -180.777473 
L 138.280675 -165.977112 
L 137.895983 -163.182464 
L 137.51129 -168.143492 
L 137.126597 -179.66645 
L 136.741904 -166.44189 
L 136.357211 -177.306157 
L 135.972518 -167.842243 
L 135.587825 -163.841526 
L 135.203132 -165.558898 
L 134.818439 -163.964173 
L 134.433746 -172.377525 
L 134.049053 -161.838168 
L 133.66436 -163.127788 
L 133.279667 -177.117462 
L 132.894975 -167.184919 
L 132.510282 -174.628053 
L 132.125589 -171.346252 
L 131.740896 -166.674297 
L 131.356203 -172.656847 
L 130.97151 -181.3634 
L 130.586817 -178.642689 
L 130.202124 -169.342056 
L 129.817431 -166.972754 
L 129.432738 -177.109255 
L 129.048045 -162.086117 
L 128.663352 -174.069534 
L 128.278659 -183.384449 
L 127.893966 -171.903062 
L 127.509274 -168.347875 
L 127.124581 -176.580479 
L 126.739888 -176.091353 
L 126.355195 -166.006838 
L 125.970502 -157.032377 
L 125.585809 -181.762178 
L 125.201116 -175.629092 
L 124.816423 -162.901436 
L 124.43173 -159.036402 
L 124.047037 -175.267208 
L 123.662344 -177.751038 
L 123.277651 -158.170332 
L 122.892958 -173.702497 
L 122.508266 -175.333033 
L 122.123573 -159.162276 
L 121.73888 -167.766634 
L 121.354187 -171.893961 
L 120.969494 -171.808627 
L 120.584801 -167.487914 
L 120.200108 -157.448911 
L 119.815415 -175.307152 
L 119.430722 -161.26645 
L 119.046029 -167.50826 
L 118.661336 -173.151908 
L 118.276643 -164.564544 
L 117.89195 -162.139402 
L 117.507258 -155.118449 
L 117.122565 -162.667661 
L 116.737872 -171.136512 
L 116.353179 -163.285335 
L 115.968486 -165.791687 
L 115.583793 -166.703986 
L 115.1991 -163.428571 
L 114.814407 -165.335419 
L 114.429714 -171.270006 
L 114.045021 -167.851285 
L 113.660328 -173.627649 
L 113.275635 -164.816835 
L 112.890942 -162.401866 
L 112.506249 -169.170931 
L 112.121557 -161.770895 
L 111.736864 -171.325431 
L 111.352171 -163.290012 
L 110.967478 -164.820109 
L 110.582785 -160.530627 
L 110.198092 -166.863307 
L 109.813399 -170.26679 
L 109.428706 -161.78041 
L 109.044013 -167.418507 
L 108.65932 -161.328362 
L 108.274627 -163.66915 
L 107.889934 -156.050753 
L 107.505241 -164.888421 
L 107.120549 -167.633879 
L 106.735856 -163.673735 
L 106.351163 -160.404222 
L 105.96647 -160.383527 
L 105.581777 -165.53981 
L 105.197084 -156.829018 
L 104.812391 -157.119606 
L 104.427698 -163.675625 
L 104.043005 -158.893725 
L 103.658312 -164.062373 
L 103.273619 -164.346718 
L 102.888926 -158.462472 
L 102.504233 -163.001457 
L 102.11954 -158.214653 
L 101.734848 -168.355288 
L 101.350155 -162.147711 
L 100.965462 -161.83841 
L 100.580769 -162.589676 
L 100.196076 -163.685468 
L 99.811383 -160.925768 
L 99.42669 -159.822897 
L 99.041997 -159.729986 
L 98.657304 -161.094016 
L 98.272611 -160.604525 
L 97.887918 -164.795575 
L 97.503225 -161.485028 
L 97.118532 -160.585535 
L 96.73384 -160.298676 
L 96.349147 -160.841861 
L 95.964454 -164.832764 
L 95.579761 -157.571208 
L 95.195068 -160.668037 
L 94.810375 -160.848927 
L 94.425682 -160.407554 
L 94.040989 -156.554327 
L 93.656296 -158.429698 
L 93.271603 -166.820766 
L 92.88691 -157.964344 
L 92.502217 -154.232899 
L 92.117524 -160.759022 
L 91.732832 -161.226052 
L 91.348139 -162.550095 
L 90.963446 -156.26697 
L 90.578753 -162.259332 
L 90.19406 -163.337174 
L 89.809367 -160.595619 
L 89.424674 -158.69836 
L 89.039981 -160.928551 
L 88.655288 -161.234659 
L 88.270595 -162.617079 
L 87.885902 -160.117481 
L 87.501209 -160.465243 
L 87.116516 -160.281617 
L 86.731823 -161.511151 
L 86.347131 -160.141583 
L 85.962438 -163.536755 
L 85.577745 -163.31445 
L 85.193052 -159.448399 
L 84.808359 -161.986535 
L 84.423666 -160.826888 
L 84.038973 -163.069318 
L 83.65428 -166.034534 
L 83.269587 -165.943408 
L 82.884894 -158.310493 
L 82.500201 -157.823844 
L 82.115508 -167.763173 
L 81.730815 -160.640785 
L 81.346123 -164.19057 
L 80.96143 -163.347423 
L 80.576737 -168.583425 
L 80.192044 -159.77153 
L 79.807351 -162.614027 
L 79.422658 -163.893178 
L 79.037965 -160.353376 
L 78.653272 -163.608457 
L 78.268579 -159.29233 
L 77.883886 -163.531564 
L 77.499193 -164.237175 
L 77.1145 -170.533567 
L 76.729807 -164.220113 
L 76.345115 -164.405401 
L 75.960422 -167.229 
L 75.575729 -160.67392 
L 75.191036 -162.692572 
L 74.806343 -159.474333 
L 74.42165 -161.977677 
L 74.036957 -159.187417 
L 73.652264 -162.603476 
L 73.267571 -156.182169 
L 72.882878 -158.329099 
L 72.498185 -164.233635 
L 72.113492 -169.036428 
L 71.728799 -163.058605 
L 71.344106 -156.996646 
L 70.959414 -161.382005 
L 70.574721 -159.640101 
L 70.190028 -158.281534 
L 69.805335 -161.98797 
L 69.420642 -156.925814 
L 69.035949 -160.23204 
L 68.651256 -158.653468 
L 68.266563 -158.42717 
L 67.88187 -155.347135 
L 67.497177 -161.695553 
L 67.112484 -160.908475 
L 66.727791 -159.44228 
L 66.343098 -158.465926 
L 65.958406 -163.762469 
L 65.573713 -159.89421 
L 65.18902 -162.045887 
L 64.804327 -157.095815 
L 64.419634 -159.130639 
L 64.034941 -162.89222 
L 63.650248 -161.613292 
L 63.265555 -157.032394 
L 62.880862 -158.411477 
L 62.496169 -156.50724 
L 62.111476 -164.772699 
L 61.726783 -153.013186 
L 61.34209 -166.372257 
L 60.957398 -154.286271 
L 60.572705 -153.862812 
L 60.188012 -155.235956 
L 59.803319 -151.031912 
L 59.418626 -152.785092 
L 59.033933 -152.702407 
L 58.64924 -153.000041 
L 58.264547 -152.802261 
L 57.879854 -153.1917 
L 57.495161 -151.592961 
L 57.110468 -150.782201 
L 56.725775 -150.203533 
L 56.341082 -151.650275 
L 55.956389 -150.362182 
L 55.571697 -150.071662 
L 55.187004 -148.003355 
L 54.802311 -146.712464 
L 54.417618 -149.838611 
L 54.032925 -147.934707 
L 53.648232 -147.968777 
L 53.263539 -148.238432 
L 52.878846 -148.612933 
L 52.494153 -149.330965 
L 52.10946 -150.255003 
z
"/>
    </defs>
    <g clip-path="url(#pa15525bd17)">
     <use xlink:href="#mfd0ffbc5ad" x="0" y="200.79625" style="fill: #c0392b; fill-opacity: 0.12"/>
    </g>
   </g>
   <g id="matplotlib.axis_1">
    <g id="xtick_1">
     <g id="line2d_1">
      <path d="M 51.724767 163.24 
L 51.724767 7.2 
" clip-path="url(#pa15525bd17)" style="fill: none; stroke: #b0b0b0; stroke-opacity: 0.3; stroke-width: 0.8; stroke-linecap: square"/>
     </g>
     <g id="line2d_2">
      <defs>
       <path id="md52ec2ff24" d="M 0 0 
L 0 3.5 
" style="stroke: #000000; stroke-width: 0.8"/>
      </defs>
      <g>
       <use xlink:href="#md52ec2ff24" x="51.724767" y="163.24" style="stroke: #000000; stroke-width: 0.8"/>
      </g>
     </g>
     <g id="text_1">
      <text style="font-size: 10px; font-family: 'DejaVu Sans', 'Bitstream Vera Sans', 'Computer Modern Sans Serif', 'Lucida Grande', 'Verdana', 'Geneva', 'Lucid', 'Arial', 'Helvetica', 'Avant Garde', sans-serif; text-anchor: middle" x="51.724767" y="177.838437" transform="rotate(-0 51.724767 177.838437)">0.0</text>
     </g>
    </g>
    <g id="xtick_2">
     <g id="line2d_3">
      <path d="M 89.292436 163.24 
L 89.292436 7.2 
" clip-path="url(#pa15525bd17)" style="fill: none; stroke: #b0b0b0; stroke-opacity: 0.3; stroke-width: 0.8; stroke-linecap: square"/>
     </g>
     <g id="line2d_4">
      <g>
       <use xlink:href="#md52ec2ff24" x="89.292436" y="163.24" style="stroke: #000000; stroke-width: 0.8"/>
      </g>
     </g>
     <g id="text_2">
      <text style="font-size: 10px; font-family: 'DejaVu Sans', 'Bitstream Vera Sans', 'Computer Modern Sans Serif', 'Lucida Grande', 'Verdana', 'Geneva', 'Lucid', 'Arial', 'Helvetica', 'Avant Garde', sans-serif; text-anchor: middle" x="89.292436" y="177.838437" transform="rotate(-0 89.292436 177.838437)">0.2</text>
     </g>
    </g>
    <g id="xtick_3">
     <g id="line2d_5">
      <path d="M 126.860104 163.24 
L 126.860104 7.2 
" clip-path="url(#pa15525bd17)" style="fill: none; stroke: #b0b0b0; stroke-opacity: 0.3; stroke-width: 0.8; stroke-linecap: square"/>
     </g>
     <g id="line2d_6">
      <g>
       <use xlink:href="#md52ec2ff24" x="126.860104" y="163.24" style="stroke: #000000; stroke-width: 0.8"/>
      </g>
     </g>
     <g id="text_3">
      <text style="font-size: 10px; font-family: 'DejaVu Sans', 'Bitstream Vera Sans', 'Computer Modern Sans Serif', 'Lucida Grande', 'Verdana', 'Geneva', 'Lucid', 'Arial', 'Helvetica', 'Avant Garde', sans-serif; text-anchor: middle" x="126.860104" y="177.838437" transform="rotate(-0 126.860104 177.838437)">0.4</text>
     </g>
    </g>
    <g id="xtick_4">
     <g id="line2d_7">
      <path d="M 164.427773 163.24 
L 164.427773 7.2 
" clip-path="url(#pa15525bd17)" style="fill: none; stroke: #b0b0b0; stroke-opacity: 0.3; stroke-width: 0.8; stroke-linecap: square"/>
     </g>
     <g id="line2d_8">
      <g>
       <use xlink:href="#md52ec2ff24" x="164.427773" y="163.24" style="stroke: #000000; stroke-width: 0.8"/>
      </g>
     </g>
     <g id="text_4">
      <text style="font-size: 10px; font-family: 'DejaVu Sans', 'Bitstream Vera Sans', 'Computer Modern Sans Serif', 'Lucida Grande', 'Verdana', 'Geneva', 'Lucid', 'Arial', 'Helvetica', 'Avant Garde', sans-serif; text-anchor: middle" x="164.427773" y="177.838437" transform="rotate(-0 164.427773 177.838437)">0.6</text>
     </g>
    </g>
    <g id="xtick_5">
     <g id="line2d_9">
      <path d="M 201.995441 163.24 
L 201.995441 7.2 
" clip-path="url(#pa15525bd17)" style="fill: none; stroke: #b0b0b0; stroke-opacity: 0.3; stroke-width: 0.8; stroke-linecap: square"/>
     </g>
     <g id="line2d_10">
      <g>
       <use xlink:href="#md52ec2ff24" x="201.995441" y="163.24" style="stroke: #000000; stroke-width: 0.8"/>
      </g>
     </g>
     <g id="text_5">
      <text style="font-size: 10px; font-family: 'DejaVu Sans', 'Bitstream Vera Sans', 'Computer Modern Sans Serif', 'Lucida Grande', 'Verdana', 'Geneva', 'Lucid', 'Arial', 'Helvetica', 'Avant Garde', sans-serif; text-anchor: middle" x="201.995441" y="177.838437" transform="rotate(-0 201.995441 177.838437)">0.8</text>
     </g>
    </g>
    <g id="xtick_6">
     <g id="line2d_11">
      <path d="M 239.56311 163.24 
L 239.56311 7.2 
" clip-path="url(#pa15525bd17)" style="fill: none; stroke: #b0b0b0; stroke-opacity: 0.3; stroke-width: 0.8; stroke-linecap: square"/>
     </g>
     <g id="line2d_12">
      <g>
       <use xlink:href="#md52ec2ff24" x="239.56311" y="163.24" style="stroke: #000000; stroke-width: 0.8"/>
      </g>
     </g>
     <g id="text_6">
      <text style="font-size: 10px; font-family: 'DejaVu Sans', 'Bitstream Vera Sans', 'Computer Modern Sans Serif', 'Lucida Grande', 'Verdana', 'Geneva', 'Lucid', 'Arial', 'Helvetica', 'Avant Garde', sans-serif; text-anchor: middle" x="239.56311" y="177.838437" transform="rotate(-0 239.56311 177.838437)">1.0</text>
     </g>
    </g>
    <g id="text_7">
     <text style="font-size: 10px; font-family: 'DejaVu Sans', 'Bitstream Vera Sans', 'Computer Modern Sans Serif', 'Lucida Grande', 'Verdana', 'Geneva', 'Lucid', 'Arial', 'Helvetica', 'Avant Garde', sans-serif; text-anchor: middle" x="145.782188" y="191.516562" transform="rotate(-0 145.782188 191.516562)">environment step</text>
    </g>
    <g id="text_8">
     <text style="font-size: 10px; font-family: 'DejaVu Sans', 'Bitstream Vera Sans', 'Computer Modern Sans Serif', 'Lucida Grande', 'Verdana', 'Geneva', 'Lucid', 'Arial', 'Helvetica', 'Avant Garde', sans-serif; text-anchor: end" x="248.822188" y="190.516562" transform="rotate(-0 248.822188 190.516562)">1e6</text>
    </g>
   </g>
   <g id="matplotlib.axis_2">
    <g id="ytick_1">
     <g id="line2d_13">
      <path d="M 42.742188 158.800095 
L 248.822188 158.800095 
" clip-path="url(#pa15525bd17)" style="fill: none; stroke: #b0b0b0; stroke-opacity: 0.3; stroke-width: 0.8; stroke-linecap: square"/>
     </g>
     <g id="line2d_14">
      <defs>
       <path id="meb23fb85bc" d="M 0 0 
L -3.5 0 
" style="stroke: #000000; stroke-width: 0.8"/>
      </defs>
      <g>
       <use xlink:href="#meb23fb85bc" x="42.742188" y="158.800095" style="stroke: #000000; stroke-width: 0.8"/>
      </g>
     </g>
     <g id="text_9">
      <text style="font-size: 10px; font-family: 'DejaVu Sans', 'Bitstream Vera Sans', 'Computer Modern Sans Serif', 'Lucida Grande', 'Verdana', 'Geneva', 'Lucid', 'Arial', 'Helvetica', 'Avant Garde', sans-serif; text-anchor: end" x="35.742188" y="162.599314" transform="rotate(-0 35.742188 162.599314)">−4</text>
     </g>
    </g>
    <g id="ytick_2">
     <g id="line2d_15">
      <path d="M 42.742188 137.960748 
L 248.822188 137.960748 
" clip-path="url(#pa15525bd17)" style="fill: none; stroke: #b0b0b0; stroke-opacity: 0.3; stroke-width: 0.8; stroke-linecap: square"/>
     </g>
     <g id="line2d_16">
      <g>
       <use xlink:href="#meb23fb85bc" x="42.742188" y="137.960748" style="stroke: #000000; stroke-width: 0.8"/>
      </g>
     </g>
     <g id="text_10">
      <text style="font-size: 10px; font-family: 'DejaVu Sans', 'Bitstream Vera Sans', 'Computer Modern Sans Serif', 'Lucida Grande', 'Verdana', 'Geneva', 'Lucid', 'Arial', 'Helvetica', 'Avant Garde', sans-serif; text-anchor: end" x="35.742188" y="141.759966" transform="rotate(-0 35.742188 141.759966)">−3</text>
     </g>
    </g>
    <g id="ytick_3">
     <g id="line2d_17">
      <path d="M 42.742188 117.1214 
L 248.822188 117.1214 
" clip-path="url(#pa15525bd17)" style="fill: none; stroke: #b0b0b0; stroke-opacity: 0.3; stroke-width: 0.8; stroke-linecap: square"/>
     </g>
     <g id="line2d_18">
      <g>
       <use xlink:href="#meb23fb85bc" x="42.742188" y="117.1214" style="stroke: #000000; stroke-width: 0.8"/>
      </g>
     </g>
     <g id="text_11">
      <text style="font-size: 10px; font-family: 'DejaVu Sans', 'Bitstream Vera Sans', 'Computer Modern Sans Serif', 'Lucida Grande', 'Verdana', 'Geneva', 'Lucid', 'Arial', 'Helvetica', 'Avant Garde', sans-serif; text-anchor: end" x="35.742188" y="120.920619" transform="rotate(-0 35.742188 120.920619)">−2</text>
     </g>
    </g>
    <g id="ytick_4">
     <g id="line2d_19">
      <path d="M 42.742188 96.282053 
L 248.822188 96.282053 
" clip-path="url(#pa15525bd17)" style="fill: none; stroke: #b0b0b0; stroke-opacity: 0.3; stroke-width: 0.8; stroke-linecap: square"/>
     </g>
     <g id="line2d_20">
      <g>
       <use xlink:href="#meb23fb85bc" x="42.742188" y="96.282053" style="stroke: #000000; stroke-width: 0.8"/>
      </g>
     </g>
     <g id="text_12">
      <text style="font-size: 10px; font-family: 'DejaVu Sans', 'Bitstream Vera Sans', 'Computer Modern Sans Serif', 'Lucida Grande', 'Verdana', 'Geneva', 'Lucid', 'Arial', 'Helvetica', 'Avant Garde', sans-serif; text-anchor: end" x="35.742188" y="100.081271" transform="rotate(-0 35.742188 100.081271)">−1</text>
     </g>
    </g>
    <g id="ytick_5">
     <g id="line2d_21">
      <path d="M 42.742188 75.442705 
L 248.822188 75.442705 
" clip-path="url(#pa15525bd17)" style="fill: none; stroke: #b0b0b0; stroke-opacity: 0.3; stroke-width: 0.8; stroke-linecap: square"/>
     </g>
     <g id="line2d_22">
      <g>
       <use xlink:href="#meb23fb85bc" x="42.742188" y="75.442705" style="stroke: #000000; stroke-width: 0.8"/>
      </g>
     </g>
     <g id="text_13">
      <text style="font-size: 10px; font-family: 'DejaVu Sans', 'Bitstream Vera Sans', 'Computer Modern Sans Serif', 'Lucida Grande', 'Verdana', 'Geneva', 'Lucid', 'Arial', 'Helvetica', 'Avant Garde', sans-serif; text-anchor: end" x="35.742188" y="79.241924" transform="rotate(-0 35.742188 79.241924)">0</text>
     </g>
    </g>
    <g id="ytick_6">
     <g id="line2d_23">
      <path d="M 42.742188 54.603357 
L 248.822188 54.603357 
" clip-path="url(#pa15525bd17)" style="fill: none; stroke: #b0b0b0; stroke-opacity: 0.3; stroke-width: 0.8; stroke-linecap: square"/>
     </g>
     <g id="line2d_24">
      <g>
       <use xlink:href="#meb23fb85bc" x="42.742188" y="54.603357" style="stroke: #000000; stroke-width: 0.8"/>
      </g>
     </g>
     <g id="text_14">
      <text style="font-size: 10px; font-family: 'DejaVu Sans', 'Bitstream Vera Sans', 'Computer Modern Sans Serif', 'Lucida Grande', 'Verdana', 'Geneva', 'Lucid', 'Arial', 'Helvetica', 'Avant Garde', sans-serif; text-anchor: end" x="35.742188" y="58.402576" transform="rotate(-0 35.742188 58.402576)">1</text>
     </g>
    </g>
    <g id="ytick_7">
     <g id="line2d_25">
      <path d="M 42.742188 33.76401 
L 248.822188 33.76401 
" clip-path="url(#pa15525bd17)" style="fill: none; stroke: #b0b0b0; stroke-opacity: 0.3; stroke-width: 0.8; stroke-linecap: square"/>
     </g>
     <g id="line2d_26">
      <g>
       <use xlink:href="#meb23fb85bc" x="42.742188" y="33.76401" style="stroke: #000000; stroke-width: 0.8"/>
      </g>
     </g>
     <g id="text_15">
      <text style="font-size: 10px; font-family: 'DejaVu Sans', 'Bitstream Vera Sans', 'Computer Modern Sans Serif', 'Lucida Grande', 'Verdana', 'Geneva', 'Lucid', 'Arial', 'Helvetica', 'Avant Garde', sans-serif; text-anchor: end" x="35.742188" y="37.563228" transform="rotate(-0 35.742188 37.563228)">2</text>
     </g>
    </g>
    <g id="ytick_8">
     <g id="line2d_27">
      <path d="M 42.742188 12.924662 
L 248.822188 12.924662 
" clip-path="url(#pa15525bd17)" style="fill: none; stroke: #b0b0b0; stroke-opacity: 0.3; stroke-width: 0.8; stroke-linecap: square"/>
     </g>
     <g id="line2d_28">
      <g>
       <use xlink:href="#meb23fb85bc" x="42.742188" y="12.924662" style="stroke: #000000; stroke-width: 0.8"/>
      </g>
     </g>
     <g id="text_16">
      <text style="font-size: 10px; font-family: 'DejaVu Sans', 'Bitstream Vera Sans', 'Computer Modern Sans Serif', 'Lucida Grande', 'Verdana', 'Geneva', 'Lucid', 'Arial', 'Helvetica', 'Avant Garde', sans-serif; text-anchor: end" x="35.742188" y="16.723881" transform="rotate(-0 35.742188 16.723881)">3</text>
     </g>
    </g>
    <g id="text_17">
     <!-- $\beta_t$ -->
     <g transform="translate(14.9 89.92) rotate(-90)">
      <text>
       <tspan x="0" y="-0.34375" style="font-style: oblique; font-size: 10px; font-family: 'DejaVu Sans'">β</tspan>
       <tspan x="6.381836" y="1.296875" style="font-style: oblique; font-size: 7px; font-family: 'DejaVu Sans'">t</tspan>
      </text>
     </g>
    </g>
   </g>
   <g id="line2d_29">
    <path d="M 52.10946 75.442705 
L 239.454915 75.442705 
L 239.454915 75.442705 
" clip-path="url(#pa15525bd17)" style="fill: none; stroke: #c0392b; stroke-width: 1.5; stroke-linecap: square"/>
   </g>
   <g id="patch_3">
    <path d="M 42.742188 163.24 
L 42.742188 7.2 
" style="fill: none; stroke: #000000; stroke-width: 0.8; stroke-linejoin: miter; stroke-linecap: square"/>
   </g>
   <g id="patch_4">
    <path d="M 248.822188 163.24 
L 248.822188 7.2 
" style="fill: none; stroke: #000000; stroke-width: 0.8; stroke-linejoin: miter; stroke-linecap: square"/>
   </g>
   <g id="patch_5">
    <path d="M 42.742188 163.24 
L 248.822187 163.24 
" style="fill: none; stroke: #000000; stroke-width: 0.8; stroke-linejoin: miter; stroke-linecap: square"/>
   </g>
   <g id="patch_6">
    <path d="M 42.742188 7.2 
L 248.822187 7.2 
" style="fill: none; stroke: #000000; stroke-width: 0.8; stroke-linejoin: miter; stroke-linecap: square"/>
   </g>
  </g>
 </g>
 <defs>
  <clipPath id="pa15525bd17">
   <rect x="42.742188" y="7.2" width="206.08" height="156.04"/>
  </clipPath>
 </defs>
</svg>
