<?xml version="1.0" encoding="utf-8" standalone="no"?>
<!DOCTYPE svg PUBLIC "-//W3C//DTD SVG 1.1//EN"
  "http://www.w3.org/Graphics/SVG/1.1/DTD/svg11.dtd">
<svg xmlns:xlink="http://www.w3.org/1999/xlink" width="256.022813pt" height="200.79625pt" viewBox="0 0 256.022813 200.79625" xmlns="http://www.w3.org/2000/svg" version="1.1">
 <metadata>
  <rdf:RDF xmlns:dc="http://purl.org/dc/elements/1.1/" xmlns:cc="http://creativecommons.org/ns#" xmlns:rdf="http://www.w3.org/1999/02/22-rdf-syntax-ns#">
   <cc:Work>
    <dc:type rdf:resource="http://purl.org/dc/dcmitype/StillImage"/>
    <dc:format>image/svg+xml</dc:format>
    <dc:creator>
     <cc:Agent>
      <dc:title>Matplotlib v3.10.9, https://matplotlib.org/</dc:title>
     </cc:Agent>
    </dc:creator>
   </cc:Work>
  </rdf:RDF>
 </metadata>
 <defs>
  <style type="text/css">*{stroke-linejoin: round; stroke-linecap: butt}</style>
 </defs>
 <g id="figure_1">
  <g id="patch_1">
   <path d="M 0 200.79625 
L 256.022813 200.79625 
L 256.022813 0 
L 0 0 
z
" style="fill: #ffffff"/>
  </g>
  <g id="axes_1">
   <g id="patch_2">
    <path d="M 52.282813 163.24 
L 248.822813 163.24 
L 248.822813 7.2 
L 52.282813 7.2 
z
" style="fill: #ffffff"/>
   </g>
   <g id="FillBetweenPolyCollection_1">
    <defs>
     <path id="md4bd09ed8f" d="M 61.216449 -126.008024 
L 61.216449 -126.008024 
L 61.583333 -126.008024 
L 61.950218 -126.008024 
L 62.317102 -126.008024 
L 62.683987 -126.008024 
L 63.050871 -126.008024 
L 63.417756 -126.008024 
L 63.78464 -126.008024 
L 64.151524 -126.008024 
L 64.518409 -126.008024 
L 64.885293 -126.008024 
L 65.252178 -126.008024 
L 65.619062 -126.008024 
L 65.985947 -126.008024 
L 66.352831 -126.008024 
L 66.719716 -126.008024 
L 67.0866 -126.008024 
L 67.453485 -126.008024 
L 67.820369 -126.008024 
L 68.187253 -126.008024 
L 68.554138 -126.008024 
L 68.921022 -126.008024 
L 69.287907 -126.008024 
L 69.654791 -126.008024 
L 70.021676 -126.008024 
L 70.38856 -126.008024 
L 70.755445 -126.008024 
L 71.122329 -126.008024 
L 71.489213 -126.008024 
L 71.856098 -126.008024 
L 72.222982 -126.008024 
L 72.589867 -126.008024 
L 72.956751 -126.008024 
L 73.323636 -126.008024 
L 73.69052 -126.008024 
L 74.057405 -126.008024 
L 74.424289 -126.008024 
L 74.791174 -126.008024 
L 75.158058 -126.008024 
L 75.524942 -126.008024 
L 75.891827 -126.008024 
L 76.258711 -126.008024 
L 76.625596 -126.008024 
L 76.99248 -126.008024 
L 77.359365 -126.008024 
L 77.726249 -126.008024 
L 78.093134 -126.008024 
L 78.460018 -126.008024 
L 78.826902 -126.008024 
L 79.193787 -126.008024 
L 79.560671 -126.008024 
L 79.927556 -126.008024 
L 80.29444 -126.008024 
L 80.661325 -126.008024 
L 81.028209 -126.008024 
L 81.395094 -126.008024 
L 81.761978 -126.008024 
L 82.128863 -126.008024 
L 82.495747 -126.008024 
L 82.862631 -126.008024 
L 83.229516 -126.008024 
L 83.5964 -126.008024 
L 83.963285 -126.008024 
L 84.330169 -126.008024 
L 84.697054 -126.008024 
L 85.063938 -126.008024 
L 85.430823 -126.008024 
L 85.797707 -126.008024 
L 86.164591 -126.008024 
L 86.531476 -126.008024 
L 86.89836 -126.008024 
L 87.265245 -126.008024 
L 87.632129 -126.008024 
L 87.999014 -126.008024 
L 88.365898 -126.008024 
L 88.732783 -126.008024 
L 89.099667 -126.008024 
L 89.466552 -126.008024 
L 89.833436 -126.008024 
L 90.20032 -126.008024 
L 90.567205 -126.008024 
L 90.934089 -126.008024 
L 91.300974 -126.008024 
L 91.667858 -126.008024 
L 92.034743 -126.008024 
L 92.401627 -126.008024 
L 92.768512 -126.008024 
L 93.135396 -126.008024 
L 93.50228 -126.008024 
L 93.869165 -126.008024 
L 94.236049 -126.008024 
L 94.602934 -126.008024 
L 94.969818 -126.008024 
L 95.336703 -126.008024 
L 95.703587 -126.008024 
L 96.070472 -126.008024 
L 96.437356 -126.008024 
L 96.804241 -126.008024 
L 97.171125 -126.008024 
L 97.538009 -126.008024 
L 97.904894 -126.008024 
L 98.271778 -126.008024 
L 98.638663 -126.008024 
L 99.005547 -126.008024 
L 99.372432 -126.008024 
L 99.739316 -126.008024 
L 100.106201 -126.008024 
L 100.473085 -126.008024 
L 100.839969 -126.008024 
L 101.206854 -126.008024 
L 101.573738 -126.008024 
L 101.940623 -126.008024 
L 102.307507 -126.008024 
L 102.674392 -126.008024 
L 103.041276 -126.008024 
L 103.408161 -126.008024 
L 103.775045 -126.008024 
L 104.14193 -126.008024 
L 104.508814 -126.008024 
L 104.875698 -126.008024 
L 105.242583 -126.008024 
L 105.609467 -126.008024 
L 105.976352 -126.008024 
L 106.343236 -126.008024 
L 106.710121 -126.008024 
L 107.077005 -126.008024 
L 107.44389 -126.008024 
L 107.810774 -126.008024 
L 108.177658 -126.008024 
L 108.544543 -126.008024 
L 108.911427 -126.008024 
L 109.278312 -126.008024 
L 109.645196 -126.008024 
L 110.012081 -126.008024 
L 110.378965 -126.008024 
L 110.74585 -126.008024 
L 111.112734 -126.008024 
L 111.479619 -126.008024 
L 111.846503 -126.008024 
L 112.213387 -126.008024 
L 112.580272 -126.008024 
L 112.947156 -126.008024 
L 113.314041 -126.008024 
L 113.680925 -126.008024 
L 114.04781 -126.008024 
L 114.414694 -126.008024 
L 114.781579 -126.008024 
L 115.148463 -126.008024 
L 115.515348 -126.008024 
L 115.882232 -126.008024 
L 116.249116 -126.008024 
L 116.616001 -126.008024 
L 116.982885 -126.008024 
L 117.34977 -126.008024 
L 117.716654 -126.008024 
L 118.083539 -126.008024 
L 118.450423 -126.008024 
L 118.817308 -126.008024 
L 119.184192 -126.008024 
L 119.551076 -126.008024 
L 119.917961 -126.008024 
L 120.284845 -126.008024 
L 120.65173 -126.008024 
L 121.018614 -126.008024 
L 121.385499 -126.008024 
L 121.752383 -126.008024 
L 122.119268 -126.008024 
L 122.486152 -126.008024 
L 122.853037 -126.008024 
L 123.219921 -126.008024 
L 123.586805 -126.008024 
L 123.95369 -126.008024 
L 124.320574 -126.008024 
L 124.687459 -126.008024 
L 125.054343 -126.008024 
L 125.421228 -126.008024 
L 125.788112 -126.008024 
L 126.154997 -126.008024 
L 126.521881 -126.008024 
L 126.888765 -126.008024 
L 127.25565 -126.008024 
L 127.622534 -126.008024 
L 127.989419 -126.008024 
L 128.356303 -126.008024 
L 128.723188 -126.008024 
L 129.090072 -126.008024 
L 129.456957 -126.008024 
L 129.823841 -126.008024 
L 130.190726 -126.008024 
L 130.55761 -126.008024 
L 130.924494 -126.008024 
L 131.291379 -126.008024 
L 131.658263 -126.008024 
L 132.025148 -126.008024 
L 132.392032 -126.008024 
L 132.758917 -126.008024 
L 133.125801 -126.008024 
L 133.492686 -126.008024 
L 133.85957 -126.008024 
L 134.226454 -126.008024 
L 134.593339 -126.008024 
L 134.960223 -126.008024 
L 135.327108 -126.008024 
L 135.693992 -126.008024 
L 136.060877 -126.008024 
L 136.427761 -126.008024 
L 136.794646 -126.008024 
L 137.16153 -126.008024 
L 137.528415 -126.008024 
L 137.895299 -126.008024 
L 138.262183 -126.008024 
L 138.629068 -126.008024 
L 138.995952 -126.008024 
L 139.362837 -126.008024 
L 139.729721 -126.008024 
L 140.096606 -126.008024 
L 140.46349 -126.008024 
L 140.830375 -126.008024 
L 141.197259 -126.008024 
L 141.564143 -126.008024 
L 141.931028 -126.008024 
L 142.297912 -126.008024 
L 142.664797 -126.008024 
L 143.031681 -126.008024 
L 143.398566 -126.008024 
L 143.76545 -126.008024 
L 144.132335 -126.008024 
L 144.499219 -126.008024 
L 144.866104 -126.008024 
L 145.232988 -126.008024 
L 145.599872 -126.008024 
L 145.966757 -126.008024 
L 146.333641 -126.008024 
L 146.700526 -126.008024 
L 147.06741 -126.008024 
L 147.434295 -126.008024 
L 147.801179 -126.008024 
L 148.168064 -126.008024 
L 148.534948 -126.008024 
L 148.901832 -126.008024 
L 149.268717 -126.008024 
L 149.635601 -126.008024 
L 150.002486 -126.008024 
L 150.36937 -126.008024 
L 150.736255 -126.008024 
L 151.103139 -126.008024 
L 151.470024 -126.008024 
L 151.836908 -126.008024 
L 152.203793 -126.008024 
L 152.570677 -126.008024 
L 152.937561 -126.008024 
L 153.304446 -126.008024 
L 153.67133 -126.008024 
L 154.038215 -126.008024 
L 154.405099 -126.008024 
L 154.771984 -126.008024 
L 155.138868 -126.008024 
L 155.505753 -126.008024 
L 155.872637 -126.008024 
L 156.239521 -126.008024 
L 156.606406 -126.008024 
L 156.97329 -126.008024 
L 157.340175 -126.008024 
L 157.707059 -126.008024 
L 158.073944 -126.008024 
L 158.440828 -126.008024 
L 158.807713 -126.008024 
L 159.174597 -126.008024 
L 159.541482 -126.008024 
L 159.908366 -126.008024 
L 160.27525 -126.008024 
L 160.642135 -126.008024 
L 161.009019 -126.008024 
L 161.375904 -126.008024 
L 161.742788 -126.008024 
L 162.109673 -126.008024 
L 162.476557 -126.008024 
L 162.843442 -126.008024 
L 163.210326 -126.008024 
L 163.57721 -126.008024 
L 163.944095 -126.008024 
L 164.310979 -126.008024 
L 164.677864 -126.008024 
L 165.044748 -126.008024 
L 165.411633 -126.008024 
L 165.778517 -126.008024 
L 166.145402 -126.008024 
L 166.512286 -126.008024 
L 166.879171 -126.008024 
L 167.246055 -126.008024 
L 167.612939 -126.008024 
L 167.979824 -126.008024 
L 168.346708 -126.008024 
L 168.713593 -126.008024 
L 169.080477 -126.008024 
L 169.447362 -126.008024 
L 169.814246 -126.008024 
L 170.181131 -126.008024 
L 170.548015 -126.008024 
L 170.914899 -126.008024 
L 171.281784 -126.008024 
L 171.648668 -126.008024 
L 172.015553 -126.008024 
L 172.382437 -126.008024 
L 172.749322 -126.008024 
L 173.116206 -126.008024 
L 173.483091 -126.008024 
L 173.849975 -126.008024 
L 174.21686 -126.008024 
L 174.583744 -126.008024 
L 174.950628 -126.008024 
L 175.317513 -126.008024 
L 175.684397 -126.008024 
L 176.051282 -126.008024 
L 176.418166 -126.008024 
L 176.785051 -126.008024 
L 177.151935 -126.008024 
L 177.51882 -126.008024 
L 177.885704 -126.008024 
L 178.252588 -126.008024 
L 178.619473 -126.008024 
L 178.986357 -126.008024 
L 179.353242 -126.008024 
L 179.720126 -126.008024 
L 180.087011 -126.008024 
L 180.453895 -126.008024 
L 180.82078 -126.008024 
L 181.187664 -126.008024 
L 181.554549 -126.008024 
L 181.921433 -126.008024 
L 182.288317 -126.008024 
L 182.655202 -126.008024 
L 183.022086 -126.008024 
L 183.388971 -126.008024 
L 183.755855 -126.008024 
L 184.12274 -126.008024 
L 184.489624 -126.008024 
L 184.856509 -126.008024 
L 185.223393 -126.008024 
L 185.590277 -126.008024 
L 185.957162 -126.008024 
L 186.324046 -126.008024 
L 186.690931 -126.008024 
L 187.057815 -126.008024 
L 187.4247 -126.008024 
L 187.791584 -126.008024 
L 188.158469 -126.008024 
L 188.525353 -126.008024 
L 188.892238 -126.008024 
L 189.259122 -126.008024 
L 189.626006 -126.008024 
L 189.992891 -126.008024 
L 190.359775 -126.008024 
L 190.72666 -126.008024 
L 191.093544 -126.008024 
L 191.460429 -126.008024 
L 191.827313 -126.008024 
L 192.194198 -126.008024 
L 192.561082 -126.008024 
L 192.927967 -126.008024 
L 193.294851 -126.008024 
L 193.661735 -126.008024 
L 194.02862 -126.008024 
L 194.395504 -126.008024 
L 194.762389 -126.008024 
L 195.129273 -126.008024 
L 195.496158 -126.008024 
L 195.863042 -126.008024 
L 196.229927 -126.008024 
L 196.596811 -126.008024 
L 196.963695 -126.008024 
L 197.33058 -126.008024 
L 197.697464 -126.008024 
L 198.064349 -126.008024 
L 198.431233 -126.008024 
L 198.798118 -126.008024 
L 199.165002 -126.008024 
L 199.531887 -126.008024 
L 199.898771 -126.008024 
L 200.265656 -126.008024 
L 200.63254 -126.008024 
L 200.999424 -126.008024 
L 201.366309 -126.008024 
L 201.733193 -126.008024 
L 202.100078 -126.008024 
L 202.466962 -126.008024 
L 202.833847 -126.008024 
L 203.200731 -126.008024 
L 203.567616 -126.008024 
L 203.9345 -126.008024 
L 204.301384 -126.008024 
L 204.668269 -126.008024 
L 205.035153 -126.008024 
L 205.402038 -126.008024 
L 205.768922 -126.008024 
L 206.135807 -126.008024 
L 206.502691 -126.008024 
L 206.869576 -126.008024 
L 207.23646 -126.008024 
L 207.603345 -126.008024 
L 207.970229 -126.008024 
L 208.337113 -126.008024 
L 208.703998 -126.008024 
L 209.070882 -126.008024 
L 209.437767 -126.008024 
L 209.804651 -126.008024 
L 210.171536 -126.008024 
L 210.53842 -126.008024 
L 210.905305 -126.008024 
L 211.272189 -126.008024 
L 211.639073 -126.008024 
L 212.005958 -126.008024 
L 212.372842 -126.008024 
L 212.739727 -126.008024 
L 213.106611 -126.008024 
L 213.473496 -126.008024 
L 213.84038 -126.008024 
L 214.207265 -126.008024 
L 214.574149 -126.008024 
L 214.941034 -126.008024 
L 215.307918 -126.008024 
L 215.674802 -126.008024 
L 216.041687 -126.008024 
L 216.408571 -126.008024 
L 216.775456 -126.008024 
L 217.14234 -126.008024 
L 217.509225 -126.008024 
L 217.876109 -126.008024 
L 218.242994 -126.008024 
L 218.609878 -126.008024 
L 218.976762 -126.008024 
L 219.343647 -126.008024 
L 219.710531 -126.008024 
L 220.077416 -126.008024 
L 220.4443 -126.008024 
L 220.811185 -126.008024 
L 221.178069 -126.008024 
L 221.544954 -126.008024 
L 221.911838 -126.008024 
L 222.278723 -126.008024 
L 222.645607 -126.008024 
L 223.012491 -126.008024 
L 223.379376 -126.008024 
L 223.74626 -126.008024 
L 224.113145 -126.008024 
L 224.480029 -126.008024 
L 224.846914 -126.008024 
L 225.213798 -126.008024 
L 225.580683 -126.008024 
L 225.947567 -126.008024 
L 226.314451 -126.008024 
L 226.681336 -126.008024 
L 227.04822 -126.008024 
L 227.415105 -126.008024 
L 227.781989 -126.008024 
L 228.148874 -126.008024 
L 228.515758 -126.008024 
L 228.882643 -126.008024 
L 229.249527 -126.008024 
L 229.616412 -126.008024 
L 229.983296 -126.008024 
L 230.35018 -126.008024 
L 230.717065 -126.008024 
L 231.083949 -126.008024 
L 231.450834 -126.008024 
L 231.817718 -126.008024 
L 232.184603 -126.008024 
L 232.551487 -126.008024 
L 232.918372 -126.008024 
L 233.285256 -126.008024 
L 233.65214 -126.008024 
L 234.019025 -126.008024 
L 234.385909 -126.008024 
L 234.752794 -126.008024 
L 235.119678 -126.008024 
L 235.486563 -126.008024 
L 235.853447 -126.008024 
L 236.220332 -126.008024 
L 236.587216 -126.008024 
L 236.954101 -126.008024 
L 237.320985 -126.008024 
L 237.687869 -126.008024 
L 238.054754 -126.008024 
L 238.421638 -126.008024 
L 238.788523 -126.008024 
L 239.155407 -126.008024 
L 239.522292 -126.008024 
L 239.889176 -126.008024 
L 239.889176 -126.008024 
L 239.889176 -126.008024 
L 239.522292 -126.008024 
L 239.155407 -126.008024 
L 238.788523 -126.008024 
L 238.421638 -126.008024 
L 238.054754 -126.008024 
L 237.687869 -126.008024 
L 237.320985 -126.008024 
L 236.954101 -126.008024 
L 236.587216 -126.008024 
L 236.220332 -126.008024 
L 235.853447 -126.008024 
L 235.486563 -126.008024 
L 235.119678 -126.008024 
L 234.752794 -126.008024 
L 234.385909 -126.008024 
L 234.019025 -126.008024 
L 233.65214 -126.008024 
L 233.285256 -126.008024 
L 232.918372 -126.008024 
L 232.551487 -126.008024 
L 232.184603 -126.008024 
L 231.817718 -126.008024 
L 231.450834 -126.008024 
L 231.083949 -126.008024 
L 230.717065 -126.008024 
L 230.35018 -126.008024 
L 229.983296 -126.008024 
L 229.616412 -126.008024 
L 229.249527 -126.008024 
L 228.882643 -126.008024 
L 228.515758 -126.008024 
L 228.148874 -126.008024 
L 227.781989 -126.008024 
L 227.415105 -126.008024 
L 227.04822 -126.008024 
L 226.681336 -126.008024 
L 226.314451 -126.008024 
L 225.947567 -126.008024 
L 225.580683 -126.008024 
L 225.213798 -126.008024 
L 224.846914 -126.008024 
L 224.480029 -126.008024 
L 224.113145 -126.008024 
L 223.74626 -126.008024 
L 223.379376 -126.008024 
L 223.012491 -126.008024 
L 222.645607 -126.008024 
L 222.278723 -126.008024 
L 221.911838 -126.008024 
L 221.544954 -126.008024 
L 221.178069 -126.008024 
L 220.811185 -126.008024 
L 220.4443 -126.008024 
L 220.077416 -126.008024 
L 219.710531 -126.008024 
L 219.343647 -126.008024 
L 218.976762 -126.008024 
L 218.609878 -126.008024 
L 218.242994 -126.008024 
L 217.876109 -126.008024 
L 217.509225 -126.008024 
L 217.14234 -126.008024 
L 216.775456 -126.008024 
L 216.408571 -126.008024 
L 216.041687 -126.008024 
L 215.674802 -126.008024 
L 215.307918 -126.008024 
L 214.941034 -126.008024 
L 214.574149 -126.008024 
L 214.207265 -126.008024 
L 213.84038 -126.008024 
L 213.473496 -126.008024 
L 213.106611 -126.008024 
L 212.739727 -126.008024 
L 212.372842 -126.008024 
L 212.005958 -126.008024 
L 211.639073 -126.008024 
L 211.272189 -126.008024 
L 210.905305 -126.008024 
L 210.53842 -126.008024 
L 210.171536 -126.008024 
L 209.804651 -126.008024 
L 209.437767 -126.008024 
L 209.070882 -126.008024 
L 208.703998 -126.008024 
L 208.337113 -126.008024 
L 207.970229 -126.008024 
L 207.603345 -126.008024 
L 207.23646 -126.008024 
L 206.869576 -126.008024 
L 206.502691 -126.008024 
L 206.135807 -126.008024 
L 205.768922 -126.008024 
L 205.402038 -126.008024 
L 205.035153 -126.008024 
L 204.668269 -126.008024 
L 204.301384 -126.008024 
L 203.9345 -126.008024 
L 203.567616 -126.008024 
L 203.200731 -126.008024 
L 202.833847 -126.008024 
L 202.466962 -126.008024 
L 202.100078 -126.008024 
L 201.733193 -126.008024 
L 201.366309 -126.008024 
L 200.999424 -126.008024 
L 200.63254 -126.008024 
L 200.265656 -126.008024 
L 199.898771 -126.008024 
L 199.531887 -126.008024 
L 199.165002 -126.008024 
L 198.798118 -126.008024 
L 198.431233 -126.008024 
L 198.064349 -126.008024 
L 197.697464 -126.008024 
L 197.33058 -126.008024 
L 196.963695 -126.008024 
L 196.596811 -126.008024 
L 196.229927 -126.008024 
L 195.863042 -126.008024 
L 195.496158 -126.008024 
L 195.129273 -126.008024 
L 194.762389 -126.008024 
L 194.395504 -126.008024 
L 194.02862 -126.008024 
L 193.661735 -126.008024 
L 193.294851 -126.008024 
L 192.927967 -126.008024 
L 192.561082 -126.008024 
L 192.194198 -126.008024 
L 191.827313 -126.008024 
L 191.460429 -126.008024 
L 191.093544 -126.008024 
L 190.72666 -126.008024 
L 190.359775 -126.008024 
L 189.992891 -126.008024 
L 189.626006 -126.008024 
L 189.259122 -126.008024 
L 188.892238 -126.008024 
L 188.525353 -126.008024 
L 188.158469 -126.008024 
L 187.791584 -126.008024 
L 187.4247 -126.008024 
L 187.057815 -126.008024 
L 186.690931 -126.008024 
L 186.324046 -126.008024 
L 185.957162 -126.008024 
L 185.590277 -126.008024 
L 185.223393 -126.008024 
L 184.856509 -126.008024 
L 184.489624 -126.008024 
L 184.12274 -126.008024 
L 183.755855 -126.008024 
L 183.388971 -126.008024 
L 183.022086 -126.008024 
L 182.655202 -126.008024 
L 182.288317 -126.008024 
L 181.921433 -126.008024 
L 181.554549 -126.008024 
L 181.187664 -126.008024 
L 180.82078 -126.008024 
L 180.453895 -126.008024 
L 180.087011 -126.008024 
L 179.720126 -126.008024 
L 179.353242 -126.008024 
L 178.986357 -126.008024 
L 178.619473 -126.008024 
L 178.252588 -126.008024 
L 177.885704 -126.008024 
L 177.51882 -126.008024 
L 177.151935 -126.008024 
L 176.785051 -126.008024 
L 176.418166 -126.008024 
L 176.051282 -126.008024 
L 175.684397 -126.008024 
L 175.317513 -126.008024 
L 174.950628 -126.008024 
L 174.583744 -126.008024 
L 174.21686 -126.008024 
L 173.849975 -126.008024 
L 173.483091 -126.008024 
L 173.116206 -126.008024 
L 172.749322 -126.008024 
L 172.382437 -126.008024 
L 172.015553 -126.008024 
L 171.648668 -126.008024 
L 171.281784 -126.008024 
L 170.914899 -126.008024 
L 170.548015 -126.008024 
L 170.181131 -126.008024 
L 169.814246 -126.008024 
L 169.447362 -126.008024 
L 169.080477 -126.008024 
L 168.713593 -126.008024 
L 168.346708 -126.008024 
L 167.979824 -126.008024 
L 167.612939 -126.008024 
L 167.246055 -126.008024 
L 166.879171 -126.008024 
L 166.512286 -126.008024 
L 166.145402 -126.008024 
L 165.778517 -126.008024 
L 165.411633 -126.008024 
L 165.044748 -126.008024 
L 164.677864 -126.008024 
L 164.310979 -126.008024 
L 163.944095 -126.008024 
L 163.57721 -126.008024 
L 163.210326 -126.008024 
L 162.843442 -126.008024 
L 162.476557 -126.008024 
L 162.109673 -126.008024 
L 161.742788 -126.008024 
L 161.375904 -126.008024 
L 161.009019 -126.008024 
L 160.642135 -126.008024 
L 160.27525 -126.008024 
L 159.908366 -126.008024 
L 159.541482 -126.008024 
L 159.174597 -126.008024 
L 158.807713 -126.008024 
L 158.440828 -126.008024 
L 158.073944 -126.008024 
L 157.707059 -126.008024 
L 157.340175 -126.008024 
L 156.97329 -126.008024 
L 156.606406 -126.008024 
L 156.239521 -126.008024 
L 155.872637 -126.008024 
L 155.505753 -126.008024 
L 155.138868 -126.008024 
L 154.771984 -126.008024 
L 154.405099 -126.008024 
L 154.038215 -126.008024 
L 153.67133 -126.008024 
L 153.304446 -126.008024 
L 152.937561 -126.008024 
L 152.570677 -126.008024 
L 152.203793 -126.008024 
L 151.836908 -126.008024 
L 151.470024 -126.008024 
L 151.103139 -126.008024 
L 150.736255 -126.008024 
L 150.36937 -126.008024 
L 150.002486 -126.008024 
L 149.635601 -126.008024 
L 149.268717 -126.008024 
L 148.901832 -126.008024 
L 148.534948 -126.008024 
L 148.168064 -126.008024 
L 147.801179 -126.008024 
L 147.434295 -126.008024 
L 147.06741 -126.008024 
L 146.700526 -126.008024 
L 146.333641 -126.008024 
L 145.966757 -126.008024 
L 145.599872 -126.008024 
L 145.232988 -126.008024 
L 144.866104 -126.008024 
L 144.499219 -126.008024 
L 144.132335 -126.008024 
L 143.76545 -126.008024 
L 143.398566 -126.008024 
L 143.031681 -126.008024 
L 142.664797 -126.008024 
L 142.297912 -126.008024 
L 141.931028 -126.008024 
L 141.564143 -126.008024 
L 141.197259 -126.008024 
L 140.830375 -126.008024 
L 140.46349 -126.008024 
L 140.096606 -126.008024 
L 139.729721 -126.008024 
L 139.362837 -126.008024 
L 138.995952 -126.008024 
L 138.629068 -126.008024 
L 138.262183 -126.008024 
L 137.895299 -126.008024 
L 137.528415 -126.008024 
L 137.16153 -126.008024 
L 136.794646 -126.008024 
L 136.427761 -126.008024 
L 136.060877 -126.008024 
L 135.693992 -126.008024 
L 135.327108 -126.008024 
L 134.960223 -126.008024 
L 134.593339 -126.008024 
L 134.226454 -126.008024 
L 133.85957 -126.008024 
L 133.492686 -126.008024 
L 133.125801 -126.008024 
L 132.758917 -126.008024 
L 132.392032 -126.008024 
L 132.025148 -126.008024 
L 131.658263 -126.008024 
L 131.291379 -126.008024 
L 130.924494 -126.008024 
L 130.55761 -126.008024 
L 130.190726 -126.008024 
L 129.823841 -126.008024 
L 129.456957 -126.008024 
L 129.090072 -126.008024 
L 128.723188 -126.008024 
L 128.356303 -126.008024 
L 127.989419 -126.008024 
L 127.622534 -126.008024 
L 127.25565 -126.008024 
L 126.888765 -126.008024 
L 126.521881 -126.008024 
L 126.154997 -126.008024 
L 125.788112 -126.008024 
L 125.421228 -126.008024 
L 125.054343 -126.008024 
L 124.687459 -126.008024 
L 124.320574 -126.008024 
L 123.95369 -126.008024 
L 123.586805 -126.008024 
L 123.219921 -126.008024 
L 122.853037 -126.008024 
L 122.486152 -126.008024 
L 122.119268 -126.008024 
L 121.752383 -126.008024 
L 121.385499 -126.008024 
L 121.018614 -126.008024 
L 120.65173 -126.008024 
L 120.284845 -126.008024 
L 119.917961 -126.008024 
L 119.551076 -126.008024 
L 119.184192 -126.008024 
L 118.817308 -126.008024 
L 118.450423 -126.008024 
L 118.083539 -126.008024 
L 117.716654 -126.008024 
L 117.34977 -126.008024 
L 116.982885 -126.008024 
L 116.616001 -126.008024 
L 116.249116 -126.008024 
L 115.882232 -126.008024 
L 115.515348 -126.008024 
L 115.148463 -126.008024 
L 114.781579 -126.008024 
L 114.414694 -126.008024 
L 114.04781 -126.008024 
L 113.680925 -126.008024 
L 113.314041 -126.008024 
L 112.947156 -126.008024 
L 112.580272 -126.008024 
L 112.213387 -126.008024 
L 111.846503 -126.008024 
L 111.479619 -126.008024 
L 111.112734 -126.008024 
L 110.74585 -126.008024 
L 110.378965 -126.008024 
L 110.012081 -126.008024 
L 109.645196 -126.008024 
L 109.278312 -126.008024 
L 108.911427 -126.008024 
L 108.544543 -126.008024 
L 108.177658 -126.008024 
L 107.810774 -126.008024 
L 107.44389 -126.008024 
L 107.077005 -126.008024 
L 106.710121 -126.008024 
L 106.343236 -126.008024 
L 105.976352 -126.008024 
L 105.609467 -126.008024 
L 105.242583 -126.008024 
L 104.875698 -126.008024 
L 104.508814 -126.008024 
L 104.14193 -126.008024 
L 103.775045 -126.008024 
L 103.408161 -126.008024 
L 103.041276 -126.008024 
L 102.674392 -126.008024 
L 102.307507 -126.008024 
L 101.940623 -126.008024 
L 101.573738 -126.008024 
L 101.206854 -126.008024 
L 100.839969 -126.008024 
L 100.473085 -126.008024 
L 100.106201 -126.008024 
L 99.739316 -126.008024 
L 99.372432 -126.008024 
L 99.005547 -126.008024 
L 98.638663 -126.008024 
L 98.271778 -126.008024 
L 97.904894 -126.008024 
L 97.538009 -126.008024 
L 97.171125 -126.008024 
L 96.804241 -126.008024 
L 96.437356 -126.008024 
L 96.070472 -126.008024 
L 95.703587 -126.008024 
L 95.336703 -126.008024 
L 94.969818 -126.008024 
L 94.602934 -126.008024 
L 94.236049 -126.008024 
L 93.869165 -126.008024 
L 93.50228 -126.008024 
L 93.135396 -126.008024 
L 92.768512 -126.008024 
L 92.401627 -126.008024 
L 92.034743 -126.008024 
L 91.667858 -126.008024 
L 91.300974 -126.008024 
L 90.934089 -126.008024 
L 90.567205 -126.008024 
L 90.20032 -126.008024 
L 89.833436 -126.008024 
L 89.466552 -126.008024 
L 89.099667 -126.008024 
L 88.732783 -126.008024 
L 88.365898 -126.008024 
L 87.999014 -126.008024 
L 87.632129 -126.008024 
L 87.265245 -126.008024 
L 86.89836 -126.008024 
L 86.531476 -126.008024 
L 86.164591 -126.008024 
L 85.797707 -126.008024 
L 85.430823 -126.008024 
L 85.063938 -126.008024 
L 84.697054 -126.008024 
L 84.330169 -126.008024 
L 83.963285 -126.008024 
L 83.5964 -126.008024 
L 83.229516 -126.008024 
L 82.862631 -126.008024 
L 82.495747 -126.008024 
L 82.128863 -126.008024 
L 81.761978 -126.008024 
L 81.395094 -126.008024 
L 81.028209 -126.008024 
L 80.661325 -126.008024 
L 80.29444 -126.008024 
L 79.927556 -126.008024 
L 79.560671 -126.008024 
L 79.193787 -126.008024 
L 78.826902 -126.008024 
L 78.460018 -126.008024 
L 78.093134 -126.008024 
L 77.726249 -126.008024 
L 77.359365 -126.008024 
L 76.99248 -126.008024 
L 76.625596 -126.008024 
L 76.258711 -126.008024 
L 75.891827 -126.008024 
L 75.524942 -126.008024 
L 75.158058 -126.008024 
L 74.791174 -126.008024 
L 74.424289 -126.008024 
L 74.057405 -126.008024 
L 73.69052 -126.008024 
L 73.323636 -126.008024 
L 72.956751 -126.008024 
L 72.589867 -126.008024 
L 72.222982 -126.008024 
L 71.856098 -126.008024 
L 71.489213 -126.008024 
L 71.122329 -126.008024 
L 70.755445 -126.008024 
L 70.38856 -126.008024 
L 70.021676 -126.008024 
L 69.654791 -126.008024 
L 69.287907 -126.008024 
L 68.921022 -126.008024 
L 68.554138 -126.008024 
L 68.187253 -126.008024 
L 67.820369 -126.008024 
L 67.453485 -126.008024 
L 67.0866 -126.008024 
L 66.719716 -126.008024 
L 66.352831 -126.008024 
L 65.985947 -126.008024 
L 65.619062 -126.008024 
L 65.252178 -126.008024 
L 64.885293 -126.008024 
L 64.518409 -126.008024 
L 64.151524 -126.008024 
L 63.78464 -126.008024 
L 63.417756 -126.008024 
L 63.050871 -126.008024 
L 62.683987 -126.008024 
L 62.317102 -126.008024 
L 61.950218 -126.008024 
L 61.583333 -126.008024 
L 61.216449 -126.008024 
z
"/>
    </defs>
    <g clip-path="url(#p15dc47f389)">
     <use xlink:href="#md4bd09ed8f" x="0" y="200.79625" style="fill: #c0392b; fill-opacity: 0.25"/>
    </g>
   </g>
   <g id="FillBetweenPolyCollection_2">
    <defs>
     <path id="m0d29b2cd99" d="M 61.216449 -147.666261 
L 61.216449 -83.325991 
L 61.583333 -44.648977 
L 61.950218 -57.433326 
L 62.317102 -66.626679 
L 62.683987 -64.935141 
L 63.050871 -75.216627 
L 63.417756 -75.158019 
L 63.78464 -83.931331 
L 64.151524 -77.197393 
L 64.518409 -84.939273 
L 64.885293 -79.260513 
L 65.252178 -77.841206 
L 65.619062 -79.19144 
L 65.985947 -64.628582 
L 66.352831 -72.052822 
L 66.719716 -66.374321 
L 67.0866 -61.024578 
L 67.453485 -67.800755 
L 67.820369 -69.646304 
L 68.187253 -68.80367 
L 68.554138 -69.781362 
L 68.921022 -66.36194 
L 69.287907 -81.873993 
L 69.654791 -68.664629 
L 70.021676 -50.317968 
L 70.38856 -67.711709 
L 70.755445 -71.979356 
L 71.122329 -58.375961 
L 71.489213 -71.310458 
L 71.856098 -89.421442 
L 72.222982 -77.270069 
L 72.589867 -75.836345 
L 72.956751 -78.27289 
L 73.323636 -83.080211 
L 73.69052 -75.37972 
L 74.057405 -63.70348 
L 74.424289 -72.92109 
L 74.791174 -74.793053 
L 75.158058 -65.957964 
L 75.524942 -79.414689 
L 75.891827 -78.685747 
L 76.258711 -77.474858 
L 76.625596 -70.871668 
L 76.99248 -75.608418 
L 77.359365 -67.018919 
L 77.726249 -60.460739 
L 78.093134 -62.602515 
L 78.460018 -67.259714 
L 78.826902 -63.346324 
L 79.193787 -65.172874 
L 79.560671 -64.292021 
L 79.927556 -73.84718 
L 80.29444 -73.314176 
L 80.661325 -74.183697 
L 81.028209 -70.929796 
L 81.395094 -65.676309 
L 81.761978 -65.64522 
L 82.128863 -62.044584 
L 82.495747 -64.951711 
L 82.862631 -62.005784 
L 83.229516 -67.937657 
L 83.5964 -59.783709 
L 83.963285 -61.434799 
L 84.330169 -67.943419 
L 84.697054 -69.778911 
L 85.063938 -64.664107 
L 85.430823 -75.810496 
L 85.797707 -76.105212 
L 86.164591 -72.966251 
L 86.531476 -74.772433 
L 86.89836 -67.43483 
L 87.265245 -75.303487 
L 87.632129 -67.314678 
L 87.999014 -60.905997 
L 88.365898 -69.61367 
L 88.732783 -69.361258 
L 89.099667 -69.592429 
L 89.466552 -71.30569 
L 89.833436 -67.368325 
L 90.20032 -73.484226 
L 90.567205 -65.257569 
L 90.934089 -79.683572 
L 91.300974 -66.919076 
L 91.667858 -68.550075 
L 92.034743 -73.981996 
L 92.401627 -68.102404 
L 92.768512 -72.303464 
L 93.135396 -63.870331 
L 93.50228 -63.844813 
L 93.869165 -67.997741 
L 94.236049 -72.090733 
L 94.602934 -67.541541 
L 94.969818 -65.522948 
L 95.336703 -67.543419 
L 95.703587 -65.046448 
L 96.070472 -67.411668 
L 96.437356 -71.115593 
L 96.804241 -64.299132 
L 97.171125 -68.832449 
L 97.538009 -66.825682 
L 97.904894 -66.96632 
L 98.271778 -69.707856 
L 98.638663 -70.839305 
L 99.005547 -67.298188 
L 99.372432 -64.947636 
L 99.739316 -66.134544 
L 100.106201 -68.05394 
L 100.473085 -68.918339 
L 100.839969 -64.723889 
L 101.206854 -70.537183 
L 101.573738 -61.295254 
L 101.940623 -67.890762 
L 102.307507 -74.555258 
L 102.674392 -64.464601 
L 103.041276 -62.328996 
L 103.408161 -67.05991 
L 103.775045 -61.607917 
L 104.14193 -70.159083 
L 104.508814 -71.44202 
L 104.875698 -69.89271 
L 105.242583 -68.344176 
L 105.609467 -61.436445 
L 105.976352 -61.100647 
L 106.343236 -65.668349 
L 106.710121 -70.713679 
L 107.077005 -71.353568 
L 107.44389 -62.584807 
L 107.810774 -71.236891 
L 108.177658 -69.978339 
L 108.544543 -64.765118 
L 108.911427 -63.880097 
L 109.278312 -68.403312 
L 109.645196 -69.008037 
L 110.012081 -63.922253 
L 110.378965 -56.54634 
L 110.74585 -66.725481 
L 111.112734 -66.273031 
L 111.479619 -79.715768 
L 111.846503 -63.297032 
L 112.213387 -62.531607 
L 112.580272 -60.713123 
L 112.947156 -64.559968 
L 113.314041 -69.479855 
L 113.680925 -57.288055 
L 114.04781 -64.205978 
L 114.414694 -54.764554 
L 114.781579 -72.723482 
L 115.148463 -63.803503 
L 115.515348 -65.320821 
L 115.882232 -57.83908 
L 116.249116 -65.456441 
L 116.616001 -68.645933 
L 116.982885 -67.52029 
L 117.34977 -59.305699 
L 117.716654 -62.900328 
L 118.083539 -68.215129 
L 118.450423 -65.980098 
L 118.817308 -61.547234 
L 119.184192 -69.115732 
L 119.551076 -58.489772 
L 119.917961 -60.392109 
L 120.284845 -57.716174 
L 120.65173 -68.025452 
L 121.018614 -69.842014 
L 121.385499 -67.668356 
L 121.752383 -62.421615 
L 122.119268 -63.114082 
L 122.486152 -65.511146 
L 122.853037 -62.163325 
L 123.219921 -64.7236 
L 123.586805 -60.359455 
L 123.95369 -61.804679 
L 124.320574 -59.925782 
L 124.687459 -52.710986 
L 125.054343 -61.928453 
L 125.421228 -62.52848 
L 125.788112 -66.509699 
L 126.154997 -64.18734 
L 126.521881 -60.439659 
L 126.888765 -68.372908 
L 127.25565 -61.010127 
L 127.622534 -62.687981 
L 127.989419 -72.005307 
L 128.356303 -71.144549 
L 128.723188 -63.69432 
L 129.090072 -67.996705 
L 129.456957 -74.292461 
L 129.823841 -62.539759 
L 130.190726 -68.918245 
L 130.55761 -58.68231 
L 130.924494 -54.224983 
L 131.291379 -69.884575 
L 131.658263 -64.834706 
L 132.025148 -65.963711 
L 132.392032 -78.047 
L 132.758917 -62.023551 
L 133.125801 -67.954211 
L 133.492686 -50.345757 
L 133.85957 -62.132842 
L 134.226454 -68.19312 
L 134.593339 -67.963634 
L 134.960223 -72.339745 
L 135.327108 -62.432983 
L 135.693992 -52.21074 
L 136.060877 -72.91339 
L 136.427761 -64.1254 
L 136.794646 -63.586296 
L 137.16153 -69.889176 
L 137.528415 -63.174692 
L 137.895299 -58.869423 
L 138.262183 -56.160076 
L 138.629068 -69.281481 
L 138.995952 -63.759156 
L 139.362837 -74.549047 
L 139.729721 -54.127128 
L 140.096606 -64.19937 
L 140.46349 -69.258863 
L 140.830375 -65.968506 
L 141.197259 -65.963041 
L 141.564143 -69.929231 
L 141.931028 -55.78783 
L 142.297912 -69.97068 
L 142.664797 -65.973657 
L 143.031681 -65.521451 
L 143.398566 -68.381233 
L 143.76545 -71.327808 
L 144.132335 -74.598095 
L 144.499219 -53.282453 
L 144.866104 -67.766314 
L 145.232988 -46.306409 
L 145.599872 -61.078722 
L 145.966757 -59.543539 
L 146.333641 -63.693545 
L 146.700526 -63.804523 
L 147.06741 -57.958077 
L 147.434295 -66.378061 
L 147.801179 -62.418888 
L 148.168064 -66.534324 
L 148.534948 -70.091378 
L 148.901832 -62.830308 
L 149.268717 -74.316049 
L 149.635601 -72.337277 
L 150.002486 -73.974359 
L 150.36937 -60.119676 
L 150.736255 -65.674374 
L 151.103139 -58.20053 
L 151.470024 -58.108035 
L 151.836908 -71.621417 
L 152.203793 -65.111813 
L 152.570677 -57.929903 
L 152.937561 -67.244364 
L 153.304446 -49.103653 
L 153.67133 -73.772463 
L 154.038215 -70.686167 
L 154.405099 -61.185705 
L 154.771984 -74.505068 
L 155.138868 -64.911021 
L 155.505753 -62.012925 
L 155.872637 -61.673277 
L 156.239521 -61.768284 
L 156.606406 -57.068051 
L 156.97329 -52.133648 
L 157.340175 -56.356184 
L 157.707059 -72.113121 
L 158.073944 -62.535498 
L 158.440828 -63.036183 
L 158.807713 -67.179545 
L 159.174597 -64.055991 
L 159.541482 -69.22635 
L 159.908366 -67.177427 
L 160.27525 -59.490468 
L 160.642135 -74.708417 
L 161.009019 -84.592123 
L 161.375904 -68.561404 
L 161.742788 -60.726021 
L 162.109673 -55.705707 
L 162.476557 -62.375502 
L 162.843442 -70.619515 
L 163.210326 -69.467348 
L 163.57721 -67.811588 
L 163.944095 -76.235502 
L 164.310979 -60.914521 
L 164.677864 -56.524884 
L 165.044748 -69.087261 
L 165.411633 -63.32194 
L 165.778517 -62.934565 
L 166.145402 -70.368839 
L 166.512286 -71.721593 
L 166.879171 -58.4597 
L 167.246055 -68.235674 
L 167.612939 -48.742808 
L 167.979824 -77.679408 
L 168.346708 -56.065252 
L 168.713593 -76.513047 
L 169.080477 -57.189092 
L 169.447362 -66.604154 
L 169.814246 -67.249032 
L 170.181131 -64.807852 
L 170.548015 -61.888761 
L 170.914899 -67.750222 
L 171.281784 -57.291629 
L 171.648668 -70.360398 
L 172.015553 -71.32057 
L 172.382437 -69.227528 
L 172.749322 -70.765369 
L 173.116206 -58.102409 
L 173.483091 -63.724956 
L 173.849975 -67.821833 
L 174.21686 -63.897297 
L 174.583744 -69.238385 
L 174.950628 -59.459498 
L 175.317513 -66.726124 
L 175.684397 -67.43718 
L 176.051282 -65.489813 
L 176.418166 -68.247387 
L 176.785051 -71.927273 
L 177.151935 -64.262498 
L 177.51882 -68.923932 
L 177.885704 -77.740758 
L 178.252588 -75.656748 
L 178.619473 -70.662327 
L 178.986357 -66.98403 
L 179.353242 -64.389951 
L 179.720126 -61.768776 
L 180.087011 -66.869498 
L 180.453895 -73.239135 
L 180.82078 -67.024287 
L 181.187664 -71.762494 
L 181.554549 -70.800495 
L 181.921433 -70.140284 
L 182.288317 -69.110036 
L 182.655202 -82.64119 
L 183.022086 -70.527908 
L 183.388971 -70.963874 
L 183.755855 -63.931802 
L 184.12274 -76.50759 
L 184.489624 -62.249711 
L 184.856509 -62.136873 
L 185.223393 -63.834302 
L 185.590277 -65.857642 
L 185.957162 -78.510711 
L 186.324046 -63.825143 
L 186.690931 -76.193331 
L 187.057815 -79.160429 
L 187.4247 -72.462675 
L 187.791584 -65.559335 
L 188.158469 -65.667675 
L 188.525353 -71.368098 
L 188.892238 -75.34234 
L 189.259122 -69.474421 
L 189.626006 -67.293746 
L 189.992891 -68.314412 
L 190.359775 -76.229355 
L 190.72666 -66.296264 
L 191.093544 -63.595562 
L 191.460429 -69.381858 
L 191.827313 -76.587121 
L 192.194198 -64.14559 
L 192.561082 -61.963439 
L 192.927967 -75.581319 
L 193.294851 -66.897849 
L 193.661735 -80.378078 
L 194.02862 -64.061396 
L 194.395504 -83.101518 
L 194.762389 -73.583036 
L 195.129273 -62.799769 
L 195.496158 -71.463159 
L 195.863042 -68.380221 
L 196.229927 -72.578397 
L 196.596811 -74.127185 
L 196.963695 -72.371623 
L 197.33058 -81.643635 
L 197.697464 -75.675644 
L 198.064349 -76.300137 
L 198.431233 -73.880409 
L 198.798118 -75.145433 
L 199.165002 -82.319768 
L 199.531887 -91.316771 
L 199.898771 -65.527669 
L 200.265656 -70.286622 
L 200.63254 -75.243817 
L 200.999424 -85.208702 
L 201.366309 -64.040885 
L 201.733193 -74.517639 
L 202.100078 -74.261143 
L 202.466962 -72.295238 
L 202.833847 -75.566449 
L 203.200731 -69.243126 
L 203.567616 -75.225338 
L 203.9345 -69.716799 
L 204.301384 -80.046175 
L 204.668269 -73.476143 
L 205.035153 -76.279184 
L 205.402038 -79.864152 
L 205.768922 -81.437966 
L 206.135807 -77.362312 
L 206.502691 -85.955338 
L 206.869576 -73.47377 
L 207.23646 -71.671342 
L 207.603345 -75.428127 
L 207.970229 -80.880174 
L 208.337113 -71.56852 
L 208.703998 -81.587947 
L 209.070882 -80.727475 
L 209.437767 -77.823557 
L 209.804651 -82.879381 
L 210.171536 -74.038325 
L 210.53842 -80.640348 
L 210.905305 -84.257725 
L 211.272189 -80.09087 
L 211.639073 -75.737596 
L 212.005958 -82.980843 
L 212.372842 -77.786306 
L 212.739727 -82.461885 
L 213.106611 -82.644487 
L 213.473496 -80.470783 
L 213.84038 -75.419836 
L 214.207265 -82.918401 
L 214.574149 -93.03703 
L 214.941034 -89.438857 
L 215.307918 -76.259462 
L 215.674802 -76.030762 
L 216.041687 -96.503939 
L 216.408571 -90.234693 
L 216.775456 -75.944453 
L 217.14234 -77.513836 
L 217.509225 -87.45025 
L 217.876109 -88.859264 
L 218.242994 -80.22431 
L 218.609878 -80.518337 
L 218.976762 -90.004379 
L 219.343647 -90.160884 
L 219.710531 -101.241298 
L 220.077416 -95.259946 
L 220.4443 -86.578964 
L 220.811185 -88.232049 
L 221.178069 -88.643392 
L 221.544954 -86.783733 
L 221.911838 -84.003638 
L 222.278723 -103.150577 
L 222.645607 -84.59743 
L 223.012491 -92.928199 
L 223.379376 -83.680322 
L 223.74626 -93.317295 
L 224.113145 -95.562586 
L 224.480029 -85.815935 
L 224.846914 -89.040458 
L 225.213798 -91.259123 
L 225.580683 -92.584343 
L 225.947567 -89.697568 
L 226.314451 -93.33892 
L 226.681336 -100.751575 
L 227.04822 -107.023295 
L 227.415105 -98.562307 
L 227.781989 -94.466539 
L 228.148874 -92.107744 
L 228.515758 -94.284996 
L 228.882643 -105.326835 
L 229.249527 -90.863148 
L 229.616412 -97.700958 
L 229.983296 -102.402417 
L 230.35018 -106.00685 
L 230.717065 -95.373027 
L 231.083949 -111.092539 
L 231.450834 -102.414118 
L 231.817718 -105.7865 
L 232.184603 -89.679964 
L 232.551487 -106.956627 
L 232.918372 -107.508289 
L 233.285256 -102.882345 
L 233.65214 -111.236612 
L 234.019025 -117.453409 
L 234.385909 -112.134347 
L 234.752794 -112.063463 
L 235.119678 -126.008024 
L 235.486563 -123.767708 
L 235.853447 -126.008024 
L 236.220332 -126.008024 
L 236.587216 -126.008024 
L 236.954101 -126.008024 
L 237.320985 -126.008024 
L 237.687869 -126.008024 
L 238.054754 -126.008024 
L 238.421638 -126.008024 
L 238.788523 -126.008024 
L 239.155407 -126.008024 
L 239.522292 -126.008024 
L 239.889176 -126.008024 
L 239.889176 -126.008024 
L 239.889176 -126.008024 
L 239.522292 -126.008024 
L 239.155407 -126.008024 
L 238.788523 -126.008024 
L 238.421638 -126.008024 
L 238.054754 -126.008024 
L 237.687869 -126.008024 
L 237.320985 -126.008024 
L 236.954101 -126.008024 
L 236.587216 -126.008024 
L 236.220332 -126.008024 
L 235.853447 -126.008024 
L 235.486563 -126.008024 
L 235.119678 -126.008024 
L 234.752794 -126.008024 
L 234.385909 -126.008024 
L 234.019025 -126.008024 
L 233.65214 -129.87447 
L 233.285256 -128.004078 
L 232.918372 -126.008024 
L 232.551487 -126.008024 
L 232.184603 -132.053369 
L 231.817718 -126.008024 
L 231.450834 -131.334619 
L 231.083949 -126.008024 
L 230.717065 -137.633049 
L 230.35018 -132.000807 
L 229.983296 -130.010113 
L 229.616412 -141.271218 
L 229.249527 -138.687258 
L 228.882643 -130.72405 
L 228.515758 -138.659959 
L 228.148874 -133.258027 
L 227.781989 -143.315456 
L 227.415105 -140.835317 
L 227.04822 -141.198472 
L 226.681336 -145.056087 
L 226.314451 -133.006085 
L 225.947567 -148.062813 
L 225.580683 -143.362704 
L 225.213798 -141.592884 
L 224.846914 -147.267277 
L 224.480029 -148.600029 
L 224.113145 -142.592915 
L 223.74626 -140.583503 
L 223.379376 -140.113945 
L 223.012491 -153.631896 
L 222.645607 -141.290071 
L 222.278723 -145.32001 
L 221.911838 -145.088565 
L 221.544954 -140.720307 
L 221.178069 -144.580313 
L 220.811185 -143.552441 
L 220.4443 -143.888386 
L 220.077416 -146.668913 
L 219.710531 -145.212974 
L 219.343647 -150.884922 
L 218.976762 -152.872871 
L 218.609878 -152.328096 
L 218.242994 -139.289191 
L 217.876109 -150.169112 
L 217.509225 -152.533436 
L 217.14234 -142.360295 
L 216.775456 -148.128456 
L 216.408571 -148.824288 
L 216.041687 -153.958627 
L 215.674802 -145.275211 
L 215.307918 -153.021491 
L 214.941034 -146.120378 
L 214.574149 -144.168735 
L 214.207265 -146.917294 
L 213.84038 -153.881765 
L 213.473496 -163.902213 
L 213.106611 -147.916401 
L 212.739727 -147.359131 
L 212.372842 -158.430612 
L 212.005958 -160.848232 
L 211.639073 -145.189934 
L 211.272189 -151.080344 
L 210.905305 -153.182324 
L 210.53842 -158.175886 
L 210.171536 -156.88645 
L 209.804651 -158.155564 
L 209.437767 -144.905181 
L 209.070882 -158.457771 
L 208.703998 -152.554229 
L 208.337113 -155.901667 
L 207.970229 -145.233519 
L 207.603345 -155.513837 
L 207.23646 -155.525718 
L 206.869576 -152.20171 
L 206.502691 -153.308764 
L 206.135807 -150.462842 
L 205.768922 -150.17586 
L 205.402038 -146.548442 
L 205.035153 -167.744187 
L 204.668269 -162.138086 
L 204.301384 -152.072511 
L 203.9345 -149.320135 
L 203.567616 -157.181391 
L 203.200731 -148.717926 
L 202.833847 -157.583789 
L 202.466962 -152.497358 
L 202.100078 -159.810725 
L 201.733193 -156.233765 
L 201.366309 -152.244924 
L 200.999424 -152.312441 
L 200.63254 -152.711291 
L 200.265656 -155.488786 
L 199.898771 -153.548778 
L 199.531887 -151.273126 
L 199.165002 -153.012173 
L 198.798118 -155.804847 
L 198.431233 -165.332035 
L 198.064349 -159.141852 
L 197.697464 -164.783357 
L 197.33058 -165.639136 
L 196.963695 -153.159099 
L 196.596811 -157.48089 
L 196.229927 -164.304632 
L 195.863042 -158.249131 
L 195.496158 -167.533816 
L 195.129273 -157.416498 
L 194.762389 -158.060189 
L 194.395504 -157.83358 
L 194.02862 -160.852886 
L 193.661735 -168.15195 
L 193.294851 -158.981824 
L 192.927967 -156.020805 
L 192.561082 -156.095549 
L 192.194198 -157.744185 
L 191.827313 -157.971701 
L 191.460429 -152.704749 
L 191.093544 -169.616408 
L 190.72666 -161.489418 
L 190.359775 -153.40741 
L 189.992891 -161.202021 
L 189.626006 -158.122152 
L 189.259122 -161.669958 
L 188.892238 -156.104423 
L 188.525353 -165.660298 
L 188.158469 -154.502626 
L 187.791584 -165.754502 
L 187.4247 -154.758535 
L 187.057815 -157.374333 
L 186.690931 -160.667168 
L 186.324046 -163.250296 
L 185.957162 -167.498341 
L 185.590277 -164.989849 
L 185.223393 -171.725263 
L 184.856509 -163.228093 
L 184.489624 -161.681775 
L 184.12274 -157.145137 
L 183.755855 -166.824591 
L 183.388971 -167.414243 
L 183.022086 -160.988358 
L 182.655202 -158.510177 
L 182.288317 -160.499473 
L 181.921433 -159.882332 
L 181.554549 -173.477596 
L 181.187664 -163.774837 
L 180.82078 -156.557959 
L 180.453895 -163.236222 
L 180.087011 -152.901053 
L 179.720126 -161.837622 
L 179.353242 -159.15513 
L 178.986357 -153.707231 
L 178.619473 -160.585002 
L 178.252588 -168.160165 
L 177.885704 -157.96433 
L 177.51882 -164.282759 
L 177.151935 -158.14616 
L 176.785051 -166.365433 
L 176.418166 -162.143768 
L 176.051282 -177.550566 
L 175.684397 -165.372738 
L 175.317513 -165.766673 
L 174.950628 -157.981236 
L 174.583744 -164.866461 
L 174.21686 -160.633299 
L 173.849975 -162.417426 
L 173.483091 -157.248052 
L 173.116206 -158.727335 
L 172.749322 -158.579471 
L 172.382437 -161.066862 
L 172.015553 -166.53517 
L 171.648668 -162.66286 
L 171.281784 -158.272139 
L 170.914899 -167.337579 
L 170.548015 -162.583852 
L 170.181131 -156.053937 
L 169.814246 -157.580775 
L 169.447362 -157.656154 
L 169.080477 -158.327836 
L 168.713593 -157.130933 
L 168.346708 -158.893546 
L 167.979824 -168.423992 
L 167.612939 -165.069346 
L 167.246055 -164.469957 
L 166.879171 -164.523052 
L 166.512286 -164.993951 
L 166.145402 -160.955422 
L 165.778517 -175.067046 
L 165.411633 -162.607993 
L 165.044748 -167.188664 
L 164.677864 -153.326605 
L 164.310979 -163.077076 
L 163.944095 -161.359455 
L 163.57721 -160.066002 
L 163.210326 -161.349212 
L 162.843442 -167.886706 
L 162.476557 -173.689267 
L 162.109673 -162.897167 
L 161.742788 -158.092318 
L 161.375904 -159.59889 
L 161.009019 -172.869588 
L 160.642135 -162.796559 
L 160.27525 -167.077444 
L 159.908366 -170.818861 
L 159.541482 -163.958401 
L 159.174597 -166.801103 
L 158.807713 -159.435804 
L 158.440828 -162.198637 
L 158.073944 -172.056588 
L 157.707059 -165.885233 
L 157.340175 -159.052423 
L 156.97329 -168.459428 
L 156.606406 -163.505952 
L 156.239521 -158.231421 
L 155.872637 -160.419383 
L 155.505753 -162.857173 
L 155.138868 -166.674941 
L 154.771984 -164.508281 
L 154.405099 -166.054365 
L 154.038215 -162.057584 
L 153.67133 -165.034912 
L 153.304446 -167.832153 
L 152.937561 -164.084562 
L 152.570677 -166.958922 
L 152.203793 -171.729317 
L 151.836908 -164.299976 
L 151.470024 -166.152906 
L 151.103139 -170.447559 
L 150.736255 -160.683231 
L 150.36937 -162.771691 
L 150.002486 -166.959991 
L 149.635601 -166.386096 
L 149.268717 -166.807156 
L 148.901832 -166.502032 
L 148.534948 -156.023472 
L 148.168064 -171.126201 
L 147.801179 -163.877662 
L 147.434295 -165.241812 
L 147.06741 -161.871434 
L 146.700526 -170.58061 
L 146.333641 -157.109137 
L 145.966757 -159.826973 
L 145.599872 -169.769402 
L 145.232988 -163.33238 
L 144.866104 -176.014598 
L 144.499219 -167.144279 
L 144.132335 -163.320584 
L 143.76545 -167.943214 
L 143.398566 -162.617036 
L 143.031681 -167.334374 
L 142.664797 -160.094344 
L 142.297912 -175.705993 
L 141.931028 -159.20467 
L 141.564143 -168.406624 
L 141.197259 -163.687335 
L 140.830375 -163.620535 
L 140.46349 -179.977604 
L 140.096606 -175.62359 
L 139.729721 -168.446153 
L 139.362837 -169.000781 
L 138.995952 -165.336309 
L 138.629068 -161.69449 
L 138.262183 -160.560701 
L 137.895299 -169.852822 
L 137.528415 -172.135063 
L 137.16153 -166.065629 
L 136.794646 -174.94863 
L 136.427761 -170.976026 
L 136.060877 -162.739665 
L 135.693992 -161.517086 
L 135.327108 -165.314368 
L 134.960223 -167.760033 
L 134.593339 -162.885781 
L 134.226454 -163.468038 
L 133.85957 -158.114959 
L 133.492686 -158.601506 
L 133.125801 -168.255661 
L 132.758917 -167.2514 
L 132.392032 -175.154894 
L 132.025148 -168.72811 
L 131.658263 -171.737816 
L 131.291379 -173.869948 
L 130.924494 -162.426464 
L 130.55761 -162.03407 
L 130.190726 -166.375009 
L 129.823841 -167.559723 
L 129.456957 -161.159431 
L 129.090072 -161.263837 
L 128.723188 -170.747625 
L 128.356303 -173.840345 
L 127.989419 -174.546745 
L 127.622534 -166.563399 
L 127.25565 -166.557889 
L 126.888765 -163.468779 
L 126.521881 -162.162068 
L 126.154997 -161.087653 
L 125.788112 -172.426601 
L 125.421228 -172.555173 
L 125.054343 -164.811335 
L 124.687459 -169.012244 
L 124.320574 -161.977265 
L 123.95369 -164.368019 
L 123.586805 -158.300688 
L 123.219921 -167.204195 
L 122.853037 -165.144246 
L 122.486152 -165.246789 
L 122.119268 -161.949861 
L 121.752383 -159.956952 
L 121.385499 -168.117461 
L 121.018614 -165.50407 
L 120.65173 -163.985307 
L 120.284845 -161.448608 
L 119.917961 -167.227051 
L 119.551076 -157.300236 
L 119.184192 -170.054585 
L 118.817308 -173.209208 
L 118.450423 -168.729833 
L 118.083539 -170.803226 
L 117.716654 -160.581998 
L 117.34977 -164.667803 
L 116.982885 -161.582047 
L 116.616001 -164.537914 
L 116.249116 -167.5253 
L 115.882232 -161.024422 
L 115.515348 -155.701242 
L 115.148463 -164.622934 
L 114.781579 -163.485353 
L 114.414694 -159.734068 
L 114.04781 -162.083046 
L 113.680925 -161.51058 
L 113.314041 -161.131159 
L 112.947156 -166.728524 
L 112.580272 -164.442982 
L 112.213387 -169.545911 
L 111.846503 -165.482922 
L 111.479619 -168.133727 
L 111.112734 -159.738243 
L 110.74585 -167.484184 
L 110.378965 -156.72825 
L 110.012081 -161.446032 
L 109.645196 -162.631679 
L 109.278312 -156.148562 
L 108.911427 -168.376813 
L 108.544543 -162.258028 
L 108.177658 -168.898579 
L 107.810774 -169.80761 
L 107.44389 -163.882323 
L 107.077005 -160.83177 
L 106.710121 -168.853506 
L 106.343236 -166.633874 
L 105.976352 -163.148492 
L 105.609467 -163.312988 
L 105.242583 -163.433641 
L 104.875698 -167.882341 
L 104.508814 -162.098308 
L 104.14193 -164.471702 
L 103.775045 -168.553916 
L 103.408161 -162.813532 
L 103.041276 -169.512568 
L 102.674392 -162.656951 
L 102.307507 -165.212337 
L 101.940623 -164.593284 
L 101.573738 -166.993405 
L 101.206854 -165.272469 
L 100.839969 -159.881442 
L 100.473085 -162.084117 
L 100.106201 -157.965164 
L 99.739316 -166.797555 
L 99.372432 -164.34564 
L 99.005547 -162.386387 
L 98.638663 -166.512016 
L 98.271778 -169.891892 
L 97.904894 -160.53545 
L 97.538009 -164.972113 
L 97.171125 -163.272536 
L 96.804241 -158.99764 
L 96.437356 -169.132446 
L 96.070472 -159.496971 
L 95.703587 -161.808119 
L 95.336703 -158.272175 
L 94.969818 -157.654984 
L 94.602934 -158.946157 
L 94.236049 -162.24159 
L 93.869165 -161.704153 
L 93.50228 -162.801103 
L 93.135396 -167.48868 
L 92.768512 -164.283061 
L 92.401627 -158.911547 
L 92.034743 -163.696777 
L 91.667858 -155.535365 
L 91.300974 -161.649252 
L 90.934089 -162.578255 
L 90.567205 -159.508038 
L 90.20032 -163.119591 
L 89.833436 -164.182743 
L 89.466552 -157.466156 
L 89.099667 -163.729072 
L 88.732783 -158.467827 
L 88.365898 -165.424421 
L 87.999014 -164.285586 
L 87.632129 -170.116328 
L 87.265245 -159.864005 
L 86.89836 -160.274218 
L 86.531476 -161.860379 
L 86.164591 -163.683225 
L 85.797707 -169.52677 
L 85.430823 -159.233294 
L 85.063938 -163.179868 
L 84.697054 -164.011535 
L 84.330169 -157.348982 
L 83.963285 -165.534 
L 83.5964 -155.617144 
L 83.229516 -157.921957 
L 82.862631 -168.578151 
L 82.495747 -160.020753 
L 82.128863 -159.191967 
L 81.761978 -159.97103 
L 81.395094 -165.483814 
L 81.028209 -161.383953 
L 80.661325 -159.603016 
L 80.29444 -162.241976 
L 79.927556 -167.949337 
L 79.560671 -159.732297 
L 79.193787 -161.080876 
L 78.826902 -161.680438 
L 78.460018 -155.636334 
L 78.093134 -158.004959 
L 77.726249 -154.253569 
L 77.359365 -157.759639 
L 76.99248 -157.61328 
L 76.625596 -159.869785 
L 76.258711 -163.72999 
L 75.891827 -161.768034 
L 75.524942 -159.432772 
L 75.158058 -162.811294 
L 74.791174 -175.237279 
L 74.424289 -164.303823 
L 74.057405 -156.36689 
L 73.69052 -159.254737 
L 73.323636 -161.941297 
L 72.956751 -157.974879 
L 72.589867 -163.155706 
L 72.222982 -170.548091 
L 71.856098 -164.970606 
L 71.489213 -163.500353 
L 71.122329 -159.562338 
L 70.755445 -154.671734 
L 70.38856 -163.162199 
L 70.021676 -170.759246 
L 69.654791 -155.595895 
L 69.287907 -157.965756 
L 68.921022 -165.67914 
L 68.554138 -166.965624 
L 68.187253 -155.523787 
L 67.820369 -159.481394 
L 67.453485 -168.469476 
L 67.0866 -162.903984 
L 66.719716 -162.30677 
L 66.352831 -165.016156 
L 65.985947 -150.396104 
L 65.619062 -154.413432 
L 65.252178 -154.427909 
L 64.885293 -160.343871 
L 64.518409 -158.625126 
L 64.151524 -174.656276 
L 63.78464 -179.955499 
L 63.417756 -186.503523 
L 63.050871 -183.750184 
L 62.683987 -181.905601 
L 62.317102 -178.434183 
L 61.950218 -167.076489 
L 61.583333 -159.588854 
L 61.216449 -147.666261 
z
"/>
    </defs>
    <g clip-path="url(#p15dc47f389)">
     <use xlink:href="#m0d29b2cd99" x="0" y="200.79625" style="fill: #c0392b; fill-opacity: 0.12"/>
    </g>
   </g>
   <g id="matplotlib.axis_1">
    <g id="xtick_1">
     <g id="line2d_1">
      <path d="M 60.849564 163.24 
L 60.849564 7.2 
" clip-path="url(#p15dc47f389)" style="fill: none; stroke: #b0b0b0; stroke-opacity: 0.3; stroke-width: 0.8; stroke-linecap: square"/>
     </g>
     <g id="line2d_2">
      <defs>
       <path id="md52ec2ff24" d="M 0 0 
L 0 3.5 
" style="stroke: #000000; stroke-width: 0.8"/>
      </defs>
      <g>
       <use xlink:href="#md52ec2ff24" x="60.849564" y="163.24" style="stroke: #000000; stroke-width: 0.8"/>
      </g>
     </g>
     <g id="text_1">
      <text style="font-size: 10px; font-family: 'DejaVu Sans', 'Bitstream Vera Sans', 'Computer Modern Sans Serif', 'Lucida Grande', 'Verdana', 'Geneva', 'Lucid', 'Arial', 'Helvetica', 'Avant Garde', sans-serif; text-anchor: middle" x="60.849564" y="177.838437" transform="rotate(-0 60.849564 177.838437)">0.0</text>
     </g>
    </g>
    <g id="xtick_2">
     <g id="line2d_3">
      <path d="M 96.678124 163.24 
L 96.678124 7.2 
" clip-path="url(#p15dc47f389)" style="fill: none; stroke: #b0b0b0; stroke-opacity: 0.3; stroke-width: 0.8; stroke-linecap: square"/>
     </g>
     <g id="line2d_4">
      <g>
       <use xlink:href="#md52ec2ff24" x="96.678124" y="163.24" style="stroke: #000000; stroke-width: 0.8"/>
      </g>
     </g>
     <g id="text_2">
      <text style="font-size: 10px; font-family: 'DejaVu Sans', 'Bitstream Vera Sans', 'Computer Modern Sans Serif', 'Lucida Grande', 'Verdana', 'Geneva', 'Lucid', 'Arial', 'Helvetica', 'Avant Garde', sans-serif; text-anchor: middle" x="96.678124" y="177.838437" transform="rotate(-0 96.678124 177.838437)">0.2</text>
     </g>
    </g>
    <g id="xtick_3">
     <g id="line2d_5">
      <path d="M 132.506684 163.24 
L 132.506684 7.2 
" clip-path="url(#p15dc47f389)" style="fill: none; stroke: #b0b0b0; stroke-opacity: 0.3; stroke-width: 0.8; stroke-linecap: square"/>
     </g>
     <g id="line2d_6">
      <g>
       <use xlink:href="#md52ec2ff24" x="132.506684" y="163.24" style="stroke: #000000; stroke-width: 0.8"/>
      </g>
     </g>
     <g id="text_3">
      <text style="font-size: 10px; font-family: 'DejaVu Sans', 'Bitstream Vera Sans', 'Computer Modern Sans Serif', 'Lucida Grande', 'Verdana', 'Geneva', 'Lucid', 'Arial', 'Helvetica', 'Avant Garde', sans-serif; text-anchor: middle" x="132.506684" y="177.838437" transform="rotate(-0 132.506684 177.838437)">0.4</text>
     </g>
    </g>
    <g id="xtick_4">
     <g id="line2d_7">
      <path d="M 168.335243 163.24 
L 168.335243 7.2 
" clip-path="url(#p15dc47f389)" style="fill: none; stroke: #b0b0b0; stroke-opacity: 0.3; stroke-width: 0.8; stroke-linecap: square"/>
     </g>
     <g id="line2d_8">
      <g>
       <use xlink:href="#md52ec2ff24" x="168.335243" y="163.24" style="stroke: #000000; stroke-width: 0.8"/>
      </g>
     </g>
     <g id="text_4">
      <text style="font-size: 10px; font-family: 'DejaVu Sans', 'Bitstream Vera Sans', 'Computer Modern Sans Serif', 'Lucida Grande', 'Verdana', 'Geneva', 'Lucid', 'Arial', 'Helvetica', 'Avant Garde', sans-serif; text-anchor: middle" x="168.335243" y="177.838437" transform="rotate(-0 168.335243 177.838437)">0.6</text>
     </g>
    </g>
    <g id="xtick_5">
     <g id="line2d_9">
      <path d="M 204.163803 163.24 
L 204.163803 7.2 
" clip-path="url(#p15dc47f389)" style="fill: none; stroke: #b0b0b0; stroke-opacity: 0.3; stroke-width: 0.8; stroke-linecap: square"/>
     </g>
     <g id="line2d_10">
      <g>
       <use xlink:href="#md52ec2ff24" x="204.163803" y="163.24" style="stroke: #000000; stroke-width: 0.8"/>
      </g>
     </g>
     <g id="text_5">
      <text style="font-size: 10px; font-family: 'DejaVu Sans', 'Bitstream Vera Sans', 'Computer Modern Sans Serif', 'Lucida Grande', 'Verdana', 'Geneva', 'Lucid', 'Arial', 'Helvetica', 'Avant Garde', sans-serif; text-anchor: middle" x="204.163803" y="177.838437" transform="rotate(-0 204.163803 177.838437)">0.8</text>
     </g>
    </g>
    <g id="xtick_6">
     <g id="line2d_11">
      <path d="M 239.992362 163.24 
L 239.992362 7.2 
" clip-path="url(#p15dc47f389)" style="fill: none; stroke: #b0b0b0; stroke-opacity: 0.3; stroke-width: 0.8; stroke-linecap: square"/>
     </g>
     <g id="line2d_12">
      <g>
       <use xlink:href="#md52ec2ff24" x="239.992362" y="163.24" style="stroke: #000000; stroke-width: 0.8"/>
      </g>
     </g>
     <g id="text_6">
      <text style="font-size: 10px; font-family: 'DejaVu Sans', 'Bitstream Vera Sans', 'Computer Modern Sans Serif', 'Lucida Grande', 'Verdana', 'Geneva', 'Lucid', 'Arial', 'Helvetica', 'Avant Garde', sans-serif; text-anchor: middle" x="239.992362" y="177.838437" transform="rotate(-0 239.992362 177.838437)">1.0</text>
     </g>
    </g>
    <g id="text_7">
     <text style="font-size: 10px; font-family: 'DejaVu Sans', 'Bitstream Vera Sans', 'Computer Modern Sans Serif', 'Lucida Grande', 'Verdana', 'Geneva', 'Lucid', 'Arial', 'Helvetica', 'Avant Garde', sans-serif; text-anchor: middle" x="150.552813" y="191.516562" transform="rotate(-0 150.552813 191.516562)">environment step</text>
    </g>
    <g id="text_8">
     <text style="font-size: 10px; font-family: 'DejaVu Sans', 'Bitstream Vera Sans', 'Computer Modern Sans Serif', 'Lucida Grande', 'Verdana', 'Geneva', 'Lucid', 'Arial', 'Helvetica', 'Avant Garde', sans-serif; text-anchor: end" x="248.822813" y="190.516562" transform="rotate(-0 248.822813 190.516562)">1e6</text>
    </g>
   </g>
   <g id="matplotlib.axis_2">
    <g id="ytick_1">
     <g id="line2d_13">
      <path d="M 52.282813 153.028853 
L 248.822813 153.028853 
" clip-path="url(#p15dc47f389)" style="fill: none; stroke: #b0b0b0; stroke-opacity: 0.3; stroke-width: 0.8; stroke-linecap: square"/>
     </g>
     <g id="line2d_14">
      <defs>
       <path id="meb23fb85bc" d="M 0 0 
L -3.5 0 
" style="stroke: #000000; stroke-width: 0.8"/>
      </defs>
      <g>
       <use xlink:href="#meb23fb85bc" x="52.282813" y="153.028853" style="stroke: #000000; stroke-width: 0.8"/>
      </g>
     </g>
     <g id="text_9">
      <text style="font-size: 10px; font-family: 'DejaVu Sans', 'Bitstream Vera Sans', 'Computer Modern Sans Serif', 'Lucida Grande', 'Verdana', 'Geneva', 'Lucid', 'Arial', 'Helvetica', 'Avant Garde', sans-serif; text-anchor: end" x="45.282813" y="156.828072" transform="rotate(-0 45.282813 156.828072)">−2.0</text>
     </g>
    </g>
    <g id="ytick_2">
     <g id="line2d_15">
      <path d="M 52.282813 133.468696 
L 248.822813 133.468696 
" clip-path="url(#p15dc47f389)" style="fill: none; stroke: #b0b0b0; stroke-opacity: 0.3; stroke-width: 0.8; stroke-linecap: square"/>
     </g>
     <g id="line2d_16">
      <g>
       <use xlink:href="#meb23fb85bc" x="52.282813" y="133.468696" style="stroke: #000000; stroke-width: 0.8"/>
      </g>
     </g>
     <g id="text_10">
      <text style="font-size: 10px; font-family: 'DejaVu Sans', 'Bitstream Vera Sans', 'Computer Modern Sans Serif', 'Lucida Grande', 'Verdana', 'Geneva', 'Lucid', 'Arial', 'Helvetica', 'Avant Garde', sans-serif; text-anchor: end" x="45.282813" y="137.267915" transform="rotate(-0 45.282813 137.267915)">−1.5</text>
     </g>
    </g>
    <g id="ytick_3">
     <g id="line2d_17">
      <path d="M 52.282813 113.90854 
L 248.822813 113.90854 
" clip-path="url(#p15dc47f389)" style="fill: none; stroke: #b0b0b0; stroke-opacity: 0.3; stroke-width: 0.8; stroke-linecap: square"/>
     </g>
     <g id="line2d_18">
      <g>
       <use xlink:href="#meb23fb85bc" x="52.282813" y="113.90854" style="stroke: #000000; stroke-width: 0.8"/>
      </g>
     </g>
     <g id="text_11">
      <text style="font-size: 10px; font-family: 'DejaVu Sans', 'Bitstream Vera Sans', 'Computer Modern Sans Serif', 'Lucida Grande', 'Verdana', 'Geneva', 'Lucid', 'Arial', 'Helvetica', 'Avant Garde', sans-serif; text-anchor: end" x="45.282813" y="117.707758" transform="rotate(-0 45.282813 117.707758)">−1.0</text>
     </g>
    </g>
    <g id="ytick_4">
     <g id="line2d_19">
      <path d="M 52.282813 94.348383 
L 248.822813 94.348383 
" clip-path="url(#p15dc47f389)" style="fill: none; stroke: #b0b0b0; stroke-opacity: 0.3; stroke-width: 0.8; stroke-linecap: square"/>
     </g>
     <g id="line2d_20">
      <g>
       <use xlink:href="#meb23fb85bc" x="52.282813" y="94.348383" style="stroke: #000000; stroke-width: 0.8"/>
      </g>
     </g>
     <g id="text_12">
      <text style="font-size: 10px; font-family: 'DejaVu Sans', 'Bitstream Vera Sans', 'Computer Modern Sans Serif', 'Lucida Grande', 'Verdana', 'Geneva', 'Lucid', 'Arial', 'Helvetica', 'Avant Garde', sans-serif; text-anchor: end" x="45.282813" y="98.147602" transform="rotate(-0 45.282813 98.147602)">−0.5</text>
     </g>
    </g>
    <g id="ytick_5">
     <g id="line2d_21">
      <path d="M 52.282813 74.788226 
L 248.822813 74.788226 
" clip-path="url(#p15dc47f389)" style="fill: none; stroke: #b0b0b0; stroke-opacity: 0.3; stroke-width: 0.8; stroke-linecap: square"/>
     </g>
     <g id="line2d_22">
      <g>
       <use xlink:href="#meb23fb85bc" x="52.282813" y="74.788226" style="stroke: #000000; stroke-width: 0.8"/>
      </g>
     </g>
     <g id="text_13">
      <text style="font-size: 10px; font-family: 'DejaVu Sans', 'Bitstream Vera Sans', 'Computer Modern Sans Serif', 'Lucida Grande', 'Verdana', 'Geneva', 'Lucid', 'Arial', 'Helvetica', 'Avant Garde', sans-serif; text-anchor: end" x="45.282813" y="78.587445" transform="rotate(-0 45.282813 78.587445)">0.0</text>
     </g>
    </g>
    <g id="ytick_6">
     <g id="line2d_23">
      <path d="M 52.282813 55.228069 
L 248.822813 55.228069 
" clip-path="url(#p15dc47f389)" style="fill: none; stroke: #b0b0b0; stroke-opacity: 0.3; stroke-width: 0.8; stroke-linecap: square"/>
     </g>
     <g id="line2d_24">
      <g>
       <use xlink:href="#meb23fb85bc" x="52.282813" y="55.228069" style="stroke: #000000; stroke-width: 0.8"/>
      </g>
     </g>
     <g id="text_14">
      <text style="font-size: 10px; font-family: 'DejaVu Sans', 'Bitstream Vera Sans', 'Computer Modern Sans Serif', 'Lucida Grande', 'Verdana', 'Geneva', 'Lucid', 'Arial', 'Helvetica', 'Avant Garde', sans-serif; text-anchor: end" x="45.282813" y="59.027288" transform="rotate(-0 45.282813 59.027288)">0.5</text>
     </g>
    </g>
    <g id="ytick_7">
     <g id="line2d_25">
      <path d="M 52.282813 35.667912 
L 248.822813 35.667912 
" clip-path="url(#p15dc47f389)" style="fill: none; stroke: #b0b0b0; stroke-opacity: 0.3; stroke-width: 0.8; stroke-linecap: square"/>
     </g>
     <g id="line2d_26">
      <g>
       <use xlink:href="#meb23fb85bc" x="52.282813" y="35.667912" style="stroke: #000000; stroke-width: 0.8"/>
      </g>
     </g>
     <g id="text_15">
      <text style="font-size: 10px; font-family: 'DejaVu Sans', 'Bitstream Vera Sans', 'Computer Modern Sans Serif', 'Lucida Grande', 'Verdana', 'Geneva', 'Lucid', 'Arial', 'Helvetica', 'Avant Garde', sans-serif; text-anchor: end" x="45.282813" y="39.467131" transform="rotate(-0 45.282813 39.467131)">1.0</text>
     </g>
    </g>
    <g id="ytick_8">
     <g id="line2d_27">
      <path d="M 52.282813 16.107756 
L 248.822813 16.107756 
" clip-path="url(#p15dc47f389)" style="fill: none; stroke: #b0b0b0; stroke-opacity: 0.3; stroke-width: 0.8; stroke-linecap: square"/>
     </g>
     <g id="line2d_28">
      <g>
       <use xlink:href="#meb23fb85bc" x="52.282813" y="16.107756" style="stroke: #000000; stroke-width: 0.8"/>
      </g>
     </g>
     <g id="text_16">
      <text style="font-size: 10px; font-family: 'DejaVu Sans', 'Bitstream Vera Sans', 'Computer Modern Sans Serif', 'Lucida Grande', 'Verdana', 'Geneva', 'Lucid', 'Arial', 'Helvetica', 'Avant Garde', sans-serif; text-anchor: end" x="45.282813" y="19.906974" transform="rotate(-0 45.282813 19.906974)">1.5</text>
     </g>
    </g>
    <g id="text_17">
     <!-- $\beta_t$ -->
     <g transform="translate(14.9 89.92) rotate(-90)">
      <text>
       <tspan x="0" y="-0.34375" style="font-style: oblique; font-size: 10px; font-family: 'DejaVu Sans'">β</tspan>
       <tspan x="6.381836" y="1.296875" style="font-style: oblique; font-size: 7px; font-family: 'DejaVu Sans'">t</tspan>
      </text>
     </g>
    </g>
   </g>
   <g id="line2d_29">
    <path d="M 61.216449 74.788226 
L 239.889176 74.788226 
L 239.889176 74.788226 
" clip-path="url(#p15dc47f389)" style="fill: none; stroke: #c0392b; stroke-width: 1.5; stroke-linecap: square"/>
   </g>
   <g id="patch_3">
    <path d="M 52.282813 163.24 
L 52.282813 7.2 
" style="fill: none; stroke: #000000; stroke-width: 0.8; stroke-linejoin: miter; stroke-linecap: square"/>
   </g>
   <g id="patch_4">
    <path d="M 248.822813 163.24 
L 248.822813 7.2 
" style="fill: none; stroke: #000000; stroke-width: 0.8; stroke-linejoin: miter; stroke-linecap: square"/>
   </g>
   <g id="patch_5">
    <path d="M 52.282813 163.24 
L 248.822813 163.24 
" style="fill: none; stroke: #000000; stroke-width: 0.8; stroke-linejoin: miter; stroke-linecap: square"/>
   </g>
   <g id="patch_6">
    <path d="M 52.282813 7.2 
L 248.822813 7.2 
" style="fill: none; stroke: #000000; stroke-width: 0.8; stroke-linejoin: miter; stroke-linecap: square"/>
   </g>
  </g>
 </g>
 <defs>
  <clipPath id="p15dc47f389">
   <rect x="52.282813" y="7.2" width="196.54" height="156.04"/>
  </clipPath>
 </defs>
</svg>
