<?xml version="1.0" encoding="utf-8" standalone="no"?>
<!DOCTYPE svg PUBLIC "-//W3C//DTD SVG 1.1//EN"
  "http://www.w3.org/Graphics/SVG/1.1/DTD/svg11.dtd">
<svg xmlns:xlink="http://www.w3.org/1999/xlink" width="256.022188pt" height="200.79625pt" viewBox="0 0 256.022188 200.79625" xmlns="http://www.w3.org/2000/svg" version="1.1">
 <metadata>
  <rdf:RDF xmlns:dc="http://purl.org/dc/elements/1.1/" xmlns:cc="http://creativecommons.org/ns#" xmlns:rdf="http://www.w3.org/1999/02/22-rdf-syntax-ns#">
   <cc:Work>
    <dc:type rdf:resource="http://purl.org/dc/dcmitype/StillImage"/>
    <dc:format>image/svg+xml</dc:format>
    <dc:creator>
     <cc:Agent>
      <dc:title>Matplotlib v3.10.9, https://matplotlib.org/</dc:title>
     </cc:Agent>
    </dc:creator>
   </cc:Work>
  </rdf:RDF>
 </metadata>
 <defs>
  <style type="text/css">*{stroke-linejoin: round; stroke-linecap: butt}</style>
 </defs>
 <g id="figure_1">
  <g id="patch_1">
   <path d="M 0 200.79625 
L 256.022188 200.79625 
L 256.022188 0 
L 0 0 
z
" style="fill: #ffffff"/>
  </g>
  <g id="axes_1">
   <g id="patch_2">
    <path d="M 42.742188 163.24 
L 248.822188 163.24 
L 248.822188 7.2 
L 42.742188 7.2 
z
" style="fill: #ffffff"/>
   </g>
   <g id="FillBetweenPolyCollection_1">
    <defs>
     <path id="m75017ec445" d="M 52.10946 -157.417883 
L 52.10946 -141.691074 
L 52.494153 -134.205862 
L 52.878846 -131.702566 
L 53.263539 -127.846204 
L 53.648232 -126.291261 
L 54.032925 -126.238789 
L 54.417618 -124.877558 
L 54.802311 -124.412753 
L 55.187004 -124.814264 
L 55.571697 -124.801389 
L 55.956389 -124.196555 
L 56.341082 -123.884157 
L 56.725775 -123.895391 
L 57.110468 -124.993711 
L 57.495161 -124.306565 
L 57.879854 -124.79506 
L 58.264547 -123.461078 
L 58.64924 -125.283155 
L 59.033933 -124.513569 
L 59.418626 -124.876006 
L 59.803319 -124.887034 
L 60.188012 -125.28714 
L 60.572705 -124.859399 
L 60.957398 -124.940312 
L 61.34209 -124.163249 
L 61.726783 -124.857481 
L 62.111476 -122.905559 
L 62.496169 -123.153938 
L 62.880862 -124.181239 
L 63.265555 -123.925798 
L 63.650248 -123.999849 
L 64.034941 -124.318942 
L 64.419634 -123.963687 
L 64.804327 -124.521259 
L 65.18902 -124.148009 
L 65.573713 -124.338867 
L 65.958406 -123.3896 
L 66.343098 -122.763134 
L 66.727791 -124.088512 
L 67.112484 -124.965124 
L 67.497177 -123.01285 
L 67.88187 -124.24291 
L 68.266563 -124.165567 
L 68.651256 -124.991033 
L 69.035949 -123.616361 
L 69.420642 -123.752045 
L 69.805335 -121.561819 
L 70.190028 -122.829226 
L 70.574721 -123.38648 
L 70.959414 -123.332361 
L 71.344106 -123.207396 
L 71.728799 -123.537554 
L 72.113492 -123.130613 
L 72.498185 -122.78296 
L 72.882878 -123.443585 
L 73.267571 -122.880579 
L 73.652264 -123.559575 
L 74.036957 -121.766037 
L 74.42165 -123.721119 
L 74.806343 -123.289758 
L 75.191036 -123.509855 
L 75.575729 -122.772914 
L 75.960422 -121.981084 
L 76.345115 -123.566107 
L 76.729807 -122.226717 
L 77.1145 -124.039523 
L 77.499193 -123.382633 
L 77.883886 -122.675497 
L 78.268579 -121.244329 
L 78.653272 -122.998663 
L 79.037965 -122.43255 
L 79.422658 -123.083852 
L 79.807351 -123.287186 
L 80.192044 -121.690914 
L 80.576737 -121.787599 
L 80.96143 -122.284269 
L 81.346123 -123.285357 
L 81.730815 -120.833972 
L 82.115508 -122.769799 
L 82.500201 -121.998661 
L 82.884894 -123.452731 
L 83.269587 -123.634368 
L 83.65428 -122.378409 
L 84.038973 -122.600767 
L 84.423666 -121.865294 
L 84.808359 -121.208632 
L 85.193052 -122.220481 
L 85.577745 -120.670636 
L 85.962438 -122.718324 
L 86.347131 -123.293267 
L 86.731823 -123.32901 
L 87.116516 -120.678295 
L 87.501209 -121.599833 
L 87.885902 -120.895359 
L 88.270595 -121.652747 
L 88.655288 -121.402096 
L 89.039981 -123.66067 
L 89.424674 -120.978208 
L 89.809367 -122.555236 
L 90.19406 -121.46866 
L 90.578753 -120.434497 
L 90.963446 -122.450361 
L 91.348139 -123.258063 
L 91.732832 -120.459571 
L 92.117524 -121.434789 
L 92.502217 -121.132841 
L 92.88691 -119.539598 
L 93.271603 -120.022257 
L 93.656296 -121.981553 
L 94.040989 -120.300717 
L 94.425682 -121.586053 
L 94.810375 -124.263251 
L 95.195068 -120.617991 
L 95.579761 -121.208585 
L 95.964454 -119.118693 
L 96.349147 -120.104449 
L 96.73384 -121.650406 
L 97.118532 -120.829327 
L 97.503225 -122.801831 
L 97.887918 -120.605793 
L 98.272611 -120.303852 
L 98.657304 -121.390917 
L 99.041997 -121.062497 
L 99.42669 -122.089372 
L 99.811383 -121.673432 
L 100.196076 -121.417083 
L 100.580769 -121.139999 
L 100.965462 -121.1021 
L 101.350155 -121.475214 
L 101.734848 -121.101621 
L 102.11954 -121.497911 
L 102.504233 -121.002514 
L 102.888926 -122.68942 
L 103.273619 -122.221051 
L 103.658312 -120.331101 
L 104.043005 -122.191883 
L 104.427698 -122.517406 
L 104.812391 -121.115938 
L 105.197084 -121.539436 
L 105.581777 -122.064996 
L 105.96647 -121.592718 
L 106.351163 -121.31369 
L 106.735856 -121.660582 
L 107.120549 -120.045458 
L 107.505241 -121.599863 
L 107.889934 -120.223862 
L 108.274627 -120.425804 
L 108.65932 -121.250065 
L 109.044013 -120.186001 
L 109.428706 -119.360977 
L 109.813399 -122.110821 
L 110.198092 -120.527439 
L 110.582785 -120.368402 
L 110.967478 -121.313365 
L 111.352171 -121.833912 
L 111.736864 -119.9215 
L 112.121557 -119.067319 
L 112.506249 -121.178973 
L 112.890942 -120.877702 
L 113.275635 -122.159671 
L 113.660328 -120.600627 
L 114.045021 -122.258153 
L 114.429714 -119.96088 
L 114.814407 -119.75543 
L 115.1991 -120.278626 
L 115.583793 -120.514568 
L 115.968486 -122.385647 
L 116.353179 -120.336473 
L 116.737872 -121.217132 
L 117.122565 -121.482292 
L 117.507258 -121.370968 
L 117.89195 -119.619168 
L 118.276643 -120.205926 
L 118.661336 -122.750986 
L 119.046029 -120.427135 
L 119.430722 -120.50234 
L 119.815415 -121.158638 
L 120.200108 -120.720405 
L 120.584801 -120.672223 
L 120.969494 -120.493367 
L 121.354187 -120.381629 
L 121.73888 -120.060028 
L 122.123573 -119.016237 
L 122.508266 -121.266134 
L 122.892958 -121.573807 
L 123.277651 -122.535709 
L 123.662344 -122.51693 
L 124.047037 -120.723961 
L 124.43173 -121.454499 
L 124.816423 -120.011266 
L 125.201116 -121.811631 
L 125.585809 -120.125097 
L 125.970502 -120.805458 
L 126.355195 -120.839899 
L 126.739888 -121.890434 
L 127.124581 -119.063069 
L 127.509274 -120.306227 
L 127.893966 -121.611361 
L 128.278659 -122.8991 
L 128.663352 -121.271692 
L 129.048045 -123.993982 
L 129.432738 -121.530109 
L 129.817431 -122.330495 
L 130.202124 -122.284887 
L 130.586817 -119.799295 
L 130.97151 -121.487477 
L 131.356203 -122.383867 
L 131.740896 -119.211416 
L 132.125589 -118.922052 
L 132.510282 -121.541309 
L 132.894975 -119.598177 
L 133.279667 -121.195742 
L 133.66436 -122.599303 
L 134.049053 -120.928348 
L 134.433746 -121.49745 
L 134.818439 -120.300701 
L 135.203132 -120.004224 
L 135.587825 -120.38635 
L 135.972518 -120.234096 
L 136.357211 -120.533213 
L 136.741904 -121.361072 
L 137.126597 -120.732461 
L 137.51129 -119.565093 
L 137.895983 -121.61821 
L 138.280675 -120.542227 
L 138.665368 -120.556906 
L 139.050061 -120.418567 
L 139.434754 -122.585828 
L 139.819447 -122.843776 
L 140.20414 -121.168861 
L 140.588833 -120.067207 
L 140.973526 -121.310587 
L 141.358219 -121.048722 
L 141.742912 -120.901027 
L 142.127605 -119.985158 
L 142.512298 -120.081991 
L 142.896991 -120.058954 
L 143.281683 -120.942646 
L 143.666376 -121.394191 
L 144.051069 -120.924041 
L 144.435762 -122.211001 
L 144.820455 -119.727385 
L 145.205148 -121.524381 
L 145.589841 -122.934381 
L 145.974534 -120.864082 
L 146.359227 -119.23524 
L 146.74392 -120.794564 
L 147.128613 -121.902229 
L 147.513306 -122.20953 
L 147.897999 -121.510634 
L 148.282692 -120.657181 
L 148.667384 -121.02212 
L 149.052077 -122.039123 
L 149.43677 -121.514417 
L 149.821463 -122.356001 
L 150.206156 -120.650233 
L 150.590849 -120.95035 
L 150.975542 -120.772062 
L 151.360235 -121.270867 
L 151.744928 -121.385306 
L 152.129621 -121.512856 
L 152.514314 -120.068174 
L 152.899007 -121.145813 
L 153.2837 -123.194555 
L 153.668392 -120.652492 
L 154.053085 -121.737369 
L 154.437778 -119.5691 
L 154.822471 -121.14543 
L 155.207164 -121.633285 
L 155.591857 -121.32502 
L 155.97655 -121.332794 
L 156.361243 -120.933469 
L 156.745936 -121.682448 
L 157.130629 -120.533408 
L 157.515322 -122.481221 
L 157.900015 -122.054712 
L 158.284708 -121.12051 
L 158.6694 -119.357077 
L 159.054093 -123.292842 
L 159.438786 -122.336608 
L 159.823479 -120.902903 
L 160.208172 -123.222104 
L 160.592865 -120.362923 
L 160.977558 -121.655686 
L 161.362251 -120.383692 
L 161.746944 -120.967488 
L 162.131637 -121.415583 
L 162.51633 -123.412715 
L 162.901023 -120.921115 
L 163.285716 -123.495612 
L 163.670409 -122.768925 
L 164.055101 -121.842121 
L 164.439794 -123.461796 
L 164.824487 -120.655135 
L 165.20918 -120.242356 
L 165.593873 -121.677381 
L 165.978566 -122.294759 
L 166.363259 -120.671772 
L 166.747952 -123.224057 
L 167.132645 -120.116979 
L 167.517338 -120.948116 
L 167.902031 -122.740931 
L 168.286724 -122.118064 
L 168.671417 -122.039267 
L 169.056109 -121.321058 
L 169.440802 -123.83348 
L 169.825495 -123.084146 
L 170.210188 -121.833249 
L 170.594881 -122.510298 
L 170.979574 -121.956921 
L 171.364267 -121.308652 
L 171.74896 -121.550099 
L 172.133653 -122.653641 
L 172.518346 -121.716191 
L 172.903039 -121.572297 
L 173.287732 -122.817221 
L 173.672425 -122.493545 
L 174.057117 -122.492966 
L 174.44181 -122.546679 
L 174.826503 -122.383492 
L 175.211196 -122.948566 
L 175.595889 -123.216755 
L 175.980582 -121.2991 
L 176.365275 -119.628976 
L 176.749968 -122.816629 
L 177.134661 -124.780986 
L 177.519354 -122.727017 
L 177.904047 -122.620265 
L 178.28874 -122.631812 
L 178.673433 -123.231517 
L 179.058126 -123.636071 
L 179.442818 -123.061281 
L 179.827511 -124.139318 
L 180.212204 -122.049418 
L 180.596897 -124.002184 
L 180.98159 -124.45251 
L 181.366283 -123.87479 
L 181.750976 -122.545348 
L 182.135669 -124.691357 
L 182.520362 -123.057134 
L 182.905055 -122.551893 
L 183.289748 -122.035174 
L 183.674441 -125.368648 
L 184.059134 -124.462117 
L 184.443826 -122.902998 
L 184.828519 -122.971494 
L 185.213212 -121.908053 
L 185.597905 -123.708721 
L 185.982598 -123.573197 
L 186.367291 -122.720077 
L 186.751984 -123.303517 
L 187.136677 -122.280122 
L 187.52137 -124.254154 
L 187.906063 -124.554413 
L 188.290756 -123.916073 
L 188.675449 -125.885488 
L 189.060142 -124.331311 
L 189.444835 -123.430385 
L 189.829527 -123.664472 
L 190.21422 -126.158223 
L 190.598913 -124.29897 
L 190.983606 -123.725634 
L 191.368299 -123.97261 
L 191.752992 -125.308766 
L 192.137685 -125.369976 
L 192.522378 -125.367217 
L 192.907071 -125.077783 
L 193.291764 -125.811875 
L 193.676457 -124.653708 
L 194.06115 -124.496271 
L 194.445843 -125.134895 
L 194.830535 -125.870083 
L 195.215228 -125.779032 
L 195.599921 -126.251537 
L 195.984614 -125.789693 
L 196.369307 -125.780869 
L 196.754 -124.630813 
L 197.138693 -124.606516 
L 197.523386 -126.347825 
L 197.908079 -125.596852 
L 198.292772 -123.870942 
L 198.677465 -124.495459 
L 199.062158 -126.745439 
L 199.446851 -125.335237 
L 199.831543 -125.207256 
L 200.216236 -125.51675 
L 200.600929 -125.332778 
L 200.985622 -125.145466 
L 201.370315 -125.000916 
L 201.755008 -126.654897 
L 202.139701 -125.787558 
L 202.524394 -125.434057 
L 202.909087 -124.641169 
L 203.29378 -125.193651 
L 203.678473 -127.204183 
L 204.063166 -126.690456 
L 204.447859 -125.395524 
L 204.832552 -125.371234 
L 205.217244 -125.808863 
L 205.601937 -128.491574 
L 205.98663 -126.276523 
L 206.371323 -126.454265 
L 206.756016 -128.181019 
L 207.140709 -128.030275 
L 207.525402 -130.247417 
L 207.910095 -127.269817 
L 208.294788 -128.601395 
L 208.679481 -128.872742 
L 209.064174 -129.457737 
L 209.448867 -125.58019 
L 209.83356 -127.852878 
L 210.218252 -127.968563 
L 210.602945 -129.181142 
L 210.987638 -128.198065 
L 211.372331 -128.870646 
L 211.757024 -129.312388 
L 212.141717 -128.143849 
L 212.52641 -130.669082 
L 212.911103 -128.951722 
L 213.295796 -128.253227 
L 213.680489 -127.707327 
L 214.065182 -127.7994 
L 214.449875 -127.574781 
L 214.834568 -129.933888 
L 215.21926 -129.940449 
L 215.603953 -129.72638 
L 215.988646 -128.725063 
L 216.373339 -129.382448 
L 216.758032 -130.535321 
L 217.142725 -130.405378 
L 217.527418 -132.632464 
L 217.912111 -129.917505 
L 218.296804 -130.474701 
L 218.681497 -131.398781 
L 219.06619 -131.950377 
L 219.450883 -131.648363 
L 219.835576 -130.452593 
L 220.220269 -132.585398 
L 220.604961 -131.283615 
L 220.989654 -133.774564 
L 221.374347 -132.610884 
L 221.75904 -133.8856 
L 222.143733 -132.90716 
L 222.528426 -133.53044 
L 222.913119 -134.489726 
L 223.297812 -131.711212 
L 223.682505 -134.692939 
L 224.067198 -134.608289 
L 224.451891 -135.546683 
L 224.836584 -134.483955 
L 225.221277 -137.274716 
L 225.605969 -136.509187 
L 225.990662 -136.296917 
L 226.375355 -136.074916 
L 226.760048 -136.549649 
L 227.144741 -137.684245 
L 227.529434 -139.632737 
L 227.914127 -138.65572 
L 228.29882 -139.971245 
L 228.683513 -140.105189 
L 229.068206 -144.816672 
L 229.452899 -143.463705 
L 229.837592 -146.270547 
L 230.222285 -146.035836 
L 230.606977 -148.230944 
L 230.99167 -149.818636 
L 231.376363 -149.818636 
L 231.761056 -149.818636 
L 232.145749 -149.818636 
L 232.530442 -149.818636 
L 232.915135 -149.818636 
L 233.299828 -149.818636 
L 233.684521 -149.818636 
L 234.069214 -149.818636 
L 234.453907 -149.818636 
L 234.8386 -149.818636 
L 235.223293 -149.818636 
L 235.607986 -149.818636 
L 235.992678 -149.818636 
L 236.377371 -149.818636 
L 236.762064 -149.818636 
L 237.146757 -149.818636 
L 237.53145 -149.818636 
L 237.916143 -149.818636 
L 238.300836 -149.818636 
L 238.685529 -149.818636 
L 239.070222 -149.818636 
L 239.454915 -149.818636 
L 239.454915 -149.818636 
L 239.454915 -149.818636 
L 239.070222 -149.818636 
L 238.685529 -149.818636 
L 238.300836 -149.818636 
L 237.916143 -149.818636 
L 237.53145 -149.818636 
L 237.146757 -149.818636 
L 236.762064 -149.818636 
L 236.377371 -149.818636 
L 235.992678 -149.818636 
L 235.607986 -149.818636 
L 235.223293 -149.818636 
L 234.8386 -149.818636 
L 234.453907 -149.818636 
L 234.069214 -149.818636 
L 233.684521 -149.818636 
L 233.299828 -149.818636 
L 232.915135 -149.818636 
L 232.530442 -149.818636 
L 232.145749 -149.818636 
L 231.761056 -149.818636 
L 231.376363 -149.818636 
L 230.99167 -149.818636 
L 230.606977 -149.818636 
L 230.222285 -149.818636 
L 229.837592 -149.818636 
L 229.452899 -149.818636 
L 229.068206 -149.818636 
L 228.683513 -151.806554 
L 228.29882 -152.022287 
L 227.914127 -151.738047 
L 227.529434 -154.052676 
L 227.144741 -151.408053 
L 226.760048 -154.110277 
L 226.375355 -156.033118 
L 225.990662 -153.430344 
L 225.605969 -155.636697 
L 225.221277 -155.681121 
L 224.836584 -157.130901 
L 224.451891 -155.264705 
L 224.067198 -155.726865 
L 223.682505 -157.645492 
L 223.297812 -158.196533 
L 222.913119 -157.125351 
L 222.528426 -156.970155 
L 222.143733 -157.907417 
L 221.75904 -158.087458 
L 221.374347 -157.232588 
L 220.989654 -158.430002 
L 220.604961 -159.365781 
L 220.220269 -157.98304 
L 219.835576 -159.675673 
L 219.450883 -159.03545 
L 219.06619 -158.850043 
L 218.681497 -158.705268 
L 218.296804 -159.418008 
L 217.912111 -159.712269 
L 217.527418 -159.844987 
L 217.142725 -158.726313 
L 216.758032 -159.27342 
L 216.373339 -160.554183 
L 215.988646 -160.428163 
L 215.603953 -159.413455 
L 215.21926 -160.151919 
L 214.834568 -158.95621 
L 214.449875 -160.538775 
L 214.065182 -160.37414 
L 213.680489 -160.561946 
L 213.295796 -159.8417 
L 212.911103 -159.835356 
L 212.52641 -160.094414 
L 212.141717 -160.643513 
L 211.757024 -160.559594 
L 211.372331 -159.786575 
L 210.987638 -160.913135 
L 210.602945 -160.27805 
L 210.218252 -160.750284 
L 209.83356 -160.148317 
L 209.448867 -160.733197 
L 209.064174 -160.217212 
L 208.679481 -160.957746 
L 208.294788 -160.493642 
L 207.910095 -161.033455 
L 207.525402 -159.907906 
L 207.140709 -159.997937 
L 206.756016 -160.864419 
L 206.371323 -160.85304 
L 205.98663 -160.486093 
L 205.601937 -160.496703 
L 205.217244 -162.00467 
L 204.832552 -160.989486 
L 204.447859 -160.552219 
L 204.063166 -160.984444 
L 203.678473 -160.741483 
L 203.29378 -161.389132 
L 202.909087 -160.787498 
L 202.524394 -161.127423 
L 202.139701 -160.535365 
L 201.755008 -161.004173 
L 201.370315 -160.416339 
L 200.985622 -161.21681 
L 200.600929 -160.837652 
L 200.216236 -161.308167 
L 199.831543 -161.023008 
L 199.446851 -161.157604 
L 199.062158 -161.085188 
L 198.677465 -161.881018 
L 198.292772 -161.020206 
L 197.908079 -160.992238 
L 197.523386 -160.793291 
L 197.138693 -160.740992 
L 196.754 -160.74247 
L 196.369307 -160.870664 
L 195.984614 -161.064972 
L 195.599921 -160.810149 
L 195.215228 -161.428229 
L 194.830535 -160.466084 
L 194.445843 -161.487094 
L 194.06115 -161.472951 
L 193.676457 -160.58825 
L 193.291764 -160.767585 
L 192.907071 -160.921501 
L 192.522378 -160.505928 
L 192.137685 -161.188229 
L 191.752992 -161.273121 
L 191.368299 -161.489416 
L 190.983606 -161.155016 
L 190.598913 -160.822688 
L 190.21422 -160.912088 
L 189.829527 -161.936182 
L 189.444835 -161.492792 
L 189.060142 -161.584013 
L 188.675449 -161.068746 
L 188.290756 -161.730672 
L 187.906063 -160.867291 
L 187.52137 -161.37736 
L 187.136677 -160.759248 
L 186.751984 -160.913964 
L 186.367291 -161.567194 
L 185.982598 -160.424712 
L 185.597905 -161.295691 
L 185.213212 -161.223072 
L 184.828519 -161.02368 
L 184.443826 -160.894065 
L 184.059134 -161.585999 
L 183.674441 -160.744838 
L 183.289748 -161.045112 
L 182.905055 -161.351908 
L 182.520362 -161.235596 
L 182.135669 -160.644126 
L 181.750976 -160.460287 
L 181.366283 -160.515393 
L 180.98159 -160.602589 
L 180.596897 -161.371738 
L 180.212204 -160.98658 
L 179.827511 -160.335086 
L 179.442818 -161.100615 
L 179.058126 -161.410237 
L 178.673433 -161.108518 
L 178.28874 -161.208874 
L 177.904047 -160.769986 
L 177.519354 -161.158353 
L 177.134661 -161.439368 
L 176.749968 -160.881067 
L 176.365275 -160.922245 
L 175.980582 -161.275187 
L 175.595889 -160.994621 
L 175.211196 -160.462089 
L 174.826503 -160.676065 
L 174.44181 -160.91686 
L 174.057117 -160.83444 
L 173.672425 -161.318261 
L 173.287732 -160.952909 
L 172.903039 -160.816671 
L 172.518346 -161.586793 
L 172.133653 -160.828733 
L 171.74896 -161.151205 
L 171.364267 -160.891866 
L 170.979574 -160.481974 
L 170.594881 -161.248614 
L 170.210188 -160.823738 
L 169.825495 -160.670079 
L 169.440802 -161.002577 
L 169.056109 -161.022259 
L 168.671417 -160.844602 
L 168.286724 -160.753157 
L 167.902031 -161.056163 
L 167.517338 -160.872174 
L 167.132645 -161.05992 
L 166.747952 -161.257704 
L 166.363259 -161.253288 
L 165.978566 -161.016631 
L 165.593873 -161.201626 
L 165.20918 -161.042179 
L 164.824487 -160.447993 
L 164.439794 -160.945872 
L 164.055101 -160.661355 
L 163.670409 -161.008994 
L 163.285716 -160.003659 
L 162.901023 -161.763945 
L 162.51633 -160.925402 
L 162.131637 -161.168428 
L 161.746944 -161.155618 
L 161.362251 -160.701207 
L 160.977558 -161.005651 
L 160.592865 -160.815452 
L 160.208172 -160.863044 
L 159.823479 -161.019985 
L 159.438786 -161.149641 
L 159.054093 -160.204989 
L 158.6694 -161.098323 
L 158.284708 -160.124537 
L 157.900015 -160.544054 
L 157.515322 -160.640456 
L 157.130629 -161.3763 
L 156.745936 -160.751977 
L 156.361243 -160.459396 
L 155.97655 -160.765696 
L 155.591857 -160.268931 
L 155.207164 -160.886602 
L 154.822471 -160.245076 
L 154.437778 -160.910955 
L 154.053085 -160.791446 
L 153.668392 -160.820701 
L 153.2837 -161.163465 
L 152.899007 -161.361133 
L 152.514314 -160.364037 
L 152.129621 -160.790113 
L 151.744928 -160.886374 
L 151.360235 -161.426526 
L 150.975542 -161.174278 
L 150.590849 -161.184901 
L 150.206156 -160.459953 
L 149.821463 -161.784817 
L 149.43677 -160.639884 
L 149.052077 -160.98065 
L 148.667384 -161.183696 
L 148.282692 -160.629366 
L 147.897999 -160.781534 
L 147.513306 -160.614403 
L 147.128613 -160.414152 
L 146.74392 -161.523094 
L 146.359227 -160.648713 
L 145.974534 -161.562442 
L 145.589841 -160.962211 
L 145.205148 -161.227076 
L 144.820455 -160.540089 
L 144.435762 -160.472759 
L 144.051069 -161.201891 
L 143.666376 -161.113495 
L 143.281683 -161.359621 
L 142.896991 -161.162563 
L 142.512298 -160.765502 
L 142.127605 -161.525804 
L 141.742912 -160.99025 
L 141.358219 -160.688823 
L 140.973526 -160.606849 
L 140.588833 -161.044168 
L 140.20414 -160.925458 
L 139.819447 -161.124742 
L 139.434754 -161.0811 
L 139.050061 -160.884082 
L 138.665368 -161.170661 
L 138.280675 -160.69507 
L 137.895983 -160.99195 
L 137.51129 -161.018532 
L 137.126597 -161.575706 
L 136.741904 -160.820261 
L 136.357211 -160.933698 
L 135.972518 -160.696344 
L 135.587825 -160.65891 
L 135.203132 -160.208073 
L 134.818439 -161.159245 
L 134.433746 -160.589456 
L 134.049053 -161.092967 
L 133.66436 -160.667519 
L 133.279667 -160.985301 
L 132.894975 -160.788631 
L 132.510282 -161.205383 
L 132.125589 -160.761505 
L 131.740896 -160.860187 
L 131.356203 -161.301889 
L 130.97151 -160.73094 
L 130.586817 -160.705626 
L 130.202124 -161.058292 
L 129.817431 -160.752618 
L 129.432738 -160.657388 
L 129.048045 -160.77014 
L 128.663352 -161.172334 
L 128.278659 -160.162623 
L 127.893966 -160.636039 
L 127.509274 -160.417626 
L 127.124581 -160.830449 
L 126.739888 -160.829119 
L 126.355195 -160.896541 
L 125.970502 -160.429631 
L 125.585809 -160.853004 
L 125.201116 -160.604982 
L 124.816423 -160.763854 
L 124.43173 -160.643795 
L 124.047037 -160.10546 
L 123.662344 -159.947721 
L 123.277651 -160.51535 
L 122.892958 -160.610224 
L 122.508266 -160.685404 
L 122.123573 -161.200092 
L 121.73888 -160.676791 
L 121.354187 -161.090091 
L 120.969494 -161.378954 
L 120.584801 -160.780205 
L 120.200108 -161.055209 
L 119.815415 -160.768526 
L 119.430722 -160.541552 
L 119.046029 -160.484203 
L 118.661336 -160.192456 
L 118.276643 -160.765519 
L 117.89195 -160.655977 
L 117.507258 -161.019461 
L 117.122565 -160.690421 
L 116.737872 -161.272967 
L 116.353179 -160.929561 
L 115.968486 -160.310472 
L 115.583793 -160.685135 
L 115.1991 -160.626797 
L 114.814407 -160.14254 
L 114.429714 -160.99396 
L 114.045021 -160.354065 
L 113.660328 -161.236976 
L 113.275635 -160.384805 
L 112.890942 -160.969951 
L 112.506249 -160.362684 
L 112.121557 -161.110184 
L 111.736864 -160.667768 
L 111.352171 -160.497721 
L 110.967478 -160.479042 
L 110.582785 -161.273568 
L 110.198092 -161.421524 
L 109.813399 -161.583344 
L 109.428706 -160.950978 
L 109.044013 -160.807712 
L 108.65932 -161.108379 
L 108.274627 -160.720981 
L 107.889934 -160.847369 
L 107.505241 -160.946481 
L 107.120549 -161.649903 
L 106.735856 -160.604661 
L 106.351163 -160.8955 
L 105.96647 -160.963148 
L 105.581777 -160.810512 
L 105.197084 -161.291699 
L 104.812391 -161.237894 
L 104.427698 -160.639606 
L 104.043005 -161.096489 
L 103.658312 -160.765232 
L 103.273619 -160.665614 
L 102.888926 -160.907577 
L 102.504233 -161.180249 
L 102.11954 -160.842884 
L 101.734848 -160.63922 
L 101.350155 -160.87558 
L 100.965462 -160.811441 
L 100.580769 -160.958188 
L 100.196076 -160.963708 
L 99.811383 -161.072399 
L 99.42669 -161.573346 
L 99.041997 -161.103121 
L 98.657304 -161.05725 
L 98.272611 -161.178697 
L 97.887918 -161.348424 
L 97.503225 -160.765978 
L 97.118532 -161.015182 
L 96.73384 -161.037208 
L 96.349147 -161.040751 
L 95.964454 -160.800157 
L 95.579761 -161.247861 
L 95.195068 -161.046576 
L 94.810375 -161.225068 
L 94.425682 -161.136408 
L 94.040989 -161.203858 
L 93.656296 -160.596599 
L 93.271603 -161.557063 
L 92.88691 -160.861726 
L 92.502217 -160.540304 
L 92.117524 -161.328279 
L 91.732832 -161.202952 
L 91.348139 -160.537523 
L 90.963446 -161.159214 
L 90.578753 -161.216364 
L 90.19406 -161.332681 
L 89.809367 -160.906948 
L 89.424674 -161.922658 
L 89.039981 -161.07235 
L 88.655288 -161.383196 
L 88.270595 -160.752471 
L 87.885902 -162.042926 
L 87.501209 -161.530322 
L 87.116516 -161.412152 
L 86.731823 -161.129914 
L 86.347131 -161.318487 
L 85.962438 -161.424764 
L 85.577745 -161.567699 
L 85.193052 -160.902728 
L 84.808359 -161.884979 
L 84.423666 -161.478283 
L 84.038973 -160.70014 
L 83.65428 -161.176749 
L 83.269587 -160.913242 
L 82.884894 -161.478279 
L 82.500201 -161.357936 
L 82.115508 -161.497915 
L 81.730815 -161.113352 
L 81.346123 -161.202167 
L 80.96143 -161.373558 
L 80.576737 -161.278147 
L 80.192044 -161.325333 
L 79.807351 -161.45962 
L 79.422658 -161.742726 
L 79.037965 -161.241822 
L 78.653272 -161.512681 
L 78.268579 -161.668765 
L 77.883886 -162.062849 
L 77.499193 -161.033161 
L 77.1145 -161.802012 
L 76.729807 -161.867266 
L 76.345115 -161.605842 
L 75.960422 -161.798634 
L 75.575729 -160.858184 
L 75.191036 -161.364036 
L 74.806343 -161.425458 
L 74.42165 -161.505475 
L 74.036957 -161.298637 
L 73.652264 -161.244784 
L 73.267571 -161.501483 
L 72.882878 -161.826141 
L 72.498185 -161.79712 
L 72.113492 -161.363898 
L 71.728799 -161.73975 
L 71.344106 -161.683928 
L 70.959414 -161.851779 
L 70.574721 -161.546522 
L 70.190028 -161.581362 
L 69.805335 -161.830193 
L 69.420642 -161.499491 
L 69.035949 -161.654022 
L 68.651256 -161.428633 
L 68.266563 -161.893451 
L 67.88187 -161.567542 
L 67.497177 -161.553248 
L 67.112484 -161.930817 
L 66.727791 -161.737209 
L 66.343098 -161.879841 
L 65.958406 -161.590955 
L 65.573713 -161.336987 
L 65.18902 -161.52015 
L 64.804327 -161.635631 
L 64.419634 -161.402114 
L 64.034941 -161.882023 
L 63.650248 -161.717833 
L 63.265555 -161.978734 
L 62.880862 -161.930604 
L 62.496169 -161.568378 
L 62.111476 -161.972266 
L 61.726783 -161.778933 
L 61.34209 -162.067955 
L 60.957398 -162.032402 
L 60.572705 -161.975321 
L 60.188012 -161.777604 
L 59.803319 -162.222792 
L 59.418626 -161.97904 
L 59.033933 -162.047295 
L 58.64924 -161.96535 
L 58.264547 -162.254971 
L 57.879854 -162.3031 
L 57.495161 -162.299239 
L 57.110468 -162.573392 
L 56.725775 -162.277599 
L 56.341082 -162.434111 
L 55.956389 -161.786015 
L 55.571697 -161.892778 
L 55.187004 -162.080821 
L 54.802311 -161.819282 
L 54.417618 -161.865153 
L 54.032925 -161.771211 
L 53.648232 -161.975917 
L 53.263539 -162.032874 
L 52.878846 -161.210623 
L 52.494153 -160.651871 
L 52.10946 -157.417883 
z
"/>
    </defs>
    <g clip-path="url(#pf87be1c5b9)">
     <use xlink:href="#m75017ec445" x="0" y="200.79625" style="fill: #c0392b; fill-opacity: 0.25"/>
    </g>
   </g>
   <g id="FillBetweenPolyCollection_2">
    <defs>
     <path id="med73c0bbe8" d="M 52.10946 -175.989869 
L 52.10946 -104.940351 
L 52.494153 -97.386062 
L 52.878846 -94.198723 
L 53.263539 -88.05403 
L 53.648232 -85.972654 
L 54.032925 -87.932062 
L 54.417618 -84.930212 
L 54.802311 -85.735325 
L 55.187004 -85.349064 
L 55.571697 -85.347827 
L 55.956389 -82.544478 
L 56.341082 -89.449172 
L 56.725775 -87.056846 
L 57.110468 -87.927626 
L 57.495161 -84.139601 
L 57.879854 -85.91486 
L 58.264547 -86.862167 
L 58.64924 -77.612647 
L 59.033933 -84.390638 
L 59.418626 -84.729869 
L 59.803319 -79.900102 
L 60.188012 -80.084731 
L 60.572705 -79.242163 
L 60.957398 -76.036377 
L 61.34209 -75.564317 
L 61.726783 -77.752548 
L 62.111476 -82.278748 
L 62.496169 -77.72234 
L 62.880862 -73.145682 
L 63.265555 -74.571405 
L 63.650248 -85.805398 
L 64.034941 -83.333116 
L 64.419634 -80.950405 
L 64.804327 -72.06688 
L 65.18902 -77.534262 
L 65.573713 -81.461066 
L 65.958406 -82.331567 
L 66.343098 -75.743843 
L 66.727791 -78.975043 
L 67.112484 -73.031829 
L 67.497177 -77.404551 
L 67.88187 -76.933991 
L 68.266563 -79.421294 
L 68.651256 -65.621486 
L 69.035949 -69.2624 
L 69.420642 -71.466636 
L 69.805335 -76.872622 
L 70.190028 -71.336592 
L 70.574721 -70.620421 
L 70.959414 -76.641047 
L 71.344106 -74.737977 
L 71.728799 -71.647336 
L 72.113492 -76.711043 
L 72.498185 -75.368999 
L 72.882878 -72.750587 
L 73.267571 -66.90817 
L 73.652264 -70.743687 
L 74.036957 -73.488126 
L 74.42165 -69.052254 
L 74.806343 -68.102421 
L 75.191036 -79.981921 
L 75.575729 -76.007921 
L 75.960422 -60.471768 
L 76.345115 -75.760059 
L 76.729807 -73.417078 
L 77.1145 -74.786434 
L 77.499193 -64.337964 
L 77.883886 -77.435113 
L 78.268579 -74.935445 
L 78.653272 -77.501194 
L 79.037965 -76.634596 
L 79.422658 -77.100248 
L 79.807351 -70.552525 
L 80.192044 -74.460697 
L 80.576737 -71.333356 
L 80.96143 -73.193344 
L 81.346123 -65.478715 
L 81.730815 -75.2892 
L 82.115508 -71.015631 
L 82.500201 -71.484028 
L 82.884894 -70.330412 
L 83.269587 -60.409687 
L 83.65428 -64.566493 
L 84.038973 -75.624854 
L 84.423666 -65.811975 
L 84.808359 -76.096811 
L 85.193052 -77.41226 
L 85.577745 -68.928781 
L 85.962438 -65.634083 
L 86.347131 -76.420658 
L 86.731823 -65.639869 
L 87.116516 -75.460663 
L 87.501209 -69.526694 
L 87.885902 -66.17035 
L 88.270595 -70.671172 
L 88.655288 -73.140284 
L 89.039981 -71.231362 
L 89.424674 -76.31334 
L 89.809367 -68.913904 
L 90.19406 -71.738646 
L 90.578753 -64.101643 
L 90.963446 -65.766398 
L 91.348139 -64.99966 
L 91.732832 -67.002954 
L 92.117524 -69.000961 
L 92.502217 -62.543925 
L 92.88691 -63.725945 
L 93.271603 -69.240441 
L 93.656296 -61.436246 
L 94.040989 -65.859611 
L 94.425682 -63.808841 
L 94.810375 -66.03422 
L 95.195068 -72.25809 
L 95.579761 -63.570875 
L 95.964454 -68.833048 
L 96.349147 -80.020615 
L 96.73384 -64.562672 
L 97.118532 -62.222758 
L 97.503225 -63.219613 
L 97.887918 -71.329269 
L 98.272611 -72.852845 
L 98.657304 -63.545782 
L 99.041997 -61.750411 
L 99.42669 -72.824251 
L 99.811383 -69.051229 
L 100.196076 -62.156096 
L 100.580769 -64.93509 
L 100.965462 -68.116808 
L 101.350155 -69.707389 
L 101.734848 -63.793418 
L 102.11954 -65.605019 
L 102.504233 -64.1955 
L 102.888926 -68.589977 
L 103.273619 -65.384397 
L 103.658312 -64.565386 
L 104.043005 -64.005678 
L 104.427698 -67.144544 
L 104.812391 -63.098735 
L 105.197084 -59.557208 
L 105.581777 -56.273758 
L 105.96647 -62.672797 
L 106.351163 -63.699499 
L 106.735856 -64.34935 
L 107.120549 -66.738873 
L 107.505241 -74.109224 
L 107.889934 -71.116908 
L 108.274627 -58.331329 
L 108.65932 -62.445566 
L 109.044013 -66.883007 
L 109.428706 -65.506717 
L 109.813399 -59.772988 
L 110.198092 -65.567241 
L 110.582785 -71.390465 
L 110.967478 -60.358477 
L 111.352171 -62.04174 
L 111.736864 -50.607571 
L 112.121557 -53.8276 
L 112.506249 -65.149256 
L 112.890942 -66.217909 
L 113.275635 -50.925286 
L 113.660328 -65.089296 
L 114.045021 -67.369588 
L 114.429714 -61.455853 
L 114.814407 -44.68436 
L 115.1991 -61.000091 
L 115.583793 -50.745109 
L 115.968486 -64.413574 
L 116.353179 -72.687585 
L 116.737872 -63.021776 
L 117.122565 -60.788958 
L 117.507258 -61.845198 
L 117.89195 -64.83847 
L 118.276643 -60.393004 
L 118.661336 -69.890438 
L 119.046029 -55.806659 
L 119.430722 -56.985413 
L 119.815415 -62.465902 
L 120.200108 -71.721529 
L 120.584801 -63.726503 
L 120.969494 -54.63665 
L 121.354187 -64.749908 
L 121.73888 -70.258261 
L 122.123573 -60.38814 
L 122.508266 -59.81262 
L 122.892958 -65.198512 
L 123.277651 -70.910232 
L 123.662344 -62.726734 
L 124.047037 -56.415158 
L 124.43173 -65.812677 
L 124.816423 -58.744714 
L 125.201116 -55.538663 
L 125.585809 -63.670762 
L 125.970502 -64.316159 
L 126.355195 -56.198785 
L 126.739888 -67.156252 
L 127.124581 -59.850716 
L 127.509274 -62.760524 
L 127.893966 -66.911692 
L 128.278659 -48.902668 
L 128.663352 -63.98405 
L 129.048045 -58.285185 
L 129.432738 -62.356025 
L 129.817431 -56.875945 
L 130.202124 -58.720548 
L 130.586817 -58.429137 
L 130.97151 -54.549766 
L 131.356203 -62.950051 
L 131.740896 -67.429271 
L 132.125589 -64.337209 
L 132.510282 -67.350357 
L 132.894975 -67.208901 
L 133.279667 -72.654119 
L 133.66436 -56.808009 
L 134.049053 -60.585182 
L 134.433746 -56.268626 
L 134.818439 -58.527059 
L 135.203132 -69.825441 
L 135.587825 -57.33306 
L 135.972518 -70.199621 
L 136.357211 -60.633768 
L 136.741904 -61.916117 
L 137.126597 -63.871437 
L 137.51129 -59.560769 
L 137.895983 -68.329196 
L 138.280675 -54.250686 
L 138.665368 -58.464006 
L 139.050061 -64.192104 
L 139.434754 -61.377666 
L 139.819447 -68.690568 
L 140.20414 -58.746385 
L 140.588833 -58.964576 
L 140.973526 -58.125144 
L 141.358219 -65.873338 
L 141.742912 -63.668571 
L 142.127605 -68.599126 
L 142.512298 -65.644266 
L 142.896991 -62.763378 
L 143.281683 -69.363339 
L 143.666376 -63.446743 
L 144.051069 -70.179226 
L 144.435762 -58.012251 
L 144.820455 -62.3497 
L 145.205148 -69.844806 
L 145.589841 -72.921239 
L 145.974534 -70.612166 
L 146.359227 -61.365254 
L 146.74392 -67.303311 
L 147.128613 -60.434954 
L 147.513306 -60.166937 
L 147.897999 -63.83876 
L 148.282692 -61.942909 
L 148.667384 -68.100863 
L 149.052077 -68.427608 
L 149.43677 -62.0463 
L 149.821463 -68.787577 
L 150.206156 -58.665233 
L 150.590849 -69.007122 
L 150.975542 -64.15115 
L 151.360235 -71.797872 
L 151.744928 -59.961086 
L 152.129621 -65.650904 
L 152.514314 -61.047655 
L 152.899007 -62.471333 
L 153.2837 -62.701661 
L 153.668392 -62.835421 
L 154.053085 -58.641498 
L 154.437778 -68.646862 
L 154.822471 -52.590694 
L 155.207164 -61.574445 
L 155.591857 -68.905016 
L 155.97655 -58.504692 
L 156.361243 -62.36549 
L 156.745936 -73.544811 
L 157.130629 -58.620482 
L 157.515322 -71.786367 
L 157.900015 -59.01871 
L 158.284708 -64.300412 
L 158.6694 -76.177991 
L 159.054093 -70.445656 
L 159.438786 -67.128716 
L 159.823479 -71.442559 
L 160.208172 -59.098842 
L 160.592865 -58.028365 
L 160.977558 -72.624067 
L 161.362251 -71.980001 
L 161.746944 -62.116945 
L 162.131637 -66.385671 
L 162.51633 -65.873938 
L 162.901023 -71.048405 
L 163.285716 -70.913117 
L 163.670409 -57.341115 
L 164.055101 -49.046008 
L 164.439794 -65.046451 
L 164.824487 -44.648977 
L 165.20918 -66.66374 
L 165.593873 -66.030348 
L 165.978566 -67.011257 
L 166.363259 -68.641354 
L 166.747952 -69.533594 
L 167.132645 -75.068375 
L 167.517338 -66.283686 
L 167.902031 -70.958635 
L 168.286724 -67.70435 
L 168.671417 -60.421681 
L 169.056109 -69.061172 
L 169.440802 -67.527457 
L 169.825495 -63.158176 
L 170.210188 -55.848362 
L 170.594881 -64.272121 
L 170.979574 -61.864512 
L 171.364267 -70.791278 
L 171.74896 -64.670345 
L 172.133653 -74.036775 
L 172.518346 -75.235561 
L 172.903039 -77.709386 
L 173.287732 -54.912474 
L 173.672425 -69.26753 
L 174.057117 -67.916076 
L 174.44181 -72.490659 
L 174.826503 -72.628377 
L 175.211196 -72.662029 
L 175.595889 -70.081643 
L 175.980582 -64.549174 
L 176.365275 -71.78853 
L 176.749968 -69.14412 
L 177.134661 -63.020673 
L 177.519354 -70.759804 
L 177.904047 -72.598157 
L 178.28874 -73.364266 
L 178.673433 -73.184637 
L 179.058126 -74.401779 
L 179.442818 -76.799829 
L 179.827511 -75.508894 
L 180.212204 -74.080809 
L 180.596897 -71.201426 
L 180.98159 -60.973721 
L 181.366283 -74.022841 
L 181.750976 -63.554016 
L 182.135669 -68.151873 
L 182.520362 -68.465865 
L 182.905055 -76.2531 
L 183.289748 -64.224629 
L 183.674441 -69.726726 
L 184.059134 -73.868358 
L 184.443826 -78.044732 
L 184.828519 -71.762995 
L 185.213212 -71.071727 
L 185.597905 -75.945468 
L 185.982598 -75.500779 
L 186.367291 -79.135809 
L 186.751984 -67.760356 
L 187.136677 -77.420472 
L 187.52137 -73.257299 
L 187.906063 -69.758699 
L 188.290756 -75.870899 
L 188.675449 -83.019491 
L 189.060142 -73.696798 
L 189.444835 -74.322315 
L 189.829527 -74.657771 
L 190.21422 -64.636291 
L 190.598913 -72.765377 
L 190.983606 -73.179916 
L 191.368299 -81.829433 
L 191.752992 -81.380747 
L 192.137685 -73.375995 
L 192.522378 -68.14888 
L 192.907071 -70.859661 
L 193.291764 -70.588743 
L 193.676457 -81.705384 
L 194.06115 -79.707154 
L 194.445843 -79.578101 
L 194.830535 -77.430276 
L 195.215228 -76.694587 
L 195.599921 -75.726661 
L 195.984614 -67.018672 
L 196.369307 -72.738407 
L 196.754 -72.202122 
L 197.138693 -80.492883 
L 197.523386 -80.799779 
L 197.908079 -78.890617 
L 198.292772 -78.264528 
L 198.677465 -81.368165 
L 199.062158 -80.854634 
L 199.446851 -82.274085 
L 199.831543 -84.441529 
L 200.216236 -78.488989 
L 200.600929 -77.172563 
L 200.985622 -85.982064 
L 201.370315 -80.532335 
L 201.755008 -80.679501 
L 202.139701 -81.181819 
L 202.524394 -87.194697 
L 202.909087 -81.702587 
L 203.29378 -78.997 
L 203.678473 -83.878597 
L 204.063166 -74.74865 
L 204.447859 -87.708604 
L 204.832552 -78.739891 
L 205.217244 -85.463608 
L 205.601937 -77.196578 
L 205.98663 -87.576972 
L 206.371323 -87.090714 
L 206.756016 -76.481053 
L 207.140709 -85.052806 
L 207.525402 -89.29994 
L 207.910095 -80.945353 
L 208.294788 -77.898458 
L 208.679481 -85.268284 
L 209.064174 -88.954995 
L 209.448867 -86.306333 
L 209.83356 -90.923655 
L 210.218252 -84.163602 
L 210.602945 -84.098714 
L 210.987638 -81.586733 
L 211.372331 -90.44077 
L 211.757024 -86.114532 
L 212.141717 -84.983787 
L 212.52641 -88.644239 
L 212.911103 -87.192512 
L 213.295796 -88.145762 
L 213.680489 -85.506431 
L 214.065182 -83.588332 
L 214.449875 -83.35611 
L 214.834568 -90.785824 
L 215.21926 -94.104265 
L 215.603953 -86.028058 
L 215.988646 -88.747581 
L 216.373339 -89.732896 
L 216.758032 -83.177806 
L 217.142725 -88.081787 
L 217.527418 -86.965791 
L 217.912111 -93.814055 
L 218.296804 -85.348928 
L 218.681497 -89.260766 
L 219.06619 -85.807711 
L 219.450883 -82.942909 
L 219.835576 -88.539658 
L 220.220269 -87.963843 
L 220.604961 -94.175088 
L 220.989654 -89.918856 
L 221.374347 -87.656134 
L 221.75904 -88.702732 
L 222.143733 -89.381535 
L 222.528426 -88.68795 
L 222.913119 -90.865679 
L 223.297812 -88.722336 
L 223.682505 -91.963981 
L 224.067198 -91.311392 
L 224.451891 -93.862163 
L 224.836584 -86.093267 
L 225.221277 -92.092707 
L 225.605969 -93.243055 
L 225.990662 -97.897128 
L 226.375355 -89.233727 
L 226.760048 -96.886623 
L 227.144741 -95.964143 
L 227.529434 -93.049324 
L 227.914127 -96.951488 
L 228.29882 -91.849383 
L 228.683513 -95.662638 
L 229.068206 -87.4021 
L 229.452899 -96.278182 
L 229.837592 -90.536166 
L 230.222285 -98.351755 
L 230.606977 -94.260974 
L 230.99167 -98.072202 
L 231.376363 -99.70435 
L 231.761056 -103.27885 
L 232.145749 -96.984222 
L 232.530442 -102.393447 
L 232.915135 -104.211892 
L 233.299828 -101.796655 
L 233.684521 -105.365683 
L 234.069214 -103.618066 
L 234.453907 -102.157718 
L 234.8386 -99.108936 
L 235.223293 -104.675761 
L 235.607986 -102.920834 
L 235.992678 -108.346379 
L 236.377371 -108.569639 
L 236.762064 -120.350882 
L 237.146757 -118.158946 
L 237.53145 -119.240432 
L 237.916143 -136.004515 
L 238.300836 -149.818636 
L 238.685529 -149.818636 
L 239.070222 -149.818636 
L 239.454915 -149.818636 
L 239.454915 -149.818636 
L 239.454915 -149.818636 
L 239.070222 -149.818636 
L 238.685529 -149.818636 
L 238.300836 -149.818636 
L 237.916143 -149.818636 
L 237.53145 -152.619399 
L 237.146757 -168.890267 
L 236.762064 -166.620189 
L 236.377371 -167.911546 
L 235.992678 -170.667026 
L 235.607986 -171.699011 
L 235.223293 -173.504838 
L 234.8386 -176.538199 
L 234.453907 -179.684687 
L 234.069214 -177.822857 
L 233.684521 -181.079248 
L 233.299828 -178.80197 
L 232.915135 -181.211344 
L 232.530442 -179.850033 
L 232.145749 -180.365539 
L 231.761056 -181.651963 
L 231.376363 -181.919517 
L 230.99167 -183.552458 
L 230.606977 -180.656356 
L 230.222285 -183.09539 
L 229.837592 -181.667924 
L 229.452899 -181.668034 
L 229.068206 -180.961974 
L 228.683513 -181.657802 
L 228.29882 -181.580269 
L 227.914127 -183.972276 
L 227.529434 -182.785392 
L 227.144741 -186.503523 
L 226.760048 -182.992037 
L 226.375355 -182.600193 
L 225.990662 -184.265956 
L 225.605969 -183.814402 
L 225.221277 -184.505331 
L 224.836584 -183.280265 
L 224.451891 -183.714609 
L 224.067198 -183.858315 
L 223.682505 -181.158608 
L 223.297812 -180.321908 
L 222.913119 -183.978834 
L 222.528426 -184.097041 
L 222.143733 -182.563634 
L 221.75904 -183.045821 
L 221.374347 -183.780446 
L 220.989654 -182.474425 
L 220.604961 -183.140361 
L 220.220269 -182.207002 
L 219.835576 -181.543008 
L 219.450883 -182.169948 
L 219.06619 -182.422869 
L 218.681497 -181.992861 
L 218.296804 -183.768081 
L 217.912111 -185.003988 
L 217.527418 -183.487554 
L 217.142725 -185.718825 
L 216.758032 -179.719609 
L 216.373339 -184.076593 
L 215.988646 -181.758769 
L 215.603953 -182.324347 
L 215.21926 -181.460558 
L 214.834568 -184.058112 
L 214.449875 -183.971061 
L 214.065182 -178.913236 
L 213.680489 -180.35406 
L 213.295796 -183.238562 
L 212.911103 -184.789853 
L 212.52641 -182.230547 
L 212.141717 -182.777145 
L 211.757024 -181.388006 
L 211.372331 -183.221256 
L 210.987638 -179.985904 
L 210.602945 -182.611167 
L 210.218252 -179.797122 
L 209.83356 -182.251127 
L 209.448867 -180.61044 
L 209.064174 -183.851736 
L 208.679481 -181.781469 
L 208.294788 -184.245384 
L 207.910095 -179.374429 
L 207.525402 -181.386578 
L 207.140709 -182.80064 
L 206.756016 -181.779397 
L 206.371323 -181.406787 
L 205.98663 -182.633154 
L 205.601937 -181.860437 
L 205.217244 -180.098613 
L 204.832552 -179.266251 
L 204.447859 -181.704761 
L 204.063166 -179.621832 
L 203.678473 -182.180328 
L 203.29378 -180.939715 
L 202.909087 -182.001088 
L 202.524394 -182.960484 
L 202.139701 -182.442037 
L 201.755008 -181.714364 
L 201.370315 -180.136795 
L 200.985622 -183.012779 
L 200.600929 -181.975552 
L 200.216236 -180.983171 
L 199.831543 -181.47696 
L 199.446851 -180.694762 
L 199.062158 -184.483531 
L 198.677465 -179.141883 
L 198.292772 -179.678915 
L 197.908079 -181.19464 
L 197.523386 -180.762221 
L 197.138693 -179.022102 
L 196.754 -180.244208 
L 196.369307 -180.345686 
L 195.984614 -178.615718 
L 195.599921 -180.141984 
L 195.215228 -180.305116 
L 194.830535 -181.204195 
L 194.445843 -182.017494 
L 194.06115 -181.716516 
L 193.676457 -179.461473 
L 193.291764 -179.086332 
L 192.907071 -181.080722 
L 192.522378 -178.330833 
L 192.137685 -181.161696 
L 191.752992 -181.694546 
L 191.368299 -180.631281 
L 190.983606 -178.716519 
L 190.598913 -178.615648 
L 190.21422 -181.630734 
L 189.829527 -178.42008 
L 189.444835 -179.632098 
L 189.060142 -179.96649 
L 188.675449 -182.818246 
L 188.290756 -180.960719 
L 187.906063 -179.148755 
L 187.52137 -179.290767 
L 187.136677 -181.777005 
L 186.751984 -178.570105 
L 186.367291 -179.635952 
L 185.982598 -182.140083 
L 185.597905 -179.919016 
L 185.213212 -180.092975 
L 184.828519 -179.601076 
L 184.443826 -180.310407 
L 184.059134 -181.745242 
L 183.674441 -178.275617 
L 183.289748 -178.656888 
L 182.905055 -181.708191 
L 182.520362 -179.992978 
L 182.135669 -179.413166 
L 181.750976 -178.988574 
L 181.366283 -182.130067 
L 180.98159 -178.282368 
L 180.596897 -178.492922 
L 180.212204 -179.761892 
L 179.827511 -179.670237 
L 179.442818 -180.644159 
L 179.058126 -179.383272 
L 178.673433 -179.685092 
L 178.28874 -177.234741 
L 177.904047 -179.701244 
L 177.519354 -178.617722 
L 177.134661 -179.082013 
L 176.749968 -178.944701 
L 176.365275 -177.544337 
L 175.980582 -175.967263 
L 175.595889 -179.652244 
L 175.211196 -182.322683 
L 174.826503 -180.861945 
L 174.44181 -179.696859 
L 174.057117 -178.55889 
L 173.672425 -178.525337 
L 173.287732 -175.93177 
L 172.903039 -180.886765 
L 172.518346 -180.136964 
L 172.133653 -179.554768 
L 171.74896 -178.954903 
L 171.364267 -179.551616 
L 170.979574 -179.623279 
L 170.594881 -177.926063 
L 170.210188 -176.678014 
L 169.825495 -178.113849 
L 169.440802 -178.29858 
L 169.056109 -177.921133 
L 168.671417 -178.327675 
L 168.286724 -178.038683 
L 167.902031 -178.857821 
L 167.517338 -178.158463 
L 167.132645 -179.883344 
L 166.747952 -178.849988 
L 166.363259 -179.184215 
L 165.978566 -177.783109 
L 165.593873 -179.242744 
L 165.20918 -177.296623 
L 164.824487 -175.283012 
L 164.439794 -177.366359 
L 164.055101 -176.629062 
L 163.670409 -175.660521 
L 163.285716 -180.609353 
L 162.901023 -177.524741 
L 162.51633 -180.280114 
L 162.131637 -175.654027 
L 161.746944 -176.592115 
L 161.362251 -177.168341 
L 160.977558 -179.132015 
L 160.592865 -177.267829 
L 160.208172 -178.502252 
L 159.823479 -179.036954 
L 159.438786 -179.744044 
L 159.054093 -178.88366 
L 158.6694 -178.515403 
L 158.284708 -178.065733 
L 157.900015 -178.245273 
L 157.515322 -179.461343 
L 157.130629 -177.513674 
L 156.745936 -178.508742 
L 156.361243 -179.193986 
L 155.97655 -177.054031 
L 155.591857 -179.55942 
L 155.207164 -179.927347 
L 154.822471 -176.053711 
L 154.437778 -178.964103 
L 154.053085 -178.503557 
L 153.668392 -177.22716 
L 153.2837 -180.476288 
L 152.899007 -178.057453 
L 152.514314 -177.585216 
L 152.129621 -176.188908 
L 151.744928 -176.552243 
L 151.360235 -176.897397 
L 150.975542 -176.230178 
L 150.590849 -177.875666 
L 150.206156 -179.129825 
L 149.821463 -177.543519 
L 149.43677 -178.677457 
L 149.052077 -179.525237 
L 148.667384 -180.466401 
L 148.282692 -178.83259 
L 147.897999 -179.033699 
L 147.513306 -178.307672 
L 147.128613 -179.582991 
L 146.74392 -177.265354 
L 146.359227 -179.725853 
L 145.974534 -179.355108 
L 145.589841 -179.414063 
L 145.205148 -177.694363 
L 144.820455 -176.938782 
L 144.435762 -178.01336 
L 144.051069 -179.541024 
L 143.666376 -176.892861 
L 143.281683 -178.34347 
L 142.896991 -177.319971 
L 142.512298 -177.973059 
L 142.127605 -177.812901 
L 141.742912 -178.254113 
L 141.358219 -177.870102 
L 140.973526 -176.913317 
L 140.588833 -176.993068 
L 140.20414 -177.314261 
L 139.819447 -180.061465 
L 139.434754 -180.64531 
L 139.050061 -180.029609 
L 138.665368 -176.1799 
L 138.280675 -176.88692 
L 137.895983 -177.958317 
L 137.51129 -177.26728 
L 137.126597 -178.019909 
L 136.741904 -177.610529 
L 136.357211 -177.636304 
L 135.972518 -178.779088 
L 135.587825 -179.019901 
L 135.203132 -178.459978 
L 134.818439 -177.29012 
L 134.433746 -178.619722 
L 134.049053 -177.158209 
L 133.66436 -179.073109 
L 133.279667 -180.633723 
L 132.894975 -177.862848 
L 132.510282 -178.421407 
L 132.125589 -175.189274 
L 131.740896 -177.241226 
L 131.356203 -176.62786 
L 130.97151 -179.734058 
L 130.586817 -178.683403 
L 130.202124 -178.072708 
L 129.817431 -178.354626 
L 129.432738 -178.308616 
L 129.048045 -177.155739 
L 128.663352 -176.697112 
L 128.278659 -178.117787 
L 127.893966 -178.508337 
L 127.509274 -177.063753 
L 127.124581 -178.101101 
L 126.739888 -179.315408 
L 126.355195 -177.543698 
L 125.970502 -177.534766 
L 125.585809 -178.926522 
L 125.201116 -176.836472 
L 124.816423 -176.493876 
L 124.43173 -177.793756 
L 124.047037 -178.511955 
L 123.662344 -180.054216 
L 123.277651 -179.059739 
L 122.892958 -179.701425 
L 122.508266 -177.486252 
L 122.123573 -176.815259 
L 121.73888 -177.029515 
L 121.354187 -177.975214 
L 120.969494 -176.990211 
L 120.584801 -176.922604 
L 120.200108 -176.984634 
L 119.815415 -177.261746 
L 119.430722 -177.556761 
L 119.046029 -176.103857 
L 118.661336 -178.149873 
L 118.276643 -176.351063 
L 117.89195 -176.981415 
L 117.507258 -177.664186 
L 117.122565 -177.61285 
L 116.737872 -179.140713 
L 116.353179 -178.923758 
L 115.968486 -179.207836 
L 115.583793 -177.241791 
L 115.1991 -178.762878 
L 114.814407 -178.667317 
L 114.429714 -177.534789 
L 114.045021 -178.520391 
L 113.660328 -178.680216 
L 113.275635 -176.627983 
L 112.890942 -178.988008 
L 112.506249 -177.841472 
L 112.121557 -177.368705 
L 111.736864 -176.975459 
L 111.352171 -177.899895 
L 110.967478 -177.616489 
L 110.582785 -178.492729 
L 110.198092 -176.697109 
L 109.813399 -176.667015 
L 109.428706 -176.993618 
L 109.044013 -178.009648 
L 108.65932 -177.628484 
L 108.274627 -176.997769 
L 107.889934 -178.874778 
L 107.505241 -181.120461 
L 107.120549 -175.781408 
L 106.735856 -180.082819 
L 106.351163 -179.100193 
L 105.96647 -178.102247 
L 105.581777 -176.98643 
L 105.197084 -177.672405 
L 104.812391 -178.870095 
L 104.427698 -177.605766 
L 104.043005 -179.949789 
L 103.658312 -178.154617 
L 103.273619 -177.17602 
L 102.888926 -179.801837 
L 102.504233 -177.881323 
L 102.11954 -178.315038 
L 101.734848 -177.474841 
L 101.350155 -179.684825 
L 100.965462 -179.977441 
L 100.580769 -177.525269 
L 100.196076 -178.260043 
L 99.811383 -179.431194 
L 99.42669 -176.087621 
L 99.041997 -176.996692 
L 98.657304 -177.415663 
L 98.272611 -177.866813 
L 97.887918 -176.977605 
L 97.503225 -180.767277 
L 97.118532 -177.487322 
L 96.73384 -176.27652 
L 96.349147 -179.201739 
L 95.964454 -179.259604 
L 95.579761 -177.313693 
L 95.195068 -179.766607 
L 94.810375 -178.7354 
L 94.425682 -177.527013 
L 94.040989 -176.614329 
L 93.656296 -177.746926 
L 93.271603 -178.290092 
L 92.88691 -177.213121 
L 92.502217 -175.684406 
L 92.117524 -178.060226 
L 91.732832 -177.406874 
L 91.348139 -176.655621 
L 90.963446 -177.772486 
L 90.578753 -179.663164 
L 90.19406 -179.367544 
L 89.809367 -177.789252 
L 89.424674 -180.471103 
L 89.039981 -177.960838 
L 88.655288 -179.2129 
L 88.270595 -181.018114 
L 87.885902 -177.539817 
L 87.501209 -178.879055 
L 87.116516 -177.524774 
L 86.731823 -178.876935 
L 86.347131 -178.843265 
L 85.962438 -178.997657 
L 85.577745 -177.215482 
L 85.193052 -179.485312 
L 84.808359 -179.009579 
L 84.423666 -177.627295 
L 84.038973 -179.936201 
L 83.65428 -178.299378 
L 83.269587 -175.644031 
L 82.884894 -180.562576 
L 82.500201 -177.942569 
L 82.115508 -180.594747 
L 81.730815 -177.791649 
L 81.346123 -178.250383 
L 80.96143 -178.925159 
L 80.576737 -179.942493 
L 80.192044 -178.927804 
L 79.807351 -177.672153 
L 79.422658 -181.228517 
L 79.037965 -180.301002 
L 78.653272 -181.137021 
L 78.268579 -179.092766 
L 77.883886 -178.486435 
L 77.499193 -177.277066 
L 77.1145 -179.633536 
L 76.729807 -179.862847 
L 76.345115 -180.692623 
L 75.960422 -176.92834 
L 75.575729 -178.005932 
L 75.191036 -181.535973 
L 74.806343 -180.133344 
L 74.42165 -177.563905 
L 74.036957 -178.96576 
L 73.652264 -179.6409 
L 73.267571 -176.734757 
L 72.882878 -178.939589 
L 72.498185 -178.408541 
L 72.113492 -179.370663 
L 71.728799 -178.985438 
L 71.344106 -178.461388 
L 70.959414 -179.503284 
L 70.574721 -179.488137 
L 70.190028 -178.009677 
L 69.805335 -177.593049 
L 69.420642 -180.265571 
L 69.035949 -178.146963 
L 68.651256 -179.214823 
L 68.266563 -180.09147 
L 67.88187 -179.211299 
L 67.497177 -179.677144 
L 67.112484 -177.459605 
L 66.727791 -176.279743 
L 66.343098 -176.317562 
L 65.958406 -180.049766 
L 65.573713 -180.287652 
L 65.18902 -179.173665 
L 64.804327 -177.834328 
L 64.419634 -180.296293 
L 64.034941 -180.092698 
L 63.650248 -182.391079 
L 63.265555 -178.48842 
L 62.880862 -176.410878 
L 62.496169 -178.291793 
L 62.111476 -179.218587 
L 61.726783 -178.084649 
L 61.34209 -179.856999 
L 60.957398 -181.086349 
L 60.572705 -179.065312 
L 60.188012 -179.845699 
L 59.803319 -180.03337 
L 59.418626 -180.350626 
L 59.033933 -178.375743 
L 58.64924 -179.696996 
L 58.264547 -179.409559 
L 57.879854 -179.178549 
L 57.495161 -178.485662 
L 57.110468 -178.840864 
L 56.725775 -178.52636 
L 56.341082 -177.780342 
L 55.956389 -176.084276 
L 55.571697 -176.436131 
L 55.187004 -174.678945 
L 54.802311 -174.28208 
L 54.417618 -174.035054 
L 54.032925 -175.167409 
L 53.648232 -175.221308 
L 53.263539 -176.146354 
L 52.878846 -177.140375 
L 52.494153 -178.186202 
L 52.10946 -175.989869 
z
"/>
    </defs>
    <g clip-path="url(#pf87be1c5b9)">
     <use xlink:href="#med73c0bbe8" x="0" y="200.79625" style="fill: #c0392b; fill-opacity: 0.12"/>
    </g>
   </g>
   <g id="matplotlib.axis_1">
    <g id="xtick_1">
     <g id="line2d_1">
      <path d="M 51.724767 163.24 
L 51.724767 7.2 
" clip-path="url(#pf87be1c5b9)" style="fill: none; stroke: #b0b0b0; stroke-opacity: 0.3; stroke-width: 0.8; stroke-linecap: square"/>
     </g>
     <g id="line2d_2">
      <defs>
       <path id="md52ec2ff24" d="M 0 0 
L 0 3.5 
" style="stroke: #000000; stroke-width: 0.8"/>
      </defs>
      <g>
       <use xlink:href="#md52ec2ff24" x="51.724767" y="163.24" style="stroke: #000000; stroke-width: 0.8"/>
      </g>
     </g>
     <g id="text_1">
      <text style="font-size: 10px; font-family: 'DejaVu Sans', 'Bitstream Vera Sans', 'Computer Modern Sans Serif', 'Lucida Grande', 'Verdana', 'Geneva', 'Lucid', 'Arial', 'Helvetica', 'Avant Garde', sans-serif; text-anchor: middle" x="51.724767" y="177.838437" transform="rotate(-0 51.724767 177.838437)">0.0</text>
     </g>
    </g>
    <g id="xtick_2">
     <g id="line2d_3">
      <path d="M 89.292436 163.24 
L 89.292436 7.2 
" clip-path="url(#pf87be1c5b9)" style="fill: none; stroke: #b0b0b0; stroke-opacity: 0.3; stroke-width: 0.8; stroke-linecap: square"/>
     </g>
     <g id="line2d_4">
      <g>
       <use xlink:href="#md52ec2ff24" x="89.292436" y="163.24" style="stroke: #000000; stroke-width: 0.8"/>
      </g>
     </g>
     <g id="text_2">
      <text style="font-size: 10px; font-family: 'DejaVu Sans', 'Bitstream Vera Sans', 'Computer Modern Sans Serif', 'Lucida Grande', 'Verdana', 'Geneva', 'Lucid', 'Arial', 'Helvetica', 'Avant Garde', sans-serif; text-anchor: middle" x="89.292436" y="177.838437" transform="rotate(-0 89.292436 177.838437)">0.2</text>
     </g>
    </g>
    <g id="xtick_3">
     <g id="line2d_5">
      <path d="M 126.860104 163.24 
L 126.860104 7.2 
" clip-path="url(#pf87be1c5b9)" style="fill: none; stroke: #b0b0b0; stroke-opacity: 0.3; stroke-width: 0.8; stroke-linecap: square"/>
     </g>
     <g id="line2d_6">
      <g>
       <use xlink:href="#md52ec2ff24" x="126.860104" y="163.24" style="stroke: #000000; stroke-width: 0.8"/>
      </g>
     </g>
     <g id="text_3">
      <text style="font-size: 10px; font-family: 'DejaVu Sans', 'Bitstream Vera Sans', 'Computer Modern Sans Serif', 'Lucida Grande', 'Verdana', 'Geneva', 'Lucid', 'Arial', 'Helvetica', 'Avant Garde', sans-serif; text-anchor: middle" x="126.860104" y="177.838437" transform="rotate(-0 126.860104 177.838437)">0.4</text>
     </g>
    </g>
    <g id="xtick_4">
     <g id="line2d_7">
      <path d="M 164.427773 163.24 
L 164.427773 7.2 
" clip-path="url(#pf87be1c5b9)" style="fill: none; stroke: #b0b0b0; stroke-opacity: 0.3; stroke-width: 0.8; stroke-linecap: square"/>
     </g>
     <g id="line2d_8">
      <g>
       <use xlink:href="#md52ec2ff24" x="164.427773" y="163.24" style="stroke: #000000; stroke-width: 0.8"/>
      </g>
     </g>
     <g id="text_4">
      <text style="font-size: 10px; font-family: 'DejaVu Sans', 'Bitstream Vera Sans', 'Computer Modern Sans Serif', 'Lucida Grande', 'Verdana', 'Geneva', 'Lucid', 'Arial', 'Helvetica', 'Avant Garde', sans-serif; text-anchor: middle" x="164.427773" y="177.838437" transform="rotate(-0 164.427773 177.838437)">0.6</text>
     </g>
    </g>
    <g id="xtick_5">
     <g id="line2d_9">
      <path d="M 201.995441 163.24 
L 201.995441 7.2 
" clip-path="url(#pf87be1c5b9)" style="fill: none; stroke: #b0b0b0; stroke-opacity: 0.3; stroke-width: 0.8; stroke-linecap: square"/>
     </g>
     <g id="line2d_10">
      <g>
       <use xlink:href="#md52ec2ff24" x="201.995441" y="163.24" style="stroke: #000000; stroke-width: 0.8"/>
      </g>
     </g>
     <g id="text_5">
      <text style="font-size: 10px; font-family: 'DejaVu Sans', 'Bitstream Vera Sans', 'Computer Modern Sans Serif', 'Lucida Grande', 'Verdana', 'Geneva', 'Lucid', 'Arial', 'Helvetica', 'Avant Garde', sans-serif; text-anchor: middle" x="201.995441" y="177.838437" transform="rotate(-0 201.995441 177.838437)">0.8</text>
     </g>
    </g>
    <g id="xtick_6">
     <g id="line2d_11">
      <path d="M 239.56311 163.24 
L 239.56311 7.2 
" clip-path="url(#pf87be1c5b9)" style="fill: none; stroke: #b0b0b0; stroke-opacity: 0.3; stroke-width: 0.8; stroke-linecap: square"/>
     </g>
     <g id="line2d_12">
      <g>
       <use xlink:href="#md52ec2ff24" x="239.56311" y="163.24" style="stroke: #000000; stroke-width: 0.8"/>
      </g>
     </g>
     <g id="text_6">
      <text style="font-size: 10px; font-family: 'DejaVu Sans', 'Bitstream Vera Sans', 'Computer Modern Sans Serif', 'Lucida Grande', 'Verdana', 'Geneva', 'Lucid', 'Arial', 'Helvetica', 'Avant Garde', sans-serif; text-anchor: middle" x="239.56311" y="177.838437" transform="rotate(-0 239.56311 177.838437)">1.0</text>
     </g>
    </g>
    <g id="text_7">
     <text style="font-size: 10px; font-family: 'DejaVu Sans', 'Bitstream Vera Sans', 'Computer Modern Sans Serif', 'Lucida Grande', 'Verdana', 'Geneva', 'Lucid', 'Arial', 'Helvetica', 'Avant Garde', sans-serif; text-anchor: middle" x="145.782188" y="191.516562" transform="rotate(-0 145.782188 191.516562)">environment step</text>
    </g>
    <g id="text_8">
     <text style="font-size: 10px; font-family: 'DejaVu Sans', 'Bitstream Vera Sans', 'Computer Modern Sans Serif', 'Lucida Grande', 'Verdana', 'Geneva', 'Lucid', 'Arial', 'Helvetica', 'Avant Garde', sans-serif; text-anchor: end" x="248.822188" y="190.516562" transform="rotate(-0 248.822188 190.516562)">1e6</text>
    </g>
   </g>
   <g id="matplotlib.axis_2">
    <g id="ytick_1">
     <g id="line2d_13">
      <path d="M 42.742188 126.387787 
L 248.822188 126.387787 
" clip-path="url(#pf87be1c5b9)" style="fill: none; stroke: #b0b0b0; stroke-opacity: 0.3; stroke-width: 0.8; stroke-linecap: square"/>
     </g>
     <g id="line2d_14">
      <defs>
       <path id="meb23fb85bc" d="M 0 0 
L -3.5 0 
" style="stroke: #000000; stroke-width: 0.8"/>
      </defs>
      <g>
       <use xlink:href="#meb23fb85bc" x="42.742188" y="126.387787" style="stroke: #000000; stroke-width: 0.8"/>
      </g>
     </g>
     <g id="text_9">
      <text style="font-size: 10px; font-family: 'DejaVu Sans', 'Bitstream Vera Sans', 'Computer Modern Sans Serif', 'Lucida Grande', 'Verdana', 'Geneva', 'Lucid', 'Arial', 'Helvetica', 'Avant Garde', sans-serif; text-anchor: end" x="35.742188" y="130.187006" transform="rotate(-0 35.742188 130.187006)">−4</text>
     </g>
    </g>
    <g id="ytick_2">
     <g id="line2d_15">
      <path d="M 42.742188 88.6827 
L 248.822188 88.6827 
" clip-path="url(#pf87be1c5b9)" style="fill: none; stroke: #b0b0b0; stroke-opacity: 0.3; stroke-width: 0.8; stroke-linecap: square"/>
     </g>
     <g id="line2d_16">
      <g>
       <use xlink:href="#meb23fb85bc" x="42.742188" y="88.6827" style="stroke: #000000; stroke-width: 0.8"/>
      </g>
     </g>
     <g id="text_10">
      <text style="font-size: 10px; font-family: 'DejaVu Sans', 'Bitstream Vera Sans', 'Computer Modern Sans Serif', 'Lucida Grande', 'Verdana', 'Geneva', 'Lucid', 'Arial', 'Helvetica', 'Avant Garde', sans-serif; text-anchor: end" x="35.742188" y="92.481919" transform="rotate(-0 35.742188 92.481919)">−2</text>
     </g>
    </g>
    <g id="ytick_3">
     <g id="line2d_17">
      <path d="M 42.742188 50.977614 
L 248.822188 50.977614 
" clip-path="url(#pf87be1c5b9)" style="fill: none; stroke: #b0b0b0; stroke-opacity: 0.3; stroke-width: 0.8; stroke-linecap: square"/>
     </g>
     <g id="line2d_18">
      <g>
       <use xlink:href="#meb23fb85bc" x="42.742188" y="50.977614" style="stroke: #000000; stroke-width: 0.8"/>
      </g>
     </g>
     <g id="text_11">
      <text style="font-size: 10px; font-family: 'DejaVu Sans', 'Bitstream Vera Sans', 'Computer Modern Sans Serif', 'Lucida Grande', 'Verdana', 'Geneva', 'Lucid', 'Arial', 'Helvetica', 'Avant Garde', sans-serif; text-anchor: end" x="35.742188" y="54.776833" transform="rotate(-0 35.742188 54.776833)">0</text>
     </g>
    </g>
    <g id="ytick_4">
     <g id="line2d_19">
      <path d="M 42.742188 13.272527 
L 248.822188 13.272527 
" clip-path="url(#pf87be1c5b9)" style="fill: none; stroke: #b0b0b0; stroke-opacity: 0.3; stroke-width: 0.8; stroke-linecap: square"/>
     </g>
     <g id="line2d_20">
      <g>
       <use xlink:href="#meb23fb85bc" x="42.742188" y="13.272527" style="stroke: #000000; stroke-width: 0.8"/>
      </g>
     </g>
     <g id="text_12">
      <text style="font-size: 10px; font-family: 'DejaVu Sans', 'Bitstream Vera Sans', 'Computer Modern Sans Serif', 'Lucida Grande', 'Verdana', 'Geneva', 'Lucid', 'Arial', 'Helvetica', 'Avant Garde', sans-serif; text-anchor: end" x="35.742188" y="17.071746" transform="rotate(-0 35.742188 17.071746)">2</text>
     </g>
    </g>
    <g id="text_13">
     <!-- $\beta_t$ -->
     <g transform="translate(14.9 89.92) rotate(-90)">
      <text>
       <tspan x="0" y="-0.34375" style="font-style: oblique; font-size: 10px; font-family: 'DejaVu Sans'">β</tspan>
       <tspan x="6.381836" y="1.296875" style="font-style: oblique; font-size: 7px; font-family: 'DejaVu Sans'">t</tspan>
      </text>
     </g>
    </g>
   </g>
   <g id="line2d_21">
    <path d="M 52.10946 50.977614 
L 239.454915 50.977614 
L 239.454915 50.977614 
" clip-path="url(#pf87be1c5b9)" style="fill: none; stroke: #c0392b; stroke-width: 1.5; stroke-linecap: square"/>
   </g>
   <g id="patch_3">
    <path d="M 42.742188 163.24 
L 42.742188 7.2 
" style="fill: none; stroke: #000000; stroke-width: 0.8; stroke-linejoin: miter; stroke-linecap: square"/>
   </g>
   <g id="patch_4">
    <path d="M 248.822188 163.24 
L 248.822188 7.2 
" style="fill: none; stroke: #000000; stroke-width: 0.8; stroke-linejoin: miter; stroke-linecap: square"/>
   </g>
   <g id="patch_5">
    <path d="M 42.742188 163.24 
L 248.822187 163.24 
" style="fill: none; stroke: #000000; stroke-width: 0.8; stroke-linejoin: miter; stroke-linecap: square"/>
   </g>
   <g id="patch_6">
    <path d="M 42.742188 7.2 
L 248.822187 7.2 
" style="fill: none; stroke: #000000; stroke-width: 0.8; stroke-linejoin: miter; stroke-linecap: square"/>
   </g>
  </g>
 </g>
 <defs>
  <clipPath id="pf87be1c5b9">
   <rect x="42.742188" y="7.2" width="206.08" height="156.04"/>
  </clipPath>
 </defs>
</svg>
