<?xml version="1.0" encoding="utf-8" standalone="no"?>
<!DOCTYPE svg PUBLIC "-//W3C//DTD SVG 1.1//EN"
  "http://www.w3.org/Graphics/SVG/1.1/DTD/svg11.dtd">
<svg xmlns:xlink="http://www.w3.org/1999/xlink" width="493.105159pt" height="179.674375pt" viewBox="0 0 493.105159 179.674375" xmlns="http://www.w3.org/2000/svg" version="1.1">
 <metadata>
  <rdf:RDF xmlns:dc="http://purl.org/dc/elements/1.1/" xmlns:cc="http://creativecommons.org/ns#" xmlns:rdf="http://www.w3.org/1999/02/22-rdf-syntax-ns#">
   <cc:Work>
    <dc:type rdf:resource="http://purl.org/dc/dcmitype/StillImage"/>
    <dc:format>image/svg+xml</dc:format>
    <dc:creator>
     <cc:Agent>
      <dc:title>Matplotlib v3.10.9, https://matplotlib.org/</dc:title>
     </cc:Agent>
    </dc:creator>
   </cc:Work>
  </rdf:RDF>
 </metadata>
 <defs>
  <style type="text/css">*{stroke-linejoin: round; stroke-linecap: butt}</style>
 </defs>
 <g id="figure_1">
  <g id="patch_1">
   <path d="M 0 179.674375 
L 493.105159 179.674375 
L 493.105159 0 
L 0 0 
z
" style="fill: #ffffff"/>
  </g>
  <g id="axes_1">
   <g id="patch_2">
    <path d="M 53.328125 142.118125 
L 260.875159 142.118125 
L 260.875159 22.318125 
L 53.328125 22.318125 
z
" style="fill: #ffffff"/>
   </g>
   <g id="FillBetweenPolyCollection_1">
    <defs>
     <path id="mb77257236a" d="M 62.762081 -43.007931 
L 62.762081 -43.001705 
L 63.149513 -43.034245 
L 63.536944 -43.144911 
L 63.924375 -43.312129 
L 64.311807 -43.595543 
L 64.699238 -44.281679 
L 65.08667 -45.006703 
L 65.474101 -45.282591 
L 65.861533 -47.337194 
L 66.248964 -47.924677 
L 66.636396 -47.564554 
L 67.023827 -48.217294 
L 67.411259 -49.166395 
L 67.79869 -48.358331 
L 68.186122 -49.30309 
L 68.573553 -48.468237 
L 68.960984 -48.834075 
L 69.348416 -48.846071 
L 69.735847 -49.216705 
L 70.123279 -48.706099 
L 70.51071 -49.109094 
L 70.898142 -49.166323 
L 71.285573 -49.187474 
L 71.673005 -49.15461 
L 72.060436 -49.123805 
L 72.447868 -49.854568 
L 72.835299 -48.810431 
L 73.222731 -49.919113 
L 73.610162 -50.032743 
L 73.997593 -50.192542 
L 74.385025 -50.030791 
L 74.772456 -49.747557 
L 75.159888 -50.232619 
L 75.547319 -50.139531 
L 75.934751 -50.372763 
L 76.322182 -50.343286 
L 76.709614 -50.140722 
L 77.097045 -50.029266 
L 77.484477 -50.450532 
L 77.871908 -50.348502 
L 78.25934 -50.546514 
L 78.646771 -49.90117 
L 79.034202 -50.559752 
L 79.421634 -50.869086 
L 79.809065 -50.468185 
L 80.196497 -50.737149 
L 80.583928 -50.661454 
L 80.97136 -50.88557 
L 81.358791 -50.351112 
L 81.746223 -50.724514 
L 82.133654 -50.428246 
L 82.521086 -50.580916 
L 82.908517 -51.109308 
L 83.295949 -50.886439 
L 83.68338 -50.818071 
L 84.070811 -50.960294 
L 84.458243 -51.114278 
L 84.845674 -51.827565 
L 85.233106 -51.197448 
L 85.620537 -51.238743 
L 86.007969 -51.290197 
L 86.3954 -51.580213 
L 86.782832 -51.362268 
L 87.170263 -51.767877 
L 87.557695 -51.498693 
L 87.945126 -51.653374 
L 88.332558 -51.601217 
L 88.719989 -51.572277 
L 89.10742 -51.834797 
L 89.494852 -52.121551 
L 89.882283 -51.45786 
L 90.269715 -52.386107 
L 90.657146 -51.503596 
L 91.044578 -52.570194 
L 91.432009 -52.410472 
L 91.819441 -52.171881 
L 92.206872 -52.50129 
L 92.594304 -52.30154 
L 92.981735 -52.981637 
L 93.369167 -51.67425 
L 93.756598 -52.519982 
L 94.14403 -53.262254 
L 94.531461 -53.064411 
L 94.918892 -52.897941 
L 95.306324 -51.681794 
L 95.693755 -54.308717 
L 96.081187 -54.150478 
L 96.468618 -53.071111 
L 96.85605 -54.067908 
L 97.243481 -50.799271 
L 97.630913 -53.491144 
L 98.018344 -53.760107 
L 98.405776 -48.774869 
L 98.793207 -51.306929 
L 99.180639 -54.398782 
L 99.56807 -54.16578 
L 99.955501 -54.819196 
L 100.342933 -53.933908 
L 100.730364 -51.607763 
L 101.117796 -54.899936 
L 101.505227 -53.458925 
L 101.892659 -52.461839 
L 102.28009 -54.354927 
L 102.667522 -52.438247 
L 103.054953 -52.541175 
L 103.442385 -49.354674 
L 103.829816 -50.6758 
L 104.217248 -56.288216 
L 104.604679 -55.82154 
L 104.99211 -53.583523 
L 105.379542 -57.99869 
L 105.766973 -56.295543 
L 106.154405 -59.087751 
L 106.541836 -59.002549 
L 106.929268 -54.433474 
L 107.316699 -55.84398 
L 107.704131 -56.111637 
L 108.091562 -56.951615 
L 108.478994 -54.604478 
L 108.866425 -58.162088 
L 109.253857 -59.174151 
L 109.641288 -58.97749 
L 110.028719 -58.349182 
L 110.416151 -57.455927 
L 110.803582 -58.38984 
L 111.191014 -61.258668 
L 111.578445 -59.457279 
L 111.965877 -58.205685 
L 112.353308 -58.848166 
L 112.74074 -60.353019 
L 113.128171 -60.011851 
L 113.515603 -59.549728 
L 113.903034 -60.647835 
L 114.290466 -62.010585 
L 114.677897 -61.525992 
L 115.065328 -56.373213 
L 115.45276 -56.94886 
L 115.840191 -58.671317 
L 116.227623 -63.075497 
L 116.615054 -57.141043 
L 117.002486 -54.86804 
L 117.389917 -57.368277 
L 117.777349 -60.846066 
L 118.16478 -59.552345 
L 118.552212 -66.929426 
L 118.939643 -62.62989 
L 119.327075 -58.776392 
L 119.714506 -59.111689 
L 120.101937 -56.539324 
L 120.489369 -65.217253 
L 120.8768 -59.981286 
L 121.264232 -60.219489 
L 121.651663 -65.638527 
L 122.039095 -68.316123 
L 122.426526 -66.366013 
L 122.813958 -62.357495 
L 123.201389 -58.319897 
L 123.588821 -67.348667 
L 123.976252 -72.394489 
L 124.363684 -63.037896 
L 124.751115 -68.210911 
L 125.138546 -66.654703 
L 125.525978 -66.816654 
L 125.913409 -80.517189 
L 126.300841 -69.185804 
L 126.688272 -72.825897 
L 127.075704 -66.579534 
L 127.463135 -65.964875 
L 127.850567 -74.174179 
L 128.237998 -63.775531 
L 128.62543 -61.390273 
L 129.012861 -62.773577 
L 129.400293 -67.829966 
L 129.787724 -67.370605 
L 130.175155 -71.663937 
L 130.562587 -67.688413 
L 130.950018 -63.277778 
L 131.33745 -68.894855 
L 131.724881 -70.971573 
L 132.112313 -74.321219 
L 132.499744 -72.457037 
L 132.887176 -78.972481 
L 133.274607 -74.20703 
L 133.662039 -68.733692 
L 134.04947 -59.618148 
L 134.436902 -61.247489 
L 134.824333 -69.951505 
L 135.211764 -67.108068 
L 135.599196 -79.649778 
L 135.986627 -75.036198 
L 136.374059 -78.067384 
L 136.76149 -63.331601 
L 137.148922 -70.440685 
L 137.536353 -69.953304 
L 137.923785 -69.434071 
L 138.311216 -75.974591 
L 138.698648 -65.205199 
L 139.086079 -69.257107 
L 139.473511 -73.549213 
L 139.860942 -72.386721 
L 140.248373 -69.554055 
L 140.635805 -73.598372 
L 141.023236 -69.058337 
L 141.410668 -70.52429 
L 141.798099 -68.891564 
L 142.185531 -68.154518 
L 142.572962 -72.921047 
L 142.960394 -85.945034 
L 143.347825 -68.965435 
L 143.735257 -70.606883 
L 144.122688 -70.245684 
L 144.51012 -72.468217 
L 144.897551 -71.005067 
L 145.284982 -81.738097 
L 145.672414 -66.975438 
L 146.059845 -75.93442 
L 146.447277 -70.327907 
L 146.834708 -76.57936 
L 147.22214 -80.201141 
L 147.609571 -68.811379 
L 147.997003 -77.203998 
L 148.384434 -74.472268 
L 148.771866 -77.724845 
L 149.159297 -70.641561 
L 149.546729 -77.394052 
L 149.93416 -76.439595 
L 150.321591 -75.448325 
L 150.709023 -70.118741 
L 151.096454 -75.18032 
L 151.483886 -80.511372 
L 151.871317 -81.029272 
L 152.258749 -70.290847 
L 152.64618 -75.113754 
L 153.033612 -82.264492 
L 153.421043 -79.255548 
L 153.808475 -76.094119 
L 154.195906 -67.323209 
L 154.583338 -74.001718 
L 154.970769 -85.576243 
L 155.3582 -76.531484 
L 155.745632 -73.113644 
L 156.133063 -82.720018 
L 156.520495 -72.034287 
L 156.907926 -71.374717 
L 157.295358 -73.645169 
L 157.682789 -80.409424 
L 158.070221 -81.816203 
L 158.457652 -73.176867 
L 158.845084 -80.167936 
L 159.232515 -77.876561 
L 159.619947 -66.04773 
L 160.007378 -90.630798 
L 160.394809 -83.505968 
L 160.782241 -81.328754 
L 161.169672 -74.793665 
L 161.557104 -76.525319 
L 161.944535 -83.484676 
L 162.331967 -83.515525 
L 162.719398 -76.864832 
L 163.10683 -76.351965 
L 163.494261 -77.724176 
L 163.881693 -79.058944 
L 164.269124 -90.323005 
L 164.656556 -73.965259 
L 165.043987 -68.675887 
L 165.431418 -76.434109 
L 165.81885 -73.351325 
L 166.206281 -92.596771 
L 166.593713 -76.276045 
L 166.981144 -74.378894 
L 167.368576 -74.927196 
L 167.756007 -96.202133 
L 168.143439 -71.984248 
L 168.53087 -78.22512 
L 168.918302 -68.113777 
L 169.305733 -76.17415 
L 169.693165 -84.083067 
L 170.080596 -79.60375 
L 170.468027 -85.020445 
L 170.855459 -78.611523 
L 171.24289 -74.309078 
L 171.630322 -78.743476 
L 172.017753 -90.701404 
L 172.405185 -97.723186 
L 172.792616 -82.838514 
L 173.180048 -94.229546 
L 173.567479 -77.618449 
L 173.954911 -87.242662 
L 174.342342 -83.307344 
L 174.729774 -94.030047 
L 175.117205 -85.374536 
L 175.504636 -81.259581 
L 175.892068 -87.115804 
L 176.279499 -89.1155 
L 176.666931 -77.722476 
L 177.054362 -85.908325 
L 177.441794 -100.235991 
L 177.829225 -96.087676 
L 178.216657 -86.695854 
L 178.604088 -93.974304 
L 178.99152 -83.656938 
L 179.378951 -93.724699 
L 179.766383 -95.856765 
L 180.153814 -108.8097 
L 180.541245 -101.365385 
L 180.928677 -82.880771 
L 181.316108 -75.468412 
L 181.70354 -80.503382 
L 182.090971 -74.08043 
L 182.478403 -99.002322 
L 182.865834 -89.892742 
L 183.253266 -90.645514 
L 183.640697 -92.072718 
L 184.028129 -105.943922 
L 184.41556 -104.206618 
L 184.802992 -103.963592 
L 185.190423 -94.638821 
L 185.577854 -93.208803 
L 185.965286 -87.314106 
L 186.352717 -97.842983 
L 186.740149 -90.722774 
L 187.12758 -89.846481 
L 187.515012 -99.134282 
L 187.902443 -98.941384 
L 188.289875 -100.62897 
L 188.677306 -78.778721 
L 189.064738 -96.719033 
L 189.452169 -86.980776 
L 189.839601 -93.447977 
L 190.227032 -97.803981 
L 190.614463 -93.128235 
L 191.001895 -102.96673 
L 191.389326 -96.871861 
L 191.776758 -103.542788 
L 192.164189 -81.795171 
L 192.551621 -88.462341 
L 192.939052 -94.215953 
L 193.326484 -86.341076 
L 193.713915 -101.243456 
L 194.101347 -103.156864 
L 194.488778 -101.793861 
L 194.87621 -101.146513 
L 195.263641 -100.218682 
L 195.651072 -78.885973 
L 196.038504 -88.900047 
L 196.425935 -93.365269 
L 196.813367 -91.291681 
L 197.200798 -90.937668 
L 197.58823 -82.624023 
L 197.975661 -91.57539 
L 198.363093 -101.853601 
L 198.750524 -91.066887 
L 199.137956 -92.421585 
L 199.525387 -92.416974 
L 199.912819 -96.947241 
L 200.30025 -83.007853 
L 200.687681 -95.233814 
L 201.075113 -93.952199 
L 201.462544 -86.624617 
L 201.849976 -104.79354 
L 202.237407 -99.178327 
L 202.624839 -100.130514 
L 203.01227 -97.352445 
L 203.399702 -87.406937 
L 203.787133 -103.912058 
L 204.174565 -100.024445 
L 204.561996 -89.473305 
L 204.949428 -121.11627 
L 205.336859 -98.768461 
L 205.72429 -93.386863 
L 206.111722 -91.753766 
L 206.499153 -95.811026 
L 206.886585 -115.88455 
L 207.274016 -97.681351 
L 207.661448 -84.69562 
L 208.048879 -96.362149 
L 208.436311 -91.600441 
L 208.823742 -104.808655 
L 209.211174 -95.436902 
L 209.598605 -87.657984 
L 209.986037 -97.300168 
L 210.373468 -113.299715 
L 210.7609 -109.821453 
L 211.148331 -98.276775 
L 211.535762 -94.299436 
L 211.923194 -91.498273 
L 212.310625 -100.565948 
L 212.698057 -110.647338 
L 213.085488 -97.737444 
L 213.47292 -101.585863 
L 213.860351 -100.555355 
L 214.247783 -111.153157 
L 214.635214 -127.105703 
L 215.022646 -103.034757 
L 215.410077 -120.768916 
L 215.797509 -93.966803 
L 216.18494 -117.112604 
L 216.572371 -107.761668 
L 216.959803 -102.176755 
L 217.347234 -114.040408 
L 217.734666 -120.197094 
L 218.122097 -110.438838 
L 218.509529 -104.582564 
L 218.89696 -107.15311 
L 219.284392 -114.816148 
L 219.671823 -108.877975 
L 220.059255 -107.239232 
L 220.446686 -113.13907 
L 220.834118 -100.270228 
L 221.221549 -103.565593 
L 221.60898 -90.866716 
L 221.996412 -123.561541 
L 222.383843 -108.711321 
L 222.771275 -111.92716 
L 223.158706 -103.967468 
L 223.546138 -110.441589 
L 223.933569 -114.645786 
L 224.321001 -97.324538 
L 224.708432 -118.126539 
L 225.095864 -99.98527 
L 225.483295 -84.425423 
L 225.870727 -101.805805 
L 226.258158 -95.912568 
L 226.645589 -102.95857 
L 227.033021 -112.534769 
L 227.420452 -114.866242 
L 227.807884 -102.752163 
L 228.195315 -111.174875 
L 228.582747 -103.526605 
L 228.970178 -124.076333 
L 229.35761 -97.283342 
L 229.745041 -105.016139 
L 230.132473 -122.454197 
L 230.519904 -109.554653 
L 230.907336 -115.235385 
L 231.294767 -109.979264 
L 231.682198 -121.595218 
L 232.06963 -105.967991 
L 232.457061 -91.479161 
L 232.844493 -125.991828 
L 233.231924 -102.988909 
L 233.619356 -107.634062 
L 234.006787 -105.850698 
L 234.394219 -102.025408 
L 234.78165 -114.174778 
L 235.169082 -113.194251 
L 235.556513 -121.333718 
L 235.943945 -103.924602 
L 236.331376 -118.034956 
L 236.718807 -100.694237 
L 237.106239 -122.810929 
L 237.49367 -103.82566 
L 237.881102 -106.731393 
L 238.268533 -106.233051 
L 238.655965 -115.262518 
L 239.043396 -108.686803 
L 239.430828 -124.441416 
L 239.818259 -105.520987 
L 240.205691 -105.481318 
L 240.593122 -101.700389 
L 240.980554 -103.582399 
L 241.367985 -96.468893 
L 241.755416 -97.113419 
L 242.142848 -101.801603 
L 242.530279 -100.614738 
L 242.917711 -104.793038 
L 243.305142 -108.302611 
L 243.692574 -115.35082 
L 244.080005 -104.184594 
L 244.467437 -110.322661 
L 244.854868 -103.928982 
L 245.2423 -110.099069 
L 245.629731 -113.354392 
L 246.017163 -108.601169 
L 246.404594 -116.113432 
L 246.792025 -108.6355 
L 247.179457 -128.151038 
L 247.566888 -101.761854 
L 247.95432 -109.013882 
L 248.341751 -115.896303 
L 248.729183 -105.352992 
L 249.116614 -112.420151 
L 249.504046 -119.190931 
L 249.891477 -108.229128 
L 250.278909 -87.374959 
L 250.66634 -105.039282 
L 251.053772 -92.142592 
L 251.441203 -115.885833 
L 251.441203 -150.732007 
L 251.441203 -150.732007 
L 251.053772 -130.971023 
L 250.66634 -138.325342 
L 250.278909 -140.025349 
L 249.891477 -140.101546 
L 249.504046 -141.677962 
L 249.116614 -142.282373 
L 248.729183 -125.251053 
L 248.341751 -131.79685 
L 247.95432 -139.207843 
L 247.566888 -151.032463 
L 247.179457 -144.458781 
L 246.792025 -144.234563 
L 246.404594 -142.248743 
L 246.017163 -129.666337 
L 245.629731 -145.690391 
L 245.2423 -140.626071 
L 244.854868 -141.66051 
L 244.467437 -143.198771 
L 244.080005 -149.942391 
L 243.692574 -140.049698 
L 243.305142 -151.221054 
L 242.917711 -140.868074 
L 242.530279 -133.538422 
L 242.142848 -144.650781 
L 241.755416 -129.803104 
L 241.367985 -130.565183 
L 240.980554 -132.513953 
L 240.593122 -131.306113 
L 240.205691 -145.588479 
L 239.818259 -145.139296 
L 239.430828 -141.463322 
L 239.043396 -136.773452 
L 238.655965 -144.705578 
L 238.268533 -131.380204 
L 237.881102 -139.269579 
L 237.49367 -122.438372 
L 237.106239 -146.529915 
L 236.718807 -149.671868 
L 236.331376 -143.290749 
L 235.943945 -141.298705 
L 235.556513 -140.160523 
L 235.169082 -137.85843 
L 234.78165 -139.01817 
L 234.394219 -136.89433 
L 234.006787 -142.615424 
L 233.619356 -138.282571 
L 233.231924 -137.700014 
L 232.844493 -148.149387 
L 232.457061 -132.468722 
L 232.06963 -135.87683 
L 231.682198 -144.875915 
L 231.294767 -131.545963 
L 230.907336 -139.638167 
L 230.519904 -143.047157 
L 230.132473 -141.057309 
L 229.745041 -132.644586 
L 229.35761 -127.397389 
L 228.970178 -141.047991 
L 228.582747 -134.04039 
L 228.195315 -137.683114 
L 227.807884 -144.726888 
L 227.420452 -135.173073 
L 227.033021 -151.910795 
L 226.645589 -139.949165 
L 226.258158 -124.168122 
L 225.870727 -134.390768 
L 225.483295 -130.624889 
L 225.095864 -141.791197 
L 224.708432 -146.380406 
L 224.321001 -128.025 
L 223.933569 -143.777659 
L 223.546138 -140.898562 
L 223.158706 -149.074541 
L 222.771275 -145.002107 
L 222.383843 -141.925739 
L 221.996412 -148.409838 
L 221.60898 -139.139875 
L 221.221549 -133.663634 
L 220.834118 -133.663556 
L 220.446686 -143.565204 
L 220.059255 -132.887413 
L 219.671823 -133.518444 
L 219.284392 -135.659234 
L 218.89696 -131.057601 
L 218.509529 -142.969121 
L 218.122097 -135.674866 
L 217.734666 -141.265364 
L 217.347234 -145.926713 
L 216.959803 -140.324175 
L 216.572371 -131.039507 
L 216.18494 -145.29455 
L 215.797509 -134.194747 
L 215.410077 -131.027694 
L 215.022646 -141.465951 
L 214.635214 -143.583959 
L 214.247783 -146.880123 
L 213.860351 -134.430169 
L 213.47292 -150.525646 
L 213.085488 -117.163592 
L 212.698057 -144.097363 
L 212.310625 -114.227947 
L 211.923194 -112.490576 
L 211.535762 -120.083995 
L 211.148331 -133.434931 
L 210.7609 -136.889715 
L 210.373468 -137.902001 
L 209.986037 -131.685343 
L 209.598605 -126.527196 
L 209.211174 -135.860002 
L 208.823742 -141.320012 
L 208.436311 -126.374728 
L 208.048879 -125.21355 
L 207.661448 -133.506843 
L 207.274016 -136.339555 
L 206.886585 -131.695097 
L 206.499153 -139.149365 
L 206.111722 -141.793972 
L 205.72429 -139.992935 
L 205.336859 -143.765471 
L 204.949428 -145.281508 
L 204.561996 -123.280414 
L 204.174565 -128.452791 
L 203.787133 -140.529682 
L 203.399702 -128.778777 
L 203.01227 -149.121021 
L 202.624839 -139.661164 
L 202.237407 -141.501308 
L 201.849976 -135.742148 
L 201.462544 -139.449425 
L 201.075113 -126.940468 
L 200.687681 -134.123826 
L 200.30025 -131.296902 
L 199.912819 -139.596013 
L 199.525387 -123.061153 
L 199.137956 -137.66321 
L 198.750524 -139.317081 
L 198.363093 -134.448175 
L 197.975661 -124.889873 
L 197.58823 -123.522357 
L 197.200798 -126.030128 
L 196.813367 -131.583559 
L 196.425935 -142.981184 
L 196.038504 -127.855001 
L 195.651072 -124.670679 
L 195.263641 -132.567883 
L 194.87621 -125.31475 
L 194.488778 -129.895875 
L 194.101347 -120.666912 
L 193.713915 -129.478606 
L 193.326484 -112.804571 
L 192.939052 -130.351527 
L 192.551621 -110.769297 
L 192.164189 -127.365076 
L 191.776758 -140.450269 
L 191.389326 -133.935249 
L 191.001895 -143.601698 
L 190.614463 -141.045093 
L 190.227032 -147.093741 
L 189.839601 -146.575482 
L 189.452169 -138.669405 
L 189.064738 -147.928295 
L 188.677306 -125.549623 
L 188.289875 -137.448871 
L 187.902443 -130.575225 
L 187.515012 -118.150432 
L 187.12758 -121.121249 
L 186.740149 -116.86634 
L 186.352717 -145.08018 
L 185.965286 -110.735166 
L 185.577854 -136.810793 
L 185.190423 -136.012994 
L 184.802992 -142.280746 
L 184.41556 -123.886393 
L 184.028129 -131.399163 
L 183.640697 -132.231981 
L 183.253266 -125.855064 
L 182.865834 -143.025961 
L 182.478403 -137.953484 
L 182.090971 -129.042863 
L 181.70354 -104.919806 
L 181.316108 -127.012118 
L 180.928677 -113.694632 
L 180.541245 -128.392256 
L 180.153814 -129.810191 
L 179.766383 -132.776133 
L 179.378951 -143.450292 
L 178.99152 -117.525243 
L 178.604088 -124.101457 
L 178.216657 -130.79518 
L 177.829225 -124.912965 
L 177.441794 -112.43303 
L 177.054362 -132.775899 
L 176.666931 -125.162224 
L 176.279499 -125.309395 
L 175.892068 -139.669637 
L 175.504636 -136.548012 
L 175.117205 -124.296247 
L 174.729774 -126.865098 
L 174.342342 -124.318989 
L 173.954911 -133.800446 
L 173.567479 -124.227134 
L 173.180048 -131.302636 
L 172.792616 -126.752141 
L 172.405185 -129.655545 
L 172.017753 -137.665235 
L 171.630322 -135.28709 
L 171.24289 -121.212782 
L 170.855459 -126.105336 
L 170.468027 -134.061516 
L 170.080596 -127.370362 
L 169.693165 -140.084423 
L 169.305733 -120.964961 
L 168.918302 -115.717409 
L 168.53087 -131.393415 
L 168.143439 -116.542696 
L 167.756007 -132.979021 
L 167.368576 -129.983919 
L 166.981144 -118.168617 
L 166.593713 -122.539326 
L 166.206281 -124.906305 
L 165.81885 -123.755617 
L 165.431418 -137.862372 
L 165.043987 -119.053478 
L 164.656556 -129.105988 
L 164.269124 -132.939616 
L 163.881693 -129.805954 
L 163.494261 -112.635608 
L 163.10683 -115.866105 
L 162.719398 -111.616268 
L 162.331967 -116.312162 
L 161.944535 -119.158178 
L 161.557104 -106.92763 
L 161.169672 -106.504274 
L 160.782241 -96.886154 
L 160.394809 -120.096772 
L 160.007378 -122.311047 
L 159.619947 -113.08796 
L 159.232515 -127.228038 
L 158.845084 -109.201591 
L 158.457652 -112.267298 
L 158.070221 -112.135523 
L 157.682789 -118.474931 
L 157.295358 -113.623672 
L 156.907926 -92.358297 
L 156.520495 -104.934147 
L 156.133063 -117.207534 
L 155.745632 -119.074847 
L 155.3582 -101.888166 
L 154.970769 -119.98267 
L 154.583338 -125.296843 
L 154.195906 -123.5271 
L 153.808475 -105.236597 
L 153.421043 -119.977019 
L 153.033612 -113.763965 
L 152.64618 -124.475353 
L 152.258749 -113.530684 
L 151.871317 -99.960426 
L 151.483886 -94.218464 
L 151.096454 -112.518478 
L 150.709023 -105.081993 
L 150.321591 -102.624436 
L 149.93416 -100.35165 
L 149.546729 -116.10487 
L 149.159297 -118.331299 
L 148.771866 -106.601195 
L 148.384434 -107.35867 
L 147.997003 -96.747442 
L 147.609571 -107.138742 
L 147.22214 -126.383243 
L 146.834708 -120.65598 
L 146.447277 -114.272498 
L 146.059845 -123.193326 
L 145.672414 -102.734181 
L 145.284982 -113.60317 
L 144.897551 -98.725419 
L 144.51012 -107.837153 
L 144.122688 -97.148957 
L 143.735257 -99.367262 
L 143.347825 -96.944376 
L 142.960394 -107.013192 
L 142.572962 -105.136208 
L 142.185531 -100.039165 
L 141.798099 -105.624836 
L 141.410668 -88.147691 
L 141.023236 -106.855775 
L 140.635805 -100.41768 
L 140.248373 -90.537191 
L 139.860942 -110.544224 
L 139.473511 -109.52066 
L 139.086079 -90.982137 
L 138.698648 -106.333746 
L 138.311216 -86.808612 
L 137.923785 -91.033704 
L 137.536353 -108.054854 
L 137.148922 -110.487928 
L 136.76149 -87.524914 
L 136.374059 -101.149176 
L 135.986627 -111.113781 
L 135.599196 -93.838001 
L 135.211764 -105.576549 
L 134.824333 -102.401099 
L 134.436902 -93.082119 
L 134.04947 -99.921966 
L 133.662039 -107.79955 
L 133.274607 -105.574963 
L 132.887176 -95.376703 
L 132.499744 -93.680996 
L 132.112313 -87.318156 
L 131.724881 -102.749504 
L 131.33745 -98.783571 
L 130.950018 -105.562733 
L 130.562587 -77.245906 
L 130.175155 -95.287176 
L 129.787724 -85.905076 
L 129.400293 -89.229582 
L 129.012861 -104.278312 
L 128.62543 -108.48099 
L 128.237998 -105.354412 
L 127.850567 -90.339674 
L 127.463135 -91.747989 
L 127.075704 -99.461902 
L 126.688272 -86.655965 
L 126.300841 -85.373967 
L 125.913409 -89.642349 
L 125.525978 -95.083905 
L 125.138546 -85.790235 
L 124.751115 -105.583367 
L 124.363684 -104.588955 
L 123.976252 -92.931004 
L 123.588821 -93.416704 
L 123.201389 -101.680952 
L 122.813958 -93.414277 
L 122.426526 -78.324424 
L 122.039095 -82.906689 
L 121.651663 -83.665701 
L 121.264232 -103.306815 
L 120.8768 -93.63458 
L 120.489369 -81.610548 
L 120.101937 -97.678968 
L 119.714506 -96.019169 
L 119.327075 -102.70831 
L 118.939643 -87.102414 
L 118.552212 -81.957689 
L 118.16478 -89.417521 
L 117.777349 -83.422634 
L 117.389917 -87.532787 
L 117.002486 -99.872113 
L 116.615054 -85.41772 
L 116.227623 -81.431918 
L 115.840191 -81.346159 
L 115.45276 -92.365071 
L 115.065328 -82.158193 
L 114.677897 -74.304208 
L 114.290466 -77.478051 
L 113.903034 -73.257789 
L 113.515603 -73.954676 
L 113.128171 -73.24832 
L 112.74074 -77.72783 
L 112.353308 -75.299674 
L 111.965877 -70.072879 
L 111.578445 -73.737862 
L 111.191014 -77.636755 
L 110.803582 -78.746474 
L 110.416151 -76.219573 
L 110.028719 -67.270064 
L 109.641288 -72.169453 
L 109.253857 -80.274994 
L 108.866425 -74.962651 
L 108.478994 -76.379658 
L 108.091562 -72.204125 
L 107.704131 -81.696665 
L 107.316699 -80.129563 
L 106.929268 -82.264893 
L 106.541836 -69.688195 
L 106.154405 -71.628805 
L 105.766973 -73.983265 
L 105.379542 -64.948767 
L 104.99211 -84.674337 
L 104.604679 -78.941275 
L 104.217248 -68.405402 
L 103.829816 -84.939133 
L 103.442385 -81.820949 
L 103.054953 -72.382907 
L 102.667522 -74.014913 
L 102.28009 -72.078387 
L 101.892659 -71.291635 
L 101.505227 -72.106975 
L 101.117796 -65.291484 
L 100.730364 -74.948486 
L 100.342933 -67.595682 
L 99.955501 -65.614791 
L 99.56807 -67.492248 
L 99.180639 -66.215704 
L 98.793207 -76.288584 
L 98.405776 -79.03465 
L 98.018344 -67.991374 
L 97.630913 -65.752728 
L 97.243481 -74.458283 
L 96.85605 -61.84716 
L 96.468618 -64.865682 
L 96.081187 -62.523743 
L 95.693755 -60.731397 
L 95.306324 -69.23211 
L 94.918892 -63.356932 
L 94.531461 -63.623164 
L 94.14403 -62.67403 
L 93.756598 -60.515491 
L 93.369167 -63.406503 
L 92.981735 -60.828073 
L 92.594304 -60.250649 
L 92.206872 -61.170077 
L 91.819441 -61.515252 
L 91.432009 -59.311713 
L 91.044578 -59.062128 
L 90.657146 -59.19193 
L 90.269715 -58.669515 
L 89.882283 -59.096944 
L 89.494852 -59.004736 
L 89.10742 -58.830274 
L 88.719989 -57.587629 
L 88.332558 -56.579343 
L 87.945126 -56.354402 
L 87.557695 -56.574816 
L 87.170263 -55.046056 
L 86.782832 -55.497932 
L 86.3954 -54.60022 
L 86.007969 -53.981963 
L 85.620537 -54.626509 
L 85.233106 -53.984904 
L 84.845674 -54.254342 
L 84.458243 -54.113843 
L 84.070811 -54.183474 
L 83.68338 -53.768051 
L 83.295949 -53.583857 
L 82.908517 -53.256429 
L 82.521086 -53.117899 
L 82.133654 -53.077171 
L 81.746223 -52.742098 
L 81.358791 -52.421864 
L 80.97136 -52.377929 
L 80.583928 -52.48494 
L 80.196497 -51.910224 
L 79.809065 -51.582065 
L 79.421634 -51.876819 
L 79.034202 -51.693278 
L 78.646771 -51.244384 
L 78.25934 -51.66016 
L 77.871908 -51.392458 
L 77.484477 -51.390784 
L 77.097045 -51.28604 
L 76.709614 -50.975034 
L 76.322182 -50.669885 
L 75.934751 -50.804631 
L 75.547319 -51.588268 
L 75.159888 -50.647224 
L 74.772456 -51.127314 
L 74.385025 -50.738914 
L 73.997593 -50.737504 
L 73.610162 -51.606399 
L 73.222731 -50.719468 
L 72.835299 -50.719586 
L 72.447868 -50.650053 
L 72.060436 -51.290456 
L 71.673005 -50.541588 
L 71.285573 -50.37243 
L 70.898142 -49.940034 
L 70.51071 -50.204742 
L 70.123279 -50.944422 
L 69.735847 -50.63314 
L 69.348416 -50.852559 
L 68.960984 -50.65645 
L 68.573553 -49.858728 
L 68.186122 -50.260023 
L 67.79869 -49.974476 
L 67.411259 -50.792158 
L 67.023827 -50.330008 
L 66.636396 -49.784328 
L 66.248964 -48.974081 
L 65.861533 -48.256662 
L 65.474101 -46.949005 
L 65.08667 -45.918314 
L 64.699238 -45.237877 
L 64.311807 -44.124056 
L 63.924375 -43.425643 
L 63.536944 -43.21625 
L 63.149513 -43.065807 
L 62.762081 -43.007931 
z
"/>
    </defs>
    <g clip-path="url(#pa19da0af69)">
     <use xlink:href="#mb77257236a" x="0" y="179.674375" style="fill: #1f77b4; fill-opacity: 0.2"/>
    </g>
   </g>
   <g id="matplotlib.axis_1">
    <g id="xtick_1">
     <g id="line2d_1">
      <path d="M 62.37465 142.118125 
L 62.37465 22.318125 
" clip-path="url(#pa19da0af69)" style="fill: none; stroke: #b0b0b0; stroke-opacity: 0.3; stroke-width: 0.8; stroke-linecap: square"/>
     </g>
     <g id="line2d_2">
      <defs>
       <path id="md52ec2ff24" d="M 0 0 
L 0 3.5 
" style="stroke: #000000; stroke-width: 0.8"/>
      </defs>
      <g>
       <use xlink:href="#md52ec2ff24" x="62.37465" y="142.118125" style="stroke: #000000; stroke-width: 0.8"/>
      </g>
     </g>
     <g id="text_1">
      <text style="font-size: 10px; font-family: 'DejaVu Sans', 'Bitstream Vera Sans', 'Computer Modern Sans Serif', 'Lucida Grande', 'Verdana', 'Geneva', 'Lucid', 'Arial', 'Helvetica', 'Avant Garde', sans-serif; text-anchor: middle" x="62.37465" y="156.716562" transform="rotate(-0 62.37465 156.716562)">0.0</text>
     </g>
    </g>
    <g id="xtick_2">
     <g id="line2d_3">
      <path d="M 100.209753 142.118125 
L 100.209753 22.318125 
" clip-path="url(#pa19da0af69)" style="fill: none; stroke: #b0b0b0; stroke-opacity: 0.3; stroke-width: 0.8; stroke-linecap: square"/>
     </g>
     <g id="line2d_4">
      <g>
       <use xlink:href="#md52ec2ff24" x="100.209753" y="142.118125" style="stroke: #000000; stroke-width: 0.8"/>
      </g>
     </g>
     <g id="text_2">
      <text style="font-size: 10px; font-family: 'DejaVu Sans', 'Bitstream Vera Sans', 'Computer Modern Sans Serif', 'Lucida Grande', 'Verdana', 'Geneva', 'Lucid', 'Arial', 'Helvetica', 'Avant Garde', sans-serif; text-anchor: middle" x="100.209753" y="156.716562" transform="rotate(-0 100.209753 156.716562)">0.2</text>
     </g>
    </g>
    <g id="xtick_3">
     <g id="line2d_5">
      <path d="M 138.044857 142.118125 
L 138.044857 22.318125 
" clip-path="url(#pa19da0af69)" style="fill: none; stroke: #b0b0b0; stroke-opacity: 0.3; stroke-width: 0.8; stroke-linecap: square"/>
     </g>
     <g id="line2d_6">
      <g>
       <use xlink:href="#md52ec2ff24" x="138.044857" y="142.118125" style="stroke: #000000; stroke-width: 0.8"/>
      </g>
     </g>
     <g id="text_3">
      <text style="font-size: 10px; font-family: 'DejaVu Sans', 'Bitstream Vera Sans', 'Computer Modern Sans Serif', 'Lucida Grande', 'Verdana', 'Geneva', 'Lucid', 'Arial', 'Helvetica', 'Avant Garde', sans-serif; text-anchor: middle" x="138.044857" y="156.716562" transform="rotate(-0 138.044857 156.716562)">0.4</text>
     </g>
    </g>
    <g id="xtick_4">
     <g id="line2d_7">
      <path d="M 175.879961 142.118125 
L 175.879961 22.318125 
" clip-path="url(#pa19da0af69)" style="fill: none; stroke: #b0b0b0; stroke-opacity: 0.3; stroke-width: 0.8; stroke-linecap: square"/>
     </g>
     <g id="line2d_8">
      <g>
       <use xlink:href="#md52ec2ff24" x="175.879961" y="142.118125" style="stroke: #000000; stroke-width: 0.8"/>
      </g>
     </g>
     <g id="text_4">
      <text style="font-size: 10px; font-family: 'DejaVu Sans', 'Bitstream Vera Sans', 'Computer Modern Sans Serif', 'Lucida Grande', 'Verdana', 'Geneva', 'Lucid', 'Arial', 'Helvetica', 'Avant Garde', sans-serif; text-anchor: middle" x="175.879961" y="156.716562" transform="rotate(-0 175.879961 156.716562)">0.6</text>
     </g>
    </g>
    <g id="xtick_5">
     <g id="line2d_9">
      <path d="M 213.715064 142.118125 
L 213.715064 22.318125 
" clip-path="url(#pa19da0af69)" style="fill: none; stroke: #b0b0b0; stroke-opacity: 0.3; stroke-width: 0.8; stroke-linecap: square"/>
     </g>
     <g id="line2d_10">
      <g>
       <use xlink:href="#md52ec2ff24" x="213.715064" y="142.118125" style="stroke: #000000; stroke-width: 0.8"/>
      </g>
     </g>
     <g id="text_5">
      <text style="font-size: 10px; font-family: 'DejaVu Sans', 'Bitstream Vera Sans', 'Computer Modern Sans Serif', 'Lucida Grande', 'Verdana', 'Geneva', 'Lucid', 'Arial', 'Helvetica', 'Avant Garde', sans-serif; text-anchor: middle" x="213.715064" y="156.716562" transform="rotate(-0 213.715064 156.716562)">0.8</text>
     </g>
    </g>
    <g id="xtick_6">
     <g id="line2d_11">
      <path d="M 251.550168 142.118125 
L 251.550168 22.318125 
" clip-path="url(#pa19da0af69)" style="fill: none; stroke: #b0b0b0; stroke-opacity: 0.3; stroke-width: 0.8; stroke-linecap: square"/>
     </g>
     <g id="line2d_12">
      <g>
       <use xlink:href="#md52ec2ff24" x="251.550168" y="142.118125" style="stroke: #000000; stroke-width: 0.8"/>
      </g>
     </g>
     <g id="text_6">
      <text style="font-size: 10px; font-family: 'DejaVu Sans', 'Bitstream Vera Sans', 'Computer Modern Sans Serif', 'Lucida Grande', 'Verdana', 'Geneva', 'Lucid', 'Arial', 'Helvetica', 'Avant Garde', sans-serif; text-anchor: middle" x="251.550168" y="156.716562" transform="rotate(-0 251.550168 156.716562)">1.0</text>
     </g>
    </g>
    <g id="text_7">
     <text style="font-size: 10px; font-family: 'DejaVu Sans', 'Bitstream Vera Sans', 'Computer Modern Sans Serif', 'Lucida Grande', 'Verdana', 'Geneva', 'Lucid', 'Arial', 'Helvetica', 'Avant Garde', sans-serif; text-anchor: middle" x="157.101642" y="170.394687" transform="rotate(-0 157.101642 170.394687)">environment step</text>
    </g>
    <g id="text_8">
     <text style="font-size: 10px; font-family: 'DejaVu Sans', 'Bitstream Vera Sans', 'Computer Modern Sans Serif', 'Lucida Grande', 'Verdana', 'Geneva', 'Lucid', 'Arial', 'Helvetica', 'Avant Garde', sans-serif; text-anchor: end" x="260.875159" y="169.394687" transform="rotate(-0 260.875159 169.394687)">1e6</text>
    </g>
   </g>
   <g id="matplotlib.axis_2">
    <g id="ytick_1">
     <g id="line2d_13">
      <path d="M 53.328125 136.673061 
L 260.875159 136.673061 
" clip-path="url(#pa19da0af69)" style="fill: none; stroke: #b0b0b0; stroke-opacity: 0.3; stroke-width: 0.8; stroke-linecap: square"/>
     </g>
     <g id="line2d_14">
      <defs>
       <path id="meb23fb85bc" d="M 0 0 
L -3.5 0 
" style="stroke: #000000; stroke-width: 0.8"/>
      </defs>
      <g>
       <use xlink:href="#meb23fb85bc" x="53.328125" y="136.673061" style="stroke: #000000; stroke-width: 0.8"/>
      </g>
     </g>
     <g id="text_9">
      <text style="font-size: 10px; font-family: 'DejaVu Sans', 'Bitstream Vera Sans', 'Computer Modern Sans Serif', 'Lucida Grande', 'Verdana', 'Geneva', 'Lucid', 'Arial', 'Helvetica', 'Avant Garde', sans-serif; text-anchor: end" x="46.328125" y="140.47228" transform="rotate(-0 46.328125 140.47228)">0</text>
     </g>
    </g>
    <g id="ytick_2">
     <g id="line2d_15">
      <path d="M 53.328125 114.814739 
L 260.875159 114.814739 
" clip-path="url(#pa19da0af69)" style="fill: none; stroke: #b0b0b0; stroke-opacity: 0.3; stroke-width: 0.8; stroke-linecap: square"/>
     </g>
     <g id="line2d_16">
      <g>
       <use xlink:href="#meb23fb85bc" x="53.328125" y="114.814739" style="stroke: #000000; stroke-width: 0.8"/>
      </g>
     </g>
     <g id="text_10">
      <text style="font-size: 10px; font-family: 'DejaVu Sans', 'Bitstream Vera Sans', 'Computer Modern Sans Serif', 'Lucida Grande', 'Verdana', 'Geneva', 'Lucid', 'Arial', 'Helvetica', 'Avant Garde', sans-serif; text-anchor: end" x="46.328125" y="118.613958" transform="rotate(-0 46.328125 118.613958)">1000</text>
     </g>
    </g>
    <g id="ytick_3">
     <g id="line2d_17">
      <path d="M 53.328125 92.956417 
L 260.875159 92.956417 
" clip-path="url(#pa19da0af69)" style="fill: none; stroke: #b0b0b0; stroke-opacity: 0.3; stroke-width: 0.8; stroke-linecap: square"/>
     </g>
     <g id="line2d_18">
      <g>
       <use xlink:href="#meb23fb85bc" x="53.328125" y="92.956417" style="stroke: #000000; stroke-width: 0.8"/>
      </g>
     </g>
     <g id="text_11">
      <text style="font-size: 10px; font-family: 'DejaVu Sans', 'Bitstream Vera Sans', 'Computer Modern Sans Serif', 'Lucida Grande', 'Verdana', 'Geneva', 'Lucid', 'Arial', 'Helvetica', 'Avant Garde', sans-serif; text-anchor: end" x="46.328125" y="96.755635" transform="rotate(-0 46.328125 96.755635)">2000</text>
     </g>
    </g>
    <g id="ytick_4">
     <g id="line2d_19">
      <path d="M 53.328125 71.098094 
L 260.875159 71.098094 
" clip-path="url(#pa19da0af69)" style="fill: none; stroke: #b0b0b0; stroke-opacity: 0.3; stroke-width: 0.8; stroke-linecap: square"/>
     </g>
     <g id="line2d_20">
      <g>
       <use xlink:href="#meb23fb85bc" x="53.328125" y="71.098094" style="stroke: #000000; stroke-width: 0.8"/>
      </g>
     </g>
     <g id="text_12">
      <text style="font-size: 10px; font-family: 'DejaVu Sans', 'Bitstream Vera Sans', 'Computer Modern Sans Serif', 'Lucida Grande', 'Verdana', 'Geneva', 'Lucid', 'Arial', 'Helvetica', 'Avant Garde', sans-serif; text-anchor: end" x="46.328125" y="74.897313" transform="rotate(-0 46.328125 74.897313)">3000</text>
     </g>
    </g>
    <g id="ytick_5">
     <g id="line2d_21">
      <path d="M 53.328125 49.239772 
L 260.875159 49.239772 
" clip-path="url(#pa19da0af69)" style="fill: none; stroke: #b0b0b0; stroke-opacity: 0.3; stroke-width: 0.8; stroke-linecap: square"/>
     </g>
     <g id="line2d_22">
      <g>
       <use xlink:href="#meb23fb85bc" x="53.328125" y="49.239772" style="stroke: #000000; stroke-width: 0.8"/>
      </g>
     </g>
     <g id="text_13">
      <text style="font-size: 10px; font-family: 'DejaVu Sans', 'Bitstream Vera Sans', 'Computer Modern Sans Serif', 'Lucida Grande', 'Verdana', 'Geneva', 'Lucid', 'Arial', 'Helvetica', 'Avant Garde', sans-serif; text-anchor: end" x="46.328125" y="53.038991" transform="rotate(-0 46.328125 53.038991)">4000</text>
     </g>
    </g>
    <g id="ytick_6">
     <g id="line2d_23">
      <path d="M 53.328125 27.38145 
L 260.875159 27.38145 
" clip-path="url(#pa19da0af69)" style="fill: none; stroke: #b0b0b0; stroke-opacity: 0.3; stroke-width: 0.8; stroke-linecap: square"/>
     </g>
     <g id="line2d_24">
      <g>
       <use xlink:href="#meb23fb85bc" x="53.328125" y="27.38145" style="stroke: #000000; stroke-width: 0.8"/>
      </g>
     </g>
     <g id="text_14">
      <text style="font-size: 10px; font-family: 'DejaVu Sans', 'Bitstream Vera Sans', 'Computer Modern Sans Serif', 'Lucida Grande', 'Verdana', 'Geneva', 'Lucid', 'Arial', 'Helvetica', 'Avant Garde', sans-serif; text-anchor: end" x="46.328125" y="31.180669" transform="rotate(-0 46.328125 31.180669)">5000</text>
     </g>
    </g>
    <g id="text_15">
     <text style="font-size: 10px; font-family: 'DejaVu Sans', 'Bitstream Vera Sans', 'Computer Modern Sans Serif', 'Lucida Grande', 'Verdana', 'Geneva', 'Lucid', 'Arial', 'Helvetica', 'Avant Garde', sans-serif; text-anchor: middle" x="14.798438" y="82.218125" transform="rotate(-90 14.798438 82.218125)">episode return</text>
    </g>
   </g>
   <g id="line2d_25">
    <path d="M 62.762081 136.669557 
L 63.536944 136.493794 
L 63.924375 136.305489 
L 64.311807 135.814576 
L 65.08667 134.211867 
L 65.474101 133.558577 
L 65.861533 131.877447 
L 66.248964 131.224996 
L 66.636396 130.999934 
L 67.411259 129.695098 
L 67.79869 130.507971 
L 68.186122 129.892819 
L 68.573553 130.510893 
L 68.960984 129.929112 
L 69.735847 129.749453 
L 70.898142 130.121197 
L 71.285573 129.894423 
L 71.673005 129.826276 
L 72.060436 129.467244 
L 72.447868 129.422064 
L 72.835299 129.909367 
L 73.610162 128.854804 
L 73.997593 129.209352 
L 74.385025 129.289523 
L 75.159888 129.234454 
L 75.547319 128.810476 
L 75.934751 129.085678 
L 76.322182 129.167789 
L 77.097045 129.016722 
L 77.484477 128.753717 
L 77.871908 128.803895 
L 78.25934 128.571038 
L 78.646771 129.101598 
L 79.034202 128.54786 
L 79.421634 128.301423 
L 79.809065 128.64925 
L 80.583928 128.101178 
L 80.97136 128.042626 
L 81.358791 128.287887 
L 81.746223 127.941069 
L 82.521086 127.824967 
L 82.908517 127.491506 
L 83.68338 127.381314 
L 84.070811 127.102491 
L 84.458243 127.060315 
L 84.845674 126.633422 
L 85.233106 127.083199 
L 85.620537 126.741749 
L 86.007969 127.038295 
L 86.782832 126.244275 
L 87.170263 126.267409 
L 87.557695 125.63762 
L 87.945126 125.670487 
L 88.332558 125.584095 
L 88.719989 125.094422 
L 89.10742 124.34184 
L 89.494852 124.111232 
L 89.882283 124.396973 
L 90.269715 124.146564 
L 90.657146 124.326612 
L 91.044578 123.858214 
L 91.432009 123.813282 
L 91.819441 122.830809 
L 92.206872 122.838691 
L 92.594304 123.398281 
L 93.369167 122.133999 
L 93.756598 123.156638 
L 94.14403 121.706233 
L 94.531461 121.330588 
L 94.918892 121.546938 
L 95.306324 119.217423 
L 95.693755 122.154318 
L 96.468618 120.705978 
L 96.85605 121.716841 
L 97.243481 117.045598 
L 97.630913 120.052439 
L 98.018344 118.798634 
L 98.405776 115.769616 
L 98.793207 115.876618 
L 99.180639 119.367132 
L 99.56807 118.845361 
L 99.955501 119.457381 
L 100.342933 118.90958 
L 100.730364 116.39625 
L 101.117796 119.578665 
L 101.505227 116.891425 
L 101.892659 117.797638 
L 102.28009 116.457718 
L 102.667522 116.447795 
L 103.054953 117.212334 
L 103.442385 114.086564 
L 103.829816 111.866908 
L 104.217248 117.327566 
L 104.604679 112.292968 
L 104.99211 110.545445 
L 105.379542 118.200646 
L 105.766973 114.534971 
L 106.154405 114.316097 
L 106.541836 115.329003 
L 106.929268 111.325191 
L 107.316699 111.687603 
L 107.704131 110.770224 
L 108.091562 115.096505 
L 108.866425 113.112006 
L 109.253857 109.949803 
L 109.641288 114.100904 
L 110.028719 116.864752 
L 110.416151 112.836625 
L 110.803582 111.106218 
L 111.191014 110.226664 
L 111.965877 115.535093 
L 112.353308 112.600455 
L 112.74074 110.633951 
L 113.128171 113.044289 
L 113.903034 112.721563 
L 114.290466 109.930057 
L 114.677897 111.759275 
L 115.065328 110.408672 
L 115.45276 105.01741 
L 115.840191 109.665637 
L 116.227623 107.420668 
L 116.615054 108.394994 
L 117.002486 102.304298 
L 117.389917 107.223843 
L 117.777349 107.540025 
L 118.16478 105.189442 
L 118.552212 105.230818 
L 118.939643 104.808223 
L 119.327075 98.932024 
L 119.714506 102.108946 
L 120.101937 102.565229 
L 120.489369 106.260474 
L 120.8768 102.866442 
L 121.264232 97.911223 
L 121.651663 105.022261 
L 122.039095 104.062969 
L 122.426526 107.329156 
L 122.813958 101.788489 
L 123.201389 99.673951 
L 123.588821 99.291689 
L 123.976252 97.011628 
L 124.363684 95.86095 
L 124.751115 92.777236 
L 125.138546 103.451906 
L 125.913409 94.594606 
L 126.300841 102.394489 
L 126.688272 99.933444 
L 127.075704 96.653657 
L 127.463135 100.817943 
L 127.850567 97.417449 
L 128.237998 95.109403 
L 128.62543 94.738743 
L 129.012861 96.14843 
L 129.400293 101.144601 
L 129.787724 103.036534 
L 130.175155 96.198818 
L 130.562587 107.207215 
L 130.950018 95.25412 
L 131.33745 95.835162 
L 131.724881 92.813837 
L 132.112313 98.854688 
L 132.499744 96.605359 
L 132.887176 92.499783 
L 133.274607 89.783379 
L 133.662039 91.407754 
L 134.04947 99.904318 
L 134.436902 102.509571 
L 134.824333 93.498073 
L 135.211764 93.332067 
L 135.599196 92.930486 
L 135.986627 86.599385 
L 136.374059 90.066095 
L 136.76149 104.246117 
L 137.148922 89.210069 
L 137.536353 90.670296 
L 137.923785 99.440487 
L 138.311216 98.282773 
L 138.698648 93.904903 
L 139.086079 99.554753 
L 139.473511 88.139439 
L 139.860942 88.208902 
L 140.248373 99.628752 
L 140.635805 92.666349 
L 141.023236 91.717319 
L 141.410668 100.338384 
L 141.798099 92.416175 
L 142.185531 95.577533 
L 142.572962 90.645747 
L 142.960394 83.195262 
L 143.347825 96.719469 
L 143.735257 94.687302 
L 144.122688 95.977055 
L 144.51012 89.52169 
L 144.897551 94.809132 
L 145.284982 82.003742 
L 145.672414 94.819565 
L 146.059845 80.110502 
L 146.447277 87.374173 
L 147.22214 76.382183 
L 147.609571 91.699314 
L 147.997003 92.698655 
L 148.384434 88.758906 
L 148.771866 87.511355 
L 149.546729 82.924914 
L 149.93416 91.278752 
L 150.321591 90.637995 
L 150.709023 92.074008 
L 151.096454 85.824976 
L 151.483886 92.309457 
L 151.871317 89.179526 
L 152.258749 87.76361 
L 152.64618 79.879821 
L 153.033612 81.660146 
L 153.421043 80.058092 
L 153.808475 89.009017 
L 154.583338 80.025095 
L 154.970769 76.894918 
L 155.3582 90.46455 
L 155.745632 83.58013 
L 156.133063 79.710599 
L 156.520495 91.190158 
L 156.907926 97.807868 
L 157.295358 86.039954 
L 157.682789 80.232197 
L 158.070221 82.698512 
L 158.457652 86.952293 
L 158.845084 84.989612 
L 159.232515 77.122076 
L 159.619947 90.10653 
L 160.007378 73.203452 
L 160.394809 77.873005 
L 160.782241 90.566921 
L 161.169672 89.025406 
L 161.557104 87.947901 
L 161.944535 78.352948 
L 162.331967 79.760531 
L 162.719398 85.433825 
L 163.10683 83.56534 
L 163.494261 84.494483 
L 164.269124 68.043065 
L 165.043987 85.809692 
L 165.431418 72.526134 
L 165.81885 81.120904 
L 166.206281 70.922837 
L 166.593713 80.26669 
L 166.981144 83.40062 
L 167.368576 77.218817 
L 167.756007 65.083798 
L 168.143439 85.410903 
L 168.53087 74.865108 
L 168.918302 87.758782 
L 169.305733 81.104819 
L 169.693165 67.59063 
L 170.080596 76.187319 
L 170.468027 70.133395 
L 170.855459 77.315946 
L 171.24289 81.913445 
L 172.017753 65.491056 
L 172.405185 65.985009 
L 172.792616 74.879048 
L 173.180048 66.908284 
L 173.567479 78.751583 
L 173.954911 69.152821 
L 174.342342 75.861209 
L 174.729774 69.226803 
L 175.117205 74.838983 
L 175.892068 66.281655 
L 176.666931 78.232025 
L 177.054362 70.332263 
L 177.441794 73.339865 
L 177.829225 69.174055 
L 178.216657 70.928858 
L 178.604088 70.636495 
L 178.99152 79.083284 
L 179.378951 61.086879 
L 179.766383 65.357926 
L 180.153814 60.36443 
L 180.541245 64.795554 
L 180.928677 81.386674 
L 181.316108 78.43411 
L 181.70354 86.962781 
L 182.090971 78.112728 
L 182.478403 61.196472 
L 182.865834 63.215023 
L 183.253266 71.424086 
L 183.640697 67.522026 
L 184.028129 61.002833 
L 184.41556 65.62787 
L 184.802992 56.552206 
L 185.190423 64.348468 
L 185.577854 64.664577 
L 185.965286 80.649739 
L 186.352717 58.212793 
L 186.740149 75.879818 
L 187.12758 74.19051 
L 187.515012 71.032018 
L 187.902443 64.91607 
L 188.289875 60.635454 
L 188.677306 77.510203 
L 189.064738 57.350711 
L 189.452169 66.849284 
L 189.839601 59.662646 
L 190.227032 57.225514 
L 190.614463 62.587711 
L 191.001895 56.390161 
L 191.389326 64.27082 
L 191.776758 57.677847 
L 192.164189 75.094251 
L 192.551621 80.058556 
L 192.939052 67.390635 
L 193.326484 80.101552 
L 193.713915 64.313344 
L 194.101347 67.762487 
L 194.488778 63.829507 
L 194.87621 66.443744 
L 195.263641 63.281092 
L 195.651072 77.896049 
L 196.038504 71.296851 
L 196.425935 61.501149 
L 196.813367 68.236755 
L 197.200798 71.190477 
L 197.58823 76.601185 
L 197.975661 71.441744 
L 198.363093 61.523487 
L 198.750524 64.482391 
L 199.137956 64.631977 
L 199.525387 71.935311 
L 199.912819 61.402748 
L 200.30025 72.521998 
L 200.687681 64.995555 
L 201.075113 69.228042 
L 201.462544 66.637354 
L 201.849976 59.406531 
L 202.237407 59.334558 
L 202.624839 59.778536 
L 203.01227 56.437642 
L 203.399702 71.581518 
L 203.787133 57.453505 
L 204.561996 73.297515 
L 204.949428 46.475486 
L 205.336859 58.407409 
L 205.72429 62.984476 
L 206.111722 62.900506 
L 206.499153 62.194179 
L 206.886585 55.884551 
L 207.661448 70.573144 
L 208.048879 68.886525 
L 208.436311 70.686791 
L 208.823742 56.610041 
L 209.598605 72.581785 
L 209.986037 65.181619 
L 210.373468 54.073517 
L 210.7609 56.318791 
L 211.923194 77.679951 
L 212.310625 72.277428 
L 212.698057 52.302025 
L 213.085488 72.223857 
L 213.47292 53.618621 
L 213.860351 62.181613 
L 214.247783 50.657735 
L 214.635214 44.329544 
L 215.022646 57.424021 
L 215.410077 53.77607 
L 215.797509 65.5936 
L 216.18494 48.470798 
L 216.572371 60.273788 
L 216.959803 58.42391 
L 217.347234 49.690815 
L 217.734666 48.943146 
L 218.122097 56.617523 
L 218.509529 55.898532 
L 218.89696 60.569019 
L 219.284392 54.436684 
L 219.671823 58.476165 
L 220.059255 59.611052 
L 220.446686 51.322238 
L 220.834118 62.707483 
L 221.221549 61.059761 
L 221.60898 64.67108 
L 221.996412 43.688685 
L 222.383843 54.355845 
L 222.771275 51.209741 
L 223.158706 53.153371 
L 223.546138 54.004299 
L 223.933569 50.462652 
L 224.321001 66.999606 
L 224.708432 47.420903 
L 225.483295 72.149219 
L 225.870727 61.576088 
L 226.258158 69.63403 
L 227.033021 47.451593 
L 227.420452 54.654718 
L 227.807884 55.934849 
L 228.195315 55.24538 
L 228.582747 60.890877 
L 228.970178 47.112213 
L 229.35761 67.334009 
L 229.745041 60.844013 
L 230.132473 47.918622 
L 230.519904 53.37347 
L 230.907336 52.237599 
L 231.294767 58.911762 
L 231.682198 46.438808 
L 232.457061 67.700434 
L 232.844493 42.603768 
L 233.231924 59.329913 
L 233.619356 56.716058 
L 234.006787 55.441314 
L 234.394219 60.214506 
L 234.78165 53.077901 
L 235.169082 54.148034 
L 235.556513 48.927255 
L 235.943945 57.062721 
L 236.331376 49.011523 
L 236.718807 54.491322 
L 237.106239 45.003953 
L 237.49367 66.542359 
L 237.881102 56.673889 
L 238.268533 60.867747 
L 238.655965 49.690327 
L 239.043396 56.944247 
L 239.430828 46.722006 
L 239.818259 54.344234 
L 240.205691 54.139476 
L 240.593122 63.171124 
L 240.980554 61.626199 
L 241.367985 66.157337 
L 241.755416 66.216113 
L 242.142848 56.448183 
L 242.530279 62.597795 
L 243.305142 49.912543 
L 243.692574 51.974116 
L 244.080005 52.610883 
L 244.467437 52.913659 
L 244.854868 56.879629 
L 245.2423 54.311805 
L 245.629731 50.151983 
L 246.017163 60.540622 
L 246.404594 50.493287 
L 246.792025 53.239343 
L 247.179457 43.369466 
L 247.566888 53.277217 
L 247.95432 55.563512 
L 248.341751 55.827798 
L 248.729183 64.372352 
L 249.116614 52.323113 
L 249.504046 49.239928 
L 249.891477 55.509038 
L 250.278909 65.974221 
L 250.66634 57.992063 
L 251.053772 68.117568 
L 251.441203 46.365455 
L 251.441203 46.365455 
" clip-path="url(#pa19da0af69)" style="fill: none; stroke: #1f77b4; stroke-width: 1.5; stroke-linecap: square"/>
   </g>
   <g id="patch_3">
    <path d="M 53.328125 142.118125 
L 53.328125 22.318125 
" style="fill: none; stroke: #000000; stroke-width: 0.8; stroke-linejoin: miter; stroke-linecap: square"/>
   </g>
   <g id="patch_4">
    <path d="M 260.875159 142.118125 
L 260.875159 22.318125 
" style="fill: none; stroke: #000000; stroke-width: 0.8; stroke-linejoin: miter; stroke-linecap: square"/>
   </g>
   <g id="patch_5">
    <path d="M 53.328125 142.118125 
L 260.875159 142.118125 
" style="fill: none; stroke: #000000; stroke-width: 0.8; stroke-linejoin: miter; stroke-linecap: square"/>
   </g>
   <g id="patch_6">
    <path d="M 53.328125 22.318125 
L 260.875159 22.318125 
" style="fill: none; stroke: #000000; stroke-width: 0.8; stroke-linejoin: miter; stroke-linecap: square"/>
   </g>
   <g id="text_16">
    <text style="font-size: 12px; font-family: 'DejaVu Sans', 'Bitstream Vera Sans', 'Computer Modern Sans Serif', 'Lucida Grande', 'Verdana', 'Geneva', 'Lucid', 'Arial', 'Helvetica', 'Avant Garde', sans-serif; text-anchor: middle" x="157.101642" y="16.318125" transform="rotate(-0 157.101642 16.318125)">PPO-Clip</text>
   </g>
  </g>
  <g id="axes_2">
   <g id="patch_7">
    <path d="M 278.358125 142.118125 
L 485.905159 142.118125 
L 485.905159 22.318125 
L 278.358125 22.318125 
z
" style="fill: #ffffff"/>
   </g>
   <g id="FillBetweenPolyCollection_2">
    <defs>
     <path id="mc01357e94f" d="M 287.792081 -43.007931 
L 287.792081 -43.001705 
L 288.179513 -43.034245 
L 288.566944 -43.144911 
L 288.954375 -43.312129 
L 289.341807 -43.595543 
L 289.729238 -44.281679 
L 290.11667 -45.006703 
L 290.504101 -45.282591 
L 290.891533 -47.337194 
L 291.278964 -47.924677 
L 291.666396 -47.564554 
L 292.053827 -48.217294 
L 292.441259 -49.166395 
L 292.82869 -48.358331 
L 293.216122 -49.30309 
L 293.603553 -48.468237 
L 293.990984 -48.834075 
L 294.378416 -48.846071 
L 294.765847 -49.216705 
L 295.153279 -48.706099 
L 295.54071 -49.109094 
L 295.928142 -49.166323 
L 296.315573 -49.187474 
L 296.703005 -49.15461 
L 297.090436 -49.123805 
L 297.477868 -49.854568 
L 297.865299 -48.810431 
L 298.252731 -49.919113 
L 298.640162 -50.032743 
L 299.027593 -50.192542 
L 299.415025 -50.030791 
L 299.802456 -49.747557 
L 300.189888 -50.232619 
L 300.577319 -50.139531 
L 300.964751 -50.372763 
L 301.352182 -50.343286 
L 301.739614 -50.140722 
L 302.127045 -50.029266 
L 302.514477 -50.450532 
L 302.901908 -50.348502 
L 303.28934 -50.546514 
L 303.676771 -49.90117 
L 304.064202 -50.559752 
L 304.451634 -50.869086 
L 304.839065 -50.468185 
L 305.226497 -50.737149 
L 305.613928 -50.661454 
L 306.00136 -50.88557 
L 306.388791 -50.351112 
L 306.776223 -50.724514 
L 307.163654 -50.428246 
L 307.551086 -50.580916 
L 307.938517 -51.109308 
L 308.325949 -50.886439 
L 308.71338 -50.818071 
L 309.100811 -50.960294 
L 309.488243 -51.114278 
L 309.875674 -51.827565 
L 310.263106 -51.197448 
L 310.650537 -51.238743 
L 311.037969 -51.290197 
L 311.4254 -51.580213 
L 311.812832 -51.362268 
L 312.200263 -51.767877 
L 312.587695 -51.498693 
L 312.975126 -51.653374 
L 313.362558 -51.601217 
L 313.749989 -51.572277 
L 314.13742 -51.834797 
L 314.524852 -52.121551 
L 314.912283 -51.45786 
L 315.299715 -52.386107 
L 315.687146 -51.503596 
L 316.074578 -52.570194 
L 316.462009 -52.410472 
L 316.849441 -52.171881 
L 317.236872 -52.50129 
L 317.624304 -52.30154 
L 318.011735 -52.981637 
L 318.399167 -51.67425 
L 318.786598 -52.519982 
L 319.17403 -53.262254 
L 319.561461 -53.064411 
L 319.948892 -52.897941 
L 320.336324 -51.681794 
L 320.723755 -54.308717 
L 321.111187 -54.150478 
L 321.498618 -53.071111 
L 321.88605 -54.067908 
L 322.273481 -50.799271 
L 322.660913 -53.491144 
L 323.048344 -53.760107 
L 323.435776 -48.774869 
L 323.823207 -51.306929 
L 324.210639 -54.398782 
L 324.59807 -54.16578 
L 324.985501 -54.819196 
L 325.372933 -53.933908 
L 325.760364 -51.607763 
L 326.147796 -54.899936 
L 326.535227 -53.458925 
L 326.922659 -52.461839 
L 327.31009 -54.354927 
L 327.697522 -52.438247 
L 328.084953 -52.541175 
L 328.472385 -49.354674 
L 328.859816 -50.6758 
L 329.247248 -56.288216 
L 329.634679 -55.82154 
L 330.02211 -53.583523 
L 330.409542 -57.99869 
L 330.796973 -56.295543 
L 331.184405 -59.087751 
L 331.571836 -59.002549 
L 331.959268 -54.433474 
L 332.346699 -55.84398 
L 332.734131 -56.111637 
L 333.121562 -56.951615 
L 333.508994 -54.604478 
L 333.896425 -58.162088 
L 334.283857 -59.174151 
L 334.671288 -58.97749 
L 335.058719 -58.349182 
L 335.446151 -57.455927 
L 335.833582 -58.38984 
L 336.221014 -61.258668 
L 336.608445 -59.457279 
L 336.995877 -58.205685 
L 337.383308 -58.848166 
L 337.77074 -60.353019 
L 338.158171 -60.011851 
L 338.545603 -59.549728 
L 338.933034 -60.647835 
L 339.320466 -62.010585 
L 339.707897 -61.525992 
L 340.095328 -56.373213 
L 340.48276 -56.94886 
L 340.870191 -58.671317 
L 341.257623 -63.075497 
L 341.645054 -57.141043 
L 342.032486 -54.86804 
L 342.419917 -57.368277 
L 342.807349 -60.846066 
L 343.19478 -59.552345 
L 343.582212 -66.929426 
L 343.969643 -62.62989 
L 344.357075 -58.776392 
L 344.744506 -59.111689 
L 345.131937 -56.539324 
L 345.519369 -65.217253 
L 345.9068 -59.981286 
L 346.294232 -60.219489 
L 346.681663 -65.638527 
L 347.069095 -68.316123 
L 347.456526 -66.366013 
L 347.843958 -62.357495 
L 348.231389 -58.319897 
L 348.618821 -67.348667 
L 349.006252 -72.394489 
L 349.393684 -63.037896 
L 349.781115 -68.210911 
L 350.168546 -66.654703 
L 350.555978 -66.816654 
L 350.943409 -80.517189 
L 351.330841 -69.185804 
L 351.718272 -72.825897 
L 352.105704 -66.579534 
L 352.493135 -65.964875 
L 352.880567 -74.174179 
L 353.267998 -63.775531 
L 353.65543 -61.390273 
L 354.042861 -62.773577 
L 354.430293 -67.829966 
L 354.817724 -67.370605 
L 355.205155 -71.663937 
L 355.592587 -67.688413 
L 355.980018 -63.277778 
L 356.36745 -68.894855 
L 356.754881 -70.971573 
L 357.142313 -74.321219 
L 357.529744 -72.457037 
L 357.917176 -78.972481 
L 358.304607 -74.20703 
L 358.692039 -68.733692 
L 359.07947 -59.618148 
L 359.466902 -61.247489 
L 359.854333 -69.951505 
L 360.241764 -67.108068 
L 360.629196 -79.649778 
L 361.016627 -75.036198 
L 361.404059 -78.067384 
L 361.79149 -63.331601 
L 362.178922 -70.440685 
L 362.566353 -69.953304 
L 362.953785 -69.434071 
L 363.341216 -75.974591 
L 363.728648 -65.205199 
L 364.116079 -69.257107 
L 364.503511 -73.549213 
L 364.890942 -72.386721 
L 365.278373 -69.554055 
L 365.665805 -73.598372 
L 366.053236 -69.058337 
L 366.440668 -70.52429 
L 366.828099 -68.891564 
L 367.215531 -68.154518 
L 367.602962 -72.921047 
L 367.990394 -85.945034 
L 368.377825 -68.965435 
L 368.765257 -70.606883 
L 369.152688 -70.245684 
L 369.54012 -72.468217 
L 369.927551 -71.005067 
L 370.314982 -81.738097 
L 370.702414 -66.975438 
L 371.089845 -75.93442 
L 371.477277 -70.327907 
L 371.864708 -76.57936 
L 372.25214 -80.201141 
L 372.639571 -68.811379 
L 373.027003 -77.203998 
L 373.414434 -74.472268 
L 373.801866 -77.724845 
L 374.189297 -70.641561 
L 374.576729 -77.394052 
L 374.96416 -76.439595 
L 375.351591 -75.448325 
L 375.739023 -70.118741 
L 376.126454 -75.18032 
L 376.513886 -80.511372 
L 376.901317 -81.029272 
L 377.288749 -70.290847 
L 377.67618 -75.113754 
L 378.063612 -82.264492 
L 378.451043 -79.255548 
L 378.838475 -76.094119 
L 379.225906 -67.323209 
L 379.613338 -74.001718 
L 380.000769 -85.576243 
L 380.3882 -76.531484 
L 380.775632 -73.113644 
L 381.163063 -82.720018 
L 381.550495 -72.034287 
L 381.937926 -71.374717 
L 382.325358 -73.645169 
L 382.712789 -80.409424 
L 383.100221 -81.816203 
L 383.487652 -73.176867 
L 383.875084 -80.167936 
L 384.262515 -77.876561 
L 384.649947 -66.04773 
L 385.037378 -90.630798 
L 385.424809 -83.505968 
L 385.812241 -81.328754 
L 386.199672 -74.793665 
L 386.587104 -76.525319 
L 386.974535 -83.484676 
L 387.361967 -83.515525 
L 387.749398 -76.864832 
L 388.13683 -76.351965 
L 388.524261 -77.724176 
L 388.911693 -79.058944 
L 389.299124 -90.323005 
L 389.686556 -73.965259 
L 390.073987 -68.675887 
L 390.461418 -76.434109 
L 390.84885 -73.351325 
L 391.236281 -92.596771 
L 391.623713 -76.276045 
L 392.011144 -74.378894 
L 392.398576 -74.927196 
L 392.786007 -96.202133 
L 393.173439 -71.984248 
L 393.56087 -78.22512 
L 393.948302 -68.113777 
L 394.335733 -76.17415 
L 394.723165 -84.083067 
L 395.110596 -79.60375 
L 395.498027 -85.020445 
L 395.885459 -78.611523 
L 396.27289 -74.309078 
L 396.660322 -78.743476 
L 397.047753 -90.701404 
L 397.435185 -97.723186 
L 397.822616 -82.838514 
L 398.210048 -94.229546 
L 398.597479 -77.618449 
L 398.984911 -87.242662 
L 399.372342 -83.307344 
L 399.759774 -94.030047 
L 400.147205 -85.374536 
L 400.534636 -81.259581 
L 400.922068 -87.115804 
L 401.309499 -89.1155 
L 401.696931 -77.722476 
L 402.084362 -85.908325 
L 402.471794 -100.235991 
L 402.859225 -96.087676 
L 403.246657 -86.695854 
L 403.634088 -93.974304 
L 404.02152 -83.656938 
L 404.408951 -93.724699 
L 404.796383 -95.856765 
L 405.183814 -108.8097 
L 405.571245 -101.365385 
L 405.958677 -82.880771 
L 406.346108 -75.468412 
L 406.73354 -80.503382 
L 407.120971 -74.08043 
L 407.508403 -99.002322 
L 407.895834 -89.892742 
L 408.283266 -90.645514 
L 408.670697 -92.072718 
L 409.058129 -105.943922 
L 409.44556 -104.206618 
L 409.832992 -103.963592 
L 410.220423 -94.638821 
L 410.607854 -93.208803 
L 410.995286 -87.314106 
L 411.382717 -97.842983 
L 411.770149 -90.722774 
L 412.15758 -89.846481 
L 412.545012 -99.134282 
L 412.932443 -98.941384 
L 413.319875 -100.62897 
L 413.707306 -78.778721 
L 414.094738 -96.719033 
L 414.482169 -86.980776 
L 414.869601 -93.447977 
L 415.257032 -97.803981 
L 415.644463 -93.128235 
L 416.031895 -102.96673 
L 416.419326 -96.871861 
L 416.806758 -103.542788 
L 417.194189 -81.795171 
L 417.581621 -88.462341 
L 417.969052 -94.215953 
L 418.356484 -86.341076 
L 418.743915 -101.243456 
L 419.131347 -103.156864 
L 419.518778 -101.793861 
L 419.90621 -101.146513 
L 420.293641 -100.218682 
L 420.681072 -78.885973 
L 421.068504 -88.900047 
L 421.455935 -93.365269 
L 421.843367 -91.291681 
L 422.230798 -90.937668 
L 422.61823 -82.624023 
L 423.005661 -91.57539 
L 423.393093 -101.853601 
L 423.780524 -91.066887 
L 424.167956 -92.421585 
L 424.555387 -92.416974 
L 424.942819 -96.947241 
L 425.33025 -83.007853 
L 425.717681 -95.233814 
L 426.105113 -93.952199 
L 426.492544 -86.624617 
L 426.879976 -104.79354 
L 427.267407 -99.178327 
L 427.654839 -100.130514 
L 428.04227 -97.352445 
L 428.429702 -87.406937 
L 428.817133 -103.912058 
L 429.204565 -100.024445 
L 429.591996 -89.473305 
L 429.979428 -121.11627 
L 430.366859 -98.768461 
L 430.75429 -93.386863 
L 431.141722 -91.753766 
L 431.529153 -95.811026 
L 431.916585 -115.88455 
L 432.304016 -97.681351 
L 432.691448 -84.69562 
L 433.078879 -96.362149 
L 433.466311 -91.600441 
L 433.853742 -104.808655 
L 434.241174 -95.436902 
L 434.628605 -87.657984 
L 435.016037 -97.300168 
L 435.403468 -113.299715 
L 435.7909 -109.821453 
L 436.178331 -98.276775 
L 436.565762 -94.299436 
L 436.953194 -91.498273 
L 437.340625 -100.565948 
L 437.728057 -110.647338 
L 438.115488 -97.737444 
L 438.50292 -101.585863 
L 438.890351 -100.555355 
L 439.277783 -111.153157 
L 439.665214 -127.105703 
L 440.052646 -103.034757 
L 440.440077 -120.768916 
L 440.827509 -93.966803 
L 441.21494 -117.112604 
L 441.602371 -107.761668 
L 441.989803 -102.176755 
L 442.377234 -114.040408 
L 442.764666 -120.197094 
L 443.152097 -110.438838 
L 443.539529 -104.582564 
L 443.92696 -107.15311 
L 444.314392 -114.816148 
L 444.701823 -108.877975 
L 445.089255 -107.239232 
L 445.476686 -113.13907 
L 445.864118 -100.270228 
L 446.251549 -103.565593 
L 446.63898 -90.866716 
L 447.026412 -123.561541 
L 447.413843 -108.711321 
L 447.801275 -111.92716 
L 448.188706 -103.967468 
L 448.576138 -110.441589 
L 448.963569 -114.645786 
L 449.351001 -97.324538 
L 449.738432 -118.126539 
L 450.125864 -99.98527 
L 450.513295 -84.425423 
L 450.900727 -101.805805 
L 451.288158 -95.912568 
L 451.675589 -102.95857 
L 452.063021 -112.534769 
L 452.450452 -114.866242 
L 452.837884 -102.752163 
L 453.225315 -111.174875 
L 453.612747 -103.526605 
L 454.000178 -124.076333 
L 454.38761 -97.283342 
L 454.775041 -105.016139 
L 455.162473 -122.454197 
L 455.549904 -109.554653 
L 455.937336 -115.235385 
L 456.324767 -109.979264 
L 456.712198 -121.595218 
L 457.09963 -105.967991 
L 457.487061 -91.479161 
L 457.874493 -125.991828 
L 458.261924 -102.988909 
L 458.649356 -107.634062 
L 459.036787 -105.850698 
L 459.424219 -102.025408 
L 459.81165 -114.174778 
L 460.199082 -113.194251 
L 460.586513 -121.333718 
L 460.973945 -103.924602 
L 461.361376 -118.034956 
L 461.748807 -100.694237 
L 462.136239 -122.810929 
L 462.52367 -103.82566 
L 462.911102 -106.731393 
L 463.298533 -106.233051 
L 463.685965 -115.262518 
L 464.073396 -108.686803 
L 464.460828 -124.441416 
L 464.848259 -105.520987 
L 465.235691 -105.481318 
L 465.623122 -101.700389 
L 466.010554 -103.582399 
L 466.397985 -96.468893 
L 466.785416 -97.113419 
L 467.172848 -101.801603 
L 467.560279 -100.614738 
L 467.947711 -104.793038 
L 468.335142 -108.302611 
L 468.722574 -115.35082 
L 469.110005 -104.184594 
L 469.497437 -110.322661 
L 469.884868 -103.928982 
L 470.2723 -110.099069 
L 470.659731 -113.354392 
L 471.047163 -108.601169 
L 471.434594 -116.113432 
L 471.822025 -108.6355 
L 472.209457 -128.151038 
L 472.596888 -101.761854 
L 472.98432 -109.013882 
L 473.371751 -115.896303 
L 473.759183 -105.352992 
L 474.146614 -112.420151 
L 474.534046 -119.190931 
L 474.921477 -108.229128 
L 475.308909 -87.374959 
L 475.69634 -105.039282 
L 476.083772 -92.142592 
L 476.471203 -115.885833 
L 476.471203 -150.732007 
L 476.471203 -150.732007 
L 476.083772 -130.971023 
L 475.69634 -138.325342 
L 475.308909 -140.025349 
L 474.921477 -140.101546 
L 474.534046 -141.677962 
L 474.146614 -142.282373 
L 473.759183 -125.251053 
L 473.371751 -131.79685 
L 472.98432 -139.207843 
L 472.596888 -151.032463 
L 472.209457 -144.458781 
L 471.822025 -144.234563 
L 471.434594 -142.248743 
L 471.047163 -129.666337 
L 470.659731 -145.690391 
L 470.2723 -140.626071 
L 469.884868 -141.66051 
L 469.497437 -143.198771 
L 469.110005 -149.942391 
L 468.722574 -140.049698 
L 468.335142 -151.221054 
L 467.947711 -140.868074 
L 467.560279 -133.538422 
L 467.172848 -144.650781 
L 466.785416 -129.803104 
L 466.397985 -130.565183 
L 466.010554 -132.513953 
L 465.623122 -131.306113 
L 465.235691 -145.588479 
L 464.848259 -145.139296 
L 464.460828 -141.463322 
L 464.073396 -136.773452 
L 463.685965 -144.705578 
L 463.298533 -131.380204 
L 462.911102 -139.269579 
L 462.52367 -122.438372 
L 462.136239 -146.529915 
L 461.748807 -149.671868 
L 461.361376 -143.290749 
L 460.973945 -141.298705 
L 460.586513 -140.160523 
L 460.199082 -137.85843 
L 459.81165 -139.01817 
L 459.424219 -136.89433 
L 459.036787 -142.615424 
L 458.649356 -138.282571 
L 458.261924 -137.700014 
L 457.874493 -148.149387 
L 457.487061 -132.468722 
L 457.09963 -135.87683 
L 456.712198 -144.875915 
L 456.324767 -131.545963 
L 455.937336 -139.638167 
L 455.549904 -143.047157 
L 455.162473 -141.057309 
L 454.775041 -132.644586 
L 454.38761 -127.397389 
L 454.000178 -141.047991 
L 453.612747 -134.04039 
L 453.225315 -137.683114 
L 452.837884 -144.726888 
L 452.450452 -135.173073 
L 452.063021 -151.910795 
L 451.675589 -139.949165 
L 451.288158 -124.168122 
L 450.900727 -134.390768 
L 450.513295 -130.624889 
L 450.125864 -141.791197 
L 449.738432 -146.380406 
L 449.351001 -128.025 
L 448.963569 -143.777659 
L 448.576138 -140.898562 
L 448.188706 -149.074541 
L 447.801275 -145.002107 
L 447.413843 -141.925739 
L 447.026412 -148.409838 
L 446.63898 -139.139875 
L 446.251549 -133.663634 
L 445.864118 -133.663556 
L 445.476686 -143.565204 
L 445.089255 -132.887413 
L 444.701823 -133.518444 
L 444.314392 -135.659234 
L 443.92696 -131.057601 
L 443.539529 -142.969121 
L 443.152097 -135.674866 
L 442.764666 -141.265364 
L 442.377234 -145.926713 
L 441.989803 -140.324175 
L 441.602371 -131.039507 
L 441.21494 -145.29455 
L 440.827509 -134.194747 
L 440.440077 -131.027694 
L 440.052646 -141.465951 
L 439.665214 -143.583959 
L 439.277783 -146.880123 
L 438.890351 -134.430169 
L 438.50292 -150.525646 
L 438.115488 -117.163592 
L 437.728057 -144.097363 
L 437.340625 -114.227947 
L 436.953194 -112.490576 
L 436.565762 -120.083995 
L 436.178331 -133.434931 
L 435.7909 -136.889715 
L 435.403468 -137.902001 
L 435.016037 -131.685343 
L 434.628605 -126.527196 
L 434.241174 -135.860002 
L 433.853742 -141.320012 
L 433.466311 -126.374728 
L 433.078879 -125.21355 
L 432.691448 -133.506843 
L 432.304016 -136.339555 
L 431.916585 -131.695097 
L 431.529153 -139.149365 
L 431.141722 -141.793972 
L 430.75429 -139.992935 
L 430.366859 -143.765471 
L 429.979428 -145.281508 
L 429.591996 -123.280414 
L 429.204565 -128.452791 
L 428.817133 -140.529682 
L 428.429702 -128.778777 
L 428.04227 -149.121021 
L 427.654839 -139.661164 
L 427.267407 -141.501308 
L 426.879976 -135.742148 
L 426.492544 -139.449425 
L 426.105113 -126.940468 
L 425.717681 -134.123826 
L 425.33025 -131.296902 
L 424.942819 -139.596013 
L 424.555387 -123.061153 
L 424.167956 -137.66321 
L 423.780524 -139.317081 
L 423.393093 -134.448175 
L 423.005661 -124.889873 
L 422.61823 -123.522357 
L 422.230798 -126.030128 
L 421.843367 -131.583559 
L 421.455935 -142.981184 
L 421.068504 -127.855001 
L 420.681072 -124.670679 
L 420.293641 -132.567883 
L 419.90621 -125.31475 
L 419.518778 -129.895875 
L 419.131347 -120.666912 
L 418.743915 -129.478606 
L 418.356484 -112.804571 
L 417.969052 -130.351527 
L 417.581621 -110.769297 
L 417.194189 -127.365076 
L 416.806758 -140.450269 
L 416.419326 -133.935249 
L 416.031895 -143.601698 
L 415.644463 -141.045093 
L 415.257032 -147.093741 
L 414.869601 -146.575482 
L 414.482169 -138.669405 
L 414.094738 -147.928295 
L 413.707306 -125.549623 
L 413.319875 -137.448871 
L 412.932443 -130.575225 
L 412.545012 -118.150432 
L 412.15758 -121.121249 
L 411.770149 -116.86634 
L 411.382717 -145.08018 
L 410.995286 -110.735166 
L 410.607854 -136.810793 
L 410.220423 -136.012994 
L 409.832992 -142.280746 
L 409.44556 -123.886393 
L 409.058129 -131.399163 
L 408.670697 -132.231981 
L 408.283266 -125.855064 
L 407.895834 -143.025961 
L 407.508403 -137.953484 
L 407.120971 -129.042863 
L 406.73354 -104.919806 
L 406.346108 -127.012118 
L 405.958677 -113.694632 
L 405.571245 -128.392256 
L 405.183814 -129.810191 
L 404.796383 -132.776133 
L 404.408951 -143.450292 
L 404.02152 -117.525243 
L 403.634088 -124.101457 
L 403.246657 -130.79518 
L 402.859225 -124.912965 
L 402.471794 -112.43303 
L 402.084362 -132.775899 
L 401.696931 -125.162224 
L 401.309499 -125.309395 
L 400.922068 -139.669637 
L 400.534636 -136.548012 
L 400.147205 -124.296247 
L 399.759774 -126.865098 
L 399.372342 -124.318989 
L 398.984911 -133.800446 
L 398.597479 -124.227134 
L 398.210048 -131.302636 
L 397.822616 -126.752141 
L 397.435185 -129.655545 
L 397.047753 -137.665235 
L 396.660322 -135.28709 
L 396.27289 -121.212782 
L 395.885459 -126.105336 
L 395.498027 -134.061516 
L 395.110596 -127.370362 
L 394.723165 -140.084423 
L 394.335733 -120.964961 
L 393.948302 -115.717409 
L 393.56087 -131.393415 
L 393.173439 -116.542696 
L 392.786007 -132.979021 
L 392.398576 -129.983919 
L 392.011144 -118.168617 
L 391.623713 -122.539326 
L 391.236281 -124.906305 
L 390.84885 -123.755617 
L 390.461418 -137.862372 
L 390.073987 -119.053478 
L 389.686556 -129.105988 
L 389.299124 -132.939616 
L 388.911693 -129.805954 
L 388.524261 -112.635608 
L 388.13683 -115.866105 
L 387.749398 -111.616268 
L 387.361967 -116.312162 
L 386.974535 -119.158178 
L 386.587104 -106.92763 
L 386.199672 -106.504274 
L 385.812241 -96.886154 
L 385.424809 -120.096772 
L 385.037378 -122.311047 
L 384.649947 -113.08796 
L 384.262515 -127.228038 
L 383.875084 -109.201591 
L 383.487652 -112.267298 
L 383.100221 -112.135523 
L 382.712789 -118.474931 
L 382.325358 -113.623672 
L 381.937926 -92.358297 
L 381.550495 -104.934147 
L 381.163063 -117.207534 
L 380.775632 -119.074847 
L 380.3882 -101.888166 
L 380.000769 -119.98267 
L 379.613338 -125.296843 
L 379.225906 -123.5271 
L 378.838475 -105.236597 
L 378.451043 -119.977019 
L 378.063612 -113.763965 
L 377.67618 -124.475353 
L 377.288749 -113.530684 
L 376.901317 -99.960426 
L 376.513886 -94.218464 
L 376.126454 -112.518478 
L 375.739023 -105.081993 
L 375.351591 -102.624436 
L 374.96416 -100.35165 
L 374.576729 -116.10487 
L 374.189297 -118.331299 
L 373.801866 -106.601195 
L 373.414434 -107.35867 
L 373.027003 -96.747442 
L 372.639571 -107.138742 
L 372.25214 -126.383243 
L 371.864708 -120.65598 
L 371.477277 -114.272498 
L 371.089845 -123.193326 
L 370.702414 -102.734181 
L 370.314982 -113.60317 
L 369.927551 -98.725419 
L 369.54012 -107.837153 
L 369.152688 -97.148957 
L 368.765257 -99.367262 
L 368.377825 -96.944376 
L 367.990394 -107.013192 
L 367.602962 -105.136208 
L 367.215531 -100.039165 
L 366.828099 -105.624836 
L 366.440668 -88.147691 
L 366.053236 -106.855775 
L 365.665805 -100.41768 
L 365.278373 -90.537191 
L 364.890942 -110.544224 
L 364.503511 -109.52066 
L 364.116079 -90.982137 
L 363.728648 -106.333746 
L 363.341216 -86.808612 
L 362.953785 -91.033704 
L 362.566353 -108.054854 
L 362.178922 -110.487928 
L 361.79149 -87.524914 
L 361.404059 -101.149176 
L 361.016627 -111.113781 
L 360.629196 -93.838001 
L 360.241764 -105.576549 
L 359.854333 -102.401099 
L 359.466902 -93.082119 
L 359.07947 -99.921966 
L 358.692039 -107.79955 
L 358.304607 -105.574963 
L 357.917176 -95.376703 
L 357.529744 -93.680996 
L 357.142313 -87.318156 
L 356.754881 -102.749504 
L 356.36745 -98.783571 
L 355.980018 -105.562733 
L 355.592587 -77.245906 
L 355.205155 -95.287176 
L 354.817724 -85.905076 
L 354.430293 -89.229582 
L 354.042861 -104.278312 
L 353.65543 -108.48099 
L 353.267998 -105.354412 
L 352.880567 -90.339674 
L 352.493135 -91.747989 
L 352.105704 -99.461902 
L 351.718272 -86.655965 
L 351.330841 -85.373967 
L 350.943409 -89.642349 
L 350.555978 -95.083905 
L 350.168546 -85.790235 
L 349.781115 -105.583367 
L 349.393684 -104.588955 
L 349.006252 -92.931004 
L 348.618821 -93.416704 
L 348.231389 -101.680952 
L 347.843958 -93.414277 
L 347.456526 -78.324424 
L 347.069095 -82.906689 
L 346.681663 -83.665701 
L 346.294232 -103.306815 
L 345.9068 -93.63458 
L 345.519369 -81.610548 
L 345.131937 -97.678968 
L 344.744506 -96.019169 
L 344.357075 -102.70831 
L 343.969643 -87.102414 
L 343.582212 -81.957689 
L 343.19478 -89.417521 
L 342.807349 -83.422634 
L 342.419917 -87.532787 
L 342.032486 -99.872113 
L 341.645054 -85.41772 
L 341.257623 -81.431918 
L 340.870191 -81.346159 
L 340.48276 -92.365071 
L 340.095328 -82.158193 
L 339.707897 -74.304208 
L 339.320466 -77.478051 
L 338.933034 -73.257789 
L 338.545603 -73.954676 
L 338.158171 -73.24832 
L 337.77074 -77.72783 
L 337.383308 -75.299674 
L 336.995877 -70.072879 
L 336.608445 -73.737862 
L 336.221014 -77.636755 
L 335.833582 -78.746474 
L 335.446151 -76.219573 
L 335.058719 -67.270064 
L 334.671288 -72.169453 
L 334.283857 -80.274994 
L 333.896425 -74.962651 
L 333.508994 -76.379658 
L 333.121562 -72.204125 
L 332.734131 -81.696665 
L 332.346699 -80.129563 
L 331.959268 -82.264893 
L 331.571836 -69.688195 
L 331.184405 -71.628805 
L 330.796973 -73.983265 
L 330.409542 -64.948767 
L 330.02211 -84.674337 
L 329.634679 -78.941275 
L 329.247248 -68.405402 
L 328.859816 -84.939133 
L 328.472385 -81.820949 
L 328.084953 -72.382907 
L 327.697522 -74.014913 
L 327.31009 -72.078387 
L 326.922659 -71.291635 
L 326.535227 -72.106975 
L 326.147796 -65.291484 
L 325.760364 -74.948486 
L 325.372933 -67.595682 
L 324.985501 -65.614791 
L 324.59807 -67.492248 
L 324.210639 -66.215704 
L 323.823207 -76.288584 
L 323.435776 -79.03465 
L 323.048344 -67.991374 
L 322.660913 -65.752728 
L 322.273481 -74.458283 
L 321.88605 -61.84716 
L 321.498618 -64.865682 
L 321.111187 -62.523743 
L 320.723755 -60.731397 
L 320.336324 -69.23211 
L 319.948892 -63.356932 
L 319.561461 -63.623164 
L 319.17403 -62.67403 
L 318.786598 -60.515491 
L 318.399167 -63.406503 
L 318.011735 -60.828073 
L 317.624304 -60.250649 
L 317.236872 -61.170077 
L 316.849441 -61.515252 
L 316.462009 -59.311713 
L 316.074578 -59.062128 
L 315.687146 -59.19193 
L 315.299715 -58.669515 
L 314.912283 -59.096944 
L 314.524852 -59.004736 
L 314.13742 -58.830274 
L 313.749989 -57.587629 
L 313.362558 -56.579343 
L 312.975126 -56.354402 
L 312.587695 -56.574816 
L 312.200263 -55.046056 
L 311.812832 -55.497932 
L 311.4254 -54.60022 
L 311.037969 -53.981963 
L 310.650537 -54.626509 
L 310.263106 -53.984904 
L 309.875674 -54.254342 
L 309.488243 -54.113843 
L 309.100811 -54.183474 
L 308.71338 -53.768051 
L 308.325949 -53.583857 
L 307.938517 -53.256429 
L 307.551086 -53.117899 
L 307.163654 -53.077171 
L 306.776223 -52.742098 
L 306.388791 -52.421864 
L 306.00136 -52.377929 
L 305.613928 -52.48494 
L 305.226497 -51.910224 
L 304.839065 -51.582065 
L 304.451634 -51.876819 
L 304.064202 -51.693278 
L 303.676771 -51.244384 
L 303.28934 -51.66016 
L 302.901908 -51.392458 
L 302.514477 -51.390784 
L 302.127045 -51.28604 
L 301.739614 -50.975034 
L 301.352182 -50.669885 
L 300.964751 -50.804631 
L 300.577319 -51.588268 
L 300.189888 -50.647224 
L 299.802456 -51.127314 
L 299.415025 -50.738914 
L 299.027593 -50.737504 
L 298.640162 -51.606399 
L 298.252731 -50.719468 
L 297.865299 -50.719586 
L 297.477868 -50.650053 
L 297.090436 -51.290456 
L 296.703005 -50.541588 
L 296.315573 -50.37243 
L 295.928142 -49.940034 
L 295.54071 -50.204742 
L 295.153279 -50.944422 
L 294.765847 -50.63314 
L 294.378416 -50.852559 
L 293.990984 -50.65645 
L 293.603553 -49.858728 
L 293.216122 -50.260023 
L 292.82869 -49.974476 
L 292.441259 -50.792158 
L 292.053827 -50.330008 
L 291.666396 -49.784328 
L 291.278964 -48.974081 
L 290.891533 -48.256662 
L 290.504101 -46.949005 
L 290.11667 -45.918314 
L 289.729238 -45.237877 
L 289.341807 -44.124056 
L 288.954375 -43.425643 
L 288.566944 -43.21625 
L 288.179513 -43.065807 
L 287.792081 -43.007931 
z
"/>
    </defs>
    <g clip-path="url(#p3dece79090)">
     <use xlink:href="#mc01357e94f" x="0" y="179.674375" style="fill: #c0392b; fill-opacity: 0.2"/>
    </g>
   </g>
   <g id="matplotlib.axis_3">
    <g id="xtick_7">
     <g id="line2d_26">
      <path d="M 287.40465 142.118125 
L 287.40465 22.318125 
" clip-path="url(#p3dece79090)" style="fill: none; stroke: #b0b0b0; stroke-opacity: 0.3; stroke-width: 0.8; stroke-linecap: square"/>
     </g>
     <g id="line2d_27">
      <g>
       <use xlink:href="#md52ec2ff24" x="287.40465" y="142.118125" style="stroke: #000000; stroke-width: 0.8"/>
      </g>
     </g>
     <g id="text_17">
      <text style="font-size: 10px; font-family: 'DejaVu Sans', 'Bitstream Vera Sans', 'Computer Modern Sans Serif', 'Lucida Grande', 'Verdana', 'Geneva', 'Lucid', 'Arial', 'Helvetica', 'Avant Garde', sans-serif; text-anchor: middle" x="287.40465" y="156.716562" transform="rotate(-0 287.40465 156.716562)">0.0</text>
     </g>
    </g>
    <g id="xtick_8">
     <g id="line2d_28">
      <path d="M 325.239753 142.118125 
L 325.239753 22.318125 
" clip-path="url(#p3dece79090)" style="fill: none; stroke: #b0b0b0; stroke-opacity: 0.3; stroke-width: 0.8; stroke-linecap: square"/>
     </g>
     <g id="line2d_29">
      <g>
       <use xlink:href="#md52ec2ff24" x="325.239753" y="142.118125" style="stroke: #000000; stroke-width: 0.8"/>
      </g>
     </g>
     <g id="text_18">
      <text style="font-size: 10px; font-family: 'DejaVu Sans', 'Bitstream Vera Sans', 'Computer Modern Sans Serif', 'Lucida Grande', 'Verdana', 'Geneva', 'Lucid', 'Arial', 'Helvetica', 'Avant Garde', sans-serif; text-anchor: middle" x="325.239753" y="156.716562" transform="rotate(-0 325.239753 156.716562)">0.2</text>
     </g>
    </g>
    <g id="xtick_9">
     <g id="line2d_30">
      <path d="M 363.074857 142.118125 
L 363.074857 22.318125 
" clip-path="url(#p3dece79090)" style="fill: none; stroke: #b0b0b0; stroke-opacity: 0.3; stroke-width: 0.8; stroke-linecap: square"/>
     </g>
     <g id="line2d_31">
      <g>
       <use xlink:href="#md52ec2ff24" x="363.074857" y="142.118125" style="stroke: #000000; stroke-width: 0.8"/>
      </g>
     </g>
     <g id="text_19">
      <text style="font-size: 10px; font-family: 'DejaVu Sans', 'Bitstream Vera Sans', 'Computer Modern Sans Serif', 'Lucida Grande', 'Verdana', 'Geneva', 'Lucid', 'Arial', 'Helvetica', 'Avant Garde', sans-serif; text-anchor: middle" x="363.074857" y="156.716562" transform="rotate(-0 363.074857 156.716562)">0.4</text>
     </g>
    </g>
    <g id="xtick_10">
     <g id="line2d_32">
      <path d="M 400.909961 142.118125 
L 400.909961 22.318125 
" clip-path="url(#p3dece79090)" style="fill: none; stroke: #b0b0b0; stroke-opacity: 0.3; stroke-width: 0.8; stroke-linecap: square"/>
     </g>
     <g id="line2d_33">
      <g>
       <use xlink:href="#md52ec2ff24" x="400.909961" y="142.118125" style="stroke: #000000; stroke-width: 0.8"/>
      </g>
     </g>
     <g id="text_20">
      <text style="font-size: 10px; font-family: 'DejaVu Sans', 'Bitstream Vera Sans', 'Computer Modern Sans Serif', 'Lucida Grande', 'Verdana', 'Geneva', 'Lucid', 'Arial', 'Helvetica', 'Avant Garde', sans-serif; text-anchor: middle" x="400.909961" y="156.716562" transform="rotate(-0 400.909961 156.716562)">0.6</text>
     </g>
    </g>
    <g id="xtick_11">
     <g id="line2d_34">
      <path d="M 438.745064 142.118125 
L 438.745064 22.318125 
" clip-path="url(#p3dece79090)" style="fill: none; stroke: #b0b0b0; stroke-opacity: 0.3; stroke-width: 0.8; stroke-linecap: square"/>
     </g>
     <g id="line2d_35">
      <g>
       <use xlink:href="#md52ec2ff24" x="438.745064" y="142.118125" style="stroke: #000000; stroke-width: 0.8"/>
      </g>
     </g>
     <g id="text_21">
      <text style="font-size: 10px; font-family: 'DejaVu Sans', 'Bitstream Vera Sans', 'Computer Modern Sans Serif', 'Lucida Grande', 'Verdana', 'Geneva', 'Lucid', 'Arial', 'Helvetica', 'Avant Garde', sans-serif; text-anchor: middle" x="438.745064" y="156.716562" transform="rotate(-0 438.745064 156.716562)">0.8</text>
     </g>
    </g>
    <g id="xtick_12">
     <g id="line2d_36">
      <path d="M 476.580168 142.118125 
L 476.580168 22.318125 
" clip-path="url(#p3dece79090)" style="fill: none; stroke: #b0b0b0; stroke-opacity: 0.3; stroke-width: 0.8; stroke-linecap: square"/>
     </g>
     <g id="line2d_37">
      <g>
       <use xlink:href="#md52ec2ff24" x="476.580168" y="142.118125" style="stroke: #000000; stroke-width: 0.8"/>
      </g>
     </g>
     <g id="text_22">
      <text style="font-size: 10px; font-family: 'DejaVu Sans', 'Bitstream Vera Sans', 'Computer Modern Sans Serif', 'Lucida Grande', 'Verdana', 'Geneva', 'Lucid', 'Arial', 'Helvetica', 'Avant Garde', sans-serif; text-anchor: middle" x="476.580168" y="156.716562" transform="rotate(-0 476.580168 156.716562)">1.0</text>
     </g>
    </g>
    <g id="text_23">
     <text style="font-size: 10px; font-family: 'DejaVu Sans', 'Bitstream Vera Sans', 'Computer Modern Sans Serif', 'Lucida Grande', 'Verdana', 'Geneva', 'Lucid', 'Arial', 'Helvetica', 'Avant Garde', sans-serif; text-anchor: middle" x="382.131642" y="170.394687" transform="rotate(-0 382.131642 170.394687)">environment step</text>
    </g>
    <g id="text_24">
     <text style="font-size: 10px; font-family: 'DejaVu Sans', 'Bitstream Vera Sans', 'Computer Modern Sans Serif', 'Lucida Grande', 'Verdana', 'Geneva', 'Lucid', 'Arial', 'Helvetica', 'Avant Garde', sans-serif; text-anchor: end" x="485.905159" y="169.394687" transform="rotate(-0 485.905159 169.394687)">1e6</text>
    </g>
   </g>
   <g id="matplotlib.axis_4">
    <g id="ytick_7">
     <g id="line2d_38">
      <path d="M 278.358125 136.673061 
L 485.905159 136.673061 
" clip-path="url(#p3dece79090)" style="fill: none; stroke: #b0b0b0; stroke-opacity: 0.3; stroke-width: 0.8; stroke-linecap: square"/>
     </g>
     <g id="line2d_39">
      <g>
       <use xlink:href="#meb23fb85bc" x="278.358125" y="136.673061" style="stroke: #000000; stroke-width: 0.8"/>
      </g>
     </g>
    </g>
    <g id="ytick_8">
     <g id="line2d_40">
      <path d="M 278.358125 114.814739 
L 485.905159 114.814739 
" clip-path="url(#p3dece79090)" style="fill: none; stroke: #b0b0b0; stroke-opacity: 0.3; stroke-width: 0.8; stroke-linecap: square"/>
     </g>
     <g id="line2d_41">
      <g>
       <use xlink:href="#meb23fb85bc" x="278.358125" y="114.814739" style="stroke: #000000; stroke-width: 0.8"/>
      </g>
     </g>
    </g>
    <g id="ytick_9">
     <g id="line2d_42">
      <path d="M 278.358125 92.956417 
L 485.905159 92.956417 
" clip-path="url(#p3dece79090)" style="fill: none; stroke: #b0b0b0; stroke-opacity: 0.3; stroke-width: 0.8; stroke-linecap: square"/>
     </g>
     <g id="line2d_43">
      <g>
       <use xlink:href="#meb23fb85bc" x="278.358125" y="92.956417" style="stroke: #000000; stroke-width: 0.8"/>
      </g>
     </g>
    </g>
    <g id="ytick_10">
     <g id="line2d_44">
      <path d="M 278.358125 71.098094 
L 485.905159 71.098094 
" clip-path="url(#p3dece79090)" style="fill: none; stroke: #b0b0b0; stroke-opacity: 0.3; stroke-width: 0.8; stroke-linecap: square"/>
     </g>
     <g id="line2d_45">
      <g>
       <use xlink:href="#meb23fb85bc" x="278.358125" y="71.098094" style="stroke: #000000; stroke-width: 0.8"/>
      </g>
     </g>
    </g>
    <g id="ytick_11">
     <g id="line2d_46">
      <path d="M 278.358125 49.239772 
L 485.905159 49.239772 
" clip-path="url(#p3dece79090)" style="fill: none; stroke: #b0b0b0; stroke-opacity: 0.3; stroke-width: 0.8; stroke-linecap: square"/>
     </g>
     <g id="line2d_47">
      <g>
       <use xlink:href="#meb23fb85bc" x="278.358125" y="49.239772" style="stroke: #000000; stroke-width: 0.8"/>
      </g>
     </g>
    </g>
    <g id="ytick_12">
     <g id="line2d_48">
      <path d="M 278.358125 27.38145 
L 485.905159 27.38145 
" clip-path="url(#p3dece79090)" style="fill: none; stroke: #b0b0b0; stroke-opacity: 0.3; stroke-width: 0.8; stroke-linecap: square"/>
     </g>
     <g id="line2d_49">
      <g>
       <use xlink:href="#meb23fb85bc" x="278.358125" y="27.38145" style="stroke: #000000; stroke-width: 0.8"/>
      </g>
     </g>
    </g>
   </g>
   <g id="line2d_50">
    <path d="M 287.792081 136.669557 
L 288.566944 136.493794 
L 288.954375 136.305489 
L 289.341807 135.814576 
L 290.11667 134.211867 
L 290.504101 133.558577 
L 290.891533 131.877447 
L 291.278964 131.224996 
L 291.666396 130.999934 
L 292.441259 129.695098 
L 292.82869 130.507971 
L 293.216122 129.892819 
L 293.603553 130.510893 
L 293.990984 129.929112 
L 294.765847 129.749453 
L 295.928142 130.121197 
L 296.315573 129.894423 
L 296.703005 129.826276 
L 297.090436 129.467244 
L 297.477868 129.422064 
L 297.865299 129.909367 
L 298.640162 128.854804 
L 299.027593 129.209352 
L 299.415025 129.289523 
L 300.189888 129.234454 
L 300.577319 128.810476 
L 300.964751 129.085678 
L 301.352182 129.167789 
L 302.127045 129.016722 
L 302.514477 128.753717 
L 302.901908 128.803895 
L 303.28934 128.571038 
L 303.676771 129.101598 
L 304.064202 128.54786 
L 304.451634 128.301423 
L 304.839065 128.64925 
L 305.613928 128.101178 
L 306.00136 128.042626 
L 306.388791 128.287887 
L 306.776223 127.941069 
L 307.551086 127.824967 
L 307.938517 127.491506 
L 308.71338 127.381314 
L 309.100811 127.102491 
L 309.488243 127.060315 
L 309.875674 126.633422 
L 310.263106 127.083199 
L 310.650537 126.741749 
L 311.037969 127.038295 
L 311.812832 126.244275 
L 312.200263 126.267409 
L 312.587695 125.63762 
L 312.975126 125.670487 
L 313.362558 125.584095 
L 313.749989 125.094422 
L 314.13742 124.34184 
L 314.524852 124.111232 
L 314.912283 124.396973 
L 315.299715 124.146564 
L 315.687146 124.326612 
L 316.074578 123.858214 
L 316.462009 123.813282 
L 316.849441 122.830809 
L 317.236872 122.838691 
L 317.624304 123.398281 
L 318.399167 122.133999 
L 318.786598 123.156638 
L 319.17403 121.706233 
L 319.561461 121.330588 
L 319.948892 121.546938 
L 320.336324 119.217423 
L 320.723755 122.154318 
L 321.498618 120.705978 
L 321.88605 121.716841 
L 322.273481 117.045598 
L 322.660913 120.052439 
L 323.048344 118.798634 
L 323.435776 115.769616 
L 323.823207 115.876618 
L 324.210639 119.367132 
L 324.59807 118.845361 
L 324.985501 119.457381 
L 325.372933 118.90958 
L 325.760364 116.39625 
L 326.147796 119.578665 
L 326.535227 116.891425 
L 326.922659 117.797638 
L 327.31009 116.457718 
L 327.697522 116.447795 
L 328.084953 117.212334 
L 328.472385 114.086564 
L 328.859816 111.866908 
L 329.247248 117.327566 
L 329.634679 112.292968 
L 330.02211 110.545445 
L 330.409542 118.200646 
L 330.796973 114.534971 
L 331.184405 114.316097 
L 331.571836 115.329003 
L 331.959268 111.325191 
L 332.346699 111.687603 
L 332.734131 110.770224 
L 333.121562 115.096505 
L 333.896425 113.112006 
L 334.283857 109.949803 
L 334.671288 114.100904 
L 335.058719 116.864752 
L 335.446151 112.836625 
L 335.833582 111.106218 
L 336.221014 110.226664 
L 336.995877 115.535093 
L 337.383308 112.600455 
L 337.77074 110.633951 
L 338.158171 113.044289 
L 338.933034 112.721563 
L 339.320466 109.930057 
L 339.707897 111.759275 
L 340.095328 110.408672 
L 340.48276 105.01741 
L 340.870191 109.665637 
L 341.257623 107.420668 
L 341.645054 108.394994 
L 342.032486 102.304298 
L 342.419917 107.223843 
L 342.807349 107.540025 
L 343.19478 105.189442 
L 343.582212 105.230818 
L 343.969643 104.808223 
L 344.357075 98.932024 
L 344.744506 102.108946 
L 345.131937 102.565229 
L 345.519369 106.260474 
L 345.9068 102.866442 
L 346.294232 97.911223 
L 346.681663 105.022261 
L 347.069095 104.062969 
L 347.456526 107.329156 
L 347.843958 101.788489 
L 348.231389 99.673951 
L 348.618821 99.291689 
L 349.006252 97.011628 
L 349.393684 95.86095 
L 349.781115 92.777236 
L 350.168546 103.451906 
L 350.943409 94.594606 
L 351.330841 102.394489 
L 351.718272 99.933444 
L 352.105704 96.653657 
L 352.493135 100.817943 
L 352.880567 97.417449 
L 353.267998 95.109403 
L 353.65543 94.738743 
L 354.042861 96.14843 
L 354.430293 101.144601 
L 354.817724 103.036534 
L 355.205155 96.198818 
L 355.592587 107.207215 
L 355.980018 95.25412 
L 356.36745 95.835162 
L 356.754881 92.813837 
L 357.142313 98.854688 
L 357.529744 96.605359 
L 357.917176 92.499783 
L 358.304607 89.783379 
L 358.692039 91.407754 
L 359.07947 99.904318 
L 359.466902 102.509571 
L 359.854333 93.498073 
L 360.241764 93.332067 
L 360.629196 92.930486 
L 361.016627 86.599385 
L 361.404059 90.066095 
L 361.79149 104.246117 
L 362.178922 89.210069 
L 362.566353 90.670296 
L 362.953785 99.440487 
L 363.341216 98.282773 
L 363.728648 93.904903 
L 364.116079 99.554753 
L 364.503511 88.139439 
L 364.890942 88.208902 
L 365.278373 99.628752 
L 365.665805 92.666349 
L 366.053236 91.717319 
L 366.440668 100.338384 
L 366.828099 92.416175 
L 367.215531 95.577533 
L 367.602962 90.645747 
L 367.990394 83.195262 
L 368.377825 96.719469 
L 368.765257 94.687302 
L 369.152688 95.977055 
L 369.54012 89.52169 
L 369.927551 94.809132 
L 370.314982 82.003742 
L 370.702414 94.819565 
L 371.089845 80.110502 
L 371.477277 87.374173 
L 372.25214 76.382183 
L 372.639571 91.699314 
L 373.027003 92.698655 
L 373.414434 88.758906 
L 373.801866 87.511355 
L 374.576729 82.924914 
L 374.96416 91.278752 
L 375.351591 90.637995 
L 375.739023 92.074008 
L 376.126454 85.824976 
L 376.513886 92.309457 
L 376.901317 89.179526 
L 377.288749 87.76361 
L 377.67618 79.879821 
L 378.063612 81.660146 
L 378.451043 80.058092 
L 378.838475 89.009017 
L 379.613338 80.025095 
L 380.000769 76.894918 
L 380.3882 90.46455 
L 380.775632 83.58013 
L 381.163063 79.710599 
L 381.550495 91.190158 
L 381.937926 97.807868 
L 382.325358 86.039954 
L 382.712789 80.232197 
L 383.100221 82.698512 
L 383.487652 86.952293 
L 383.875084 84.989612 
L 384.262515 77.122076 
L 384.649947 90.10653 
L 385.037378 73.203452 
L 385.424809 77.873005 
L 385.812241 90.566921 
L 386.199672 89.025406 
L 386.587104 87.947901 
L 386.974535 78.352948 
L 387.361967 79.760531 
L 387.749398 85.433825 
L 388.13683 83.56534 
L 388.524261 84.494483 
L 389.299124 68.043065 
L 390.073987 85.809692 
L 390.461418 72.526134 
L 390.84885 81.120904 
L 391.236281 70.922837 
L 391.623713 80.26669 
L 392.011144 83.40062 
L 392.398576 77.218817 
L 392.786007 65.083798 
L 393.173439 85.410903 
L 393.56087 74.865108 
L 393.948302 87.758782 
L 394.335733 81.104819 
L 394.723165 67.59063 
L 395.110596 76.187319 
L 395.498027 70.133395 
L 395.885459 77.315946 
L 396.27289 81.913445 
L 397.047753 65.491056 
L 397.435185 65.985009 
L 397.822616 74.879048 
L 398.210048 66.908284 
L 398.597479 78.751583 
L 398.984911 69.152821 
L 399.372342 75.861209 
L 399.759774 69.226803 
L 400.147205 74.838983 
L 400.922068 66.281655 
L 401.696931 78.232025 
L 402.084362 70.332263 
L 402.471794 73.339865 
L 402.859225 69.174055 
L 403.246657 70.928858 
L 403.634088 70.636495 
L 404.02152 79.083284 
L 404.408951 61.086879 
L 404.796383 65.357926 
L 405.183814 60.36443 
L 405.571245 64.795554 
L 405.958677 81.386674 
L 406.346108 78.43411 
L 406.73354 86.962781 
L 407.120971 78.112728 
L 407.508403 61.196472 
L 407.895834 63.215023 
L 408.283266 71.424086 
L 408.670697 67.522026 
L 409.058129 61.002833 
L 409.44556 65.62787 
L 409.832992 56.552206 
L 410.220423 64.348468 
L 410.607854 64.664577 
L 410.995286 80.649739 
L 411.382717 58.212793 
L 411.770149 75.879818 
L 412.15758 74.19051 
L 412.545012 71.032018 
L 412.932443 64.91607 
L 413.319875 60.635454 
L 413.707306 77.510203 
L 414.094738 57.350711 
L 414.482169 66.849284 
L 414.869601 59.662646 
L 415.257032 57.225514 
L 415.644463 62.587711 
L 416.031895 56.390161 
L 416.419326 64.27082 
L 416.806758 57.677847 
L 417.194189 75.094251 
L 417.581621 80.058556 
L 417.969052 67.390635 
L 418.356484 80.101552 
L 418.743915 64.313344 
L 419.131347 67.762487 
L 419.518778 63.829507 
L 419.90621 66.443744 
L 420.293641 63.281092 
L 420.681072 77.896049 
L 421.068504 71.296851 
L 421.455935 61.501149 
L 421.843367 68.236755 
L 422.230798 71.190477 
L 422.61823 76.601185 
L 423.005661 71.441744 
L 423.393093 61.523487 
L 423.780524 64.482391 
L 424.167956 64.631977 
L 424.555387 71.935311 
L 424.942819 61.402748 
L 425.33025 72.521998 
L 425.717681 64.995555 
L 426.105113 69.228042 
L 426.492544 66.637354 
L 426.879976 59.406531 
L 427.267407 59.334558 
L 427.654839 59.778536 
L 428.04227 56.437642 
L 428.429702 71.581518 
L 428.817133 57.453505 
L 429.591996 73.297515 
L 429.979428 46.475486 
L 430.366859 58.407409 
L 430.75429 62.984476 
L 431.141722 62.900506 
L 431.529153 62.194179 
L 431.916585 55.884551 
L 432.691448 70.573144 
L 433.078879 68.886525 
L 433.466311 70.686791 
L 433.853742 56.610041 
L 434.628605 72.581785 
L 435.016037 65.181619 
L 435.403468 54.073517 
L 435.7909 56.318791 
L 436.953194 77.679951 
L 437.340625 72.277428 
L 437.728057 52.302025 
L 438.115488 72.223857 
L 438.50292 53.618621 
L 438.890351 62.181613 
L 439.277783 50.657735 
L 439.665214 44.329544 
L 440.052646 57.424021 
L 440.440077 53.77607 
L 440.827509 65.5936 
L 441.21494 48.470798 
L 441.602371 60.273788 
L 441.989803 58.42391 
L 442.377234 49.690815 
L 442.764666 48.943146 
L 443.152097 56.617523 
L 443.539529 55.898532 
L 443.92696 60.569019 
L 444.314392 54.436684 
L 444.701823 58.476165 
L 445.089255 59.611052 
L 445.476686 51.322238 
L 445.864118 62.707483 
L 446.251549 61.059761 
L 446.63898 64.67108 
L 447.026412 43.688685 
L 447.413843 54.355845 
L 447.801275 51.209741 
L 448.188706 53.153371 
L 448.576138 54.004299 
L 448.963569 50.462652 
L 449.351001 66.999606 
L 449.738432 47.420903 
L 450.513295 72.149219 
L 450.900727 61.576088 
L 451.288158 69.63403 
L 452.063021 47.451593 
L 452.450452 54.654718 
L 452.837884 55.934849 
L 453.225315 55.24538 
L 453.612747 60.890877 
L 454.000178 47.112213 
L 454.38761 67.334009 
L 454.775041 60.844013 
L 455.162473 47.918622 
L 455.549904 53.37347 
L 455.937336 52.237599 
L 456.324767 58.911762 
L 456.712198 46.438808 
L 457.487061 67.700434 
L 457.874493 42.603768 
L 458.261924 59.329913 
L 458.649356 56.716058 
L 459.036787 55.441314 
L 459.424219 60.214506 
L 459.81165 53.077901 
L 460.199082 54.148034 
L 460.586513 48.927255 
L 460.973945 57.062721 
L 461.361376 49.011523 
L 461.748807 54.491322 
L 462.136239 45.003953 
L 462.52367 66.542359 
L 462.911102 56.673889 
L 463.298533 60.867747 
L 463.685965 49.690327 
L 464.073396 56.944247 
L 464.460828 46.722006 
L 464.848259 54.344234 
L 465.235691 54.139476 
L 465.623122 63.171124 
L 466.010554 61.626199 
L 466.397985 66.157337 
L 466.785416 66.216113 
L 467.172848 56.448183 
L 467.560279 62.597795 
L 468.335142 49.912543 
L 468.722574 51.974116 
L 469.110005 52.610883 
L 469.497437 52.913659 
L 469.884868 56.879629 
L 470.2723 54.311805 
L 470.659731 50.151983 
L 471.047163 60.540622 
L 471.434594 50.493287 
L 471.822025 53.239343 
L 472.209457 43.369466 
L 472.596888 53.277217 
L 472.98432 55.563512 
L 473.371751 55.827798 
L 473.759183 64.372352 
L 474.146614 52.323113 
L 474.534046 49.239928 
L 474.921477 55.509038 
L 475.308909 65.974221 
L 475.69634 57.992063 
L 476.083772 68.117568 
L 476.471203 46.365455 
L 476.471203 46.365455 
" clip-path="url(#p3dece79090)" style="fill: none; stroke: #c0392b; stroke-width: 1.5; stroke-linecap: square"/>
   </g>
   <g id="patch_8">
    <path d="M 278.358125 142.118125 
L 278.358125 22.318125 
" style="fill: none; stroke: #000000; stroke-width: 0.8; stroke-linejoin: miter; stroke-linecap: square"/>
   </g>
   <g id="patch_9">
    <path d="M 485.905159 142.118125 
L 485.905159 22.318125 
" style="fill: none; stroke: #000000; stroke-width: 0.8; stroke-linejoin: miter; stroke-linecap: square"/>
   </g>
   <g id="patch_10">
    <path d="M 278.358125 142.118125 
L 485.905159 142.118125 
" style="fill: none; stroke: #000000; stroke-width: 0.8; stroke-linejoin: miter; stroke-linecap: square"/>
   </g>
   <g id="patch_11">
    <path d="M 278.358125 22.318125 
L 485.905159 22.318125 
" style="fill: none; stroke: #000000; stroke-width: 0.8; stroke-linejoin: miter; stroke-linecap: square"/>
   </g>
   <g id="text_25">
    <text style="font-size: 12px; font-family: 'DejaVu Sans', 'Bitstream Vera Sans', 'Computer Modern Sans Serif', 'Lucida Grande', 'Verdana', 'Geneva', 'Lucid', 'Arial', 'Helvetica', 'Avant Garde', sans-serif; text-anchor: middle" x="382.131642" y="16.318125" transform="rotate(-0 382.131642 16.318125)">per-sample KL</text>
   </g>
  </g>
 </g>
 <defs>
  <clipPath id="pa19da0af69">
   <rect x="53.328125" y="22.318125" width="207.547034" height="119.8"/>
  </clipPath>
  <clipPath id="p3dece79090">
   <rect x="278.358125" y="22.318125" width="207.547034" height="119.8"/>
  </clipPath>
 </defs>
</svg>
