<?xml version="1.0" encoding="utf-8" standalone="no"?>
<!DOCTYPE svg PUBLIC "-//W3C//DTD SVG 1.1//EN"
  "http://www.w3.org/Graphics/SVG/1.1/DTD/svg11.dtd">
<svg xmlns:xlink="http://www.w3.org/1999/xlink" width="493.105159pt" height="179.674375pt" viewBox="0 0 493.105159 179.674375" xmlns="http://www.w3.org/2000/svg" version="1.1">
 <metadata>
  <rdf:RDF xmlns:dc="http://purl.org/dc/elements/1.1/" xmlns:cc="http://creativecommons.org/ns#" xmlns:rdf="http://www.w3.org/1999/02/22-rdf-syntax-ns#">
   <cc:Work>
    <dc:type rdf:resource="http://purl.org/dc/dcmitype/StillImage"/>
    <dc:format>image/svg+xml</dc:format>
    <dc:creator>
     <cc:Agent>
      <dc:title>Matplotlib v3.10.9, https://matplotlib.org/</dc:title>
     </cc:Agent>
    </dc:creator>
   </cc:Work>
  </rdf:RDF>
 </metadata>
 <defs>
  <style type="text/css">*{stroke-linejoin: round; stroke-linecap: butt}</style>
 </defs>
 <g id="figure_1">
  <g id="patch_1">
   <path d="M 0 179.674375 
L 493.105159 179.674375 
L 493.105159 0 
L 0 0 
z
" style="fill: #ffffff"/>
  </g>
  <g id="axes_1">
   <g id="patch_2">
    <path d="M 53.328125 142.118125 
L 260.875159 142.118125 
L 260.875159 22.318125 
L 53.328125 22.318125 
z
" style="fill: #ffffff"/>
   </g>
   <g id="FillBetweenPolyCollection_1">
    <defs>
     <path id="m77ec167ca4" d="M 62.762081 -43.085581 
L 62.762081 -43.001705 
L 63.149513 -43.198805 
L 63.536944 -43.809337 
L 63.924375 -44.446408 
L 64.311807 -45.469866 
L 64.699238 -46.548337 
L 65.08667 -46.434033 
L 65.474101 -47.722061 
L 65.861533 -47.992605 
L 66.248964 -48.303684 
L 66.636396 -48.668935 
L 67.023827 -48.792171 
L 67.411259 -48.778893 
L 67.79869 -48.513593 
L 68.186122 -48.914329 
L 68.573553 -49.052989 
L 68.960984 -49.355971 
L 69.348416 -49.463464 
L 69.735847 -49.638349 
L 70.123279 -49.762088 
L 70.51071 -49.908518 
L 70.898142 -50.004565 
L 71.285573 -50.287892 
L 71.673005 -50.478713 
L 72.060436 -50.662872 
L 72.447868 -50.981199 
L 72.835299 -51.298161 
L 73.222731 -51.742487 
L 73.610162 -51.866001 
L 73.997593 -52.629725 
L 74.385025 -52.887498 
L 74.772456 -53.21573 
L 75.159888 -53.278243 
L 75.547319 -53.135271 
L 75.934751 -53.198444 
L 76.322182 -53.529842 
L 76.709614 -53.510368 
L 77.097045 -53.662491 
L 77.484477 -53.615651 
L 77.871908 -53.810331 
L 78.25934 -53.860193 
L 78.646771 -53.76164 
L 79.034202 -54.180755 
L 79.421634 -54.154968 
L 79.809065 -54.225615 
L 80.196497 -55.193841 
L 80.583928 -55.956499 
L 80.97136 -55.838536 
L 81.358791 -55.419999 
L 81.746223 -57.191614 
L 82.133654 -57.416075 
L 82.521086 -57.589723 
L 82.908517 -58.597756 
L 83.295949 -58.145102 
L 83.68338 -59.123153 
L 84.070811 -58.830066 
L 84.458243 -59.178637 
L 84.845674 -60.022204 
L 85.233106 -60.601152 
L 85.620537 -61.178901 
L 86.007969 -62.460004 
L 86.3954 -62.90601 
L 86.782832 -63.552897 
L 87.170263 -64.406241 
L 87.557695 -63.953521 
L 87.945126 -64.679564 
L 88.332558 -64.241286 
L 88.719989 -66.734599 
L 89.10742 -66.157111 
L 89.494852 -67.603087 
L 89.882283 -67.226802 
L 90.269715 -67.785942 
L 90.657146 -65.787221 
L 91.044578 -67.998434 
L 91.432009 -67.768066 
L 91.819441 -68.079374 
L 92.206872 -69.230817 
L 92.594304 -68.28658 
L 92.981735 -65.059059 
L 93.369167 -67.882305 
L 93.756598 -62.862899 
L 94.14403 -72.121832 
L 94.531461 -71.151146 
L 94.918892 -70.763916 
L 95.306324 -69.460955 
L 95.693755 -70.551685 
L 96.081187 -70.546105 
L 96.468618 -70.938249 
L 96.85605 -71.758749 
L 97.243481 -74.452162 
L 97.630913 -74.727904 
L 98.018344 -77.671913 
L 98.405776 -74.99923 
L 98.793207 -77.650535 
L 99.180639 -78.332643 
L 99.56807 -76.221844 
L 99.955501 -78.148435 
L 100.342933 -71.842089 
L 100.730364 -74.06015 
L 101.117796 -69.699289 
L 101.505227 -80.788538 
L 101.892659 -76.178292 
L 102.28009 -73.97653 
L 102.667522 -78.794529 
L 103.054953 -76.674739 
L 103.442385 -78.995036 
L 103.829816 -83.371183 
L 104.217248 -80.065858 
L 104.604679 -79.558161 
L 104.99211 -83.675856 
L 105.379542 -74.180498 
L 105.766973 -75.640061 
L 106.154405 -84.023752 
L 106.541836 -75.892035 
L 106.929268 -78.962088 
L 107.316699 -80.93388 
L 107.704131 -74.869147 
L 108.091562 -75.910431 
L 108.478994 -81.37967 
L 108.866425 -72.372966 
L 109.253857 -64.045112 
L 109.641288 -74.053022 
L 110.028719 -77.236494 
L 110.416151 -80.940651 
L 110.803582 -80.191295 
L 111.191014 -77.431346 
L 111.578445 -81.715674 
L 111.965877 -81.847456 
L 112.353308 -82.658301 
L 112.74074 -81.966239 
L 113.128171 -81.560545 
L 113.515603 -84.705437 
L 113.903034 -84.110111 
L 114.290466 -78.749009 
L 114.677897 -83.169271 
L 115.065328 -83.646918 
L 115.45276 -84.360504 
L 115.840191 -89.493966 
L 116.227623 -78.355814 
L 116.615054 -83.435992 
L 117.002486 -87.5257 
L 117.389917 -87.58102 
L 117.777349 -81.773938 
L 118.16478 -81.297583 
L 118.552212 -87.786929 
L 118.939643 -87.71241 
L 119.327075 -88.217185 
L 119.714506 -92.012493 
L 120.101937 -88.564121 
L 120.489369 -87.253547 
L 120.8768 -85.689681 
L 121.264232 -86.816745 
L 121.651663 -83.700075 
L 122.039095 -94.38421 
L 122.426526 -92.858672 
L 122.813958 -91.732085 
L 123.201389 -93.512437 
L 123.588821 -84.903005 
L 123.976252 -81.033058 
L 124.363684 -80.602162 
L 124.751115 -83.789469 
L 125.138546 -89.960498 
L 125.525978 -85.835376 
L 125.913409 -84.242488 
L 126.300841 -90.725063 
L 126.688272 -93.844964 
L 127.075704 -92.079651 
L 127.463135 -87.754208 
L 127.850567 -81.573575 
L 128.237998 -92.142448 
L 128.62543 -86.929171 
L 129.012861 -90.360531 
L 129.400293 -86.254295 
L 129.787724 -73.41657 
L 130.175155 -86.872244 
L 130.562587 -87.464372 
L 130.950018 -96.225005 
L 131.33745 -86.987415 
L 131.724881 -100.043453 
L 132.112313 -85.779508 
L 132.499744 -88.551817 
L 132.887176 -103.89598 
L 133.274607 -99.08912 
L 133.662039 -93.240847 
L 134.04947 -111.878155 
L 134.436902 -108.374174 
L 134.824333 -93.805564 
L 135.211764 -102.601876 
L 135.599196 -99.671822 
L 135.986627 -86.275706 
L 136.374059 -97.876382 
L 136.76149 -97.717425 
L 137.148922 -103.090149 
L 137.536353 -89.646253 
L 137.923785 -95.795704 
L 138.311216 -92.413713 
L 138.698648 -86.134286 
L 139.086079 -101.322491 
L 139.473511 -92.803443 
L 139.860942 -103.914558 
L 140.248373 -85.176729 
L 140.635805 -96.731974 
L 141.023236 -94.292765 
L 141.410668 -98.73342 
L 141.798099 -112.85668 
L 142.185531 -103.430798 
L 142.572962 -104.168161 
L 142.960394 -112.895728 
L 143.347825 -118.278796 
L 143.735257 -96.850692 
L 144.122688 -98.445496 
L 144.51012 -114.094471 
L 144.897551 -113.19527 
L 145.284982 -99.977954 
L 145.672414 -100.466628 
L 146.059845 -101.029943 
L 146.447277 -99.114988 
L 146.834708 -115.826178 
L 147.22214 -118.30954 
L 147.609571 -123.277588 
L 147.997003 -104.371391 
L 148.384434 -95.048762 
L 148.771866 -98.137474 
L 149.159297 -96.23475 
L 149.546729 -105.827951 
L 149.93416 -102.081661 
L 150.321591 -100.165684 
L 150.709023 -114.323038 
L 151.096454 -99.057678 
L 151.483886 -104.476057 
L 151.871317 -98.29814 
L 152.258749 -98.661978 
L 152.64618 -111.791727 
L 153.033612 -109.193565 
L 153.421043 -111.573859 
L 153.808475 -116.503217 
L 154.195906 -115.560132 
L 154.583338 -104.649976 
L 154.970769 -96.802671 
L 155.3582 -107.49688 
L 155.745632 -100.981201 
L 156.133063 -103.347325 
L 156.520495 -106.54413 
L 156.907926 -96.031729 
L 157.295358 -101.889149 
L 157.682789 -92.356206 
L 158.070221 -97.62596 
L 158.457652 -101.91189 
L 158.845084 -99.513004 
L 159.232515 -107.804519 
L 159.619947 -88.389482 
L 160.007378 -91.02219 
L 160.394809 -114.006153 
L 160.782241 -103.276103 
L 161.169672 -112.460685 
L 161.557104 -100.686796 
L 161.944535 -99.945918 
L 162.331967 -104.1789 
L 162.719398 -91.182828 
L 163.10683 -91.781098 
L 163.494261 -97.59365 
L 163.881693 -99.595621 
L 164.269124 -104.894445 
L 164.656556 -97.37709 
L 165.043987 -86.269491 
L 165.431418 -89.930448 
L 165.81885 -103.600978 
L 166.206281 -98.590658 
L 166.593713 -119.343867 
L 166.981144 -102.609894 
L 167.368576 -104.342395 
L 167.756007 -101.035932 
L 168.143439 -109.382348 
L 168.53087 -112.292775 
L 168.918302 -103.239458 
L 169.305733 -96.735559 
L 169.693165 -102.897509 
L 170.080596 -94.458845 
L 170.468027 -97.349278 
L 170.855459 -103.34302 
L 171.24289 -105.814131 
L 171.630322 -86.679195 
L 172.017753 -123.139904 
L 172.405185 -100.803103 
L 172.792616 -96.481296 
L 173.180048 -99.504481 
L 173.567479 -97.166215 
L 173.954911 -103.001609 
L 174.342342 -109.741133 
L 174.729774 -94.430244 
L 175.117205 -112.362424 
L 175.504636 -106.430847 
L 175.892068 -91.057517 
L 176.279499 -104.011423 
L 176.666931 -107.965232 
L 177.054362 -106.283652 
L 177.441794 -113.208826 
L 177.829225 -103.186288 
L 178.216657 -113.939383 
L 178.604088 -93.284761 
L 178.99152 -91.979048 
L 179.378951 -118.456858 
L 179.766383 -109.312753 
L 180.153814 -108.125965 
L 180.541245 -107.339195 
L 180.928677 -103.774311 
L 181.316108 -114.634266 
L 181.70354 -106.040263 
L 182.090971 -98.700679 
L 182.478403 -112.194247 
L 182.865834 -122.780604 
L 183.253266 -100.256917 
L 183.640697 -108.153816 
L 184.028129 -98.220894 
L 184.41556 -108.679532 
L 184.802992 -98.936727 
L 185.190423 -112.841883 
L 185.577854 -95.879293 
L 185.965286 -96.170505 
L 186.352717 -98.777999 
L 186.740149 -92.581103 
L 187.12758 -98.208087 
L 187.515012 -96.683588 
L 187.902443 -109.824643 
L 188.289875 -111.106877 
L 188.677306 -95.928555 
L 189.064738 -103.269763 
L 189.452169 -92.026633 
L 189.839601 -106.245535 
L 190.227032 -101.71736 
L 190.614463 -106.91759 
L 191.001895 -87.633485 
L 191.389326 -94.720585 
L 191.776758 -96.704696 
L 192.164189 -91.348044 
L 192.551621 -109.49706 
L 192.939052 -97.733899 
L 193.326484 -94.106675 
L 193.713915 -91.341155 
L 194.101347 -121.286261 
L 194.488778 -99.187439 
L 194.87621 -107.570323 
L 195.263641 -107.359217 
L 195.651072 -111.83204 
L 196.038504 -110.056002 
L 196.425935 -109.349851 
L 196.813367 -100.351898 
L 197.200798 -100.380936 
L 197.58823 -104.265145 
L 197.975661 -91.519166 
L 198.363093 -103.934277 
L 198.750524 -99.781973 
L 199.137956 -104.413739 
L 199.525387 -108.728166 
L 199.912819 -100.313357 
L 200.30025 -100.602104 
L 200.687681 -114.772149 
L 201.075113 -108.529375 
L 201.462544 -104.785823 
L 201.849976 -103.321663 
L 202.237407 -99.557574 
L 202.624839 -112.746728 
L 203.01227 -93.180805 
L 203.399702 -99.349808 
L 203.787133 -99.295334 
L 204.174565 -102.546912 
L 204.561996 -98.099899 
L 204.949428 -111.418853 
L 205.336859 -109.258404 
L 205.72429 -115.235781 
L 206.111722 -91.555687 
L 206.499153 -107.885145 
L 206.886585 -111.812748 
L 207.274016 -109.491688 
L 207.661448 -104.379805 
L 208.048879 -103.536295 
L 208.436311 -108.5621 
L 208.823742 -112.392943 
L 209.211174 -103.048626 
L 209.598605 -113.232616 
L 209.986037 -119.854356 
L 210.373468 -110.954294 
L 210.7609 -104.519237 
L 211.148331 -110.786975 
L 211.535762 -97.907918 
L 211.923194 -103.532597 
L 212.310625 -100.78604 
L 212.698057 -105.291554 
L 213.085488 -107.900462 
L 213.47292 -103.470105 
L 213.860351 -96.397598 
L 214.247783 -119.217111 
L 214.635214 -98.214018 
L 215.022646 -111.59748 
L 215.410077 -100.216846 
L 215.797509 -111.01661 
L 216.18494 -108.63688 
L 216.572371 -112.952173 
L 216.959803 -101.787363 
L 217.347234 -99.915377 
L 217.734666 -110.60315 
L 218.122097 -118.253802 
L 218.509529 -105.075877 
L 218.89696 -114.422513 
L 219.284392 -99.054983 
L 219.671823 -91.211538 
L 220.059255 -104.757079 
L 220.446686 -112.022164 
L 220.834118 -100.332845 
L 221.221549 -92.838131 
L 221.60898 -106.449689 
L 221.996412 -121.181271 
L 222.383843 -97.673748 
L 222.771275 -102.404996 
L 223.158706 -114.12015 
L 223.546138 -96.250953 
L 223.933569 -97.52678 
L 224.321001 -108.331309 
L 224.708432 -102.460397 
L 225.095864 -98.28334 
L 225.483295 -96.489397 
L 225.870727 -104.406529 
L 226.258158 -91.862057 
L 226.645589 -95.396294 
L 227.033021 -103.027528 
L 227.420452 -98.245301 
L 227.807884 -96.495355 
L 228.195315 -92.412121 
L 228.582747 -97.850249 
L 228.970178 -96.69275 
L 229.35761 -96.322955 
L 229.745041 -116.901738 
L 230.132473 -116.797334 
L 230.519904 -106.777171 
L 230.907336 -112.523628 
L 231.294767 -108.116617 
L 231.682198 -98.701299 
L 232.06963 -96.441494 
L 232.457061 -113.151234 
L 232.844493 -95.502554 
L 233.231924 -110.918413 
L 233.619356 -109.237145 
L 234.006787 -113.086616 
L 234.394219 -102.081795 
L 234.78165 -102.456159 
L 235.169082 -100.64258 
L 235.556513 -94.40628 
L 235.943945 -105.198226 
L 236.331376 -100.44008 
L 236.718807 -97.920443 
L 237.106239 -119.846256 
L 237.49367 -105.071346 
L 237.881102 -124.012422 
L 238.268533 -103.973922 
L 238.655965 -102.678607 
L 239.043396 -103.851276 
L 239.430828 -109.23212 
L 239.818259 -99.922005 
L 240.205691 -84.183512 
L 240.593122 -95.079005 
L 240.980554 -103.842595 
L 241.367985 -100.118352 
L 241.755416 -87.574929 
L 242.142848 -100.617953 
L 242.530279 -103.38381 
L 242.917711 -106.008215 
L 243.305142 -99.440958 
L 243.692574 -118.910854 
L 244.080005 -94.534048 
L 244.467437 -108.834709 
L 244.854868 -104.458099 
L 245.2423 -103.10529 
L 245.629731 -108.605011 
L 246.017163 -97.075967 
L 246.404594 -110.646345 
L 246.792025 -120.600592 
L 247.179457 -105.081105 
L 247.566888 -109.08782 
L 247.95432 -100.416494 
L 248.341751 -97.615805 
L 248.729183 -103.718726 
L 249.116614 -119.29862 
L 249.504046 -109.581061 
L 249.891477 -125.596255 
L 250.278909 -117.097248 
L 250.66634 -116.23577 
L 251.053772 -123.987711 
L 251.441203 -114.139492 
L 251.441203 -133.312229 
L 251.441203 -133.312229 
L 251.053772 -151.910795 
L 250.66634 -132.052127 
L 250.278909 -123.114834 
L 249.891477 -142.375124 
L 249.504046 -132.222857 
L 249.116614 -144.858056 
L 248.729183 -128.665576 
L 248.341751 -128.016481 
L 247.95432 -138.412193 
L 247.566888 -134.269098 
L 247.179457 -132.749551 
L 246.792025 -135.346285 
L 246.404594 -135.282442 
L 246.017163 -128.568648 
L 245.629731 -132.017403 
L 245.2423 -130.717981 
L 244.854868 -132.094233 
L 244.467437 -121.514763 
L 244.080005 -124.244189 
L 243.692574 -135.125936 
L 243.305142 -126.779657 
L 242.917711 -126.533933 
L 242.530279 -120.441149 
L 242.142848 -126.209264 
L 241.755416 -137.091661 
L 241.367985 -134.395399 
L 240.980554 -130.777226 
L 240.593122 -131.213678 
L 240.205691 -128.366761 
L 239.818259 -132.169476 
L 239.430828 -121.196565 
L 239.043396 -135.961568 
L 238.655965 -135.480567 
L 238.268533 -137.206171 
L 237.881102 -142.292255 
L 237.49367 -148.154581 
L 237.106239 -139.629441 
L 236.718807 -113.249876 
L 236.331376 -140.703911 
L 235.943945 -137.84513 
L 235.556513 -135.299244 
L 235.169082 -132.96902 
L 234.78165 -138.075279 
L 234.394219 -138.814205 
L 234.006787 -137.95453 
L 233.619356 -136.327884 
L 233.231924 -135.533973 
L 232.844493 -130.042298 
L 232.457061 -140.769841 
L 232.06963 -132.116395 
L 231.682198 -136.488668 
L 231.294767 -143.021779 
L 230.907336 -145.223313 
L 230.519904 -138.350117 
L 230.132473 -146.554433 
L 229.745041 -142.914785 
L 229.35761 -124.721479 
L 228.970178 -133.458477 
L 228.582747 -113.578692 
L 228.195315 -125.902815 
L 227.807884 -108.876238 
L 227.420452 -119.406569 
L 227.033021 -126.964276 
L 226.645589 -126.853415 
L 226.258158 -123.619138 
L 225.870727 -130.734275 
L 225.483295 -136.190017 
L 225.095864 -127.785507 
L 224.708432 -145.594642 
L 224.321001 -139.074621 
L 223.933569 -119.505106 
L 223.546138 -133.340925 
L 223.158706 -120.844786 
L 222.771275 -131.401568 
L 222.383843 -130.31372 
L 221.996412 -143.774414 
L 221.60898 -143.881091 
L 221.221549 -120.637294 
L 220.834118 -135.294592 
L 220.446686 -134.104448 
L 220.059255 -132.569022 
L 219.671823 -131.116739 
L 219.284392 -135.627389 
L 218.89696 -135.210734 
L 218.509529 -132.666449 
L 218.122097 -144.517115 
L 217.734666 -132.856335 
L 217.347234 -136.790313 
L 216.959803 -120.836081 
L 216.572371 -135.204 
L 216.18494 -124.802234 
L 215.797509 -136.997654 
L 215.410077 -135.793889 
L 215.022646 -132.911918 
L 214.635214 -129.433542 
L 214.247783 -132.030555 
L 213.860351 -118.091651 
L 213.47292 -137.26313 
L 213.085488 -134.482796 
L 212.698057 -135.143139 
L 212.310625 -133.61064 
L 211.923194 -141.738389 
L 211.535762 -123.125889 
L 211.148331 -137.954575 
L 210.7609 -138.107917 
L 210.373468 -133.035179 
L 209.986037 -139.508962 
L 209.598605 -144.166128 
L 209.211174 -123.485485 
L 208.823742 -133.963057 
L 208.436311 -139.234169 
L 208.048879 -134.584468 
L 207.661448 -128.575762 
L 207.274016 -133.127783 
L 206.886585 -139.635845 
L 206.499153 -132.753361 
L 206.111722 -133.610846 
L 205.72429 -123.27904 
L 205.336859 -128.176184 
L 204.949428 -137.052571 
L 204.561996 -120.668782 
L 204.174565 -140.126271 
L 203.787133 -132.311493 
L 203.399702 -137.108021 
L 203.01227 -118.254198 
L 202.624839 -140.480161 
L 202.237407 -126.732453 
L 201.849976 -141.389762 
L 201.462544 -120.926037 
L 201.075113 -113.934252 
L 200.687681 -136.36442 
L 200.30025 -128.200266 
L 199.912819 -123.861283 
L 199.525387 -142.152429 
L 199.137956 -137.210664 
L 198.750524 -128.450152 
L 198.363093 -137.423882 
L 197.975661 -126.335268 
L 197.58823 -141.05038 
L 197.200798 -139.006333 
L 196.813367 -134.423193 
L 196.425935 -131.459501 
L 196.038504 -141.536532 
L 195.651072 -136.961758 
L 195.263641 -135.967726 
L 194.87621 -119.290585 
L 194.488778 -130.155372 
L 194.101347 -144.878124 
L 193.713915 -136.853977 
L 193.326484 -126.018724 
L 192.939052 -109.107172 
L 192.551621 -138.170837 
L 192.164189 -124.275876 
L 191.776758 -112.451484 
L 191.389326 -139.42914 
L 191.001895 -130.374821 
L 190.614463 -139.060843 
L 190.227032 -130.774706 
L 189.839601 -123.14153 
L 189.452169 -129.044816 
L 189.064738 -147.796732 
L 188.677306 -133.214346 
L 188.289875 -148.959604 
L 187.902443 -128.189285 
L 187.515012 -131.199664 
L 187.12758 -135.78759 
L 186.740149 -127.35 
L 186.352717 -128.128685 
L 185.965286 -118.106368 
L 185.577854 -113.562774 
L 185.190423 -136.240434 
L 184.802992 -117.201702 
L 184.41556 -131.459862 
L 184.028129 -117.112694 
L 183.640697 -133.636622 
L 183.253266 -118.542834 
L 182.865834 -146.052215 
L 182.478403 -135.748178 
L 182.090971 -131.07131 
L 181.70354 -120.267387 
L 181.316108 -125.788347 
L 180.928677 -124.163765 
L 180.541245 -128.745685 
L 180.153814 -138.753074 
L 179.766383 -136.791181 
L 179.378951 -129.471143 
L 178.99152 -130.432106 
L 178.604088 -126.97538 
L 178.216657 -142.230062 
L 177.829225 -129.914489 
L 177.441794 -137.366678 
L 177.054362 -139.305097 
L 176.666931 -129.878275 
L 176.279499 -136.542191 
L 175.892068 -116.392317 
L 175.504636 -128.212803 
L 175.117205 -128.230303 
L 174.729774 -129.796979 
L 174.342342 -131.399963 
L 173.954911 -134.843422 
L 173.567479 -128.774093 
L 173.180048 -108.77441 
L 172.792616 -138.872574 
L 172.405185 -127.598428 
L 172.017753 -150.564775 
L 171.630322 -135.457151 
L 171.24289 -125.286643 
L 170.855459 -131.631449 
L 170.468027 -128.439793 
L 170.080596 -128.427273 
L 169.693165 -123.638133 
L 169.305733 -129.586773 
L 168.918302 -137.323959 
L 168.53087 -133.31694 
L 168.143439 -120.586997 
L 167.756007 -137.554348 
L 167.368576 -132.400008 
L 166.981144 -129.328462 
L 166.593713 -143.388145 
L 166.206281 -128.881732 
L 165.81885 -131.424499 
L 165.431418 -137.397691 
L 165.043987 -117.835655 
L 164.656556 -140.698302 
L 164.269124 -130.210725 
L 163.881693 -123.414991 
L 163.494261 -113.706194 
L 163.10683 -125.727384 
L 162.719398 -127.371431 
L 162.331967 -136.762972 
L 161.944535 -130.218901 
L 161.557104 -139.028682 
L 161.169672 -121.464043 
L 160.782241 -123.616936 
L 160.394809 -130.65787 
L 160.007378 -129.060784 
L 159.619947 -125.101562 
L 159.232515 -124.016186 
L 158.845084 -129.883546 
L 158.457652 -123.854737 
L 158.070221 -131.588652 
L 157.682789 -142.016896 
L 157.295358 -131.298239 
L 156.907926 -111.262664 
L 156.520495 -132.049923 
L 156.133063 -118.48547 
L 155.745632 -125.869105 
L 155.3582 -142.051654 
L 154.970769 -125.406389 
L 154.583338 -144.538934 
L 154.195906 -140.757487 
L 153.808475 -139.260556 
L 153.421043 -137.089392 
L 153.033612 -140.532019 
L 152.64618 -137.028152 
L 152.258749 -128.532885 
L 151.871317 -135.439423 
L 151.483886 -122.399328 
L 151.096454 -134.003266 
L 150.709023 -137.929093 
L 150.321591 -129.318201 
L 149.93416 -132.753382 
L 149.546729 -133.657593 
L 149.159297 -138.745372 
L 148.771866 -125.730454 
L 148.384434 -126.237094 
L 147.997003 -133.277951 
L 147.609571 -146.378262 
L 147.22214 -139.351571 
L 146.834708 -148.334851 
L 146.447277 -127.302997 
L 146.059845 -136.002349 
L 145.672414 -127.023372 
L 145.284982 -128.021407 
L 144.897551 -139.216134 
L 144.51012 -143.404413 
L 144.122688 -135.296994 
L 143.735257 -121.021053 
L 143.347825 -143.727813 
L 142.960394 -138.328366 
L 142.572962 -131.035781 
L 142.185531 -119.317352 
L 141.798099 -133.793456 
L 141.410668 -132.676451 
L 141.023236 -119.760107 
L 140.635805 -145.199456 
L 140.248373 -131.780504 
L 139.860942 -130.383973 
L 139.473511 -132.671715 
L 139.086079 -133.945983 
L 138.698648 -110.310875 
L 138.311216 -126.088951 
L 137.923785 -130.842062 
L 137.536353 -140.849034 
L 137.148922 -129.10395 
L 136.76149 -121.655929 
L 136.374059 -137.401617 
L 135.986627 -133.502624 
L 135.599196 -119.107725 
L 135.211764 -131.41966 
L 134.824333 -115.26107 
L 134.436902 -139.604705 
L 134.04947 -137.072179 
L 133.662039 -127.044083 
L 133.274607 -131.066974 
L 132.887176 -120.909376 
L 132.499744 -120.932429 
L 132.112313 -125.770043 
L 131.724881 -131.317998 
L 131.33745 -132.625117 
L 130.950018 -139.39715 
L 130.562587 -128.495987 
L 130.175155 -133.417801 
L 129.787724 -107.390467 
L 129.400293 -128.741681 
L 129.012861 -128.706873 
L 128.62543 -132.371831 
L 128.237998 -123.707594 
L 127.850567 -119.471211 
L 127.463135 -119.217102 
L 127.075704 -113.629247 
L 126.688272 -122.635244 
L 126.300841 -110.101761 
L 125.913409 -129.182231 
L 125.525978 -106.457631 
L 125.138546 -99.558561 
L 124.751115 -117.020612 
L 124.363684 -119.781604 
L 123.976252 -119.804605 
L 123.588821 -126.877972 
L 123.201389 -134.673601 
L 122.813958 -114.418683 
L 122.426526 -132.273805 
L 122.039095 -140.002032 
L 121.651663 -111.719115 
L 121.264232 -113.925436 
L 120.8768 -119.153602 
L 120.489369 -116.320827 
L 120.101937 -120.225494 
L 119.714506 -135.493073 
L 119.327075 -115.635524 
L 118.939643 -110.564239 
L 118.552212 -113.208221 
L 118.16478 -107.22727 
L 117.777349 -117.88349 
L 117.389917 -112.951899 
L 117.002486 -110.446955 
L 116.615054 -103.137549 
L 116.227623 -121.582413 
L 115.840191 -112.471133 
L 115.45276 -105.983049 
L 115.065328 -115.926395 
L 114.677897 -111.275475 
L 114.290466 -105.916199 
L 113.903034 -109.346266 
L 113.515603 -134.11146 
L 113.128171 -110.971857 
L 112.74074 -98.389559 
L 112.353308 -103.133309 
L 111.965877 -103.757296 
L 111.578445 -129.13428 
L 111.191014 -110.09966 
L 110.803582 -103.266788 
L 110.416151 -118.912783 
L 110.028719 -105.016556 
L 109.641288 -115.063227 
L 109.253857 -120.550847 
L 108.866425 -104.580529 
L 108.478994 -113.687102 
L 108.091562 -97.407146 
L 107.704131 -109.722137 
L 107.316699 -99.127584 
L 106.929268 -108.500852 
L 106.541836 -108.792309 
L 106.154405 -118.725896 
L 105.766973 -106.101576 
L 105.379542 -100.655686 
L 104.99211 -115.075128 
L 104.604679 -97.252103 
L 104.217248 -98.054544 
L 103.829816 -107.032252 
L 103.442385 -105.946475 
L 103.054953 -96.614755 
L 102.667522 -122.035481 
L 102.28009 -131.897069 
L 101.892659 -119.160742 
L 101.505227 -130.611425 
L 101.117796 -114.110533 
L 100.730364 -104.814921 
L 100.342933 -113.100772 
L 99.955501 -106.855411 
L 99.56807 -102.984816 
L 99.180639 -105.416259 
L 98.793207 -115.277187 
L 98.405776 -109.60076 
L 98.018344 -114.06918 
L 97.630913 -103.986678 
L 97.243481 -114.116586 
L 96.85605 -106.236209 
L 96.468618 -92.859278 
L 96.081187 -92.920263 
L 95.693755 -96.224213 
L 95.306324 -88.78212 
L 94.918892 -94.876434 
L 94.531461 -92.789035 
L 94.14403 -88.65122 
L 93.756598 -108.755496 
L 93.369167 -91.854404 
L 92.981735 -97.26497 
L 92.594304 -87.028416 
L 92.206872 -90.006989 
L 91.819441 -82.372397 
L 91.432009 -81.092231 
L 91.044578 -83.429843 
L 90.657146 -81.9762 
L 90.269715 -81.762283 
L 89.882283 -78.275894 
L 89.494852 -76.941676 
L 89.10742 -77.515242 
L 88.719989 -79.946169 
L 88.332558 -80.68555 
L 87.945126 -81.481194 
L 87.557695 -79.900102 
L 87.170263 -76.9293 
L 86.782832 -77.053815 
L 86.3954 -76.990225 
L 86.007969 -75.221089 
L 85.620537 -75.552772 
L 85.233106 -74.939431 
L 84.845674 -77.122977 
L 84.458243 -75.493623 
L 84.070811 -76.491895 
L 83.68338 -77.140786 
L 83.295949 -75.11456 
L 82.908517 -73.258146 
L 82.521086 -75.590131 
L 82.133654 -73.827291 
L 81.746223 -71.335675 
L 81.358791 -73.790286 
L 80.97136 -71.004781 
L 80.583928 -70.599422 
L 80.196497 -67.952061 
L 79.809065 -66.556374 
L 79.421634 -66.353481 
L 79.034202 -65.003437 
L 78.646771 -65.237031 
L 78.25934 -63.456214 
L 77.871908 -62.394402 
L 77.484477 -62.300681 
L 77.097045 -60.95861 
L 76.709614 -60.85685 
L 76.322182 -59.761953 
L 75.934751 -58.715626 
L 75.547319 -56.918827 
L 75.159888 -55.560408 
L 74.772456 -55.433268 
L 74.385025 -55.184968 
L 73.997593 -55.140251 
L 73.610162 -54.954778 
L 73.222731 -54.992955 
L 72.835299 -54.887102 
L 72.447868 -54.360849 
L 72.060436 -53.875663 
L 71.673005 -54.012078 
L 71.285573 -53.579801 
L 70.898142 -53.268015 
L 70.51071 -53.149934 
L 70.123279 -52.971568 
L 69.735847 -52.796435 
L 69.348416 -52.334228 
L 68.960984 -51.822534 
L 68.573553 -51.175361 
L 68.186122 -50.688684 
L 67.79869 -50.124396 
L 67.411259 -49.554091 
L 67.023827 -49.243605 
L 66.636396 -49.104674 
L 66.248964 -48.921757 
L 65.861533 -48.680313 
L 65.474101 -48.333275 
L 65.08667 -47.302394 
L 64.699238 -46.719125 
L 64.311807 -45.84542 
L 63.924375 -45.614275 
L 63.536944 -44.156138 
L 63.149513 -43.354621 
L 62.762081 -43.085581 
z
"/>
    </defs>
    <g clip-path="url(#pa19da0af69)">
     <use xlink:href="#m77ec167ca4" x="0" y="179.674375" style="fill: #1f77b4; fill-opacity: 0.2"/>
    </g>
   </g>
   <g id="matplotlib.axis_1">
    <g id="xtick_1">
     <g id="line2d_1">
      <path d="M 62.37465 142.118125 
L 62.37465 22.318125 
" clip-path="url(#pa19da0af69)" style="fill: none; stroke: #b0b0b0; stroke-opacity: 0.3; stroke-width: 0.8; stroke-linecap: square"/>
     </g>
     <g id="line2d_2">
      <defs>
       <path id="md52ec2ff24" d="M 0 0 
L 0 3.5 
" style="stroke: #000000; stroke-width: 0.8"/>
      </defs>
      <g>
       <use xlink:href="#md52ec2ff24" x="62.37465" y="142.118125" style="stroke: #000000; stroke-width: 0.8"/>
      </g>
     </g>
     <g id="text_1">
      <text style="font-size: 10px; font-family: 'DejaVu Sans', 'Bitstream Vera Sans', 'Computer Modern Sans Serif', 'Lucida Grande', 'Verdana', 'Geneva', 'Lucid', 'Arial', 'Helvetica', 'Avant Garde', sans-serif; text-anchor: middle" x="62.37465" y="156.716562" transform="rotate(-0 62.37465 156.716562)">0.0</text>
     </g>
    </g>
    <g id="xtick_2">
     <g id="line2d_3">
      <path d="M 100.209753 142.118125 
L 100.209753 22.318125 
" clip-path="url(#pa19da0af69)" style="fill: none; stroke: #b0b0b0; stroke-opacity: 0.3; stroke-width: 0.8; stroke-linecap: square"/>
     </g>
     <g id="line2d_4">
      <g>
       <use xlink:href="#md52ec2ff24" x="100.209753" y="142.118125" style="stroke: #000000; stroke-width: 0.8"/>
      </g>
     </g>
     <g id="text_2">
      <text style="font-size: 10px; font-family: 'DejaVu Sans', 'Bitstream Vera Sans', 'Computer Modern Sans Serif', 'Lucida Grande', 'Verdana', 'Geneva', 'Lucid', 'Arial', 'Helvetica', 'Avant Garde', sans-serif; text-anchor: middle" x="100.209753" y="156.716562" transform="rotate(-0 100.209753 156.716562)">0.2</text>
     </g>
    </g>
    <g id="xtick_3">
     <g id="line2d_5">
      <path d="M 138.044857 142.118125 
L 138.044857 22.318125 
" clip-path="url(#pa19da0af69)" style="fill: none; stroke: #b0b0b0; stroke-opacity: 0.3; stroke-width: 0.8; stroke-linecap: square"/>
     </g>
     <g id="line2d_6">
      <g>
       <use xlink:href="#md52ec2ff24" x="138.044857" y="142.118125" style="stroke: #000000; stroke-width: 0.8"/>
      </g>
     </g>
     <g id="text_3">
      <text style="font-size: 10px; font-family: 'DejaVu Sans', 'Bitstream Vera Sans', 'Computer Modern Sans Serif', 'Lucida Grande', 'Verdana', 'Geneva', 'Lucid', 'Arial', 'Helvetica', 'Avant Garde', sans-serif; text-anchor: middle" x="138.044857" y="156.716562" transform="rotate(-0 138.044857 156.716562)">0.4</text>
     </g>
    </g>
    <g id="xtick_4">
     <g id="line2d_7">
      <path d="M 175.879961 142.118125 
L 175.879961 22.318125 
" clip-path="url(#pa19da0af69)" style="fill: none; stroke: #b0b0b0; stroke-opacity: 0.3; stroke-width: 0.8; stroke-linecap: square"/>
     </g>
     <g id="line2d_8">
      <g>
       <use xlink:href="#md52ec2ff24" x="175.879961" y="142.118125" style="stroke: #000000; stroke-width: 0.8"/>
      </g>
     </g>
     <g id="text_4">
      <text style="font-size: 10px; font-family: 'DejaVu Sans', 'Bitstream Vera Sans', 'Computer Modern Sans Serif', 'Lucida Grande', 'Verdana', 'Geneva', 'Lucid', 'Arial', 'Helvetica', 'Avant Garde', sans-serif; text-anchor: middle" x="175.879961" y="156.716562" transform="rotate(-0 175.879961 156.716562)">0.6</text>
     </g>
    </g>
    <g id="xtick_5">
     <g id="line2d_9">
      <path d="M 213.715064 142.118125 
L 213.715064 22.318125 
" clip-path="url(#pa19da0af69)" style="fill: none; stroke: #b0b0b0; stroke-opacity: 0.3; stroke-width: 0.8; stroke-linecap: square"/>
     </g>
     <g id="line2d_10">
      <g>
       <use xlink:href="#md52ec2ff24" x="213.715064" y="142.118125" style="stroke: #000000; stroke-width: 0.8"/>
      </g>
     </g>
     <g id="text_5">
      <text style="font-size: 10px; font-family: 'DejaVu Sans', 'Bitstream Vera Sans', 'Computer Modern Sans Serif', 'Lucida Grande', 'Verdana', 'Geneva', 'Lucid', 'Arial', 'Helvetica', 'Avant Garde', sans-serif; text-anchor: middle" x="213.715064" y="156.716562" transform="rotate(-0 213.715064 156.716562)">0.8</text>
     </g>
    </g>
    <g id="xtick_6">
     <g id="line2d_11">
      <path d="M 251.550168 142.118125 
L 251.550168 22.318125 
" clip-path="url(#pa19da0af69)" style="fill: none; stroke: #b0b0b0; stroke-opacity: 0.3; stroke-width: 0.8; stroke-linecap: square"/>
     </g>
     <g id="line2d_12">
      <g>
       <use xlink:href="#md52ec2ff24" x="251.550168" y="142.118125" style="stroke: #000000; stroke-width: 0.8"/>
      </g>
     </g>
     <g id="text_6">
      <text style="font-size: 10px; font-family: 'DejaVu Sans', 'Bitstream Vera Sans', 'Computer Modern Sans Serif', 'Lucida Grande', 'Verdana', 'Geneva', 'Lucid', 'Arial', 'Helvetica', 'Avant Garde', sans-serif; text-anchor: middle" x="251.550168" y="156.716562" transform="rotate(-0 251.550168 156.716562)">1.0</text>
     </g>
    </g>
    <g id="text_7">
     <text style="font-size: 10px; font-family: 'DejaVu Sans', 'Bitstream Vera Sans', 'Computer Modern Sans Serif', 'Lucida Grande', 'Verdana', 'Geneva', 'Lucid', 'Arial', 'Helvetica', 'Avant Garde', sans-serif; text-anchor: middle" x="157.101642" y="170.394687" transform="rotate(-0 157.101642 170.394687)">environment step</text>
    </g>
    <g id="text_8">
     <text style="font-size: 10px; font-family: 'DejaVu Sans', 'Bitstream Vera Sans', 'Computer Modern Sans Serif', 'Lucida Grande', 'Verdana', 'Geneva', 'Lucid', 'Arial', 'Helvetica', 'Avant Garde', sans-serif; text-anchor: end" x="260.875159" y="169.394687" transform="rotate(-0 260.875159 169.394687)">1e6</text>
    </g>
   </g>
   <g id="matplotlib.axis_2">
    <g id="ytick_1">
     <g id="line2d_13">
      <path d="M 53.328125 137.094908 
L 260.875159 137.094908 
" clip-path="url(#pa19da0af69)" style="fill: none; stroke: #b0b0b0; stroke-opacity: 0.3; stroke-width: 0.8; stroke-linecap: square"/>
     </g>
     <g id="line2d_14">
      <defs>
       <path id="meb23fb85bc" d="M 0 0 
L -3.5 0 
" style="stroke: #000000; stroke-width: 0.8"/>
      </defs>
      <g>
       <use xlink:href="#meb23fb85bc" x="53.328125" y="137.094908" style="stroke: #000000; stroke-width: 0.8"/>
      </g>
     </g>
     <g id="text_9">
      <text style="font-size: 10px; font-family: 'DejaVu Sans', 'Bitstream Vera Sans', 'Computer Modern Sans Serif', 'Lucida Grande', 'Verdana', 'Geneva', 'Lucid', 'Arial', 'Helvetica', 'Avant Garde', sans-serif; text-anchor: end" x="46.328125" y="140.894127" transform="rotate(-0 46.328125 140.894127)">0</text>
     </g>
    </g>
    <g id="ytick_2">
     <g id="line2d_15">
      <path d="M 53.328125 107.467612 
L 260.875159 107.467612 
" clip-path="url(#pa19da0af69)" style="fill: none; stroke: #b0b0b0; stroke-opacity: 0.3; stroke-width: 0.8; stroke-linecap: square"/>
     </g>
     <g id="line2d_16">
      <g>
       <use xlink:href="#meb23fb85bc" x="53.328125" y="107.467612" style="stroke: #000000; stroke-width: 0.8"/>
      </g>
     </g>
     <g id="text_10">
      <text style="font-size: 10px; font-family: 'DejaVu Sans', 'Bitstream Vera Sans', 'Computer Modern Sans Serif', 'Lucida Grande', 'Verdana', 'Geneva', 'Lucid', 'Arial', 'Helvetica', 'Avant Garde', sans-serif; text-anchor: end" x="46.328125" y="111.26683" transform="rotate(-0 46.328125 111.26683)">1000</text>
     </g>
    </g>
    <g id="ytick_3">
     <g id="line2d_17">
      <path d="M 53.328125 77.840315 
L 260.875159 77.840315 
" clip-path="url(#pa19da0af69)" style="fill: none; stroke: #b0b0b0; stroke-opacity: 0.3; stroke-width: 0.8; stroke-linecap: square"/>
     </g>
     <g id="line2d_18">
      <g>
       <use xlink:href="#meb23fb85bc" x="53.328125" y="77.840315" style="stroke: #000000; stroke-width: 0.8"/>
      </g>
     </g>
     <g id="text_11">
      <text style="font-size: 10px; font-family: 'DejaVu Sans', 'Bitstream Vera Sans', 'Computer Modern Sans Serif', 'Lucida Grande', 'Verdana', 'Geneva', 'Lucid', 'Arial', 'Helvetica', 'Avant Garde', sans-serif; text-anchor: end" x="46.328125" y="81.639534" transform="rotate(-0 46.328125 81.639534)">2000</text>
     </g>
    </g>
    <g id="ytick_4">
     <g id="line2d_19">
      <path d="M 53.328125 48.213019 
L 260.875159 48.213019 
" clip-path="url(#pa19da0af69)" style="fill: none; stroke: #b0b0b0; stroke-opacity: 0.3; stroke-width: 0.8; stroke-linecap: square"/>
     </g>
     <g id="line2d_20">
      <g>
       <use xlink:href="#meb23fb85bc" x="53.328125" y="48.213019" style="stroke: #000000; stroke-width: 0.8"/>
      </g>
     </g>
     <g id="text_12">
      <text style="font-size: 10px; font-family: 'DejaVu Sans', 'Bitstream Vera Sans', 'Computer Modern Sans Serif', 'Lucida Grande', 'Verdana', 'Geneva', 'Lucid', 'Arial', 'Helvetica', 'Avant Garde', sans-serif; text-anchor: end" x="46.328125" y="52.012238" transform="rotate(-0 46.328125 52.012238)">3000</text>
     </g>
    </g>
    <g id="text_13">
     <text style="font-size: 10px; font-family: 'DejaVu Sans', 'Bitstream Vera Sans', 'Computer Modern Sans Serif', 'Lucida Grande', 'Verdana', 'Geneva', 'Lucid', 'Arial', 'Helvetica', 'Avant Garde', sans-serif; text-anchor: middle" x="14.798438" y="82.218125" transform="rotate(-90 14.798438 82.218125)">episode return</text>
    </g>
   </g>
   <g id="line2d_21">
    <path d="M 62.762081 136.630732 
L 63.149513 136.397662 
L 63.536944 135.691638 
L 63.924375 134.644034 
L 64.311807 134.016732 
L 64.699238 133.040644 
L 65.08667 132.806161 
L 65.474101 131.646707 
L 66.636396 130.78757 
L 67.79869 130.35538 
L 68.960984 129.085122 
L 69.735847 128.456983 
L 71.285573 127.740529 
L 71.673005 127.428979 
L 72.060436 127.405108 
L 73.222731 126.306654 
L 73.610162 126.263985 
L 73.997593 125.789387 
L 74.385025 125.638142 
L 74.772456 125.349876 
L 75.159888 125.25505 
L 75.547319 124.647326 
L 76.322182 123.028477 
L 76.709614 122.490766 
L 77.097045 122.363824 
L 77.484477 121.716209 
L 77.871908 121.572009 
L 78.25934 121.016172 
L 78.646771 120.17504 
L 79.034202 120.082279 
L 79.421634 119.420151 
L 79.809065 119.28338 
L 80.196497 118.101424 
L 80.583928 116.396414 
L 80.97136 116.252716 
L 81.358791 115.069232 
L 81.746223 115.41073 
L 82.521086 113.084448 
L 82.908517 113.746424 
L 83.295949 113.044544 
L 83.68338 111.542406 
L 84.458243 112.338245 
L 84.845674 111.101785 
L 85.233106 111.904083 
L 86.007969 110.833829 
L 86.3954 109.726257 
L 87.170263 109.006605 
L 87.945126 106.593996 
L 88.332558 107.210957 
L 88.719989 106.333991 
L 89.10742 107.838198 
L 89.882283 106.923027 
L 90.269715 104.900262 
L 90.657146 105.792664 
L 91.044578 103.960237 
L 91.432009 105.244227 
L 91.819441 104.44849 
L 92.206872 100.055472 
L 92.594304 102.016877 
L 92.981735 98.512361 
L 93.369167 99.806021 
L 93.756598 93.865177 
L 94.14403 99.287849 
L 94.531461 97.704284 
L 94.918892 96.8542 
L 95.306324 100.552837 
L 95.693755 96.286426 
L 96.081187 97.941191 
L 96.468618 97.775611 
L 97.243481 85.390001 
L 97.630913 90.317084 
L 98.018344 83.803829 
L 98.405776 87.37438 
L 98.793207 83.210514 
L 99.180639 87.799924 
L 99.56807 90.071045 
L 99.955501 87.172452 
L 100.342933 87.202944 
L 100.730364 90.236839 
L 101.117796 87.769464 
L 101.505227 73.974393 
L 101.892659 82.004858 
L 102.28009 76.737575 
L 102.667522 79.25937 
L 103.054953 93.029628 
L 103.442385 87.20362 
L 103.829816 84.472657 
L 104.217248 90.614174 
L 104.604679 91.269243 
L 104.99211 80.298883 
L 105.379542 92.256283 
L 105.766973 88.803557 
L 106.154405 78.299551 
L 106.541836 87.332203 
L 106.929268 85.942905 
L 107.316699 89.643643 
L 107.704131 87.378733 
L 108.091562 93.015586 
L 108.478994 82.140989 
L 108.866425 91.197627 
L 109.253857 87.376395 
L 109.641288 85.11625 
L 110.028719 88.54785 
L 110.416151 79.747658 
L 110.803582 87.945334 
L 111.191014 85.908872 
L 111.578445 74.249398 
L 111.965877 86.871999 
L 112.353308 86.77857 
L 112.74074 89.496476 
L 113.128171 83.408174 
L 113.515603 70.265926 
L 113.903034 82.946186 
L 114.290466 87.341771 
L 114.677897 82.452002 
L 115.065328 79.887719 
L 115.45276 84.502598 
L 115.840191 78.691825 
L 116.227623 79.705261 
L 116.615054 86.387605 
L 117.002486 80.688048 
L 117.389917 79.407915 
L 117.777349 79.845661 
L 118.16478 85.411949 
L 118.552212 79.1768 
L 118.939643 80.53605 
L 119.327075 77.748021 
L 119.714506 65.921592 
L 120.101937 75.279567 
L 120.489369 77.887188 
L 120.8768 77.252733 
L 121.264232 79.303285 
L 121.651663 81.96478 
L 122.039095 62.481254 
L 122.426526 67.108136 
L 122.813958 76.598991 
L 123.201389 65.581356 
L 123.588821 73.783887 
L 123.976252 79.255544 
L 124.363684 79.482492 
L 124.751115 79.269334 
L 125.138546 84.914845 
L 125.525978 83.527871 
L 125.913409 72.962015 
L 126.300841 79.260963 
L 126.688272 71.434271 
L 127.075704 76.819926 
L 127.463135 76.18872 
L 127.850567 79.151982 
L 128.237998 71.749354 
L 128.62543 70.023874 
L 129.012861 70.140673 
L 129.400293 72.176387 
L 129.787724 89.270857 
L 130.175155 69.529352 
L 130.562587 71.694195 
L 130.950018 61.863297 
L 131.33745 69.868109 
L 131.724881 63.99365 
L 132.112313 73.8996 
L 132.499744 74.932252 
L 132.887176 67.271697 
L 133.274607 64.596328 
L 133.662039 69.53191 
L 134.04947 55.199208 
L 134.436902 55.684935 
L 134.824333 75.141058 
L 135.211764 62.663607 
L 135.599196 70.284602 
L 135.986627 69.78521 
L 136.374059 62.035375 
L 136.76149 69.987698 
L 137.148922 63.577326 
L 137.536353 64.426732 
L 137.923785 66.355492 
L 138.311216 70.423043 
L 138.698648 81.451794 
L 139.086079 62.040138 
L 139.473511 66.936796 
L 139.860942 62.52511 
L 140.248373 71.195758 
L 140.635805 58.70866 
L 141.023236 72.647939 
L 141.798099 56.349307 
L 142.185531 68.3003 
L 143.347825 48.67107 
L 143.735257 70.738502 
L 144.122688 62.80313 
L 144.51012 50.924933 
L 144.897551 53.468673 
L 145.284982 65.674694 
L 145.672414 65.929375 
L 146.059845 61.158229 
L 146.447277 66.465382 
L 146.834708 47.59386 
L 147.22214 50.843819 
L 147.609571 44.84645 
L 147.997003 60.849704 
L 148.384434 69.031447 
L 148.771866 67.740411 
L 149.159297 62.184314 
L 149.546729 59.931603 
L 150.321591 64.932432 
L 150.709023 53.54831 
L 151.096454 63.143903 
L 151.483886 66.236682 
L 151.871317 62.805594 
L 152.258749 66.076943 
L 152.64618 55.264435 
L 153.033612 54.811583 
L 153.421043 55.34275 
L 153.808475 51.792488 
L 154.195906 51.515565 
L 154.583338 55.07992 
L 154.970769 68.569845 
L 155.3582 54.900108 
L 155.745632 66.249222 
L 156.133063 68.757977 
L 156.520495 60.377348 
L 156.907926 76.027178 
L 157.295358 63.080681 
L 157.682789 62.487824 
L 158.070221 65.067069 
L 158.457652 66.791062 
L 158.845084 64.9761 
L 159.232515 63.764022 
L 159.619947 72.928853 
L 160.007378 69.632888 
L 160.394809 57.342363 
L 160.782241 66.227855 
L 161.557104 59.816636 
L 161.944535 64.591966 
L 162.331967 59.203439 
L 162.719398 70.397245 
L 163.10683 70.920134 
L 163.494261 74.024453 
L 164.269124 62.12179 
L 164.656556 60.636679 
L 165.043987 77.621802 
L 165.431418 66.010305 
L 165.81885 62.161636 
L 166.206281 65.93818 
L 166.593713 48.308369 
L 166.981144 63.705197 
L 167.368576 61.303173 
L 167.756007 60.379235 
L 168.143439 64.689702 
L 168.53087 56.869518 
L 168.918302 59.392666 
L 169.305733 66.513209 
L 169.693165 66.406554 
L 170.080596 68.231316 
L 170.468027 66.779839 
L 170.855459 62.187141 
L 171.24289 64.123988 
L 171.630322 68.606202 
L 172.017753 42.822035 
L 172.405185 65.473609 
L 172.792616 61.99744 
L 173.180048 75.53493 
L 173.567479 66.704221 
L 173.954911 60.75186 
L 174.342342 59.103827 
L 174.729774 67.560763 
L 175.117205 59.378012 
L 175.504636 62.35255 
L 175.892068 75.949458 
L 176.279499 59.397568 
L 176.666931 60.752621 
L 177.054362 56.880001 
L 177.441794 54.386623 
L 177.829225 63.123987 
L 178.216657 51.589652 
L 178.604088 69.544304 
L 178.99152 68.468798 
L 179.378951 55.710374 
L 179.766383 56.622408 
L 180.153814 56.234855 
L 180.928677 65.705337 
L 181.316108 59.463068 
L 181.70354 66.52055 
L 182.090971 64.788381 
L 182.865834 45.257966 
L 183.253266 70.2745 
L 183.640697 58.779156 
L 184.028129 72.007581 
L 184.41556 59.604678 
L 184.802992 71.605161 
L 185.190423 55.133217 
L 185.577854 74.953342 
L 185.965286 72.535938 
L 186.352717 66.221033 
L 186.740149 69.708824 
L 187.12758 62.676536 
L 187.515012 65.732749 
L 187.902443 60.667411 
L 188.289875 49.641135 
L 188.677306 65.102925 
L 189.064738 54.141127 
L 189.452169 69.13865 
L 189.839601 64.980842 
L 190.227032 63.428342 
L 190.614463 56.685158 
L 191.001895 70.670222 
L 191.389326 62.599512 
L 191.776758 75.096285 
L 192.164189 71.862415 
L 192.551621 55.840427 
L 192.939052 76.253839 
L 193.326484 69.611676 
L 193.713915 65.576809 
L 194.101347 46.592183 
L 194.488778 65.00297 
L 194.87621 66.243921 
L 195.263641 58.010903 
L 195.651072 55.277476 
L 196.038504 53.878108 
L 196.425935 59.269699 
L 196.813367 62.28683 
L 197.58823 57.016613 
L 197.975661 70.747158 
L 198.363093 58.995295 
L 198.750524 65.558312 
L 199.137956 58.862174 
L 199.525387 54.234078 
L 199.912819 67.587055 
L 200.30025 65.27319 
L 200.687681 54.106091 
L 201.075113 68.442562 
L 201.462544 66.818445 
L 201.849976 57.318662 
L 202.237407 66.529362 
L 202.624839 53.06093 
L 203.01227 73.956873 
L 203.399702 61.44546 
L 203.787133 63.870961 
L 204.174565 58.337783 
L 204.561996 70.290034 
L 204.949428 55.438663 
L 205.336859 60.957081 
L 205.72429 60.416964 
L 206.111722 67.091109 
L 206.499153 59.355122 
L 206.886585 53.950078 
L 207.661448 63.196591 
L 208.048879 60.613994 
L 208.436311 55.77624 
L 208.823742 56.496375 
L 209.211174 66.40732 
L 209.598605 50.975003 
L 209.986037 49.992716 
L 210.373468 57.679638 
L 210.7609 58.360798 
L 211.148331 55.3036 
L 211.535762 69.157471 
L 211.923194 57.038882 
L 212.310625 62.476035 
L 212.698057 59.457029 
L 213.085488 58.482746 
L 213.47292 59.307757 
L 213.860351 72.429751 
L 214.247783 54.050542 
L 214.635214 65.850595 
L 215.022646 57.419676 
L 215.410077 61.669008 
L 215.797509 55.667243 
L 216.18494 62.954818 
L 216.572371 55.596289 
L 216.959803 68.362653 
L 217.347234 61.32153 
L 217.734666 57.944632 
L 218.122097 48.288916 
L 218.509529 60.803212 
L 218.89696 54.857752 
L 219.671823 68.510237 
L 220.059255 61.011324 
L 220.446686 56.611069 
L 220.834118 61.860656 
L 221.221549 72.936662 
L 221.60898 54.508985 
L 221.996412 47.196532 
L 222.383843 65.680641 
L 222.771275 62.771093 
L 223.158706 62.191907 
L 223.546138 64.878436 
L 223.933569 71.158432 
L 224.321001 55.97141 
L 224.708432 55.646855 
L 225.095864 66.639951 
L 225.483295 63.334668 
L 225.870727 62.103973 
L 226.258158 71.933777 
L 227.033021 64.678473 
L 227.807884 76.988578 
L 228.195315 70.516907 
L 228.582747 73.959904 
L 228.970178 64.598761 
L 229.35761 69.152158 
L 229.745041 49.766114 
L 230.132473 47.998491 
L 230.519904 57.110731 
L 230.907336 50.800905 
L 231.294767 54.105177 
L 231.682198 62.079391 
L 232.06963 65.39543 
L 232.457061 52.713837 
L 232.844493 66.901949 
L 233.231924 56.448182 
L 233.619356 56.891861 
L 234.006787 54.153802 
L 234.394219 59.226375 
L 234.78165 59.408656 
L 235.169082 62.868575 
L 235.556513 64.821613 
L 235.943945 58.152697 
L 236.331376 59.102379 
L 236.718807 74.089215 
L 237.106239 49.936526 
L 237.49367 53.061411 
L 237.881102 46.522037 
L 238.268533 59.084329 
L 238.655965 60.594788 
L 239.043396 59.767953 
L 239.430828 64.460033 
L 239.818259 63.628635 
L 240.205691 73.399238 
L 240.593122 66.528033 
L 240.980554 62.364464 
L 241.367985 62.4175 
L 241.755416 67.34108 
L 242.142848 66.260767 
L 242.530279 67.761895 
L 242.917711 63.403301 
L 243.305142 66.564068 
L 243.692574 52.65598 
L 244.080005 70.285257 
L 244.467437 64.499639 
L 244.854868 61.398209 
L 245.2423 62.76274 
L 245.629731 59.363168 
L 246.017163 66.852067 
L 246.404594 56.709981 
L 246.792025 51.700937 
L 247.179457 60.759047 
L 247.566888 57.995916 
L 247.95432 60.260031 
L 248.341751 66.858232 
L 248.729183 63.482224 
L 249.116614 47.596037 
L 249.504046 58.772416 
L 249.891477 45.688685 
L 250.278909 59.568334 
L 250.66634 55.530427 
L 251.053772 41.725122 
L 251.441203 55.948514 
L 251.441203 55.948514 
" clip-path="url(#pa19da0af69)" style="fill: none; stroke: #1f77b4; stroke-width: 1.5; stroke-linecap: square"/>
   </g>
   <g id="patch_3">
    <path d="M 53.328125 142.118125 
L 53.328125 22.318125 
" style="fill: none; stroke: #000000; stroke-width: 0.8; stroke-linejoin: miter; stroke-linecap: square"/>
   </g>
   <g id="patch_4">
    <path d="M 260.875159 142.118125 
L 260.875159 22.318125 
" style="fill: none; stroke: #000000; stroke-width: 0.8; stroke-linejoin: miter; stroke-linecap: square"/>
   </g>
   <g id="patch_5">
    <path d="M 53.328125 142.118125 
L 260.875159 142.118125 
" style="fill: none; stroke: #000000; stroke-width: 0.8; stroke-linejoin: miter; stroke-linecap: square"/>
   </g>
   <g id="patch_6">
    <path d="M 53.328125 22.318125 
L 260.875159 22.318125 
" style="fill: none; stroke: #000000; stroke-width: 0.8; stroke-linejoin: miter; stroke-linecap: square"/>
   </g>
   <g id="text_14">
    <text style="font-size: 12px; font-family: 'DejaVu Sans', 'Bitstream Vera Sans', 'Computer Modern Sans Serif', 'Lucida Grande', 'Verdana', 'Geneva', 'Lucid', 'Arial', 'Helvetica', 'Avant Garde', sans-serif; text-anchor: middle" x="157.101642" y="16.318125" transform="rotate(-0 157.101642 16.318125)">PPO-Clip</text>
   </g>
  </g>
  <g id="axes_2">
   <g id="patch_7">
    <path d="M 278.358125 142.118125 
L 485.905159 142.118125 
L 485.905159 22.318125 
L 278.358125 22.318125 
z
" style="fill: #ffffff"/>
   </g>
   <g id="FillBetweenPolyCollection_2">
    <defs>
     <path id="m38ace72f8b" d="M 287.792081 -43.085581 
L 287.792081 -43.001705 
L 288.179513 -43.198805 
L 288.566944 -43.809337 
L 288.954375 -44.446408 
L 289.341807 -45.469866 
L 289.729238 -46.548337 
L 290.11667 -46.434033 
L 290.504101 -47.722061 
L 290.891533 -47.992605 
L 291.278964 -48.303684 
L 291.666396 -48.668935 
L 292.053827 -48.792171 
L 292.441259 -48.778893 
L 292.82869 -48.513593 
L 293.216122 -48.914329 
L 293.603553 -49.052989 
L 293.990984 -49.355971 
L 294.378416 -49.463464 
L 294.765847 -49.638349 
L 295.153279 -49.762088 
L 295.54071 -49.908518 
L 295.928142 -50.004565 
L 296.315573 -50.287892 
L 296.703005 -50.478713 
L 297.090436 -50.662872 
L 297.477868 -50.981199 
L 297.865299 -51.298161 
L 298.252731 -51.742487 
L 298.640162 -51.866001 
L 299.027593 -52.629725 
L 299.415025 -52.887498 
L 299.802456 -53.21573 
L 300.189888 -53.278243 
L 300.577319 -53.135271 
L 300.964751 -53.198444 
L 301.352182 -53.529842 
L 301.739614 -53.510368 
L 302.127045 -53.662491 
L 302.514477 -53.615651 
L 302.901908 -53.810331 
L 303.28934 -53.860193 
L 303.676771 -53.76164 
L 304.064202 -54.180755 
L 304.451634 -54.154968 
L 304.839065 -54.225615 
L 305.226497 -55.193841 
L 305.613928 -55.956499 
L 306.00136 -55.838536 
L 306.388791 -55.419999 
L 306.776223 -57.191614 
L 307.163654 -57.416075 
L 307.551086 -57.589723 
L 307.938517 -58.597756 
L 308.325949 -58.145102 
L 308.71338 -59.123153 
L 309.100811 -58.830066 
L 309.488243 -59.178637 
L 309.875674 -60.022204 
L 310.263106 -60.601152 
L 310.650537 -61.178901 
L 311.037969 -62.460004 
L 311.4254 -62.90601 
L 311.812832 -63.552897 
L 312.200263 -64.406241 
L 312.587695 -63.953521 
L 312.975126 -64.679564 
L 313.362558 -64.241286 
L 313.749989 -66.734599 
L 314.13742 -66.157111 
L 314.524852 -67.603087 
L 314.912283 -67.226802 
L 315.299715 -67.785942 
L 315.687146 -65.787221 
L 316.074578 -67.998434 
L 316.462009 -67.768066 
L 316.849441 -68.079374 
L 317.236872 -69.230817 
L 317.624304 -68.28658 
L 318.011735 -65.059059 
L 318.399167 -67.882305 
L 318.786598 -62.862899 
L 319.17403 -72.121832 
L 319.561461 -71.151146 
L 319.948892 -70.763916 
L 320.336324 -69.460955 
L 320.723755 -70.551685 
L 321.111187 -70.546105 
L 321.498618 -70.938249 
L 321.88605 -71.758749 
L 322.273481 -74.452162 
L 322.660913 -74.727904 
L 323.048344 -77.671913 
L 323.435776 -74.99923 
L 323.823207 -77.650535 
L 324.210639 -78.332643 
L 324.59807 -76.221844 
L 324.985501 -78.148435 
L 325.372933 -71.842089 
L 325.760364 -74.06015 
L 326.147796 -69.699289 
L 326.535227 -80.788538 
L 326.922659 -76.178292 
L 327.31009 -73.97653 
L 327.697522 -78.794529 
L 328.084953 -76.674739 
L 328.472385 -78.995036 
L 328.859816 -83.371183 
L 329.247248 -80.065858 
L 329.634679 -79.558161 
L 330.02211 -83.675856 
L 330.409542 -74.180498 
L 330.796973 -75.640061 
L 331.184405 -84.023752 
L 331.571836 -75.892035 
L 331.959268 -78.962088 
L 332.346699 -80.93388 
L 332.734131 -74.869147 
L 333.121562 -75.910431 
L 333.508994 -81.37967 
L 333.896425 -72.372966 
L 334.283857 -64.045112 
L 334.671288 -74.053022 
L 335.058719 -77.236494 
L 335.446151 -80.940651 
L 335.833582 -80.191295 
L 336.221014 -77.431346 
L 336.608445 -81.715674 
L 336.995877 -81.847456 
L 337.383308 -82.658301 
L 337.77074 -81.966239 
L 338.158171 -81.560545 
L 338.545603 -84.705437 
L 338.933034 -84.110111 
L 339.320466 -78.749009 
L 339.707897 -83.169271 
L 340.095328 -83.646918 
L 340.48276 -84.360504 
L 340.870191 -89.493966 
L 341.257623 -78.355814 
L 341.645054 -83.435992 
L 342.032486 -87.5257 
L 342.419917 -87.58102 
L 342.807349 -81.773938 
L 343.19478 -81.297583 
L 343.582212 -87.786929 
L 343.969643 -87.71241 
L 344.357075 -88.217185 
L 344.744506 -92.012493 
L 345.131937 -88.564121 
L 345.519369 -87.253547 
L 345.9068 -85.689681 
L 346.294232 -86.816745 
L 346.681663 -83.700075 
L 347.069095 -94.38421 
L 347.456526 -92.858672 
L 347.843958 -91.732085 
L 348.231389 -93.512437 
L 348.618821 -84.903005 
L 349.006252 -81.033058 
L 349.393684 -80.602162 
L 349.781115 -83.789469 
L 350.168546 -89.960498 
L 350.555978 -85.835376 
L 350.943409 -84.242488 
L 351.330841 -90.725063 
L 351.718272 -93.844964 
L 352.105704 -92.079651 
L 352.493135 -87.754208 
L 352.880567 -81.573575 
L 353.267998 -92.142448 
L 353.65543 -86.929171 
L 354.042861 -90.360531 
L 354.430293 -86.254295 
L 354.817724 -73.41657 
L 355.205155 -86.872244 
L 355.592587 -87.464372 
L 355.980018 -96.225005 
L 356.36745 -86.987415 
L 356.754881 -100.043453 
L 357.142313 -85.779508 
L 357.529744 -88.551817 
L 357.917176 -103.89598 
L 358.304607 -99.08912 
L 358.692039 -93.240847 
L 359.07947 -111.878155 
L 359.466902 -108.374174 
L 359.854333 -93.805564 
L 360.241764 -102.601876 
L 360.629196 -99.671822 
L 361.016627 -86.275706 
L 361.404059 -97.876382 
L 361.79149 -97.717425 
L 362.178922 -103.090149 
L 362.566353 -89.646253 
L 362.953785 -95.795704 
L 363.341216 -92.413713 
L 363.728648 -86.134286 
L 364.116079 -101.322491 
L 364.503511 -92.803443 
L 364.890942 -103.914558 
L 365.278373 -85.176729 
L 365.665805 -96.731974 
L 366.053236 -94.292765 
L 366.440668 -98.73342 
L 366.828099 -112.85668 
L 367.215531 -103.430798 
L 367.602962 -104.168161 
L 367.990394 -112.895728 
L 368.377825 -118.278796 
L 368.765257 -96.850692 
L 369.152688 -98.445496 
L 369.54012 -114.094471 
L 369.927551 -113.19527 
L 370.314982 -99.977954 
L 370.702414 -100.466628 
L 371.089845 -101.029943 
L 371.477277 -99.114988 
L 371.864708 -115.826178 
L 372.25214 -118.30954 
L 372.639571 -123.277588 
L 373.027003 -104.371391 
L 373.414434 -95.048762 
L 373.801866 -98.137474 
L 374.189297 -96.23475 
L 374.576729 -105.827951 
L 374.96416 -102.081661 
L 375.351591 -100.165684 
L 375.739023 -114.323038 
L 376.126454 -99.057678 
L 376.513886 -104.476057 
L 376.901317 -98.29814 
L 377.288749 -98.661978 
L 377.67618 -111.791727 
L 378.063612 -109.193565 
L 378.451043 -111.573859 
L 378.838475 -116.503217 
L 379.225906 -115.560132 
L 379.613338 -104.649976 
L 380.000769 -96.802671 
L 380.3882 -107.49688 
L 380.775632 -100.981201 
L 381.163063 -103.347325 
L 381.550495 -106.54413 
L 381.937926 -96.031729 
L 382.325358 -101.889149 
L 382.712789 -92.356206 
L 383.100221 -97.62596 
L 383.487652 -101.91189 
L 383.875084 -99.513004 
L 384.262515 -107.804519 
L 384.649947 -88.389482 
L 385.037378 -91.02219 
L 385.424809 -114.006153 
L 385.812241 -103.276103 
L 386.199672 -112.460685 
L 386.587104 -100.686796 
L 386.974535 -99.945918 
L 387.361967 -104.1789 
L 387.749398 -91.182828 
L 388.13683 -91.781098 
L 388.524261 -97.59365 
L 388.911693 -99.595621 
L 389.299124 -104.894445 
L 389.686556 -97.37709 
L 390.073987 -86.269491 
L 390.461418 -89.930448 
L 390.84885 -103.600978 
L 391.236281 -98.590658 
L 391.623713 -119.343867 
L 392.011144 -102.609894 
L 392.398576 -104.342395 
L 392.786007 -101.035932 
L 393.173439 -109.382348 
L 393.56087 -112.292775 
L 393.948302 -103.239458 
L 394.335733 -96.735559 
L 394.723165 -102.897509 
L 395.110596 -94.458845 
L 395.498027 -97.349278 
L 395.885459 -103.34302 
L 396.27289 -105.814131 
L 396.660322 -86.679195 
L 397.047753 -123.139904 
L 397.435185 -100.803103 
L 397.822616 -96.481296 
L 398.210048 -99.504481 
L 398.597479 -97.166215 
L 398.984911 -103.001609 
L 399.372342 -109.741133 
L 399.759774 -94.430244 
L 400.147205 -112.362424 
L 400.534636 -106.430847 
L 400.922068 -91.057517 
L 401.309499 -104.011423 
L 401.696931 -107.965232 
L 402.084362 -106.283652 
L 402.471794 -113.208826 
L 402.859225 -103.186288 
L 403.246657 -113.939383 
L 403.634088 -93.284761 
L 404.02152 -91.979048 
L 404.408951 -118.456858 
L 404.796383 -109.312753 
L 405.183814 -108.125965 
L 405.571245 -107.339195 
L 405.958677 -103.774311 
L 406.346108 -114.634266 
L 406.73354 -106.040263 
L 407.120971 -98.700679 
L 407.508403 -112.194247 
L 407.895834 -122.780604 
L 408.283266 -100.256917 
L 408.670697 -108.153816 
L 409.058129 -98.220894 
L 409.44556 -108.679532 
L 409.832992 -98.936727 
L 410.220423 -112.841883 
L 410.607854 -95.879293 
L 410.995286 -96.170505 
L 411.382717 -98.777999 
L 411.770149 -92.581103 
L 412.15758 -98.208087 
L 412.545012 -96.683588 
L 412.932443 -109.824643 
L 413.319875 -111.106877 
L 413.707306 -95.928555 
L 414.094738 -103.269763 
L 414.482169 -92.026633 
L 414.869601 -106.245535 
L 415.257032 -101.71736 
L 415.644463 -106.91759 
L 416.031895 -87.633485 
L 416.419326 -94.720585 
L 416.806758 -96.704696 
L 417.194189 -91.348044 
L 417.581621 -109.49706 
L 417.969052 -97.733899 
L 418.356484 -94.106675 
L 418.743915 -91.341155 
L 419.131347 -121.286261 
L 419.518778 -99.187439 
L 419.90621 -107.570323 
L 420.293641 -107.359217 
L 420.681072 -111.83204 
L 421.068504 -110.056002 
L 421.455935 -109.349851 
L 421.843367 -100.351898 
L 422.230798 -100.380936 
L 422.61823 -104.265145 
L 423.005661 -91.519166 
L 423.393093 -103.934277 
L 423.780524 -99.781973 
L 424.167956 -104.413739 
L 424.555387 -108.728166 
L 424.942819 -100.313357 
L 425.33025 -100.602104 
L 425.717681 -114.772149 
L 426.105113 -108.529375 
L 426.492544 -104.785823 
L 426.879976 -103.321663 
L 427.267407 -99.557574 
L 427.654839 -112.746728 
L 428.04227 -93.180805 
L 428.429702 -99.349808 
L 428.817133 -99.295334 
L 429.204565 -102.546912 
L 429.591996 -98.099899 
L 429.979428 -111.418853 
L 430.366859 -109.258404 
L 430.75429 -115.235781 
L 431.141722 -91.555687 
L 431.529153 -107.885145 
L 431.916585 -111.812748 
L 432.304016 -109.491688 
L 432.691448 -104.379805 
L 433.078879 -103.536295 
L 433.466311 -108.5621 
L 433.853742 -112.392943 
L 434.241174 -103.048626 
L 434.628605 -113.232616 
L 435.016037 -119.854356 
L 435.403468 -110.954294 
L 435.7909 -104.519237 
L 436.178331 -110.786975 
L 436.565762 -97.907918 
L 436.953194 -103.532597 
L 437.340625 -100.78604 
L 437.728057 -105.291554 
L 438.115488 -107.900462 
L 438.50292 -103.470105 
L 438.890351 -96.397598 
L 439.277783 -119.217111 
L 439.665214 -98.214018 
L 440.052646 -111.59748 
L 440.440077 -100.216846 
L 440.827509 -111.01661 
L 441.21494 -108.63688 
L 441.602371 -112.952173 
L 441.989803 -101.787363 
L 442.377234 -99.915377 
L 442.764666 -110.60315 
L 443.152097 -118.253802 
L 443.539529 -105.075877 
L 443.92696 -114.422513 
L 444.314392 -99.054983 
L 444.701823 -91.211538 
L 445.089255 -104.757079 
L 445.476686 -112.022164 
L 445.864118 -100.332845 
L 446.251549 -92.838131 
L 446.63898 -106.449689 
L 447.026412 -121.181271 
L 447.413843 -97.673748 
L 447.801275 -102.404996 
L 448.188706 -114.12015 
L 448.576138 -96.250953 
L 448.963569 -97.52678 
L 449.351001 -108.331309 
L 449.738432 -102.460397 
L 450.125864 -98.28334 
L 450.513295 -96.489397 
L 450.900727 -104.406529 
L 451.288158 -91.862057 
L 451.675589 -95.396294 
L 452.063021 -103.027528 
L 452.450452 -98.245301 
L 452.837884 -96.495355 
L 453.225315 -92.412121 
L 453.612747 -97.850249 
L 454.000178 -96.69275 
L 454.38761 -96.322955 
L 454.775041 -116.901738 
L 455.162473 -116.797334 
L 455.549904 -106.777171 
L 455.937336 -112.523628 
L 456.324767 -108.116617 
L 456.712198 -98.701299 
L 457.09963 -96.441494 
L 457.487061 -113.151234 
L 457.874493 -95.502554 
L 458.261924 -110.918413 
L 458.649356 -109.237145 
L 459.036787 -113.086616 
L 459.424219 -102.081795 
L 459.81165 -102.456159 
L 460.199082 -100.64258 
L 460.586513 -94.40628 
L 460.973945 -105.198226 
L 461.361376 -100.44008 
L 461.748807 -97.920443 
L 462.136239 -119.846256 
L 462.52367 -105.071346 
L 462.911102 -124.012422 
L 463.298533 -103.973922 
L 463.685965 -102.678607 
L 464.073396 -103.851276 
L 464.460828 -109.23212 
L 464.848259 -99.922005 
L 465.235691 -84.183512 
L 465.623122 -95.079005 
L 466.010554 -103.842595 
L 466.397985 -100.118352 
L 466.785416 -87.574929 
L 467.172848 -100.617953 
L 467.560279 -103.38381 
L 467.947711 -106.008215 
L 468.335142 -99.440958 
L 468.722574 -118.910854 
L 469.110005 -94.534048 
L 469.497437 -108.834709 
L 469.884868 -104.458099 
L 470.2723 -103.10529 
L 470.659731 -108.605011 
L 471.047163 -97.075967 
L 471.434594 -110.646345 
L 471.822025 -120.600592 
L 472.209457 -105.081105 
L 472.596888 -109.08782 
L 472.98432 -100.416494 
L 473.371751 -97.615805 
L 473.759183 -103.718726 
L 474.146614 -119.29862 
L 474.534046 -109.581061 
L 474.921477 -125.596255 
L 475.308909 -117.097248 
L 475.69634 -116.23577 
L 476.083772 -123.987711 
L 476.471203 -114.139492 
L 476.471203 -133.312229 
L 476.471203 -133.312229 
L 476.083772 -151.910795 
L 475.69634 -132.052127 
L 475.308909 -123.114834 
L 474.921477 -142.375124 
L 474.534046 -132.222857 
L 474.146614 -144.858056 
L 473.759183 -128.665576 
L 473.371751 -128.016481 
L 472.98432 -138.412193 
L 472.596888 -134.269098 
L 472.209457 -132.749551 
L 471.822025 -135.346285 
L 471.434594 -135.282442 
L 471.047163 -128.568648 
L 470.659731 -132.017403 
L 470.2723 -130.717981 
L 469.884868 -132.094233 
L 469.497437 -121.514763 
L 469.110005 -124.244189 
L 468.722574 -135.125936 
L 468.335142 -126.779657 
L 467.947711 -126.533933 
L 467.560279 -120.441149 
L 467.172848 -126.209264 
L 466.785416 -137.091661 
L 466.397985 -134.395399 
L 466.010554 -130.777226 
L 465.623122 -131.213678 
L 465.235691 -128.366761 
L 464.848259 -132.169476 
L 464.460828 -121.196565 
L 464.073396 -135.961568 
L 463.685965 -135.480567 
L 463.298533 -137.206171 
L 462.911102 -142.292255 
L 462.52367 -148.154581 
L 462.136239 -139.629441 
L 461.748807 -113.249876 
L 461.361376 -140.703911 
L 460.973945 -137.84513 
L 460.586513 -135.299244 
L 460.199082 -132.96902 
L 459.81165 -138.075279 
L 459.424219 -138.814205 
L 459.036787 -137.95453 
L 458.649356 -136.327884 
L 458.261924 -135.533973 
L 457.874493 -130.042298 
L 457.487061 -140.769841 
L 457.09963 -132.116395 
L 456.712198 -136.488668 
L 456.324767 -143.021779 
L 455.937336 -145.223313 
L 455.549904 -138.350117 
L 455.162473 -146.554433 
L 454.775041 -142.914785 
L 454.38761 -124.721479 
L 454.000178 -133.458477 
L 453.612747 -113.578692 
L 453.225315 -125.902815 
L 452.837884 -108.876238 
L 452.450452 -119.406569 
L 452.063021 -126.964276 
L 451.675589 -126.853415 
L 451.288158 -123.619138 
L 450.900727 -130.734275 
L 450.513295 -136.190017 
L 450.125864 -127.785507 
L 449.738432 -145.594642 
L 449.351001 -139.074621 
L 448.963569 -119.505106 
L 448.576138 -133.340925 
L 448.188706 -120.844786 
L 447.801275 -131.401568 
L 447.413843 -130.31372 
L 447.026412 -143.774414 
L 446.63898 -143.881091 
L 446.251549 -120.637294 
L 445.864118 -135.294592 
L 445.476686 -134.104448 
L 445.089255 -132.569022 
L 444.701823 -131.116739 
L 444.314392 -135.627389 
L 443.92696 -135.210734 
L 443.539529 -132.666449 
L 443.152097 -144.517115 
L 442.764666 -132.856335 
L 442.377234 -136.790313 
L 441.989803 -120.836081 
L 441.602371 -135.204 
L 441.21494 -124.802234 
L 440.827509 -136.997654 
L 440.440077 -135.793889 
L 440.052646 -132.911918 
L 439.665214 -129.433542 
L 439.277783 -132.030555 
L 438.890351 -118.091651 
L 438.50292 -137.26313 
L 438.115488 -134.482796 
L 437.728057 -135.143139 
L 437.340625 -133.61064 
L 436.953194 -141.738389 
L 436.565762 -123.125889 
L 436.178331 -137.954575 
L 435.7909 -138.107917 
L 435.403468 -133.035179 
L 435.016037 -139.508962 
L 434.628605 -144.166128 
L 434.241174 -123.485485 
L 433.853742 -133.963057 
L 433.466311 -139.234169 
L 433.078879 -134.584468 
L 432.691448 -128.575762 
L 432.304016 -133.127783 
L 431.916585 -139.635845 
L 431.529153 -132.753361 
L 431.141722 -133.610846 
L 430.75429 -123.27904 
L 430.366859 -128.176184 
L 429.979428 -137.052571 
L 429.591996 -120.668782 
L 429.204565 -140.126271 
L 428.817133 -132.311493 
L 428.429702 -137.108021 
L 428.04227 -118.254198 
L 427.654839 -140.480161 
L 427.267407 -126.732453 
L 426.879976 -141.389762 
L 426.492544 -120.926037 
L 426.105113 -113.934252 
L 425.717681 -136.36442 
L 425.33025 -128.200266 
L 424.942819 -123.861283 
L 424.555387 -142.152429 
L 424.167956 -137.210664 
L 423.780524 -128.450152 
L 423.393093 -137.423882 
L 423.005661 -126.335268 
L 422.61823 -141.05038 
L 422.230798 -139.006333 
L 421.843367 -134.423193 
L 421.455935 -131.459501 
L 421.068504 -141.536532 
L 420.681072 -136.961758 
L 420.293641 -135.967726 
L 419.90621 -119.290585 
L 419.518778 -130.155372 
L 419.131347 -144.878124 
L 418.743915 -136.853977 
L 418.356484 -126.018724 
L 417.969052 -109.107172 
L 417.581621 -138.170837 
L 417.194189 -124.275876 
L 416.806758 -112.451484 
L 416.419326 -139.42914 
L 416.031895 -130.374821 
L 415.644463 -139.060843 
L 415.257032 -130.774706 
L 414.869601 -123.14153 
L 414.482169 -129.044816 
L 414.094738 -147.796732 
L 413.707306 -133.214346 
L 413.319875 -148.959604 
L 412.932443 -128.189285 
L 412.545012 -131.199664 
L 412.15758 -135.78759 
L 411.770149 -127.35 
L 411.382717 -128.128685 
L 410.995286 -118.106368 
L 410.607854 -113.562774 
L 410.220423 -136.240434 
L 409.832992 -117.201702 
L 409.44556 -131.459862 
L 409.058129 -117.112694 
L 408.670697 -133.636622 
L 408.283266 -118.542834 
L 407.895834 -146.052215 
L 407.508403 -135.748178 
L 407.120971 -131.07131 
L 406.73354 -120.267387 
L 406.346108 -125.788347 
L 405.958677 -124.163765 
L 405.571245 -128.745685 
L 405.183814 -138.753074 
L 404.796383 -136.791181 
L 404.408951 -129.471143 
L 404.02152 -130.432106 
L 403.634088 -126.97538 
L 403.246657 -142.230062 
L 402.859225 -129.914489 
L 402.471794 -137.366678 
L 402.084362 -139.305097 
L 401.696931 -129.878275 
L 401.309499 -136.542191 
L 400.922068 -116.392317 
L 400.534636 -128.212803 
L 400.147205 -128.230303 
L 399.759774 -129.796979 
L 399.372342 -131.399963 
L 398.984911 -134.843422 
L 398.597479 -128.774093 
L 398.210048 -108.77441 
L 397.822616 -138.872574 
L 397.435185 -127.598428 
L 397.047753 -150.564775 
L 396.660322 -135.457151 
L 396.27289 -125.286643 
L 395.885459 -131.631449 
L 395.498027 -128.439793 
L 395.110596 -128.427273 
L 394.723165 -123.638133 
L 394.335733 -129.586773 
L 393.948302 -137.323959 
L 393.56087 -133.31694 
L 393.173439 -120.586997 
L 392.786007 -137.554348 
L 392.398576 -132.400008 
L 392.011144 -129.328462 
L 391.623713 -143.388145 
L 391.236281 -128.881732 
L 390.84885 -131.424499 
L 390.461418 -137.397691 
L 390.073987 -117.835655 
L 389.686556 -140.698302 
L 389.299124 -130.210725 
L 388.911693 -123.414991 
L 388.524261 -113.706194 
L 388.13683 -125.727384 
L 387.749398 -127.371431 
L 387.361967 -136.762972 
L 386.974535 -130.218901 
L 386.587104 -139.028682 
L 386.199672 -121.464043 
L 385.812241 -123.616936 
L 385.424809 -130.65787 
L 385.037378 -129.060784 
L 384.649947 -125.101562 
L 384.262515 -124.016186 
L 383.875084 -129.883546 
L 383.487652 -123.854737 
L 383.100221 -131.588652 
L 382.712789 -142.016896 
L 382.325358 -131.298239 
L 381.937926 -111.262664 
L 381.550495 -132.049923 
L 381.163063 -118.48547 
L 380.775632 -125.869105 
L 380.3882 -142.051654 
L 380.000769 -125.406389 
L 379.613338 -144.538934 
L 379.225906 -140.757487 
L 378.838475 -139.260556 
L 378.451043 -137.089392 
L 378.063612 -140.532019 
L 377.67618 -137.028152 
L 377.288749 -128.532885 
L 376.901317 -135.439423 
L 376.513886 -122.399328 
L 376.126454 -134.003266 
L 375.739023 -137.929093 
L 375.351591 -129.318201 
L 374.96416 -132.753382 
L 374.576729 -133.657593 
L 374.189297 -138.745372 
L 373.801866 -125.730454 
L 373.414434 -126.237094 
L 373.027003 -133.277951 
L 372.639571 -146.378262 
L 372.25214 -139.351571 
L 371.864708 -148.334851 
L 371.477277 -127.302997 
L 371.089845 -136.002349 
L 370.702414 -127.023372 
L 370.314982 -128.021407 
L 369.927551 -139.216134 
L 369.54012 -143.404413 
L 369.152688 -135.296994 
L 368.765257 -121.021053 
L 368.377825 -143.727813 
L 367.990394 -138.328366 
L 367.602962 -131.035781 
L 367.215531 -119.317352 
L 366.828099 -133.793456 
L 366.440668 -132.676451 
L 366.053236 -119.760107 
L 365.665805 -145.199456 
L 365.278373 -131.780504 
L 364.890942 -130.383973 
L 364.503511 -132.671715 
L 364.116079 -133.945983 
L 363.728648 -110.310875 
L 363.341216 -126.088951 
L 362.953785 -130.842062 
L 362.566353 -140.849034 
L 362.178922 -129.10395 
L 361.79149 -121.655929 
L 361.404059 -137.401617 
L 361.016627 -133.502624 
L 360.629196 -119.107725 
L 360.241764 -131.41966 
L 359.854333 -115.26107 
L 359.466902 -139.604705 
L 359.07947 -137.072179 
L 358.692039 -127.044083 
L 358.304607 -131.066974 
L 357.917176 -120.909376 
L 357.529744 -120.932429 
L 357.142313 -125.770043 
L 356.754881 -131.317998 
L 356.36745 -132.625117 
L 355.980018 -139.39715 
L 355.592587 -128.495987 
L 355.205155 -133.417801 
L 354.817724 -107.390467 
L 354.430293 -128.741681 
L 354.042861 -128.706873 
L 353.65543 -132.371831 
L 353.267998 -123.707594 
L 352.880567 -119.471211 
L 352.493135 -119.217102 
L 352.105704 -113.629247 
L 351.718272 -122.635244 
L 351.330841 -110.101761 
L 350.943409 -129.182231 
L 350.555978 -106.457631 
L 350.168546 -99.558561 
L 349.781115 -117.020612 
L 349.393684 -119.781604 
L 349.006252 -119.804605 
L 348.618821 -126.877972 
L 348.231389 -134.673601 
L 347.843958 -114.418683 
L 347.456526 -132.273805 
L 347.069095 -140.002032 
L 346.681663 -111.719115 
L 346.294232 -113.925436 
L 345.9068 -119.153602 
L 345.519369 -116.320827 
L 345.131937 -120.225494 
L 344.744506 -135.493073 
L 344.357075 -115.635524 
L 343.969643 -110.564239 
L 343.582212 -113.208221 
L 343.19478 -107.22727 
L 342.807349 -117.88349 
L 342.419917 -112.951899 
L 342.032486 -110.446955 
L 341.645054 -103.137549 
L 341.257623 -121.582413 
L 340.870191 -112.471133 
L 340.48276 -105.983049 
L 340.095328 -115.926395 
L 339.707897 -111.275475 
L 339.320466 -105.916199 
L 338.933034 -109.346266 
L 338.545603 -134.11146 
L 338.158171 -110.971857 
L 337.77074 -98.389559 
L 337.383308 -103.133309 
L 336.995877 -103.757296 
L 336.608445 -129.13428 
L 336.221014 -110.09966 
L 335.833582 -103.266788 
L 335.446151 -118.912783 
L 335.058719 -105.016556 
L 334.671288 -115.063227 
L 334.283857 -120.550847 
L 333.896425 -104.580529 
L 333.508994 -113.687102 
L 333.121562 -97.407146 
L 332.734131 -109.722137 
L 332.346699 -99.127584 
L 331.959268 -108.500852 
L 331.571836 -108.792309 
L 331.184405 -118.725896 
L 330.796973 -106.101576 
L 330.409542 -100.655686 
L 330.02211 -115.075128 
L 329.634679 -97.252103 
L 329.247248 -98.054544 
L 328.859816 -107.032252 
L 328.472385 -105.946475 
L 328.084953 -96.614755 
L 327.697522 -122.035481 
L 327.31009 -131.897069 
L 326.922659 -119.160742 
L 326.535227 -130.611425 
L 326.147796 -114.110533 
L 325.760364 -104.814921 
L 325.372933 -113.100772 
L 324.985501 -106.855411 
L 324.59807 -102.984816 
L 324.210639 -105.416259 
L 323.823207 -115.277187 
L 323.435776 -109.60076 
L 323.048344 -114.06918 
L 322.660913 -103.986678 
L 322.273481 -114.116586 
L 321.88605 -106.236209 
L 321.498618 -92.859278 
L 321.111187 -92.920263 
L 320.723755 -96.224213 
L 320.336324 -88.78212 
L 319.948892 -94.876434 
L 319.561461 -92.789035 
L 319.17403 -88.65122 
L 318.786598 -108.755496 
L 318.399167 -91.854404 
L 318.011735 -97.26497 
L 317.624304 -87.028416 
L 317.236872 -90.006989 
L 316.849441 -82.372397 
L 316.462009 -81.092231 
L 316.074578 -83.429843 
L 315.687146 -81.9762 
L 315.299715 -81.762283 
L 314.912283 -78.275894 
L 314.524852 -76.941676 
L 314.13742 -77.515242 
L 313.749989 -79.946169 
L 313.362558 -80.68555 
L 312.975126 -81.481194 
L 312.587695 -79.900102 
L 312.200263 -76.9293 
L 311.812832 -77.053815 
L 311.4254 -76.990225 
L 311.037969 -75.221089 
L 310.650537 -75.552772 
L 310.263106 -74.939431 
L 309.875674 -77.122977 
L 309.488243 -75.493623 
L 309.100811 -76.491895 
L 308.71338 -77.140786 
L 308.325949 -75.11456 
L 307.938517 -73.258146 
L 307.551086 -75.590131 
L 307.163654 -73.827291 
L 306.776223 -71.335675 
L 306.388791 -73.790286 
L 306.00136 -71.004781 
L 305.613928 -70.599422 
L 305.226497 -67.952061 
L 304.839065 -66.556374 
L 304.451634 -66.353481 
L 304.064202 -65.003437 
L 303.676771 -65.237031 
L 303.28934 -63.456214 
L 302.901908 -62.394402 
L 302.514477 -62.300681 
L 302.127045 -60.95861 
L 301.739614 -60.85685 
L 301.352182 -59.761953 
L 300.964751 -58.715626 
L 300.577319 -56.918827 
L 300.189888 -55.560408 
L 299.802456 -55.433268 
L 299.415025 -55.184968 
L 299.027593 -55.140251 
L 298.640162 -54.954778 
L 298.252731 -54.992955 
L 297.865299 -54.887102 
L 297.477868 -54.360849 
L 297.090436 -53.875663 
L 296.703005 -54.012078 
L 296.315573 -53.579801 
L 295.928142 -53.268015 
L 295.54071 -53.149934 
L 295.153279 -52.971568 
L 294.765847 -52.796435 
L 294.378416 -52.334228 
L 293.990984 -51.822534 
L 293.603553 -51.175361 
L 293.216122 -50.688684 
L 292.82869 -50.124396 
L 292.441259 -49.554091 
L 292.053827 -49.243605 
L 291.666396 -49.104674 
L 291.278964 -48.921757 
L 290.891533 -48.680313 
L 290.504101 -48.333275 
L 290.11667 -47.302394 
L 289.729238 -46.719125 
L 289.341807 -45.84542 
L 288.954375 -45.614275 
L 288.566944 -44.156138 
L 288.179513 -43.354621 
L 287.792081 -43.085581 
z
"/>
    </defs>
    <g clip-path="url(#p3dece79090)">
     <use xlink:href="#m38ace72f8b" x="0" y="179.674375" style="fill: #c0392b; fill-opacity: 0.2"/>
    </g>
   </g>
   <g id="matplotlib.axis_3">
    <g id="xtick_7">
     <g id="line2d_22">
      <path d="M 287.40465 142.118125 
L 287.40465 22.318125 
" clip-path="url(#p3dece79090)" style="fill: none; stroke: #b0b0b0; stroke-opacity: 0.3; stroke-width: 0.8; stroke-linecap: square"/>
     </g>
     <g id="line2d_23">
      <g>
       <use xlink:href="#md52ec2ff24" x="287.40465" y="142.118125" style="stroke: #000000; stroke-width: 0.8"/>
      </g>
     </g>
     <g id="text_15">
      <text style="font-size: 10px; font-family: 'DejaVu Sans', 'Bitstream Vera Sans', 'Computer Modern Sans Serif', 'Lucida Grande', 'Verdana', 'Geneva', 'Lucid', 'Arial', 'Helvetica', 'Avant Garde', sans-serif; text-anchor: middle" x="287.40465" y="156.716562" transform="rotate(-0 287.40465 156.716562)">0.0</text>
     </g>
    </g>
    <g id="xtick_8">
     <g id="line2d_24">
      <path d="M 325.239753 142.118125 
L 325.239753 22.318125 
" clip-path="url(#p3dece79090)" style="fill: none; stroke: #b0b0b0; stroke-opacity: 0.3; stroke-width: 0.8; stroke-linecap: square"/>
     </g>
     <g id="line2d_25">
      <g>
       <use xlink:href="#md52ec2ff24" x="325.239753" y="142.118125" style="stroke: #000000; stroke-width: 0.8"/>
      </g>
     </g>
     <g id="text_16">
      <text style="font-size: 10px; font-family: 'DejaVu Sans', 'Bitstream Vera Sans', 'Computer Modern Sans Serif', 'Lucida Grande', 'Verdana', 'Geneva', 'Lucid', 'Arial', 'Helvetica', 'Avant Garde', sans-serif; text-anchor: middle" x="325.239753" y="156.716562" transform="rotate(-0 325.239753 156.716562)">0.2</text>
     </g>
    </g>
    <g id="xtick_9">
     <g id="line2d_26">
      <path d="M 363.074857 142.118125 
L 363.074857 22.318125 
" clip-path="url(#p3dece79090)" style="fill: none; stroke: #b0b0b0; stroke-opacity: 0.3; stroke-width: 0.8; stroke-linecap: square"/>
     </g>
     <g id="line2d_27">
      <g>
       <use xlink:href="#md52ec2ff24" x="363.074857" y="142.118125" style="stroke: #000000; stroke-width: 0.8"/>
      </g>
     </g>
     <g id="text_17">
      <text style="font-size: 10px; font-family: 'DejaVu Sans', 'Bitstream Vera Sans', 'Computer Modern Sans Serif', 'Lucida Grande', 'Verdana', 'Geneva', 'Lucid', 'Arial', 'Helvetica', 'Avant Garde', sans-serif; text-anchor: middle" x="363.074857" y="156.716562" transform="rotate(-0 363.074857 156.716562)">0.4</text>
     </g>
    </g>
    <g id="xtick_10">
     <g id="line2d_28">
      <path d="M 400.909961 142.118125 
L 400.909961 22.318125 
" clip-path="url(#p3dece79090)" style="fill: none; stroke: #b0b0b0; stroke-opacity: 0.3; stroke-width: 0.8; stroke-linecap: square"/>
     </g>
     <g id="line2d_29">
      <g>
       <use xlink:href="#md52ec2ff24" x="400.909961" y="142.118125" style="stroke: #000000; stroke-width: 0.8"/>
      </g>
     </g>
     <g id="text_18">
      <text style="font-size: 10px; font-family: 'DejaVu Sans', 'Bitstream Vera Sans', 'Computer Modern Sans Serif', 'Lucida Grande', 'Verdana', 'Geneva', 'Lucid', 'Arial', 'Helvetica', 'Avant Garde', sans-serif; text-anchor: middle" x="400.909961" y="156.716562" transform="rotate(-0 400.909961 156.716562)">0.6</text>
     </g>
    </g>
    <g id="xtick_11">
     <g id="line2d_30">
      <path d="M 438.745064 142.118125 
L 438.745064 22.318125 
" clip-path="url(#p3dece79090)" style="fill: none; stroke: #b0b0b0; stroke-opacity: 0.3; stroke-width: 0.8; stroke-linecap: square"/>
     </g>
     <g id="line2d_31">
      <g>
       <use xlink:href="#md52ec2ff24" x="438.745064" y="142.118125" style="stroke: #000000; stroke-width: 0.8"/>
      </g>
     </g>
     <g id="text_19">
      <text style="font-size: 10px; font-family: 'DejaVu Sans', 'Bitstream Vera Sans', 'Computer Modern Sans Serif', 'Lucida Grande', 'Verdana', 'Geneva', 'Lucid', 'Arial', 'Helvetica', 'Avant Garde', sans-serif; text-anchor: middle" x="438.745064" y="156.716562" transform="rotate(-0 438.745064 156.716562)">0.8</text>
     </g>
    </g>
    <g id="xtick_12">
     <g id="line2d_32">
      <path d="M 476.580168 142.118125 
L 476.580168 22.318125 
" clip-path="url(#p3dece79090)" style="fill: none; stroke: #b0b0b0; stroke-opacity: 0.3; stroke-width: 0.8; stroke-linecap: square"/>
     </g>
     <g id="line2d_33">
      <g>
       <use xlink:href="#md52ec2ff24" x="476.580168" y="142.118125" style="stroke: #000000; stroke-width: 0.8"/>
      </g>
     </g>
     <g id="text_20">
      <text style="font-size: 10px; font-family: 'DejaVu Sans', 'Bitstream Vera Sans', 'Computer Modern Sans Serif', 'Lucida Grande', 'Verdana', 'Geneva', 'Lucid', 'Arial', 'Helvetica', 'Avant Garde', sans-serif; text-anchor: middle" x="476.580168" y="156.716562" transform="rotate(-0 476.580168 156.716562)">1.0</text>
     </g>
    </g>
    <g id="text_21">
     <text style="font-size: 10px; font-family: 'DejaVu Sans', 'Bitstream Vera Sans', 'Computer Modern Sans Serif', 'Lucida Grande', 'Verdana', 'Geneva', 'Lucid', 'Arial', 'Helvetica', 'Avant Garde', sans-serif; text-anchor: middle" x="382.131642" y="170.394687" transform="rotate(-0 382.131642 170.394687)">environment step</text>
    </g>
    <g id="text_22">
     <text style="font-size: 10px; font-family: 'DejaVu Sans', 'Bitstream Vera Sans', 'Computer Modern Sans Serif', 'Lucida Grande', 'Verdana', 'Geneva', 'Lucid', 'Arial', 'Helvetica', 'Avant Garde', sans-serif; text-anchor: end" x="485.905159" y="169.394687" transform="rotate(-0 485.905159 169.394687)">1e6</text>
    </g>
   </g>
   <g id="matplotlib.axis_4">
    <g id="ytick_5">
     <g id="line2d_34">
      <path d="M 278.358125 137.094908 
L 485.905159 137.094908 
" clip-path="url(#p3dece79090)" style="fill: none; stroke: #b0b0b0; stroke-opacity: 0.3; stroke-width: 0.8; stroke-linecap: square"/>
     </g>
     <g id="line2d_35">
      <g>
       <use xlink:href="#meb23fb85bc" x="278.358125" y="137.094908" style="stroke: #000000; stroke-width: 0.8"/>
      </g>
     </g>
    </g>
    <g id="ytick_6">
     <g id="line2d_36">
      <path d="M 278.358125 107.467612 
L 485.905159 107.467612 
" clip-path="url(#p3dece79090)" style="fill: none; stroke: #b0b0b0; stroke-opacity: 0.3; stroke-width: 0.8; stroke-linecap: square"/>
     </g>
     <g id="line2d_37">
      <g>
       <use xlink:href="#meb23fb85bc" x="278.358125" y="107.467612" style="stroke: #000000; stroke-width: 0.8"/>
      </g>
     </g>
    </g>
    <g id="ytick_7">
     <g id="line2d_38">
      <path d="M 278.358125 77.840315 
L 485.905159 77.840315 
" clip-path="url(#p3dece79090)" style="fill: none; stroke: #b0b0b0; stroke-opacity: 0.3; stroke-width: 0.8; stroke-linecap: square"/>
     </g>
     <g id="line2d_39">
      <g>
       <use xlink:href="#meb23fb85bc" x="278.358125" y="77.840315" style="stroke: #000000; stroke-width: 0.8"/>
      </g>
     </g>
    </g>
    <g id="ytick_8">
     <g id="line2d_40">
      <path d="M 278.358125 48.213019 
L 485.905159 48.213019 
" clip-path="url(#p3dece79090)" style="fill: none; stroke: #b0b0b0; stroke-opacity: 0.3; stroke-width: 0.8; stroke-linecap: square"/>
     </g>
     <g id="line2d_41">
      <g>
       <use xlink:href="#meb23fb85bc" x="278.358125" y="48.213019" style="stroke: #000000; stroke-width: 0.8"/>
      </g>
     </g>
    </g>
   </g>
   <g id="line2d_42">
    <path d="M 287.792081 136.630732 
L 288.179513 136.397662 
L 288.566944 135.691638 
L 288.954375 134.644034 
L 289.341807 134.016732 
L 289.729238 133.040644 
L 290.11667 132.806161 
L 290.504101 131.646707 
L 291.666396 130.78757 
L 292.82869 130.35538 
L 293.990984 129.085122 
L 294.765847 128.456983 
L 296.315573 127.740529 
L 296.703005 127.428979 
L 297.090436 127.405108 
L 298.252731 126.306654 
L 298.640162 126.263985 
L 299.027593 125.789387 
L 299.415025 125.638142 
L 299.802456 125.349876 
L 300.189888 125.25505 
L 300.577319 124.647326 
L 301.352182 123.028477 
L 301.739614 122.490766 
L 302.127045 122.363824 
L 302.514477 121.716209 
L 302.901908 121.572009 
L 303.28934 121.016172 
L 303.676771 120.17504 
L 304.064202 120.082279 
L 304.451634 119.420151 
L 304.839065 119.28338 
L 305.226497 118.101424 
L 305.613928 116.396414 
L 306.00136 116.252716 
L 306.388791 115.069232 
L 306.776223 115.41073 
L 307.551086 113.084448 
L 307.938517 113.746424 
L 308.325949 113.044544 
L 308.71338 111.542406 
L 309.488243 112.338245 
L 309.875674 111.101785 
L 310.263106 111.904083 
L 311.037969 110.833829 
L 311.4254 109.726257 
L 312.200263 109.006605 
L 312.975126 106.593996 
L 313.362558 107.210957 
L 313.749989 106.333991 
L 314.13742 107.838198 
L 314.912283 106.923027 
L 315.299715 104.900262 
L 315.687146 105.792664 
L 316.074578 103.960237 
L 316.462009 105.244227 
L 316.849441 104.44849 
L 317.236872 100.055472 
L 317.624304 102.016877 
L 318.011735 98.512361 
L 318.399167 99.806021 
L 318.786598 93.865177 
L 319.17403 99.287849 
L 319.561461 97.704284 
L 319.948892 96.8542 
L 320.336324 100.552837 
L 320.723755 96.286426 
L 321.111187 97.941191 
L 321.498618 97.775611 
L 322.273481 85.390001 
L 322.660913 90.317084 
L 323.048344 83.803829 
L 323.435776 87.37438 
L 323.823207 83.210514 
L 324.210639 87.799924 
L 324.59807 90.071045 
L 324.985501 87.172452 
L 325.372933 87.202944 
L 325.760364 90.236839 
L 326.147796 87.769464 
L 326.535227 73.974393 
L 326.922659 82.004858 
L 327.31009 76.737575 
L 327.697522 79.25937 
L 328.084953 93.029628 
L 328.472385 87.20362 
L 328.859816 84.472657 
L 329.247248 90.614174 
L 329.634679 91.269243 
L 330.02211 80.298883 
L 330.409542 92.256283 
L 330.796973 88.803557 
L 331.184405 78.299551 
L 331.571836 87.332203 
L 331.959268 85.942905 
L 332.346699 89.643643 
L 332.734131 87.378733 
L 333.121562 93.015586 
L 333.508994 82.140989 
L 333.896425 91.197627 
L 334.283857 87.376395 
L 334.671288 85.11625 
L 335.058719 88.54785 
L 335.446151 79.747658 
L 335.833582 87.945334 
L 336.221014 85.908872 
L 336.608445 74.249398 
L 336.995877 86.871999 
L 337.383308 86.77857 
L 337.77074 89.496476 
L 338.158171 83.408174 
L 338.545603 70.265926 
L 338.933034 82.946186 
L 339.320466 87.341771 
L 339.707897 82.452002 
L 340.095328 79.887719 
L 340.48276 84.502598 
L 340.870191 78.691825 
L 341.257623 79.705261 
L 341.645054 86.387605 
L 342.032486 80.688048 
L 342.419917 79.407915 
L 342.807349 79.845661 
L 343.19478 85.411949 
L 343.582212 79.1768 
L 343.969643 80.53605 
L 344.357075 77.748021 
L 344.744506 65.921592 
L 345.131937 75.279567 
L 345.519369 77.887188 
L 345.9068 77.252733 
L 346.294232 79.303285 
L 346.681663 81.96478 
L 347.069095 62.481254 
L 347.456526 67.108136 
L 347.843958 76.598991 
L 348.231389 65.581356 
L 348.618821 73.783887 
L 349.006252 79.255544 
L 349.393684 79.482492 
L 349.781115 79.269334 
L 350.168546 84.914845 
L 350.555978 83.527871 
L 350.943409 72.962015 
L 351.330841 79.260963 
L 351.718272 71.434271 
L 352.105704 76.819926 
L 352.493135 76.18872 
L 352.880567 79.151982 
L 353.267998 71.749354 
L 353.65543 70.023874 
L 354.042861 70.140673 
L 354.430293 72.176387 
L 354.817724 89.270857 
L 355.205155 69.529352 
L 355.592587 71.694195 
L 355.980018 61.863297 
L 356.36745 69.868109 
L 356.754881 63.99365 
L 357.142313 73.8996 
L 357.529744 74.932252 
L 357.917176 67.271697 
L 358.304607 64.596328 
L 358.692039 69.53191 
L 359.07947 55.199208 
L 359.466902 55.684935 
L 359.854333 75.141058 
L 360.241764 62.663607 
L 360.629196 70.284602 
L 361.016627 69.78521 
L 361.404059 62.035375 
L 361.79149 69.987698 
L 362.178922 63.577326 
L 362.566353 64.426732 
L 362.953785 66.355492 
L 363.341216 70.423043 
L 363.728648 81.451794 
L 364.116079 62.040138 
L 364.503511 66.936796 
L 364.890942 62.52511 
L 365.278373 71.195758 
L 365.665805 58.70866 
L 366.053236 72.647939 
L 366.828099 56.349307 
L 367.215531 68.3003 
L 368.377825 48.67107 
L 368.765257 70.738502 
L 369.152688 62.80313 
L 369.54012 50.924933 
L 369.927551 53.468673 
L 370.314982 65.674694 
L 370.702414 65.929375 
L 371.089845 61.158229 
L 371.477277 66.465382 
L 371.864708 47.59386 
L 372.25214 50.843819 
L 372.639571 44.84645 
L 373.027003 60.849704 
L 373.414434 69.031447 
L 373.801866 67.740411 
L 374.189297 62.184314 
L 374.576729 59.931603 
L 375.351591 64.932432 
L 375.739023 53.54831 
L 376.126454 63.143903 
L 376.513886 66.236682 
L 376.901317 62.805594 
L 377.288749 66.076943 
L 377.67618 55.264435 
L 378.063612 54.811583 
L 378.451043 55.34275 
L 378.838475 51.792488 
L 379.225906 51.515565 
L 379.613338 55.07992 
L 380.000769 68.569845 
L 380.3882 54.900108 
L 380.775632 66.249222 
L 381.163063 68.757977 
L 381.550495 60.377348 
L 381.937926 76.027178 
L 382.325358 63.080681 
L 382.712789 62.487824 
L 383.100221 65.067069 
L 383.487652 66.791062 
L 383.875084 64.9761 
L 384.262515 63.764022 
L 384.649947 72.928853 
L 385.037378 69.632888 
L 385.424809 57.342363 
L 385.812241 66.227855 
L 386.587104 59.816636 
L 386.974535 64.591966 
L 387.361967 59.203439 
L 387.749398 70.397245 
L 388.13683 70.920134 
L 388.524261 74.024453 
L 389.299124 62.12179 
L 389.686556 60.636679 
L 390.073987 77.621802 
L 390.461418 66.010305 
L 390.84885 62.161636 
L 391.236281 65.93818 
L 391.623713 48.308369 
L 392.011144 63.705197 
L 392.398576 61.303173 
L 392.786007 60.379235 
L 393.173439 64.689702 
L 393.56087 56.869518 
L 393.948302 59.392666 
L 394.335733 66.513209 
L 394.723165 66.406554 
L 395.110596 68.231316 
L 395.498027 66.779839 
L 395.885459 62.187141 
L 396.27289 64.123988 
L 396.660322 68.606202 
L 397.047753 42.822035 
L 397.435185 65.473609 
L 397.822616 61.99744 
L 398.210048 75.53493 
L 398.597479 66.704221 
L 398.984911 60.75186 
L 399.372342 59.103827 
L 399.759774 67.560763 
L 400.147205 59.378012 
L 400.534636 62.35255 
L 400.922068 75.949458 
L 401.309499 59.397568 
L 401.696931 60.752621 
L 402.084362 56.880001 
L 402.471794 54.386623 
L 402.859225 63.123987 
L 403.246657 51.589652 
L 403.634088 69.544304 
L 404.02152 68.468798 
L 404.408951 55.710374 
L 404.796383 56.622408 
L 405.183814 56.234855 
L 405.958677 65.705337 
L 406.346108 59.463068 
L 406.73354 66.52055 
L 407.120971 64.788381 
L 407.895834 45.257966 
L 408.283266 70.2745 
L 408.670697 58.779156 
L 409.058129 72.007581 
L 409.44556 59.604678 
L 409.832992 71.605161 
L 410.220423 55.133217 
L 410.607854 74.953342 
L 410.995286 72.535938 
L 411.382717 66.221033 
L 411.770149 69.708824 
L 412.15758 62.676536 
L 412.545012 65.732749 
L 412.932443 60.667411 
L 413.319875 49.641135 
L 413.707306 65.102925 
L 414.094738 54.141127 
L 414.482169 69.13865 
L 414.869601 64.980842 
L 415.257032 63.428342 
L 415.644463 56.685158 
L 416.031895 70.670222 
L 416.419326 62.599512 
L 416.806758 75.096285 
L 417.194189 71.862415 
L 417.581621 55.840427 
L 417.969052 76.253839 
L 418.356484 69.611676 
L 418.743915 65.576809 
L 419.131347 46.592183 
L 419.518778 65.00297 
L 419.90621 66.243921 
L 420.293641 58.010903 
L 420.681072 55.277476 
L 421.068504 53.878108 
L 421.455935 59.269699 
L 421.843367 62.28683 
L 422.61823 57.016613 
L 423.005661 70.747158 
L 423.393093 58.995295 
L 423.780524 65.558312 
L 424.167956 58.862174 
L 424.555387 54.234078 
L 424.942819 67.587055 
L 425.33025 65.27319 
L 425.717681 54.106091 
L 426.105113 68.442562 
L 426.492544 66.818445 
L 426.879976 57.318662 
L 427.267407 66.529362 
L 427.654839 53.06093 
L 428.04227 73.956873 
L 428.429702 61.44546 
L 428.817133 63.870961 
L 429.204565 58.337783 
L 429.591996 70.290034 
L 429.979428 55.438663 
L 430.366859 60.957081 
L 430.75429 60.416964 
L 431.141722 67.091109 
L 431.529153 59.355122 
L 431.916585 53.950078 
L 432.691448 63.196591 
L 433.078879 60.613994 
L 433.466311 55.77624 
L 433.853742 56.496375 
L 434.241174 66.40732 
L 434.628605 50.975003 
L 435.016037 49.992716 
L 435.403468 57.679638 
L 435.7909 58.360798 
L 436.178331 55.3036 
L 436.565762 69.157471 
L 436.953194 57.038882 
L 437.340625 62.476035 
L 437.728057 59.457029 
L 438.115488 58.482746 
L 438.50292 59.307757 
L 438.890351 72.429751 
L 439.277783 54.050542 
L 439.665214 65.850595 
L 440.052646 57.419676 
L 440.440077 61.669008 
L 440.827509 55.667243 
L 441.21494 62.954818 
L 441.602371 55.596289 
L 441.989803 68.362653 
L 442.377234 61.32153 
L 442.764666 57.944632 
L 443.152097 48.288916 
L 443.539529 60.803212 
L 443.92696 54.857752 
L 444.701823 68.510237 
L 445.089255 61.011324 
L 445.476686 56.611069 
L 445.864118 61.860656 
L 446.251549 72.936662 
L 446.63898 54.508985 
L 447.026412 47.196532 
L 447.413843 65.680641 
L 447.801275 62.771093 
L 448.188706 62.191907 
L 448.576138 64.878436 
L 448.963569 71.158432 
L 449.351001 55.97141 
L 449.738432 55.646855 
L 450.125864 66.639951 
L 450.513295 63.334668 
L 450.900727 62.103973 
L 451.288158 71.933777 
L 452.063021 64.678473 
L 452.837884 76.988578 
L 453.225315 70.516907 
L 453.612747 73.959904 
L 454.000178 64.598761 
L 454.38761 69.152158 
L 454.775041 49.766114 
L 455.162473 47.998491 
L 455.549904 57.110731 
L 455.937336 50.800905 
L 456.324767 54.105177 
L 456.712198 62.079391 
L 457.09963 65.39543 
L 457.487061 52.713837 
L 457.874493 66.901949 
L 458.261924 56.448182 
L 458.649356 56.891861 
L 459.036787 54.153802 
L 459.424219 59.226375 
L 459.81165 59.408656 
L 460.199082 62.868575 
L 460.586513 64.821613 
L 460.973945 58.152697 
L 461.361376 59.102379 
L 461.748807 74.089215 
L 462.136239 49.936526 
L 462.52367 53.061411 
L 462.911102 46.522037 
L 463.298533 59.084329 
L 463.685965 60.594788 
L 464.073396 59.767953 
L 464.460828 64.460033 
L 464.848259 63.628635 
L 465.235691 73.399238 
L 465.623122 66.528033 
L 466.010554 62.364464 
L 466.397985 62.4175 
L 466.785416 67.34108 
L 467.172848 66.260767 
L 467.560279 67.761895 
L 467.947711 63.403301 
L 468.335142 66.564068 
L 468.722574 52.65598 
L 469.110005 70.285257 
L 469.497437 64.499639 
L 469.884868 61.398209 
L 470.2723 62.76274 
L 470.659731 59.363168 
L 471.047163 66.852067 
L 471.434594 56.709981 
L 471.822025 51.700937 
L 472.209457 60.759047 
L 472.596888 57.995916 
L 472.98432 60.260031 
L 473.371751 66.858232 
L 473.759183 63.482224 
L 474.146614 47.596037 
L 474.534046 58.772416 
L 474.921477 45.688685 
L 475.308909 59.568334 
L 475.69634 55.530427 
L 476.083772 41.725122 
L 476.471203 55.948514 
L 476.471203 55.948514 
" clip-path="url(#p3dece79090)" style="fill: none; stroke: #c0392b; stroke-width: 1.5; stroke-linecap: square"/>
   </g>
   <g id="patch_8">
    <path d="M 278.358125 142.118125 
L 278.358125 22.318125 
" style="fill: none; stroke: #000000; stroke-width: 0.8; stroke-linejoin: miter; stroke-linecap: square"/>
   </g>
   <g id="patch_9">
    <path d="M 485.905159 142.118125 
L 485.905159 22.318125 
" style="fill: none; stroke: #000000; stroke-width: 0.8; stroke-linejoin: miter; stroke-linecap: square"/>
   </g>
   <g id="patch_10">
    <path d="M 278.358125 142.118125 
L 485.905159 142.118125 
" style="fill: none; stroke: #000000; stroke-width: 0.8; stroke-linejoin: miter; stroke-linecap: square"/>
   </g>
   <g id="patch_11">
    <path d="M 278.358125 22.318125 
L 485.905159 22.318125 
" style="fill: none; stroke: #000000; stroke-width: 0.8; stroke-linejoin: miter; stroke-linecap: square"/>
   </g>
   <g id="text_23">
    <text style="font-size: 12px; font-family: 'DejaVu Sans', 'Bitstream Vera Sans', 'Computer Modern Sans Serif', 'Lucida Grande', 'Verdana', 'Geneva', 'Lucid', 'Arial', 'Helvetica', 'Avant Garde', sans-serif; text-anchor: middle" x="382.131642" y="16.318125" transform="rotate(-0 382.131642 16.318125)">per-sample KL</text>
   </g>
  </g>
 </g>
 <defs>
  <clipPath id="pa19da0af69">
   <rect x="53.328125" y="22.318125" width="207.547034" height="119.8"/>
  </clipPath>
  <clipPath id="p3dece79090">
   <rect x="278.358125" y="22.318125" width="207.547034" height="119.8"/>
  </clipPath>
 </defs>
</svg>
