<?xml version="1.0" encoding="utf-8" standalone="no"?>
<!DOCTYPE svg PUBLIC "-//W3C//DTD SVG 1.1//EN"
  "http://www.w3.org/Graphics/SVG/1.1/DTD/svg11.dtd">
<svg xmlns:xlink="http://www.w3.org/1999/xlink" width="491.125159pt" height="179.674375pt" viewBox="0 0 491.125159 179.674375" xmlns="http://www.w3.org/2000/svg" version="1.1">
 <metadata>
  <rdf:RDF xmlns:dc="http://purl.org/dc/elements/1.1/" xmlns:cc="http://creativecommons.org/ns#" xmlns:rdf="http://www.w3.org/1999/02/22-rdf-syntax-ns#">
   <cc:Work>
    <dc:type rdf:resource="http://purl.org/dc/dcmitype/StillImage"/>
    <dc:format>image/svg+xml</dc:format>
    <dc:creator>
     <cc:Agent>
      <dc:title>Matplotlib v3.10.9, https://matplotlib.org/</dc:title>
     </cc:Agent>
    </dc:creator>
   </cc:Work>
  </rdf:RDF>
 </metadata>
 <defs>
  <style type="text/css">*{stroke-linejoin: round; stroke-linecap: butt}</style>
 </defs>
 <g id="figure_1">
  <g id="patch_1">
   <path d="M 0 179.674375 
L 491.125159 179.674375 
L 491.125159 0 
L 0 0 
z
" style="fill: #ffffff"/>
  </g>
  <g id="axes_1">
   <g id="patch_2">
    <path d="M 53.328125 142.118125 
L 259.885159 142.118125 
L 259.885159 22.318125 
L 53.328125 22.318125 
z
" style="fill: #ffffff"/>
   </g>
   <g id="FillBetweenPolyCollection_1">
    <defs>
     <path id="m6d47d75b74" d="M 62.717081 -47.59985 
L 62.717081 -43.001705 
L 63.102665 -45.887079 
L 63.488248 -43.759253 
L 63.873831 -44.596331 
L 64.259415 -44.862594 
L 64.644998 -45.312015 
L 65.030582 -45.4359 
L 65.416165 -47.016325 
L 65.801748 -46.294075 
L 66.187332 -49.103114 
L 66.572915 -46.044122 
L 66.958499 -46.783195 
L 67.344082 -46.372634 
L 67.729665 -48.794651 
L 68.115249 -47.683897 
L 68.500832 -50.509972 
L 68.886416 -48.771298 
L 69.271999 -48.311106 
L 69.657583 -49.235454 
L 70.043166 -49.0904 
L 70.428749 -51.426481 
L 70.814333 -51.961861 
L 71.199916 -51.430975 
L 71.5855 -51.805412 
L 71.971083 -54.378879 
L 72.356666 -54.050033 
L 72.74225 -53.805793 
L 73.127833 -52.579102 
L 73.513417 -52.330999 
L 73.899 -52.342906 
L 74.284583 -56.163519 
L 74.670167 -56.816497 
L 75.05575 -55.997288 
L 75.441334 -59.174375 
L 75.826917 -59.361043 
L 76.212501 -57.397201 
L 76.598084 -58.980654 
L 76.983667 -60.091598 
L 77.369251 -59.917315 
L 77.754834 -59.401974 
L 78.140418 -60.470862 
L 78.526001 -62.597899 
L 78.911584 -63.211294 
L 79.297168 -59.405334 
L 79.682751 -64.81707 
L 80.068335 -65.40726 
L 80.453918 -67.857754 
L 80.839501 -67.643053 
L 81.225085 -62.551781 
L 81.610668 -66.61005 
L 81.996252 -63.586896 
L 82.381835 -69.713784 
L 82.767419 -70.463988 
L 83.153002 -72.122078 
L 83.538585 -73.841659 
L 83.924169 -71.611388 
L 84.309752 -68.899307 
L 84.695336 -74.456931 
L 85.080919 -69.218149 
L 85.466502 -76.869151 
L 85.852086 -76.898276 
L 86.237669 -68.250386 
L 86.623253 -75.819761 
L 87.008836 -70.436805 
L 87.394419 -76.982579 
L 87.780003 -82.219205 
L 88.165586 -77.190104 
L 88.55117 -82.119651 
L 88.936753 -81.649586 
L 89.322337 -78.473568 
L 89.70792 -85.176985 
L 90.093503 -75.454757 
L 90.479087 -85.180051 
L 90.86467 -87.724535 
L 91.250254 -87.729703 
L 91.635837 -88.3206 
L 92.02142 -79.525747 
L 92.407004 -87.885206 
L 92.792587 -89.293659 
L 93.178171 -90.579215 
L 93.563754 -91.545996 
L 93.949338 -90.47842 
L 94.334921 -80.568131 
L 94.720504 -92.032401 
L 95.106088 -92.808749 
L 95.491671 -93.008299 
L 95.877255 -93.955617 
L 96.262838 -93.630585 
L 96.648421 -95.057199 
L 97.034005 -93.856792 
L 97.419588 -94.18883 
L 97.805172 -95.270372 
L 98.190755 -96.675069 
L 98.576338 -95.836567 
L 98.961922 -97.159641 
L 99.347505 -93.513587 
L 99.733089 -97.722692 
L 100.118672 -96.887266 
L 100.504256 -97.944667 
L 100.889839 -98.541236 
L 101.275422 -98.377285 
L 101.661006 -98.585312 
L 102.046589 -99.100269 
L 102.432173 -100.268132 
L 102.817756 -100.783985 
L 103.203339 -100.178759 
L 103.588923 -101.495305 
L 103.974506 -100.518953 
L 104.36009 -100.926447 
L 104.745673 -101.347028 
L 105.131256 -99.061041 
L 105.51684 -102.700558 
L 105.902423 -102.120167 
L 106.288007 -104.039202 
L 106.67359 -103.346408 
L 107.059174 -102.426346 
L 107.444757 -93.674994 
L 107.83034 -103.231916 
L 108.215924 -100.462003 
L 108.601507 -102.911709 
L 108.987091 -103.072399 
L 109.372674 -103.388049 
L 109.758257 -103.054859 
L 110.143841 -101.824939 
L 110.529424 -104.274887 
L 110.915008 -106.323404 
L 111.300591 -105.838039 
L 111.686174 -104.814922 
L 112.071758 -104.290879 
L 112.457341 -103.795395 
L 112.842925 -103.728351 
L 113.228508 -104.775339 
L 113.614092 -106.350748 
L 113.999675 -105.925396 
L 114.385258 -104.254353 
L 114.770842 -106.534362 
L 115.156425 -101.033282 
L 115.542009 -107.156239 
L 115.927592 -92.420459 
L 116.313175 -108.262146 
L 116.698759 -99.337839 
L 117.084342 -98.851332 
L 117.469926 -105.231695 
L 117.855509 -91.233565 
L 118.241092 -106.917467 
L 118.626676 -107.816086 
L 119.012259 -106.852706 
L 119.397843 -107.718091 
L 119.783426 -107.642938 
L 120.16901 -107.517026 
L 120.554593 -108.52432 
L 120.940176 -106.735007 
L 121.32576 -107.072826 
L 121.711343 -109.009751 
L 122.096927 -108.112087 
L 122.48251 -98.068818 
L 122.868093 -90.467492 
L 123.253677 -105.356141 
L 123.63926 -110.540404 
L 124.024844 -108.55482 
L 124.410427 -109.522495 
L 124.796011 -108.139157 
L 125.181594 -103.343307 
L 125.567177 -108.131783 
L 125.952761 -108.632328 
L 126.338344 -109.619855 
L 126.723928 -109.695471 
L 127.109511 -109.470646 
L 127.495094 -109.321578 
L 127.880678 -109.940368 
L 128.266261 -108.274826 
L 128.651845 -108.627265 
L 129.037428 -94.495703 
L 129.423011 -93.844182 
L 129.808595 -110.874675 
L 130.194178 -102.567807 
L 130.579762 -112.135523 
L 130.965345 -110.387124 
L 131.350929 -109.356243 
L 131.736512 -112.328556 
L 132.122095 -110.799515 
L 132.507679 -109.237923 
L 132.893262 -111.815442 
L 133.278846 -110.514834 
L 133.664429 -111.426466 
L 134.050012 -112.242689 
L 134.435596 -108.854361 
L 134.821179 -112.515711 
L 135.206763 -114.391665 
L 135.592346 -105.02203 
L 135.977929 -112.48601 
L 136.363513 -112.377937 
L 136.749096 -111.539761 
L 137.13468 -110.762258 
L 137.520263 -111.220269 
L 137.905847 -107.630607 
L 138.29143 -112.108451 
L 138.677013 -114.992941 
L 139.062597 -106.164326 
L 139.44818 -113.826416 
L 139.833764 -112.289623 
L 140.219347 -106.982727 
L 140.60493 -112.158993 
L 140.990514 -113.346671 
L 141.376097 -113.573046 
L 141.761681 -110.867664 
L 142.147264 -112.622737 
L 142.532847 -109.140523 
L 142.918431 -112.815568 
L 143.304014 -113.392326 
L 143.689598 -112.905343 
L 144.075181 -114.328815 
L 144.460765 -113.677956 
L 144.846348 -112.278507 
L 145.231931 -115.691217 
L 145.617515 -113.409349 
L 146.003098 -113.440759 
L 146.388682 -96.172135 
L 146.774265 -114.019754 
L 147.159848 -114.705368 
L 147.545432 -111.663864 
L 147.931015 -114.051916 
L 148.316599 -110.453243 
L 148.702182 -111.676358 
L 149.087765 -115.192799 
L 149.473349 -113.038914 
L 149.858932 -112.659542 
L 150.244516 -114.221649 
L 150.630099 -114.313143 
L 151.015683 -114.830542 
L 151.401266 -114.871844 
L 151.786849 -113.308996 
L 152.172433 -112.771848 
L 152.558016 -114.343359 
L 152.9436 -113.242685 
L 153.329183 -113.714997 
L 153.714766 -115.501536 
L 154.10035 -114.144238 
L 154.485933 -115.385719 
L 154.871517 -113.770697 
L 155.2571 -113.900752 
L 155.642684 -116.371981 
L 156.028267 -113.117667 
L 156.41385 -114.454368 
L 156.799434 -114.306606 
L 157.185017 -114.539821 
L 157.570601 -114.770045 
L 157.956184 -115.479087 
L 158.341767 -117.205285 
L 158.727351 -114.296726 
L 159.112934 -117.128504 
L 159.498518 -114.044413 
L 159.884101 -114.599482 
L 160.269684 -113.315861 
L 160.655268 -115.146299 
L 161.040851 -115.473193 
L 161.426435 -113.111012 
L 161.812018 -113.718825 
L 162.197602 -113.947419 
L 162.583185 -114.648081 
L 162.968768 -115.168122 
L 163.354352 -113.295656 
L 163.739935 -115.982047 
L 164.125519 -116.48579 
L 164.511102 -115.916885 
L 164.896685 -116.012531 
L 165.282269 -114.869503 
L 165.667852 -116.204774 
L 166.053436 -114.797391 
L 166.439019 -119.644612 
L 166.824602 -115.435819 
L 167.210186 -114.032533 
L 167.595769 -120.144528 
L 167.981353 -110.373839 
L 168.366936 -118.571636 
L 168.75252 -115.061906 
L 169.138103 -114.814714 
L 169.523686 -116.310315 
L 169.90927 -115.16949 
L 170.294853 -118.263145 
L 170.680437 -115.678742 
L 171.06602 -116.120889 
L 171.451603 -116.723607 
L 171.837187 -118.002221 
L 172.22277 -118.792395 
L 172.608354 -117.814931 
L 172.993937 -115.742754 
L 173.37952 -117.961886 
L 173.765104 -116.858042 
L 174.150687 -116.403268 
L 174.536271 -116.7423 
L 174.921854 -117.55947 
L 175.307438 -117.89478 
L 175.693021 -116.212009 
L 176.078604 -121.358395 
L 176.464188 -118.662586 
L 176.849771 -116.212157 
L 177.235355 -116.105214 
L 177.620938 -115.076955 
L 178.006521 -115.702857 
L 178.392105 -115.407188 
L 178.777688 -116.348553 
L 179.163272 -116.109234 
L 179.548855 -119.51593 
L 179.934438 -117.030604 
L 180.320022 -120.886953 
L 180.705605 -117.648265 
L 181.091189 -117.611106 
L 181.476772 -116.2522 
L 181.862356 -117.69269 
L 182.247939 -117.392343 
L 182.633522 -115.400838 
L 183.019106 -119.351075 
L 183.404689 -115.224068 
L 183.790273 -117.28014 
L 184.175856 -116.01137 
L 184.561439 -121.356589 
L 184.947023 -115.526203 
L 185.332606 -115.520566 
L 185.71819 -115.344286 
L 186.103773 -116.720996 
L 186.489357 -116.475264 
L 186.87494 -117.076487 
L 187.260523 -115.255105 
L 187.646107 -117.634876 
L 188.03169 -116.892374 
L 188.417274 -116.787208 
L 188.802857 -116.831836 
L 189.18844 -121.544185 
L 189.574024 -117.546791 
L 189.959607 -121.437499 
L 190.345191 -116.454638 
L 190.730774 -122.898345 
L 191.116357 -121.921299 
L 191.501941 -117.356551 
L 191.887524 -111.714561 
L 192.273108 -117.003041 
L 192.658691 -116.912143 
L 193.044275 -122.023305 
L 193.429858 -120.5166 
L 193.815441 -117.232049 
L 194.201025 -116.712303 
L 194.586608 -116.42355 
L 194.972192 -117.055247 
L 195.357775 -116.432457 
L 195.743358 -116.590543 
L 196.128942 -117.517442 
L 196.514525 -117.980528 
L 196.900109 -118.610525 
L 197.285692 -117.942977 
L 197.671275 -116.436071 
L 198.056859 -117.468299 
L 198.442442 -119.204946 
L 198.828026 -118.433481 
L 199.213609 -120.746306 
L 199.599193 -116.890868 
L 199.984776 -118.393237 
L 200.370359 -116.417123 
L 200.755943 -121.425649 
L 201.141526 -118.793294 
L 201.52711 -117.736008 
L 201.912693 -116.048709 
L 202.298276 -119.032964 
L 202.68386 -117.492679 
L 203.069443 -117.758247 
L 203.455027 -117.701476 
L 203.84061 -119.296884 
L 204.226193 -118.240288 
L 204.611777 -122.190827 
L 204.99736 -117.862643 
L 205.382944 -118.117636 
L 205.768527 -119.232969 
L 206.154111 -118.129899 
L 206.539694 -116.754384 
L 206.925277 -118.792528 
L 207.310861 -119.805883 
L 207.696444 -101.769563 
L 208.082028 -118.821143 
L 208.467611 -119.129888 
L 208.853194 -118.295362 
L 209.238778 -119.942242 
L 209.624361 -122.401465 
L 210.009945 -116.860399 
L 210.395528 -118.63312 
L 210.781112 -117.330587 
L 211.166695 -123.75572 
L 211.552278 -118.907983 
L 211.937862 -117.292749 
L 212.323445 -119.444463 
L 212.709029 -117.706008 
L 213.094612 -117.22832 
L 213.480195 -118.826603 
L 213.865779 -119.052229 
L 214.251362 -120.084024 
L 214.636946 -120.171706 
L 215.022529 -118.557077 
L 215.408112 -118.745582 
L 215.793696 -119.421984 
L 216.179279 -118.043779 
L 216.564863 -119.517713 
L 216.950446 -121.03955 
L 217.33603 -120.980561 
L 217.721613 -120.329402 
L 218.107196 -118.970566 
L 218.49278 -119.209854 
L 218.878363 -120.136247 
L 219.263947 -118.506971 
L 219.64953 -119.266496 
L 220.035113 -123.608098 
L 220.420697 -120.91502 
L 220.80628 -101.288261 
L 221.191864 -123.433228 
L 221.577447 -117.102383 
L 221.96303 -119.031348 
L 222.348614 -121.960679 
L 222.734197 -118.596615 
L 223.119781 -121.803866 
L 223.505364 -119.208851 
L 223.890948 -119.869071 
L 224.276531 -118.026506 
L 224.662114 -119.517851 
L 225.047698 -117.744696 
L 225.433281 -120.833234 
L 225.818865 -119.191397 
L 226.204448 -119.576861 
L 226.590031 -123.142884 
L 226.975615 -118.340063 
L 227.361198 -118.220091 
L 227.746782 -120.583756 
L 228.132365 -118.443196 
L 228.517948 -117.723623 
L 228.903532 -120.195653 
L 229.289115 -119.279231 
L 229.674699 -118.273029 
L 230.060282 -119.792622 
L 230.445866 -123.212674 
L 230.831449 -121.671141 
L 231.217032 -121.386234 
L 231.602616 -123.474734 
L 231.988199 -117.234028 
L 232.373783 -116.973635 
L 232.759366 -119.365416 
L 233.144949 -120.211245 
L 233.530533 -119.697485 
L 233.916116 -121.842652 
L 234.3017 -119.800972 
L 234.687283 -118.171189 
L 235.072866 -124.707031 
L 235.45845 -119.386282 
L 235.844033 -120.273785 
L 236.229617 -118.233008 
L 236.6152 -118.73317 
L 237.000784 -118.986052 
L 237.386367 -119.217803 
L 237.77195 -119.087702 
L 238.157534 -119.533383 
L 238.543117 -118.922318 
L 238.928701 -120.617621 
L 239.314284 -118.924897 
L 239.699867 -120.037439 
L 240.085451 -120.99526 
L 240.471034 -119.261785 
L 240.856618 -118.703597 
L 241.242201 -123.452907 
L 241.627785 -116.36222 
L 242.013368 -119.626709 
L 242.398951 -124.935579 
L 242.784535 -123.345256 
L 243.170118 -101.843272 
L 243.555702 -123.859596 
L 243.941285 -122.798818 
L 244.326868 -119.448826 
L 244.712452 -124.770218 
L 245.098035 -119.514528 
L 245.483619 -119.503621 
L 245.869202 -121.053455 
L 246.254785 -119.17856 
L 246.640369 -119.334594 
L 247.025952 -119.007505 
L 247.411536 -119.596831 
L 247.797119 -117.898784 
L 248.182703 -119.651782 
L 248.568286 -119.517871 
L 248.953869 -123.181285 
L 249.339453 -120.54579 
L 249.725036 -119.204202 
L 250.11062 -118.352171 
L 250.496203 -125.571189 
L 250.496203 -128.549822 
L 250.496203 -128.549822 
L 250.11062 -150.470669 
L 249.725036 -150.635713 
L 249.339453 -145.297972 
L 248.953869 -138.767651 
L 248.568286 -147.07745 
L 248.182703 -146.557906 
L 247.797119 -151.202053 
L 247.411536 -149.915521 
L 247.025952 -150.28884 
L 246.640369 -151.362768 
L 246.254785 -150.180788 
L 245.869202 -143.339571 
L 245.483619 -149.134051 
L 245.098035 -147.071583 
L 244.712452 -127.146087 
L 244.326868 -150.104386 
L 243.941285 -136.383695 
L 243.555702 -128.632451 
L 243.170118 -150.754059 
L 242.784535 -127.795545 
L 242.398951 -131.671626 
L 242.013368 -148.745158 
L 241.627785 -130.611155 
L 241.242201 -127.114301 
L 240.856618 -150.238827 
L 240.471034 -147.530946 
L 240.085451 -145.602495 
L 239.699867 -150.035501 
L 239.314284 -149.188095 
L 238.928701 -147.400695 
L 238.543117 -148.336346 
L 238.157534 -148.691668 
L 237.77195 -146.548009 
L 237.386367 -147.064546 
L 237.000784 -149.476613 
L 236.6152 -146.400932 
L 236.229617 -148.342516 
L 235.844033 -148.578263 
L 235.45845 -146.994251 
L 235.072866 -128.872595 
L 234.687283 -150.424936 
L 234.3017 -146.989795 
L 233.916116 -141.459882 
L 233.530533 -147.363968 
L 233.144949 -146.369165 
L 232.759366 -145.426605 
L 232.373783 -147.819108 
L 231.988199 -151.793315 
L 231.602616 -129.494289 
L 231.217032 -141.533285 
L 230.831449 -141.506719 
L 230.445866 -135.151026 
L 230.060282 -144.494721 
L 229.674699 -148.706986 
L 229.289115 -148.815351 
L 228.903532 -145.431283 
L 228.517948 -149.810356 
L 228.132365 -149.212151 
L 227.746782 -139.382965 
L 227.361198 -151.910795 
L 226.975615 -150.612762 
L 226.590031 -133.860403 
L 226.204448 -146.343233 
L 225.818865 -144.181669 
L 225.433281 -141.972612 
L 225.047698 -147.137041 
L 224.662114 -143.981609 
L 224.276531 -148.480781 
L 223.890948 -143.722543 
L 223.505364 -148.736616 
L 223.119781 -137.8965 
L 222.734197 -149.285968 
L 222.348614 -139.697912 
L 221.96303 -147.608023 
L 221.577447 -148.419294 
L 221.191864 -129.39559 
L 220.80628 -150.097149 
L 220.420697 -139.581809 
L 220.035113 -130.369604 
L 219.64953 -147.135385 
L 219.263947 -147.024802 
L 218.878363 -144.485096 
L 218.49278 -143.601601 
L 218.107196 -144.534361 
L 217.721613 -141.371075 
L 217.33603 -142.279171 
L 216.950446 -126.482655 
L 216.564863 -144.730827 
L 216.179279 -147.039776 
L 215.793696 -141.336274 
L 215.408112 -146.819748 
L 215.022529 -146.608033 
L 214.636946 -142.103879 
L 214.251362 -143.12133 
L 213.865779 -141.666863 
L 213.480195 -143.38275 
L 213.094612 -145.652249 
L 212.709029 -145.579413 
L 212.323445 -142.562278 
L 211.937862 -146.64069 
L 211.552278 -146.288842 
L 211.166695 -127.067718 
L 210.781112 -145.17916 
L 210.395528 -142.911932 
L 210.009945 -146.434649 
L 209.624361 -126.749783 
L 209.238778 -140.476636 
L 208.853194 -145.339386 
L 208.467611 -144.535735 
L 208.082028 -139.215582 
L 207.696444 -147.512874 
L 207.310861 -142.240945 
L 206.925277 -141.891796 
L 206.539694 -146.529812 
L 206.154111 -127.012127 
L 205.768527 -141.618311 
L 205.382944 -144.586463 
L 204.99736 -146.24501 
L 204.611777 -126.87479 
L 204.226193 -144.705803 
L 203.84061 -143.245197 
L 203.455027 -147.007868 
L 203.069443 -142.808712 
L 202.68386 -144.446301 
L 202.298276 -144.183019 
L 201.912693 -145.755461 
L 201.52711 -144.419439 
L 201.141526 -143.282115 
L 200.755943 -126.044811 
L 200.370359 -146.074349 
L 199.984776 -142.324775 
L 199.599193 -144.356294 
L 199.213609 -135.156516 
L 198.828026 -144.271099 
L 198.442442 -139.843435 
L 198.056859 -144.883148 
L 197.671275 -142.716627 
L 197.285692 -140.420761 
L 196.900109 -139.325266 
L 196.514525 -143.4773 
L 196.128942 -143.336402 
L 195.743358 -144.303246 
L 195.357775 -144.863397 
L 194.972192 -143.637915 
L 194.586608 -147.37234 
L 194.201025 -143.290775 
L 193.815441 -143.384695 
L 193.429858 -126.659076 
L 193.044275 -125.655491 
L 192.658691 -144.065734 
L 192.273108 -143.12325 
L 191.887524 -128.926773 
L 191.501941 -143.472779 
L 191.116357 -130.032562 
L 190.730774 -126.295013 
L 190.345191 -145.438819 
L 189.959607 -129.667356 
L 189.574024 -141.991665 
L 189.18844 -127.622967 
L 188.802857 -141.165453 
L 188.417274 -143.341977 
L 188.03169 -144.750537 
L 187.646107 -140.748578 
L 187.260523 -143.673117 
L 186.87494 -143.784103 
L 186.489357 -139.278938 
L 186.103773 -141.957648 
L 185.71819 -125.723913 
L 185.332606 -144.421773 
L 184.947023 -143.412047 
L 184.561439 -127.426629 
L 184.175856 -143.375258 
L 183.790273 -140.255462 
L 183.404689 -143.806328 
L 183.019106 -133.571943 
L 182.633522 -143.796052 
L 182.247939 -125.190598 
L 181.862356 -141.160851 
L 181.476772 -124.919687 
L 181.091189 -140.082393 
L 180.705605 -140.251147 
L 180.320022 -125.744416 
L 179.934438 -139.63443 
L 179.548855 -122.481031 
L 179.163272 -141.701027 
L 178.777688 -140.237038 
L 178.392105 -142.828534 
L 178.006521 -140.214439 
L 177.620938 -138.607079 
L 177.235355 -140.00259 
L 176.849771 -142.003668 
L 176.464188 -133.249806 
L 176.078604 -127.290106 
L 175.693021 -140.276389 
L 175.307438 -136.49362 
L 174.921854 -138.955814 
L 174.536271 -138.518724 
L 174.150687 -139.36454 
L 173.765104 -139.683014 
L 173.37952 -132.848949 
L 172.993937 -140.308505 
L 172.608354 -132.553571 
L 172.22277 -127.310137 
L 171.837187 -134.118201 
L 171.451603 -121.999192 
L 171.06602 -135.268478 
L 170.680437 -139.995416 
L 170.294853 -123.999611 
L 169.90927 -136.852492 
L 169.523686 -137.170169 
L 169.138103 -135.49817 
L 168.75252 -139.580084 
L 168.366936 -132.668878 
L 167.981353 -124.951771 
L 167.595769 -125.870025 
L 167.210186 -140.111766 
L 166.824602 -138.988387 
L 166.439019 -128.493907 
L 166.053436 -138.489007 
L 165.667852 -134.617128 
L 165.282269 -136.658148 
L 164.896685 -135.327412 
L 164.511102 -136.575751 
L 164.125519 -135.026041 
L 163.739935 -137.885877 
L 163.354352 -139.853297 
L 162.968768 -136.243935 
L 162.583185 -138.446714 
L 162.197602 -122.676023 
L 161.812018 -135.028394 
L 161.426435 -138.415402 
L 161.040851 -133.896858 
L 160.655268 -136.901893 
L 160.269684 -138.247292 
L 159.884101 -121.685294 
L 159.498518 -122.006959 
L 159.112934 -127.638885 
L 158.727351 -136.975465 
L 158.341767 -127.31726 
L 157.956184 -133.586949 
L 157.570601 -134.889039 
L 157.185017 -135.393041 
L 156.799434 -137.311891 
L 156.41385 -134.946921 
L 156.028267 -133.929283 
L 155.642684 -126.320696 
L 155.2571 -136.302005 
L 154.871517 -135.88236 
L 154.485933 -130.583303 
L 154.10035 -121.404889 
L 153.714766 -127.657517 
L 153.329183 -133.206907 
L 152.9436 -130.662917 
L 152.558016 -131.975665 
L 152.172433 -133.549813 
L 151.786849 -133.063542 
L 151.401266 -126.037192 
L 151.015683 -128.07093 
L 150.630099 -132.183834 
L 150.244516 -130.124062 
L 149.858932 -133.805822 
L 149.473349 -135.936679 
L 149.087765 -130.116078 
L 148.702182 -136.321982 
L 148.316599 -135.711256 
L 147.931015 -132.371828 
L 147.545432 -132.607102 
L 147.159848 -119.154955 
L 146.774265 -130.016644 
L 146.388682 -124.994978 
L 146.003098 -132.579651 
L 145.617515 -132.71045 
L 145.231931 -118.566937 
L 144.846348 -132.286009 
L 144.460765 -132.213599 
L 144.075181 -129.094301 
L 143.689598 -127.361488 
L 143.304014 -129.493189 
L 142.918431 -129.482652 
L 142.532847 -131.597252 
L 142.147264 -131.257526 
L 141.761681 -132.283325 
L 141.376097 -126.901329 
L 140.990514 -125.532026 
L 140.60493 -131.931819 
L 140.219347 -119.504435 
L 139.833764 -129.052478 
L 139.44818 -122.715321 
L 139.062597 -119.707621 
L 138.677013 -118.561434 
L 138.29143 -129.522166 
L 137.905847 -119.951094 
L 137.520263 -127.261645 
L 137.13468 -133.11629 
L 136.749096 -128.657176 
L 136.363513 -125.469488 
L 135.977929 -126.569968 
L 135.592346 -126.989984 
L 135.206763 -118.631411 
L 134.821179 -125.961613 
L 134.435596 -117.7055 
L 134.050012 -124.608243 
L 133.664429 -126.102776 
L 133.278846 -127.843228 
L 132.893262 -115.697578 
L 132.507679 -127.567478 
L 132.122095 -125.43794 
L 131.736512 -123.420015 
L 131.350929 -129.23157 
L 130.965345 -125.538529 
L 130.579762 -117.878317 
L 130.194178 -117.895251 
L 129.808595 -124.403738 
L 129.423011 -125.385941 
L 129.037428 -121.042501 
L 128.651845 -128.041927 
L 128.266261 -127.454341 
L 127.880678 -126.502829 
L 127.495094 -123.39077 
L 127.109511 -125.028802 
L 126.723928 -116.718282 
L 126.338344 -120.598583 
L 125.952761 -124.890174 
L 125.567177 -124.067989 
L 125.181594 -115.359911 
L 124.796011 -125.098083 
L 124.410427 -123.91102 
L 124.024844 -125.557971 
L 123.63926 -118.030928 
L 123.253677 -126.397994 
L 122.868093 -128.727801 
L 122.48251 -117.415532 
L 122.096927 -122.684854 
L 121.711343 -122.78881 
L 121.32576 -119.663015 
L 120.940176 -121.321156 
L 120.554593 -123.714105 
L 120.16901 -123.018321 
L 119.783426 -122.151175 
L 119.397843 -121.821663 
L 119.012259 -120.926315 
L 118.626676 -120.575537 
L 118.241092 -117.983476 
L 117.855509 -121.580678 
L 117.469926 -117.674308 
L 117.084342 -115.06408 
L 116.698759 -114.698759 
L 116.313175 -114.390007 
L 115.927592 -120.39831 
L 115.542009 -115.723936 
L 115.156425 -110.869238 
L 114.770842 -116.307247 
L 114.385258 -118.443618 
L 113.999675 -116.060476 
L 113.614092 -112.48365 
L 113.228508 -119.991955 
L 112.842925 -117.898896 
L 112.457341 -119.364724 
L 112.071758 -117.299215 
L 111.686174 -115.751014 
L 111.300591 -114.639088 
L 110.915008 -114.984841 
L 110.529424 -114.243447 
L 110.143841 -116.687582 
L 109.758257 -119.600951 
L 109.372674 -112.005382 
L 108.987091 -112.044498 
L 108.601507 -112.365599 
L 108.215924 -108.000118 
L 107.83034 -112.239047 
L 107.444757 -108.341534 
L 107.059174 -110.95245 
L 106.67359 -108.729084 
L 106.288007 -108.095236 
L 105.902423 -109.283399 
L 105.51684 -109.307401 
L 105.131256 -106.161308 
L 104.745673 -106.985609 
L 104.36009 -106.30412 
L 103.974506 -105.232757 
L 103.588923 -105.237111 
L 103.203339 -111.043162 
L 102.817756 -103.367079 
L 102.432173 -105.936366 
L 102.046589 -107.77986 
L 101.661006 -105.718726 
L 101.275422 -102.637543 
L 100.889839 -107.991712 
L 100.504256 -101.684766 
L 100.118672 -101.75847 
L 99.733089 -102.696052 
L 99.347505 -101.337113 
L 98.961922 -105.626367 
L 98.576338 -102.23884 
L 98.190755 -100.792518 
L 97.805172 -104.845326 
L 97.419588 -99.159063 
L 97.034005 -99.217892 
L 96.648421 -98.224946 
L 96.262838 -99.265524 
L 95.877255 -97.571874 
L 95.491671 -97.121872 
L 95.106088 -97.857446 
L 94.720504 -96.955074 
L 94.334921 -99.324974 
L 93.949338 -95.984149 
L 93.563754 -95.937283 
L 93.178171 -93.814375 
L 92.792587 -93.630311 
L 92.407004 -94.937473 
L 92.02142 -92.266771 
L 91.635837 -93.022009 
L 91.250254 -92.148634 
L 90.86467 -91.591272 
L 90.479087 -89.971613 
L 90.093503 -91.039642 
L 89.70792 -91.746579 
L 89.322337 -90.663258 
L 88.936753 -88.518371 
L 88.55117 -88.277605 
L 88.165586 -87.656496 
L 87.780003 -87.694327 
L 87.394419 -87.194199 
L 87.008836 -88.161379 
L 86.623253 -84.801945 
L 86.237669 -87.23566 
L 85.852086 -80.758907 
L 85.466502 -82.679919 
L 85.080919 -84.521307 
L 84.695336 -81.515311 
L 84.309752 -82.260811 
L 83.924169 -79.707184 
L 83.538585 -79.881526 
L 83.153002 -78.495923 
L 82.767419 -77.265791 
L 82.381835 -74.933771 
L 81.996252 -77.326068 
L 81.610668 -75.734104 
L 81.225085 -75.750912 
L 80.839501 -73.611248 
L 80.453918 -75.298243 
L 80.068335 -71.572489 
L 79.682751 -72.294646 
L 79.297168 -71.193676 
L 78.911584 -69.96767 
L 78.526001 -69.079844 
L 78.140418 -67.905652 
L 77.754834 -66.853546 
L 77.369251 -64.380009 
L 76.983667 -65.781751 
L 76.598084 -66.000123 
L 76.212501 -63.866961 
L 75.826917 -62.601538 
L 75.441334 -63.19758 
L 75.05575 -63.042631 
L 74.670167 -59.342155 
L 74.284583 -60.203936 
L 73.899 -58.870074 
L 73.513417 -58.897134 
L 73.127833 -58.178844 
L 72.74225 -58.519237 
L 72.356666 -59.165599 
L 71.971083 -57.731194 
L 71.5855 -57.410153 
L 71.199916 -57.010216 
L 70.814333 -53.316409 
L 70.428749 -54.241564 
L 70.043166 -53.048031 
L 69.657583 -52.601809 
L 69.271999 -52.253923 
L 68.886416 -51.261126 
L 68.500832 -51.513363 
L 68.115249 -50.244547 
L 67.729665 -50.436838 
L 67.344082 -50.489821 
L 66.958499 -51.01111 
L 66.572915 -49.167069 
L 66.187332 -50.487222 
L 65.801748 -48.526541 
L 65.416165 -49.825447 
L 65.030582 -47.069231 
L 64.644998 -48.904874 
L 64.259415 -49.064141 
L 63.873831 -48.464865 
L 63.488248 -46.591006 
L 63.102665 -48.912936 
L 62.717081 -47.59985 
z
"/>
    </defs>
    <g clip-path="url(#p8b4d8f18ea)">
     <use xlink:href="#m6d47d75b74" x="0" y="179.674375" style="fill: #1f77b4; fill-opacity: 0.2"/>
    </g>
   </g>
   <g id="matplotlib.axis_1">
    <g id="xtick_1">
     <g id="line2d_1">
      <path d="M 62.331498 142.118125 
L 62.331498 22.318125 
" clip-path="url(#p8b4d8f18ea)" style="fill: none; stroke: #b0b0b0; stroke-opacity: 0.3; stroke-width: 0.8; stroke-linecap: square"/>
     </g>
     <g id="line2d_2">
      <defs>
       <path id="md52ec2ff24" d="M 0 0 
L 0 3.5 
" style="stroke: #000000; stroke-width: 0.8"/>
      </defs>
      <g>
       <use xlink:href="#md52ec2ff24" x="62.331498" y="142.118125" style="stroke: #000000; stroke-width: 0.8"/>
      </g>
     </g>
     <g id="text_1">
      <text style="font-size: 10px; font-family: 'DejaVu Sans', 'Bitstream Vera Sans', 'Computer Modern Sans Serif', 'Lucida Grande', 'Verdana', 'Geneva', 'Lucid', 'Arial', 'Helvetica', 'Avant Garde', sans-serif; text-anchor: middle" x="62.331498" y="156.716562" transform="rotate(-0 62.331498 156.716562)">0.0</text>
     </g>
    </g>
    <g id="xtick_2">
     <g id="line2d_3">
      <path d="M 99.986128 142.118125 
L 99.986128 22.318125 
" clip-path="url(#p8b4d8f18ea)" style="fill: none; stroke: #b0b0b0; stroke-opacity: 0.3; stroke-width: 0.8; stroke-linecap: square"/>
     </g>
     <g id="line2d_4">
      <g>
       <use xlink:href="#md52ec2ff24" x="99.986128" y="142.118125" style="stroke: #000000; stroke-width: 0.8"/>
      </g>
     </g>
     <g id="text_2">
      <text style="font-size: 10px; font-family: 'DejaVu Sans', 'Bitstream Vera Sans', 'Computer Modern Sans Serif', 'Lucida Grande', 'Verdana', 'Geneva', 'Lucid', 'Arial', 'Helvetica', 'Avant Garde', sans-serif; text-anchor: middle" x="99.986128" y="156.716562" transform="rotate(-0 99.986128 156.716562)">0.2</text>
     </g>
    </g>
    <g id="xtick_3">
     <g id="line2d_5">
      <path d="M 137.640758 142.118125 
L 137.640758 22.318125 
" clip-path="url(#p8b4d8f18ea)" style="fill: none; stroke: #b0b0b0; stroke-opacity: 0.3; stroke-width: 0.8; stroke-linecap: square"/>
     </g>
     <g id="line2d_6">
      <g>
       <use xlink:href="#md52ec2ff24" x="137.640758" y="142.118125" style="stroke: #000000; stroke-width: 0.8"/>
      </g>
     </g>
     <g id="text_3">
      <text style="font-size: 10px; font-family: 'DejaVu Sans', 'Bitstream Vera Sans', 'Computer Modern Sans Serif', 'Lucida Grande', 'Verdana', 'Geneva', 'Lucid', 'Arial', 'Helvetica', 'Avant Garde', sans-serif; text-anchor: middle" x="137.640758" y="156.716562" transform="rotate(-0 137.640758 156.716562)">0.4</text>
     </g>
    </g>
    <g id="xtick_4">
     <g id="line2d_7">
      <path d="M 175.295388 142.118125 
L 175.295388 22.318125 
" clip-path="url(#p8b4d8f18ea)" style="fill: none; stroke: #b0b0b0; stroke-opacity: 0.3; stroke-width: 0.8; stroke-linecap: square"/>
     </g>
     <g id="line2d_8">
      <g>
       <use xlink:href="#md52ec2ff24" x="175.295388" y="142.118125" style="stroke: #000000; stroke-width: 0.8"/>
      </g>
     </g>
     <g id="text_4">
      <text style="font-size: 10px; font-family: 'DejaVu Sans', 'Bitstream Vera Sans', 'Computer Modern Sans Serif', 'Lucida Grande', 'Verdana', 'Geneva', 'Lucid', 'Arial', 'Helvetica', 'Avant Garde', sans-serif; text-anchor: middle" x="175.295388" y="156.716562" transform="rotate(-0 175.295388 156.716562)">0.6</text>
     </g>
    </g>
    <g id="xtick_5">
     <g id="line2d_9">
      <path d="M 212.950018 142.118125 
L 212.950018 22.318125 
" clip-path="url(#p8b4d8f18ea)" style="fill: none; stroke: #b0b0b0; stroke-opacity: 0.3; stroke-width: 0.8; stroke-linecap: square"/>
     </g>
     <g id="line2d_10">
      <g>
       <use xlink:href="#md52ec2ff24" x="212.950018" y="142.118125" style="stroke: #000000; stroke-width: 0.8"/>
      </g>
     </g>
     <g id="text_5">
      <text style="font-size: 10px; font-family: 'DejaVu Sans', 'Bitstream Vera Sans', 'Computer Modern Sans Serif', 'Lucida Grande', 'Verdana', 'Geneva', 'Lucid', 'Arial', 'Helvetica', 'Avant Garde', sans-serif; text-anchor: middle" x="212.950018" y="156.716562" transform="rotate(-0 212.950018 156.716562)">0.8</text>
     </g>
    </g>
    <g id="xtick_6">
     <g id="line2d_11">
      <path d="M 250.604648 142.118125 
L 250.604648 22.318125 
" clip-path="url(#p8b4d8f18ea)" style="fill: none; stroke: #b0b0b0; stroke-opacity: 0.3; stroke-width: 0.8; stroke-linecap: square"/>
     </g>
     <g id="line2d_12">
      <g>
       <use xlink:href="#md52ec2ff24" x="250.604648" y="142.118125" style="stroke: #000000; stroke-width: 0.8"/>
      </g>
     </g>
     <g id="text_6">
      <text style="font-size: 10px; font-family: 'DejaVu Sans', 'Bitstream Vera Sans', 'Computer Modern Sans Serif', 'Lucida Grande', 'Verdana', 'Geneva', 'Lucid', 'Arial', 'Helvetica', 'Avant Garde', sans-serif; text-anchor: middle" x="250.604648" y="156.716562" transform="rotate(-0 250.604648 156.716562)">1.0</text>
     </g>
    </g>
    <g id="text_7">
     <text style="font-size: 10px; font-family: 'DejaVu Sans', 'Bitstream Vera Sans', 'Computer Modern Sans Serif', 'Lucida Grande', 'Verdana', 'Geneva', 'Lucid', 'Arial', 'Helvetica', 'Avant Garde', sans-serif; text-anchor: middle" x="156.606642" y="170.394687" transform="rotate(-0 156.606642 170.394687)">environment step</text>
    </g>
    <g id="text_8">
     <text style="font-size: 10px; font-family: 'DejaVu Sans', 'Bitstream Vera Sans', 'Computer Modern Sans Serif', 'Lucida Grande', 'Verdana', 'Geneva', 'Lucid', 'Arial', 'Helvetica', 'Avant Garde', sans-serif; text-anchor: end" x="259.885159" y="169.394687" transform="rotate(-0 259.885159 169.394687)">1e6</text>
    </g>
   </g>
   <g id="matplotlib.axis_2">
    <g id="ytick_1">
     <g id="line2d_13">
      <path d="M 53.328125 120.754193 
L 259.885159 120.754193 
" clip-path="url(#p8b4d8f18ea)" style="fill: none; stroke: #b0b0b0; stroke-opacity: 0.3; stroke-width: 0.8; stroke-linecap: square"/>
     </g>
     <g id="line2d_14">
      <defs>
       <path id="meb23fb85bc" d="M 0 0 
L -3.5 0 
" style="stroke: #000000; stroke-width: 0.8"/>
      </defs>
      <g>
       <use xlink:href="#meb23fb85bc" x="53.328125" y="120.754193" style="stroke: #000000; stroke-width: 0.8"/>
      </g>
     </g>
     <g id="text_9">
      <text style="font-size: 10px; font-family: 'DejaVu Sans', 'Bitstream Vera Sans', 'Computer Modern Sans Serif', 'Lucida Grande', 'Verdana', 'Geneva', 'Lucid', 'Arial', 'Helvetica', 'Avant Garde', sans-serif; text-anchor: end" x="46.328125" y="124.553412" transform="rotate(-0 46.328125 124.553412)">0</text>
     </g>
    </g>
    <g id="ytick_2">
     <g id="line2d_15">
      <path d="M 53.328125 83.262609 
L 259.885159 83.262609 
" clip-path="url(#p8b4d8f18ea)" style="fill: none; stroke: #b0b0b0; stroke-opacity: 0.3; stroke-width: 0.8; stroke-linecap: square"/>
     </g>
     <g id="line2d_16">
      <g>
       <use xlink:href="#meb23fb85bc" x="53.328125" y="83.262609" style="stroke: #000000; stroke-width: 0.8"/>
      </g>
     </g>
     <g id="text_10">
      <text style="font-size: 10px; font-family: 'DejaVu Sans', 'Bitstream Vera Sans', 'Computer Modern Sans Serif', 'Lucida Grande', 'Verdana', 'Geneva', 'Lucid', 'Arial', 'Helvetica', 'Avant Garde', sans-serif; text-anchor: end" x="46.328125" y="87.061828" transform="rotate(-0 46.328125 87.061828)">1000</text>
     </g>
    </g>
    <g id="ytick_3">
     <g id="line2d_17">
      <path d="M 53.328125 45.771026 
L 259.885159 45.771026 
" clip-path="url(#p8b4d8f18ea)" style="fill: none; stroke: #b0b0b0; stroke-opacity: 0.3; stroke-width: 0.8; stroke-linecap: square"/>
     </g>
     <g id="line2d_18">
      <g>
       <use xlink:href="#meb23fb85bc" x="53.328125" y="45.771026" style="stroke: #000000; stroke-width: 0.8"/>
      </g>
     </g>
     <g id="text_11">
      <text style="font-size: 10px; font-family: 'DejaVu Sans', 'Bitstream Vera Sans', 'Computer Modern Sans Serif', 'Lucida Grande', 'Verdana', 'Geneva', 'Lucid', 'Arial', 'Helvetica', 'Avant Garde', sans-serif; text-anchor: end" x="46.328125" y="49.570245" transform="rotate(-0 46.328125 49.570245)">2000</text>
     </g>
    </g>
    <g id="text_12">
     <text style="font-size: 10px; font-family: 'DejaVu Sans', 'Bitstream Vera Sans', 'Computer Modern Sans Serif', 'Lucida Grande', 'Verdana', 'Geneva', 'Lucid', 'Arial', 'Helvetica', 'Avant Garde', sans-serif; text-anchor: middle" x="14.798438" y="82.218125" transform="rotate(-90 14.798438 82.218125)">episode return</text>
    </g>
   </g>
   <g id="line2d_19">
    <path d="M 62.717081 134.373598 
L 63.102665 132.274367 
L 63.488248 134.499245 
L 63.873831 133.143777 
L 64.259415 132.711007 
L 64.644998 132.56593 
L 65.030582 133.42181 
L 65.416165 131.253489 
L 65.801748 132.264067 
L 66.187332 129.879207 
L 66.572915 132.06878 
L 66.958499 130.777222 
L 67.344082 131.243148 
L 67.729665 130.058631 
L 68.115249 130.710153 
L 68.500832 128.662707 
L 68.886416 129.658163 
L 69.271999 129.391861 
L 69.657583 128.755744 
L 70.043166 128.60516 
L 70.428749 126.840352 
L 70.814333 127.03524 
L 71.199916 125.45378 
L 71.5855 125.066592 
L 71.971083 123.619339 
L 72.356666 123.066559 
L 72.74225 123.51186 
L 73.127833 124.295402 
L 73.513417 124.060309 
L 73.899 124.067885 
L 74.284583 121.490648 
L 74.670167 121.595049 
L 75.441334 118.488397 
L 75.826917 118.693085 
L 76.212501 119.042294 
L 76.598084 117.183987 
L 76.983667 116.7377 
L 77.369251 117.525713 
L 78.140418 115.486118 
L 78.526001 113.835504 
L 78.911584 113.084893 
L 79.297168 114.37487 
L 79.682751 111.118517 
L 80.068335 111.184501 
L 80.453918 108.096377 
L 80.839501 109.047224 
L 81.225085 110.523028 
L 81.610668 108.502298 
L 81.996252 109.217893 
L 82.767419 105.809485 
L 83.538585 102.812783 
L 83.924169 104.015089 
L 84.309752 104.094316 
L 84.695336 101.688254 
L 85.080919 102.804647 
L 85.466502 99.89984 
L 86.237669 101.931352 
L 86.623253 99.363522 
L 87.008836 100.375283 
L 87.780003 94.717609 
L 88.165586 97.251075 
L 88.55117 94.475747 
L 88.936753 94.590396 
L 89.322337 95.105962 
L 89.70792 91.212593 
L 90.093503 96.427175 
L 90.479087 92.098543 
L 90.86467 90.016472 
L 91.250254 89.735207 
L 91.635837 89.003071 
L 92.02142 93.778116 
L 92.407004 88.263036 
L 92.792587 88.21239 
L 93.178171 87.47758 
L 93.563754 85.932735 
L 93.949338 86.44309 
L 94.334921 89.727822 
L 94.720504 85.180638 
L 95.106088 84.341278 
L 95.491671 84.60929 
L 96.262838 83.22632 
L 96.648421 83.033302 
L 97.034005 83.137033 
L 97.419588 83.000429 
L 97.805172 79.616526 
L 98.190755 80.940582 
L 98.576338 80.636672 
L 98.961922 78.281371 
L 99.347505 82.249025 
L 99.733089 79.465003 
L 100.118672 80.351507 
L 100.504256 79.859659 
L 100.889839 76.407901 
L 101.275422 79.166961 
L 102.046589 76.23431 
L 102.432173 76.572126 
L 102.817756 77.598843 
L 103.203339 74.063414 
L 103.588923 76.308167 
L 103.974506 76.79852 
L 104.745673 75.508056 
L 105.131256 77.063201 
L 105.51684 73.670395 
L 105.902423 73.972592 
L 106.288007 73.607156 
L 106.67359 73.636629 
L 107.059174 72.984977 
L 107.444757 78.666111 
L 107.83034 71.938894 
L 108.215924 75.443315 
L 108.601507 72.035721 
L 108.987091 72.115926 
L 109.372674 71.97766 
L 109.758257 68.34647 
L 110.143841 70.418114 
L 110.529424 70.415208 
L 110.915008 69.020252 
L 111.300591 69.435812 
L 111.686174 69.391407 
L 112.071758 68.879328 
L 112.457341 68.094315 
L 112.842925 68.860752 
L 113.228508 67.290728 
L 113.614092 70.257176 
L 113.999675 68.681439 
L 114.385258 68.32539 
L 114.770842 68.253571 
L 115.156425 73.723115 
L 115.542009 68.234288 
L 115.927592 73.26499 
L 116.313175 68.348299 
L 116.698759 72.656076 
L 117.084342 72.716669 
L 117.469926 68.221373 
L 117.855509 73.267253 
L 118.241092 67.223904 
L 118.626676 65.478563 
L 119.012259 65.784864 
L 119.397843 64.904498 
L 119.783426 64.777319 
L 120.16901 64.406701 
L 120.554593 63.555162 
L 120.940176 65.646293 
L 121.32576 66.306455 
L 121.711343 63.775095 
L 122.096927 64.275904 
L 122.48251 71.9322 
L 122.868093 70.076729 
L 123.253677 63.797308 
L 123.63926 65.388709 
L 124.024844 62.617979 
L 124.410427 62.957617 
L 124.796011 63.055755 
L 125.181594 70.322766 
L 125.567177 63.574489 
L 125.952761 62.913124 
L 126.723928 66.467499 
L 127.109511 62.424651 
L 127.495094 63.318201 
L 127.880678 61.452776 
L 128.266261 61.809792 
L 128.651845 61.339779 
L 129.037428 71.905273 
L 129.423011 70.059313 
L 129.808595 62.035168 
L 130.194178 69.442846 
L 130.579762 64.667455 
L 130.965345 61.711549 
L 131.350929 60.380469 
L 131.736512 61.80009 
L 132.507679 61.271674 
L 132.893262 65.917865 
L 133.278846 60.495344 
L 134.050012 61.248909 
L 134.435596 66.394445 
L 134.821179 60.435713 
L 135.206763 63.162837 
L 135.592346 63.668368 
L 135.977929 60.146386 
L 136.363513 60.750662 
L 136.749096 59.575907 
L 137.13468 57.735101 
L 137.520263 60.433418 
L 137.905847 65.883525 
L 138.29143 58.859067 
L 139.062597 66.738401 
L 139.44818 61.403507 
L 139.833764 59.003325 
L 140.219347 66.430794 
L 140.60493 57.628969 
L 140.990514 60.235027 
L 141.376097 59.437187 
L 141.761681 58.098881 
L 142.147264 57.734243 
L 142.532847 59.305487 
L 142.918431 58.525265 
L 143.304014 58.231617 
L 143.689598 59.540959 
L 144.460765 56.728598 
L 144.846348 57.392117 
L 145.231931 62.545298 
L 145.617515 56.614475 
L 146.003098 56.66417 
L 146.388682 69.090818 
L 146.774265 57.656176 
L 147.159848 62.744214 
L 147.545432 57.538892 
L 147.931015 56.462503 
L 148.316599 56.592125 
L 148.702182 55.675205 
L 149.087765 57.019937 
L 149.473349 55.186579 
L 150.244516 57.50152 
L 150.630099 56.425887 
L 151.015683 58.223639 
L 151.401266 59.219857 
L 151.786849 56.488106 
L 152.558016 56.514863 
L 152.9436 57.721574 
L 153.329183 56.213423 
L 153.714766 58.094848 
L 154.10035 61.899812 
L 154.485933 56.689864 
L 154.871517 54.847847 
L 155.2571 54.572996 
L 155.642684 58.328037 
L 156.028267 56.1509 
L 156.799434 53.865126 
L 157.185017 54.707944 
L 157.570601 54.844833 
L 157.956184 55.141357 
L 158.341767 57.413103 
L 158.727351 54.03828 
L 159.112934 57.29068 
L 159.498518 61.648689 
L 159.884101 61.531987 
L 160.269684 53.892799 
L 160.655268 53.650279 
L 161.040851 54.989349 
L 161.426435 53.911168 
L 161.812018 55.300765 
L 162.197602 61.362654 
L 162.583185 53.126978 
L 162.968768 53.968347 
L 163.354352 53.099899 
L 163.739935 52.740413 
L 164.125519 53.918459 
L 164.511102 53.428057 
L 164.896685 54.004403 
L 165.282269 53.91055 
L 165.667852 54.263424 
L 166.053436 53.031176 
L 166.439019 55.605115 
L 166.824602 52.462272 
L 167.210186 52.602225 
L 167.595769 56.667098 
L 167.981353 62.01157 
L 168.366936 54.054118 
L 168.75252 52.35338 
L 169.138103 54.517933 
L 169.523686 52.934133 
L 169.90927 53.663384 
L 170.294853 58.542997 
L 170.680437 51.837296 
L 171.06602 53.979692 
L 171.451603 60.312976 
L 171.837187 53.614164 
L 172.22277 56.623109 
L 172.608354 54.490124 
L 172.993937 51.648746 
L 173.37952 54.268958 
L 173.765104 51.403847 
L 174.536271 52.043863 
L 174.921854 51.416733 
L 175.307438 52.480175 
L 175.693021 51.430176 
L 176.078604 55.350124 
L 176.464188 53.718179 
L 176.849771 50.566463 
L 177.620938 52.832358 
L 178.392105 50.556514 
L 178.777688 51.381579 
L 179.163272 50.769244 
L 179.548855 58.675894 
L 179.934438 51.341858 
L 180.320022 56.35869 
L 180.705605 50.724669 
L 181.091189 50.827626 
L 181.476772 59.088432 
L 181.862356 50.247604 
L 182.247939 58.382904 
L 182.633522 50.07593 
L 183.019106 53.212866 
L 183.404689 50.159177 
L 183.790273 50.906574 
L 184.175856 49.981061 
L 184.561439 55.282766 
L 184.947023 50.20525 
L 185.332606 49.703205 
L 185.71819 59.140276 
L 186.103773 50.335053 
L 186.489357 51.797274 
L 186.87494 49.24408 
L 187.260523 50.210264 
L 187.646107 50.482648 
L 188.03169 48.85292 
L 188.417274 49.609782 
L 188.802857 50.67573 
L 189.18844 55.090799 
L 189.574024 49.905147 
L 189.959607 54.121947 
L 190.345191 48.727647 
L 190.730774 55.077696 
L 191.116357 53.697445 
L 191.501941 49.25971 
L 191.887524 59.353708 
L 192.273108 49.611229 
L 192.658691 49.185436 
L 193.044275 55.834977 
L 193.429858 56.086537 
L 193.815441 49.366003 
L 194.201025 49.672836 
L 194.586608 47.77643 
L 194.972192 49.327794 
L 195.357775 49.026448 
L 195.743358 49.22748 
L 196.128942 49.247453 
L 196.514525 48.945461 
L 196.900109 50.706479 
L 197.285692 50.492506 
L 197.671275 50.098026 
L 198.056859 48.498651 
L 198.442442 50.150185 
L 198.828026 48.322085 
L 199.213609 51.722964 
L 199.599193 49.050794 
L 199.984776 49.315369 
L 200.370359 48.428639 
L 200.755943 55.939145 
L 201.141526 48.636671 
L 201.52711 48.596652 
L 201.912693 48.77229 
L 202.298276 48.066383 
L 203.069443 49.390896 
L 203.455027 47.319703 
L 203.84061 48.403334 
L 204.226193 48.201329 
L 204.611777 55.141567 
L 204.99736 47.620548 
L 205.768527 49.248735 
L 206.154111 57.103362 
L 206.539694 48.032277 
L 206.925277 49.332213 
L 207.310861 48.650961 
L 207.696444 55.033157 
L 208.082028 50.656012 
L 208.467611 47.841564 
L 208.853194 47.857001 
L 209.238778 49.464936 
L 209.624361 55.098751 
L 210.009945 48.026851 
L 210.395528 48.901849 
L 210.781112 48.419501 
L 211.166695 54.262656 
L 211.552278 47.075962 
L 211.937862 47.707656 
L 212.323445 48.671005 
L 212.709029 48.031664 
L 213.094612 48.23409 
L 213.480195 48.569698 
L 213.865779 49.314829 
L 214.251362 48.071698 
L 214.636946 48.536582 
L 215.022529 47.09182 
L 215.408112 46.89171 
L 215.793696 49.295246 
L 216.179279 47.132597 
L 216.564863 47.550105 
L 216.950446 55.913272 
L 217.33603 48.044509 
L 217.721613 48.824136 
L 218.107196 47.921911 
L 218.49278 48.268647 
L 218.878363 47.363704 
L 219.64953 46.473435 
L 220.035113 52.685524 
L 220.420697 49.42596 
L 220.80628 53.98167 
L 221.191864 53.259966 
L 221.577447 46.913536 
L 221.96303 46.354689 
L 222.348614 48.84508 
L 222.734197 45.733084 
L 223.119781 49.824192 
L 223.505364 45.701641 
L 223.890948 47.878568 
L 224.276531 46.420731 
L 224.662114 47.924645 
L 225.047698 47.233506 
L 225.433281 48.271452 
L 225.818865 47.987842 
L 226.204448 46.714328 
L 226.590031 51.172731 
L 226.975615 45.197962 
L 227.361198 44.608932 
L 227.746782 49.691015 
L 228.132365 45.846701 
L 228.517948 45.907386 
L 228.903532 46.860907 
L 229.289115 45.627084 
L 229.674699 46.184367 
L 230.060282 47.530703 
L 230.445866 50.492525 
L 230.831449 48.085445 
L 231.217032 48.214616 
L 231.602616 53.189864 
L 231.988199 45.160703 
L 232.373783 47.278004 
L 232.759366 47.278364 
L 233.144949 46.38417 
L 233.530533 46.143648 
L 233.916116 48.023108 
L 234.3017 46.278992 
L 234.687283 45.376313 
L 235.072866 52.884562 
L 235.45845 46.484109 
L 235.844033 45.248351 
L 236.229617 46.386613 
L 236.6152 47.107324 
L 237.000784 45.443042 
L 237.386367 46.533201 
L 237.77195 46.85652 
L 238.157534 45.56185 
L 238.543117 46.045043 
L 238.928701 45.665217 
L 239.314284 45.617879 
L 239.699867 44.637905 
L 240.085451 46.375498 
L 240.471034 46.27801 
L 240.856618 45.203163 
L 241.242201 54.390771 
L 241.627785 56.187688 
L 242.013368 45.488442 
L 242.398951 51.370773 
L 242.784535 54.103974 
L 243.170118 53.37571 
L 243.555702 53.428351 
L 243.941285 50.083119 
L 244.326868 44.897769 
L 244.712452 53.716222 
L 245.098035 46.381319 
L 245.483619 45.355539 
L 245.869202 47.477862 
L 246.254785 44.994701 
L 246.640369 44.325694 
L 247.025952 45.026202 
L 247.411536 44.918199 
L 247.797119 45.123957 
L 248.182703 46.569531 
L 248.568286 46.376715 
L 248.953869 48.699907 
L 249.725036 44.754418 
L 250.11062 45.262955 
L 250.496203 52.61387 
L 250.496203 52.61387 
" clip-path="url(#p8b4d8f18ea)" style="fill: none; stroke: #1f77b4; stroke-width: 1.5; stroke-linecap: square"/>
   </g>
   <g id="patch_3">
    <path d="M 53.328125 142.118125 
L 53.328125 22.318125 
" style="fill: none; stroke: #000000; stroke-width: 0.8; stroke-linejoin: miter; stroke-linecap: square"/>
   </g>
   <g id="patch_4">
    <path d="M 259.885159 142.118125 
L 259.885159 22.318125 
" style="fill: none; stroke: #000000; stroke-width: 0.8; stroke-linejoin: miter; stroke-linecap: square"/>
   </g>
   <g id="patch_5">
    <path d="M 53.328125 142.118125 
L 259.885159 142.118125 
" style="fill: none; stroke: #000000; stroke-width: 0.8; stroke-linejoin: miter; stroke-linecap: square"/>
   </g>
   <g id="patch_6">
    <path d="M 53.328125 22.318125 
L 259.885159 22.318125 
" style="fill: none; stroke: #000000; stroke-width: 0.8; stroke-linejoin: miter; stroke-linecap: square"/>
   </g>
   <g id="text_13">
    <text style="font-size: 12px; font-family: 'DejaVu Sans', 'Bitstream Vera Sans', 'Computer Modern Sans Serif', 'Lucida Grande', 'Verdana', 'Geneva', 'Lucid', 'Arial', 'Helvetica', 'Avant Garde', sans-serif; text-anchor: middle" x="156.606642" y="16.318125" transform="rotate(-0 156.606642 16.318125)">PPO-Clip</text>
   </g>
  </g>
  <g id="axes_2">
   <g id="patch_7">
    <path d="M 277.368125 142.118125 
L 483.925159 142.118125 
L 483.925159 22.318125 
L 277.368125 22.318125 
z
" style="fill: #ffffff"/>
   </g>
   <g id="FillBetweenPolyCollection_2">
    <defs>
     <path id="m76e86ff276" d="M 286.757081 -47.59985 
L 286.757081 -43.001705 
L 287.142665 -45.887079 
L 287.528248 -43.759253 
L 287.913831 -44.596331 
L 288.299415 -44.862594 
L 288.684998 -45.312015 
L 289.070582 -45.4359 
L 289.456165 -47.016325 
L 289.841748 -46.294075 
L 290.227332 -49.103114 
L 290.612915 -46.044122 
L 290.998499 -46.783195 
L 291.384082 -46.372634 
L 291.769665 -48.794651 
L 292.155249 -47.683897 
L 292.540832 -50.509972 
L 292.926416 -48.771298 
L 293.311999 -48.311106 
L 293.697583 -49.235454 
L 294.083166 -49.0904 
L 294.468749 -51.426481 
L 294.854333 -51.961861 
L 295.239916 -51.430975 
L 295.6255 -51.805412 
L 296.011083 -54.378879 
L 296.396666 -54.050033 
L 296.78225 -53.805793 
L 297.167833 -52.579102 
L 297.553417 -52.330999 
L 297.939 -52.342906 
L 298.324583 -56.163519 
L 298.710167 -56.816497 
L 299.09575 -55.997288 
L 299.481334 -59.174375 
L 299.866917 -59.361043 
L 300.252501 -57.397201 
L 300.638084 -58.980654 
L 301.023667 -60.091598 
L 301.409251 -59.917315 
L 301.794834 -59.401974 
L 302.180418 -60.470862 
L 302.566001 -62.597899 
L 302.951584 -63.211294 
L 303.337168 -59.405334 
L 303.722751 -64.81707 
L 304.108335 -65.40726 
L 304.493918 -67.857754 
L 304.879501 -67.643053 
L 305.265085 -62.551781 
L 305.650668 -66.61005 
L 306.036252 -63.586896 
L 306.421835 -69.713784 
L 306.807419 -70.463988 
L 307.193002 -72.122078 
L 307.578585 -73.841659 
L 307.964169 -71.611388 
L 308.349752 -68.899307 
L 308.735336 -74.456931 
L 309.120919 -69.218149 
L 309.506502 -76.869151 
L 309.892086 -76.898276 
L 310.277669 -68.250386 
L 310.663253 -75.819761 
L 311.048836 -70.436805 
L 311.434419 -76.982579 
L 311.820003 -82.219205 
L 312.205586 -77.190104 
L 312.59117 -82.119651 
L 312.976753 -81.649586 
L 313.362337 -78.473568 
L 313.74792 -85.176985 
L 314.133503 -75.454757 
L 314.519087 -85.180051 
L 314.90467 -87.724535 
L 315.290254 -87.729703 
L 315.675837 -88.3206 
L 316.06142 -79.525747 
L 316.447004 -87.885206 
L 316.832587 -89.293659 
L 317.218171 -90.579215 
L 317.603754 -91.545996 
L 317.989338 -90.47842 
L 318.374921 -80.568131 
L 318.760504 -92.032401 
L 319.146088 -92.808749 
L 319.531671 -93.008299 
L 319.917255 -93.955617 
L 320.302838 -93.630585 
L 320.688421 -95.057199 
L 321.074005 -93.856792 
L 321.459588 -94.18883 
L 321.845172 -95.270372 
L 322.230755 -96.675069 
L 322.616338 -95.836567 
L 323.001922 -97.159641 
L 323.387505 -93.513587 
L 323.773089 -97.722692 
L 324.158672 -96.887266 
L 324.544256 -97.944667 
L 324.929839 -98.541236 
L 325.315422 -98.377285 
L 325.701006 -98.585312 
L 326.086589 -99.100269 
L 326.472173 -100.268132 
L 326.857756 -100.783985 
L 327.243339 -100.178759 
L 327.628923 -101.495305 
L 328.014506 -100.518953 
L 328.40009 -100.926447 
L 328.785673 -101.347028 
L 329.171256 -99.061041 
L 329.55684 -102.700558 
L 329.942423 -102.120167 
L 330.328007 -104.039202 
L 330.71359 -103.346408 
L 331.099174 -102.426346 
L 331.484757 -93.674994 
L 331.87034 -103.231916 
L 332.255924 -100.462003 
L 332.641507 -102.911709 
L 333.027091 -103.072399 
L 333.412674 -103.388049 
L 333.798257 -103.054859 
L 334.183841 -101.824939 
L 334.569424 -104.274887 
L 334.955008 -106.323404 
L 335.340591 -105.838039 
L 335.726174 -104.814922 
L 336.111758 -104.290879 
L 336.497341 -103.795395 
L 336.882925 -103.728351 
L 337.268508 -104.775339 
L 337.654092 -106.350748 
L 338.039675 -105.925396 
L 338.425258 -104.254353 
L 338.810842 -106.534362 
L 339.196425 -101.033282 
L 339.582009 -107.156239 
L 339.967592 -92.420459 
L 340.353175 -108.262146 
L 340.738759 -99.337839 
L 341.124342 -98.851332 
L 341.509926 -105.231695 
L 341.895509 -91.233565 
L 342.281092 -106.917467 
L 342.666676 -107.816086 
L 343.052259 -106.852706 
L 343.437843 -107.718091 
L 343.823426 -107.642938 
L 344.20901 -107.517026 
L 344.594593 -108.52432 
L 344.980176 -106.735007 
L 345.36576 -107.072826 
L 345.751343 -109.009751 
L 346.136927 -108.112087 
L 346.52251 -98.068818 
L 346.908093 -90.467492 
L 347.293677 -105.356141 
L 347.67926 -110.540404 
L 348.064844 -108.55482 
L 348.450427 -109.522495 
L 348.836011 -108.139157 
L 349.221594 -103.343307 
L 349.607177 -108.131783 
L 349.992761 -108.632328 
L 350.378344 -109.619855 
L 350.763928 -109.695471 
L 351.149511 -109.470646 
L 351.535094 -109.321578 
L 351.920678 -109.940368 
L 352.306261 -108.274826 
L 352.691845 -108.627265 
L 353.077428 -94.495703 
L 353.463011 -93.844182 
L 353.848595 -110.874675 
L 354.234178 -102.567807 
L 354.619762 -112.135523 
L 355.005345 -110.387124 
L 355.390929 -109.356243 
L 355.776512 -112.328556 
L 356.162095 -110.799515 
L 356.547679 -109.237923 
L 356.933262 -111.815442 
L 357.318846 -110.514834 
L 357.704429 -111.426466 
L 358.090012 -112.242689 
L 358.475596 -108.854361 
L 358.861179 -112.515711 
L 359.246763 -114.391665 
L 359.632346 -105.02203 
L 360.017929 -112.48601 
L 360.403513 -112.377937 
L 360.789096 -111.539761 
L 361.17468 -110.762258 
L 361.560263 -111.220269 
L 361.945847 -107.630607 
L 362.33143 -112.108451 
L 362.717013 -114.992941 
L 363.102597 -106.164326 
L 363.48818 -113.826416 
L 363.873764 -112.289623 
L 364.259347 -106.982727 
L 364.64493 -112.158993 
L 365.030514 -113.346671 
L 365.416097 -113.573046 
L 365.801681 -110.867664 
L 366.187264 -112.622737 
L 366.572847 -109.140523 
L 366.958431 -112.815568 
L 367.344014 -113.392326 
L 367.729598 -112.905343 
L 368.115181 -114.328815 
L 368.500765 -113.677956 
L 368.886348 -112.278507 
L 369.271931 -115.691217 
L 369.657515 -113.409349 
L 370.043098 -113.440759 
L 370.428682 -96.172135 
L 370.814265 -114.019754 
L 371.199848 -114.705368 
L 371.585432 -111.663864 
L 371.971015 -114.051916 
L 372.356599 -110.453243 
L 372.742182 -111.676358 
L 373.127765 -115.192799 
L 373.513349 -113.038914 
L 373.898932 -112.659542 
L 374.284516 -114.221649 
L 374.670099 -114.313143 
L 375.055683 -114.830542 
L 375.441266 -114.871844 
L 375.826849 -113.308996 
L 376.212433 -112.771848 
L 376.598016 -114.343359 
L 376.9836 -113.242685 
L 377.369183 -113.714997 
L 377.754766 -115.501536 
L 378.14035 -114.144238 
L 378.525933 -115.385719 
L 378.911517 -113.770697 
L 379.2971 -113.900752 
L 379.682684 -116.371981 
L 380.068267 -113.117667 
L 380.45385 -114.454368 
L 380.839434 -114.306606 
L 381.225017 -114.539821 
L 381.610601 -114.770045 
L 381.996184 -115.479087 
L 382.381767 -117.205285 
L 382.767351 -114.296726 
L 383.152934 -117.128504 
L 383.538518 -114.044413 
L 383.924101 -114.599482 
L 384.309684 -113.315861 
L 384.695268 -115.146299 
L 385.080851 -115.473193 
L 385.466435 -113.111012 
L 385.852018 -113.718825 
L 386.237602 -113.947419 
L 386.623185 -114.648081 
L 387.008768 -115.168122 
L 387.394352 -113.295656 
L 387.779935 -115.982047 
L 388.165519 -116.48579 
L 388.551102 -115.916885 
L 388.936685 -116.012531 
L 389.322269 -114.869503 
L 389.707852 -116.204774 
L 390.093436 -114.797391 
L 390.479019 -119.644612 
L 390.864602 -115.435819 
L 391.250186 -114.032533 
L 391.635769 -120.144528 
L 392.021353 -110.373839 
L 392.406936 -118.571636 
L 392.79252 -115.061906 
L 393.178103 -114.814714 
L 393.563686 -116.310315 
L 393.94927 -115.16949 
L 394.334853 -118.263145 
L 394.720437 -115.678742 
L 395.10602 -116.120889 
L 395.491603 -116.723607 
L 395.877187 -118.002221 
L 396.26277 -118.792395 
L 396.648354 -117.814931 
L 397.033937 -115.742754 
L 397.41952 -117.961886 
L 397.805104 -116.858042 
L 398.190687 -116.403268 
L 398.576271 -116.7423 
L 398.961854 -117.55947 
L 399.347438 -117.89478 
L 399.733021 -116.212009 
L 400.118604 -121.358395 
L 400.504188 -118.662586 
L 400.889771 -116.212157 
L 401.275355 -116.105214 
L 401.660938 -115.076955 
L 402.046521 -115.702857 
L 402.432105 -115.407188 
L 402.817688 -116.348553 
L 403.203272 -116.109234 
L 403.588855 -119.51593 
L 403.974438 -117.030604 
L 404.360022 -120.886953 
L 404.745605 -117.648265 
L 405.131189 -117.611106 
L 405.516772 -116.2522 
L 405.902356 -117.69269 
L 406.287939 -117.392343 
L 406.673522 -115.400838 
L 407.059106 -119.351075 
L 407.444689 -115.224068 
L 407.830273 -117.28014 
L 408.215856 -116.01137 
L 408.601439 -121.356589 
L 408.987023 -115.526203 
L 409.372606 -115.520566 
L 409.75819 -115.344286 
L 410.143773 -116.720996 
L 410.529357 -116.475264 
L 410.91494 -117.076487 
L 411.300523 -115.255105 
L 411.686107 -117.634876 
L 412.07169 -116.892374 
L 412.457274 -116.787208 
L 412.842857 -116.831836 
L 413.22844 -121.544185 
L 413.614024 -117.546791 
L 413.999607 -121.437499 
L 414.385191 -116.454638 
L 414.770774 -122.898345 
L 415.156357 -121.921299 
L 415.541941 -117.356551 
L 415.927524 -111.714561 
L 416.313108 -117.003041 
L 416.698691 -116.912143 
L 417.084275 -122.023305 
L 417.469858 -120.5166 
L 417.855441 -117.232049 
L 418.241025 -116.712303 
L 418.626608 -116.42355 
L 419.012192 -117.055247 
L 419.397775 -116.432457 
L 419.783358 -116.590543 
L 420.168942 -117.517442 
L 420.554525 -117.980528 
L 420.940109 -118.610525 
L 421.325692 -117.942977 
L 421.711275 -116.436071 
L 422.096859 -117.468299 
L 422.482442 -119.204946 
L 422.868026 -118.433481 
L 423.253609 -120.746306 
L 423.639193 -116.890868 
L 424.024776 -118.393237 
L 424.410359 -116.417123 
L 424.795943 -121.425649 
L 425.181526 -118.793294 
L 425.56711 -117.736008 
L 425.952693 -116.048709 
L 426.338276 -119.032964 
L 426.72386 -117.492679 
L 427.109443 -117.758247 
L 427.495027 -117.701476 
L 427.88061 -119.296884 
L 428.266193 -118.240288 
L 428.651777 -122.190827 
L 429.03736 -117.862643 
L 429.422944 -118.117636 
L 429.808527 -119.232969 
L 430.194111 -118.129899 
L 430.579694 -116.754384 
L 430.965277 -118.792528 
L 431.350861 -119.805883 
L 431.736444 -101.769563 
L 432.122028 -118.821143 
L 432.507611 -119.129888 
L 432.893194 -118.295362 
L 433.278778 -119.942242 
L 433.664361 -122.401465 
L 434.049945 -116.860399 
L 434.435528 -118.63312 
L 434.821112 -117.330587 
L 435.206695 -123.75572 
L 435.592278 -118.907983 
L 435.977862 -117.292749 
L 436.363445 -119.444463 
L 436.749029 -117.706008 
L 437.134612 -117.22832 
L 437.520195 -118.826603 
L 437.905779 -119.052229 
L 438.291362 -120.084024 
L 438.676946 -120.171706 
L 439.062529 -118.557077 
L 439.448112 -118.745582 
L 439.833696 -119.421984 
L 440.219279 -118.043779 
L 440.604863 -119.517713 
L 440.990446 -121.03955 
L 441.37603 -120.980561 
L 441.761613 -120.329402 
L 442.147196 -118.970566 
L 442.53278 -119.209854 
L 442.918363 -120.136247 
L 443.303947 -118.506971 
L 443.68953 -119.266496 
L 444.075113 -123.608098 
L 444.460697 -120.91502 
L 444.84628 -101.288261 
L 445.231864 -123.433228 
L 445.617447 -117.102383 
L 446.00303 -119.031348 
L 446.388614 -121.960679 
L 446.774197 -118.596615 
L 447.159781 -121.803866 
L 447.545364 -119.208851 
L 447.930948 -119.869071 
L 448.316531 -118.026506 
L 448.702114 -119.517851 
L 449.087698 -117.744696 
L 449.473281 -120.833234 
L 449.858865 -119.191397 
L 450.244448 -119.576861 
L 450.630031 -123.142884 
L 451.015615 -118.340063 
L 451.401198 -118.220091 
L 451.786782 -120.583756 
L 452.172365 -118.443196 
L 452.557948 -117.723623 
L 452.943532 -120.195653 
L 453.329115 -119.279231 
L 453.714699 -118.273029 
L 454.100282 -119.792622 
L 454.485866 -123.212674 
L 454.871449 -121.671141 
L 455.257032 -121.386234 
L 455.642616 -123.474734 
L 456.028199 -117.234028 
L 456.413783 -116.973635 
L 456.799366 -119.365416 
L 457.184949 -120.211245 
L 457.570533 -119.697485 
L 457.956116 -121.842652 
L 458.3417 -119.800972 
L 458.727283 -118.171189 
L 459.112866 -124.707031 
L 459.49845 -119.386282 
L 459.884033 -120.273785 
L 460.269617 -118.233008 
L 460.6552 -118.73317 
L 461.040784 -118.986052 
L 461.426367 -119.217803 
L 461.81195 -119.087702 
L 462.197534 -119.533383 
L 462.583117 -118.922318 
L 462.968701 -120.617621 
L 463.354284 -118.924897 
L 463.739867 -120.037439 
L 464.125451 -120.99526 
L 464.511034 -119.261785 
L 464.896618 -118.703597 
L 465.282201 -123.452907 
L 465.667785 -116.36222 
L 466.053368 -119.626709 
L 466.438951 -124.935579 
L 466.824535 -123.345256 
L 467.210118 -101.843272 
L 467.595702 -123.859596 
L 467.981285 -122.798818 
L 468.366868 -119.448826 
L 468.752452 -124.770218 
L 469.138035 -119.514528 
L 469.523619 -119.503621 
L 469.909202 -121.053455 
L 470.294785 -119.17856 
L 470.680369 -119.334594 
L 471.065952 -119.007505 
L 471.451536 -119.596831 
L 471.837119 -117.898784 
L 472.222703 -119.651782 
L 472.608286 -119.517871 
L 472.993869 -123.181285 
L 473.379453 -120.54579 
L 473.765036 -119.204202 
L 474.15062 -118.352171 
L 474.536203 -125.571189 
L 474.536203 -128.549822 
L 474.536203 -128.549822 
L 474.15062 -150.470669 
L 473.765036 -150.635713 
L 473.379453 -145.297972 
L 472.993869 -138.767651 
L 472.608286 -147.07745 
L 472.222703 -146.557906 
L 471.837119 -151.202053 
L 471.451536 -149.915521 
L 471.065952 -150.28884 
L 470.680369 -151.362768 
L 470.294785 -150.180788 
L 469.909202 -143.339571 
L 469.523619 -149.134051 
L 469.138035 -147.071583 
L 468.752452 -127.146087 
L 468.366868 -150.104386 
L 467.981285 -136.383695 
L 467.595702 -128.632451 
L 467.210118 -150.754059 
L 466.824535 -127.795545 
L 466.438951 -131.671626 
L 466.053368 -148.745158 
L 465.667785 -130.611155 
L 465.282201 -127.114301 
L 464.896618 -150.238827 
L 464.511034 -147.530946 
L 464.125451 -145.602495 
L 463.739867 -150.035501 
L 463.354284 -149.188095 
L 462.968701 -147.400695 
L 462.583117 -148.336346 
L 462.197534 -148.691668 
L 461.81195 -146.548009 
L 461.426367 -147.064546 
L 461.040784 -149.476613 
L 460.6552 -146.400932 
L 460.269617 -148.342516 
L 459.884033 -148.578263 
L 459.49845 -146.994251 
L 459.112866 -128.872595 
L 458.727283 -150.424936 
L 458.3417 -146.989795 
L 457.956116 -141.459882 
L 457.570533 -147.363968 
L 457.184949 -146.369165 
L 456.799366 -145.426605 
L 456.413783 -147.819108 
L 456.028199 -151.793315 
L 455.642616 -129.494289 
L 455.257032 -141.533285 
L 454.871449 -141.506719 
L 454.485866 -135.151026 
L 454.100282 -144.494721 
L 453.714699 -148.706986 
L 453.329115 -148.815351 
L 452.943532 -145.431283 
L 452.557948 -149.810356 
L 452.172365 -149.212151 
L 451.786782 -139.382965 
L 451.401198 -151.910795 
L 451.015615 -150.612762 
L 450.630031 -133.860403 
L 450.244448 -146.343233 
L 449.858865 -144.181669 
L 449.473281 -141.972612 
L 449.087698 -147.137041 
L 448.702114 -143.981609 
L 448.316531 -148.480781 
L 447.930948 -143.722543 
L 447.545364 -148.736616 
L 447.159781 -137.8965 
L 446.774197 -149.285968 
L 446.388614 -139.697912 
L 446.00303 -147.608023 
L 445.617447 -148.419294 
L 445.231864 -129.39559 
L 444.84628 -150.097149 
L 444.460697 -139.581809 
L 444.075113 -130.369604 
L 443.68953 -147.135385 
L 443.303947 -147.024802 
L 442.918363 -144.485096 
L 442.53278 -143.601601 
L 442.147196 -144.534361 
L 441.761613 -141.371075 
L 441.37603 -142.279171 
L 440.990446 -126.482655 
L 440.604863 -144.730827 
L 440.219279 -147.039776 
L 439.833696 -141.336274 
L 439.448112 -146.819748 
L 439.062529 -146.608033 
L 438.676946 -142.103879 
L 438.291362 -143.12133 
L 437.905779 -141.666863 
L 437.520195 -143.38275 
L 437.134612 -145.652249 
L 436.749029 -145.579413 
L 436.363445 -142.562278 
L 435.977862 -146.64069 
L 435.592278 -146.288842 
L 435.206695 -127.067718 
L 434.821112 -145.17916 
L 434.435528 -142.911932 
L 434.049945 -146.434649 
L 433.664361 -126.749783 
L 433.278778 -140.476636 
L 432.893194 -145.339386 
L 432.507611 -144.535735 
L 432.122028 -139.215582 
L 431.736444 -147.512874 
L 431.350861 -142.240945 
L 430.965277 -141.891796 
L 430.579694 -146.529812 
L 430.194111 -127.012127 
L 429.808527 -141.618311 
L 429.422944 -144.586463 
L 429.03736 -146.24501 
L 428.651777 -126.87479 
L 428.266193 -144.705803 
L 427.88061 -143.245197 
L 427.495027 -147.007868 
L 427.109443 -142.808712 
L 426.72386 -144.446301 
L 426.338276 -144.183019 
L 425.952693 -145.755461 
L 425.56711 -144.419439 
L 425.181526 -143.282115 
L 424.795943 -126.044811 
L 424.410359 -146.074349 
L 424.024776 -142.324775 
L 423.639193 -144.356294 
L 423.253609 -135.156516 
L 422.868026 -144.271099 
L 422.482442 -139.843435 
L 422.096859 -144.883148 
L 421.711275 -142.716627 
L 421.325692 -140.420761 
L 420.940109 -139.325266 
L 420.554525 -143.4773 
L 420.168942 -143.336402 
L 419.783358 -144.303246 
L 419.397775 -144.863397 
L 419.012192 -143.637915 
L 418.626608 -147.37234 
L 418.241025 -143.290775 
L 417.855441 -143.384695 
L 417.469858 -126.659076 
L 417.084275 -125.655491 
L 416.698691 -144.065734 
L 416.313108 -143.12325 
L 415.927524 -128.926773 
L 415.541941 -143.472779 
L 415.156357 -130.032562 
L 414.770774 -126.295013 
L 414.385191 -145.438819 
L 413.999607 -129.667356 
L 413.614024 -141.991665 
L 413.22844 -127.622967 
L 412.842857 -141.165453 
L 412.457274 -143.341977 
L 412.07169 -144.750537 
L 411.686107 -140.748578 
L 411.300523 -143.673117 
L 410.91494 -143.784103 
L 410.529357 -139.278938 
L 410.143773 -141.957648 
L 409.75819 -125.723913 
L 409.372606 -144.421773 
L 408.987023 -143.412047 
L 408.601439 -127.426629 
L 408.215856 -143.375258 
L 407.830273 -140.255462 
L 407.444689 -143.806328 
L 407.059106 -133.571943 
L 406.673522 -143.796052 
L 406.287939 -125.190598 
L 405.902356 -141.160851 
L 405.516772 -124.919687 
L 405.131189 -140.082393 
L 404.745605 -140.251147 
L 404.360022 -125.744416 
L 403.974438 -139.63443 
L 403.588855 -122.481031 
L 403.203272 -141.701027 
L 402.817688 -140.237038 
L 402.432105 -142.828534 
L 402.046521 -140.214439 
L 401.660938 -138.607079 
L 401.275355 -140.00259 
L 400.889771 -142.003668 
L 400.504188 -133.249806 
L 400.118604 -127.290106 
L 399.733021 -140.276389 
L 399.347438 -136.49362 
L 398.961854 -138.955814 
L 398.576271 -138.518724 
L 398.190687 -139.36454 
L 397.805104 -139.683014 
L 397.41952 -132.848949 
L 397.033937 -140.308505 
L 396.648354 -132.553571 
L 396.26277 -127.310137 
L 395.877187 -134.118201 
L 395.491603 -121.999192 
L 395.10602 -135.268478 
L 394.720437 -139.995416 
L 394.334853 -123.999611 
L 393.94927 -136.852492 
L 393.563686 -137.170169 
L 393.178103 -135.49817 
L 392.79252 -139.580084 
L 392.406936 -132.668878 
L 392.021353 -124.951771 
L 391.635769 -125.870025 
L 391.250186 -140.111766 
L 390.864602 -138.988387 
L 390.479019 -128.493907 
L 390.093436 -138.489007 
L 389.707852 -134.617128 
L 389.322269 -136.658148 
L 388.936685 -135.327412 
L 388.551102 -136.575751 
L 388.165519 -135.026041 
L 387.779935 -137.885877 
L 387.394352 -139.853297 
L 387.008768 -136.243935 
L 386.623185 -138.446714 
L 386.237602 -122.676023 
L 385.852018 -135.028394 
L 385.466435 -138.415402 
L 385.080851 -133.896858 
L 384.695268 -136.901893 
L 384.309684 -138.247292 
L 383.924101 -121.685294 
L 383.538518 -122.006959 
L 383.152934 -127.638885 
L 382.767351 -136.975465 
L 382.381767 -127.31726 
L 381.996184 -133.586949 
L 381.610601 -134.889039 
L 381.225017 -135.393041 
L 380.839434 -137.311891 
L 380.45385 -134.946921 
L 380.068267 -133.929283 
L 379.682684 -126.320696 
L 379.2971 -136.302005 
L 378.911517 -135.88236 
L 378.525933 -130.583303 
L 378.14035 -121.404889 
L 377.754766 -127.657517 
L 377.369183 -133.206907 
L 376.9836 -130.662917 
L 376.598016 -131.975665 
L 376.212433 -133.549813 
L 375.826849 -133.063542 
L 375.441266 -126.037192 
L 375.055683 -128.07093 
L 374.670099 -132.183834 
L 374.284516 -130.124062 
L 373.898932 -133.805822 
L 373.513349 -135.936679 
L 373.127765 -130.116078 
L 372.742182 -136.321982 
L 372.356599 -135.711256 
L 371.971015 -132.371828 
L 371.585432 -132.607102 
L 371.199848 -119.154955 
L 370.814265 -130.016644 
L 370.428682 -124.994978 
L 370.043098 -132.579651 
L 369.657515 -132.71045 
L 369.271931 -118.566937 
L 368.886348 -132.286009 
L 368.500765 -132.213599 
L 368.115181 -129.094301 
L 367.729598 -127.361488 
L 367.344014 -129.493189 
L 366.958431 -129.482652 
L 366.572847 -131.597252 
L 366.187264 -131.257526 
L 365.801681 -132.283325 
L 365.416097 -126.901329 
L 365.030514 -125.532026 
L 364.64493 -131.931819 
L 364.259347 -119.504435 
L 363.873764 -129.052478 
L 363.48818 -122.715321 
L 363.102597 -119.707621 
L 362.717013 -118.561434 
L 362.33143 -129.522166 
L 361.945847 -119.951094 
L 361.560263 -127.261645 
L 361.17468 -133.11629 
L 360.789096 -128.657176 
L 360.403513 -125.469488 
L 360.017929 -126.569968 
L 359.632346 -126.989984 
L 359.246763 -118.631411 
L 358.861179 -125.961613 
L 358.475596 -117.7055 
L 358.090012 -124.608243 
L 357.704429 -126.102776 
L 357.318846 -127.843228 
L 356.933262 -115.697578 
L 356.547679 -127.567478 
L 356.162095 -125.43794 
L 355.776512 -123.420015 
L 355.390929 -129.23157 
L 355.005345 -125.538529 
L 354.619762 -117.878317 
L 354.234178 -117.895251 
L 353.848595 -124.403738 
L 353.463011 -125.385941 
L 353.077428 -121.042501 
L 352.691845 -128.041927 
L 352.306261 -127.454341 
L 351.920678 -126.502829 
L 351.535094 -123.39077 
L 351.149511 -125.028802 
L 350.763928 -116.718282 
L 350.378344 -120.598583 
L 349.992761 -124.890174 
L 349.607177 -124.067989 
L 349.221594 -115.359911 
L 348.836011 -125.098083 
L 348.450427 -123.91102 
L 348.064844 -125.557971 
L 347.67926 -118.030928 
L 347.293677 -126.397994 
L 346.908093 -128.727801 
L 346.52251 -117.415532 
L 346.136927 -122.684854 
L 345.751343 -122.78881 
L 345.36576 -119.663015 
L 344.980176 -121.321156 
L 344.594593 -123.714105 
L 344.20901 -123.018321 
L 343.823426 -122.151175 
L 343.437843 -121.821663 
L 343.052259 -120.926315 
L 342.666676 -120.575537 
L 342.281092 -117.983476 
L 341.895509 -121.580678 
L 341.509926 -117.674308 
L 341.124342 -115.06408 
L 340.738759 -114.698759 
L 340.353175 -114.390007 
L 339.967592 -120.39831 
L 339.582009 -115.723936 
L 339.196425 -110.869238 
L 338.810842 -116.307247 
L 338.425258 -118.443618 
L 338.039675 -116.060476 
L 337.654092 -112.48365 
L 337.268508 -119.991955 
L 336.882925 -117.898896 
L 336.497341 -119.364724 
L 336.111758 -117.299215 
L 335.726174 -115.751014 
L 335.340591 -114.639088 
L 334.955008 -114.984841 
L 334.569424 -114.243447 
L 334.183841 -116.687582 
L 333.798257 -119.600951 
L 333.412674 -112.005382 
L 333.027091 -112.044498 
L 332.641507 -112.365599 
L 332.255924 -108.000118 
L 331.87034 -112.239047 
L 331.484757 -108.341534 
L 331.099174 -110.95245 
L 330.71359 -108.729084 
L 330.328007 -108.095236 
L 329.942423 -109.283399 
L 329.55684 -109.307401 
L 329.171256 -106.161308 
L 328.785673 -106.985609 
L 328.40009 -106.30412 
L 328.014506 -105.232757 
L 327.628923 -105.237111 
L 327.243339 -111.043162 
L 326.857756 -103.367079 
L 326.472173 -105.936366 
L 326.086589 -107.77986 
L 325.701006 -105.718726 
L 325.315422 -102.637543 
L 324.929839 -107.991712 
L 324.544256 -101.684766 
L 324.158672 -101.75847 
L 323.773089 -102.696052 
L 323.387505 -101.337113 
L 323.001922 -105.626367 
L 322.616338 -102.23884 
L 322.230755 -100.792518 
L 321.845172 -104.845326 
L 321.459588 -99.159063 
L 321.074005 -99.217892 
L 320.688421 -98.224946 
L 320.302838 -99.265524 
L 319.917255 -97.571874 
L 319.531671 -97.121872 
L 319.146088 -97.857446 
L 318.760504 -96.955074 
L 318.374921 -99.324974 
L 317.989338 -95.984149 
L 317.603754 -95.937283 
L 317.218171 -93.814375 
L 316.832587 -93.630311 
L 316.447004 -94.937473 
L 316.06142 -92.266771 
L 315.675837 -93.022009 
L 315.290254 -92.148634 
L 314.90467 -91.591272 
L 314.519087 -89.971613 
L 314.133503 -91.039642 
L 313.74792 -91.746579 
L 313.362337 -90.663258 
L 312.976753 -88.518371 
L 312.59117 -88.277605 
L 312.205586 -87.656496 
L 311.820003 -87.694327 
L 311.434419 -87.194199 
L 311.048836 -88.161379 
L 310.663253 -84.801945 
L 310.277669 -87.23566 
L 309.892086 -80.758907 
L 309.506502 -82.679919 
L 309.120919 -84.521307 
L 308.735336 -81.515311 
L 308.349752 -82.260811 
L 307.964169 -79.707184 
L 307.578585 -79.881526 
L 307.193002 -78.495923 
L 306.807419 -77.265791 
L 306.421835 -74.933771 
L 306.036252 -77.326068 
L 305.650668 -75.734104 
L 305.265085 -75.750912 
L 304.879501 -73.611248 
L 304.493918 -75.298243 
L 304.108335 -71.572489 
L 303.722751 -72.294646 
L 303.337168 -71.193676 
L 302.951584 -69.96767 
L 302.566001 -69.079844 
L 302.180418 -67.905652 
L 301.794834 -66.853546 
L 301.409251 -64.380009 
L 301.023667 -65.781751 
L 300.638084 -66.000123 
L 300.252501 -63.866961 
L 299.866917 -62.601538 
L 299.481334 -63.19758 
L 299.09575 -63.042631 
L 298.710167 -59.342155 
L 298.324583 -60.203936 
L 297.939 -58.870074 
L 297.553417 -58.897134 
L 297.167833 -58.178844 
L 296.78225 -58.519237 
L 296.396666 -59.165599 
L 296.011083 -57.731194 
L 295.6255 -57.410153 
L 295.239916 -57.010216 
L 294.854333 -53.316409 
L 294.468749 -54.241564 
L 294.083166 -53.048031 
L 293.697583 -52.601809 
L 293.311999 -52.253923 
L 292.926416 -51.261126 
L 292.540832 -51.513363 
L 292.155249 -50.244547 
L 291.769665 -50.436838 
L 291.384082 -50.489821 
L 290.998499 -51.01111 
L 290.612915 -49.167069 
L 290.227332 -50.487222 
L 289.841748 -48.526541 
L 289.456165 -49.825447 
L 289.070582 -47.069231 
L 288.684998 -48.904874 
L 288.299415 -49.064141 
L 287.913831 -48.464865 
L 287.528248 -46.591006 
L 287.142665 -48.912936 
L 286.757081 -47.59985 
z
"/>
    </defs>
    <g clip-path="url(#p55c0132cbb)">
     <use xlink:href="#m76e86ff276" x="0" y="179.674375" style="fill: #c0392b; fill-opacity: 0.2"/>
    </g>
   </g>
   <g id="matplotlib.axis_3">
    <g id="xtick_7">
     <g id="line2d_20">
      <path d="M 286.371498 142.118125 
L 286.371498 22.318125 
" clip-path="url(#p55c0132cbb)" style="fill: none; stroke: #b0b0b0; stroke-opacity: 0.3; stroke-width: 0.8; stroke-linecap: square"/>
     </g>
     <g id="line2d_21">
      <g>
       <use xlink:href="#md52ec2ff24" x="286.371498" y="142.118125" style="stroke: #000000; stroke-width: 0.8"/>
      </g>
     </g>
     <g id="text_14">
      <text style="font-size: 10px; font-family: 'DejaVu Sans', 'Bitstream Vera Sans', 'Computer Modern Sans Serif', 'Lucida Grande', 'Verdana', 'Geneva', 'Lucid', 'Arial', 'Helvetica', 'Avant Garde', sans-serif; text-anchor: middle" x="286.371498" y="156.716562" transform="rotate(-0 286.371498 156.716562)">0.0</text>
     </g>
    </g>
    <g id="xtick_8">
     <g id="line2d_22">
      <path d="M 324.026128 142.118125 
L 324.026128 22.318125 
" clip-path="url(#p55c0132cbb)" style="fill: none; stroke: #b0b0b0; stroke-opacity: 0.3; stroke-width: 0.8; stroke-linecap: square"/>
     </g>
     <g id="line2d_23">
      <g>
       <use xlink:href="#md52ec2ff24" x="324.026128" y="142.118125" style="stroke: #000000; stroke-width: 0.8"/>
      </g>
     </g>
     <g id="text_15">
      <text style="font-size: 10px; font-family: 'DejaVu Sans', 'Bitstream Vera Sans', 'Computer Modern Sans Serif', 'Lucida Grande', 'Verdana', 'Geneva', 'Lucid', 'Arial', 'Helvetica', 'Avant Garde', sans-serif; text-anchor: middle" x="324.026128" y="156.716562" transform="rotate(-0 324.026128 156.716562)">0.2</text>
     </g>
    </g>
    <g id="xtick_9">
     <g id="line2d_24">
      <path d="M 361.680758 142.118125 
L 361.680758 22.318125 
" clip-path="url(#p55c0132cbb)" style="fill: none; stroke: #b0b0b0; stroke-opacity: 0.3; stroke-width: 0.8; stroke-linecap: square"/>
     </g>
     <g id="line2d_25">
      <g>
       <use xlink:href="#md52ec2ff24" x="361.680758" y="142.118125" style="stroke: #000000; stroke-width: 0.8"/>
      </g>
     </g>
     <g id="text_16">
      <text style="font-size: 10px; font-family: 'DejaVu Sans', 'Bitstream Vera Sans', 'Computer Modern Sans Serif', 'Lucida Grande', 'Verdana', 'Geneva', 'Lucid', 'Arial', 'Helvetica', 'Avant Garde', sans-serif; text-anchor: middle" x="361.680758" y="156.716562" transform="rotate(-0 361.680758 156.716562)">0.4</text>
     </g>
    </g>
    <g id="xtick_10">
     <g id="line2d_26">
      <path d="M 399.335388 142.118125 
L 399.335388 22.318125 
" clip-path="url(#p55c0132cbb)" style="fill: none; stroke: #b0b0b0; stroke-opacity: 0.3; stroke-width: 0.8; stroke-linecap: square"/>
     </g>
     <g id="line2d_27">
      <g>
       <use xlink:href="#md52ec2ff24" x="399.335388" y="142.118125" style="stroke: #000000; stroke-width: 0.8"/>
      </g>
     </g>
     <g id="text_17">
      <text style="font-size: 10px; font-family: 'DejaVu Sans', 'Bitstream Vera Sans', 'Computer Modern Sans Serif', 'Lucida Grande', 'Verdana', 'Geneva', 'Lucid', 'Arial', 'Helvetica', 'Avant Garde', sans-serif; text-anchor: middle" x="399.335388" y="156.716562" transform="rotate(-0 399.335388 156.716562)">0.6</text>
     </g>
    </g>
    <g id="xtick_11">
     <g id="line2d_28">
      <path d="M 436.990018 142.118125 
L 436.990018 22.318125 
" clip-path="url(#p55c0132cbb)" style="fill: none; stroke: #b0b0b0; stroke-opacity: 0.3; stroke-width: 0.8; stroke-linecap: square"/>
     </g>
     <g id="line2d_29">
      <g>
       <use xlink:href="#md52ec2ff24" x="436.990018" y="142.118125" style="stroke: #000000; stroke-width: 0.8"/>
      </g>
     </g>
     <g id="text_18">
      <text style="font-size: 10px; font-family: 'DejaVu Sans', 'Bitstream Vera Sans', 'Computer Modern Sans Serif', 'Lucida Grande', 'Verdana', 'Geneva', 'Lucid', 'Arial', 'Helvetica', 'Avant Garde', sans-serif; text-anchor: middle" x="436.990018" y="156.716562" transform="rotate(-0 436.990018 156.716562)">0.8</text>
     </g>
    </g>
    <g id="xtick_12">
     <g id="line2d_30">
      <path d="M 474.644648 142.118125 
L 474.644648 22.318125 
" clip-path="url(#p55c0132cbb)" style="fill: none; stroke: #b0b0b0; stroke-opacity: 0.3; stroke-width: 0.8; stroke-linecap: square"/>
     </g>
     <g id="line2d_31">
      <g>
       <use xlink:href="#md52ec2ff24" x="474.644648" y="142.118125" style="stroke: #000000; stroke-width: 0.8"/>
      </g>
     </g>
     <g id="text_19">
      <text style="font-size: 10px; font-family: 'DejaVu Sans', 'Bitstream Vera Sans', 'Computer Modern Sans Serif', 'Lucida Grande', 'Verdana', 'Geneva', 'Lucid', 'Arial', 'Helvetica', 'Avant Garde', sans-serif; text-anchor: middle" x="474.644648" y="156.716562" transform="rotate(-0 474.644648 156.716562)">1.0</text>
     </g>
    </g>
    <g id="text_20">
     <text style="font-size: 10px; font-family: 'DejaVu Sans', 'Bitstream Vera Sans', 'Computer Modern Sans Serif', 'Lucida Grande', 'Verdana', 'Geneva', 'Lucid', 'Arial', 'Helvetica', 'Avant Garde', sans-serif; text-anchor: middle" x="380.646642" y="170.394687" transform="rotate(-0 380.646642 170.394687)">environment step</text>
    </g>
    <g id="text_21">
     <text style="font-size: 10px; font-family: 'DejaVu Sans', 'Bitstream Vera Sans', 'Computer Modern Sans Serif', 'Lucida Grande', 'Verdana', 'Geneva', 'Lucid', 'Arial', 'Helvetica', 'Avant Garde', sans-serif; text-anchor: end" x="483.925159" y="169.394687" transform="rotate(-0 483.925159 169.394687)">1e6</text>
    </g>
   </g>
   <g id="matplotlib.axis_4">
    <g id="ytick_4">
     <g id="line2d_32">
      <path d="M 277.368125 120.754193 
L 483.925159 120.754193 
" clip-path="url(#p55c0132cbb)" style="fill: none; stroke: #b0b0b0; stroke-opacity: 0.3; stroke-width: 0.8; stroke-linecap: square"/>
     </g>
     <g id="line2d_33">
      <g>
       <use xlink:href="#meb23fb85bc" x="277.368125" y="120.754193" style="stroke: #000000; stroke-width: 0.8"/>
      </g>
     </g>
    </g>
    <g id="ytick_5">
     <g id="line2d_34">
      <path d="M 277.368125 83.262609 
L 483.925159 83.262609 
" clip-path="url(#p55c0132cbb)" style="fill: none; stroke: #b0b0b0; stroke-opacity: 0.3; stroke-width: 0.8; stroke-linecap: square"/>
     </g>
     <g id="line2d_35">
      <g>
       <use xlink:href="#meb23fb85bc" x="277.368125" y="83.262609" style="stroke: #000000; stroke-width: 0.8"/>
      </g>
     </g>
    </g>
    <g id="ytick_6">
     <g id="line2d_36">
      <path d="M 277.368125 45.771026 
L 483.925159 45.771026 
" clip-path="url(#p55c0132cbb)" style="fill: none; stroke: #b0b0b0; stroke-opacity: 0.3; stroke-width: 0.8; stroke-linecap: square"/>
     </g>
     <g id="line2d_37">
      <g>
       <use xlink:href="#meb23fb85bc" x="277.368125" y="45.771026" style="stroke: #000000; stroke-width: 0.8"/>
      </g>
     </g>
    </g>
   </g>
   <g id="line2d_38">
    <path d="M 286.757081 134.373598 
L 287.142665 132.274367 
L 287.528248 134.499245 
L 287.913831 133.143777 
L 288.299415 132.711007 
L 288.684998 132.56593 
L 289.070582 133.42181 
L 289.456165 131.253489 
L 289.841748 132.264067 
L 290.227332 129.879207 
L 290.612915 132.06878 
L 290.998499 130.777222 
L 291.384082 131.243148 
L 291.769665 130.058631 
L 292.155249 130.710153 
L 292.540832 128.662707 
L 292.926416 129.658163 
L 293.311999 129.391861 
L 293.697583 128.755744 
L 294.083166 128.60516 
L 294.468749 126.840352 
L 294.854333 127.03524 
L 295.239916 125.45378 
L 295.6255 125.066592 
L 296.011083 123.619339 
L 296.396666 123.066559 
L 296.78225 123.51186 
L 297.167833 124.295402 
L 297.553417 124.060309 
L 297.939 124.067885 
L 298.324583 121.490648 
L 298.710167 121.595049 
L 299.481334 118.488397 
L 299.866917 118.693085 
L 300.252501 119.042294 
L 300.638084 117.183987 
L 301.023667 116.7377 
L 301.409251 117.525713 
L 302.180418 115.486118 
L 302.566001 113.835504 
L 302.951584 113.084893 
L 303.337168 114.37487 
L 303.722751 111.118517 
L 304.108335 111.184501 
L 304.493918 108.096377 
L 304.879501 109.047224 
L 305.265085 110.523028 
L 305.650668 108.502298 
L 306.036252 109.217893 
L 306.807419 105.809485 
L 307.578585 102.812783 
L 307.964169 104.015089 
L 308.349752 104.094316 
L 308.735336 101.688254 
L 309.120919 102.804647 
L 309.506502 99.89984 
L 310.277669 101.931352 
L 310.663253 99.363522 
L 311.048836 100.375283 
L 311.820003 94.717609 
L 312.205586 97.251075 
L 312.59117 94.475747 
L 312.976753 94.590396 
L 313.362337 95.105962 
L 313.74792 91.212593 
L 314.133503 96.427175 
L 314.519087 92.098543 
L 314.90467 90.016472 
L 315.290254 89.735207 
L 315.675837 89.003071 
L 316.06142 93.778116 
L 316.447004 88.263036 
L 316.832587 88.21239 
L 317.218171 87.47758 
L 317.603754 85.932735 
L 317.989338 86.44309 
L 318.374921 89.727822 
L 318.760504 85.180638 
L 319.146088 84.341278 
L 319.531671 84.60929 
L 320.302838 83.22632 
L 320.688421 83.033302 
L 321.074005 83.137033 
L 321.459588 83.000429 
L 321.845172 79.616526 
L 322.230755 80.940582 
L 322.616338 80.636672 
L 323.001922 78.281371 
L 323.387505 82.249025 
L 323.773089 79.465003 
L 324.158672 80.351507 
L 324.544256 79.859659 
L 324.929839 76.407901 
L 325.315422 79.166961 
L 326.086589 76.23431 
L 326.472173 76.572126 
L 326.857756 77.598843 
L 327.243339 74.063414 
L 327.628923 76.308167 
L 328.014506 76.79852 
L 328.785673 75.508056 
L 329.171256 77.063201 
L 329.55684 73.670395 
L 329.942423 73.972592 
L 330.328007 73.607156 
L 330.71359 73.636629 
L 331.099174 72.984977 
L 331.484757 78.666111 
L 331.87034 71.938894 
L 332.255924 75.443315 
L 332.641507 72.035721 
L 333.027091 72.115926 
L 333.412674 71.97766 
L 333.798257 68.34647 
L 334.183841 70.418114 
L 334.569424 70.415208 
L 334.955008 69.020252 
L 335.340591 69.435812 
L 335.726174 69.391407 
L 336.111758 68.879328 
L 336.497341 68.094315 
L 336.882925 68.860752 
L 337.268508 67.290728 
L 337.654092 70.257176 
L 338.039675 68.681439 
L 338.425258 68.32539 
L 338.810842 68.253571 
L 339.196425 73.723115 
L 339.582009 68.234288 
L 339.967592 73.26499 
L 340.353175 68.348299 
L 340.738759 72.656076 
L 341.124342 72.716669 
L 341.509926 68.221373 
L 341.895509 73.267253 
L 342.281092 67.223904 
L 342.666676 65.478563 
L 343.052259 65.784864 
L 343.437843 64.904498 
L 343.823426 64.777319 
L 344.20901 64.406701 
L 344.594593 63.555162 
L 344.980176 65.646293 
L 345.36576 66.306455 
L 345.751343 63.775095 
L 346.136927 64.275904 
L 346.52251 71.9322 
L 346.908093 70.076729 
L 347.293677 63.797308 
L 347.67926 65.388709 
L 348.064844 62.617979 
L 348.450427 62.957617 
L 348.836011 63.055755 
L 349.221594 70.322766 
L 349.607177 63.574489 
L 349.992761 62.913124 
L 350.763928 66.467499 
L 351.149511 62.424651 
L 351.535094 63.318201 
L 351.920678 61.452776 
L 352.306261 61.809792 
L 352.691845 61.339779 
L 353.077428 71.905273 
L 353.463011 70.059313 
L 353.848595 62.035168 
L 354.234178 69.442846 
L 354.619762 64.667455 
L 355.005345 61.711549 
L 355.390929 60.380469 
L 355.776512 61.80009 
L 356.547679 61.271674 
L 356.933262 65.917865 
L 357.318846 60.495344 
L 358.090012 61.248909 
L 358.475596 66.394445 
L 358.861179 60.435713 
L 359.246763 63.162837 
L 359.632346 63.668368 
L 360.017929 60.146386 
L 360.403513 60.750662 
L 360.789096 59.575907 
L 361.17468 57.735101 
L 361.560263 60.433418 
L 361.945847 65.883525 
L 362.33143 58.859067 
L 363.102597 66.738401 
L 363.48818 61.403507 
L 363.873764 59.003325 
L 364.259347 66.430794 
L 364.64493 57.628969 
L 365.030514 60.235027 
L 365.416097 59.437187 
L 365.801681 58.098881 
L 366.187264 57.734243 
L 366.572847 59.305487 
L 366.958431 58.525265 
L 367.344014 58.231617 
L 367.729598 59.540959 
L 368.500765 56.728598 
L 368.886348 57.392117 
L 369.271931 62.545298 
L 369.657515 56.614475 
L 370.043098 56.66417 
L 370.428682 69.090818 
L 370.814265 57.656176 
L 371.199848 62.744214 
L 371.585432 57.538892 
L 371.971015 56.462503 
L 372.356599 56.592125 
L 372.742182 55.675205 
L 373.127765 57.019937 
L 373.513349 55.186579 
L 374.284516 57.50152 
L 374.670099 56.425887 
L 375.055683 58.223639 
L 375.441266 59.219857 
L 375.826849 56.488106 
L 376.598016 56.514863 
L 376.9836 57.721574 
L 377.369183 56.213423 
L 377.754766 58.094848 
L 378.14035 61.899812 
L 378.525933 56.689864 
L 378.911517 54.847847 
L 379.2971 54.572996 
L 379.682684 58.328037 
L 380.068267 56.1509 
L 380.839434 53.865126 
L 381.225017 54.707944 
L 381.610601 54.844833 
L 381.996184 55.141357 
L 382.381767 57.413103 
L 382.767351 54.03828 
L 383.152934 57.29068 
L 383.538518 61.648689 
L 383.924101 61.531987 
L 384.309684 53.892799 
L 384.695268 53.650279 
L 385.080851 54.989349 
L 385.466435 53.911168 
L 385.852018 55.300765 
L 386.237602 61.362654 
L 386.623185 53.126978 
L 387.008768 53.968347 
L 387.394352 53.099899 
L 387.779935 52.740413 
L 388.165519 53.918459 
L 388.551102 53.428057 
L 388.936685 54.004403 
L 389.322269 53.91055 
L 389.707852 54.263424 
L 390.093436 53.031176 
L 390.479019 55.605115 
L 390.864602 52.462272 
L 391.250186 52.602225 
L 391.635769 56.667098 
L 392.021353 62.01157 
L 392.406936 54.054118 
L 392.79252 52.35338 
L 393.178103 54.517933 
L 393.563686 52.934133 
L 393.94927 53.663384 
L 394.334853 58.542997 
L 394.720437 51.837296 
L 395.10602 53.979692 
L 395.491603 60.312976 
L 395.877187 53.614164 
L 396.26277 56.623109 
L 396.648354 54.490124 
L 397.033937 51.648746 
L 397.41952 54.268958 
L 397.805104 51.403847 
L 398.576271 52.043863 
L 398.961854 51.416733 
L 399.347438 52.480175 
L 399.733021 51.430176 
L 400.118604 55.350124 
L 400.504188 53.718179 
L 400.889771 50.566463 
L 401.660938 52.832358 
L 402.432105 50.556514 
L 402.817688 51.381579 
L 403.203272 50.769244 
L 403.588855 58.675894 
L 403.974438 51.341858 
L 404.360022 56.35869 
L 404.745605 50.724669 
L 405.131189 50.827626 
L 405.516772 59.088432 
L 405.902356 50.247604 
L 406.287939 58.382904 
L 406.673522 50.07593 
L 407.059106 53.212866 
L 407.444689 50.159177 
L 407.830273 50.906574 
L 408.215856 49.981061 
L 408.601439 55.282766 
L 408.987023 50.20525 
L 409.372606 49.703205 
L 409.75819 59.140276 
L 410.143773 50.335053 
L 410.529357 51.797274 
L 410.91494 49.24408 
L 411.300523 50.210264 
L 411.686107 50.482648 
L 412.07169 48.85292 
L 412.457274 49.609782 
L 412.842857 50.67573 
L 413.22844 55.090799 
L 413.614024 49.905147 
L 413.999607 54.121947 
L 414.385191 48.727647 
L 414.770774 55.077696 
L 415.156357 53.697445 
L 415.541941 49.25971 
L 415.927524 59.353708 
L 416.313108 49.611229 
L 416.698691 49.185436 
L 417.084275 55.834977 
L 417.469858 56.086537 
L 417.855441 49.366003 
L 418.241025 49.672836 
L 418.626608 47.77643 
L 419.012192 49.327794 
L 419.397775 49.026448 
L 419.783358 49.22748 
L 420.168942 49.247453 
L 420.554525 48.945461 
L 420.940109 50.706479 
L 421.325692 50.492506 
L 421.711275 50.098026 
L 422.096859 48.498651 
L 422.482442 50.150185 
L 422.868026 48.322085 
L 423.253609 51.722964 
L 423.639193 49.050794 
L 424.024776 49.315369 
L 424.410359 48.428639 
L 424.795943 55.939145 
L 425.181526 48.636671 
L 425.56711 48.596652 
L 425.952693 48.77229 
L 426.338276 48.066383 
L 427.109443 49.390896 
L 427.495027 47.319703 
L 427.88061 48.403334 
L 428.266193 48.201329 
L 428.651777 55.141567 
L 429.03736 47.620548 
L 429.808527 49.248735 
L 430.194111 57.103362 
L 430.579694 48.032277 
L 430.965277 49.332213 
L 431.350861 48.650961 
L 431.736444 55.033157 
L 432.122028 50.656012 
L 432.507611 47.841564 
L 432.893194 47.857001 
L 433.278778 49.464936 
L 433.664361 55.098751 
L 434.049945 48.026851 
L 434.435528 48.901849 
L 434.821112 48.419501 
L 435.206695 54.262656 
L 435.592278 47.075962 
L 435.977862 47.707656 
L 436.363445 48.671005 
L 436.749029 48.031664 
L 437.134612 48.23409 
L 437.520195 48.569698 
L 437.905779 49.314829 
L 438.291362 48.071698 
L 438.676946 48.536582 
L 439.062529 47.09182 
L 439.448112 46.89171 
L 439.833696 49.295246 
L 440.219279 47.132597 
L 440.604863 47.550105 
L 440.990446 55.913272 
L 441.37603 48.044509 
L 441.761613 48.824136 
L 442.147196 47.921911 
L 442.53278 48.268647 
L 442.918363 47.363704 
L 443.68953 46.473435 
L 444.075113 52.685524 
L 444.460697 49.42596 
L 444.84628 53.98167 
L 445.231864 53.259966 
L 445.617447 46.913536 
L 446.00303 46.354689 
L 446.388614 48.84508 
L 446.774197 45.733084 
L 447.159781 49.824192 
L 447.545364 45.701641 
L 447.930948 47.878568 
L 448.316531 46.420731 
L 448.702114 47.924645 
L 449.087698 47.233506 
L 449.473281 48.271452 
L 449.858865 47.987842 
L 450.244448 46.714328 
L 450.630031 51.172731 
L 451.015615 45.197962 
L 451.401198 44.608932 
L 451.786782 49.691015 
L 452.172365 45.846701 
L 452.557948 45.907386 
L 452.943532 46.860907 
L 453.329115 45.627084 
L 453.714699 46.184367 
L 454.100282 47.530703 
L 454.485866 50.492525 
L 454.871449 48.085445 
L 455.257032 48.214616 
L 455.642616 53.189864 
L 456.028199 45.160703 
L 456.413783 47.278004 
L 456.799366 47.278364 
L 457.184949 46.38417 
L 457.570533 46.143648 
L 457.956116 48.023108 
L 458.3417 46.278992 
L 458.727283 45.376313 
L 459.112866 52.884562 
L 459.49845 46.484109 
L 459.884033 45.248351 
L 460.269617 46.386613 
L 460.6552 47.107324 
L 461.040784 45.443042 
L 461.426367 46.533201 
L 461.81195 46.85652 
L 462.197534 45.56185 
L 462.583117 46.045043 
L 462.968701 45.665217 
L 463.354284 45.617879 
L 463.739867 44.637905 
L 464.125451 46.375498 
L 464.511034 46.27801 
L 464.896618 45.203163 
L 465.282201 54.390771 
L 465.667785 56.187688 
L 466.053368 45.488442 
L 466.438951 51.370773 
L 466.824535 54.103974 
L 467.210118 53.37571 
L 467.595702 53.428351 
L 467.981285 50.083119 
L 468.366868 44.897769 
L 468.752452 53.716222 
L 469.138035 46.381319 
L 469.523619 45.355539 
L 469.909202 47.477862 
L 470.294785 44.994701 
L 470.680369 44.325694 
L 471.065952 45.026202 
L 471.451536 44.918199 
L 471.837119 45.123957 
L 472.222703 46.569531 
L 472.608286 46.376715 
L 472.993869 48.699907 
L 473.765036 44.754418 
L 474.15062 45.262955 
L 474.536203 52.61387 
L 474.536203 52.61387 
" clip-path="url(#p55c0132cbb)" style="fill: none; stroke: #c0392b; stroke-width: 1.5; stroke-linecap: square"/>
   </g>
   <g id="patch_8">
    <path d="M 277.368125 142.118125 
L 277.368125 22.318125 
" style="fill: none; stroke: #000000; stroke-width: 0.8; stroke-linejoin: miter; stroke-linecap: square"/>
   </g>
   <g id="patch_9">
    <path d="M 483.925159 142.118125 
L 483.925159 22.318125 
" style="fill: none; stroke: #000000; stroke-width: 0.8; stroke-linejoin: miter; stroke-linecap: square"/>
   </g>
   <g id="patch_10">
    <path d="M 277.368125 142.118125 
L 483.925159 142.118125 
" style="fill: none; stroke: #000000; stroke-width: 0.8; stroke-linejoin: miter; stroke-linecap: square"/>
   </g>
   <g id="patch_11">
    <path d="M 277.368125 22.318125 
L 483.925159 22.318125 
" style="fill: none; stroke: #000000; stroke-width: 0.8; stroke-linejoin: miter; stroke-linecap: square"/>
   </g>
   <g id="text_22">
    <text style="font-size: 12px; font-family: 'DejaVu Sans', 'Bitstream Vera Sans', 'Computer Modern Sans Serif', 'Lucida Grande', 'Verdana', 'Geneva', 'Lucid', 'Arial', 'Helvetica', 'Avant Garde', sans-serif; text-anchor: middle" x="380.646642" y="16.318125" transform="rotate(-0 380.646642 16.318125)">per-sample KL</text>
   </g>
  </g>
 </g>
 <defs>
  <clipPath id="p8b4d8f18ea">
   <rect x="53.328125" y="22.318125" width="206.557034" height="119.8"/>
  </clipPath>
  <clipPath id="p55c0132cbb">
   <rect x="277.368125" y="22.318125" width="206.557034" height="119.8"/>
  </clipPath>
 </defs>
</svg>
