<?xml version="1.0" encoding="utf-8" standalone="no"?>
<!DOCTYPE svg PUBLIC "-//W3C//DTD SVG 1.1//EN"
  "http://www.w3.org/Graphics/SVG/1.1/DTD/svg11.dtd">
<svg xmlns:xlink="http://www.w3.org/1999/xlink" width="493.132659pt" height="179.674375pt" viewBox="0 0 493.132659 179.674375" xmlns="http://www.w3.org/2000/svg" version="1.1">
 <metadata>
  <rdf:RDF xmlns:dc="http://purl.org/dc/elements/1.1/" xmlns:cc="http://creativecommons.org/ns#" xmlns:rdf="http://www.w3.org/1999/02/22-rdf-syntax-ns#">
   <cc:Work>
    <dc:type rdf:resource="http://purl.org/dc/dcmitype/StillImage"/>
    <dc:format>image/svg+xml</dc:format>
    <dc:creator>
     <cc:Agent>
      <dc:title>Matplotlib v3.10.9, https://matplotlib.org/</dc:title>
     </cc:Agent>
    </dc:creator>
   </cc:Work>
  </rdf:RDF>
 </metadata>
 <defs>
  <style type="text/css">*{stroke-linejoin: round; stroke-linecap: butt}</style>
 </defs>
 <g id="figure_1">
  <g id="patch_1">
   <path d="M 0 179.674375 
L 493.132659 179.674375 
L 493.132659 0 
L 0 0 
z
" style="fill: #ffffff"/>
  </g>
  <g id="axes_1">
   <g id="patch_2">
    <path d="M 46.965625 142.118125 
L 257.707659 142.118125 
L 257.707659 22.318125 
L 46.965625 22.318125 
z
" style="fill: #ffffff"/>
   </g>
   <g id="FillBetweenPolyCollection_1">
    <defs>
     <path id="m6a5627316d" d="M 56.544808 -43.302107 
L 56.544808 -43.001705 
L 56.938204 -43.469112 
L 57.3316 -44.278418 
L 57.724995 -44.685151 
L 58.118391 -45.729488 
L 58.511786 -45.506546 
L 58.905182 -46.969151 
L 59.298578 -48.21206 
L 59.691973 -49.665973 
L 60.085369 -51.755614 
L 60.478765 -53.481295 
L 60.87216 -55.235686 
L 61.265556 -56.772237 
L 61.658951 -58.223865 
L 62.052347 -60.174724 
L 62.445743 -62.749032 
L 62.839138 -65.560761 
L 63.232534 -68.511411 
L 63.62593 -67.493907 
L 64.019325 -69.184703 
L 64.412721 -73.691486 
L 64.806116 -73.165699 
L 65.199512 -74.682019 
L 65.592908 -73.990195 
L 65.986303 -75.092103 
L 66.379699 -74.094072 
L 66.773095 -76.023514 
L 67.16649 -75.516696 
L 67.559886 -78.198782 
L 67.953281 -79.38275 
L 68.346677 -77.298443 
L 68.740073 -79.090363 
L 69.133468 -79.546649 
L 69.526864 -79.999741 
L 69.920259 -80.430129 
L 70.313655 -81.726102 
L 70.707051 -80.062915 
L 71.100446 -82.785298 
L 71.493842 -82.592823 
L 71.887238 -84.083022 
L 72.280633 -82.234075 
L 72.674029 -83.362067 
L 73.067424 -86.258932 
L 73.46082 -82.443028 
L 73.854216 -87.745479 
L 74.247611 -82.740099 
L 74.641007 -85.196169 
L 75.034403 -86.324498 
L 75.427798 -85.206065 
L 75.821194 -84.40274 
L 76.214589 -86.721674 
L 76.607985 -86.621167 
L 77.001381 -86.363326 
L 77.394776 -86.660425 
L 77.788172 -86.650697 
L 78.181568 -87.129358 
L 78.574963 -88.42065 
L 78.968359 -85.271728 
L 79.361754 -89.136487 
L 79.75515 -83.944884 
L 80.148546 -87.190881 
L 80.541941 -88.39477 
L 80.935337 -90.465202 
L 81.328732 -88.603485 
L 81.722128 -88.886475 
L 82.115524 -89.910399 
L 82.508919 -90.069132 
L 82.902315 -90.762877 
L 83.295711 -88.823178 
L 83.689106 -89.441404 
L 84.082502 -86.89639 
L 84.475897 -88.664982 
L 84.869293 -89.891258 
L 85.262689 -91.949518 
L 85.656084 -90.133425 
L 86.04948 -89.758985 
L 86.442876 -93.562244 
L 86.836271 -90.075224 
L 87.229667 -88.988677 
L 87.623062 -93.187613 
L 88.016458 -90.764483 
L 88.409854 -89.242161 
L 88.803249 -91.831248 
L 89.196645 -93.136184 
L 89.590041 -92.907247 
L 89.983436 -92.733826 
L 90.376832 -91.021516 
L 90.770227 -90.955893 
L 91.163623 -91.506236 
L 91.557019 -92.31308 
L 91.950414 -92.060427 
L 92.34381 -93.827219 
L 92.737205 -94.599237 
L 93.130601 -92.957531 
L 93.523997 -92.498135 
L 93.917392 -91.643941 
L 94.310788 -91.668063 
L 94.704184 -89.748718 
L 95.097579 -93.800542 
L 95.490975 -91.704808 
L 95.88437 -90.899447 
L 96.277766 -92.427015 
L 96.671162 -96.819919 
L 97.064557 -90.976048 
L 97.457953 -93.531543 
L 97.851349 -94.987613 
L 98.244744 -98.851811 
L 98.63814 -91.720148 
L 99.031535 -95.334074 
L 99.424931 -96.461007 
L 99.818327 -94.877762 
L 100.211722 -94.481359 
L 100.605118 -96.093304 
L 100.998514 -94.852714 
L 101.391909 -96.717282 
L 101.785305 -96.424219 
L 102.1787 -96.322789 
L 102.572096 -93.655791 
L 102.965492 -93.98064 
L 103.358887 -96.145358 
L 103.752283 -95.95781 
L 104.145678 -96.16229 
L 104.539074 -97.87123 
L 104.93247 -99.478708 
L 105.325865 -94.989483 
L 105.719261 -97.883815 
L 106.112657 -92.161939 
L 106.506052 -99.742618 
L 106.899448 -96.443687 
L 107.292843 -97.251686 
L 107.686239 -96.952231 
L 108.079635 -99.614878 
L 108.47303 -96.429109 
L 108.866426 -99.210333 
L 109.259822 -96.666447 
L 109.653217 -98.093459 
L 110.046613 -99.906248 
L 110.440008 -99.211673 
L 110.833404 -98.607259 
L 111.2268 -99.733232 
L 111.620195 -99.292965 
L 112.013591 -94.725638 
L 112.406987 -96.432764 
L 112.800382 -95.904937 
L 113.193778 -95.862314 
L 113.587173 -98.831832 
L 113.980569 -98.481669 
L 114.373965 -96.686128 
L 114.76736 -94.125638 
L 115.160756 -97.332969 
L 115.554151 -96.681546 
L 115.947547 -102.902404 
L 116.340943 -98.495061 
L 116.734338 -101.214724 
L 117.127734 -100.28791 
L 117.52113 -101.591611 
L 117.914525 -104.473566 
L 118.307921 -101.774655 
L 118.701316 -101.663749 
L 119.094712 -100.485739 
L 119.488108 -100.473789 
L 119.881503 -100.626534 
L 120.274899 -98.897414 
L 120.668295 -100.994542 
L 121.06169 -100.11677 
L 121.455086 -102.060115 
L 121.848481 -99.709563 
L 122.241877 -96.090096 
L 122.635273 -96.421547 
L 123.028668 -97.6969 
L 123.422064 -102.704418 
L 123.81546 -98.885821 
L 124.208855 -98.868345 
L 124.602251 -98.820089 
L 124.995646 -101.296495 
L 125.389042 -102.819354 
L 125.782438 -100.955842 
L 126.175833 -97.429866 
L 126.569229 -100.827336 
L 126.962624 -99.902429 
L 127.35602 -98.058976 
L 127.749416 -99.840766 
L 128.142811 -100.200279 
L 128.536207 -104.098561 
L 128.929603 -100.207373 
L 129.322998 -96.781982 
L 129.716394 -99.248161 
L 130.109789 -102.927684 
L 130.503185 -101.540596 
L 130.896581 -102.876267 
L 131.289976 -103.260697 
L 131.683372 -98.157495 
L 132.076768 -98.619755 
L 132.470163 -102.032827 
L 132.863559 -97.57563 
L 133.256954 -100.441682 
L 133.65035 -105.205682 
L 134.043746 -102.890305 
L 134.437141 -100.589432 
L 134.830537 -97.595588 
L 135.223933 -104.594738 
L 135.617328 -101.499593 
L 136.010724 -100.004673 
L 136.404119 -102.104344 
L 136.797515 -99.157614 
L 137.190911 -103.2147 
L 137.584306 -97.797555 
L 137.977702 -100.502172 
L 138.371098 -101.027255 
L 138.764493 -102.20834 
L 139.157889 -100.527964 
L 139.551284 -99.893552 
L 139.94468 -99.901678 
L 140.338076 -102.145011 
L 140.731471 -97.664265 
L 141.124867 -100.137722 
L 141.518262 -101.431389 
L 141.911658 -100.853137 
L 142.305054 -101.644087 
L 142.698449 -103.828632 
L 143.091845 -103.12616 
L 143.485241 -101.103604 
L 143.878636 -105.018541 
L 144.272032 -99.607241 
L 144.665427 -101.451109 
L 145.058823 -105.512912 
L 145.452219 -103.532895 
L 145.845614 -98.525988 
L 146.23901 -104.068678 
L 146.632406 -102.056055 
L 147.025801 -103.630355 
L 147.419197 -105.589415 
L 147.812592 -106.954682 
L 148.205988 -102.924095 
L 148.599384 -105.202447 
L 148.992779 -104.406543 
L 149.386175 -107.30622 
L 149.779571 -99.702277 
L 150.172966 -103.883881 
L 150.566362 -99.55758 
L 150.959757 -99.868799 
L 151.353153 -103.185325 
L 151.746549 -107.997071 
L 152.139944 -103.198658 
L 152.53334 -105.743872 
L 152.926735 -107.945979 
L 153.320131 -105.091512 
L 153.713527 -103.786663 
L 154.106922 -107.960559 
L 154.500318 -101.575143 
L 154.893714 -104.962624 
L 155.287109 -105.546075 
L 155.680505 -102.548453 
L 156.0739 -102.086965 
L 156.467296 -101.744349 
L 156.860692 -106.514075 
L 157.254087 -105.018868 
L 157.647483 -100.46084 
L 158.040879 -107.012057 
L 158.434274 -105.809131 
L 158.82767 -104.378126 
L 159.221065 -109.468607 
L 159.614461 -103.9544 
L 160.007857 -101.961784 
L 160.401252 -104.034059 
L 160.794648 -107.472981 
L 161.188044 -108.489357 
L 161.581439 -110.012285 
L 161.974835 -104.159762 
L 162.36823 -105.480741 
L 162.761626 -109.06517 
L 163.155022 -107.283315 
L 163.548417 -106.951601 
L 163.941813 -106.210034 
L 164.335208 -107.094933 
L 164.728604 -106.392115 
L 165.122 -107.818235 
L 165.515395 -112.861887 
L 165.908791 -105.929666 
L 166.302187 -108.209856 
L 166.695582 -104.391349 
L 167.088978 -105.753123 
L 167.482373 -107.888188 
L 167.875769 -109.717853 
L 168.269165 -107.543488 
L 168.66256 -106.576751 
L 169.055956 -106.62035 
L 169.449352 -105.276826 
L 169.842747 -110.120574 
L 170.236143 -103.880479 
L 170.629538 -106.932249 
L 171.022934 -108.323091 
L 171.41633 -104.911408 
L 171.809725 -110.104688 
L 172.203121 -113.420836 
L 172.596517 -111.011798 
L 172.989912 -109.190293 
L 173.383308 -106.74465 
L 173.776703 -106.330265 
L 174.170099 -108.256661 
L 174.563495 -106.697736 
L 174.95689 -104.896866 
L 175.350286 -106.360095 
L 175.743681 -104.02445 
L 176.137077 -105.535337 
L 176.530473 -100.350656 
L 176.923868 -113.781466 
L 177.317264 -106.360955 
L 177.71066 -103.671759 
L 178.104055 -109.008593 
L 178.497451 -107.305573 
L 178.890846 -109.072327 
L 179.284242 -104.698248 
L 179.677638 -109.646275 
L 180.071033 -109.017162 
L 180.464429 -104.803049 
L 180.857825 -107.437128 
L 181.25122 -107.91211 
L 181.644616 -109.728161 
L 182.038011 -105.458027 
L 182.431407 -104.266399 
L 182.824803 -107.461912 
L 183.218198 -113.139911 
L 183.611594 -111.719422 
L 184.00499 -108.889851 
L 184.398385 -106.58143 
L 184.791781 -106.99401 
L 185.185176 -106.931375 
L 185.578572 -109.049892 
L 185.971968 -106.056138 
L 186.365363 -110.734762 
L 186.758759 -109.698456 
L 187.152154 -107.432626 
L 187.54555 -105.764861 
L 187.938946 -104.343258 
L 188.332341 -110.188209 
L 188.725737 -107.119252 
L 189.119133 -110.56364 
L 189.512528 -109.486811 
L 189.905924 -108.017582 
L 190.299319 -104.997833 
L 190.692715 -109.769296 
L 191.086111 -110.564629 
L 191.479506 -103.75616 
L 191.872902 -107.892233 
L 192.266298 -109.315147 
L 192.659693 -110.715633 
L 193.053089 -107.67213 
L 193.446484 -109.125384 
L 193.83988 -111.075065 
L 194.233276 -111.994848 
L 194.626671 -110.085618 
L 195.020067 -112.548782 
L 195.413463 -106.304895 
L 195.806858 -109.957088 
L 196.200254 -107.118107 
L 196.593649 -108.766578 
L 196.987045 -111.468849 
L 197.380441 -106.124073 
L 197.773836 -108.149986 
L 198.167232 -109.297269 
L 198.560627 -114.89688 
L 198.954023 -109.733245 
L 199.347419 -108.526929 
L 199.740814 -109.034942 
L 200.13421 -111.526204 
L 200.527606 -104.428224 
L 200.921001 -112.393567 
L 201.314397 -112.598656 
L 201.707792 -110.098235 
L 202.101188 -114.793894 
L 202.494584 -111.043736 
L 202.887979 -112.164274 
L 203.281375 -110.442178 
L 203.674771 -110.564992 
L 204.068166 -117.263237 
L 204.461562 -111.374692 
L 204.854957 -111.278498 
L 205.248353 -107.112308 
L 205.641749 -111.366038 
L 206.035144 -110.787626 
L 206.42854 -114.332982 
L 206.821936 -110.014041 
L 207.215331 -110.346138 
L 207.608727 -111.316676 
L 208.002122 -109.244381 
L 208.395518 -104.714897 
L 208.788914 -114.114974 
L 209.182309 -112.397412 
L 209.575705 -112.690249 
L 209.9691 -110.993522 
L 210.362496 -108.902444 
L 210.755892 -107.743576 
L 211.149287 -112.867692 
L 211.542683 -114.073149 
L 211.936079 -116.618396 
L 212.329474 -112.218843 
L 212.72287 -115.166797 
L 213.116265 -111.411362 
L 213.509661 -112.119896 
L 213.903057 -111.65028 
L 214.296452 -113.465633 
L 214.689848 -115.387288 
L 215.083244 -109.21494 
L 215.476639 -110.986663 
L 215.870035 -115.973181 
L 216.26343 -113.611587 
L 216.656826 -107.869255 
L 217.050222 -113.250125 
L 217.443617 -115.157579 
L 217.837013 -114.630892 
L 218.230409 -113.115328 
L 218.623804 -108.981643 
L 219.0172 -110.561238 
L 219.410595 -113.301562 
L 219.803991 -111.786717 
L 220.197387 -112.227179 
L 220.590782 -114.905521 
L 220.984178 -116.868064 
L 221.377573 -114.970695 
L 221.770969 -116.869129 
L 222.164365 -112.330471 
L 222.55776 -109.796298 
L 222.951156 -112.102012 
L 223.344552 -108.760125 
L 223.737947 -113.503318 
L 224.131343 -118.569506 
L 224.524738 -110.838456 
L 224.918134 -119.947707 
L 225.31153 -115.156457 
L 225.704925 -111.835798 
L 226.098321 -115.939651 
L 226.491717 -109.071724 
L 226.885112 -117.304467 
L 227.278508 -116.231778 
L 227.671903 -111.043244 
L 228.065299 -118.477516 
L 228.458695 -111.219954 
L 228.85209 -114.89141 
L 229.245486 -116.505565 
L 229.638882 -113.759522 
L 230.032277 -110.999341 
L 230.425673 -114.928268 
L 230.819068 -117.173526 
L 231.212464 -114.11857 
L 231.60586 -117.190313 
L 231.999255 -118.336726 
L 232.392651 -108.47228 
L 232.786047 -114.019559 
L 233.179442 -118.91597 
L 233.572838 -116.791554 
L 233.966233 -113.883246 
L 234.359629 -115.005658 
L 234.753025 -118.243819 
L 235.14642 -114.205232 
L 235.539816 -111.083723 
L 235.933211 -110.178642 
L 236.326607 -113.794093 
L 236.720003 -114.643152 
L 237.113398 -112.867699 
L 237.506794 -114.303843 
L 237.90019 -114.110117 
L 238.293585 -116.282639 
L 238.686981 -118.585662 
L 239.080376 -111.543266 
L 239.473772 -117.332952 
L 239.867168 -115.842676 
L 240.260563 -109.698731 
L 240.653959 -121.851579 
L 241.047355 -114.469927 
L 241.44075 -113.457761 
L 241.834146 -115.394919 
L 242.227541 -112.095147 
L 242.620937 -116.347371 
L 243.014333 -113.569414 
L 243.407728 -112.195127 
L 243.801124 -119.758174 
L 244.19452 -113.178124 
L 244.587915 -120.094351 
L 244.981311 -117.315603 
L 245.374706 -114.85444 
L 245.768102 -114.0518 
L 246.161498 -115.026432 
L 246.554893 -121.1602 
L 246.948289 -119.120743 
L 247.341684 -110.138225 
L 247.73508 -114.790768 
L 248.128476 -120.094173 
L 248.128476 -136.000508 
L 248.128476 -136.000508 
L 247.73508 -136.109188 
L 247.341684 -141.715533 
L 246.948289 -143.092199 
L 246.554893 -135.039517 
L 246.161498 -135.399981 
L 245.768102 -134.697105 
L 245.374706 -135.672164 
L 244.981311 -131.346054 
L 244.587915 -138.1812 
L 244.19452 -132.671589 
L 243.801124 -136.210636 
L 243.407728 -148.668949 
L 243.014333 -139.883807 
L 242.620937 -141.826323 
L 242.227541 -126.916868 
L 241.834146 -142.979509 
L 241.44075 -133.094221 
L 241.047355 -137.275864 
L 240.653959 -137.75732 
L 240.260563 -132.397876 
L 239.867168 -143.703077 
L 239.473772 -137.844499 
L 239.080376 -147.991036 
L 238.686981 -145.658692 
L 238.293585 -138.949891 
L 237.90019 -142.362389 
L 237.506794 -141.370836 
L 237.113398 -142.987702 
L 236.720003 -151.910795 
L 236.326607 -135.431675 
L 235.933211 -147.672273 
L 235.539816 -134.39271 
L 235.14642 -138.058867 
L 234.753025 -134.254882 
L 234.359629 -129.670355 
L 233.966233 -135.135463 
L 233.572838 -144.662672 
L 233.179442 -140.343547 
L 232.786047 -135.64716 
L 232.392651 -142.434238 
L 231.999255 -135.29995 
L 231.60586 -141.49315 
L 231.212464 -132.018119 
L 230.819068 -137.932809 
L 230.425673 -135.723909 
L 230.032277 -140.004013 
L 229.638882 -137.321556 
L 229.245486 -140.209224 
L 228.85209 -137.559712 
L 228.458695 -135.345931 
L 228.065299 -139.248511 
L 227.671903 -139.006235 
L 227.278508 -135.217462 
L 226.885112 -143.060439 
L 226.491717 -134.482207 
L 226.098321 -131.208226 
L 225.704925 -131.536649 
L 225.31153 -141.020952 
L 224.918134 -138.278403 
L 224.524738 -138.663645 
L 224.131343 -141.004804 
L 223.737947 -137.052805 
L 223.344552 -133.774134 
L 222.951156 -133.059504 
L 222.55776 -133.252271 
L 222.164365 -135.601183 
L 221.770969 -135.926153 
L 221.377573 -137.068205 
L 220.984178 -139.056571 
L 220.590782 -137.003256 
L 220.197387 -139.966594 
L 219.803991 -133.398668 
L 219.410595 -138.054594 
L 219.0172 -142.498947 
L 218.623804 -135.469055 
L 218.230409 -138.603537 
L 217.837013 -136.955755 
L 217.443617 -133.047006 
L 217.050222 -138.447324 
L 216.656826 -136.449741 
L 216.26343 -126.03628 
L 215.870035 -136.706381 
L 215.476639 -134.618073 
L 215.083244 -130.549163 
L 214.689848 -139.111305 
L 214.296452 -132.757532 
L 213.903057 -137.042873 
L 213.509661 -143.884136 
L 213.116265 -143.420501 
L 212.72287 -132.169428 
L 212.329474 -127.336331 
L 211.936079 -133.135724 
L 211.542683 -137.080691 
L 211.149287 -134.432728 
L 210.755892 -141.79907 
L 210.362496 -131.316198 
L 209.9691 -133.441001 
L 209.575705 -132.364632 
L 209.182309 -135.405069 
L 208.788914 -129.348556 
L 208.395518 -136.695985 
L 208.002122 -129.156729 
L 207.608727 -136.943236 
L 207.215331 -124.986493 
L 206.821936 -135.003332 
L 206.42854 -145.580959 
L 206.035144 -134.431241 
L 205.641749 -132.567429 
L 205.248353 -127.004718 
L 204.854957 -135.543152 
L 204.461562 -133.082578 
L 204.068166 -131.007544 
L 203.674771 -131.552827 
L 203.281375 -123.922319 
L 202.887979 -125.740496 
L 202.494584 -133.508894 
L 202.101188 -128.130694 
L 201.707792 -135.089662 
L 201.314397 -132.436395 
L 200.921001 -132.426161 
L 200.527606 -132.186404 
L 200.13421 -121.120492 
L 199.740814 -126.400941 
L 199.347419 -124.943662 
L 198.954023 -133.649932 
L 198.560627 -127.210735 
L 198.167232 -138.567628 
L 197.773836 -123.952132 
L 197.380441 -128.069408 
L 196.987045 -128.870093 
L 196.593649 -127.273913 
L 196.200254 -119.939714 
L 195.806858 -133.948949 
L 195.413463 -122.589217 
L 195.020067 -135.931144 
L 194.626671 -136.129137 
L 194.233276 -135.430528 
L 193.83988 -133.188966 
L 193.446484 -121.798175 
L 193.053089 -129.162356 
L 192.659693 -124.920453 
L 192.266298 -122.802179 
L 191.872902 -125.394546 
L 191.479506 -122.539972 
L 191.086111 -127.988071 
L 190.692715 -129.107708 
L 190.299319 -121.11047 
L 189.905924 -137.560686 
L 189.512528 -127.903569 
L 189.119133 -130.022045 
L 188.725737 -130.247449 
L 188.332341 -131.747143 
L 187.938946 -130.493102 
L 187.54555 -134.424 
L 187.152154 -128.042949 
L 186.758759 -125.782601 
L 186.365363 -127.868992 
L 185.971968 -129.150806 
L 185.578572 -124.675227 
L 185.185176 -123.857158 
L 184.791781 -128.680776 
L 184.398385 -121.188028 
L 184.00499 -129.284178 
L 183.611594 -138.377018 
L 183.218198 -128.337974 
L 182.824803 -126.84383 
L 182.431407 -121.250944 
L 182.038011 -124.997788 
L 181.644616 -126.259788 
L 181.25122 -129.011944 
L 180.857825 -127.484906 
L 180.464429 -117.080614 
L 180.071033 -123.05875 
L 179.677638 -123.123676 
L 179.284242 -122.077738 
L 178.890846 -128.304922 
L 178.497451 -123.576601 
L 178.104055 -133.084196 
L 177.71066 -124.087783 
L 177.317264 -127.59971 
L 176.923868 -131.843222 
L 176.530473 -130.571315 
L 176.137077 -125.604098 
L 175.743681 -129.460864 
L 175.350286 -128.598223 
L 174.95689 -126.012667 
L 174.563495 -127.140987 
L 174.170099 -130.12877 
L 173.776703 -119.202656 
L 173.383308 -125.370135 
L 172.989912 -126.126552 
L 172.596517 -126.934776 
L 172.203121 -123.93994 
L 171.809725 -124.764949 
L 171.41633 -129.202328 
L 171.022934 -128.863318 
L 170.629538 -124.498464 
L 170.236143 -123.153731 
L 169.842747 -128.400379 
L 169.449352 -118.990769 
L 169.055956 -123.727185 
L 168.66256 -127.983728 
L 168.269165 -122.343921 
L 167.875769 -118.397015 
L 167.482373 -130.220639 
L 167.088978 -128.943265 
L 166.695582 -128.759009 
L 166.302187 -116.793918 
L 165.908791 -125.210582 
L 165.515395 -121.951742 
L 165.122 -124.554385 
L 164.728604 -125.627534 
L 164.335208 -122.105706 
L 163.941813 -123.390396 
L 163.548417 -125.939888 
L 163.155022 -123.312333 
L 162.761626 -118.096361 
L 162.36823 -124.234736 
L 161.974835 -122.426617 
L 161.581439 -122.402311 
L 161.188044 -122.515584 
L 160.794648 -120.106313 
L 160.401252 -119.018241 
L 160.007857 -119.873316 
L 159.614461 -118.428634 
L 159.221065 -125.910587 
L 158.82767 -123.863509 
L 158.434274 -118.017789 
L 158.040879 -115.070192 
L 157.647483 -126.264584 
L 157.254087 -118.908185 
L 156.860692 -116.759525 
L 156.467296 -121.383288 
L 156.0739 -121.58629 
L 155.680505 -120.560494 
L 155.287109 -118.650482 
L 154.893714 -123.149983 
L 154.500318 -117.49187 
L 154.106922 -123.132005 
L 153.713527 -127.994083 
L 153.320131 -127.90892 
L 152.926735 -117.668756 
L 152.53334 -117.92669 
L 152.139944 -122.941597 
L 151.746549 -117.403331 
L 151.353153 -119.284957 
L 150.959757 -120.954127 
L 150.566362 -124.850264 
L 150.172966 -117.055967 
L 149.779571 -121.035483 
L 149.386175 -119.117797 
L 148.992779 -122.656604 
L 148.599384 -123.081773 
L 148.205988 -121.66241 
L 147.812592 -118.764927 
L 147.419197 -120.565488 
L 147.025801 -121.42285 
L 146.632406 -119.224672 
L 146.23901 -114.095408 
L 145.845614 -123.389327 
L 145.452219 -119.671666 
L 145.058823 -121.234452 
L 144.665427 -122.99895 
L 144.272032 -112.548053 
L 143.878636 -117.049875 
L 143.485241 -117.402754 
L 143.091845 -119.962104 
L 142.698449 -123.63568 
L 142.305054 -118.152933 
L 141.911658 -116.424636 
L 141.518262 -121.754033 
L 141.124867 -115.364632 
L 140.731471 -124.560778 
L 140.338076 -117.35185 
L 139.94468 -114.709391 
L 139.551284 -111.872612 
L 139.157889 -114.804275 
L 138.764493 -115.293107 
L 138.371098 -110.697183 
L 137.977702 -118.140167 
L 137.584306 -115.994368 
L 137.190911 -114.898015 
L 136.797515 -120.092602 
L 136.404119 -119.690413 
L 136.010724 -117.514545 
L 135.617328 -123.660007 
L 135.223933 -117.927599 
L 134.830537 -120.578018 
L 134.437141 -116.708571 
L 134.043746 -113.87125 
L 133.65035 -120.057811 
L 133.256954 -109.981817 
L 132.863559 -114.637914 
L 132.470163 -111.12871 
L 132.076768 -116.427633 
L 131.683372 -117.379874 
L 131.289976 -117.164446 
L 130.896581 -114.069108 
L 130.503185 -117.790809 
L 130.109789 -117.693689 
L 129.716394 -119.093774 
L 129.322998 -117.93336 
L 128.929603 -116.402986 
L 128.536207 -119.192221 
L 128.142811 -121.603343 
L 127.749416 -117.599687 
L 127.35602 -118.239364 
L 126.962624 -113.704851 
L 126.569229 -120.421807 
L 126.175833 -116.042731 
L 125.782438 -114.740699 
L 125.389042 -110.427645 
L 124.995646 -118.681724 
L 124.602251 -113.795735 
L 124.208855 -114.799898 
L 123.81546 -113.990772 
L 123.422064 -110.986641 
L 123.028668 -116.62188 
L 122.635273 -112.987941 
L 122.241877 -109.997424 
L 121.848481 -114.393027 
L 121.455086 -114.673287 
L 121.06169 -110.29316 
L 120.668295 -107.173247 
L 120.274899 -119.192293 
L 119.881503 -111.982015 
L 119.488108 -115.636001 
L 119.094712 -114.315344 
L 118.701316 -116.437999 
L 118.307921 -109.979328 
L 117.914525 -109.665884 
L 117.52113 -113.091321 
L 117.127734 -107.381021 
L 116.734338 -108.978658 
L 116.340943 -108.917055 
L 115.947547 -108.147125 
L 115.554151 -114.759211 
L 115.160756 -118.046573 
L 114.76736 -111.356391 
L 114.373965 -112.060834 
L 113.980569 -107.655947 
L 113.587173 -105.576149 
L 113.193778 -114.326876 
L 112.800382 -110.754416 
L 112.406987 -109.952386 
L 112.013591 -104.776266 
L 111.620195 -109.246932 
L 111.2268 -109.170284 
L 110.833404 -105.702555 
L 110.440008 -107.19876 
L 110.046613 -105.536626 
L 109.653217 -108.282774 
L 109.259822 -109.832731 
L 108.866426 -108.308331 
L 108.47303 -109.908065 
L 108.079635 -110.282672 
L 107.686239 -111.628013 
L 107.292843 -110.649906 
L 106.899448 -105.269646 
L 106.506052 -111.998631 
L 106.112657 -109.499783 
L 105.719261 -106.455958 
L 105.325865 -107.590421 
L 104.93247 -101.983727 
L 104.539074 -106.452898 
L 104.145678 -110.771787 
L 103.752283 -109.322503 
L 103.358887 -107.039681 
L 102.965492 -104.481523 
L 102.572096 -108.317625 
L 102.1787 -109.681468 
L 101.785305 -105.467503 
L 101.391909 -106.718229 
L 100.998514 -107.219683 
L 100.605118 -99.686523 
L 100.211722 -99.064451 
L 99.818327 -110.659165 
L 99.424931 -109.829842 
L 99.031535 -107.765873 
L 98.63814 -104.74081 
L 98.244744 -106.766245 
L 97.851349 -103.236977 
L 97.457953 -101.207831 
L 97.064557 -100.910824 
L 96.671162 -100.062926 
L 96.277766 -102.406384 
L 95.88437 -102.258046 
L 95.490975 -97.266411 
L 95.097579 -106.497499 
L 94.704184 -96.826911 
L 94.310788 -104.243326 
L 93.917392 -100.874096 
L 93.523997 -104.167087 
L 93.130601 -99.860329 
L 92.737205 -100.165213 
L 92.34381 -99.612064 
L 91.950414 -102.572667 
L 91.557019 -98.753438 
L 91.163623 -96.899045 
L 90.770227 -98.954064 
L 90.376832 -97.432977 
L 89.983436 -97.614527 
L 89.590041 -100.249381 
L 89.196645 -102.692831 
L 88.803249 -100.494283 
L 88.409854 -101.626786 
L 88.016458 -97.595176 
L 87.623062 -100.104605 
L 87.229667 -97.441479 
L 86.836271 -100.916477 
L 86.442876 -99.1485 
L 86.04948 -100.332046 
L 85.656084 -98.109038 
L 85.262689 -100.438939 
L 84.869293 -98.537077 
L 84.475897 -93.295343 
L 84.082502 -98.759796 
L 83.689106 -97.741475 
L 83.295711 -94.684729 
L 82.902315 -94.425573 
L 82.508919 -95.870742 
L 82.115524 -95.129143 
L 81.722128 -97.805634 
L 81.328732 -93.949191 
L 80.935337 -96.590769 
L 80.541941 -94.863526 
L 80.148546 -94.477198 
L 79.75515 -93.871428 
L 79.361754 -94.842127 
L 78.968359 -92.143166 
L 78.574963 -95.856621 
L 78.181568 -92.57309 
L 77.788172 -91.309785 
L 77.394776 -93.955947 
L 77.001381 -91.449372 
L 76.607985 -94.613815 
L 76.214589 -90.990646 
L 75.821194 -92.527788 
L 75.427798 -90.764242 
L 75.034403 -95.539523 
L 74.641007 -94.209653 
L 74.247611 -88.156264 
L 73.854216 -92.047838 
L 73.46082 -87.006334 
L 73.067424 -89.075504 
L 72.674029 -87.286154 
L 72.280633 -89.855266 
L 71.887238 -89.573039 
L 71.493842 -89.402729 
L 71.100446 -86.715695 
L 70.707051 -85.782252 
L 70.313655 -85.644065 
L 69.920259 -83.784064 
L 69.526864 -84.204392 
L 69.133468 -85.546733 
L 68.740073 -81.599565 
L 68.346677 -85.011326 
L 67.953281 -83.251143 
L 67.559886 -82.721856 
L 67.16649 -80.658778 
L 66.773095 -80.631468 
L 66.379699 -80.406621 
L 65.986303 -79.922302 
L 65.592908 -80.517168 
L 65.199512 -79.848581 
L 64.806116 -76.05024 
L 64.412721 -77.404641 
L 64.019325 -73.059002 
L 63.62593 -74.110816 
L 63.232534 -69.895914 
L 62.839138 -71.744897 
L 62.445743 -68.282825 
L 62.052347 -64.281564 
L 61.658951 -63.277173 
L 61.265556 -62.451227 
L 60.87216 -59.610493 
L 60.478765 -56.802128 
L 60.085369 -54.261453 
L 59.691973 -53.754906 
L 59.298578 -50.86465 
L 58.905182 -50.082513 
L 58.511786 -48.073923 
L 58.118391 -47.025807 
L 57.724995 -45.974964 
L 57.3316 -45.103847 
L 56.938204 -45.13973 
L 56.544808 -43.302107 
z
"/>
    </defs>
    <g clip-path="url(#pd1ea7ff29f)">
     <use xlink:href="#m6a5627316d" x="0" y="179.674375" style="fill: #1f77b4; fill-opacity: 0.2"/>
    </g>
   </g>
   <g id="matplotlib.axis_1">
    <g id="xtick_1">
     <g id="line2d_1">
      <path d="M 56.151413 142.118125 
L 56.151413 22.318125 
" clip-path="url(#pd1ea7ff29f)" style="fill: none; stroke: #b0b0b0; stroke-opacity: 0.3; stroke-width: 0.8; stroke-linecap: square"/>
     </g>
     <g id="line2d_2">
      <defs>
       <path id="md52ec2ff24" d="M 0 0 
L 0 3.5 
" style="stroke: #000000; stroke-width: 0.8"/>
      </defs>
      <g>
       <use xlink:href="#md52ec2ff24" x="56.151413" y="142.118125" style="stroke: #000000; stroke-width: 0.8"/>
      </g>
     </g>
     <g id="text_1">
      <text style="font-size: 10px; font-family: 'DejaVu Sans', 'Bitstream Vera Sans', 'Computer Modern Sans Serif', 'Lucida Grande', 'Verdana', 'Geneva', 'Lucid', 'Arial', 'Helvetica', 'Avant Garde', sans-serif; text-anchor: middle" x="56.151413" y="156.716562" transform="rotate(-0 56.151413 156.716562)">0.0</text>
     </g>
    </g>
    <g id="xtick_2">
     <g id="line2d_3">
      <path d="M 94.568954 142.118125 
L 94.568954 22.318125 
" clip-path="url(#pd1ea7ff29f)" style="fill: none; stroke: #b0b0b0; stroke-opacity: 0.3; stroke-width: 0.8; stroke-linecap: square"/>
     </g>
     <g id="line2d_4">
      <g>
       <use xlink:href="#md52ec2ff24" x="94.568954" y="142.118125" style="stroke: #000000; stroke-width: 0.8"/>
      </g>
     </g>
     <g id="text_2">
      <text style="font-size: 10px; font-family: 'DejaVu Sans', 'Bitstream Vera Sans', 'Computer Modern Sans Serif', 'Lucida Grande', 'Verdana', 'Geneva', 'Lucid', 'Arial', 'Helvetica', 'Avant Garde', sans-serif; text-anchor: middle" x="94.568954" y="156.716562" transform="rotate(-0 94.568954 156.716562)">0.2</text>
     </g>
    </g>
    <g id="xtick_3">
     <g id="line2d_5">
      <path d="M 132.986495 142.118125 
L 132.986495 22.318125 
" clip-path="url(#pd1ea7ff29f)" style="fill: none; stroke: #b0b0b0; stroke-opacity: 0.3; stroke-width: 0.8; stroke-linecap: square"/>
     </g>
     <g id="line2d_6">
      <g>
       <use xlink:href="#md52ec2ff24" x="132.986495" y="142.118125" style="stroke: #000000; stroke-width: 0.8"/>
      </g>
     </g>
     <g id="text_3">
      <text style="font-size: 10px; font-family: 'DejaVu Sans', 'Bitstream Vera Sans', 'Computer Modern Sans Serif', 'Lucida Grande', 'Verdana', 'Geneva', 'Lucid', 'Arial', 'Helvetica', 'Avant Garde', sans-serif; text-anchor: middle" x="132.986495" y="156.716562" transform="rotate(-0 132.986495 156.716562)">0.4</text>
     </g>
    </g>
    <g id="xtick_4">
     <g id="line2d_7">
      <path d="M 171.404036 142.118125 
L 171.404036 22.318125 
" clip-path="url(#pd1ea7ff29f)" style="fill: none; stroke: #b0b0b0; stroke-opacity: 0.3; stroke-width: 0.8; stroke-linecap: square"/>
     </g>
     <g id="line2d_8">
      <g>
       <use xlink:href="#md52ec2ff24" x="171.404036" y="142.118125" style="stroke: #000000; stroke-width: 0.8"/>
      </g>
     </g>
     <g id="text_4">
      <text style="font-size: 10px; font-family: 'DejaVu Sans', 'Bitstream Vera Sans', 'Computer Modern Sans Serif', 'Lucida Grande', 'Verdana', 'Geneva', 'Lucid', 'Arial', 'Helvetica', 'Avant Garde', sans-serif; text-anchor: middle" x="171.404036" y="156.716562" transform="rotate(-0 171.404036 156.716562)">0.6</text>
     </g>
    </g>
    <g id="xtick_5">
     <g id="line2d_9">
      <path d="M 209.821577 142.118125 
L 209.821577 22.318125 
" clip-path="url(#pd1ea7ff29f)" style="fill: none; stroke: #b0b0b0; stroke-opacity: 0.3; stroke-width: 0.8; stroke-linecap: square"/>
     </g>
     <g id="line2d_10">
      <g>
       <use xlink:href="#md52ec2ff24" x="209.821577" y="142.118125" style="stroke: #000000; stroke-width: 0.8"/>
      </g>
     </g>
     <g id="text_5">
      <text style="font-size: 10px; font-family: 'DejaVu Sans', 'Bitstream Vera Sans', 'Computer Modern Sans Serif', 'Lucida Grande', 'Verdana', 'Geneva', 'Lucid', 'Arial', 'Helvetica', 'Avant Garde', sans-serif; text-anchor: middle" x="209.821577" y="156.716562" transform="rotate(-0 209.821577 156.716562)">0.8</text>
     </g>
    </g>
    <g id="xtick_6">
     <g id="line2d_11">
      <path d="M 248.239118 142.118125 
L 248.239118 22.318125 
" clip-path="url(#pd1ea7ff29f)" style="fill: none; stroke: #b0b0b0; stroke-opacity: 0.3; stroke-width: 0.8; stroke-linecap: square"/>
     </g>
     <g id="line2d_12">
      <g>
       <use xlink:href="#md52ec2ff24" x="248.239118" y="142.118125" style="stroke: #000000; stroke-width: 0.8"/>
      </g>
     </g>
     <g id="text_6">
      <text style="font-size: 10px; font-family: 'DejaVu Sans', 'Bitstream Vera Sans', 'Computer Modern Sans Serif', 'Lucida Grande', 'Verdana', 'Geneva', 'Lucid', 'Arial', 'Helvetica', 'Avant Garde', sans-serif; text-anchor: middle" x="248.239118" y="156.716562" transform="rotate(-0 248.239118 156.716562)">1.0</text>
     </g>
    </g>
    <g id="text_7">
     <text style="font-size: 10px; font-family: 'DejaVu Sans', 'Bitstream Vera Sans', 'Computer Modern Sans Serif', 'Lucida Grande', 'Verdana', 'Geneva', 'Lucid', 'Arial', 'Helvetica', 'Avant Garde', sans-serif; text-anchor: middle" x="152.336642" y="170.394687" transform="rotate(-0 152.336642 170.394687)">environment step</text>
    </g>
    <g id="text_8">
     <text style="font-size: 10px; font-family: 'DejaVu Sans', 'Bitstream Vera Sans', 'Computer Modern Sans Serif', 'Lucida Grande', 'Verdana', 'Geneva', 'Lucid', 'Arial', 'Helvetica', 'Avant Garde', sans-serif; text-anchor: end" x="257.707659" y="169.394687" transform="rotate(-0 257.707659 169.394687)">1e6</text>
    </g>
   </g>
   <g id="matplotlib.axis_2">
    <g id="ytick_1">
     <g id="line2d_13">
      <path d="M 46.965625 122.022652 
L 257.707659 122.022652 
" clip-path="url(#pd1ea7ff29f)" style="fill: none; stroke: #b0b0b0; stroke-opacity: 0.3; stroke-width: 0.8; stroke-linecap: square"/>
     </g>
     <g id="line2d_14">
      <defs>
       <path id="meb23fb85bc" d="M 0 0 
L -3.5 0 
" style="stroke: #000000; stroke-width: 0.8"/>
      </defs>
      <g>
       <use xlink:href="#meb23fb85bc" x="46.965625" y="122.022652" style="stroke: #000000; stroke-width: 0.8"/>
      </g>
     </g>
     <g id="text_9">
      <text style="font-size: 10px; font-family: 'DejaVu Sans', 'Bitstream Vera Sans', 'Computer Modern Sans Serif', 'Lucida Grande', 'Verdana', 'Geneva', 'Lucid', 'Arial', 'Helvetica', 'Avant Garde', sans-serif; text-anchor: end" x="39.965625" y="125.821871" transform="rotate(-0 39.965625 125.821871)">200</text>
     </g>
    </g>
    <g id="ytick_2">
     <g id="line2d_15">
      <path d="M 46.965625 91.920168 
L 257.707659 91.920168 
" clip-path="url(#pd1ea7ff29f)" style="fill: none; stroke: #b0b0b0; stroke-opacity: 0.3; stroke-width: 0.8; stroke-linecap: square"/>
     </g>
     <g id="line2d_16">
      <g>
       <use xlink:href="#meb23fb85bc" x="46.965625" y="91.920168" style="stroke: #000000; stroke-width: 0.8"/>
      </g>
     </g>
     <g id="text_10">
      <text style="font-size: 10px; font-family: 'DejaVu Sans', 'Bitstream Vera Sans', 'Computer Modern Sans Serif', 'Lucida Grande', 'Verdana', 'Geneva', 'Lucid', 'Arial', 'Helvetica', 'Avant Garde', sans-serif; text-anchor: end" x="39.965625" y="95.719387" transform="rotate(-0 39.965625 95.719387)">400</text>
     </g>
    </g>
    <g id="ytick_3">
     <g id="line2d_17">
      <path d="M 46.965625 61.817685 
L 257.707659 61.817685 
" clip-path="url(#pd1ea7ff29f)" style="fill: none; stroke: #b0b0b0; stroke-opacity: 0.3; stroke-width: 0.8; stroke-linecap: square"/>
     </g>
     <g id="line2d_18">
      <g>
       <use xlink:href="#meb23fb85bc" x="46.965625" y="61.817685" style="stroke: #000000; stroke-width: 0.8"/>
      </g>
     </g>
     <g id="text_11">
      <text style="font-size: 10px; font-family: 'DejaVu Sans', 'Bitstream Vera Sans', 'Computer Modern Sans Serif', 'Lucida Grande', 'Verdana', 'Geneva', 'Lucid', 'Arial', 'Helvetica', 'Avant Garde', sans-serif; text-anchor: end" x="39.965625" y="65.616903" transform="rotate(-0 39.965625 65.616903)">600</text>
     </g>
    </g>
    <g id="ytick_4">
     <g id="line2d_19">
      <path d="M 46.965625 31.715201 
L 257.707659 31.715201 
" clip-path="url(#pd1ea7ff29f)" style="fill: none; stroke: #b0b0b0; stroke-opacity: 0.3; stroke-width: 0.8; stroke-linecap: square"/>
     </g>
     <g id="line2d_20">
      <g>
       <use xlink:href="#meb23fb85bc" x="46.965625" y="31.715201" style="stroke: #000000; stroke-width: 0.8"/>
      </g>
     </g>
     <g id="text_12">
      <text style="font-size: 10px; font-family: 'DejaVu Sans', 'Bitstream Vera Sans', 'Computer Modern Sans Serif', 'Lucida Grande', 'Verdana', 'Geneva', 'Lucid', 'Arial', 'Helvetica', 'Avant Garde', sans-serif; text-anchor: end" x="39.965625" y="35.51442" transform="rotate(-0 39.965625 35.51442)">800</text>
     </g>
    </g>
    <g id="text_13">
     <text style="font-size: 10px; font-family: 'DejaVu Sans', 'Bitstream Vera Sans', 'Computer Modern Sans Serif', 'Lucida Grande', 'Verdana', 'Geneva', 'Lucid', 'Arial', 'Helvetica', 'Avant Garde', sans-serif; text-anchor: middle" x="14.798438" y="82.218125" transform="rotate(-90 14.798438 82.218125)">episode return</text>
    </g>
   </g>
   <g id="line2d_21">
    <path d="M 56.544808 136.522469 
L 56.938204 135.369954 
L 57.3316 134.983242 
L 57.724995 134.344317 
L 58.118391 133.296728 
L 58.511786 132.884141 
L 58.905182 131.148543 
L 59.298578 130.13602 
L 59.691973 127.963935 
L 60.085369 126.665841 
L 61.265556 120.062643 
L 62.052347 117.446231 
L 62.839138 111.021546 
L 63.232534 110.470713 
L 63.62593 108.872014 
L 64.019325 108.552523 
L 64.412721 104.126311 
L 64.806116 105.066406 
L 65.199512 102.409075 
L 65.592908 102.420693 
L 65.986303 102.167173 
L 66.379699 102.424028 
L 66.773095 101.346884 
L 67.16649 101.586638 
L 67.559886 99.214056 
L 67.953281 98.357428 
L 68.346677 98.51949 
L 68.740073 99.329411 
L 69.133468 97.127684 
L 69.526864 97.572308 
L 69.920259 97.567278 
L 70.313655 95.989291 
L 70.707051 96.751792 
L 71.100446 94.923878 
L 71.493842 93.676599 
L 71.887238 92.846344 
L 72.674029 94.350265 
L 73.067424 92.007157 
L 73.46082 94.949694 
L 73.854216 89.777717 
L 74.247611 94.226194 
L 74.641007 89.971464 
L 75.034403 88.742365 
L 75.427798 91.689221 
L 76.214589 90.818215 
L 76.607985 89.056884 
L 77.001381 90.768026 
L 77.394776 89.366189 
L 77.788172 90.694134 
L 78.181568 89.823151 
L 78.574963 87.53574 
L 78.968359 90.966928 
L 79.361754 87.685068 
L 79.75515 90.766219 
L 80.148546 88.840335 
L 80.541941 88.045227 
L 80.935337 86.146389 
L 81.328732 88.398037 
L 81.722128 86.328321 
L 82.115524 87.154604 
L 82.508919 86.704438 
L 82.902315 87.08015 
L 83.295711 87.920422 
L 83.689106 86.082935 
L 84.082502 86.846282 
L 84.475897 88.694212 
L 84.869293 85.460208 
L 85.262689 83.480146 
L 85.656084 85.553143 
L 86.04948 84.628859 
L 86.442876 83.319003 
L 86.836271 84.178524 
L 87.229667 86.459297 
L 87.623062 83.028266 
L 88.016458 85.494545 
L 88.409854 84.239902 
L 88.803249 83.511609 
L 89.196645 81.759868 
L 90.376832 85.447128 
L 90.770227 84.719396 
L 91.163623 85.471735 
L 91.557019 84.141116 
L 91.950414 82.357828 
L 92.34381 82.954733 
L 92.737205 82.29215 
L 93.130601 83.265445 
L 93.523997 81.341764 
L 93.917392 83.415356 
L 94.310788 81.71868 
L 94.704184 86.38656 
L 95.097579 79.525355 
L 95.490975 85.188766 
L 95.88437 83.095629 
L 96.671162 81.232953 
L 97.064557 83.730939 
L 97.851349 80.56208 
L 98.244744 76.865347 
L 98.63814 81.443896 
L 99.031535 78.124401 
L 99.424931 76.528951 
L 99.818327 76.905912 
L 100.211722 82.90147 
L 100.605118 81.784462 
L 100.998514 78.638176 
L 101.391909 77.956619 
L 101.785305 78.728514 
L 102.1787 76.672246 
L 102.965492 80.443294 
L 103.358887 78.081856 
L 104.145678 76.207337 
L 104.93247 78.943157 
L 105.325865 78.384423 
L 105.719261 77.504489 
L 106.112657 78.843514 
L 106.506052 73.803751 
L 106.899448 78.817709 
L 107.292843 75.723579 
L 107.686239 75.384253 
L 108.079635 74.7256 
L 108.47303 76.505788 
L 108.866426 75.915043 
L 109.259822 76.424786 
L 109.653217 76.486259 
L 110.046613 76.952938 
L 110.440008 76.469159 
L 110.833404 77.519468 
L 111.2268 75.222617 
L 111.620195 75.404427 
L 112.013591 79.923423 
L 112.406987 76.4818 
L 112.800382 76.344698 
L 113.193778 74.57978 
L 113.587173 77.470384 
L 113.980569 76.605567 
L 114.373965 75.300894 
L 114.76736 76.933361 
L 115.160756 71.984604 
L 115.554151 73.953997 
L 115.947547 74.149611 
L 116.340943 75.968317 
L 116.734338 74.577684 
L 117.127734 75.83991 
L 117.52113 72.332909 
L 117.914525 72.60465 
L 118.307921 73.797383 
L 118.701316 70.623501 
L 119.094712 72.273833 
L 119.488108 71.61948 
L 119.881503 73.370101 
L 120.274899 70.629522 
L 120.668295 75.59048 
L 121.06169 74.46941 
L 121.455086 71.307674 
L 121.848481 72.62308 
L 122.241877 76.630615 
L 122.635273 74.969631 
L 123.028668 72.514985 
L 123.81546 73.236079 
L 124.208855 72.840253 
L 124.602251 73.366463 
L 124.995646 69.685265 
L 125.389042 73.050876 
L 125.782438 71.826105 
L 126.175833 72.938077 
L 126.569229 69.049803 
L 126.962624 72.870735 
L 127.35602 71.525205 
L 127.749416 70.954148 
L 128.142811 68.772564 
L 128.536207 68.028984 
L 128.929603 71.369196 
L 129.322998 72.316704 
L 129.716394 70.503407 
L 130.109789 69.363688 
L 130.503185 70.008672 
L 130.896581 71.201688 
L 131.289976 69.461804 
L 131.683372 71.905691 
L 132.076768 72.150681 
L 132.470163 73.093607 
L 132.863559 73.567603 
L 133.256954 74.462625 
L 133.65035 67.042629 
L 134.043746 71.293597 
L 134.437141 71.025373 
L 134.830537 70.587572 
L 135.223933 68.413206 
L 135.617328 67.094575 
L 136.010724 70.914766 
L 136.404119 68.776997 
L 136.797515 70.049267 
L 137.190911 70.618017 
L 137.584306 72.778413 
L 137.977702 70.353206 
L 138.371098 73.812156 
L 138.764493 70.923651 
L 139.157889 72.008255 
L 139.551284 73.791293 
L 139.94468 72.368841 
L 140.338076 69.925944 
L 140.731471 68.561854 
L 141.124867 71.923198 
L 141.518262 68.081664 
L 141.911658 71.035489 
L 142.305054 69.775865 
L 142.698449 65.942219 
L 143.485241 70.421196 
L 143.878636 68.640167 
L 144.272032 73.596728 
L 144.665427 67.449345 
L 145.058823 66.300693 
L 145.452219 68.072095 
L 145.845614 68.716717 
L 146.23901 70.592332 
L 147.025801 67.147772 
L 147.419197 66.596923 
L 147.812592 66.81457 
L 148.205988 67.381123 
L 148.599384 65.532265 
L 148.992779 66.142802 
L 149.386175 66.462366 
L 149.779571 69.305495 
L 150.172966 69.204451 
L 150.566362 67.470453 
L 150.959757 69.262912 
L 151.353153 68.439234 
L 151.746549 66.974174 
L 152.139944 66.604247 
L 152.53334 67.839094 
L 152.926735 66.867008 
L 153.320131 63.174159 
L 153.713527 63.784002 
L 154.106922 64.128093 
L 154.500318 70.140868 
L 154.893714 65.618071 
L 155.287109 67.576096 
L 155.680505 68.119902 
L 156.0739 67.837748 
L 156.467296 68.110557 
L 156.860692 68.037575 
L 157.254087 67.710848 
L 157.647483 66.311663 
L 158.040879 68.63325 
L 158.434274 67.760915 
L 158.82767 65.553557 
L 159.221065 61.984778 
L 159.614461 68.482858 
L 160.007857 68.756825 
L 160.401252 68.148225 
L 161.188044 64.171904 
L 161.581439 63.467077 
L 161.974835 66.381186 
L 162.36823 64.816636 
L 162.761626 66.093609 
L 163.155022 64.376551 
L 163.548417 63.22863 
L 163.941813 64.87416 
L 164.335208 65.074056 
L 164.728604 63.664551 
L 165.122 63.488065 
L 165.515395 62.26756 
L 165.908791 64.104251 
L 166.302187 67.172488 
L 166.695582 63.099196 
L 167.088978 62.326181 
L 167.482373 60.619962 
L 167.875769 65.616941 
L 168.269165 64.730671 
L 168.66256 62.394136 
L 169.055956 64.500607 
L 169.449352 67.540578 
L 169.842747 60.413899 
L 170.236143 66.15727 
L 170.629538 63.959018 
L 171.022934 61.08117 
L 171.41633 62.617507 
L 171.809725 62.239557 
L 172.203121 60.993987 
L 172.596517 60.701088 
L 173.383308 63.616982 
L 173.776703 66.907914 
L 174.170099 60.481659 
L 174.563495 62.755014 
L 174.95689 64.219609 
L 175.350286 62.195216 
L 175.743681 62.931718 
L 176.137077 64.104657 
L 176.530473 64.21339 
L 176.923868 56.862031 
L 177.317264 62.694042 
L 177.71066 65.794604 
L 178.104055 58.62798 
L 178.497451 64.233288 
L 178.890846 60.98575 
L 179.284242 66.286382 
L 179.677638 63.289399 
L 180.071033 63.636419 
L 180.464429 68.732544 
L 180.857825 62.213358 
L 181.25122 61.212348 
L 181.644616 61.680401 
L 182.431407 66.915704 
L 183.611594 54.626155 
L 184.398385 65.789646 
L 184.791781 61.836982 
L 185.185176 64.280109 
L 185.578572 62.811816 
L 185.971968 62.070903 
L 186.365363 60.372498 
L 186.758759 61.933847 
L 187.152154 61.936588 
L 187.54555 59.579944 
L 187.938946 62.256195 
L 188.332341 58.706699 
L 188.725737 60.991025 
L 189.119133 59.381532 
L 189.512528 60.979185 
L 189.905924 56.885241 
L 190.299319 66.620224 
L 190.692715 60.235873 
L 191.086111 60.398025 
L 191.479506 66.526309 
L 191.872902 63.030985 
L 192.266298 63.615712 
L 192.659693 61.856332 
L 193.053089 61.257132 
L 193.446484 64.212595 
L 193.83988 57.542359 
L 194.233276 55.961687 
L 194.626671 56.566998 
L 195.020067 55.434412 
L 195.413463 65.227319 
L 195.806858 57.721357 
L 196.200254 66.145465 
L 196.593649 61.654129 
L 196.987045 59.504904 
L 197.380441 62.577634 
L 197.773836 63.623316 
L 198.167232 55.741927 
L 198.560627 58.620568 
L 198.954023 57.982787 
L 199.347419 62.93908 
L 199.740814 61.956434 
L 200.13421 63.351027 
L 200.527606 61.367061 
L 200.921001 57.264511 
L 201.707792 57.080427 
L 202.101188 58.212081 
L 202.494584 57.39806 
L 202.887979 60.72199 
L 203.281375 62.492126 
L 204.068166 55.538984 
L 204.461562 57.44574 
L 204.854957 56.26355 
L 205.248353 62.615862 
L 205.641749 57.707641 
L 206.035144 57.064941 
L 206.42854 49.717405 
L 206.821936 57.165688 
L 207.215331 62.008059 
L 207.608727 55.544419 
L 208.002122 60.47382 
L 208.395518 58.968934 
L 208.788914 57.94261 
L 209.182309 55.773135 
L 209.575705 57.146935 
L 209.9691 57.457114 
L 210.362496 59.565054 
L 210.755892 54.903052 
L 211.149287 56.024165 
L 211.542683 54.097455 
L 211.936079 54.797315 
L 212.329474 59.896788 
L 213.116265 52.258444 
L 213.509661 51.672359 
L 213.903057 55.327799 
L 214.296452 56.562792 
L 214.689848 52.425078 
L 215.083244 59.792324 
L 215.870035 53.334594 
L 216.26343 59.850441 
L 216.656826 57.514877 
L 217.050222 53.82565 
L 217.443617 55.572083 
L 217.837013 53.881051 
L 218.230409 53.814942 
L 218.623804 57.449026 
L 219.0172 53.144283 
L 219.410595 53.996297 
L 219.803991 57.081683 
L 220.197387 53.577488 
L 220.590782 53.719986 
L 220.984178 51.712058 
L 221.377573 53.654925 
L 221.770969 53.276734 
L 222.55776 58.150091 
L 222.951156 57.093617 
L 223.344552 58.407246 
L 224.131343 49.88722 
L 224.524738 54.923325 
L 224.918134 50.56132 
L 225.31153 51.585671 
L 225.704925 57.988151 
L 226.098321 56.100436 
L 226.491717 57.897409 
L 226.885112 49.491922 
L 227.278508 53.949755 
L 227.671903 54.649635 
L 228.065299 50.811361 
L 228.458695 56.391432 
L 229.245486 51.316981 
L 229.638882 54.133836 
L 230.032277 54.172698 
L 230.425673 54.348286 
L 230.819068 52.121208 
L 231.212464 56.60603 
L 231.60586 50.332643 
L 231.999255 52.856037 
L 232.392651 54.221116 
L 232.786047 54.841015 
L 233.179442 50.044616 
L 233.572838 48.947262 
L 233.966233 55.165021 
L 234.359629 57.336369 
L 234.753025 53.425024 
L 235.14642 53.542326 
L 235.539816 56.936158 
L 235.933211 50.748918 
L 236.326607 55.061491 
L 236.720003 46.397401 
L 237.113398 51.746674 
L 237.506794 51.837036 
L 237.90019 51.438122 
L 238.293585 52.05811 
L 238.686981 47.552198 
L 239.473772 52.08565 
L 239.867168 49.901498 
L 240.260563 58.626072 
L 240.653959 49.869925 
L 241.047355 53.801479 
L 241.44075 56.398384 
L 241.834146 50.487161 
L 242.227541 60.168367 
L 242.620937 50.587528 
L 243.014333 52.947764 
L 243.407728 49.242337 
L 243.801124 51.68997 
L 244.19452 56.749519 
L 244.587915 50.5366 
L 244.981311 55.343547 
L 245.374706 54.411073 
L 245.768102 55.299922 
L 246.161498 54.461168 
L 246.948289 48.567904 
L 247.341684 53.747496 
L 247.73508 54.224397 
L 248.128476 51.627035 
L 248.128476 51.627035 
" clip-path="url(#pd1ea7ff29f)" style="fill: none; stroke: #1f77b4; stroke-width: 1.5; stroke-linecap: square"/>
   </g>
   <g id="patch_3">
    <path d="M 46.965625 142.118125 
L 46.965625 22.318125 
" style="fill: none; stroke: #000000; stroke-width: 0.8; stroke-linejoin: miter; stroke-linecap: square"/>
   </g>
   <g id="patch_4">
    <path d="M 257.707659 142.118125 
L 257.707659 22.318125 
" style="fill: none; stroke: #000000; stroke-width: 0.8; stroke-linejoin: miter; stroke-linecap: square"/>
   </g>
   <g id="patch_5">
    <path d="M 46.965625 142.118125 
L 257.707659 142.118125 
" style="fill: none; stroke: #000000; stroke-width: 0.8; stroke-linejoin: miter; stroke-linecap: square"/>
   </g>
   <g id="patch_6">
    <path d="M 46.965625 22.318125 
L 257.707659 22.318125 
" style="fill: none; stroke: #000000; stroke-width: 0.8; stroke-linejoin: miter; stroke-linecap: square"/>
   </g>
   <g id="text_14">
    <text style="font-size: 12px; font-family: 'DejaVu Sans', 'Bitstream Vera Sans', 'Computer Modern Sans Serif', 'Lucida Grande', 'Verdana', 'Geneva', 'Lucid', 'Arial', 'Helvetica', 'Avant Garde', sans-serif; text-anchor: middle" x="152.336642" y="16.318125" transform="rotate(-0 152.336642 16.318125)">PPO-Clip</text>
   </g>
  </g>
  <g id="axes_2">
   <g id="patch_7">
    <path d="M 275.190625 142.118125 
L 485.932659 142.118125 
L 485.932659 22.318125 
L 275.190625 22.318125 
z
" style="fill: #ffffff"/>
   </g>
   <g id="FillBetweenPolyCollection_2">
    <defs>
     <path id="m4ee0511bac" d="M 284.769808 -43.302107 
L 284.769808 -43.001705 
L 285.163204 -43.469112 
L 285.5566 -44.278418 
L 285.949995 -44.685151 
L 286.343391 -45.729488 
L 286.736786 -45.506546 
L 287.130182 -46.969151 
L 287.523578 -48.21206 
L 287.916973 -49.665973 
L 288.310369 -51.755614 
L 288.703765 -53.481295 
L 289.09716 -55.235686 
L 289.490556 -56.772237 
L 289.883951 -58.223865 
L 290.277347 -60.174724 
L 290.670743 -62.749032 
L 291.064138 -65.560761 
L 291.457534 -68.511411 
L 291.85093 -67.493907 
L 292.244325 -69.184703 
L 292.637721 -73.691486 
L 293.031116 -73.165699 
L 293.424512 -74.682019 
L 293.817908 -73.990195 
L 294.211303 -75.092103 
L 294.604699 -74.094072 
L 294.998095 -76.023514 
L 295.39149 -75.516696 
L 295.784886 -78.198782 
L 296.178281 -79.38275 
L 296.571677 -77.298443 
L 296.965073 -79.090363 
L 297.358468 -79.546649 
L 297.751864 -79.999741 
L 298.145259 -80.430129 
L 298.538655 -81.726102 
L 298.932051 -80.062915 
L 299.325446 -82.785298 
L 299.718842 -82.592823 
L 300.112238 -84.083022 
L 300.505633 -82.234075 
L 300.899029 -83.362067 
L 301.292424 -86.258932 
L 301.68582 -82.443028 
L 302.079216 -87.745479 
L 302.472611 -82.740099 
L 302.866007 -85.196169 
L 303.259403 -86.324498 
L 303.652798 -85.206065 
L 304.046194 -84.40274 
L 304.439589 -86.721674 
L 304.832985 -86.621167 
L 305.226381 -86.363326 
L 305.619776 -86.660425 
L 306.013172 -86.650697 
L 306.406568 -87.129358 
L 306.799963 -88.42065 
L 307.193359 -85.271728 
L 307.586754 -89.136487 
L 307.98015 -83.944884 
L 308.373546 -87.190881 
L 308.766941 -88.39477 
L 309.160337 -90.465202 
L 309.553732 -88.603485 
L 309.947128 -88.886475 
L 310.340524 -89.910399 
L 310.733919 -90.069132 
L 311.127315 -90.762877 
L 311.520711 -88.823178 
L 311.914106 -89.441404 
L 312.307502 -86.89639 
L 312.700897 -88.664982 
L 313.094293 -89.891258 
L 313.487689 -91.949518 
L 313.881084 -90.133425 
L 314.27448 -89.758985 
L 314.667876 -93.562244 
L 315.061271 -90.075224 
L 315.454667 -88.988677 
L 315.848062 -93.187613 
L 316.241458 -90.764483 
L 316.634854 -89.242161 
L 317.028249 -91.831248 
L 317.421645 -93.136184 
L 317.815041 -92.907247 
L 318.208436 -92.733826 
L 318.601832 -91.021516 
L 318.995227 -90.955893 
L 319.388623 -91.506236 
L 319.782019 -92.31308 
L 320.175414 -92.060427 
L 320.56881 -93.827219 
L 320.962205 -94.599237 
L 321.355601 -92.957531 
L 321.748997 -92.498135 
L 322.142392 -91.643941 
L 322.535788 -91.668063 
L 322.929184 -89.748718 
L 323.322579 -93.800542 
L 323.715975 -91.704808 
L 324.10937 -90.899447 
L 324.502766 -92.427015 
L 324.896162 -96.819919 
L 325.289557 -90.976048 
L 325.682953 -93.531543 
L 326.076349 -94.987613 
L 326.469744 -98.851811 
L 326.86314 -91.720148 
L 327.256535 -95.334074 
L 327.649931 -96.461007 
L 328.043327 -94.877762 
L 328.436722 -94.481359 
L 328.830118 -96.093304 
L 329.223514 -94.852714 
L 329.616909 -96.717282 
L 330.010305 -96.424219 
L 330.4037 -96.322789 
L 330.797096 -93.655791 
L 331.190492 -93.98064 
L 331.583887 -96.145358 
L 331.977283 -95.95781 
L 332.370678 -96.16229 
L 332.764074 -97.87123 
L 333.15747 -99.478708 
L 333.550865 -94.989483 
L 333.944261 -97.883815 
L 334.337657 -92.161939 
L 334.731052 -99.742618 
L 335.124448 -96.443687 
L 335.517843 -97.251686 
L 335.911239 -96.952231 
L 336.304635 -99.614878 
L 336.69803 -96.429109 
L 337.091426 -99.210333 
L 337.484822 -96.666447 
L 337.878217 -98.093459 
L 338.271613 -99.906248 
L 338.665008 -99.211673 
L 339.058404 -98.607259 
L 339.4518 -99.733232 
L 339.845195 -99.292965 
L 340.238591 -94.725638 
L 340.631987 -96.432764 
L 341.025382 -95.904937 
L 341.418778 -95.862314 
L 341.812173 -98.831832 
L 342.205569 -98.481669 
L 342.598965 -96.686128 
L 342.99236 -94.125638 
L 343.385756 -97.332969 
L 343.779151 -96.681546 
L 344.172547 -102.902404 
L 344.565943 -98.495061 
L 344.959338 -101.214724 
L 345.352734 -100.28791 
L 345.74613 -101.591611 
L 346.139525 -104.473566 
L 346.532921 -101.774655 
L 346.926316 -101.663749 
L 347.319712 -100.485739 
L 347.713108 -100.473789 
L 348.106503 -100.626534 
L 348.499899 -98.897414 
L 348.893295 -100.994542 
L 349.28669 -100.11677 
L 349.680086 -102.060115 
L 350.073481 -99.709563 
L 350.466877 -96.090096 
L 350.860273 -96.421547 
L 351.253668 -97.6969 
L 351.647064 -102.704418 
L 352.04046 -98.885821 
L 352.433855 -98.868345 
L 352.827251 -98.820089 
L 353.220646 -101.296495 
L 353.614042 -102.819354 
L 354.007438 -100.955842 
L 354.400833 -97.429866 
L 354.794229 -100.827336 
L 355.187624 -99.902429 
L 355.58102 -98.058976 
L 355.974416 -99.840766 
L 356.367811 -100.200279 
L 356.761207 -104.098561 
L 357.154603 -100.207373 
L 357.547998 -96.781982 
L 357.941394 -99.248161 
L 358.334789 -102.927684 
L 358.728185 -101.540596 
L 359.121581 -102.876267 
L 359.514976 -103.260697 
L 359.908372 -98.157495 
L 360.301768 -98.619755 
L 360.695163 -102.032827 
L 361.088559 -97.57563 
L 361.481954 -100.441682 
L 361.87535 -105.205682 
L 362.268746 -102.890305 
L 362.662141 -100.589432 
L 363.055537 -97.595588 
L 363.448933 -104.594738 
L 363.842328 -101.499593 
L 364.235724 -100.004673 
L 364.629119 -102.104344 
L 365.022515 -99.157614 
L 365.415911 -103.2147 
L 365.809306 -97.797555 
L 366.202702 -100.502172 
L 366.596098 -101.027255 
L 366.989493 -102.20834 
L 367.382889 -100.527964 
L 367.776284 -99.893552 
L 368.16968 -99.901678 
L 368.563076 -102.145011 
L 368.956471 -97.664265 
L 369.349867 -100.137722 
L 369.743262 -101.431389 
L 370.136658 -100.853137 
L 370.530054 -101.644087 
L 370.923449 -103.828632 
L 371.316845 -103.12616 
L 371.710241 -101.103604 
L 372.103636 -105.018541 
L 372.497032 -99.607241 
L 372.890427 -101.451109 
L 373.283823 -105.512912 
L 373.677219 -103.532895 
L 374.070614 -98.525988 
L 374.46401 -104.068678 
L 374.857406 -102.056055 
L 375.250801 -103.630355 
L 375.644197 -105.589415 
L 376.037592 -106.954682 
L 376.430988 -102.924095 
L 376.824384 -105.202447 
L 377.217779 -104.406543 
L 377.611175 -107.30622 
L 378.004571 -99.702277 
L 378.397966 -103.883881 
L 378.791362 -99.55758 
L 379.184757 -99.868799 
L 379.578153 -103.185325 
L 379.971549 -107.997071 
L 380.364944 -103.198658 
L 380.75834 -105.743872 
L 381.151735 -107.945979 
L 381.545131 -105.091512 
L 381.938527 -103.786663 
L 382.331922 -107.960559 
L 382.725318 -101.575143 
L 383.118714 -104.962624 
L 383.512109 -105.546075 
L 383.905505 -102.548453 
L 384.2989 -102.086965 
L 384.692296 -101.744349 
L 385.085692 -106.514075 
L 385.479087 -105.018868 
L 385.872483 -100.46084 
L 386.265879 -107.012057 
L 386.659274 -105.809131 
L 387.05267 -104.378126 
L 387.446065 -109.468607 
L 387.839461 -103.9544 
L 388.232857 -101.961784 
L 388.626252 -104.034059 
L 389.019648 -107.472981 
L 389.413044 -108.489357 
L 389.806439 -110.012285 
L 390.199835 -104.159762 
L 390.59323 -105.480741 
L 390.986626 -109.06517 
L 391.380022 -107.283315 
L 391.773417 -106.951601 
L 392.166813 -106.210034 
L 392.560208 -107.094933 
L 392.953604 -106.392115 
L 393.347 -107.818235 
L 393.740395 -112.861887 
L 394.133791 -105.929666 
L 394.527187 -108.209856 
L 394.920582 -104.391349 
L 395.313978 -105.753123 
L 395.707373 -107.888188 
L 396.100769 -109.717853 
L 396.494165 -107.543488 
L 396.88756 -106.576751 
L 397.280956 -106.62035 
L 397.674352 -105.276826 
L 398.067747 -110.120574 
L 398.461143 -103.880479 
L 398.854538 -106.932249 
L 399.247934 -108.323091 
L 399.64133 -104.911408 
L 400.034725 -110.104688 
L 400.428121 -113.420836 
L 400.821517 -111.011798 
L 401.214912 -109.190293 
L 401.608308 -106.74465 
L 402.001703 -106.330265 
L 402.395099 -108.256661 
L 402.788495 -106.697736 
L 403.18189 -104.896866 
L 403.575286 -106.360095 
L 403.968681 -104.02445 
L 404.362077 -105.535337 
L 404.755473 -100.350656 
L 405.148868 -113.781466 
L 405.542264 -106.360955 
L 405.93566 -103.671759 
L 406.329055 -109.008593 
L 406.722451 -107.305573 
L 407.115846 -109.072327 
L 407.509242 -104.698248 
L 407.902638 -109.646275 
L 408.296033 -109.017162 
L 408.689429 -104.803049 
L 409.082825 -107.437128 
L 409.47622 -107.91211 
L 409.869616 -109.728161 
L 410.263011 -105.458027 
L 410.656407 -104.266399 
L 411.049803 -107.461912 
L 411.443198 -113.139911 
L 411.836594 -111.719422 
L 412.22999 -108.889851 
L 412.623385 -106.58143 
L 413.016781 -106.99401 
L 413.410176 -106.931375 
L 413.803572 -109.049892 
L 414.196968 -106.056138 
L 414.590363 -110.734762 
L 414.983759 -109.698456 
L 415.377154 -107.432626 
L 415.77055 -105.764861 
L 416.163946 -104.343258 
L 416.557341 -110.188209 
L 416.950737 -107.119252 
L 417.344133 -110.56364 
L 417.737528 -109.486811 
L 418.130924 -108.017582 
L 418.524319 -104.997833 
L 418.917715 -109.769296 
L 419.311111 -110.564629 
L 419.704506 -103.75616 
L 420.097902 -107.892233 
L 420.491298 -109.315147 
L 420.884693 -110.715633 
L 421.278089 -107.67213 
L 421.671484 -109.125384 
L 422.06488 -111.075065 
L 422.458276 -111.994848 
L 422.851671 -110.085618 
L 423.245067 -112.548782 
L 423.638463 -106.304895 
L 424.031858 -109.957088 
L 424.425254 -107.118107 
L 424.818649 -108.766578 
L 425.212045 -111.468849 
L 425.605441 -106.124073 
L 425.998836 -108.149986 
L 426.392232 -109.297269 
L 426.785627 -114.89688 
L 427.179023 -109.733245 
L 427.572419 -108.526929 
L 427.965814 -109.034942 
L 428.35921 -111.526204 
L 428.752606 -104.428224 
L 429.146001 -112.393567 
L 429.539397 -112.598656 
L 429.932792 -110.098235 
L 430.326188 -114.793894 
L 430.719584 -111.043736 
L 431.112979 -112.164274 
L 431.506375 -110.442178 
L 431.899771 -110.564992 
L 432.293166 -117.263237 
L 432.686562 -111.374692 
L 433.079957 -111.278498 
L 433.473353 -107.112308 
L 433.866749 -111.366038 
L 434.260144 -110.787626 
L 434.65354 -114.332982 
L 435.046936 -110.014041 
L 435.440331 -110.346138 
L 435.833727 -111.316676 
L 436.227122 -109.244381 
L 436.620518 -104.714897 
L 437.013914 -114.114974 
L 437.407309 -112.397412 
L 437.800705 -112.690249 
L 438.1941 -110.993522 
L 438.587496 -108.902444 
L 438.980892 -107.743576 
L 439.374287 -112.867692 
L 439.767683 -114.073149 
L 440.161079 -116.618396 
L 440.554474 -112.218843 
L 440.94787 -115.166797 
L 441.341265 -111.411362 
L 441.734661 -112.119896 
L 442.128057 -111.65028 
L 442.521452 -113.465633 
L 442.914848 -115.387288 
L 443.308244 -109.21494 
L 443.701639 -110.986663 
L 444.095035 -115.973181 
L 444.48843 -113.611587 
L 444.881826 -107.869255 
L 445.275222 -113.250125 
L 445.668617 -115.157579 
L 446.062013 -114.630892 
L 446.455409 -113.115328 
L 446.848804 -108.981643 
L 447.2422 -110.561238 
L 447.635595 -113.301562 
L 448.028991 -111.786717 
L 448.422387 -112.227179 
L 448.815782 -114.905521 
L 449.209178 -116.868064 
L 449.602573 -114.970695 
L 449.995969 -116.869129 
L 450.389365 -112.330471 
L 450.78276 -109.796298 
L 451.176156 -112.102012 
L 451.569552 -108.760125 
L 451.962947 -113.503318 
L 452.356343 -118.569506 
L 452.749738 -110.838456 
L 453.143134 -119.947707 
L 453.53653 -115.156457 
L 453.929925 -111.835798 
L 454.323321 -115.939651 
L 454.716717 -109.071724 
L 455.110112 -117.304467 
L 455.503508 -116.231778 
L 455.896903 -111.043244 
L 456.290299 -118.477516 
L 456.683695 -111.219954 
L 457.07709 -114.89141 
L 457.470486 -116.505565 
L 457.863882 -113.759522 
L 458.257277 -110.999341 
L 458.650673 -114.928268 
L 459.044068 -117.173526 
L 459.437464 -114.11857 
L 459.83086 -117.190313 
L 460.224255 -118.336726 
L 460.617651 -108.47228 
L 461.011047 -114.019559 
L 461.404442 -118.91597 
L 461.797838 -116.791554 
L 462.191233 -113.883246 
L 462.584629 -115.005658 
L 462.978025 -118.243819 
L 463.37142 -114.205232 
L 463.764816 -111.083723 
L 464.158211 -110.178642 
L 464.551607 -113.794093 
L 464.945003 -114.643152 
L 465.338398 -112.867699 
L 465.731794 -114.303843 
L 466.12519 -114.110117 
L 466.518585 -116.282639 
L 466.911981 -118.585662 
L 467.305376 -111.543266 
L 467.698772 -117.332952 
L 468.092168 -115.842676 
L 468.485563 -109.698731 
L 468.878959 -121.851579 
L 469.272355 -114.469927 
L 469.66575 -113.457761 
L 470.059146 -115.394919 
L 470.452541 -112.095147 
L 470.845937 -116.347371 
L 471.239333 -113.569414 
L 471.632728 -112.195127 
L 472.026124 -119.758174 
L 472.41952 -113.178124 
L 472.812915 -120.094351 
L 473.206311 -117.315603 
L 473.599706 -114.85444 
L 473.993102 -114.0518 
L 474.386498 -115.026432 
L 474.779893 -121.1602 
L 475.173289 -119.120743 
L 475.566684 -110.138225 
L 475.96008 -114.790768 
L 476.353476 -120.094173 
L 476.353476 -136.000508 
L 476.353476 -136.000508 
L 475.96008 -136.109188 
L 475.566684 -141.715533 
L 475.173289 -143.092199 
L 474.779893 -135.039517 
L 474.386498 -135.399981 
L 473.993102 -134.697105 
L 473.599706 -135.672164 
L 473.206311 -131.346054 
L 472.812915 -138.1812 
L 472.41952 -132.671589 
L 472.026124 -136.210636 
L 471.632728 -148.668949 
L 471.239333 -139.883807 
L 470.845937 -141.826323 
L 470.452541 -126.916868 
L 470.059146 -142.979509 
L 469.66575 -133.094221 
L 469.272355 -137.275864 
L 468.878959 -137.75732 
L 468.485563 -132.397876 
L 468.092168 -143.703077 
L 467.698772 -137.844499 
L 467.305376 -147.991036 
L 466.911981 -145.658692 
L 466.518585 -138.949891 
L 466.12519 -142.362389 
L 465.731794 -141.370836 
L 465.338398 -142.987702 
L 464.945003 -151.910795 
L 464.551607 -135.431675 
L 464.158211 -147.672273 
L 463.764816 -134.39271 
L 463.37142 -138.058867 
L 462.978025 -134.254882 
L 462.584629 -129.670355 
L 462.191233 -135.135463 
L 461.797838 -144.662672 
L 461.404442 -140.343547 
L 461.011047 -135.64716 
L 460.617651 -142.434238 
L 460.224255 -135.29995 
L 459.83086 -141.49315 
L 459.437464 -132.018119 
L 459.044068 -137.932809 
L 458.650673 -135.723909 
L 458.257277 -140.004013 
L 457.863882 -137.321556 
L 457.470486 -140.209224 
L 457.07709 -137.559712 
L 456.683695 -135.345931 
L 456.290299 -139.248511 
L 455.896903 -139.006235 
L 455.503508 -135.217462 
L 455.110112 -143.060439 
L 454.716717 -134.482207 
L 454.323321 -131.208226 
L 453.929925 -131.536649 
L 453.53653 -141.020952 
L 453.143134 -138.278403 
L 452.749738 -138.663645 
L 452.356343 -141.004804 
L 451.962947 -137.052805 
L 451.569552 -133.774134 
L 451.176156 -133.059504 
L 450.78276 -133.252271 
L 450.389365 -135.601183 
L 449.995969 -135.926153 
L 449.602573 -137.068205 
L 449.209178 -139.056571 
L 448.815782 -137.003256 
L 448.422387 -139.966594 
L 448.028991 -133.398668 
L 447.635595 -138.054594 
L 447.2422 -142.498947 
L 446.848804 -135.469055 
L 446.455409 -138.603537 
L 446.062013 -136.955755 
L 445.668617 -133.047006 
L 445.275222 -138.447324 
L 444.881826 -136.449741 
L 444.48843 -126.03628 
L 444.095035 -136.706381 
L 443.701639 -134.618073 
L 443.308244 -130.549163 
L 442.914848 -139.111305 
L 442.521452 -132.757532 
L 442.128057 -137.042873 
L 441.734661 -143.884136 
L 441.341265 -143.420501 
L 440.94787 -132.169428 
L 440.554474 -127.336331 
L 440.161079 -133.135724 
L 439.767683 -137.080691 
L 439.374287 -134.432728 
L 438.980892 -141.79907 
L 438.587496 -131.316198 
L 438.1941 -133.441001 
L 437.800705 -132.364632 
L 437.407309 -135.405069 
L 437.013914 -129.348556 
L 436.620518 -136.695985 
L 436.227122 -129.156729 
L 435.833727 -136.943236 
L 435.440331 -124.986493 
L 435.046936 -135.003332 
L 434.65354 -145.580959 
L 434.260144 -134.431241 
L 433.866749 -132.567429 
L 433.473353 -127.004718 
L 433.079957 -135.543152 
L 432.686562 -133.082578 
L 432.293166 -131.007544 
L 431.899771 -131.552827 
L 431.506375 -123.922319 
L 431.112979 -125.740496 
L 430.719584 -133.508894 
L 430.326188 -128.130694 
L 429.932792 -135.089662 
L 429.539397 -132.436395 
L 429.146001 -132.426161 
L 428.752606 -132.186404 
L 428.35921 -121.120492 
L 427.965814 -126.400941 
L 427.572419 -124.943662 
L 427.179023 -133.649932 
L 426.785627 -127.210735 
L 426.392232 -138.567628 
L 425.998836 -123.952132 
L 425.605441 -128.069408 
L 425.212045 -128.870093 
L 424.818649 -127.273913 
L 424.425254 -119.939714 
L 424.031858 -133.948949 
L 423.638463 -122.589217 
L 423.245067 -135.931144 
L 422.851671 -136.129137 
L 422.458276 -135.430528 
L 422.06488 -133.188966 
L 421.671484 -121.798175 
L 421.278089 -129.162356 
L 420.884693 -124.920453 
L 420.491298 -122.802179 
L 420.097902 -125.394546 
L 419.704506 -122.539972 
L 419.311111 -127.988071 
L 418.917715 -129.107708 
L 418.524319 -121.11047 
L 418.130924 -137.560686 
L 417.737528 -127.903569 
L 417.344133 -130.022045 
L 416.950737 -130.247449 
L 416.557341 -131.747143 
L 416.163946 -130.493102 
L 415.77055 -134.424 
L 415.377154 -128.042949 
L 414.983759 -125.782601 
L 414.590363 -127.868992 
L 414.196968 -129.150806 
L 413.803572 -124.675227 
L 413.410176 -123.857158 
L 413.016781 -128.680776 
L 412.623385 -121.188028 
L 412.22999 -129.284178 
L 411.836594 -138.377018 
L 411.443198 -128.337974 
L 411.049803 -126.84383 
L 410.656407 -121.250944 
L 410.263011 -124.997788 
L 409.869616 -126.259788 
L 409.47622 -129.011944 
L 409.082825 -127.484906 
L 408.689429 -117.080614 
L 408.296033 -123.05875 
L 407.902638 -123.123676 
L 407.509242 -122.077738 
L 407.115846 -128.304922 
L 406.722451 -123.576601 
L 406.329055 -133.084196 
L 405.93566 -124.087783 
L 405.542264 -127.59971 
L 405.148868 -131.843222 
L 404.755473 -130.571315 
L 404.362077 -125.604098 
L 403.968681 -129.460864 
L 403.575286 -128.598223 
L 403.18189 -126.012667 
L 402.788495 -127.140987 
L 402.395099 -130.12877 
L 402.001703 -119.202656 
L 401.608308 -125.370135 
L 401.214912 -126.126552 
L 400.821517 -126.934776 
L 400.428121 -123.93994 
L 400.034725 -124.764949 
L 399.64133 -129.202328 
L 399.247934 -128.863318 
L 398.854538 -124.498464 
L 398.461143 -123.153731 
L 398.067747 -128.400379 
L 397.674352 -118.990769 
L 397.280956 -123.727185 
L 396.88756 -127.983728 
L 396.494165 -122.343921 
L 396.100769 -118.397015 
L 395.707373 -130.220639 
L 395.313978 -128.943265 
L 394.920582 -128.759009 
L 394.527187 -116.793918 
L 394.133791 -125.210582 
L 393.740395 -121.951742 
L 393.347 -124.554385 
L 392.953604 -125.627534 
L 392.560208 -122.105706 
L 392.166813 -123.390396 
L 391.773417 -125.939888 
L 391.380022 -123.312333 
L 390.986626 -118.096361 
L 390.59323 -124.234736 
L 390.199835 -122.426617 
L 389.806439 -122.402311 
L 389.413044 -122.515584 
L 389.019648 -120.106313 
L 388.626252 -119.018241 
L 388.232857 -119.873316 
L 387.839461 -118.428634 
L 387.446065 -125.910587 
L 387.05267 -123.863509 
L 386.659274 -118.017789 
L 386.265879 -115.070192 
L 385.872483 -126.264584 
L 385.479087 -118.908185 
L 385.085692 -116.759525 
L 384.692296 -121.383288 
L 384.2989 -121.58629 
L 383.905505 -120.560494 
L 383.512109 -118.650482 
L 383.118714 -123.149983 
L 382.725318 -117.49187 
L 382.331922 -123.132005 
L 381.938527 -127.994083 
L 381.545131 -127.90892 
L 381.151735 -117.668756 
L 380.75834 -117.92669 
L 380.364944 -122.941597 
L 379.971549 -117.403331 
L 379.578153 -119.284957 
L 379.184757 -120.954127 
L 378.791362 -124.850264 
L 378.397966 -117.055967 
L 378.004571 -121.035483 
L 377.611175 -119.117797 
L 377.217779 -122.656604 
L 376.824384 -123.081773 
L 376.430988 -121.66241 
L 376.037592 -118.764927 
L 375.644197 -120.565488 
L 375.250801 -121.42285 
L 374.857406 -119.224672 
L 374.46401 -114.095408 
L 374.070614 -123.389327 
L 373.677219 -119.671666 
L 373.283823 -121.234452 
L 372.890427 -122.99895 
L 372.497032 -112.548053 
L 372.103636 -117.049875 
L 371.710241 -117.402754 
L 371.316845 -119.962104 
L 370.923449 -123.63568 
L 370.530054 -118.152933 
L 370.136658 -116.424636 
L 369.743262 -121.754033 
L 369.349867 -115.364632 
L 368.956471 -124.560778 
L 368.563076 -117.35185 
L 368.16968 -114.709391 
L 367.776284 -111.872612 
L 367.382889 -114.804275 
L 366.989493 -115.293107 
L 366.596098 -110.697183 
L 366.202702 -118.140167 
L 365.809306 -115.994368 
L 365.415911 -114.898015 
L 365.022515 -120.092602 
L 364.629119 -119.690413 
L 364.235724 -117.514545 
L 363.842328 -123.660007 
L 363.448933 -117.927599 
L 363.055537 -120.578018 
L 362.662141 -116.708571 
L 362.268746 -113.87125 
L 361.87535 -120.057811 
L 361.481954 -109.981817 
L 361.088559 -114.637914 
L 360.695163 -111.12871 
L 360.301768 -116.427633 
L 359.908372 -117.379874 
L 359.514976 -117.164446 
L 359.121581 -114.069108 
L 358.728185 -117.790809 
L 358.334789 -117.693689 
L 357.941394 -119.093774 
L 357.547998 -117.93336 
L 357.154603 -116.402986 
L 356.761207 -119.192221 
L 356.367811 -121.603343 
L 355.974416 -117.599687 
L 355.58102 -118.239364 
L 355.187624 -113.704851 
L 354.794229 -120.421807 
L 354.400833 -116.042731 
L 354.007438 -114.740699 
L 353.614042 -110.427645 
L 353.220646 -118.681724 
L 352.827251 -113.795735 
L 352.433855 -114.799898 
L 352.04046 -113.990772 
L 351.647064 -110.986641 
L 351.253668 -116.62188 
L 350.860273 -112.987941 
L 350.466877 -109.997424 
L 350.073481 -114.393027 
L 349.680086 -114.673287 
L 349.28669 -110.29316 
L 348.893295 -107.173247 
L 348.499899 -119.192293 
L 348.106503 -111.982015 
L 347.713108 -115.636001 
L 347.319712 -114.315344 
L 346.926316 -116.437999 
L 346.532921 -109.979328 
L 346.139525 -109.665884 
L 345.74613 -113.091321 
L 345.352734 -107.381021 
L 344.959338 -108.978658 
L 344.565943 -108.917055 
L 344.172547 -108.147125 
L 343.779151 -114.759211 
L 343.385756 -118.046573 
L 342.99236 -111.356391 
L 342.598965 -112.060834 
L 342.205569 -107.655947 
L 341.812173 -105.576149 
L 341.418778 -114.326876 
L 341.025382 -110.754416 
L 340.631987 -109.952386 
L 340.238591 -104.776266 
L 339.845195 -109.246932 
L 339.4518 -109.170284 
L 339.058404 -105.702555 
L 338.665008 -107.19876 
L 338.271613 -105.536626 
L 337.878217 -108.282774 
L 337.484822 -109.832731 
L 337.091426 -108.308331 
L 336.69803 -109.908065 
L 336.304635 -110.282672 
L 335.911239 -111.628013 
L 335.517843 -110.649906 
L 335.124448 -105.269646 
L 334.731052 -111.998631 
L 334.337657 -109.499783 
L 333.944261 -106.455958 
L 333.550865 -107.590421 
L 333.15747 -101.983727 
L 332.764074 -106.452898 
L 332.370678 -110.771787 
L 331.977283 -109.322503 
L 331.583887 -107.039681 
L 331.190492 -104.481523 
L 330.797096 -108.317625 
L 330.4037 -109.681468 
L 330.010305 -105.467503 
L 329.616909 -106.718229 
L 329.223514 -107.219683 
L 328.830118 -99.686523 
L 328.436722 -99.064451 
L 328.043327 -110.659165 
L 327.649931 -109.829842 
L 327.256535 -107.765873 
L 326.86314 -104.74081 
L 326.469744 -106.766245 
L 326.076349 -103.236977 
L 325.682953 -101.207831 
L 325.289557 -100.910824 
L 324.896162 -100.062926 
L 324.502766 -102.406384 
L 324.10937 -102.258046 
L 323.715975 -97.266411 
L 323.322579 -106.497499 
L 322.929184 -96.826911 
L 322.535788 -104.243326 
L 322.142392 -100.874096 
L 321.748997 -104.167087 
L 321.355601 -99.860329 
L 320.962205 -100.165213 
L 320.56881 -99.612064 
L 320.175414 -102.572667 
L 319.782019 -98.753438 
L 319.388623 -96.899045 
L 318.995227 -98.954064 
L 318.601832 -97.432977 
L 318.208436 -97.614527 
L 317.815041 -100.249381 
L 317.421645 -102.692831 
L 317.028249 -100.494283 
L 316.634854 -101.626786 
L 316.241458 -97.595176 
L 315.848062 -100.104605 
L 315.454667 -97.441479 
L 315.061271 -100.916477 
L 314.667876 -99.1485 
L 314.27448 -100.332046 
L 313.881084 -98.109038 
L 313.487689 -100.438939 
L 313.094293 -98.537077 
L 312.700897 -93.295343 
L 312.307502 -98.759796 
L 311.914106 -97.741475 
L 311.520711 -94.684729 
L 311.127315 -94.425573 
L 310.733919 -95.870742 
L 310.340524 -95.129143 
L 309.947128 -97.805634 
L 309.553732 -93.949191 
L 309.160337 -96.590769 
L 308.766941 -94.863526 
L 308.373546 -94.477198 
L 307.98015 -93.871428 
L 307.586754 -94.842127 
L 307.193359 -92.143166 
L 306.799963 -95.856621 
L 306.406568 -92.57309 
L 306.013172 -91.309785 
L 305.619776 -93.955947 
L 305.226381 -91.449372 
L 304.832985 -94.613815 
L 304.439589 -90.990646 
L 304.046194 -92.527788 
L 303.652798 -90.764242 
L 303.259403 -95.539523 
L 302.866007 -94.209653 
L 302.472611 -88.156264 
L 302.079216 -92.047838 
L 301.68582 -87.006334 
L 301.292424 -89.075504 
L 300.899029 -87.286154 
L 300.505633 -89.855266 
L 300.112238 -89.573039 
L 299.718842 -89.402729 
L 299.325446 -86.715695 
L 298.932051 -85.782252 
L 298.538655 -85.644065 
L 298.145259 -83.784064 
L 297.751864 -84.204392 
L 297.358468 -85.546733 
L 296.965073 -81.599565 
L 296.571677 -85.011326 
L 296.178281 -83.251143 
L 295.784886 -82.721856 
L 295.39149 -80.658778 
L 294.998095 -80.631468 
L 294.604699 -80.406621 
L 294.211303 -79.922302 
L 293.817908 -80.517168 
L 293.424512 -79.848581 
L 293.031116 -76.05024 
L 292.637721 -77.404641 
L 292.244325 -73.059002 
L 291.85093 -74.110816 
L 291.457534 -69.895914 
L 291.064138 -71.744897 
L 290.670743 -68.282825 
L 290.277347 -64.281564 
L 289.883951 -63.277173 
L 289.490556 -62.451227 
L 289.09716 -59.610493 
L 288.703765 -56.802128 
L 288.310369 -54.261453 
L 287.916973 -53.754906 
L 287.523578 -50.86465 
L 287.130182 -50.082513 
L 286.736786 -48.073923 
L 286.343391 -47.025807 
L 285.949995 -45.974964 
L 285.5566 -45.103847 
L 285.163204 -45.13973 
L 284.769808 -43.302107 
z
"/>
    </defs>
    <g clip-path="url(#p6e452ffc9e)">
     <use xlink:href="#m4ee0511bac" x="0" y="179.674375" style="fill: #c0392b; fill-opacity: 0.2"/>
    </g>
   </g>
   <g id="matplotlib.axis_3">
    <g id="xtick_7">
     <g id="line2d_22">
      <path d="M 284.376413 142.118125 
L 284.376413 22.318125 
" clip-path="url(#p6e452ffc9e)" style="fill: none; stroke: #b0b0b0; stroke-opacity: 0.3; stroke-width: 0.8; stroke-linecap: square"/>
     </g>
     <g id="line2d_23">
      <g>
       <use xlink:href="#md52ec2ff24" x="284.376413" y="142.118125" style="stroke: #000000; stroke-width: 0.8"/>
      </g>
     </g>
     <g id="text_15">
      <text style="font-size: 10px; font-family: 'DejaVu Sans', 'Bitstream Vera Sans', 'Computer Modern Sans Serif', 'Lucida Grande', 'Verdana', 'Geneva', 'Lucid', 'Arial', 'Helvetica', 'Avant Garde', sans-serif; text-anchor: middle" x="284.376413" y="156.716562" transform="rotate(-0 284.376413 156.716562)">0.0</text>
     </g>
    </g>
    <g id="xtick_8">
     <g id="line2d_24">
      <path d="M 322.793954 142.118125 
L 322.793954 22.318125 
" clip-path="url(#p6e452ffc9e)" style="fill: none; stroke: #b0b0b0; stroke-opacity: 0.3; stroke-width: 0.8; stroke-linecap: square"/>
     </g>
     <g id="line2d_25">
      <g>
       <use xlink:href="#md52ec2ff24" x="322.793954" y="142.118125" style="stroke: #000000; stroke-width: 0.8"/>
      </g>
     </g>
     <g id="text_16">
      <text style="font-size: 10px; font-family: 'DejaVu Sans', 'Bitstream Vera Sans', 'Computer Modern Sans Serif', 'Lucida Grande', 'Verdana', 'Geneva', 'Lucid', 'Arial', 'Helvetica', 'Avant Garde', sans-serif; text-anchor: middle" x="322.793954" y="156.716562" transform="rotate(-0 322.793954 156.716562)">0.2</text>
     </g>
    </g>
    <g id="xtick_9">
     <g id="line2d_26">
      <path d="M 361.211495 142.118125 
L 361.211495 22.318125 
" clip-path="url(#p6e452ffc9e)" style="fill: none; stroke: #b0b0b0; stroke-opacity: 0.3; stroke-width: 0.8; stroke-linecap: square"/>
     </g>
     <g id="line2d_27">
      <g>
       <use xlink:href="#md52ec2ff24" x="361.211495" y="142.118125" style="stroke: #000000; stroke-width: 0.8"/>
      </g>
     </g>
     <g id="text_17">
      <text style="font-size: 10px; font-family: 'DejaVu Sans', 'Bitstream Vera Sans', 'Computer Modern Sans Serif', 'Lucida Grande', 'Verdana', 'Geneva', 'Lucid', 'Arial', 'Helvetica', 'Avant Garde', sans-serif; text-anchor: middle" x="361.211495" y="156.716562" transform="rotate(-0 361.211495 156.716562)">0.4</text>
     </g>
    </g>
    <g id="xtick_10">
     <g id="line2d_28">
      <path d="M 399.629036 142.118125 
L 399.629036 22.318125 
" clip-path="url(#p6e452ffc9e)" style="fill: none; stroke: #b0b0b0; stroke-opacity: 0.3; stroke-width: 0.8; stroke-linecap: square"/>
     </g>
     <g id="line2d_29">
      <g>
       <use xlink:href="#md52ec2ff24" x="399.629036" y="142.118125" style="stroke: #000000; stroke-width: 0.8"/>
      </g>
     </g>
     <g id="text_18">
      <text style="font-size: 10px; font-family: 'DejaVu Sans', 'Bitstream Vera Sans', 'Computer Modern Sans Serif', 'Lucida Grande', 'Verdana', 'Geneva', 'Lucid', 'Arial', 'Helvetica', 'Avant Garde', sans-serif; text-anchor: middle" x="399.629036" y="156.716562" transform="rotate(-0 399.629036 156.716562)">0.6</text>
     </g>
    </g>
    <g id="xtick_11">
     <g id="line2d_30">
      <path d="M 438.046577 142.118125 
L 438.046577 22.318125 
" clip-path="url(#p6e452ffc9e)" style="fill: none; stroke: #b0b0b0; stroke-opacity: 0.3; stroke-width: 0.8; stroke-linecap: square"/>
     </g>
     <g id="line2d_31">
      <g>
       <use xlink:href="#md52ec2ff24" x="438.046577" y="142.118125" style="stroke: #000000; stroke-width: 0.8"/>
      </g>
     </g>
     <g id="text_19">
      <text style="font-size: 10px; font-family: 'DejaVu Sans', 'Bitstream Vera Sans', 'Computer Modern Sans Serif', 'Lucida Grande', 'Verdana', 'Geneva', 'Lucid', 'Arial', 'Helvetica', 'Avant Garde', sans-serif; text-anchor: middle" x="438.046577" y="156.716562" transform="rotate(-0 438.046577 156.716562)">0.8</text>
     </g>
    </g>
    <g id="xtick_12">
     <g id="line2d_32">
      <path d="M 476.464118 142.118125 
L 476.464118 22.318125 
" clip-path="url(#p6e452ffc9e)" style="fill: none; stroke: #b0b0b0; stroke-opacity: 0.3; stroke-width: 0.8; stroke-linecap: square"/>
     </g>
     <g id="line2d_33">
      <g>
       <use xlink:href="#md52ec2ff24" x="476.464118" y="142.118125" style="stroke: #000000; stroke-width: 0.8"/>
      </g>
     </g>
     <g id="text_20">
      <text style="font-size: 10px; font-family: 'DejaVu Sans', 'Bitstream Vera Sans', 'Computer Modern Sans Serif', 'Lucida Grande', 'Verdana', 'Geneva', 'Lucid', 'Arial', 'Helvetica', 'Avant Garde', sans-serif; text-anchor: middle" x="476.464118" y="156.716562" transform="rotate(-0 476.464118 156.716562)">1.0</text>
     </g>
    </g>
    <g id="text_21">
     <text style="font-size: 10px; font-family: 'DejaVu Sans', 'Bitstream Vera Sans', 'Computer Modern Sans Serif', 'Lucida Grande', 'Verdana', 'Geneva', 'Lucid', 'Arial', 'Helvetica', 'Avant Garde', sans-serif; text-anchor: middle" x="380.561642" y="170.394687" transform="rotate(-0 380.561642 170.394687)">environment step</text>
    </g>
    <g id="text_22">
     <text style="font-size: 10px; font-family: 'DejaVu Sans', 'Bitstream Vera Sans', 'Computer Modern Sans Serif', 'Lucida Grande', 'Verdana', 'Geneva', 'Lucid', 'Arial', 'Helvetica', 'Avant Garde', sans-serif; text-anchor: end" x="485.932659" y="169.394687" transform="rotate(-0 485.932659 169.394687)">1e6</text>
    </g>
   </g>
   <g id="matplotlib.axis_4">
    <g id="ytick_5">
     <g id="line2d_34">
      <path d="M 275.190625 122.022652 
L 485.932659 122.022652 
" clip-path="url(#p6e452ffc9e)" style="fill: none; stroke: #b0b0b0; stroke-opacity: 0.3; stroke-width: 0.8; stroke-linecap: square"/>
     </g>
     <g id="line2d_35">
      <g>
       <use xlink:href="#meb23fb85bc" x="275.190625" y="122.022652" style="stroke: #000000; stroke-width: 0.8"/>
      </g>
     </g>
    </g>
    <g id="ytick_6">
     <g id="line2d_36">
      <path d="M 275.190625 91.920168 
L 485.932659 91.920168 
" clip-path="url(#p6e452ffc9e)" style="fill: none; stroke: #b0b0b0; stroke-opacity: 0.3; stroke-width: 0.8; stroke-linecap: square"/>
     </g>
     <g id="line2d_37">
      <g>
       <use xlink:href="#meb23fb85bc" x="275.190625" y="91.920168" style="stroke: #000000; stroke-width: 0.8"/>
      </g>
     </g>
    </g>
    <g id="ytick_7">
     <g id="line2d_38">
      <path d="M 275.190625 61.817685 
L 485.932659 61.817685 
" clip-path="url(#p6e452ffc9e)" style="fill: none; stroke: #b0b0b0; stroke-opacity: 0.3; stroke-width: 0.8; stroke-linecap: square"/>
     </g>
     <g id="line2d_39">
      <g>
       <use xlink:href="#meb23fb85bc" x="275.190625" y="61.817685" style="stroke: #000000; stroke-width: 0.8"/>
      </g>
     </g>
    </g>
    <g id="ytick_8">
     <g id="line2d_40">
      <path d="M 275.190625 31.715201 
L 485.932659 31.715201 
" clip-path="url(#p6e452ffc9e)" style="fill: none; stroke: #b0b0b0; stroke-opacity: 0.3; stroke-width: 0.8; stroke-linecap: square"/>
     </g>
     <g id="line2d_41">
      <g>
       <use xlink:href="#meb23fb85bc" x="275.190625" y="31.715201" style="stroke: #000000; stroke-width: 0.8"/>
      </g>
     </g>
    </g>
   </g>
   <g id="line2d_42">
    <path d="M 284.769808 136.522469 
L 285.163204 135.369954 
L 285.5566 134.983242 
L 285.949995 134.344317 
L 286.343391 133.296728 
L 286.736786 132.884141 
L 287.130182 131.148543 
L 287.523578 130.13602 
L 287.916973 127.963935 
L 288.310369 126.665841 
L 289.490556 120.062643 
L 290.277347 117.446231 
L 291.064138 111.021546 
L 291.457534 110.470713 
L 291.85093 108.872014 
L 292.244325 108.552523 
L 292.637721 104.126311 
L 293.031116 105.066406 
L 293.424512 102.409075 
L 293.817908 102.420693 
L 294.211303 102.167173 
L 294.604699 102.424028 
L 294.998095 101.346884 
L 295.39149 101.586638 
L 295.784886 99.214056 
L 296.178281 98.357428 
L 296.571677 98.51949 
L 296.965073 99.329411 
L 297.358468 97.127684 
L 297.751864 97.572308 
L 298.145259 97.567278 
L 298.538655 95.989291 
L 298.932051 96.751792 
L 299.325446 94.923878 
L 299.718842 93.676599 
L 300.112238 92.846344 
L 300.899029 94.350265 
L 301.292424 92.007157 
L 301.68582 94.949694 
L 302.079216 89.777717 
L 302.472611 94.226194 
L 302.866007 89.971464 
L 303.259403 88.742365 
L 303.652798 91.689221 
L 304.439589 90.818215 
L 304.832985 89.056884 
L 305.226381 90.768026 
L 305.619776 89.366189 
L 306.013172 90.694134 
L 306.406568 89.823151 
L 306.799963 87.53574 
L 307.193359 90.966928 
L 307.586754 87.685068 
L 307.98015 90.766219 
L 308.373546 88.840335 
L 308.766941 88.045227 
L 309.160337 86.146389 
L 309.553732 88.398037 
L 309.947128 86.328321 
L 310.340524 87.154604 
L 310.733919 86.704438 
L 311.127315 87.08015 
L 311.520711 87.920422 
L 311.914106 86.082935 
L 312.307502 86.846282 
L 312.700897 88.694212 
L 313.094293 85.460208 
L 313.487689 83.480146 
L 313.881084 85.553143 
L 314.27448 84.628859 
L 314.667876 83.319003 
L 315.061271 84.178524 
L 315.454667 86.459297 
L 315.848062 83.028266 
L 316.241458 85.494545 
L 316.634854 84.239902 
L 317.028249 83.511609 
L 317.421645 81.759868 
L 318.601832 85.447128 
L 318.995227 84.719396 
L 319.388623 85.471735 
L 319.782019 84.141116 
L 320.175414 82.357828 
L 320.56881 82.954733 
L 320.962205 82.29215 
L 321.355601 83.265445 
L 321.748997 81.341764 
L 322.142392 83.415356 
L 322.535788 81.71868 
L 322.929184 86.38656 
L 323.322579 79.525355 
L 323.715975 85.188766 
L 324.10937 83.095629 
L 324.896162 81.232953 
L 325.289557 83.730939 
L 326.076349 80.56208 
L 326.469744 76.865347 
L 326.86314 81.443896 
L 327.256535 78.124401 
L 327.649931 76.528951 
L 328.043327 76.905912 
L 328.436722 82.90147 
L 328.830118 81.784462 
L 329.223514 78.638176 
L 329.616909 77.956619 
L 330.010305 78.728514 
L 330.4037 76.672246 
L 331.190492 80.443294 
L 331.583887 78.081856 
L 332.370678 76.207337 
L 333.15747 78.943157 
L 333.550865 78.384423 
L 333.944261 77.504489 
L 334.337657 78.843514 
L 334.731052 73.803751 
L 335.124448 78.817709 
L 335.517843 75.723579 
L 335.911239 75.384253 
L 336.304635 74.7256 
L 336.69803 76.505788 
L 337.091426 75.915043 
L 337.484822 76.424786 
L 337.878217 76.486259 
L 338.271613 76.952938 
L 338.665008 76.469159 
L 339.058404 77.519468 
L 339.4518 75.222617 
L 339.845195 75.404427 
L 340.238591 79.923423 
L 340.631987 76.4818 
L 341.025382 76.344698 
L 341.418778 74.57978 
L 341.812173 77.470384 
L 342.205569 76.605567 
L 342.598965 75.300894 
L 342.99236 76.933361 
L 343.385756 71.984604 
L 343.779151 73.953997 
L 344.172547 74.149611 
L 344.565943 75.968317 
L 344.959338 74.577684 
L 345.352734 75.83991 
L 345.74613 72.332909 
L 346.139525 72.60465 
L 346.532921 73.797383 
L 346.926316 70.623501 
L 347.319712 72.273833 
L 347.713108 71.61948 
L 348.106503 73.370101 
L 348.499899 70.629522 
L 348.893295 75.59048 
L 349.28669 74.46941 
L 349.680086 71.307674 
L 350.073481 72.62308 
L 350.466877 76.630615 
L 350.860273 74.969631 
L 351.253668 72.514985 
L 352.04046 73.236079 
L 352.433855 72.840253 
L 352.827251 73.366463 
L 353.220646 69.685265 
L 353.614042 73.050876 
L 354.007438 71.826105 
L 354.400833 72.938077 
L 354.794229 69.049803 
L 355.187624 72.870735 
L 355.58102 71.525205 
L 355.974416 70.954148 
L 356.367811 68.772564 
L 356.761207 68.028984 
L 357.154603 71.369196 
L 357.547998 72.316704 
L 357.941394 70.503407 
L 358.334789 69.363688 
L 358.728185 70.008672 
L 359.121581 71.201688 
L 359.514976 69.461804 
L 359.908372 71.905691 
L 360.301768 72.150681 
L 360.695163 73.093607 
L 361.088559 73.567603 
L 361.481954 74.462625 
L 361.87535 67.042629 
L 362.268746 71.293597 
L 362.662141 71.025373 
L 363.055537 70.587572 
L 363.448933 68.413206 
L 363.842328 67.094575 
L 364.235724 70.914766 
L 364.629119 68.776997 
L 365.022515 70.049267 
L 365.415911 70.618017 
L 365.809306 72.778413 
L 366.202702 70.353206 
L 366.596098 73.812156 
L 366.989493 70.923651 
L 367.382889 72.008255 
L 367.776284 73.791293 
L 368.16968 72.368841 
L 368.563076 69.925944 
L 368.956471 68.561854 
L 369.349867 71.923198 
L 369.743262 68.081664 
L 370.136658 71.035489 
L 370.530054 69.775865 
L 370.923449 65.942219 
L 371.710241 70.421196 
L 372.103636 68.640167 
L 372.497032 73.596728 
L 372.890427 67.449345 
L 373.283823 66.300693 
L 373.677219 68.072095 
L 374.070614 68.716717 
L 374.46401 70.592332 
L 375.250801 67.147772 
L 375.644197 66.596923 
L 376.037592 66.81457 
L 376.430988 67.381123 
L 376.824384 65.532265 
L 377.217779 66.142802 
L 377.611175 66.462366 
L 378.004571 69.305495 
L 378.397966 69.204451 
L 378.791362 67.470453 
L 379.184757 69.262912 
L 379.578153 68.439234 
L 379.971549 66.974174 
L 380.364944 66.604247 
L 380.75834 67.839094 
L 381.151735 66.867008 
L 381.545131 63.174159 
L 381.938527 63.784002 
L 382.331922 64.128093 
L 382.725318 70.140868 
L 383.118714 65.618071 
L 383.512109 67.576096 
L 383.905505 68.119902 
L 384.2989 67.837748 
L 384.692296 68.110557 
L 385.085692 68.037575 
L 385.479087 67.710848 
L 385.872483 66.311663 
L 386.265879 68.63325 
L 386.659274 67.760915 
L 387.05267 65.553557 
L 387.446065 61.984778 
L 387.839461 68.482858 
L 388.232857 68.756825 
L 388.626252 68.148225 
L 389.413044 64.171904 
L 389.806439 63.467077 
L 390.199835 66.381186 
L 390.59323 64.816636 
L 390.986626 66.093609 
L 391.380022 64.376551 
L 391.773417 63.22863 
L 392.166813 64.87416 
L 392.560208 65.074056 
L 392.953604 63.664551 
L 393.347 63.488065 
L 393.740395 62.26756 
L 394.133791 64.104251 
L 394.527187 67.172488 
L 394.920582 63.099196 
L 395.313978 62.326181 
L 395.707373 60.619962 
L 396.100769 65.616941 
L 396.494165 64.730671 
L 396.88756 62.394136 
L 397.280956 64.500607 
L 397.674352 67.540578 
L 398.067747 60.413899 
L 398.461143 66.15727 
L 398.854538 63.959018 
L 399.247934 61.08117 
L 399.64133 62.617507 
L 400.034725 62.239557 
L 400.428121 60.993987 
L 400.821517 60.701088 
L 401.608308 63.616982 
L 402.001703 66.907914 
L 402.395099 60.481659 
L 402.788495 62.755014 
L 403.18189 64.219609 
L 403.575286 62.195216 
L 403.968681 62.931718 
L 404.362077 64.104657 
L 404.755473 64.21339 
L 405.148868 56.862031 
L 405.542264 62.694042 
L 405.93566 65.794604 
L 406.329055 58.62798 
L 406.722451 64.233288 
L 407.115846 60.98575 
L 407.509242 66.286382 
L 407.902638 63.289399 
L 408.296033 63.636419 
L 408.689429 68.732544 
L 409.082825 62.213358 
L 409.47622 61.212348 
L 409.869616 61.680401 
L 410.656407 66.915704 
L 411.836594 54.626155 
L 412.623385 65.789646 
L 413.016781 61.836982 
L 413.410176 64.280109 
L 413.803572 62.811816 
L 414.196968 62.070903 
L 414.590363 60.372498 
L 414.983759 61.933847 
L 415.377154 61.936588 
L 415.77055 59.579944 
L 416.163946 62.256195 
L 416.557341 58.706699 
L 416.950737 60.991025 
L 417.344133 59.381532 
L 417.737528 60.979185 
L 418.130924 56.885241 
L 418.524319 66.620224 
L 418.917715 60.235873 
L 419.311111 60.398025 
L 419.704506 66.526309 
L 420.097902 63.030985 
L 420.491298 63.615712 
L 420.884693 61.856332 
L 421.278089 61.257132 
L 421.671484 64.212595 
L 422.06488 57.542359 
L 422.458276 55.961687 
L 422.851671 56.566998 
L 423.245067 55.434412 
L 423.638463 65.227319 
L 424.031858 57.721357 
L 424.425254 66.145465 
L 424.818649 61.654129 
L 425.212045 59.504904 
L 425.605441 62.577634 
L 425.998836 63.623316 
L 426.392232 55.741927 
L 426.785627 58.620568 
L 427.179023 57.982787 
L 427.572419 62.93908 
L 427.965814 61.956434 
L 428.35921 63.351027 
L 428.752606 61.367061 
L 429.146001 57.264511 
L 429.932792 57.080427 
L 430.326188 58.212081 
L 430.719584 57.39806 
L 431.112979 60.72199 
L 431.506375 62.492126 
L 432.293166 55.538984 
L 432.686562 57.44574 
L 433.079957 56.26355 
L 433.473353 62.615862 
L 433.866749 57.707641 
L 434.260144 57.064941 
L 434.65354 49.717405 
L 435.046936 57.165688 
L 435.440331 62.008059 
L 435.833727 55.544419 
L 436.227122 60.47382 
L 436.620518 58.968934 
L 437.013914 57.94261 
L 437.407309 55.773135 
L 437.800705 57.146935 
L 438.1941 57.457114 
L 438.587496 59.565054 
L 438.980892 54.903052 
L 439.374287 56.024165 
L 439.767683 54.097455 
L 440.161079 54.797315 
L 440.554474 59.896788 
L 441.341265 52.258444 
L 441.734661 51.672359 
L 442.128057 55.327799 
L 442.521452 56.562792 
L 442.914848 52.425078 
L 443.308244 59.792324 
L 444.095035 53.334594 
L 444.48843 59.850441 
L 444.881826 57.514877 
L 445.275222 53.82565 
L 445.668617 55.572083 
L 446.062013 53.881051 
L 446.455409 53.814942 
L 446.848804 57.449026 
L 447.2422 53.144283 
L 447.635595 53.996297 
L 448.028991 57.081683 
L 448.422387 53.577488 
L 448.815782 53.719986 
L 449.209178 51.712058 
L 449.602573 53.654925 
L 449.995969 53.276734 
L 450.78276 58.150091 
L 451.176156 57.093617 
L 451.569552 58.407246 
L 452.356343 49.88722 
L 452.749738 54.923325 
L 453.143134 50.56132 
L 453.53653 51.585671 
L 453.929925 57.988151 
L 454.323321 56.100436 
L 454.716717 57.897409 
L 455.110112 49.491922 
L 455.503508 53.949755 
L 455.896903 54.649635 
L 456.290299 50.811361 
L 456.683695 56.391432 
L 457.470486 51.316981 
L 457.863882 54.133836 
L 458.257277 54.172698 
L 458.650673 54.348286 
L 459.044068 52.121208 
L 459.437464 56.60603 
L 459.83086 50.332643 
L 460.224255 52.856037 
L 460.617651 54.221116 
L 461.011047 54.841015 
L 461.404442 50.044616 
L 461.797838 48.947262 
L 462.191233 55.165021 
L 462.584629 57.336369 
L 462.978025 53.425024 
L 463.37142 53.542326 
L 463.764816 56.936158 
L 464.158211 50.748918 
L 464.551607 55.061491 
L 464.945003 46.397401 
L 465.338398 51.746674 
L 465.731794 51.837036 
L 466.12519 51.438122 
L 466.518585 52.05811 
L 466.911981 47.552198 
L 467.698772 52.08565 
L 468.092168 49.901498 
L 468.485563 58.626072 
L 468.878959 49.869925 
L 469.272355 53.801479 
L 469.66575 56.398384 
L 470.059146 50.487161 
L 470.452541 60.168367 
L 470.845937 50.587528 
L 471.239333 52.947764 
L 471.632728 49.242337 
L 472.026124 51.68997 
L 472.41952 56.749519 
L 472.812915 50.5366 
L 473.206311 55.343547 
L 473.599706 54.411073 
L 473.993102 55.299922 
L 474.386498 54.461168 
L 475.173289 48.567904 
L 475.566684 53.747496 
L 475.96008 54.224397 
L 476.353476 51.627035 
L 476.353476 51.627035 
" clip-path="url(#p6e452ffc9e)" style="fill: none; stroke: #c0392b; stroke-width: 1.5; stroke-linecap: square"/>
   </g>
   <g id="patch_8">
    <path d="M 275.190625 142.118125 
L 275.190625 22.318125 
" style="fill: none; stroke: #000000; stroke-width: 0.8; stroke-linejoin: miter; stroke-linecap: square"/>
   </g>
   <g id="patch_9">
    <path d="M 485.932659 142.118125 
L 485.932659 22.318125 
" style="fill: none; stroke: #000000; stroke-width: 0.8; stroke-linejoin: miter; stroke-linecap: square"/>
   </g>
   <g id="patch_10">
    <path d="M 275.190625 142.118125 
L 485.932659 142.118125 
" style="fill: none; stroke: #000000; stroke-width: 0.8; stroke-linejoin: miter; stroke-linecap: square"/>
   </g>
   <g id="patch_11">
    <path d="M 275.190625 22.318125 
L 485.932659 22.318125 
" style="fill: none; stroke: #000000; stroke-width: 0.8; stroke-linejoin: miter; stroke-linecap: square"/>
   </g>
   <g id="text_23">
    <text style="font-size: 12px; font-family: 'DejaVu Sans', 'Bitstream Vera Sans', 'Computer Modern Sans Serif', 'Lucida Grande', 'Verdana', 'Geneva', 'Lucid', 'Arial', 'Helvetica', 'Avant Garde', sans-serif; text-anchor: middle" x="380.561642" y="16.318125" transform="rotate(-0 380.561642 16.318125)">per-sample KL</text>
   </g>
  </g>
 </g>
 <defs>
  <clipPath id="pd1ea7ff29f">
   <rect x="46.965625" y="22.318125" width="210.742034" height="119.8"/>
  </clipPath>
  <clipPath id="p6e452ffc9e">
   <rect x="275.190625" y="22.318125" width="210.742034" height="119.8"/>
  </clipPath>
 </defs>
</svg>
