<?xml version="1.0" encoding="utf-8" standalone="no"?>
<!DOCTYPE svg PUBLIC "-//W3C//DTD SVG 1.1//EN"
  "http://www.w3.org/Graphics/SVG/1.1/DTD/svg11.dtd">
<svg xmlns:xlink="http://www.w3.org/1999/xlink" width="493.105159pt" height="179.674375pt" viewBox="0 0 493.105159 179.674375" xmlns="http://www.w3.org/2000/svg" version="1.1">
 <metadata>
  <rdf:RDF xmlns:dc="http://purl.org/dc/elements/1.1/" xmlns:cc="http://creativecommons.org/ns#" xmlns:rdf="http://www.w3.org/1999/02/22-rdf-syntax-ns#">
   <cc:Work>
    <dc:type rdf:resource="http://purl.org/dc/dcmitype/StillImage"/>
    <dc:format>image/svg+xml</dc:format>
    <dc:creator>
     <cc:Agent>
      <dc:title>Matplotlib v3.10.9, https://matplotlib.org/</dc:title>
     </cc:Agent>
    </dc:creator>
   </cc:Work>
  </rdf:RDF>
 </metadata>
 <defs>
  <style type="text/css">*{stroke-linejoin: round; stroke-linecap: butt}</style>
 </defs>
 <g id="figure_1">
  <g id="patch_1">
   <path d="M 0 179.674375 
L 493.105159 179.674375 
L 493.105159 0 
L 0 0 
z
" style="fill: #ffffff"/>
  </g>
  <g id="axes_1">
   <g id="patch_2">
    <path d="M 53.328125 142.118125 
L 260.875159 142.118125 
L 260.875159 22.318125 
L 53.328125 22.318125 
z
" style="fill: #ffffff"/>
   </g>
   <g id="FillBetweenPolyCollection_1">
    <defs>
     <path id="mddf383162e" d="M 62.762081 -58.251588 
L 62.762081 -53.51988 
L 63.149513 -55.712725 
L 63.536944 -55.417966 
L 63.924375 -45.478633 
L 64.311807 -54.251131 
L 64.699238 -57.413699 
L 65.08667 -56.536861 
L 65.474101 -57.044699 
L 65.861533 -56.4322 
L 66.248964 -55.803803 
L 66.636396 -53.678877 
L 67.023827 -55.872519 
L 67.411259 -52.756915 
L 67.79869 -56.039593 
L 68.186122 -55.950563 
L 68.573553 -55.27741 
L 68.960984 -56.09179 
L 69.348416 -55.862109 
L 69.735847 -56.631211 
L 70.123279 -43.001705 
L 70.51071 -56.121034 
L 70.898142 -57.352692 
L 71.285573 -55.440101 
L 71.673005 -55.310611 
L 72.060436 -54.72797 
L 72.447868 -55.113857 
L 72.835299 -51.308381 
L 73.222731 -56.815557 
L 73.610162 -56.612593 
L 73.997593 -54.597807 
L 74.385025 -57.126002 
L 74.772456 -51.664784 
L 75.159888 -57.604384 
L 75.547319 -54.041561 
L 75.934751 -54.269362 
L 76.322182 -57.832484 
L 76.709614 -57.107891 
L 77.097045 -58.261783 
L 77.484477 -57.520464 
L 77.871908 -55.437627 
L 78.25934 -58.521315 
L 78.646771 -58.563473 
L 79.034202 -57.565954 
L 79.421634 -58.481278 
L 79.809065 -58.090634 
L 80.196497 -57.786727 
L 80.583928 -58.755954 
L 80.97136 -57.946145 
L 81.358791 -58.404012 
L 81.746223 -58.500333 
L 82.133654 -57.911545 
L 82.521086 -58.833876 
L 82.908517 -57.481669 
L 83.295949 -58.072111 
L 83.68338 -55.087429 
L 84.070811 -57.334856 
L 84.458243 -57.939597 
L 84.845674 -57.959872 
L 85.233106 -57.251147 
L 85.620537 -58.138302 
L 86.007969 -57.926213 
L 86.3954 -57.648014 
L 86.782832 -56.178599 
L 87.170263 -55.925009 
L 87.557695 -58.500213 
L 87.945126 -56.838197 
L 88.332558 -57.811306 
L 88.719989 -57.767435 
L 89.10742 -59.606571 
L 89.494852 -58.075125 
L 89.882283 -58.766779 
L 90.269715 -59.264518 
L 90.657146 -58.255878 
L 91.044578 -59.42701 
L 91.432009 -59.426523 
L 91.819441 -59.145247 
L 92.206872 -58.36889 
L 92.594304 -59.452304 
L 92.981735 -59.182693 
L 93.369167 -59.377113 
L 93.756598 -56.890264 
L 94.14403 -58.294193 
L 94.531461 -59.31579 
L 94.918892 -59.696835 
L 95.306324 -58.514734 
L 95.693755 -58.440473 
L 96.081187 -59.3999 
L 96.468618 -59.318619 
L 96.85605 -59.279173 
L 97.243481 -59.044237 
L 97.630913 -59.029365 
L 98.018344 -59.753612 
L 98.405776 -59.846123 
L 98.793207 -59.712428 
L 99.180639 -59.851667 
L 99.56807 -56.06401 
L 99.955501 -59.621256 
L 100.342933 -60.121486 
L 100.730364 -59.16166 
L 101.117796 -59.883194 
L 101.505227 -60.039996 
L 101.892659 -59.694597 
L 102.28009 -59.996675 
L 102.667522 -60.116365 
L 103.054953 -59.470224 
L 103.442385 -60.373333 
L 103.829816 -60.354272 
L 104.217248 -60.103525 
L 104.604679 -60.240434 
L 104.99211 -60.570737 
L 105.379542 -60.729488 
L 105.766973 -60.453118 
L 106.154405 -60.491987 
L 106.541836 -60.652335 
L 106.929268 -60.347727 
L 107.316699 -60.262715 
L 107.704131 -60.717796 
L 108.091562 -60.617434 
L 108.478994 -60.713027 
L 108.866425 -60.779462 
L 109.253857 -61.004429 
L 109.641288 -61.170074 
L 110.028719 -61.182679 
L 110.416151 -61.253232 
L 110.803582 -61.052379 
L 111.191014 -60.977108 
L 111.578445 -61.274728 
L 111.965877 -61.683117 
L 112.353308 -60.934044 
L 112.74074 -60.597039 
L 113.128171 -60.727198 
L 113.515603 -61.525836 
L 113.903034 -61.594552 
L 114.290466 -61.929231 
L 114.677897 -61.068731 
L 115.065328 -62.207208 
L 115.45276 -62.088298 
L 115.840191 -61.590291 
L 116.227623 -61.731699 
L 116.615054 -61.574848 
L 117.002486 -61.310233 
L 117.389917 -62.528741 
L 117.777349 -62.799229 
L 118.16478 -62.332685 
L 118.552212 -61.955358 
L 118.939643 -63.211364 
L 119.327075 -62.510493 
L 119.714506 -64.631548 
L 120.101937 -64.328056 
L 120.489369 -63.29366 
L 120.8768 -63.861054 
L 121.264232 -63.737988 
L 121.651663 -64.160405 
L 122.039095 -63.760649 
L 122.426526 -63.147532 
L 122.813958 -64.650197 
L 123.201389 -65.38931 
L 123.588821 -63.78176 
L 123.976252 -65.832293 
L 124.363684 -65.779957 
L 124.751115 -64.090277 
L 125.138546 -66.924932 
L 125.525978 -65.040989 
L 125.913409 -65.560227 
L 126.300841 -65.379873 
L 126.688272 -66.362187 
L 127.075704 -66.498659 
L 127.463135 -65.745938 
L 127.850567 -66.254729 
L 128.237998 -67.738996 
L 128.62543 -65.093027 
L 129.012861 -71.368023 
L 129.400293 -68.410936 
L 129.787724 -68.145681 
L 130.175155 -67.223903 
L 130.562587 -67.348998 
L 130.950018 -68.973921 
L 131.33745 -74.407972 
L 131.724881 -71.167772 
L 132.112313 -68.215885 
L 132.499744 -69.817742 
L 132.887176 -67.632275 
L 133.274607 -74.688315 
L 133.662039 -68.588106 
L 134.04947 -70.003819 
L 134.436902 -69.142647 
L 134.824333 -67.755989 
L 135.211764 -69.777325 
L 135.599196 -71.687768 
L 135.986627 -70.949634 
L 136.374059 -69.72943 
L 136.76149 -69.235076 
L 137.148922 -74.601209 
L 137.536353 -75.281276 
L 137.923785 -68.770367 
L 138.311216 -70.787326 
L 138.698648 -71.85189 
L 139.086079 -71.967192 
L 139.473511 -68.528267 
L 139.860942 -71.398484 
L 140.248373 -76.009119 
L 140.635805 -73.130744 
L 141.023236 -72.942233 
L 141.410668 -79.484133 
L 141.798099 -73.936882 
L 142.185531 -74.532327 
L 142.572962 -73.292738 
L 142.960394 -74.580653 
L 143.347825 -74.739135 
L 143.735257 -72.0203 
L 144.122688 -72.157265 
L 144.51012 -74.544455 
L 144.897551 -77.346725 
L 145.284982 -78.465463 
L 145.672414 -76.107004 
L 146.059845 -76.781166 
L 146.447277 -75.788612 
L 146.834708 -73.146222 
L 147.22214 -78.831862 
L 147.609571 -76.027748 
L 147.997003 -77.410443 
L 148.384434 -75.622988 
L 148.771866 -74.994769 
L 149.159297 -76.70164 
L 149.546729 -77.198122 
L 149.93416 -75.717095 
L 150.321591 -76.756184 
L 150.709023 -79.03186 
L 151.096454 -71.73151 
L 151.483886 -82.696499 
L 151.871317 -73.954405 
L 152.258749 -76.181166 
L 152.64618 -75.54847 
L 153.033612 -77.080532 
L 153.421043 -75.667262 
L 153.808475 -81.056978 
L 154.195906 -79.921672 
L 154.583338 -83.076984 
L 154.970769 -79.7841 
L 155.3582 -79.575701 
L 155.745632 -76.319602 
L 156.133063 -82.646931 
L 156.520495 -72.034838 
L 156.907926 -77.817185 
L 157.295358 -82.748007 
L 157.682789 -81.442525 
L 158.070221 -77.310637 
L 158.457652 -81.30077 
L 158.845084 -77.668934 
L 159.232515 -81.915189 
L 159.619947 -79.348372 
L 160.007378 -82.426747 
L 160.394809 -76.942035 
L 160.782241 -78.05198 
L 161.169672 -76.500964 
L 161.557104 -77.78844 
L 161.944535 -80.775884 
L 162.331967 -76.94801 
L 162.719398 -78.411705 
L 163.10683 -86.145426 
L 163.494261 -75.911458 
L 163.881693 -83.382667 
L 164.269124 -77.070497 
L 164.656556 -79.261341 
L 165.043987 -81.617411 
L 165.431418 -83.147243 
L 165.81885 -76.381006 
L 166.206281 -85.286135 
L 166.593713 -81.979399 
L 166.981144 -94.803791 
L 167.368576 -88.645818 
L 167.756007 -84.080398 
L 168.143439 -83.551637 
L 168.53087 -85.19998 
L 168.918302 -81.241455 
L 169.305733 -85.811 
L 169.693165 -89.933469 
L 170.080596 -81.973995 
L 170.468027 -83.310912 
L 170.855459 -79.770812 
L 171.24289 -80.879912 
L 171.630322 -82.727457 
L 172.017753 -82.886714 
L 172.405185 -89.441212 
L 172.792616 -86.796317 
L 173.180048 -89.180226 
L 173.567479 -88.440318 
L 173.954911 -86.014249 
L 174.342342 -79.684887 
L 174.729774 -79.614487 
L 175.117205 -89.818468 
L 175.504636 -92.709103 
L 175.892068 -91.30466 
L 176.279499 -85.281497 
L 176.666931 -83.577007 
L 177.054362 -88.553841 
L 177.441794 -93.954545 
L 177.829225 -91.765328 
L 178.216657 -88.929422 
L 178.604088 -84.410729 
L 178.99152 -85.481949 
L 179.378951 -87.820323 
L 179.766383 -94.272678 
L 180.153814 -93.030324 
L 180.541245 -89.132095 
L 180.928677 -91.40853 
L 181.316108 -91.859265 
L 181.70354 -92.568254 
L 182.090971 -90.752505 
L 182.478403 -83.252317 
L 182.865834 -90.969686 
L 183.253266 -88.912332 
L 183.640697 -88.225629 
L 184.028129 -86.013367 
L 184.41556 -80.379947 
L 184.802992 -85.649763 
L 185.190423 -82.630566 
L 185.577854 -96.607124 
L 185.965286 -92.504521 
L 186.352717 -86.474674 
L 186.740149 -88.948186 
L 187.12758 -97.013087 
L 187.515012 -88.008769 
L 187.902443 -89.786713 
L 188.289875 -100.136473 
L 188.677306 -98.501812 
L 189.064738 -92.51882 
L 189.452169 -103.971049 
L 189.839601 -100.115196 
L 190.227032 -84.843479 
L 190.614463 -92.269566 
L 191.001895 -93.051662 
L 191.389326 -98.247098 
L 191.776758 -83.637038 
L 192.164189 -94.114139 
L 192.551621 -103.237276 
L 192.939052 -94.816793 
L 193.326484 -89.858037 
L 193.713915 -83.394044 
L 194.101347 -78.898144 
L 194.488778 -103.246905 
L 194.87621 -94.517326 
L 195.263641 -97.176541 
L 195.651072 -101.12963 
L 196.038504 -100.179967 
L 196.425935 -103.830233 
L 196.813367 -91.278944 
L 197.200798 -89.945936 
L 197.58823 -86.248974 
L 197.975661 -111.23128 
L 198.363093 -88.02482 
L 198.750524 -95.024133 
L 199.137956 -93.932637 
L 199.525387 -97.25359 
L 199.912819 -93.753122 
L 200.30025 -91.67649 
L 200.687681 -92.949072 
L 201.075113 -106.331292 
L 201.462544 -102.956312 
L 201.849976 -104.447862 
L 202.237407 -91.889489 
L 202.624839 -94.588178 
L 203.01227 -97.077462 
L 203.399702 -93.374117 
L 203.787133 -100.100979 
L 204.174565 -86.324938 
L 204.561996 -87.415309 
L 204.949428 -96.128804 
L 205.336859 -91.815566 
L 205.72429 -92.86564 
L 206.111722 -111.740625 
L 206.499153 -100.49125 
L 206.886585 -92.747847 
L 207.274016 -93.81817 
L 207.661448 -104.263891 
L 208.048879 -98.794191 
L 208.436311 -95.437582 
L 208.823742 -100.892496 
L 209.211174 -111.198473 
L 209.598605 -103.387173 
L 209.986037 -99.768505 
L 210.373468 -101.724664 
L 210.7609 -96.371997 
L 211.148331 -103.852007 
L 211.535762 -98.330001 
L 211.923194 -101.906172 
L 212.310625 -108.339703 
L 212.698057 -101.333007 
L 213.085488 -88.511131 
L 213.47292 -103.214165 
L 213.860351 -98.641641 
L 214.247783 -98.904957 
L 214.635214 -107.180491 
L 215.022646 -101.467531 
L 215.410077 -106.390743 
L 215.797509 -109.492236 
L 216.18494 -115.115609 
L 216.572371 -105.826477 
L 216.959803 -104.624494 
L 217.347234 -114.214848 
L 217.734666 -96.499274 
L 218.122097 -98.24092 
L 218.509529 -89.068871 
L 218.89696 -102.76611 
L 219.284392 -93.665143 
L 219.671823 -104.307254 
L 220.059255 -94.444103 
L 220.446686 -99.118244 
L 220.834118 -98.659465 
L 221.221549 -116.058365 
L 221.60898 -97.976525 
L 221.996412 -109.15394 
L 222.383843 -104.317303 
L 222.771275 -97.367503 
L 223.158706 -109.613884 
L 223.546138 -108.860257 
L 223.933569 -107.184034 
L 224.321001 -92.877655 
L 224.708432 -115.488988 
L 225.095864 -103.221136 
L 225.483295 -113.073206 
L 225.870727 -114.571244 
L 226.258158 -102.222422 
L 226.645589 -107.259104 
L 227.033021 -104.191116 
L 227.420452 -118.83455 
L 227.807884 -99.028595 
L 228.195315 -114.628198 
L 228.582747 -109.918223 
L 228.970178 -100.903864 
L 229.35761 -114.110742 
L 229.745041 -100.77911 
L 230.132473 -121.963645 
L 230.519904 -108.810908 
L 230.907336 -108.322921 
L 231.294767 -102.74536 
L 231.682198 -110.474749 
L 232.06963 -107.290552 
L 232.457061 -114.907465 
L 232.844493 -106.600986 
L 233.231924 -106.757381 
L 233.619356 -102.433469 
L 234.006787 -112.997282 
L 234.394219 -111.572279 
L 234.78165 -103.71003 
L 235.169082 -117.876647 
L 235.556513 -106.270863 
L 235.943945 -95.323444 
L 236.331376 -106.855107 
L 236.718807 -96.135807 
L 237.106239 -116.922618 
L 237.49367 -108.599503 
L 237.881102 -100.354627 
L 238.268533 -101.803959 
L 238.655965 -111.639 
L 239.043396 -99.852168 
L 239.430828 -113.68853 
L 239.818259 -108.365001 
L 240.205691 -105.946692 
L 240.593122 -117.548487 
L 240.980554 -129.028528 
L 241.367985 -120.640511 
L 241.755416 -126.847799 
L 242.142848 -112.888325 
L 242.530279 -115.174992 
L 242.917711 -107.256403 
L 243.305142 -126.160103 
L 243.692574 -113.659849 
L 244.080005 -116.427019 
L 244.467437 -112.377069 
L 244.854868 -112.979426 
L 245.2423 -97.938052 
L 245.629731 -109.171318 
L 246.017163 -113.123646 
L 246.404594 -98.827163 
L 246.792025 -107.218566 
L 247.179457 -110.83906 
L 247.566888 -123.120735 
L 247.95432 -103.940558 
L 248.341751 -109.869867 
L 248.729183 -115.211785 
L 249.116614 -108.443723 
L 249.504046 -107.526035 
L 249.891477 -111.436947 
L 250.278909 -107.979792 
L 250.66634 -120.730475 
L 251.053772 -117.658318 
L 251.441203 -112.899976 
L 251.441203 -147.397058 
L 251.441203 -147.397058 
L 251.053772 -151.910795 
L 250.66634 -146.480243 
L 250.278909 -134.019988 
L 249.891477 -132.457525 
L 249.504046 -142.818612 
L 249.116614 -148.50305 
L 248.729183 -149.972969 
L 248.341751 -148.022352 
L 247.95432 -138.426893 
L 247.566888 -146.449896 
L 247.179457 -145.443545 
L 246.792025 -142.649838 
L 246.404594 -142.447126 
L 246.017163 -129.204714 
L 245.629731 -146.494841 
L 245.2423 -133.895994 
L 244.854868 -146.621344 
L 244.467437 -136.602592 
L 244.080005 -137.379048 
L 243.692574 -140.859905 
L 243.305142 -135.750601 
L 242.917711 -137.710465 
L 242.530279 -129.852708 
L 242.142848 -145.169847 
L 241.755416 -147.579302 
L 241.367985 -146.669817 
L 240.980554 -141.798131 
L 240.593122 -144.381459 
L 240.205691 -136.381632 
L 239.818259 -131.101581 
L 239.430828 -127.007263 
L 239.043396 -145.636422 
L 238.655965 -142.029389 
L 238.268533 -146.326909 
L 237.881102 -144.760051 
L 237.49367 -131.544031 
L 237.106239 -129.826351 
L 236.718807 -131.13178 
L 236.331376 -140.398102 
L 235.943945 -143.944007 
L 235.556513 -133.714161 
L 235.169082 -142.335132 
L 234.78165 -144.039278 
L 234.394219 -130.98063 
L 234.006787 -125.898584 
L 233.619356 -132.335411 
L 233.231924 -141.844168 
L 232.844493 -141.160061 
L 232.457061 -142.730669 
L 232.06963 -131.443211 
L 231.682198 -138.902434 
L 231.294767 -124.028927 
L 230.907336 -135.303423 
L 230.519904 -138.214249 
L 230.132473 -132.539331 
L 229.745041 -136.895549 
L 229.35761 -138.234632 
L 228.970178 -133.122258 
L 228.582747 -126.179013 
L 228.195315 -138.869757 
L 227.807884 -128.220846 
L 227.420452 -139.702146 
L 227.033021 -137.260916 
L 226.645589 -121.425641 
L 226.258158 -119.070288 
L 225.870727 -139.753878 
L 225.483295 -139.076713 
L 225.095864 -128.885977 
L 224.708432 -140.830138 
L 224.321001 -128.025613 
L 223.933569 -138.953527 
L 223.546138 -139.230017 
L 223.158706 -123.450943 
L 222.771275 -125.211317 
L 222.383843 -129.738479 
L 221.996412 -136.928092 
L 221.60898 -124.919155 
L 221.221549 -135.555615 
L 220.834118 -138.643032 
L 220.446686 -127.704064 
L 220.059255 -129.327389 
L 219.671823 -122.945199 
L 219.284392 -121.938884 
L 218.89696 -133.29964 
L 218.509529 -129.299485 
L 218.122097 -123.71154 
L 217.734666 -135.212343 
L 217.347234 -130.531833 
L 216.959803 -122.779402 
L 216.572371 -126.594116 
L 216.18494 -130.056902 
L 215.797509 -135.686312 
L 215.410077 -135.120133 
L 215.022646 -137.792799 
L 214.635214 -133.32187 
L 214.247783 -130.579705 
L 213.860351 -127.266891 
L 213.47292 -134.579301 
L 213.085488 -123.133965 
L 212.698057 -131.893833 
L 212.310625 -124.250046 
L 211.923194 -130.916662 
L 211.535762 -113.970608 
L 211.148331 -126.703443 
L 210.7609 -133.911087 
L 210.373468 -128.696392 
L 209.986037 -134.770595 
L 209.598605 -117.200983 
L 209.211174 -133.194962 
L 208.823742 -124.139031 
L 208.436311 -123.027602 
L 208.048879 -128.749369 
L 207.661448 -120.103183 
L 207.274016 -115.900605 
L 206.886585 -120.093438 
L 206.499153 -127.324425 
L 206.111722 -130.2094 
L 205.72429 -111.671989 
L 205.336859 -123.471399 
L 204.949428 -126.072359 
L 204.561996 -129.502008 
L 204.174565 -127.672228 
L 203.787133 -117.759739 
L 203.399702 -126.169635 
L 203.01227 -122.096684 
L 202.624839 -109.652971 
L 202.237407 -108.003487 
L 201.849976 -124.676834 
L 201.462544 -131.082566 
L 201.075113 -121.841234 
L 200.687681 -125.572226 
L 200.30025 -124.515434 
L 199.912819 -124.442815 
L 199.525387 -112.854857 
L 199.137956 -126.215046 
L 198.750524 -121.920454 
L 198.363093 -110.764007 
L 197.975661 -122.363677 
L 197.58823 -109.895771 
L 197.200798 -124.458776 
L 196.813367 -125.126974 
L 196.425935 -129.296039 
L 196.038504 -104.198295 
L 195.651072 -119.943554 
L 195.263641 -122.884755 
L 194.87621 -120.90579 
L 194.488778 -125.288795 
L 194.101347 -116.191681 
L 193.713915 -112.206391 
L 193.326484 -107.380873 
L 192.939052 -113.05804 
L 192.551621 -114.977184 
L 192.164189 -113.088489 
L 191.776758 -117.23152 
L 191.389326 -114.223128 
L 191.001895 -105.749029 
L 190.614463 -110.944129 
L 190.227032 -99.445047 
L 189.839601 -114.59679 
L 189.452169 -112.971823 
L 189.064738 -119.971871 
L 188.677306 -114.186023 
L 188.289875 -114.760519 
L 187.902443 -113.192204 
L 187.515012 -115.079289 
L 187.12758 -114.209213 
L 186.740149 -107.874032 
L 186.352717 -99.381628 
L 185.965286 -114.275808 
L 185.577854 -108.899587 
L 185.190423 -112.076958 
L 184.802992 -102.804354 
L 184.41556 -104.475079 
L 184.028129 -105.072051 
L 183.640697 -106.798048 
L 183.253266 -105.675379 
L 182.865834 -104.742929 
L 182.478403 -110.664005 
L 182.090971 -112.157832 
L 181.70354 -104.555023 
L 181.316108 -108.265614 
L 180.928677 -100.52305 
L 180.541245 -105.839789 
L 180.153814 -106.716234 
L 179.766383 -117.24499 
L 179.378951 -106.631746 
L 178.99152 -102.509449 
L 178.604088 -106.07717 
L 178.216657 -93.524553 
L 177.829225 -109.259871 
L 177.441794 -109.376627 
L 177.054362 -103.837788 
L 176.666931 -105.344825 
L 176.279499 -105.172229 
L 175.892068 -114.658004 
L 175.504636 -103.807849 
L 175.117205 -117.834875 
L 174.729774 -93.689564 
L 174.342342 -103.397958 
L 173.954911 -103.375073 
L 173.567479 -98.560764 
L 173.180048 -99.73602 
L 172.792616 -108.123934 
L 172.405185 -100.84842 
L 172.017753 -111.954927 
L 171.630322 -97.304887 
L 171.24289 -110.319822 
L 170.855459 -102.461425 
L 170.468027 -97.391767 
L 170.080596 -95.435665 
L 169.693165 -102.309225 
L 169.305733 -102.637944 
L 168.918302 -105.459147 
L 168.53087 -102.114748 
L 168.143439 -98.763417 
L 167.756007 -100.937144 
L 167.368576 -103.626745 
L 166.981144 -103.107588 
L 166.593713 -103.954024 
L 166.206281 -95.318049 
L 165.81885 -94.549067 
L 165.431418 -96.147173 
L 165.043987 -94.294041 
L 164.656556 -105.273561 
L 164.269124 -97.137294 
L 163.881693 -96.256875 
L 163.494261 -84.95461 
L 163.10683 -108.837879 
L 162.719398 -104.913268 
L 162.331967 -90.2077 
L 161.944535 -93.371034 
L 161.557104 -100.096788 
L 161.169672 -90.543279 
L 160.782241 -98.978375 
L 160.394809 -93.738588 
L 160.007378 -95.621014 
L 159.619947 -100.581922 
L 159.232515 -90.083737 
L 158.845084 -85.541744 
L 158.457652 -95.748601 
L 158.070221 -93.658533 
L 157.682789 -91.342733 
L 157.295358 -99.024575 
L 156.907926 -89.88958 
L 156.520495 -89.466668 
L 156.133063 -93.982583 
L 155.745632 -90.157417 
L 155.3582 -86.135534 
L 154.970769 -89.234371 
L 154.583338 -95.497041 
L 154.195906 -92.919912 
L 153.808475 -90.505034 
L 153.421043 -89.600934 
L 153.033612 -94.203394 
L 152.64618 -94.672029 
L 152.258749 -90.696952 
L 151.871317 -81.00419 
L 151.483886 -100.607993 
L 151.096454 -90.898372 
L 150.709023 -90.863272 
L 150.321591 -87.642476 
L 149.93416 -79.394424 
L 149.546729 -91.11329 
L 149.159297 -88.253422 
L 148.771866 -81.667885 
L 148.384434 -86.700233 
L 147.997003 -85.261409 
L 147.609571 -81.539175 
L 147.22214 -87.979399 
L 146.834708 -79.979921 
L 146.447277 -86.129812 
L 146.059845 -88.367723 
L 145.672414 -85.94542 
L 145.284982 -84.651122 
L 144.897551 -84.294775 
L 144.51012 -87.773518 
L 144.122688 -85.138679 
L 143.735257 -81.82989 
L 143.347825 -90.551631 
L 142.960394 -84.122634 
L 142.572962 -78.717462 
L 142.185531 -79.849988 
L 141.798099 -81.72777 
L 141.410668 -84.795097 
L 141.023236 -84.239702 
L 140.635805 -78.893893 
L 140.248373 -88.726194 
L 139.860942 -84.049683 
L 139.473511 -77.36274 
L 139.086079 -84.694893 
L 138.698648 -79.759946 
L 138.311216 -79.774131 
L 137.923785 -76.015493 
L 137.536353 -80.474043 
L 137.148922 -83.672826 
L 136.76149 -78.986171 
L 136.374059 -83.14487 
L 135.986627 -80.319542 
L 135.599196 -84.555796 
L 135.211764 -76.41351 
L 134.824333 -84.430664 
L 134.436902 -83.110474 
L 134.04947 -77.965874 
L 133.662039 -83.107187 
L 133.274607 -81.820033 
L 132.887176 -78.875009 
L 132.499744 -76.785219 
L 132.112313 -75.484101 
L 131.724881 -78.380068 
L 131.33745 -82.325528 
L 130.950018 -76.856848 
L 130.562587 -79.502898 
L 130.175155 -72.33308 
L 129.787724 -75.007403 
L 129.400293 -75.313627 
L 129.012861 -81.242724 
L 128.62543 -78.740567 
L 128.237998 -73.88895 
L 127.850567 -71.69901 
L 127.463135 -76.867619 
L 127.075704 -75.668801 
L 126.688272 -72.181404 
L 126.300841 -74.167754 
L 125.913409 -70.557953 
L 125.525978 -68.06815 
L 125.138546 -70.019928 
L 124.751115 -69.051857 
L 124.363684 -71.426753 
L 123.976252 -73.90293 
L 123.588821 -67.601193 
L 123.201389 -76.070637 
L 122.813958 -65.946608 
L 122.426526 -66.617365 
L 122.039095 -69.66925 
L 121.651663 -71.165581 
L 121.264232 -67.649396 
L 120.8768 -68.081523 
L 120.489369 -70.935067 
L 120.101937 -66.719476 
L 119.714506 -66.89398 
L 119.327075 -65.652426 
L 118.939643 -71.376062 
L 118.552212 -67.001724 
L 118.16478 -68.539277 
L 117.777349 -67.034094 
L 117.389917 -68.038 
L 117.002486 -68.524087 
L 116.615054 -66.136623 
L 116.227623 -65.305529 
L 115.840191 -66.093533 
L 115.45276 -66.608879 
L 115.065328 -64.276264 
L 114.677897 -63.683749 
L 114.290466 -64.137666 
L 113.903034 -62.872956 
L 113.515603 -63.186588 
L 113.128171 -66.001217 
L 112.74074 -65.104769 
L 112.353308 -64.987987 
L 111.965877 -63.552717 
L 111.578445 -63.127684 
L 111.191014 -64.277907 
L 110.803582 -62.097451 
L 110.416151 -63.006466 
L 110.028719 -62.576826 
L 109.641288 -62.053949 
L 109.253857 -61.647621 
L 108.866425 -63.285399 
L 108.478994 -61.586963 
L 108.091562 -62.6979 
L 107.704131 -62.457371 
L 107.316699 -62.621204 
L 106.929268 -62.146066 
L 106.541836 -61.450459 
L 106.154405 -61.674382 
L 105.766973 -61.534323 
L 105.379542 -61.588522 
L 104.99211 -61.14084 
L 104.604679 -61.870207 
L 104.217248 -61.033583 
L 103.829816 -60.797737 
L 103.442385 -60.812346 
L 103.054953 -60.725715 
L 102.667522 -60.562684 
L 102.28009 -60.688612 
L 101.892659 -60.742023 
L 101.505227 -60.655639 
L 101.117796 -60.373685 
L 100.730364 -60.290175 
L 100.342933 -60.434418 
L 99.955501 -60.341756 
L 99.56807 -61.756767 
L 99.180639 -60.00658 
L 98.793207 -60.261477 
L 98.405776 -60.328705 
L 98.018344 -60.230702 
L 97.630913 -60.482873 
L 97.243481 -59.963434 
L 96.85605 -60.093101 
L 96.468618 -59.858986 
L 96.081187 -60.200307 
L 95.693755 -60.381627 
L 95.306324 -60.375921 
L 94.918892 -60.233822 
L 94.531461 -60.159051 
L 94.14403 -60.128667 
L 93.756598 -61.197286 
L 93.369167 -59.947331 
L 92.981735 -59.911077 
L 92.594304 -59.898157 
L 92.206872 -59.874604 
L 91.819441 -60.062545 
L 91.432009 -59.911783 
L 91.044578 -60.007628 
L 90.657146 -60.003142 
L 90.269715 -59.802303 
L 89.882283 -59.843065 
L 89.494852 -60.070541 
L 89.10742 -59.840897 
L 88.719989 -60.361886 
L 88.332558 -59.789687 
L 87.945126 -59.290993 
L 87.557695 -59.706204 
L 87.170263 -60.680662 
L 86.782832 -59.539176 
L 86.3954 -59.897994 
L 86.007969 -59.695615 
L 85.620537 -59.716225 
L 85.233106 -59.781467 
L 84.845674 -59.723899 
L 84.458243 -59.424286 
L 84.070811 -59.502002 
L 83.68338 -60.371255 
L 83.295949 -59.845908 
L 82.908517 -59.49983 
L 82.521086 -59.328379 
L 82.133654 -58.87143 
L 81.746223 -59.502058 
L 81.358791 -59.760376 
L 80.97136 -59.80326 
L 80.583928 -59.50327 
L 80.196497 -59.756406 
L 79.809065 -59.857761 
L 79.421634 -59.596613 
L 79.034202 -59.829843 
L 78.646771 -59.452623 
L 78.25934 -58.872837 
L 77.871908 -59.796517 
L 77.484477 -58.982735 
L 77.097045 -58.987216 
L 76.709614 -58.908807 
L 76.322182 -59.417159 
L 75.934751 -59.768691 
L 75.547319 -59.309548 
L 75.159888 -58.450112 
L 74.772456 -60.519721 
L 74.385025 -58.571559 
L 73.997593 -58.603767 
L 73.610162 -58.571041 
L 73.222731 -58.936568 
L 72.835299 -60.091327 
L 72.447868 -59.059852 
L 72.060436 -58.796165 
L 71.673005 -59.202106 
L 71.285573 -59.027048 
L 70.898142 -59.186472 
L 70.51071 -59.057386 
L 70.123279 -60.543502 
L 69.735847 -59.376205 
L 69.348416 -58.24861 
L 68.960984 -58.635022 
L 68.573553 -59.055501 
L 68.186122 -57.661225 
L 67.79869 -58.637633 
L 67.411259 -58.608531 
L 67.023827 -58.894132 
L 66.636396 -58.408227 
L 66.248964 -58.28947 
L 65.861533 -58.310155 
L 65.474101 -57.87255 
L 65.08667 -59.044038 
L 64.699238 -58.046167 
L 64.311807 -58.851264 
L 63.924375 -56.711212 
L 63.536944 -57.699327 
L 63.149513 -58.364652 
L 62.762081 -58.251588 
z
"/>
    </defs>
    <g clip-path="url(#pa19da0af69)">
     <use xlink:href="#mddf383162e" x="0" y="179.674375" style="fill: #1f77b4; fill-opacity: 0.2"/>
    </g>
   </g>
   <g id="matplotlib.axis_1">
    <g id="xtick_1">
     <g id="line2d_1">
      <path d="M 62.37465 142.118125 
L 62.37465 22.318125 
" clip-path="url(#pa19da0af69)" style="fill: none; stroke: #b0b0b0; stroke-opacity: 0.3; stroke-width: 0.8; stroke-linecap: square"/>
     </g>
     <g id="line2d_2">
      <defs>
       <path id="md52ec2ff24" d="M 0 0 
L 0 3.5 
" style="stroke: #000000; stroke-width: 0.8"/>
      </defs>
      <g>
       <use xlink:href="#md52ec2ff24" x="62.37465" y="142.118125" style="stroke: #000000; stroke-width: 0.8"/>
      </g>
     </g>
     <g id="text_1">
      <text style="font-size: 10px; font-family: 'DejaVu Sans', 'Bitstream Vera Sans', 'Computer Modern Sans Serif', 'Lucida Grande', 'Verdana', 'Geneva', 'Lucid', 'Arial', 'Helvetica', 'Avant Garde', sans-serif; text-anchor: middle" x="62.37465" y="156.716562" transform="rotate(-0 62.37465 156.716562)">0.0</text>
     </g>
    </g>
    <g id="xtick_2">
     <g id="line2d_3">
      <path d="M 100.209753 142.118125 
L 100.209753 22.318125 
" clip-path="url(#pa19da0af69)" style="fill: none; stroke: #b0b0b0; stroke-opacity: 0.3; stroke-width: 0.8; stroke-linecap: square"/>
     </g>
     <g id="line2d_4">
      <g>
       <use xlink:href="#md52ec2ff24" x="100.209753" y="142.118125" style="stroke: #000000; stroke-width: 0.8"/>
      </g>
     </g>
     <g id="text_2">
      <text style="font-size: 10px; font-family: 'DejaVu Sans', 'Bitstream Vera Sans', 'Computer Modern Sans Serif', 'Lucida Grande', 'Verdana', 'Geneva', 'Lucid', 'Arial', 'Helvetica', 'Avant Garde', sans-serif; text-anchor: middle" x="100.209753" y="156.716562" transform="rotate(-0 100.209753 156.716562)">0.2</text>
     </g>
    </g>
    <g id="xtick_3">
     <g id="line2d_5">
      <path d="M 138.044857 142.118125 
L 138.044857 22.318125 
" clip-path="url(#pa19da0af69)" style="fill: none; stroke: #b0b0b0; stroke-opacity: 0.3; stroke-width: 0.8; stroke-linecap: square"/>
     </g>
     <g id="line2d_6">
      <g>
       <use xlink:href="#md52ec2ff24" x="138.044857" y="142.118125" style="stroke: #000000; stroke-width: 0.8"/>
      </g>
     </g>
     <g id="text_3">
      <text style="font-size: 10px; font-family: 'DejaVu Sans', 'Bitstream Vera Sans', 'Computer Modern Sans Serif', 'Lucida Grande', 'Verdana', 'Geneva', 'Lucid', 'Arial', 'Helvetica', 'Avant Garde', sans-serif; text-anchor: middle" x="138.044857" y="156.716562" transform="rotate(-0 138.044857 156.716562)">0.4</text>
     </g>
    </g>
    <g id="xtick_4">
     <g id="line2d_7">
      <path d="M 175.879961 142.118125 
L 175.879961 22.318125 
" clip-path="url(#pa19da0af69)" style="fill: none; stroke: #b0b0b0; stroke-opacity: 0.3; stroke-width: 0.8; stroke-linecap: square"/>
     </g>
     <g id="line2d_8">
      <g>
       <use xlink:href="#md52ec2ff24" x="175.879961" y="142.118125" style="stroke: #000000; stroke-width: 0.8"/>
      </g>
     </g>
     <g id="text_4">
      <text style="font-size: 10px; font-family: 'DejaVu Sans', 'Bitstream Vera Sans', 'Computer Modern Sans Serif', 'Lucida Grande', 'Verdana', 'Geneva', 'Lucid', 'Arial', 'Helvetica', 'Avant Garde', sans-serif; text-anchor: middle" x="175.879961" y="156.716562" transform="rotate(-0 175.879961 156.716562)">0.6</text>
     </g>
    </g>
    <g id="xtick_5">
     <g id="line2d_9">
      <path d="M 213.715064 142.118125 
L 213.715064 22.318125 
" clip-path="url(#pa19da0af69)" style="fill: none; stroke: #b0b0b0; stroke-opacity: 0.3; stroke-width: 0.8; stroke-linecap: square"/>
     </g>
     <g id="line2d_10">
      <g>
       <use xlink:href="#md52ec2ff24" x="213.715064" y="142.118125" style="stroke: #000000; stroke-width: 0.8"/>
      </g>
     </g>
     <g id="text_5">
      <text style="font-size: 10px; font-family: 'DejaVu Sans', 'Bitstream Vera Sans', 'Computer Modern Sans Serif', 'Lucida Grande', 'Verdana', 'Geneva', 'Lucid', 'Arial', 'Helvetica', 'Avant Garde', sans-serif; text-anchor: middle" x="213.715064" y="156.716562" transform="rotate(-0 213.715064 156.716562)">0.8</text>
     </g>
    </g>
    <g id="xtick_6">
     <g id="line2d_11">
      <path d="M 251.550168 142.118125 
L 251.550168 22.318125 
" clip-path="url(#pa19da0af69)" style="fill: none; stroke: #b0b0b0; stroke-opacity: 0.3; stroke-width: 0.8; stroke-linecap: square"/>
     </g>
     <g id="line2d_12">
      <g>
       <use xlink:href="#md52ec2ff24" x="251.550168" y="142.118125" style="stroke: #000000; stroke-width: 0.8"/>
      </g>
     </g>
     <g id="text_6">
      <text style="font-size: 10px; font-family: 'DejaVu Sans', 'Bitstream Vera Sans', 'Computer Modern Sans Serif', 'Lucida Grande', 'Verdana', 'Geneva', 'Lucid', 'Arial', 'Helvetica', 'Avant Garde', sans-serif; text-anchor: middle" x="251.550168" y="156.716562" transform="rotate(-0 251.550168 156.716562)">1.0</text>
     </g>
    </g>
    <g id="text_7">
     <text style="font-size: 10px; font-family: 'DejaVu Sans', 'Bitstream Vera Sans', 'Computer Modern Sans Serif', 'Lucida Grande', 'Verdana', 'Geneva', 'Lucid', 'Arial', 'Helvetica', 'Avant Garde', sans-serif; text-anchor: middle" x="157.101642" y="170.394687" transform="rotate(-0 157.101642 170.394687)">environment step</text>
    </g>
    <g id="text_8">
     <text style="font-size: 10px; font-family: 'DejaVu Sans', 'Bitstream Vera Sans', 'Computer Modern Sans Serif', 'Lucida Grande', 'Verdana', 'Geneva', 'Lucid', 'Arial', 'Helvetica', 'Avant Garde', sans-serif; text-anchor: end" x="260.875159" y="169.394687" transform="rotate(-0 260.875159 169.394687)">1e6</text>
    </g>
   </g>
   <g id="matplotlib.axis_2">
    <g id="ytick_1">
     <g id="line2d_13">
      <path d="M 53.328125 119.440433 
L 260.875159 119.440433 
" clip-path="url(#pa19da0af69)" style="fill: none; stroke: #b0b0b0; stroke-opacity: 0.3; stroke-width: 0.8; stroke-linecap: square"/>
     </g>
     <g id="line2d_14">
      <defs>
       <path id="meb23fb85bc" d="M 0 0 
L -3.5 0 
" style="stroke: #000000; stroke-width: 0.8"/>
      </defs>
      <g>
       <use xlink:href="#meb23fb85bc" x="53.328125" y="119.440433" style="stroke: #000000; stroke-width: 0.8"/>
      </g>
     </g>
     <g id="text_9">
      <text style="font-size: 10px; font-family: 'DejaVu Sans', 'Bitstream Vera Sans', 'Computer Modern Sans Serif', 'Lucida Grande', 'Verdana', 'Geneva', 'Lucid', 'Arial', 'Helvetica', 'Avant Garde', sans-serif; text-anchor: end" x="46.328125" y="123.239652" transform="rotate(-0 46.328125 123.239652)">0</text>
     </g>
    </g>
    <g id="ytick_2">
     <g id="line2d_15">
      <path d="M 53.328125 89.762492 
L 260.875159 89.762492 
" clip-path="url(#pa19da0af69)" style="fill: none; stroke: #b0b0b0; stroke-opacity: 0.3; stroke-width: 0.8; stroke-linecap: square"/>
     </g>
     <g id="line2d_16">
      <g>
       <use xlink:href="#meb23fb85bc" x="53.328125" y="89.762492" style="stroke: #000000; stroke-width: 0.8"/>
      </g>
     </g>
     <g id="text_10">
      <text style="font-size: 10px; font-family: 'DejaVu Sans', 'Bitstream Vera Sans', 'Computer Modern Sans Serif', 'Lucida Grande', 'Verdana', 'Geneva', 'Lucid', 'Arial', 'Helvetica', 'Avant Garde', sans-serif; text-anchor: end" x="46.328125" y="93.561711" transform="rotate(-0 46.328125 93.561711)">1000</text>
     </g>
    </g>
    <g id="ytick_3">
     <g id="line2d_17">
      <path d="M 53.328125 60.084551 
L 260.875159 60.084551 
" clip-path="url(#pa19da0af69)" style="fill: none; stroke: #b0b0b0; stroke-opacity: 0.3; stroke-width: 0.8; stroke-linecap: square"/>
     </g>
     <g id="line2d_18">
      <g>
       <use xlink:href="#meb23fb85bc" x="53.328125" y="60.084551" style="stroke: #000000; stroke-width: 0.8"/>
      </g>
     </g>
     <g id="text_11">
      <text style="font-size: 10px; font-family: 'DejaVu Sans', 'Bitstream Vera Sans', 'Computer Modern Sans Serif', 'Lucida Grande', 'Verdana', 'Geneva', 'Lucid', 'Arial', 'Helvetica', 'Avant Garde', sans-serif; text-anchor: end" x="46.328125" y="63.88377" transform="rotate(-0 46.328125 63.88377)">2000</text>
     </g>
    </g>
    <g id="ytick_4">
     <g id="line2d_19">
      <path d="M 53.328125 30.40661 
L 260.875159 30.40661 
" clip-path="url(#pa19da0af69)" style="fill: none; stroke: #b0b0b0; stroke-opacity: 0.3; stroke-width: 0.8; stroke-linecap: square"/>
     </g>
     <g id="line2d_20">
      <g>
       <use xlink:href="#meb23fb85bc" x="53.328125" y="30.40661" style="stroke: #000000; stroke-width: 0.8"/>
      </g>
     </g>
     <g id="text_12">
      <text style="font-size: 10px; font-family: 'DejaVu Sans', 'Bitstream Vera Sans', 'Computer Modern Sans Serif', 'Lucida Grande', 'Verdana', 'Geneva', 'Lucid', 'Arial', 'Helvetica', 'Avant Garde', sans-serif; text-anchor: end" x="46.328125" y="34.205829" transform="rotate(-0 46.328125 34.205829)">3000</text>
     </g>
    </g>
    <g id="text_13">
     <text style="font-size: 10px; font-family: 'DejaVu Sans', 'Bitstream Vera Sans', 'Computer Modern Sans Serif', 'Lucida Grande', 'Verdana', 'Geneva', 'Lucid', 'Arial', 'Helvetica', 'Avant Garde', sans-serif; text-anchor: middle" x="14.798438" y="82.218125" transform="rotate(-90 14.798438 82.218125)">episode return</text>
    </g>
   </g>
   <g id="line2d_21">
    <path d="M 62.762081 123.788641 
L 63.149513 122.635687 
L 63.536944 123.115728 
L 63.924375 128.579452 
L 64.311807 123.123178 
L 64.699238 121.944442 
L 65.08667 121.883926 
L 65.474101 122.215751 
L 65.861533 122.303198 
L 66.248964 122.627738 
L 66.636396 123.630823 
L 67.023827 122.29105 
L 67.411259 123.991652 
L 67.79869 122.335762 
L 68.186122 122.868481 
L 68.573553 122.507919 
L 68.960984 122.310969 
L 69.348416 122.619015 
L 69.735847 121.670667 
L 70.123279 127.901772 
L 70.51071 122.085165 
L 70.898142 121.404793 
L 71.285573 122.4408 
L 71.673005 122.418016 
L 72.060436 122.912307 
L 72.447868 122.587521 
L 72.835299 123.974521 
L 73.222731 121.798313 
L 73.610162 122.082558 
L 73.997593 123.073588 
L 74.385025 121.825595 
L 74.772456 123.582122 
L 75.159888 121.647127 
L 75.547319 122.998821 
L 75.934751 122.655349 
L 76.322182 121.049554 
L 76.709614 121.666026 
L 77.097045 121.049876 
L 77.484477 121.422776 
L 77.871908 122.057303 
L 78.25934 120.977299 
L 78.646771 120.666327 
L 79.034202 120.976476 
L 79.421634 120.635429 
L 79.809065 120.700177 
L 80.196497 120.902809 
L 80.583928 120.544763 
L 80.97136 120.799672 
L 81.358791 120.592181 
L 81.746223 120.673179 
L 82.133654 121.282887 
L 82.521086 120.593247 
L 82.908517 121.183626 
L 83.295949 120.715366 
L 83.68338 121.945033 
L 84.070811 121.255946 
L 84.845674 120.83249 
L 85.233106 121.158068 
L 85.620537 120.747111 
L 86.3954 120.901371 
L 86.782832 121.815487 
L 87.170263 121.37154 
L 87.557695 120.571166 
L 87.945126 121.60978 
L 88.332558 120.873878 
L 88.719989 120.609714 
L 89.10742 119.950641 
L 89.494852 120.601542 
L 90.269715 120.140965 
L 90.657146 120.544865 
L 91.044578 119.957056 
L 91.819441 120.070479 
L 92.206872 120.552628 
L 92.594304 119.999144 
L 92.981735 120.12749 
L 93.369167 120.012153 
L 93.756598 120.6306 
L 94.14403 120.462945 
L 94.531461 119.936955 
L 94.918892 119.709047 
L 95.306324 120.229047 
L 95.693755 120.263325 
L 96.081187 119.874272 
L 96.468618 120.085573 
L 96.85605 119.988238 
L 97.243481 120.170539 
L 98.018344 119.682218 
L 98.405776 119.586961 
L 99.180639 119.745252 
L 99.56807 120.763986 
L 99.955501 119.692869 
L 100.342933 119.396423 
L 100.730364 119.948458 
L 101.117796 119.545936 
L 101.505227 119.326558 
L 101.892659 119.456065 
L 102.28009 119.331731 
L 102.667522 119.334851 
L 103.054953 119.576405 
L 103.442385 119.081535 
L 104.217248 119.105821 
L 104.604679 118.619055 
L 104.99211 118.818586 
L 105.379542 118.51537 
L 105.766973 118.680655 
L 106.154405 118.591191 
L 106.541836 118.622978 
L 107.704131 118.086791 
L 108.091562 118.016708 
L 108.478994 118.52438 
L 108.866425 117.641944 
L 109.253857 118.34835 
L 110.416151 117.544526 
L 110.803582 118.09946 
L 111.191014 117.046867 
L 111.578445 117.473169 
L 112.353308 116.71336 
L 112.74074 116.823471 
L 113.128171 116.310167 
L 113.515603 117.318163 
L 113.903034 117.440621 
L 114.290466 116.640926 
L 114.677897 117.298135 
L 115.45276 115.325786 
L 115.840191 115.832463 
L 116.227623 116.155761 
L 116.615054 115.81864 
L 117.002486 114.757215 
L 117.389917 114.391004 
L 117.777349 114.757714 
L 118.16478 114.238394 
L 118.552212 115.195834 
L 118.939643 112.380662 
L 119.327075 115.592916 
L 119.714506 113.911611 
L 120.101937 114.150609 
L 120.489369 112.560012 
L 120.8768 113.703087 
L 121.264232 113.980683 
L 121.651663 112.011382 
L 122.039095 112.959425 
L 122.426526 114.791927 
L 122.813958 114.375972 
L 123.201389 108.944402 
L 123.588821 113.982898 
L 123.976252 109.806764 
L 124.363684 111.07102 
L 124.751115 113.103308 
L 125.138546 111.201945 
L 125.525978 113.119805 
L 126.300841 109.900562 
L 126.688272 110.402579 
L 127.075704 108.590645 
L 127.463135 108.367596 
L 127.850567 110.697505 
L 128.237998 108.860402 
L 128.62543 107.757578 
L 129.012861 103.369002 
L 129.400293 107.812093 
L 129.787724 108.097833 
L 130.175155 109.895884 
L 130.562587 106.248427 
L 130.950018 106.75899 
L 131.33745 101.307625 
L 132.112313 107.824382 
L 132.499744 106.372895 
L 132.887176 106.420733 
L 133.274607 101.420201 
L 134.04947 105.689528 
L 134.436902 103.547815 
L 134.824333 103.581048 
L 135.211764 106.578958 
L 135.599196 101.552593 
L 135.986627 104.039787 
L 136.374059 103.237225 
L 136.76149 105.563752 
L 137.148922 100.537358 
L 137.536353 101.796715 
L 137.923785 107.281445 
L 138.311216 104.393647 
L 138.698648 103.868457 
L 139.086079 101.343333 
L 139.473511 106.728871 
L 140.248373 97.306718 
L 140.635805 103.662057 
L 141.023236 101.083407 
L 141.410668 97.53476 
L 141.798099 101.842049 
L 142.185531 102.483217 
L 142.572962 103.669275 
L 143.347825 97.028992 
L 143.735257 102.74928 
L 144.122688 101.026403 
L 144.51012 98.515389 
L 144.897551 98.853625 
L 145.284982 98.116083 
L 145.672414 98.648163 
L 146.059845 97.099931 
L 146.447277 98.715163 
L 146.834708 103.111304 
L 147.22214 96.268745 
L 147.609571 100.890913 
L 147.997003 98.338449 
L 148.384434 98.512764 
L 148.771866 101.343048 
L 149.159297 97.196844 
L 149.546729 95.518669 
L 149.93416 102.118616 
L 150.321591 97.475045 
L 150.709023 94.726809 
L 151.096454 98.359434 
L 151.483886 88.022129 
L 151.871317 102.195078 
L 152.258749 96.235316 
L 152.64618 94.564126 
L 153.033612 94.032412 
L 153.421043 97.040277 
L 153.808475 93.893369 
L 154.195906 93.253583 
L 154.583338 90.387362 
L 154.970769 95.165139 
L 155.3582 96.818758 
L 155.745632 96.435865 
L 156.133063 91.359618 
L 156.520495 98.923622 
L 156.907926 95.820993 
L 157.295358 88.788084 
L 157.682789 93.281746 
L 158.070221 94.18979 
L 158.457652 91.14969 
L 158.845084 98.069036 
L 159.619947 89.709228 
L 160.007378 90.650495 
L 160.394809 94.334063 
L 160.782241 91.159197 
L 161.169672 96.152254 
L 161.557104 90.731761 
L 161.944535 92.600916 
L 162.331967 96.09652 
L 163.10683 82.182722 
L 163.494261 99.241341 
L 163.881693 89.854604 
L 164.269124 92.57048 
L 164.656556 87.406924 
L 165.043987 91.718649 
L 165.431418 90.027167 
L 165.81885 94.209339 
L 166.206281 89.372283 
L 166.593713 86.707664 
L 166.981144 80.718685 
L 168.143439 88.516848 
L 168.53087 86.017011 
L 168.918302 86.324074 
L 169.305733 85.449903 
L 169.693165 83.553028 
L 170.080596 90.969545 
L 170.468027 89.323036 
L 170.855459 88.558257 
L 171.24289 84.074508 
L 171.630322 89.658203 
L 172.017753 82.253555 
L 172.405185 84.529559 
L 172.792616 82.214249 
L 173.180048 85.216252 
L 173.567479 86.173834 
L 173.954911 84.979714 
L 174.342342 88.132953 
L 174.729774 93.022349 
L 175.117205 75.847704 
L 175.504636 81.415899 
L 175.892068 76.693043 
L 176.279499 84.447512 
L 176.666931 85.213459 
L 177.054362 83.47856 
L 177.441794 78.008789 
L 177.829225 79.161775 
L 178.216657 88.447388 
L 178.604088 84.430425 
L 178.99152 85.678676 
L 179.378951 82.44834 
L 179.766383 73.915541 
L 180.153814 79.801096 
L 180.541245 82.188433 
L 180.928677 83.708585 
L 181.316108 79.611936 
L 181.70354 81.112737 
L 182.090971 78.219206 
L 182.478403 82.716214 
L 182.865834 81.818068 
L 183.253266 82.38052 
L 183.640697 82.162536 
L 184.028129 84.131666 
L 184.41556 87.246862 
L 184.802992 85.447317 
L 185.190423 82.320613 
L 185.577854 76.921019 
L 185.965286 76.28421 
L 186.352717 86.746224 
L 186.740149 81.263266 
L 187.12758 74.063225 
L 187.515012 78.130346 
L 187.902443 78.184917 
L 188.289875 72.225879 
L 188.677306 73.330458 
L 189.064738 73.429029 
L 189.452169 71.202939 
L 189.839601 72.318382 
L 190.227032 87.530112 
L 190.614463 78.067527 
L 191.001895 80.27403 
L 191.389326 73.439262 
L 191.776758 79.240096 
L 192.164189 76.073061 
L 192.551621 70.567145 
L 193.326484 81.05492 
L 193.713915 81.874157 
L 194.101347 82.129462 
L 194.488778 65.406525 
L 194.87621 71.962817 
L 195.263641 69.643727 
L 195.651072 69.137783 
L 196.038504 77.485244 
L 196.425935 63.111239 
L 196.813367 71.471416 
L 197.200798 72.472019 
L 197.58823 81.602003 
L 197.975661 62.876896 
L 198.363093 80.279962 
L 198.750524 71.202081 
L 199.137956 69.600533 
L 199.525387 74.620152 
L 199.912819 70.576407 
L 200.30025 71.578413 
L 200.687681 70.413726 
L 201.075113 65.588112 
L 201.462544 62.654936 
L 201.849976 65.112027 
L 202.237407 79.727887 
L 202.624839 77.553801 
L 203.01227 70.087302 
L 203.399702 69.902499 
L 203.787133 70.744016 
L 204.174565 72.675792 
L 204.561996 71.215717 
L 204.949428 68.573793 
L 205.336859 72.030893 
L 205.72429 77.40556 
L 206.111722 58.699363 
L 206.886585 73.253733 
L 207.274016 74.814988 
L 207.661448 67.490838 
L 208.048879 65.902595 
L 208.436311 70.441783 
L 208.823742 67.158611 
L 209.211174 57.477657 
L 209.598605 69.380297 
L 209.986037 62.404825 
L 210.373468 64.463847 
L 210.7609 64.532833 
L 211.148331 64.39665 
L 211.535762 73.524071 
L 211.923194 63.262958 
L 212.310625 63.3795 
L 212.698057 63.060955 
L 213.085488 73.851827 
L 213.47292 60.777642 
L 213.860351 66.720109 
L 214.247783 64.932044 
L 214.635214 59.423195 
L 215.022646 60.04421 
L 215.410077 58.918937 
L 215.797509 57.085101 
L 216.18494 57.08812 
L 216.572371 63.464079 
L 216.959803 65.972427 
L 217.347234 57.301035 
L 218.122097 68.698145 
L 218.509529 70.490197 
L 218.89696 61.6415 
L 219.284392 71.872362 
L 219.671823 66.048149 
L 220.059255 67.788629 
L 220.446686 66.263221 
L 220.834118 61.023127 
L 221.221549 53.867385 
L 221.60898 68.226535 
L 221.996412 56.633359 
L 222.771275 68.384965 
L 223.158706 63.141962 
L 223.546138 55.629238 
L 223.933569 56.605595 
L 224.321001 69.222741 
L 224.708432 51.514812 
L 225.095864 63.620818 
L 225.483295 53.599415 
L 225.870727 52.511814 
L 226.258158 69.02802 
L 226.645589 65.332002 
L 227.033021 58.948359 
L 227.420452 50.406027 
L 227.807884 66.049654 
L 228.195315 52.925398 
L 228.582747 61.625757 
L 228.970178 62.661314 
L 229.35761 53.501688 
L 229.745041 60.837045 
L 230.132473 52.422887 
L 230.519904 56.161796 
L 230.907336 57.861203 
L 231.294767 66.287231 
L 231.682198 54.985783 
L 232.06963 60.307493 
L 232.457061 50.855308 
L 232.844493 55.793851 
L 233.231924 55.3736 
L 233.619356 62.289935 
L 234.78165 55.799721 
L 235.169082 49.568485 
L 235.556513 59.681863 
L 235.943945 60.040649 
L 236.331376 56.047771 
L 236.718807 66.040582 
L 237.106239 56.299891 
L 237.49367 59.602608 
L 237.881102 57.117036 
L 238.268533 55.608941 
L 238.655965 52.840181 
L 239.043396 56.93008 
L 239.430828 59.326478 
L 239.818259 59.941084 
L 240.205691 58.510213 
L 240.593122 48.709402 
L 240.980554 44.261045 
L 241.367985 46.019211 
L 241.755416 42.460825 
L 242.530279 57.160525 
L 242.917711 57.190941 
L 243.305142 48.719023 
L 243.692574 52.414498 
L 244.080005 52.771342 
L 244.467437 55.184545 
L 244.854868 49.87399 
L 245.2423 63.757352 
L 245.629731 51.841296 
L 246.017163 58.510195 
L 246.404594 59.03723 
L 247.179457 51.533072 
L 247.566888 44.88906 
L 247.95432 58.490649 
L 248.341751 50.728266 
L 248.729183 47.081998 
L 249.504046 54.502052 
L 249.891477 57.727139 
L 250.278909 58.674485 
L 250.66634 46.069016 
L 251.053772 44.889818 
L 251.441203 49.525858 
L 251.441203 49.525858 
" clip-path="url(#pa19da0af69)" style="fill: none; stroke: #1f77b4; stroke-width: 1.5; stroke-linecap: square"/>
   </g>
   <g id="patch_3">
    <path d="M 53.328125 142.118125 
L 53.328125 22.318125 
" style="fill: none; stroke: #000000; stroke-width: 0.8; stroke-linejoin: miter; stroke-linecap: square"/>
   </g>
   <g id="patch_4">
    <path d="M 260.875159 142.118125 
L 260.875159 22.318125 
" style="fill: none; stroke: #000000; stroke-width: 0.8; stroke-linejoin: miter; stroke-linecap: square"/>
   </g>
   <g id="patch_5">
    <path d="M 53.328125 142.118125 
L 260.875159 142.118125 
" style="fill: none; stroke: #000000; stroke-width: 0.8; stroke-linejoin: miter; stroke-linecap: square"/>
   </g>
   <g id="patch_6">
    <path d="M 53.328125 22.318125 
L 260.875159 22.318125 
" style="fill: none; stroke: #000000; stroke-width: 0.8; stroke-linejoin: miter; stroke-linecap: square"/>
   </g>
   <g id="text_14">
    <text style="font-size: 12px; font-family: 'DejaVu Sans', 'Bitstream Vera Sans', 'Computer Modern Sans Serif', 'Lucida Grande', 'Verdana', 'Geneva', 'Lucid', 'Arial', 'Helvetica', 'Avant Garde', sans-serif; text-anchor: middle" x="157.101642" y="16.318125" transform="rotate(-0 157.101642 16.318125)">PPO-Clip</text>
   </g>
  </g>
  <g id="axes_2">
   <g id="patch_7">
    <path d="M 278.358125 142.118125 
L 485.905159 142.118125 
L 485.905159 22.318125 
L 278.358125 22.318125 
z
" style="fill: #ffffff"/>
   </g>
   <g id="FillBetweenPolyCollection_2">
    <defs>
     <path id="m5936e035a3" d="M 287.792081 -58.251588 
L 287.792081 -53.51988 
L 288.179513 -55.712725 
L 288.566944 -55.417966 
L 288.954375 -45.478633 
L 289.341807 -54.251131 
L 289.729238 -57.413699 
L 290.11667 -56.536861 
L 290.504101 -57.044699 
L 290.891533 -56.4322 
L 291.278964 -55.803803 
L 291.666396 -53.678877 
L 292.053827 -55.872519 
L 292.441259 -52.756915 
L 292.82869 -56.039593 
L 293.216122 -55.950563 
L 293.603553 -55.27741 
L 293.990984 -56.09179 
L 294.378416 -55.862109 
L 294.765847 -56.631211 
L 295.153279 -43.001705 
L 295.54071 -56.121034 
L 295.928142 -57.352692 
L 296.315573 -55.440101 
L 296.703005 -55.310611 
L 297.090436 -54.72797 
L 297.477868 -55.113857 
L 297.865299 -51.308381 
L 298.252731 -56.815557 
L 298.640162 -56.612593 
L 299.027593 -54.597807 
L 299.415025 -57.126002 
L 299.802456 -51.664784 
L 300.189888 -57.604384 
L 300.577319 -54.041561 
L 300.964751 -54.269362 
L 301.352182 -57.832484 
L 301.739614 -57.107891 
L 302.127045 -58.261783 
L 302.514477 -57.520464 
L 302.901908 -55.437627 
L 303.28934 -58.521315 
L 303.676771 -58.563473 
L 304.064202 -57.565954 
L 304.451634 -58.481278 
L 304.839065 -58.090634 
L 305.226497 -57.786727 
L 305.613928 -58.755954 
L 306.00136 -57.946145 
L 306.388791 -58.404012 
L 306.776223 -58.500333 
L 307.163654 -57.911545 
L 307.551086 -58.833876 
L 307.938517 -57.481669 
L 308.325949 -58.072111 
L 308.71338 -55.087429 
L 309.100811 -57.334856 
L 309.488243 -57.939597 
L 309.875674 -57.959872 
L 310.263106 -57.251147 
L 310.650537 -58.138302 
L 311.037969 -57.926213 
L 311.4254 -57.648014 
L 311.812832 -56.178599 
L 312.200263 -55.925009 
L 312.587695 -58.500213 
L 312.975126 -56.838197 
L 313.362558 -57.811306 
L 313.749989 -57.767435 
L 314.13742 -59.606571 
L 314.524852 -58.075125 
L 314.912283 -58.766779 
L 315.299715 -59.264518 
L 315.687146 -58.255878 
L 316.074578 -59.42701 
L 316.462009 -59.426523 
L 316.849441 -59.145247 
L 317.236872 -58.36889 
L 317.624304 -59.452304 
L 318.011735 -59.182693 
L 318.399167 -59.377113 
L 318.786598 -56.890264 
L 319.17403 -58.294193 
L 319.561461 -59.31579 
L 319.948892 -59.696835 
L 320.336324 -58.514734 
L 320.723755 -58.440473 
L 321.111187 -59.3999 
L 321.498618 -59.318619 
L 321.88605 -59.279173 
L 322.273481 -59.044237 
L 322.660913 -59.029365 
L 323.048344 -59.753612 
L 323.435776 -59.846123 
L 323.823207 -59.712428 
L 324.210639 -59.851667 
L 324.59807 -56.06401 
L 324.985501 -59.621256 
L 325.372933 -60.121486 
L 325.760364 -59.16166 
L 326.147796 -59.883194 
L 326.535227 -60.039996 
L 326.922659 -59.694597 
L 327.31009 -59.996675 
L 327.697522 -60.116365 
L 328.084953 -59.470224 
L 328.472385 -60.373333 
L 328.859816 -60.354272 
L 329.247248 -60.103525 
L 329.634679 -60.240434 
L 330.02211 -60.570737 
L 330.409542 -60.729488 
L 330.796973 -60.453118 
L 331.184405 -60.491987 
L 331.571836 -60.652335 
L 331.959268 -60.347727 
L 332.346699 -60.262715 
L 332.734131 -60.717796 
L 333.121562 -60.617434 
L 333.508994 -60.713027 
L 333.896425 -60.779462 
L 334.283857 -61.004429 
L 334.671288 -61.170074 
L 335.058719 -61.182679 
L 335.446151 -61.253232 
L 335.833582 -61.052379 
L 336.221014 -60.977108 
L 336.608445 -61.274728 
L 336.995877 -61.683117 
L 337.383308 -60.934044 
L 337.77074 -60.597039 
L 338.158171 -60.727198 
L 338.545603 -61.525836 
L 338.933034 -61.594552 
L 339.320466 -61.929231 
L 339.707897 -61.068731 
L 340.095328 -62.207208 
L 340.48276 -62.088298 
L 340.870191 -61.590291 
L 341.257623 -61.731699 
L 341.645054 -61.574848 
L 342.032486 -61.310233 
L 342.419917 -62.528741 
L 342.807349 -62.799229 
L 343.19478 -62.332685 
L 343.582212 -61.955358 
L 343.969643 -63.211364 
L 344.357075 -62.510493 
L 344.744506 -64.631548 
L 345.131937 -64.328056 
L 345.519369 -63.29366 
L 345.9068 -63.861054 
L 346.294232 -63.737988 
L 346.681663 -64.160405 
L 347.069095 -63.760649 
L 347.456526 -63.147532 
L 347.843958 -64.650197 
L 348.231389 -65.38931 
L 348.618821 -63.78176 
L 349.006252 -65.832293 
L 349.393684 -65.779957 
L 349.781115 -64.090277 
L 350.168546 -66.924932 
L 350.555978 -65.040989 
L 350.943409 -65.560227 
L 351.330841 -65.379873 
L 351.718272 -66.362187 
L 352.105704 -66.498659 
L 352.493135 -65.745938 
L 352.880567 -66.254729 
L 353.267998 -67.738996 
L 353.65543 -65.093027 
L 354.042861 -71.368023 
L 354.430293 -68.410936 
L 354.817724 -68.145681 
L 355.205155 -67.223903 
L 355.592587 -67.348998 
L 355.980018 -68.973921 
L 356.36745 -74.407972 
L 356.754881 -71.167772 
L 357.142313 -68.215885 
L 357.529744 -69.817742 
L 357.917176 -67.632275 
L 358.304607 -74.688315 
L 358.692039 -68.588106 
L 359.07947 -70.003819 
L 359.466902 -69.142647 
L 359.854333 -67.755989 
L 360.241764 -69.777325 
L 360.629196 -71.687768 
L 361.016627 -70.949634 
L 361.404059 -69.72943 
L 361.79149 -69.235076 
L 362.178922 -74.601209 
L 362.566353 -75.281276 
L 362.953785 -68.770367 
L 363.341216 -70.787326 
L 363.728648 -71.85189 
L 364.116079 -71.967192 
L 364.503511 -68.528267 
L 364.890942 -71.398484 
L 365.278373 -76.009119 
L 365.665805 -73.130744 
L 366.053236 -72.942233 
L 366.440668 -79.484133 
L 366.828099 -73.936882 
L 367.215531 -74.532327 
L 367.602962 -73.292738 
L 367.990394 -74.580653 
L 368.377825 -74.739135 
L 368.765257 -72.0203 
L 369.152688 -72.157265 
L 369.54012 -74.544455 
L 369.927551 -77.346725 
L 370.314982 -78.465463 
L 370.702414 -76.107004 
L 371.089845 -76.781166 
L 371.477277 -75.788612 
L 371.864708 -73.146222 
L 372.25214 -78.831862 
L 372.639571 -76.027748 
L 373.027003 -77.410443 
L 373.414434 -75.622988 
L 373.801866 -74.994769 
L 374.189297 -76.70164 
L 374.576729 -77.198122 
L 374.96416 -75.717095 
L 375.351591 -76.756184 
L 375.739023 -79.03186 
L 376.126454 -71.73151 
L 376.513886 -82.696499 
L 376.901317 -73.954405 
L 377.288749 -76.181166 
L 377.67618 -75.54847 
L 378.063612 -77.080532 
L 378.451043 -75.667262 
L 378.838475 -81.056978 
L 379.225906 -79.921672 
L 379.613338 -83.076984 
L 380.000769 -79.7841 
L 380.3882 -79.575701 
L 380.775632 -76.319602 
L 381.163063 -82.646931 
L 381.550495 -72.034838 
L 381.937926 -77.817185 
L 382.325358 -82.748007 
L 382.712789 -81.442525 
L 383.100221 -77.310637 
L 383.487652 -81.30077 
L 383.875084 -77.668934 
L 384.262515 -81.915189 
L 384.649947 -79.348372 
L 385.037378 -82.426747 
L 385.424809 -76.942035 
L 385.812241 -78.05198 
L 386.199672 -76.500964 
L 386.587104 -77.78844 
L 386.974535 -80.775884 
L 387.361967 -76.94801 
L 387.749398 -78.411705 
L 388.13683 -86.145426 
L 388.524261 -75.911458 
L 388.911693 -83.382667 
L 389.299124 -77.070497 
L 389.686556 -79.261341 
L 390.073987 -81.617411 
L 390.461418 -83.147243 
L 390.84885 -76.381006 
L 391.236281 -85.286135 
L 391.623713 -81.979399 
L 392.011144 -94.803791 
L 392.398576 -88.645818 
L 392.786007 -84.080398 
L 393.173439 -83.551637 
L 393.56087 -85.19998 
L 393.948302 -81.241455 
L 394.335733 -85.811 
L 394.723165 -89.933469 
L 395.110596 -81.973995 
L 395.498027 -83.310912 
L 395.885459 -79.770812 
L 396.27289 -80.879912 
L 396.660322 -82.727457 
L 397.047753 -82.886714 
L 397.435185 -89.441212 
L 397.822616 -86.796317 
L 398.210048 -89.180226 
L 398.597479 -88.440318 
L 398.984911 -86.014249 
L 399.372342 -79.684887 
L 399.759774 -79.614487 
L 400.147205 -89.818468 
L 400.534636 -92.709103 
L 400.922068 -91.30466 
L 401.309499 -85.281497 
L 401.696931 -83.577007 
L 402.084362 -88.553841 
L 402.471794 -93.954545 
L 402.859225 -91.765328 
L 403.246657 -88.929422 
L 403.634088 -84.410729 
L 404.02152 -85.481949 
L 404.408951 -87.820323 
L 404.796383 -94.272678 
L 405.183814 -93.030324 
L 405.571245 -89.132095 
L 405.958677 -91.40853 
L 406.346108 -91.859265 
L 406.73354 -92.568254 
L 407.120971 -90.752505 
L 407.508403 -83.252317 
L 407.895834 -90.969686 
L 408.283266 -88.912332 
L 408.670697 -88.225629 
L 409.058129 -86.013367 
L 409.44556 -80.379947 
L 409.832992 -85.649763 
L 410.220423 -82.630566 
L 410.607854 -96.607124 
L 410.995286 -92.504521 
L 411.382717 -86.474674 
L 411.770149 -88.948186 
L 412.15758 -97.013087 
L 412.545012 -88.008769 
L 412.932443 -89.786713 
L 413.319875 -100.136473 
L 413.707306 -98.501812 
L 414.094738 -92.51882 
L 414.482169 -103.971049 
L 414.869601 -100.115196 
L 415.257032 -84.843479 
L 415.644463 -92.269566 
L 416.031895 -93.051662 
L 416.419326 -98.247098 
L 416.806758 -83.637038 
L 417.194189 -94.114139 
L 417.581621 -103.237276 
L 417.969052 -94.816793 
L 418.356484 -89.858037 
L 418.743915 -83.394044 
L 419.131347 -78.898144 
L 419.518778 -103.246905 
L 419.90621 -94.517326 
L 420.293641 -97.176541 
L 420.681072 -101.12963 
L 421.068504 -100.179967 
L 421.455935 -103.830233 
L 421.843367 -91.278944 
L 422.230798 -89.945936 
L 422.61823 -86.248974 
L 423.005661 -111.23128 
L 423.393093 -88.02482 
L 423.780524 -95.024133 
L 424.167956 -93.932637 
L 424.555387 -97.25359 
L 424.942819 -93.753122 
L 425.33025 -91.67649 
L 425.717681 -92.949072 
L 426.105113 -106.331292 
L 426.492544 -102.956312 
L 426.879976 -104.447862 
L 427.267407 -91.889489 
L 427.654839 -94.588178 
L 428.04227 -97.077462 
L 428.429702 -93.374117 
L 428.817133 -100.100979 
L 429.204565 -86.324938 
L 429.591996 -87.415309 
L 429.979428 -96.128804 
L 430.366859 -91.815566 
L 430.75429 -92.86564 
L 431.141722 -111.740625 
L 431.529153 -100.49125 
L 431.916585 -92.747847 
L 432.304016 -93.81817 
L 432.691448 -104.263891 
L 433.078879 -98.794191 
L 433.466311 -95.437582 
L 433.853742 -100.892496 
L 434.241174 -111.198473 
L 434.628605 -103.387173 
L 435.016037 -99.768505 
L 435.403468 -101.724664 
L 435.7909 -96.371997 
L 436.178331 -103.852007 
L 436.565762 -98.330001 
L 436.953194 -101.906172 
L 437.340625 -108.339703 
L 437.728057 -101.333007 
L 438.115488 -88.511131 
L 438.50292 -103.214165 
L 438.890351 -98.641641 
L 439.277783 -98.904957 
L 439.665214 -107.180491 
L 440.052646 -101.467531 
L 440.440077 -106.390743 
L 440.827509 -109.492236 
L 441.21494 -115.115609 
L 441.602371 -105.826477 
L 441.989803 -104.624494 
L 442.377234 -114.214848 
L 442.764666 -96.499274 
L 443.152097 -98.24092 
L 443.539529 -89.068871 
L 443.92696 -102.76611 
L 444.314392 -93.665143 
L 444.701823 -104.307254 
L 445.089255 -94.444103 
L 445.476686 -99.118244 
L 445.864118 -98.659465 
L 446.251549 -116.058365 
L 446.63898 -97.976525 
L 447.026412 -109.15394 
L 447.413843 -104.317303 
L 447.801275 -97.367503 
L 448.188706 -109.613884 
L 448.576138 -108.860257 
L 448.963569 -107.184034 
L 449.351001 -92.877655 
L 449.738432 -115.488988 
L 450.125864 -103.221136 
L 450.513295 -113.073206 
L 450.900727 -114.571244 
L 451.288158 -102.222422 
L 451.675589 -107.259104 
L 452.063021 -104.191116 
L 452.450452 -118.83455 
L 452.837884 -99.028595 
L 453.225315 -114.628198 
L 453.612747 -109.918223 
L 454.000178 -100.903864 
L 454.38761 -114.110742 
L 454.775041 -100.77911 
L 455.162473 -121.963645 
L 455.549904 -108.810908 
L 455.937336 -108.322921 
L 456.324767 -102.74536 
L 456.712198 -110.474749 
L 457.09963 -107.290552 
L 457.487061 -114.907465 
L 457.874493 -106.600986 
L 458.261924 -106.757381 
L 458.649356 -102.433469 
L 459.036787 -112.997282 
L 459.424219 -111.572279 
L 459.81165 -103.71003 
L 460.199082 -117.876647 
L 460.586513 -106.270863 
L 460.973945 -95.323444 
L 461.361376 -106.855107 
L 461.748807 -96.135807 
L 462.136239 -116.922618 
L 462.52367 -108.599503 
L 462.911102 -100.354627 
L 463.298533 -101.803959 
L 463.685965 -111.639 
L 464.073396 -99.852168 
L 464.460828 -113.68853 
L 464.848259 -108.365001 
L 465.235691 -105.946692 
L 465.623122 -117.548487 
L 466.010554 -129.028528 
L 466.397985 -120.640511 
L 466.785416 -126.847799 
L 467.172848 -112.888325 
L 467.560279 -115.174992 
L 467.947711 -107.256403 
L 468.335142 -126.160103 
L 468.722574 -113.659849 
L 469.110005 -116.427019 
L 469.497437 -112.377069 
L 469.884868 -112.979426 
L 470.2723 -97.938052 
L 470.659731 -109.171318 
L 471.047163 -113.123646 
L 471.434594 -98.827163 
L 471.822025 -107.218566 
L 472.209457 -110.83906 
L 472.596888 -123.120735 
L 472.98432 -103.940558 
L 473.371751 -109.869867 
L 473.759183 -115.211785 
L 474.146614 -108.443723 
L 474.534046 -107.526035 
L 474.921477 -111.436947 
L 475.308909 -107.979792 
L 475.69634 -120.730475 
L 476.083772 -117.658318 
L 476.471203 -112.899976 
L 476.471203 -147.397058 
L 476.471203 -147.397058 
L 476.083772 -151.910795 
L 475.69634 -146.480243 
L 475.308909 -134.019988 
L 474.921477 -132.457525 
L 474.534046 -142.818612 
L 474.146614 -148.50305 
L 473.759183 -149.972969 
L 473.371751 -148.022352 
L 472.98432 -138.426893 
L 472.596888 -146.449896 
L 472.209457 -145.443545 
L 471.822025 -142.649838 
L 471.434594 -142.447126 
L 471.047163 -129.204714 
L 470.659731 -146.494841 
L 470.2723 -133.895994 
L 469.884868 -146.621344 
L 469.497437 -136.602592 
L 469.110005 -137.379048 
L 468.722574 -140.859905 
L 468.335142 -135.750601 
L 467.947711 -137.710465 
L 467.560279 -129.852708 
L 467.172848 -145.169847 
L 466.785416 -147.579302 
L 466.397985 -146.669817 
L 466.010554 -141.798131 
L 465.623122 -144.381459 
L 465.235691 -136.381632 
L 464.848259 -131.101581 
L 464.460828 -127.007263 
L 464.073396 -145.636422 
L 463.685965 -142.029389 
L 463.298533 -146.326909 
L 462.911102 -144.760051 
L 462.52367 -131.544031 
L 462.136239 -129.826351 
L 461.748807 -131.13178 
L 461.361376 -140.398102 
L 460.973945 -143.944007 
L 460.586513 -133.714161 
L 460.199082 -142.335132 
L 459.81165 -144.039278 
L 459.424219 -130.98063 
L 459.036787 -125.898584 
L 458.649356 -132.335411 
L 458.261924 -141.844168 
L 457.874493 -141.160061 
L 457.487061 -142.730669 
L 457.09963 -131.443211 
L 456.712198 -138.902434 
L 456.324767 -124.028927 
L 455.937336 -135.303423 
L 455.549904 -138.214249 
L 455.162473 -132.539331 
L 454.775041 -136.895549 
L 454.38761 -138.234632 
L 454.000178 -133.122258 
L 453.612747 -126.179013 
L 453.225315 -138.869757 
L 452.837884 -128.220846 
L 452.450452 -139.702146 
L 452.063021 -137.260916 
L 451.675589 -121.425641 
L 451.288158 -119.070288 
L 450.900727 -139.753878 
L 450.513295 -139.076713 
L 450.125864 -128.885977 
L 449.738432 -140.830138 
L 449.351001 -128.025613 
L 448.963569 -138.953527 
L 448.576138 -139.230017 
L 448.188706 -123.450943 
L 447.801275 -125.211317 
L 447.413843 -129.738479 
L 447.026412 -136.928092 
L 446.63898 -124.919155 
L 446.251549 -135.555615 
L 445.864118 -138.643032 
L 445.476686 -127.704064 
L 445.089255 -129.327389 
L 444.701823 -122.945199 
L 444.314392 -121.938884 
L 443.92696 -133.29964 
L 443.539529 -129.299485 
L 443.152097 -123.71154 
L 442.764666 -135.212343 
L 442.377234 -130.531833 
L 441.989803 -122.779402 
L 441.602371 -126.594116 
L 441.21494 -130.056902 
L 440.827509 -135.686312 
L 440.440077 -135.120133 
L 440.052646 -137.792799 
L 439.665214 -133.32187 
L 439.277783 -130.579705 
L 438.890351 -127.266891 
L 438.50292 -134.579301 
L 438.115488 -123.133965 
L 437.728057 -131.893833 
L 437.340625 -124.250046 
L 436.953194 -130.916662 
L 436.565762 -113.970608 
L 436.178331 -126.703443 
L 435.7909 -133.911087 
L 435.403468 -128.696392 
L 435.016037 -134.770595 
L 434.628605 -117.200983 
L 434.241174 -133.194962 
L 433.853742 -124.139031 
L 433.466311 -123.027602 
L 433.078879 -128.749369 
L 432.691448 -120.103183 
L 432.304016 -115.900605 
L 431.916585 -120.093438 
L 431.529153 -127.324425 
L 431.141722 -130.2094 
L 430.75429 -111.671989 
L 430.366859 -123.471399 
L 429.979428 -126.072359 
L 429.591996 -129.502008 
L 429.204565 -127.672228 
L 428.817133 -117.759739 
L 428.429702 -126.169635 
L 428.04227 -122.096684 
L 427.654839 -109.652971 
L 427.267407 -108.003487 
L 426.879976 -124.676834 
L 426.492544 -131.082566 
L 426.105113 -121.841234 
L 425.717681 -125.572226 
L 425.33025 -124.515434 
L 424.942819 -124.442815 
L 424.555387 -112.854857 
L 424.167956 -126.215046 
L 423.780524 -121.920454 
L 423.393093 -110.764007 
L 423.005661 -122.363677 
L 422.61823 -109.895771 
L 422.230798 -124.458776 
L 421.843367 -125.126974 
L 421.455935 -129.296039 
L 421.068504 -104.198295 
L 420.681072 -119.943554 
L 420.293641 -122.884755 
L 419.90621 -120.90579 
L 419.518778 -125.288795 
L 419.131347 -116.191681 
L 418.743915 -112.206391 
L 418.356484 -107.380873 
L 417.969052 -113.05804 
L 417.581621 -114.977184 
L 417.194189 -113.088489 
L 416.806758 -117.23152 
L 416.419326 -114.223128 
L 416.031895 -105.749029 
L 415.644463 -110.944129 
L 415.257032 -99.445047 
L 414.869601 -114.59679 
L 414.482169 -112.971823 
L 414.094738 -119.971871 
L 413.707306 -114.186023 
L 413.319875 -114.760519 
L 412.932443 -113.192204 
L 412.545012 -115.079289 
L 412.15758 -114.209213 
L 411.770149 -107.874032 
L 411.382717 -99.381628 
L 410.995286 -114.275808 
L 410.607854 -108.899587 
L 410.220423 -112.076958 
L 409.832992 -102.804354 
L 409.44556 -104.475079 
L 409.058129 -105.072051 
L 408.670697 -106.798048 
L 408.283266 -105.675379 
L 407.895834 -104.742929 
L 407.508403 -110.664005 
L 407.120971 -112.157832 
L 406.73354 -104.555023 
L 406.346108 -108.265614 
L 405.958677 -100.52305 
L 405.571245 -105.839789 
L 405.183814 -106.716234 
L 404.796383 -117.24499 
L 404.408951 -106.631746 
L 404.02152 -102.509449 
L 403.634088 -106.07717 
L 403.246657 -93.524553 
L 402.859225 -109.259871 
L 402.471794 -109.376627 
L 402.084362 -103.837788 
L 401.696931 -105.344825 
L 401.309499 -105.172229 
L 400.922068 -114.658004 
L 400.534636 -103.807849 
L 400.147205 -117.834875 
L 399.759774 -93.689564 
L 399.372342 -103.397958 
L 398.984911 -103.375073 
L 398.597479 -98.560764 
L 398.210048 -99.73602 
L 397.822616 -108.123934 
L 397.435185 -100.84842 
L 397.047753 -111.954927 
L 396.660322 -97.304887 
L 396.27289 -110.319822 
L 395.885459 -102.461425 
L 395.498027 -97.391767 
L 395.110596 -95.435665 
L 394.723165 -102.309225 
L 394.335733 -102.637944 
L 393.948302 -105.459147 
L 393.56087 -102.114748 
L 393.173439 -98.763417 
L 392.786007 -100.937144 
L 392.398576 -103.626745 
L 392.011144 -103.107588 
L 391.623713 -103.954024 
L 391.236281 -95.318049 
L 390.84885 -94.549067 
L 390.461418 -96.147173 
L 390.073987 -94.294041 
L 389.686556 -105.273561 
L 389.299124 -97.137294 
L 388.911693 -96.256875 
L 388.524261 -84.95461 
L 388.13683 -108.837879 
L 387.749398 -104.913268 
L 387.361967 -90.2077 
L 386.974535 -93.371034 
L 386.587104 -100.096788 
L 386.199672 -90.543279 
L 385.812241 -98.978375 
L 385.424809 -93.738588 
L 385.037378 -95.621014 
L 384.649947 -100.581922 
L 384.262515 -90.083737 
L 383.875084 -85.541744 
L 383.487652 -95.748601 
L 383.100221 -93.658533 
L 382.712789 -91.342733 
L 382.325358 -99.024575 
L 381.937926 -89.88958 
L 381.550495 -89.466668 
L 381.163063 -93.982583 
L 380.775632 -90.157417 
L 380.3882 -86.135534 
L 380.000769 -89.234371 
L 379.613338 -95.497041 
L 379.225906 -92.919912 
L 378.838475 -90.505034 
L 378.451043 -89.600934 
L 378.063612 -94.203394 
L 377.67618 -94.672029 
L 377.288749 -90.696952 
L 376.901317 -81.00419 
L 376.513886 -100.607993 
L 376.126454 -90.898372 
L 375.739023 -90.863272 
L 375.351591 -87.642476 
L 374.96416 -79.394424 
L 374.576729 -91.11329 
L 374.189297 -88.253422 
L 373.801866 -81.667885 
L 373.414434 -86.700233 
L 373.027003 -85.261409 
L 372.639571 -81.539175 
L 372.25214 -87.979399 
L 371.864708 -79.979921 
L 371.477277 -86.129812 
L 371.089845 -88.367723 
L 370.702414 -85.94542 
L 370.314982 -84.651122 
L 369.927551 -84.294775 
L 369.54012 -87.773518 
L 369.152688 -85.138679 
L 368.765257 -81.82989 
L 368.377825 -90.551631 
L 367.990394 -84.122634 
L 367.602962 -78.717462 
L 367.215531 -79.849988 
L 366.828099 -81.72777 
L 366.440668 -84.795097 
L 366.053236 -84.239702 
L 365.665805 -78.893893 
L 365.278373 -88.726194 
L 364.890942 -84.049683 
L 364.503511 -77.36274 
L 364.116079 -84.694893 
L 363.728648 -79.759946 
L 363.341216 -79.774131 
L 362.953785 -76.015493 
L 362.566353 -80.474043 
L 362.178922 -83.672826 
L 361.79149 -78.986171 
L 361.404059 -83.14487 
L 361.016627 -80.319542 
L 360.629196 -84.555796 
L 360.241764 -76.41351 
L 359.854333 -84.430664 
L 359.466902 -83.110474 
L 359.07947 -77.965874 
L 358.692039 -83.107187 
L 358.304607 -81.820033 
L 357.917176 -78.875009 
L 357.529744 -76.785219 
L 357.142313 -75.484101 
L 356.754881 -78.380068 
L 356.36745 -82.325528 
L 355.980018 -76.856848 
L 355.592587 -79.502898 
L 355.205155 -72.33308 
L 354.817724 -75.007403 
L 354.430293 -75.313627 
L 354.042861 -81.242724 
L 353.65543 -78.740567 
L 353.267998 -73.88895 
L 352.880567 -71.69901 
L 352.493135 -76.867619 
L 352.105704 -75.668801 
L 351.718272 -72.181404 
L 351.330841 -74.167754 
L 350.943409 -70.557953 
L 350.555978 -68.06815 
L 350.168546 -70.019928 
L 349.781115 -69.051857 
L 349.393684 -71.426753 
L 349.006252 -73.90293 
L 348.618821 -67.601193 
L 348.231389 -76.070637 
L 347.843958 -65.946608 
L 347.456526 -66.617365 
L 347.069095 -69.66925 
L 346.681663 -71.165581 
L 346.294232 -67.649396 
L 345.9068 -68.081523 
L 345.519369 -70.935067 
L 345.131937 -66.719476 
L 344.744506 -66.89398 
L 344.357075 -65.652426 
L 343.969643 -71.376062 
L 343.582212 -67.001724 
L 343.19478 -68.539277 
L 342.807349 -67.034094 
L 342.419917 -68.038 
L 342.032486 -68.524087 
L 341.645054 -66.136623 
L 341.257623 -65.305529 
L 340.870191 -66.093533 
L 340.48276 -66.608879 
L 340.095328 -64.276264 
L 339.707897 -63.683749 
L 339.320466 -64.137666 
L 338.933034 -62.872956 
L 338.545603 -63.186588 
L 338.158171 -66.001217 
L 337.77074 -65.104769 
L 337.383308 -64.987987 
L 336.995877 -63.552717 
L 336.608445 -63.127684 
L 336.221014 -64.277907 
L 335.833582 -62.097451 
L 335.446151 -63.006466 
L 335.058719 -62.576826 
L 334.671288 -62.053949 
L 334.283857 -61.647621 
L 333.896425 -63.285399 
L 333.508994 -61.586963 
L 333.121562 -62.6979 
L 332.734131 -62.457371 
L 332.346699 -62.621204 
L 331.959268 -62.146066 
L 331.571836 -61.450459 
L 331.184405 -61.674382 
L 330.796973 -61.534323 
L 330.409542 -61.588522 
L 330.02211 -61.14084 
L 329.634679 -61.870207 
L 329.247248 -61.033583 
L 328.859816 -60.797737 
L 328.472385 -60.812346 
L 328.084953 -60.725715 
L 327.697522 -60.562684 
L 327.31009 -60.688612 
L 326.922659 -60.742023 
L 326.535227 -60.655639 
L 326.147796 -60.373685 
L 325.760364 -60.290175 
L 325.372933 -60.434418 
L 324.985501 -60.341756 
L 324.59807 -61.756767 
L 324.210639 -60.00658 
L 323.823207 -60.261477 
L 323.435776 -60.328705 
L 323.048344 -60.230702 
L 322.660913 -60.482873 
L 322.273481 -59.963434 
L 321.88605 -60.093101 
L 321.498618 -59.858986 
L 321.111187 -60.200307 
L 320.723755 -60.381627 
L 320.336324 -60.375921 
L 319.948892 -60.233822 
L 319.561461 -60.159051 
L 319.17403 -60.128667 
L 318.786598 -61.197286 
L 318.399167 -59.947331 
L 318.011735 -59.911077 
L 317.624304 -59.898157 
L 317.236872 -59.874604 
L 316.849441 -60.062545 
L 316.462009 -59.911783 
L 316.074578 -60.007628 
L 315.687146 -60.003142 
L 315.299715 -59.802303 
L 314.912283 -59.843065 
L 314.524852 -60.070541 
L 314.13742 -59.840897 
L 313.749989 -60.361886 
L 313.362558 -59.789687 
L 312.975126 -59.290993 
L 312.587695 -59.706204 
L 312.200263 -60.680662 
L 311.812832 -59.539176 
L 311.4254 -59.897994 
L 311.037969 -59.695615 
L 310.650537 -59.716225 
L 310.263106 -59.781467 
L 309.875674 -59.723899 
L 309.488243 -59.424286 
L 309.100811 -59.502002 
L 308.71338 -60.371255 
L 308.325949 -59.845908 
L 307.938517 -59.49983 
L 307.551086 -59.328379 
L 307.163654 -58.87143 
L 306.776223 -59.502058 
L 306.388791 -59.760376 
L 306.00136 -59.80326 
L 305.613928 -59.50327 
L 305.226497 -59.756406 
L 304.839065 -59.857761 
L 304.451634 -59.596613 
L 304.064202 -59.829843 
L 303.676771 -59.452623 
L 303.28934 -58.872837 
L 302.901908 -59.796517 
L 302.514477 -58.982735 
L 302.127045 -58.987216 
L 301.739614 -58.908807 
L 301.352182 -59.417159 
L 300.964751 -59.768691 
L 300.577319 -59.309548 
L 300.189888 -58.450112 
L 299.802456 -60.519721 
L 299.415025 -58.571559 
L 299.027593 -58.603767 
L 298.640162 -58.571041 
L 298.252731 -58.936568 
L 297.865299 -60.091327 
L 297.477868 -59.059852 
L 297.090436 -58.796165 
L 296.703005 -59.202106 
L 296.315573 -59.027048 
L 295.928142 -59.186472 
L 295.54071 -59.057386 
L 295.153279 -60.543502 
L 294.765847 -59.376205 
L 294.378416 -58.24861 
L 293.990984 -58.635022 
L 293.603553 -59.055501 
L 293.216122 -57.661225 
L 292.82869 -58.637633 
L 292.441259 -58.608531 
L 292.053827 -58.894132 
L 291.666396 -58.408227 
L 291.278964 -58.28947 
L 290.891533 -58.310155 
L 290.504101 -57.87255 
L 290.11667 -59.044038 
L 289.729238 -58.046167 
L 289.341807 -58.851264 
L 288.954375 -56.711212 
L 288.566944 -57.699327 
L 288.179513 -58.364652 
L 287.792081 -58.251588 
z
"/>
    </defs>
    <g clip-path="url(#p3dece79090)">
     <use xlink:href="#m5936e035a3" x="0" y="179.674375" style="fill: #c0392b; fill-opacity: 0.2"/>
    </g>
   </g>
   <g id="matplotlib.axis_3">
    <g id="xtick_7">
     <g id="line2d_22">
      <path d="M 287.40465 142.118125 
L 287.40465 22.318125 
" clip-path="url(#p3dece79090)" style="fill: none; stroke: #b0b0b0; stroke-opacity: 0.3; stroke-width: 0.8; stroke-linecap: square"/>
     </g>
     <g id="line2d_23">
      <g>
       <use xlink:href="#md52ec2ff24" x="287.40465" y="142.118125" style="stroke: #000000; stroke-width: 0.8"/>
      </g>
     </g>
     <g id="text_15">
      <text style="font-size: 10px; font-family: 'DejaVu Sans', 'Bitstream Vera Sans', 'Computer Modern Sans Serif', 'Lucida Grande', 'Verdana', 'Geneva', 'Lucid', 'Arial', 'Helvetica', 'Avant Garde', sans-serif; text-anchor: middle" x="287.40465" y="156.716562" transform="rotate(-0 287.40465 156.716562)">0.0</text>
     </g>
    </g>
    <g id="xtick_8">
     <g id="line2d_24">
      <path d="M 325.239753 142.118125 
L 325.239753 22.318125 
" clip-path="url(#p3dece79090)" style="fill: none; stroke: #b0b0b0; stroke-opacity: 0.3; stroke-width: 0.8; stroke-linecap: square"/>
     </g>
     <g id="line2d_25">
      <g>
       <use xlink:href="#md52ec2ff24" x="325.239753" y="142.118125" style="stroke: #000000; stroke-width: 0.8"/>
      </g>
     </g>
     <g id="text_16">
      <text style="font-size: 10px; font-family: 'DejaVu Sans', 'Bitstream Vera Sans', 'Computer Modern Sans Serif', 'Lucida Grande', 'Verdana', 'Geneva', 'Lucid', 'Arial', 'Helvetica', 'Avant Garde', sans-serif; text-anchor: middle" x="325.239753" y="156.716562" transform="rotate(-0 325.239753 156.716562)">0.2</text>
     </g>
    </g>
    <g id="xtick_9">
     <g id="line2d_26">
      <path d="M 363.074857 142.118125 
L 363.074857 22.318125 
" clip-path="url(#p3dece79090)" style="fill: none; stroke: #b0b0b0; stroke-opacity: 0.3; stroke-width: 0.8; stroke-linecap: square"/>
     </g>
     <g id="line2d_27">
      <g>
       <use xlink:href="#md52ec2ff24" x="363.074857" y="142.118125" style="stroke: #000000; stroke-width: 0.8"/>
      </g>
     </g>
     <g id="text_17">
      <text style="font-size: 10px; font-family: 'DejaVu Sans', 'Bitstream Vera Sans', 'Computer Modern Sans Serif', 'Lucida Grande', 'Verdana', 'Geneva', 'Lucid', 'Arial', 'Helvetica', 'Avant Garde', sans-serif; text-anchor: middle" x="363.074857" y="156.716562" transform="rotate(-0 363.074857 156.716562)">0.4</text>
     </g>
    </g>
    <g id="xtick_10">
     <g id="line2d_28">
      <path d="M 400.909961 142.118125 
L 400.909961 22.318125 
" clip-path="url(#p3dece79090)" style="fill: none; stroke: #b0b0b0; stroke-opacity: 0.3; stroke-width: 0.8; stroke-linecap: square"/>
     </g>
     <g id="line2d_29">
      <g>
       <use xlink:href="#md52ec2ff24" x="400.909961" y="142.118125" style="stroke: #000000; stroke-width: 0.8"/>
      </g>
     </g>
     <g id="text_18">
      <text style="font-size: 10px; font-family: 'DejaVu Sans', 'Bitstream Vera Sans', 'Computer Modern Sans Serif', 'Lucida Grande', 'Verdana', 'Geneva', 'Lucid', 'Arial', 'Helvetica', 'Avant Garde', sans-serif; text-anchor: middle" x="400.909961" y="156.716562" transform="rotate(-0 400.909961 156.716562)">0.6</text>
     </g>
    </g>
    <g id="xtick_11">
     <g id="line2d_30">
      <path d="M 438.745064 142.118125 
L 438.745064 22.318125 
" clip-path="url(#p3dece79090)" style="fill: none; stroke: #b0b0b0; stroke-opacity: 0.3; stroke-width: 0.8; stroke-linecap: square"/>
     </g>
     <g id="line2d_31">
      <g>
       <use xlink:href="#md52ec2ff24" x="438.745064" y="142.118125" style="stroke: #000000; stroke-width: 0.8"/>
      </g>
     </g>
     <g id="text_19">
      <text style="font-size: 10px; font-family: 'DejaVu Sans', 'Bitstream Vera Sans', 'Computer Modern Sans Serif', 'Lucida Grande', 'Verdana', 'Geneva', 'Lucid', 'Arial', 'Helvetica', 'Avant Garde', sans-serif; text-anchor: middle" x="438.745064" y="156.716562" transform="rotate(-0 438.745064 156.716562)">0.8</text>
     </g>
    </g>
    <g id="xtick_12">
     <g id="line2d_32">
      <path d="M 476.580168 142.118125 
L 476.580168 22.318125 
" clip-path="url(#p3dece79090)" style="fill: none; stroke: #b0b0b0; stroke-opacity: 0.3; stroke-width: 0.8; stroke-linecap: square"/>
     </g>
     <g id="line2d_33">
      <g>
       <use xlink:href="#md52ec2ff24" x="476.580168" y="142.118125" style="stroke: #000000; stroke-width: 0.8"/>
      </g>
     </g>
     <g id="text_20">
      <text style="font-size: 10px; font-family: 'DejaVu Sans', 'Bitstream Vera Sans', 'Computer Modern Sans Serif', 'Lucida Grande', 'Verdana', 'Geneva', 'Lucid', 'Arial', 'Helvetica', 'Avant Garde', sans-serif; text-anchor: middle" x="476.580168" y="156.716562" transform="rotate(-0 476.580168 156.716562)">1.0</text>
     </g>
    </g>
    <g id="text_21">
     <text style="font-size: 10px; font-family: 'DejaVu Sans', 'Bitstream Vera Sans', 'Computer Modern Sans Serif', 'Lucida Grande', 'Verdana', 'Geneva', 'Lucid', 'Arial', 'Helvetica', 'Avant Garde', sans-serif; text-anchor: middle" x="382.131642" y="170.394687" transform="rotate(-0 382.131642 170.394687)">environment step</text>
    </g>
    <g id="text_22">
     <text style="font-size: 10px; font-family: 'DejaVu Sans', 'Bitstream Vera Sans', 'Computer Modern Sans Serif', 'Lucida Grande', 'Verdana', 'Geneva', 'Lucid', 'Arial', 'Helvetica', 'Avant Garde', sans-serif; text-anchor: end" x="485.905159" y="169.394687" transform="rotate(-0 485.905159 169.394687)">1e6</text>
    </g>
   </g>
   <g id="matplotlib.axis_4">
    <g id="ytick_5">
     <g id="line2d_34">
      <path d="M 278.358125 119.440433 
L 485.905159 119.440433 
" clip-path="url(#p3dece79090)" style="fill: none; stroke: #b0b0b0; stroke-opacity: 0.3; stroke-width: 0.8; stroke-linecap: square"/>
     </g>
     <g id="line2d_35">
      <g>
       <use xlink:href="#meb23fb85bc" x="278.358125" y="119.440433" style="stroke: #000000; stroke-width: 0.8"/>
      </g>
     </g>
    </g>
    <g id="ytick_6">
     <g id="line2d_36">
      <path d="M 278.358125 89.762492 
L 485.905159 89.762492 
" clip-path="url(#p3dece79090)" style="fill: none; stroke: #b0b0b0; stroke-opacity: 0.3; stroke-width: 0.8; stroke-linecap: square"/>
     </g>
     <g id="line2d_37">
      <g>
       <use xlink:href="#meb23fb85bc" x="278.358125" y="89.762492" style="stroke: #000000; stroke-width: 0.8"/>
      </g>
     </g>
    </g>
    <g id="ytick_7">
     <g id="line2d_38">
      <path d="M 278.358125 60.084551 
L 485.905159 60.084551 
" clip-path="url(#p3dece79090)" style="fill: none; stroke: #b0b0b0; stroke-opacity: 0.3; stroke-width: 0.8; stroke-linecap: square"/>
     </g>
     <g id="line2d_39">
      <g>
       <use xlink:href="#meb23fb85bc" x="278.358125" y="60.084551" style="stroke: #000000; stroke-width: 0.8"/>
      </g>
     </g>
    </g>
    <g id="ytick_8">
     <g id="line2d_40">
      <path d="M 278.358125 30.40661 
L 485.905159 30.40661 
" clip-path="url(#p3dece79090)" style="fill: none; stroke: #b0b0b0; stroke-opacity: 0.3; stroke-width: 0.8; stroke-linecap: square"/>
     </g>
     <g id="line2d_41">
      <g>
       <use xlink:href="#meb23fb85bc" x="278.358125" y="30.40661" style="stroke: #000000; stroke-width: 0.8"/>
      </g>
     </g>
    </g>
   </g>
   <g id="line2d_42">
    <path d="M 287.792081 123.788641 
L 288.179513 122.635687 
L 288.566944 123.115728 
L 288.954375 128.579452 
L 289.341807 123.123178 
L 289.729238 121.944442 
L 290.11667 121.883926 
L 290.504101 122.215751 
L 290.891533 122.303198 
L 291.278964 122.627738 
L 291.666396 123.630823 
L 292.053827 122.29105 
L 292.441259 123.991652 
L 292.82869 122.335762 
L 293.216122 122.868481 
L 293.603553 122.507919 
L 293.990984 122.310969 
L 294.378416 122.619015 
L 294.765847 121.670667 
L 295.153279 127.901772 
L 295.54071 122.085165 
L 295.928142 121.404793 
L 296.315573 122.4408 
L 296.703005 122.418016 
L 297.090436 122.912307 
L 297.477868 122.587521 
L 297.865299 123.974521 
L 298.252731 121.798313 
L 298.640162 122.082558 
L 299.027593 123.073588 
L 299.415025 121.825595 
L 299.802456 123.582122 
L 300.189888 121.647127 
L 300.577319 122.998821 
L 300.964751 122.655349 
L 301.352182 121.049554 
L 301.739614 121.666026 
L 302.127045 121.049876 
L 302.514477 121.422776 
L 302.901908 122.057303 
L 303.28934 120.977299 
L 303.676771 120.666327 
L 304.064202 120.976476 
L 304.451634 120.635429 
L 304.839065 120.700177 
L 305.226497 120.902809 
L 305.613928 120.544763 
L 306.00136 120.799672 
L 306.388791 120.592181 
L 306.776223 120.673179 
L 307.163654 121.282887 
L 307.551086 120.593247 
L 307.938517 121.183626 
L 308.325949 120.715366 
L 308.71338 121.945033 
L 309.100811 121.255946 
L 309.875674 120.83249 
L 310.263106 121.158068 
L 310.650537 120.747111 
L 311.4254 120.901371 
L 311.812832 121.815487 
L 312.200263 121.37154 
L 312.587695 120.571166 
L 312.975126 121.60978 
L 313.362558 120.873878 
L 313.749989 120.609714 
L 314.13742 119.950641 
L 314.524852 120.601542 
L 315.299715 120.140965 
L 315.687146 120.544865 
L 316.074578 119.957056 
L 316.849441 120.070479 
L 317.236872 120.552628 
L 317.624304 119.999144 
L 318.011735 120.12749 
L 318.399167 120.012153 
L 318.786598 120.6306 
L 319.17403 120.462945 
L 319.561461 119.936955 
L 319.948892 119.709047 
L 320.336324 120.229047 
L 320.723755 120.263325 
L 321.111187 119.874272 
L 321.498618 120.085573 
L 321.88605 119.988238 
L 322.273481 120.170539 
L 323.048344 119.682218 
L 323.435776 119.586961 
L 324.210639 119.745252 
L 324.59807 120.763986 
L 324.985501 119.692869 
L 325.372933 119.396423 
L 325.760364 119.948458 
L 326.147796 119.545936 
L 326.535227 119.326558 
L 326.922659 119.456065 
L 327.31009 119.331731 
L 327.697522 119.334851 
L 328.084953 119.576405 
L 328.472385 119.081535 
L 329.247248 119.105821 
L 329.634679 118.619055 
L 330.02211 118.818586 
L 330.409542 118.51537 
L 330.796973 118.680655 
L 331.184405 118.591191 
L 331.571836 118.622978 
L 332.734131 118.086791 
L 333.121562 118.016708 
L 333.508994 118.52438 
L 333.896425 117.641944 
L 334.283857 118.34835 
L 335.446151 117.544526 
L 335.833582 118.09946 
L 336.221014 117.046867 
L 336.608445 117.473169 
L 337.383308 116.71336 
L 337.77074 116.823471 
L 338.158171 116.310167 
L 338.545603 117.318163 
L 338.933034 117.440621 
L 339.320466 116.640926 
L 339.707897 117.298135 
L 340.48276 115.325786 
L 340.870191 115.832463 
L 341.257623 116.155761 
L 341.645054 115.81864 
L 342.032486 114.757215 
L 342.419917 114.391004 
L 342.807349 114.757714 
L 343.19478 114.238394 
L 343.582212 115.195834 
L 343.969643 112.380662 
L 344.357075 115.592916 
L 344.744506 113.911611 
L 345.131937 114.150609 
L 345.519369 112.560012 
L 345.9068 113.703087 
L 346.294232 113.980683 
L 346.681663 112.011382 
L 347.069095 112.959425 
L 347.456526 114.791927 
L 347.843958 114.375972 
L 348.231389 108.944402 
L 348.618821 113.982898 
L 349.006252 109.806764 
L 349.393684 111.07102 
L 349.781115 113.103308 
L 350.168546 111.201945 
L 350.555978 113.119805 
L 351.330841 109.900562 
L 351.718272 110.402579 
L 352.105704 108.590645 
L 352.493135 108.367596 
L 352.880567 110.697505 
L 353.267998 108.860402 
L 353.65543 107.757578 
L 354.042861 103.369002 
L 354.430293 107.812093 
L 354.817724 108.097833 
L 355.205155 109.895884 
L 355.592587 106.248427 
L 355.980018 106.75899 
L 356.36745 101.307625 
L 357.142313 107.824382 
L 357.529744 106.372895 
L 357.917176 106.420733 
L 358.304607 101.420201 
L 359.07947 105.689528 
L 359.466902 103.547815 
L 359.854333 103.581048 
L 360.241764 106.578958 
L 360.629196 101.552593 
L 361.016627 104.039787 
L 361.404059 103.237225 
L 361.79149 105.563752 
L 362.178922 100.537358 
L 362.566353 101.796715 
L 362.953785 107.281445 
L 363.341216 104.393647 
L 363.728648 103.868457 
L 364.116079 101.343333 
L 364.503511 106.728871 
L 365.278373 97.306718 
L 365.665805 103.662057 
L 366.053236 101.083407 
L 366.440668 97.53476 
L 366.828099 101.842049 
L 367.215531 102.483217 
L 367.602962 103.669275 
L 368.377825 97.028992 
L 368.765257 102.74928 
L 369.152688 101.026403 
L 369.54012 98.515389 
L 369.927551 98.853625 
L 370.314982 98.116083 
L 370.702414 98.648163 
L 371.089845 97.099931 
L 371.477277 98.715163 
L 371.864708 103.111304 
L 372.25214 96.268745 
L 372.639571 100.890913 
L 373.027003 98.338449 
L 373.414434 98.512764 
L 373.801866 101.343048 
L 374.189297 97.196844 
L 374.576729 95.518669 
L 374.96416 102.118616 
L 375.351591 97.475045 
L 375.739023 94.726809 
L 376.126454 98.359434 
L 376.513886 88.022129 
L 376.901317 102.195078 
L 377.288749 96.235316 
L 377.67618 94.564126 
L 378.063612 94.032412 
L 378.451043 97.040277 
L 378.838475 93.893369 
L 379.225906 93.253583 
L 379.613338 90.387362 
L 380.000769 95.165139 
L 380.3882 96.818758 
L 380.775632 96.435865 
L 381.163063 91.359618 
L 381.550495 98.923622 
L 381.937926 95.820993 
L 382.325358 88.788084 
L 382.712789 93.281746 
L 383.100221 94.18979 
L 383.487652 91.14969 
L 383.875084 98.069036 
L 384.649947 89.709228 
L 385.037378 90.650495 
L 385.424809 94.334063 
L 385.812241 91.159197 
L 386.199672 96.152254 
L 386.587104 90.731761 
L 386.974535 92.600916 
L 387.361967 96.09652 
L 388.13683 82.182722 
L 388.524261 99.241341 
L 388.911693 89.854604 
L 389.299124 92.57048 
L 389.686556 87.406924 
L 390.073987 91.718649 
L 390.461418 90.027167 
L 390.84885 94.209339 
L 391.236281 89.372283 
L 391.623713 86.707664 
L 392.011144 80.718685 
L 393.173439 88.516848 
L 393.56087 86.017011 
L 393.948302 86.324074 
L 394.335733 85.449903 
L 394.723165 83.553028 
L 395.110596 90.969545 
L 395.498027 89.323036 
L 395.885459 88.558257 
L 396.27289 84.074508 
L 396.660322 89.658203 
L 397.047753 82.253555 
L 397.435185 84.529559 
L 397.822616 82.214249 
L 398.210048 85.216252 
L 398.597479 86.173834 
L 398.984911 84.979714 
L 399.372342 88.132953 
L 399.759774 93.022349 
L 400.147205 75.847704 
L 400.534636 81.415899 
L 400.922068 76.693043 
L 401.309499 84.447512 
L 401.696931 85.213459 
L 402.084362 83.47856 
L 402.471794 78.008789 
L 402.859225 79.161775 
L 403.246657 88.447388 
L 403.634088 84.430425 
L 404.02152 85.678676 
L 404.408951 82.44834 
L 404.796383 73.915541 
L 405.183814 79.801096 
L 405.571245 82.188433 
L 405.958677 83.708585 
L 406.346108 79.611936 
L 406.73354 81.112737 
L 407.120971 78.219206 
L 407.508403 82.716214 
L 407.895834 81.818068 
L 408.283266 82.38052 
L 408.670697 82.162536 
L 409.058129 84.131666 
L 409.44556 87.246862 
L 409.832992 85.447317 
L 410.220423 82.320613 
L 410.607854 76.921019 
L 410.995286 76.28421 
L 411.382717 86.746224 
L 411.770149 81.263266 
L 412.15758 74.063225 
L 412.545012 78.130346 
L 412.932443 78.184917 
L 413.319875 72.225879 
L 413.707306 73.330458 
L 414.094738 73.429029 
L 414.482169 71.202939 
L 414.869601 72.318382 
L 415.257032 87.530112 
L 415.644463 78.067527 
L 416.031895 80.27403 
L 416.419326 73.439262 
L 416.806758 79.240096 
L 417.194189 76.073061 
L 417.581621 70.567145 
L 418.356484 81.05492 
L 418.743915 81.874157 
L 419.131347 82.129462 
L 419.518778 65.406525 
L 419.90621 71.962817 
L 420.293641 69.643727 
L 420.681072 69.137783 
L 421.068504 77.485244 
L 421.455935 63.111239 
L 421.843367 71.471416 
L 422.230798 72.472019 
L 422.61823 81.602003 
L 423.005661 62.876896 
L 423.393093 80.279962 
L 423.780524 71.202081 
L 424.167956 69.600533 
L 424.555387 74.620152 
L 424.942819 70.576407 
L 425.33025 71.578413 
L 425.717681 70.413726 
L 426.105113 65.588112 
L 426.492544 62.654936 
L 426.879976 65.112027 
L 427.267407 79.727887 
L 427.654839 77.553801 
L 428.04227 70.087302 
L 428.429702 69.902499 
L 428.817133 70.744016 
L 429.204565 72.675792 
L 429.591996 71.215717 
L 429.979428 68.573793 
L 430.366859 72.030893 
L 430.75429 77.40556 
L 431.141722 58.699363 
L 431.916585 73.253733 
L 432.304016 74.814988 
L 432.691448 67.490838 
L 433.078879 65.902595 
L 433.466311 70.441783 
L 433.853742 67.158611 
L 434.241174 57.477657 
L 434.628605 69.380297 
L 435.016037 62.404825 
L 435.403468 64.463847 
L 435.7909 64.532833 
L 436.178331 64.39665 
L 436.565762 73.524071 
L 436.953194 63.262958 
L 437.340625 63.3795 
L 437.728057 63.060955 
L 438.115488 73.851827 
L 438.50292 60.777642 
L 438.890351 66.720109 
L 439.277783 64.932044 
L 439.665214 59.423195 
L 440.052646 60.04421 
L 440.440077 58.918937 
L 440.827509 57.085101 
L 441.21494 57.08812 
L 441.602371 63.464079 
L 441.989803 65.972427 
L 442.377234 57.301035 
L 443.152097 68.698145 
L 443.539529 70.490197 
L 443.92696 61.6415 
L 444.314392 71.872362 
L 444.701823 66.048149 
L 445.089255 67.788629 
L 445.476686 66.263221 
L 445.864118 61.023127 
L 446.251549 53.867385 
L 446.63898 68.226535 
L 447.026412 56.633359 
L 447.801275 68.384965 
L 448.188706 63.141962 
L 448.576138 55.629238 
L 448.963569 56.605595 
L 449.351001 69.222741 
L 449.738432 51.514812 
L 450.125864 63.620818 
L 450.513295 53.599415 
L 450.900727 52.511814 
L 451.288158 69.02802 
L 451.675589 65.332002 
L 452.063021 58.948359 
L 452.450452 50.406027 
L 452.837884 66.049654 
L 453.225315 52.925398 
L 453.612747 61.625757 
L 454.000178 62.661314 
L 454.38761 53.501688 
L 454.775041 60.837045 
L 455.162473 52.422887 
L 455.549904 56.161796 
L 455.937336 57.861203 
L 456.324767 66.287231 
L 456.712198 54.985783 
L 457.09963 60.307493 
L 457.487061 50.855308 
L 457.874493 55.793851 
L 458.261924 55.3736 
L 458.649356 62.289935 
L 459.81165 55.799721 
L 460.199082 49.568485 
L 460.586513 59.681863 
L 460.973945 60.040649 
L 461.361376 56.047771 
L 461.748807 66.040582 
L 462.136239 56.299891 
L 462.52367 59.602608 
L 462.911102 57.117036 
L 463.298533 55.608941 
L 463.685965 52.840181 
L 464.073396 56.93008 
L 464.460828 59.326478 
L 464.848259 59.941084 
L 465.235691 58.510213 
L 465.623122 48.709402 
L 466.010554 44.261045 
L 466.397985 46.019211 
L 466.785416 42.460825 
L 467.560279 57.160525 
L 467.947711 57.190941 
L 468.335142 48.719023 
L 468.722574 52.414498 
L 469.110005 52.771342 
L 469.497437 55.184545 
L 469.884868 49.87399 
L 470.2723 63.757352 
L 470.659731 51.841296 
L 471.047163 58.510195 
L 471.434594 59.03723 
L 472.209457 51.533072 
L 472.596888 44.88906 
L 472.98432 58.490649 
L 473.371751 50.728266 
L 473.759183 47.081998 
L 474.534046 54.502052 
L 474.921477 57.727139 
L 475.308909 58.674485 
L 475.69634 46.069016 
L 476.083772 44.889818 
L 476.471203 49.525858 
L 476.471203 49.525858 
" clip-path="url(#p3dece79090)" style="fill: none; stroke: #c0392b; stroke-width: 1.5; stroke-linecap: square"/>
   </g>
   <g id="patch_8">
    <path d="M 278.358125 142.118125 
L 278.358125 22.318125 
" style="fill: none; stroke: #000000; stroke-width: 0.8; stroke-linejoin: miter; stroke-linecap: square"/>
   </g>
   <g id="patch_9">
    <path d="M 485.905159 142.118125 
L 485.905159 22.318125 
" style="fill: none; stroke: #000000; stroke-width: 0.8; stroke-linejoin: miter; stroke-linecap: square"/>
   </g>
   <g id="patch_10">
    <path d="M 278.358125 142.118125 
L 485.905159 142.118125 
" style="fill: none; stroke: #000000; stroke-width: 0.8; stroke-linejoin: miter; stroke-linecap: square"/>
   </g>
   <g id="patch_11">
    <path d="M 278.358125 22.318125 
L 485.905159 22.318125 
" style="fill: none; stroke: #000000; stroke-width: 0.8; stroke-linejoin: miter; stroke-linecap: square"/>
   </g>
   <g id="text_23">
    <text style="font-size: 12px; font-family: 'DejaVu Sans', 'Bitstream Vera Sans', 'Computer Modern Sans Serif', 'Lucida Grande', 'Verdana', 'Geneva', 'Lucid', 'Arial', 'Helvetica', 'Avant Garde', sans-serif; text-anchor: middle" x="382.131642" y="16.318125" transform="rotate(-0 382.131642 16.318125)">per-sample KL</text>
   </g>
  </g>
 </g>
 <defs>
  <clipPath id="pa19da0af69">
   <rect x="53.328125" y="22.318125" width="207.547034" height="119.8"/>
  </clipPath>
  <clipPath id="p3dece79090">
   <rect x="278.358125" y="22.318125" width="207.547034" height="119.8"/>
  </clipPath>
 </defs>
</svg>
