<?xml version="1.0" encoding="utf-8" standalone="no"?>
<!DOCTYPE svg PUBLIC "-//W3C//DTD SVG 1.1//EN"
  "http://www.w3.org/Graphics/SVG/1.1/DTD/svg11.dtd">
<svg xmlns:xlink="http://www.w3.org/1999/xlink" width="258.77125pt" height="200.793466pt" viewBox="0 0 258.77125 200.793466" xmlns="http://www.w3.org/2000/svg" version="1.1">
 <metadata>
  <rdf:RDF xmlns:dc="http://purl.org/dc/elements/1.1/" xmlns:cc="http://creativecommons.org/ns#" xmlns:rdf="http://www.w3.org/1999/02/22-rdf-syntax-ns#">
   <cc:Work>
    <dc:type rdf:resource="http://purl.org/dc/dcmitype/StillImage"/>
    <dc:format>image/svg+xml</dc:format>
    <dc:creator>
     <cc:Agent>
      <dc:title>Matplotlib v3.10.9, https://matplotlib.org/</dc:title>
     </cc:Agent>
    </dc:creator>
   </cc:Work>
  </rdf:RDF>
 </metadata>
 <defs>
  <style type="text/css">*{stroke-linejoin: round; stroke-linecap: butt}</style>
 </defs>
 <g id="figure_1">
  <g id="patch_1">
   <path d="M 0 200.793466 
L 258.77125 200.793466 
L 258.77125 0 
L 0 0 
z
" style="fill: #ffffff"/>
  </g>
  <g id="axes_1">
   <g id="patch_2">
    <path d="M 43.78125 163.237216 
L 251.57125 163.237216 
L 251.57125 7.2 
L 43.78125 7.2 
z
" style="fill: #ffffff"/>
   </g>
   <g id="FillBetweenPolyCollection_1">
    <defs>
     <path id="mcd8f082868" d="M 53.22625 -109.447052 
L 53.22625 -105.163829 
L 53.614135 -113.261734 
L 54.00202 -118.758328 
L 54.389905 -127.242759 
L 54.77779 -133.37685 
L 55.165675 -135.940933 
L 55.55356 -136.907258 
L 55.941445 -138.327728 
L 56.32933 -141.701633 
L 56.717215 -144.565144 
L 57.1051 -147.227069 
L 57.492985 -148.888254 
L 57.88087 -149.996094 
L 58.268755 -150.24702 
L 58.65664 -150.702373 
L 59.044525 -152.708544 
L 59.43241 -153.36166 
L 59.820295 -152.733052 
L 60.20818 -154.5606 
L 60.596065 -152.094191 
L 60.98395 -152.43382 
L 61.371835 -154.133039 
L 61.75972 -154.997112 
L 62.147605 -155.870226 
L 62.53549 -155.861169 
L 62.923375 -159.195105 
L 63.31126 -156.505557 
L 63.699145 -158.261644 
L 64.08703 -158.02961 
L 64.474915 -157.912432 
L 64.8628 -159.373629 
L 65.250685 -159.355108 
L 65.63857 -159.448654 
L 66.026455 -159.56344 
L 66.41434 -160.898612 
L 66.802225 -157.103151 
L 67.19011 -160.333478 
L 67.577995 -163.113255 
L 67.96588 -159.613923 
L 68.353765 -162.409483 
L 68.74165 -162.601369 
L 69.129535 -163.606415 
L 69.51742 -162.181242 
L 69.905305 -161.83513 
L 70.29319 -162.870216 
L 70.681075 -164.471212 
L 71.06896 -165.231564 
L 71.456845 -162.729437 
L 71.84473 -165.7423 
L 72.232616 -164.539482 
L 72.620501 -166.118893 
L 73.008386 -165.838681 
L 73.396271 -163.086084 
L 73.784156 -166.041085 
L 74.172041 -167.918823 
L 74.559926 -164.762696 
L 74.947811 -164.812023 
L 75.335696 -166.464307 
L 75.723581 -167.208094 
L 76.111466 -166.406414 
L 76.499351 -165.276284 
L 76.887236 -166.814196 
L 77.275121 -170.04856 
L 77.663006 -168.803045 
L 78.050891 -168.947453 
L 78.438776 -168.149716 
L 78.826661 -166.344603 
L 79.214546 -169.023264 
L 79.602431 -170.784055 
L 79.990316 -166.230976 
L 80.378201 -169.168924 
L 80.766086 -168.077471 
L 81.153971 -170.982776 
L 81.541856 -171.206159 
L 81.929741 -169.493711 
L 82.317626 -168.778617 
L 82.705511 -171.02616 
L 83.093396 -169.347851 
L 83.481281 -169.843515 
L 83.869166 -169.763371 
L 84.257051 -170.360676 
L 84.644936 -169.275748 
L 85.032821 -171.917246 
L 85.420706 -171.220048 
L 85.808591 -172.449733 
L 86.196476 -173.744256 
L 86.584361 -170.455048 
L 86.972246 -171.218926 
L 87.360131 -172.5411 
L 87.748016 -173.564696 
L 88.135901 -170.597842 
L 88.523786 -173.569125 
L 88.911671 -171.391378 
L 89.299556 -173.964062 
L 89.687441 -173.848612 
L 90.075326 -171.900993 
L 90.463211 -172.683422 
L 90.851096 -171.418972 
L 91.238981 -173.257007 
L 91.626866 -174.682765 
L 92.014751 -174.319278 
L 92.402636 -174.911641 
L 92.790521 -173.21733 
L 93.178406 -173.058187 
L 93.566291 -175.631516 
L 93.954176 -176.141643 
L 94.342061 -175.948885 
L 94.729946 -173.810419 
L 95.117831 -174.21752 
L 95.505716 -175.369516 
L 95.893601 -175.361493 
L 96.281486 -172.372145 
L 96.669371 -176.213052 
L 97.057256 -172.843201 
L 97.445141 -177.056463 
L 97.833026 -174.942436 
L 98.220911 -176.888321 
L 98.608796 -176.073289 
L 98.996681 -172.610903 
L 99.384566 -172.907756 
L 99.772451 -172.059464 
L 100.160336 -174.0509 
L 100.548221 -173.718148 
L 100.936106 -175.243035 
L 101.323991 -173.101204 
L 101.711876 -175.096405 
L 102.099761 -173.136795 
L 102.487646 -174.394577 
L 102.875531 -175.601968 
L 103.263416 -173.951511 
L 103.651301 -173.451149 
L 104.039186 -178.436907 
L 104.427071 -173.559118 
L 104.814956 -175.438934 
L 105.202841 -173.904508 
L 105.590726 -177.295678 
L 105.978611 -175.459656 
L 106.366496 -176.814561 
L 106.754381 -175.58958 
L 107.142266 -173.632923 
L 107.530151 -176.948135 
L 107.918036 -174.306223 
L 108.305921 -177.529513 
L 108.693806 -178.115554 
L 109.081691 -175.880597 
L 109.469576 -177.551269 
L 109.857461 -177.98385 
L 110.245347 -175.870299 
L 110.633232 -177.010158 
L 111.021117 -177.004786 
L 111.409002 -176.904482 
L 111.796887 -177.974815 
L 112.184772 -176.218393 
L 112.572657 -176.991225 
L 112.960542 -174.992637 
L 113.348427 -179.141413 
L 113.736312 -176.316721 
L 114.124197 -177.479864 
L 114.512082 -176.996957 
L 114.899967 -176.645182 
L 115.287852 -176.23326 
L 115.675737 -174.842619 
L 116.063622 -177.732546 
L 116.451507 -177.745447 
L 116.839392 -175.396822 
L 117.227277 -176.253949 
L 117.615162 -176.549439 
L 118.003047 -177.804003 
L 118.390932 -173.274798 
L 118.778817 -173.778654 
L 119.166702 -176.398366 
L 119.554587 -178.39031 
L 119.942472 -178.187336 
L 120.330357 -174.516554 
L 120.718242 -177.152358 
L 121.106127 -178.515405 
L 121.494012 -176.463979 
L 121.881897 -178.384256 
L 122.269782 -177.102478 
L 122.657667 -179.253655 
L 123.045552 -178.903557 
L 123.433437 -179.234717 
L 123.821322 -180.366696 
L 124.209207 -176.311375 
L 124.597092 -175.347918 
L 124.984977 -174.72377 
L 125.372862 -178.655492 
L 125.760747 -176.864321 
L 126.148632 -177.636121 
L 126.536517 -176.751866 
L 126.924402 -176.129225 
L 127.312287 -178.169064 
L 127.700172 -179.772734 
L 128.088057 -176.335622 
L 128.475942 -176.138378 
L 128.863827 -179.100951 
L 129.251712 -177.072761 
L 129.639597 -176.466662 
L 130.027482 -176.006653 
L 130.415367 -172.585538 
L 130.803252 -176.713895 
L 131.191137 -175.442316 
L 131.579022 -177.39622 
L 131.966907 -177.817883 
L 132.354792 -176.421927 
L 132.742677 -178.038437 
L 133.130562 -177.675418 
L 133.518447 -178.804104 
L 133.906332 -175.510533 
L 134.294217 -179.258849 
L 134.682102 -177.70638 
L 135.069987 -177.035763 
L 135.457872 -173.411962 
L 135.845757 -176.735588 
L 136.233642 -176.21199 
L 136.621527 -180.426393 
L 137.009412 -175.234563 
L 137.397297 -178.328993 
L 137.785182 -177.643369 
L 138.173067 -178.309306 
L 138.560952 -176.450144 
L 138.948837 -177.341593 
L 139.336722 -180.530998 
L 139.724607 -173.885904 
L 140.112492 -177.946453 
L 140.500377 -180.243715 
L 140.888262 -175.915116 
L 141.276147 -177.693313 
L 141.664032 -175.561105 
L 142.051917 -179.186307 
L 142.439802 -177.988813 
L 142.827687 -175.206083 
L 143.215572 -178.894665 
L 143.603457 -179.037091 
L 143.991342 -179.651294 
L 144.379227 -178.257589 
L 144.767112 -178.403877 
L 145.154997 -176.945692 
L 145.542882 -174.659921 
L 145.930767 -175.805733 
L 146.318652 -176.446055 
L 146.706537 -177.537806 
L 147.094422 -175.886453 
L 147.482307 -175.708056 
L 147.870193 -175.656958 
L 148.258078 -178.721452 
L 148.645963 -177.638711 
L 149.033848 -176.257831 
L 149.421733 -173.971599 
L 149.809618 -175.336751 
L 150.197503 -173.435324 
L 150.585388 -176.941073 
L 150.973273 -172.938248 
L 151.361158 -177.311934 
L 151.749043 -171.781964 
L 152.136928 -176.545294 
L 152.524813 -175.503313 
L 152.912698 -175.154322 
L 153.300583 -177.635096 
L 153.688468 -175.068036 
L 154.076353 -176.573606 
L 154.464238 -178.583198 
L 154.852123 -171.793818 
L 155.240008 -173.67693 
L 155.627893 -176.731433 
L 156.015778 -174.988923 
L 156.403663 -176.324077 
L 156.791548 -175.585389 
L 157.179433 -174.830054 
L 157.567318 -175.354594 
L 157.955203 -172.203485 
L 158.343088 -174.305832 
L 158.730973 -174.443468 
L 159.118858 -175.000785 
L 159.506743 -174.214062 
L 159.894628 -176.161961 
L 160.282513 -174.692523 
L 160.670398 -176.302097 
L 161.058283 -173.990695 
L 161.446168 -174.959782 
L 161.834053 -170.714471 
L 162.221938 -171.934658 
L 162.609823 -175.368736 
L 162.997708 -172.551473 
L 163.385593 -172.824911 
L 163.773478 -175.803451 
L 164.161363 -171.926091 
L 164.549248 -174.544104 
L 164.937133 -175.064261 
L 165.325018 -172.104708 
L 165.712903 -173.461615 
L 166.100788 -175.333773 
L 166.488673 -172.063331 
L 166.876558 -174.805677 
L 167.264443 -176.052571 
L 167.652328 -174.433012 
L 168.040213 -171.863858 
L 168.428098 -173.564997 
L 168.815983 -172.224432 
L 169.203868 -173.65995 
L 169.591753 -171.554079 
L 169.979638 -170.776749 
L 170.367523 -174.178833 
L 170.755408 -173.300756 
L 171.143293 -175.263467 
L 171.531178 -170.588968 
L 171.919063 -171.506349 
L 172.306948 -174.572897 
L 172.694833 -172.811323 
L 173.082718 -170.000457 
L 173.470603 -171.993233 
L 173.858488 -170.193727 
L 174.246373 -170.100238 
L 174.634258 -168.257189 
L 175.022143 -172.04544 
L 175.410028 -169.762022 
L 175.797913 -169.783657 
L 176.185798 -167.86805 
L 176.573683 -168.75181 
L 176.961568 -169.171384 
L 177.349453 -167.690544 
L 177.737338 -170.284866 
L 178.125223 -171.166887 
L 178.513108 -169.572622 
L 178.900993 -171.750233 
L 179.288878 -169.756892 
L 179.676763 -168.213851 
L 180.064648 -169.54577 
L 180.452533 -166.79754 
L 180.840418 -168.437068 
L 181.228303 -165.739184 
L 181.616188 -168.316212 
L 182.004073 -168.279798 
L 182.391958 -166.18663 
L 182.779843 -165.431761 
L 183.167728 -168.551171 
L 183.555613 -164.770129 
L 183.943498 -165.730695 
L 184.331383 -165.486873 
L 184.719268 -163.491598 
L 185.107153 -165.470569 
L 185.495039 -166.663337 
L 185.882924 -160.872303 
L 186.270809 -163.850011 
L 186.658694 -163.33834 
L 187.046579 -164.284495 
L 187.434464 -164.057875 
L 187.822349 -166.943273 
L 188.210234 -163.814865 
L 188.598119 -165.641752 
L 188.986004 -166.088744 
L 189.373889 -164.885635 
L 189.761774 -161.415237 
L 190.149659 -160.233072 
L 190.537544 -162.231421 
L 190.925429 -159.656996 
L 191.313314 -157.107394 
L 191.701199 -164.33232 
L 192.089084 -158.599649 
L 192.476969 -162.548605 
L 192.864854 -159.753464 
L 193.252739 -160.905263 
L 193.640624 -160.270883 
L 194.028509 -157.194359 
L 194.416394 -159.131938 
L 194.804279 -160.801569 
L 195.192164 -158.948437 
L 195.580049 -157.064846 
L 195.967934 -159.185575 
L 196.355819 -157.939703 
L 196.743704 -157.969837 
L 197.131589 -157.80258 
L 197.519474 -156.751212 
L 197.907359 -154.968059 
L 198.295244 -157.774207 
L 198.683129 -158.571192 
L 199.071014 -155.714482 
L 199.458899 -158.533758 
L 199.846784 -153.36292 
L 200.234669 -156.20673 
L 200.622554 -156.389498 
L 201.010439 -155.82686 
L 201.398324 -153.873496 
L 201.786209 -155.646046 
L 202.174094 -155.264598 
L 202.561979 -154.177138 
L 202.949864 -150.502831 
L 203.337749 -156.232662 
L 203.725634 -148.463672 
L 204.113519 -148.764106 
L 204.501404 -151.871243 
L 204.889289 -148.941262 
L 205.277174 -146.949298 
L 205.665059 -146.623488 
L 206.052944 -151.796025 
L 206.440829 -146.557599 
L 206.828714 -146.843899 
L 207.216599 -151.785061 
L 207.604484 -146.453363 
L 207.992369 -144.427434 
L 208.380254 -145.991482 
L 208.768139 -147.86433 
L 209.156024 -148.599564 
L 209.543909 -141.950652 
L 209.931794 -140.548954 
L 210.319679 -142.953948 
L 210.707564 -137.556557 
L 211.095449 -138.309823 
L 211.483334 -138.440756 
L 211.871219 -145.541028 
L 212.259104 -140.199538 
L 212.646989 -138.668798 
L 213.034874 -136.728167 
L 213.422759 -136.425668 
L 213.810644 -137.468133 
L 214.198529 -138.759016 
L 214.586414 -141.453492 
L 214.974299 -134.580685 
L 215.362184 -136.58844 
L 215.750069 -137.40238 
L 216.137954 -136.955888 
L 216.525839 -136.44725 
L 216.913724 -130.76943 
L 217.301609 -130.759517 
L 217.689494 -130.906377 
L 218.077379 -133.481953 
L 218.465264 -130.634574 
L 218.853149 -131.696952 
L 219.241034 -127.835742 
L 219.628919 -127.771631 
L 220.016804 -124.001253 
L 220.404689 -130.09743 
L 220.792574 -126.593662 
L 221.180459 -123.683378 
L 221.568344 -125.281816 
L 221.956229 -125.808213 
L 222.344114 -121.820493 
L 222.731999 -117.191193 
L 223.119884 -121.281607 
L 223.50777 -118.080966 
L 223.895655 -117.725169 
L 224.28354 -115.199603 
L 224.671425 -114.428221 
L 225.05931 -113.749893 
L 225.447195 -112.854053 
L 225.83508 -115.086627 
L 226.222965 -109.307002 
L 226.61085 -106.507846 
L 226.998735 -106.604162 
L 227.38662 -109.790644 
L 227.774505 -106.489301 
L 228.16239 -103.606511 
L 228.550275 -104.553329 
L 228.93816 -105.442728 
L 229.326045 -103.124015 
L 229.71393 -99.500866 
L 230.101815 -98.965248 
L 230.4897 -98.82014 
L 230.877585 -97.083745 
L 231.26547 -96.003152 
L 231.653355 -91.231254 
L 232.04124 -91.840783 
L 232.429125 -88.583263 
L 232.81701 -91.338829 
L 233.204895 -86.375316 
L 233.59278 -83.64367 
L 233.980665 -82.203153 
L 234.36855 -81.421994 
L 234.756435 -80.693688 
L 235.14432 -77.902196 
L 235.532205 -75.959372 
L 235.92009 -75.485515 
L 236.307975 -69.982435 
L 236.69586 -69.221601 
L 237.083745 -66.84586 
L 237.47163 -66.01605 
L 237.859515 -62.681268 
L 238.2474 -62.150024 
L 238.635285 -58.599483 
L 239.02317 -55.64829 
L 239.411055 -54.570308 
L 239.79894 -52.046872 
L 240.186825 -49.877858 
L 240.57471 -48.619551 
L 240.962595 -46.733041 
L 241.35048 -45.319169 
L 241.738365 -44.648851 
L 242.12625 -44.780061 
L 242.12625 -44.837084 
L 242.12625 -44.837084 
L 241.738365 -46.015964 
L 241.35048 -46.893556 
L 240.962595 -50.482077 
L 240.57471 -51.601721 
L 240.186825 -55.01074 
L 239.79894 -58.26885 
L 239.411055 -58.038964 
L 239.02317 -61.543361 
L 238.635285 -64.208062 
L 238.2474 -65.30597 
L 237.859515 -68.564274 
L 237.47163 -70.670774 
L 237.083745 -73.720178 
L 236.69586 -74.17126 
L 236.307975 -77.959771 
L 235.92009 -80.167926 
L 235.532205 -80.921071 
L 235.14432 -84.395932 
L 234.756435 -86.333116 
L 234.36855 -86.22303 
L 233.980665 -92.07712 
L 233.59278 -91.004704 
L 233.204895 -94.969656 
L 232.81701 -94.149634 
L 232.429125 -93.615891 
L 232.04124 -99.277731 
L 231.653355 -97.990126 
L 231.26547 -102.887946 
L 230.877585 -102.982445 
L 230.4897 -105.398978 
L 230.101815 -107.443597 
L 229.71393 -105.544119 
L 229.326045 -109.495347 
L 228.93816 -111.806207 
L 228.550275 -111.416692 
L 228.16239 -115.346068 
L 227.774505 -111.288188 
L 227.38662 -117.835894 
L 226.998735 -115.656603 
L 226.61085 -115.993601 
L 226.222965 -119.683397 
L 225.83508 -123.710348 
L 225.447195 -122.049551 
L 225.05931 -121.139553 
L 224.671425 -123.557045 
L 224.28354 -123.871087 
L 223.895655 -125.75329 
L 223.50777 -123.854302 
L 223.119884 -130.965196 
L 222.731999 -125.687923 
L 222.344114 -130.110121 
L 221.956229 -130.827481 
L 221.568344 -129.985299 
L 221.180459 -134.018864 
L 220.792574 -133.586181 
L 220.404689 -135.783252 
L 220.016804 -133.26682 
L 219.628919 -133.101939 
L 219.241034 -134.713157 
L 218.853149 -137.076622 
L 218.465264 -137.511341 
L 218.077379 -137.547417 
L 217.689494 -141.095156 
L 217.301609 -139.165551 
L 216.913724 -141.387838 
L 216.525839 -141.807274 
L 216.137954 -140.491646 
L 215.750069 -139.205129 
L 215.362184 -143.124328 
L 214.974299 -144.650721 
L 214.586414 -144.67744 
L 214.198529 -145.356801 
L 213.810644 -143.63209 
L 213.422759 -148.416911 
L 213.034874 -144.395653 
L 212.646989 -150.869424 
L 212.259104 -146.408036 
L 211.871219 -149.46207 
L 211.483334 -146.628347 
L 211.095449 -151.261433 
L 210.707564 -151.873122 
L 210.319679 -149.732006 
L 209.931794 -150.428635 
L 209.543909 -150.1218 
L 209.156024 -151.523908 
L 208.768139 -153.287936 
L 208.380254 -152.164068 
L 207.992369 -153.468558 
L 207.604484 -154.47238 
L 207.216599 -156.39415 
L 206.828714 -153.119119 
L 206.440829 -156.288873 
L 206.052944 -153.957498 
L 205.665059 -156.581646 
L 205.277174 -160.923163 
L 204.889289 -155.571101 
L 204.501404 -157.690705 
L 204.113519 -158.721378 
L 203.725634 -157.351201 
L 203.337749 -157.840877 
L 202.949864 -158.304039 
L 202.561979 -158.839292 
L 202.174094 -156.973158 
L 201.786209 -160.975882 
L 201.398324 -162.049984 
L 201.010439 -160.851699 
L 200.622554 -161.907759 
L 200.234669 -163.133479 
L 199.846784 -161.682783 
L 199.458899 -162.038172 
L 199.071014 -158.670527 
L 198.683129 -161.996019 
L 198.295244 -162.524007 
L 197.907359 -162.404228 
L 197.519474 -164.622989 
L 197.131589 -161.731118 
L 196.743704 -164.626646 
L 196.355819 -163.207975 
L 195.967934 -163.911147 
L 195.580049 -165.479725 
L 195.192164 -166.701393 
L 194.804279 -168.194201 
L 194.416394 -164.743459 
L 194.028509 -165.331335 
L 193.640624 -166.115148 
L 193.252739 -166.561474 
L 192.864854 -166.844932 
L 192.476969 -167.53259 
L 192.089084 -166.516907 
L 191.701199 -167.244873 
L 191.313314 -169.203129 
L 190.925429 -166.644089 
L 190.537544 -171.743145 
L 190.149659 -166.856125 
L 189.761774 -173.7297 
L 189.373889 -170.325371 
L 188.986004 -168.664497 
L 188.598119 -171.740103 
L 188.210234 -169.031803 
L 187.822349 -169.966659 
L 187.434464 -172.224398 
L 187.046579 -171.313489 
L 186.658694 -173.996323 
L 186.270809 -169.619596 
L 185.882924 -171.07771 
L 185.495039 -171.322581 
L 185.107153 -172.430403 
L 184.719268 -175.093664 
L 184.331383 -170.007287 
L 183.943498 -173.935272 
L 183.555613 -168.501271 
L 183.167728 -173.74813 
L 182.779843 -175.531996 
L 182.391958 -172.983817 
L 182.004073 -172.013828 
L 181.616188 -173.086435 
L 181.228303 -171.935265 
L 180.840418 -171.865996 
L 180.452533 -173.061916 
L 180.064648 -175.585074 
L 179.676763 -174.604567 
L 179.288878 -173.288049 
L 178.900993 -176.070577 
L 178.513108 -176.799382 
L 178.125223 -178.867246 
L 177.737338 -173.954042 
L 177.349453 -176.024529 
L 176.961568 -174.628635 
L 176.573683 -176.402631 
L 176.185798 -178.485077 
L 175.797913 -175.068752 
L 175.410028 -177.690687 
L 175.022143 -175.704581 
L 174.634258 -176.514993 
L 174.246373 -174.88903 
L 173.858488 -179.000381 
L 173.470603 -176.214554 
L 173.082718 -176.966171 
L 172.694833 -176.090192 
L 172.306948 -177.759504 
L 171.919063 -180.46739 
L 171.531178 -180.846778 
L 171.143293 -178.664037 
L 170.755408 -179.602673 
L 170.367523 -176.549028 
L 169.979638 -178.072855 
L 169.591753 -178.196899 
L 169.203868 -177.591746 
L 168.815983 -178.258029 
L 168.428098 -178.012327 
L 168.040213 -175.239628 
L 167.652328 -177.380273 
L 167.264443 -179.111373 
L 166.876558 -177.866509 
L 166.488673 -179.381854 
L 166.100788 -180.226587 
L 165.712903 -180.055315 
L 165.325018 -177.15547 
L 164.937133 -180.36868 
L 164.549248 -177.708071 
L 164.161363 -179.127397 
L 163.773478 -178.888569 
L 163.385593 -179.57356 
L 162.997708 -179.280689 
L 162.609823 -180.177466 
L 162.221938 -178.425102 
L 161.834053 -178.120975 
L 161.446168 -180.841259 
L 161.058283 -179.493201 
L 160.670398 -181.400797 
L 160.282513 -180.631875 
L 159.894628 -179.818411 
L 159.506743 -178.783752 
L 159.118858 -182.069731 
L 158.730973 -183.198076 
L 158.343088 -180.598554 
L 157.955203 -179.869358 
L 157.567318 -181.593223 
L 157.179433 -178.573615 
L 156.791548 -180.899942 
L 156.403663 -180.703967 
L 156.015778 -180.61391 
L 155.627893 -178.68735 
L 155.240008 -177.91927 
L 154.852123 -181.218154 
L 154.464238 -180.743114 
L 154.076353 -183.323734 
L 153.688468 -180.039278 
L 153.300583 -181.115469 
L 152.912698 -182.086087 
L 152.524813 -181.175507 
L 152.136928 -182.559214 
L 151.749043 -183.032756 
L 151.361158 -180.867603 
L 150.973273 -178.865599 
L 150.585388 -182.111523 
L 150.197503 -182.025932 
L 149.809618 -179.610109 
L 149.421733 -180.314567 
L 149.033848 -181.435625 
L 148.645963 -181.003312 
L 148.258078 -182.280189 
L 147.870193 -181.474908 
L 147.482307 -179.918373 
L 147.094422 -183.156705 
L 146.706537 -180.533188 
L 146.318652 -179.935452 
L 145.930767 -181.057136 
L 145.542882 -181.528097 
L 145.154997 -183.263118 
L 144.767112 -182.385399 
L 144.379227 -183.017768 
L 143.991342 -183.455128 
L 143.603457 -182.162759 
L 143.215572 -180.91301 
L 142.827687 -184.280683 
L 142.439802 -182.875971 
L 142.051917 -181.565215 
L 141.664032 -184.534443 
L 141.276147 -183.926549 
L 140.888262 -181.53294 
L 140.500377 -182.15954 
L 140.112492 -183.999037 
L 139.724607 -179.560238 
L 139.336722 -183.89681 
L 138.948837 -184.028149 
L 138.560952 -184.074855 
L 138.173067 -183.15954 
L 137.785182 -183.263888 
L 137.397297 -182.030832 
L 137.009412 -184.82323 
L 136.621527 -183.878715 
L 136.233642 -182.845325 
L 135.845757 -184.086722 
L 135.457872 -184.890276 
L 135.069987 -183.328781 
L 134.682102 -184.243828 
L 134.294217 -182.106173 
L 133.906332 -183.098455 
L 133.518447 -184.807276 
L 133.130562 -180.735362 
L 132.742677 -181.420014 
L 132.354792 -182.021887 
L 131.966907 -182.867569 
L 131.579022 -184.29915 
L 131.191137 -180.674914 
L 130.803252 -182.447243 
L 130.415367 -180.700149 
L 130.027482 -181.304544 
L 129.639597 -181.174882 
L 129.251712 -186.500865 
L 128.863827 -183.802544 
L 128.475942 -183.386142 
L 128.088057 -181.711777 
L 127.700172 -181.696112 
L 127.312287 -183.842495 
L 126.924402 -181.361304 
L 126.536517 -184.731138 
L 126.148632 -183.407994 
L 125.760747 -184.19867 
L 125.372862 -181.694894 
L 124.984977 -181.015921 
L 124.597092 -181.982156 
L 124.209207 -184.204185 
L 123.821322 -185.722284 
L 123.433437 -183.71597 
L 123.045552 -184.301969 
L 122.657667 -183.380843 
L 122.269782 -183.866129 
L 121.881897 -182.546597 
L 121.494012 -181.347458 
L 121.106127 -181.372497 
L 120.718242 -182.683631 
L 120.330357 -179.722419 
L 119.942472 -180.303671 
L 119.554587 -183.220113 
L 119.166702 -181.630156 
L 118.778817 -179.993115 
L 118.390932 -181.771165 
L 118.003047 -183.329777 
L 117.615162 -183.782071 
L 117.227277 -183.987895 
L 116.839392 -179.639703 
L 116.451507 -181.373218 
L 116.063622 -183.24078 
L 115.675737 -180.623356 
L 115.287852 -181.276145 
L 114.899967 -181.392778 
L 114.512082 -183.617707 
L 114.124197 -181.185755 
L 113.736312 -184.179962 
L 113.348427 -183.828151 
L 112.960542 -181.195382 
L 112.572657 -182.533295 
L 112.184772 -183.966821 
L 111.796887 -180.889012 
L 111.409002 -182.133956 
L 111.021117 -181.330487 
L 110.633232 -180.211374 
L 110.245347 -181.714614 
L 109.857461 -181.087623 
L 109.469576 -182.346071 
L 109.081691 -183.747746 
L 108.693806 -186.406639 
L 108.305921 -181.018125 
L 107.918036 -178.672714 
L 107.530151 -179.018079 
L 107.142266 -182.578692 
L 106.754381 -182.028368 
L 106.366496 -180.199324 
L 105.978611 -180.110143 
L 105.590726 -180.916893 
L 105.202841 -179.768157 
L 104.814956 -180.565035 
L 104.427071 -179.618027 
L 104.039186 -182.602489 
L 103.651301 -179.659927 
L 103.263416 -180.292182 
L 102.875531 -179.543099 
L 102.487646 -181.599953 
L 102.099761 -179.101221 
L 101.711876 -181.129367 
L 101.323991 -177.560587 
L 100.936106 -178.948746 
L 100.548221 -180.813418 
L 100.160336 -179.782219 
L 99.772451 -180.532495 
L 99.384566 -182.36945 
L 98.996681 -179.329802 
L 98.608796 -180.218553 
L 98.220911 -181.621563 
L 97.833026 -178.508425 
L 97.445141 -180.434066 
L 97.057256 -180.947445 
L 96.669371 -180.371383 
L 96.281486 -177.779968 
L 95.893601 -178.877481 
L 95.505716 -180.063424 
L 95.117831 -178.643436 
L 94.729946 -178.41344 
L 94.342061 -180.701619 
L 93.954176 -178.748585 
L 93.566291 -179.777828 
L 93.178406 -180.482339 
L 92.790521 -180.040042 
L 92.402636 -177.283902 
L 92.014751 -178.59359 
L 91.626866 -177.44199 
L 91.238981 -177.787043 
L 90.851096 -178.478302 
L 90.463211 -179.606507 
L 90.075326 -175.018442 
L 89.687441 -179.106729 
L 89.299556 -178.849702 
L 88.911671 -179.029732 
L 88.523786 -177.342786 
L 88.135901 -175.486289 
L 87.748016 -178.918721 
L 87.360131 -177.403367 
L 86.972246 -179.423988 
L 86.584361 -175.322332 
L 86.196476 -180.475841 
L 85.808591 -174.913311 
L 85.420706 -176.020295 
L 85.032821 -175.464675 
L 84.644936 -177.285025 
L 84.257051 -175.341196 
L 83.869166 -174.829481 
L 83.481281 -174.04617 
L 83.093396 -176.934487 
L 82.705511 -176.520934 
L 82.317626 -175.616026 
L 81.929741 -175.169929 
L 81.541856 -173.830301 
L 81.153971 -175.040004 
L 80.766086 -172.461554 
L 80.378201 -174.508395 
L 79.990316 -173.68983 
L 79.602431 -174.431736 
L 79.214546 -174.031116 
L 78.826661 -174.940062 
L 78.438776 -172.252452 
L 78.050891 -171.346172 
L 77.663006 -172.892194 
L 77.275121 -172.246023 
L 76.887236 -172.181639 
L 76.499351 -170.949358 
L 76.111466 -173.051906 
L 75.723581 -172.868446 
L 75.335696 -172.375793 
L 74.947811 -171.342831 
L 74.559926 -169.452551 
L 74.172041 -171.591409 
L 73.784156 -168.971713 
L 73.396271 -167.24523 
L 73.008386 -170.259542 
L 72.620501 -170.484288 
L 72.232616 -170.87917 
L 71.84473 -170.049173 
L 71.456845 -169.583957 
L 71.06896 -168.002082 
L 70.681075 -169.361777 
L 70.29319 -168.395507 
L 69.905305 -167.476829 
L 69.51742 -166.965544 
L 69.129535 -167.819762 
L 68.74165 -166.899359 
L 68.353765 -168.752417 
L 67.96588 -167.036386 
L 67.577995 -166.481858 
L 67.19011 -163.976088 
L 66.802225 -164.582519 
L 66.41434 -163.736582 
L 66.026455 -166.02504 
L 65.63857 -164.473935 
L 65.250685 -162.854397 
L 64.8628 -164.232771 
L 64.474915 -162.27724 
L 64.08703 -162.858509 
L 63.699145 -164.278208 
L 63.31126 -161.031904 
L 62.923375 -162.872824 
L 62.53549 -160.987282 
L 62.147605 -157.226431 
L 61.75972 -157.349187 
L 61.371835 -159.26093 
L 60.98395 -159.926636 
L 60.596065 -156.641891 
L 60.20818 -158.304815 
L 59.820295 -160.354167 
L 59.43241 -156.492881 
L 59.044525 -158.283333 
L 58.65664 -156.315906 
L 58.268755 -152.972272 
L 57.88087 -153.45916 
L 57.492985 -153.132352 
L 57.1051 -150.768026 
L 56.717215 -149.583773 
L 56.32933 -147.779957 
L 55.941445 -144.962222 
L 55.55356 -142.385498 
L 55.165675 -139.255525 
L 54.77779 -139.26178 
L 54.389905 -132.724718 
L 54.00202 -124.578554 
L 53.614135 -118.730099 
L 53.22625 -109.447052 
z
"/>
    </defs>
    <g clip-path="url(#p383f21e573)">
     <use xlink:href="#mcd8f082868" x="0" y="200.793466" style="fill: #c0392b; fill-opacity: 0.15"/>
    </g>
   </g>
   <g id="FillBetweenPolyCollection_2">
    <defs>
     <path id="m1bc6fe3d1a" d="M 53.22625 -54.393681 
L 53.22625 -53.732314 
L 53.614135 -51.890889 
L 54.00202 -51.971087 
L 54.389905 -52.293939 
L 54.77779 -52.024918 
L 55.165675 -52.261347 
L 55.55356 -52.211948 
L 55.941445 -53.317985 
L 56.32933 -52.095963 
L 56.717215 -52.329566 
L 57.1051 -53.269441 
L 57.492985 -52.84914 
L 57.88087 -53.354747 
L 58.268755 -52.883558 
L 58.65664 -53.313396 
L 59.044525 -53.116552 
L 59.43241 -52.80372 
L 59.820295 -53.578637 
L 60.20818 -53.383961 
L 60.596065 -54.424416 
L 60.98395 -53.880205 
L 61.371835 -54.486172 
L 61.75972 -54.230767 
L 62.147605 -53.632331 
L 62.53549 -54.11934 
L 62.923375 -53.349496 
L 63.31126 -54.083904 
L 63.699145 -53.895044 
L 64.08703 -54.100701 
L 64.474915 -54.783372 
L 64.8628 -54.57888 
L 65.250685 -53.71965 
L 65.63857 -54.949937 
L 66.026455 -55.313252 
L 66.41434 -54.277262 
L 66.802225 -54.758571 
L 67.19011 -55.173803 
L 67.577995 -54.589761 
L 67.96588 -55.187116 
L 68.353765 -54.93858 
L 68.74165 -54.787933 
L 69.129535 -54.805502 
L 69.51742 -55.486163 
L 69.905305 -55.418003 
L 70.29319 -55.419706 
L 70.681075 -55.540072 
L 71.06896 -55.256123 
L 71.456845 -55.585348 
L 71.84473 -55.816129 
L 72.232616 -54.751876 
L 72.620501 -55.519838 
L 73.008386 -55.064433 
L 73.396271 -56.132119 
L 73.784156 -55.618658 
L 74.172041 -55.665508 
L 74.559926 -56.262109 
L 74.947811 -56.364123 
L 75.335696 -55.808076 
L 75.723581 -56.354524 
L 76.111466 -55.843769 
L 76.499351 -56.003668 
L 76.887236 -56.321972 
L 77.275121 -55.567919 
L 77.663006 -56.231197 
L 78.050891 -56.415667 
L 78.438776 -56.245191 
L 78.826661 -56.922502 
L 79.214546 -56.034688 
L 79.602431 -56.543216 
L 79.990316 -55.989199 
L 80.378201 -55.753082 
L 80.766086 -56.455561 
L 81.153971 -55.776994 
L 81.541856 -56.147146 
L 81.929741 -56.690266 
L 82.317626 -56.288141 
L 82.705511 -55.683677 
L 83.093396 -55.704372 
L 83.481281 -56.777438 
L 83.869166 -55.945191 
L 84.257051 -55.851316 
L 84.644936 -56.616489 
L 85.032821 -57.196264 
L 85.420706 -56.821876 
L 85.808591 -56.652115 
L 86.196476 -56.062404 
L 86.584361 -56.73154 
L 86.972246 -55.626002 
L 87.360131 -56.36964 
L 87.748016 -56.753131 
L 88.135901 -56.612838 
L 88.523786 -56.612619 
L 88.911671 -57.71473 
L 89.299556 -57.426061 
L 89.687441 -56.655991 
L 90.075326 -56.707604 
L 90.463211 -56.47827 
L 90.851096 -55.937067 
L 91.238981 -57.138634 
L 91.626866 -56.800736 
L 92.014751 -56.995057 
L 92.402636 -58.200124 
L 92.790521 -56.801282 
L 93.178406 -57.48681 
L 93.566291 -57.137517 
L 93.954176 -56.961113 
L 94.342061 -56.629287 
L 94.729946 -57.405923 
L 95.117831 -58.133884 
L 95.505716 -56.690048 
L 95.893601 -58.032737 
L 96.281486 -57.163796 
L 96.669371 -57.40108 
L 97.057256 -57.428326 
L 97.445141 -57.096714 
L 97.833026 -57.508959 
L 98.220911 -57.338297 
L 98.608796 -57.462011 
L 98.996681 -57.399801 
L 99.384566 -57.291331 
L 99.772451 -57.458196 
L 100.160336 -57.973765 
L 100.548221 -56.889452 
L 100.936106 -56.613222 
L 101.323991 -58.231073 
L 101.711876 -58.294653 
L 102.099761 -58.663058 
L 102.487646 -57.224612 
L 102.875531 -57.823437 
L 103.263416 -57.857429 
L 103.651301 -57.277313 
L 104.039186 -57.215319 
L 104.427071 -58.065798 
L 104.814956 -58.11446 
L 105.202841 -58.05508 
L 105.590726 -57.968261 
L 105.978611 -58.034643 
L 106.366496 -58.142541 
L 106.754381 -58.325474 
L 107.142266 -57.549019 
L 107.530151 -58.919794 
L 107.918036 -58.187062 
L 108.305921 -57.8962 
L 108.693806 -56.979228 
L 109.081691 -57.399523 
L 109.469576 -58.163713 
L 109.857461 -57.443826 
L 110.245347 -57.72497 
L 110.633232 -58.685882 
L 111.021117 -57.12761 
L 111.409002 -56.982403 
L 111.796887 -58.112881 
L 112.184772 -58.367251 
L 112.572657 -58.116408 
L 112.960542 -58.242291 
L 113.348427 -56.373043 
L 113.736312 -58.172146 
L 114.124197 -58.900415 
L 114.512082 -57.723544 
L 114.899967 -58.192472 
L 115.287852 -57.899881 
L 115.675737 -58.206827 
L 116.063622 -58.164879 
L 116.451507 -58.459946 
L 116.839392 -58.014912 
L 117.227277 -57.856975 
L 117.615162 -57.995566 
L 118.003047 -57.52225 
L 118.390932 -58.021369 
L 118.778817 -58.443764 
L 119.166702 -58.182093 
L 119.554587 -58.408761 
L 119.942472 -58.051428 
L 120.330357 -58.374069 
L 120.718242 -57.491817 
L 121.106127 -59.379418 
L 121.494012 -57.675301 
L 121.881897 -58.345631 
L 122.269782 -58.022369 
L 122.657667 -58.427155 
L 123.045552 -57.586559 
L 123.433437 -57.898409 
L 123.821322 -56.825814 
L 124.209207 -57.191052 
L 124.597092 -58.30852 
L 124.984977 -57.41628 
L 125.372862 -58.107727 
L 125.760747 -57.582724 
L 126.148632 -58.539456 
L 126.536517 -58.057985 
L 126.924402 -57.376735 
L 127.312287 -57.927596 
L 127.700172 -57.911808 
L 128.088057 -58.530621 
L 128.475942 -58.912587 
L 128.863827 -58.17995 
L 129.251712 -56.588757 
L 129.639597 -57.975255 
L 130.027482 -58.274454 
L 130.415367 -58.228666 
L 130.803252 -57.72452 
L 131.191137 -58.126067 
L 131.579022 -58.274861 
L 131.966907 -57.755202 
L 132.354792 -58.285215 
L 132.742677 -58.58983 
L 133.130562 -58.985869 
L 133.518447 -57.557849 
L 133.906332 -58.11805 
L 134.294217 -57.552029 
L 134.682102 -57.40555 
L 135.069987 -57.600932 
L 135.457872 -56.920751 
L 135.845757 -57.037525 
L 136.233642 -57.367828 
L 136.621527 -57.144905 
L 137.009412 -57.616783 
L 137.397297 -58.282679 
L 137.785182 -57.407659 
L 138.173067 -57.776883 
L 138.560952 -57.308101 
L 138.948837 -57.174209 
L 139.336722 -58.141781 
L 139.724607 -59.046743 
L 140.112492 -57.672253 
L 140.500377 -57.175187 
L 140.888262 -57.429344 
L 141.276147 -56.907289 
L 141.664032 -56.897771 
L 142.051917 -57.08007 
L 142.439802 -57.275261 
L 142.827687 -57.222495 
L 143.215572 -57.76301 
L 143.603457 -57.946039 
L 143.991342 -57.339765 
L 144.379227 -57.155422 
L 144.767112 -57.549704 
L 145.154997 -56.829771 
L 145.542882 -57.323679 
L 145.930767 -57.000932 
L 146.318652 -56.883264 
L 146.706537 -57.795998 
L 147.094422 -58.071245 
L 147.482307 -58.119901 
L 147.870193 -57.293773 
L 148.258078 -57.688699 
L 148.645963 -57.274034 
L 149.033848 -58.163773 
L 149.421733 -57.847064 
L 149.809618 -57.272799 
L 150.197503 -57.736837 
L 150.585388 -56.678481 
L 150.973273 -57.708735 
L 151.361158 -57.139912 
L 151.749043 -58.061254 
L 152.136928 -57.285501 
L 152.524813 -56.888297 
L 152.912698 -57.248592 
L 153.300583 -56.378507 
L 153.688468 -57.002686 
L 154.076353 -57.230249 
L 154.464238 -57.179118 
L 154.852123 -57.868811 
L 155.240008 -57.007245 
L 155.627893 -56.647793 
L 156.015778 -57.784199 
L 156.403663 -56.484601 
L 156.791548 -56.486721 
L 157.179433 -57.312637 
L 157.567318 -57.599852 
L 157.955203 -57.066915 
L 158.343088 -57.206539 
L 158.730973 -56.711181 
L 159.118858 -56.766044 
L 159.506743 -57.586041 
L 159.894628 -56.318758 
L 160.282513 -58.312933 
L 160.670398 -56.795796 
L 161.058283 -57.22102 
L 161.446168 -56.040743 
L 161.834053 -57.565504 
L 162.221938 -57.416334 
L 162.609823 -56.792137 
L 162.997708 -55.300407 
L 163.385593 -57.031992 
L 163.773478 -56.236116 
L 164.161363 -56.565342 
L 164.549248 -56.125269 
L 164.937133 -56.594864 
L 165.325018 -56.496131 
L 165.712903 -56.893994 
L 166.100788 -56.340921 
L 166.488673 -55.865192 
L 166.876558 -56.780846 
L 167.264443 -57.017494 
L 167.652328 -56.788578 
L 168.040213 -57.011404 
L 168.428098 -56.811318 
L 168.815983 -57.31889 
L 169.203868 -56.214309 
L 169.591753 -55.736468 
L 169.979638 -56.301336 
L 170.367523 -56.842031 
L 170.755408 -55.753226 
L 171.143293 -55.397468 
L 171.531178 -56.079134 
L 171.919063 -56.672168 
L 172.306948 -56.252769 
L 172.694833 -56.645179 
L 173.082718 -56.453705 
L 173.470603 -56.429047 
L 173.858488 -56.011329 
L 174.246373 -56.761371 
L 174.634258 -55.995864 
L 175.022143 -54.783249 
L 175.410028 -57.182462 
L 175.797913 -56.841087 
L 176.185798 -56.164641 
L 176.573683 -55.486475 
L 176.961568 -56.237029 
L 177.349453 -56.226892 
L 177.737338 -55.955965 
L 178.125223 -56.089241 
L 178.513108 -55.980684 
L 178.900993 -54.695907 
L 179.288878 -55.195824 
L 179.676763 -55.802756 
L 180.064648 -55.420736 
L 180.452533 -55.531526 
L 180.840418 -56.062385 
L 181.228303 -55.73834 
L 181.616188 -55.056874 
L 182.004073 -56.427568 
L 182.391958 -55.142337 
L 182.779843 -54.590016 
L 183.167728 -54.89702 
L 183.555613 -56.333689 
L 183.943498 -54.996863 
L 184.331383 -55.068585 
L 184.719268 -55.456372 
L 185.107153 -55.385342 
L 185.495039 -55.543598 
L 185.882924 -55.459333 
L 186.270809 -54.559382 
L 186.658694 -55.491451 
L 187.046579 -55.873814 
L 187.434464 -55.833609 
L 187.822349 -54.872 
L 188.210234 -54.53397 
L 188.598119 -54.193222 
L 188.986004 -54.987443 
L 189.373889 -54.795968 
L 189.761774 -55.645099 
L 190.149659 -55.200566 
L 190.537544 -54.802485 
L 190.925429 -55.319298 
L 191.313314 -55.319983 
L 191.701199 -54.349266 
L 192.089084 -55.870528 
L 192.476969 -54.748063 
L 192.864854 -54.552654 
L 193.252739 -54.451821 
L 193.640624 -53.015547 
L 194.028509 -54.879711 
L 194.416394 -54.633076 
L 194.804279 -54.757447 
L 195.192164 -54.52801 
L 195.580049 -54.328873 
L 195.967934 -53.334231 
L 196.355819 -53.998424 
L 196.743704 -53.917719 
L 197.131589 -54.035542 
L 197.519474 -53.938553 
L 197.907359 -53.914325 
L 198.295244 -53.375765 
L 198.683129 -53.843531 
L 199.071014 -53.574421 
L 199.458899 -53.370033 
L 199.846784 -53.708035 
L 200.234669 -53.542882 
L 200.622554 -53.300063 
L 201.010439 -53.72003 
L 201.398324 -53.192724 
L 201.786209 -52.772823 
L 202.174094 -52.616372 
L 202.561979 -53.54646 
L 202.949864 -53.31769 
L 203.337749 -52.357606 
L 203.725634 -53.674392 
L 204.113519 -53.15364 
L 204.501404 -52.851944 
L 204.889289 -52.899054 
L 205.277174 -52.645598 
L 205.665059 -53.013832 
L 206.052944 -52.857757 
L 206.440829 -52.402472 
L 206.828714 -52.444317 
L 207.216599 -52.26049 
L 207.604484 -52.070437 
L 207.992369 -52.685692 
L 208.380254 -52.15373 
L 208.768139 -52.307761 
L 209.156024 -52.660618 
L 209.543909 -52.811011 
L 209.931794 -52.227194 
L 210.319679 -51.606322 
L 210.707564 -51.507315 
L 211.095449 -51.822985 
L 211.483334 -51.511545 
L 211.871219 -52.042309 
L 212.259104 -51.263483 
L 212.646989 -51.157973 
L 213.034874 -51.774049 
L 213.422759 -52.288499 
L 213.810644 -51.423077 
L 214.198529 -51.299085 
L 214.586414 -50.766001 
L 214.974299 -51.475541 
L 215.362184 -51.191675 
L 215.750069 -51.334614 
L 216.137954 -51.218799 
L 216.525839 -51.07521 
L 216.913724 -51.246702 
L 217.301609 -50.562043 
L 217.689494 -50.716051 
L 218.077379 -50.474285 
L 218.465264 -51.013031 
L 218.853149 -50.881208 
L 219.241034 -50.246796 
L 219.628919 -50.522711 
L 220.016804 -50.901418 
L 220.404689 -50.942686 
L 220.792574 -50.472616 
L 221.180459 -50.375687 
L 221.568344 -49.730298 
L 221.956229 -50.412646 
L 222.344114 -50.156042 
L 222.731999 -50.335998 
L 223.119884 -50.030846 
L 223.50777 -49.962228 
L 223.895655 -49.303833 
L 224.28354 -49.699755 
L 224.671425 -49.220455 
L 225.05931 -49.072653 
L 225.447195 -49.341613 
L 225.83508 -48.8684 
L 226.222965 -48.745502 
L 226.61085 -48.72667 
L 226.998735 -49.056579 
L 227.38662 -49.911038 
L 227.774505 -48.919447 
L 228.16239 -48.065908 
L 228.550275 -48.591131 
L 228.93816 -48.284937 
L 229.326045 -48.382759 
L 229.71393 -48.360914 
L 230.101815 -48.119606 
L 230.4897 -47.953748 
L 230.877585 -48.038455 
L 231.26547 -47.754858 
L 231.653355 -47.701429 
L 232.04124 -48.18297 
L 232.429125 -47.622324 
L 232.81701 -47.337291 
L 233.204895 -47.761864 
L 233.59278 -46.827804 
L 233.980665 -47.091693 
L 234.36855 -47.322492 
L 234.756435 -46.493497 
L 235.14432 -46.852366 
L 235.532205 -46.841152 
L 235.92009 -46.598111 
L 236.307975 -46.376598 
L 236.69586 -46.208868 
L 237.083745 -45.87515 
L 237.47163 -46.163095 
L 237.859515 -45.758967 
L 238.2474 -45.971677 
L 238.635285 -45.630549 
L 239.02317 -45.232194 
L 239.411055 -45.20804 
L 239.79894 -45.084497 
L 240.186825 -44.945662 
L 240.57471 -44.962745 
L 240.962595 -44.749289 
L 241.35048 -44.784907 
L 241.738365 -44.749468 
L 242.12625 -44.777897 
L 242.12625 -44.777897 
L 242.12625 -44.777897 
L 241.738365 -44.895992 
L 241.35048 -44.865272 
L 240.962595 -45.339779 
L 240.57471 -45.338688 
L 240.186825 -45.497349 
L 239.79894 -45.712457 
L 239.411055 -45.730491 
L 239.02317 -46.367031 
L 238.635285 -46.072498 
L 238.2474 -46.566675 
L 237.859515 -46.618931 
L 237.47163 -46.658412 
L 237.083745 -47.191758 
L 236.69586 -47.249736 
L 236.307975 -46.775255 
L 235.92009 -47.742991 
L 235.532205 -47.315899 
L 235.14432 -47.738855 
L 234.756435 -48.583805 
L 234.36855 -47.712337 
L 233.980665 -48.216852 
L 233.59278 -48.678949 
L 233.204895 -48.740648 
L 232.81701 -48.778244 
L 232.429125 -48.790523 
L 232.04124 -48.848098 
L 231.653355 -49.853474 
L 231.26547 -48.903389 
L 230.877585 -49.355993 
L 230.4897 -49.516208 
L 230.101815 -49.373947 
L 229.71393 -49.028815 
L 229.326045 -49.898906 
L 228.93816 -50.138306 
L 228.550275 -50.21437 
L 228.16239 -50.13553 
L 227.774505 -50.820463 
L 227.38662 -50.753842 
L 226.998735 -50.494561 
L 226.61085 -50.277038 
L 226.222965 -50.144945 
L 225.83508 -50.819598 
L 225.447195 -50.907974 
L 225.05931 -51.011761 
L 224.671425 -51.524652 
L 224.28354 -52.036392 
L 223.895655 -51.365767 
L 223.50777 -51.467169 
L 223.119884 -51.634512 
L 222.731999 -52.226016 
L 222.344114 -51.476282 
L 221.956229 -52.017229 
L 221.568344 -51.656626 
L 221.180459 -51.634176 
L 220.792574 -51.575001 
L 220.404689 -52.629245 
L 220.016804 -52.014538 
L 219.628919 -52.190319 
L 219.241034 -52.839054 
L 218.853149 -52.02531 
L 218.465264 -52.266307 
L 218.077379 -52.45111 
L 217.689494 -52.209345 
L 217.301609 -51.141069 
L 216.913724 -52.962326 
L 216.525839 -52.789314 
L 216.137954 -51.914243 
L 215.750069 -53.129253 
L 215.362184 -52.677568 
L 214.974299 -52.96001 
L 214.586414 -53.05133 
L 214.198529 -53.702775 
L 213.810644 -54.305546 
L 213.422759 -53.827101 
L 213.034874 -53.746927 
L 212.646989 -54.027937 
L 212.259104 -52.945545 
L 211.871219 -52.629204 
L 211.483334 -53.882012 
L 211.095449 -53.825411 
L 210.707564 -54.76402 
L 210.319679 -54.405455 
L 209.931794 -53.869529 
L 209.543909 -54.937445 
L 209.156024 -53.874994 
L 208.768139 -54.237289 
L 208.380254 -53.381404 
L 207.992369 -54.921187 
L 207.604484 -54.342475 
L 207.216599 -54.242087 
L 206.828714 -54.331977 
L 206.440829 -54.005721 
L 206.052944 -54.248884 
L 205.665059 -55.376441 
L 205.277174 -54.281711 
L 204.889289 -55.344922 
L 204.501404 -53.693107 
L 204.113519 -54.170085 
L 203.725634 -54.71588 
L 203.337749 -54.848138 
L 202.949864 -54.761113 
L 202.561979 -55.329895 
L 202.174094 -54.631845 
L 201.786209 -54.017628 
L 201.398324 -55.022937 
L 201.010439 -54.816539 
L 200.622554 -54.217151 
L 200.234669 -54.974811 
L 199.846784 -54.620888 
L 199.458899 -56.251961 
L 199.071014 -55.835207 
L 198.683129 -55.353731 
L 198.295244 -56.326456 
L 197.907359 -56.528817 
L 197.519474 -55.928841 
L 197.131589 -55.912079 
L 196.743704 -56.591491 
L 196.355819 -56.227633 
L 195.967934 -55.386389 
L 195.580049 -55.982129 
L 195.192164 -56.320985 
L 194.804279 -56.723926 
L 194.416394 -56.428286 
L 194.028509 -57.045271 
L 193.640624 -56.752743 
L 193.252739 -56.42549 
L 192.864854 -56.820178 
L 192.476969 -56.398245 
L 192.089084 -57.484383 
L 191.701199 -57.854151 
L 191.313314 -57.010854 
L 190.925429 -56.275337 
L 190.537544 -55.98516 
L 190.149659 -56.76217 
L 189.761774 -56.062798 
L 189.373889 -57.289468 
L 188.986004 -57.064958 
L 188.598119 -55.631699 
L 188.210234 -57.707201 
L 187.822349 -56.637689 
L 187.434464 -56.813416 
L 187.046579 -57.499974 
L 186.658694 -57.36794 
L 186.270809 -56.671872 
L 185.882924 -57.112185 
L 185.495039 -57.542317 
L 185.107153 -57.233368 
L 184.719268 -57.233126 
L 184.331383 -58.01261 
L 183.943498 -58.22119 
L 183.555613 -58.370924 
L 183.167728 -56.933577 
L 182.779843 -57.769136 
L 182.391958 -58.48629 
L 182.004073 -58.343114 
L 181.616188 -56.702935 
L 181.228303 -57.073859 
L 180.840418 -57.287807 
L 180.452533 -58.257555 
L 180.064648 -57.962491 
L 179.676763 -56.83955 
L 179.288878 -57.800425 
L 178.900993 -56.530628 
L 178.513108 -57.039162 
L 178.125223 -58.228394 
L 177.737338 -58.191778 
L 177.349453 -58.029394 
L 176.961568 -58.477022 
L 176.573683 -58.684865 
L 176.185798 -58.379518 
L 175.797913 -58.099488 
L 175.410028 -58.234756 
L 175.022143 -57.363537 
L 174.634258 -57.066455 
L 174.246373 -57.594019 
L 173.858488 -57.065147 
L 173.470603 -57.9405 
L 173.082718 -58.458554 
L 172.694833 -58.488885 
L 172.306948 -58.744437 
L 171.919063 -58.093795 
L 171.531178 -58.318729 
L 171.143293 -58.353859 
L 170.755408 -57.63 
L 170.367523 -59.217004 
L 169.979638 -59.611402 
L 169.591753 -59.128599 
L 169.203868 -57.739945 
L 168.815983 -59.315892 
L 168.428098 -59.063666 
L 168.040213 -58.471884 
L 167.652328 -58.482344 
L 167.264443 -58.050501 
L 166.876558 -57.617017 
L 166.488673 -58.145693 
L 166.100788 -57.684122 
L 165.712903 -58.811097 
L 165.325018 -59.326942 
L 164.937133 -57.713333 
L 164.549248 -59.513754 
L 164.161363 -58.261972 
L 163.773478 -58.331639 
L 163.385593 -59.253566 
L 162.997708 -59.092737 
L 162.609823 -57.770899 
L 162.221938 -59.831948 
L 161.834053 -59.67334 
L 161.446168 -58.267454 
L 161.058283 -59.324096 
L 160.670398 -58.654457 
L 160.282513 -58.845684 
L 159.894628 -58.53687 
L 159.506743 -59.360211 
L 159.118858 -59.812107 
L 158.730973 -59.484712 
L 158.343088 -59.102615 
L 157.955203 -59.666971 
L 157.567318 -59.285049 
L 157.179433 -58.189527 
L 156.791548 -59.053197 
L 156.403663 -59.116667 
L 156.015778 -59.072387 
L 155.627893 -59.642484 
L 155.240008 -59.566186 
L 154.852123 -60.295004 
L 154.464238 -59.380156 
L 154.076353 -58.286073 
L 153.688468 -59.249837 
L 153.300583 -60.006155 
L 152.912698 -59.192701 
L 152.524813 -58.53364 
L 152.136928 -59.896712 
L 151.749043 -59.658952 
L 151.361158 -59.093734 
L 150.973273 -59.926525 
L 150.585388 -59.120995 
L 150.197503 -59.195257 
L 149.809618 -59.956606 
L 149.421733 -59.745723 
L 149.033848 -59.447891 
L 148.645963 -59.186135 
L 148.258078 -58.686525 
L 147.870193 -59.218308 
L 147.482307 -60.647977 
L 147.094422 -58.893883 
L 146.706537 -59.744877 
L 146.318652 -59.624098 
L 145.930767 -58.605056 
L 145.542882 -59.287506 
L 145.154997 -59.536014 
L 144.767112 -60.203536 
L 144.379227 -58.950805 
L 143.991342 -59.842448 
L 143.603457 -59.071001 
L 143.215572 -59.43808 
L 142.827687 -59.76623 
L 142.439802 -59.1094 
L 142.051917 -59.167734 
L 141.664032 -59.203736 
L 141.276147 -59.571758 
L 140.888262 -60.994028 
L 140.500377 -59.247228 
L 140.112492 -60.180092 
L 139.724607 -60.957574 
L 139.336722 -58.639297 
L 138.948837 -59.498327 
L 138.560952 -60.166705 
L 138.173067 -58.820144 
L 137.785182 -59.208245 
L 137.397297 -60.159571 
L 137.009412 -60.273316 
L 136.621527 -59.754153 
L 136.233642 -60.39957 
L 135.845757 -59.738834 
L 135.457872 -60.436074 
L 135.069987 -59.902189 
L 134.682102 -59.389685 
L 134.294217 -60.087951 
L 133.906332 -59.814522 
L 133.518447 -59.147721 
L 133.130562 -60.01797 
L 132.742677 -60.074224 
L 132.354792 -59.392518 
L 131.966907 -60.616259 
L 131.579022 -60.455262 
L 131.191137 -60.58046 
L 130.803252 -59.72669 
L 130.415367 -59.854921 
L 130.027482 -60.592527 
L 129.639597 -60.570818 
L 129.251712 -59.248473 
L 128.863827 -60.215107 
L 128.475942 -60.468791 
L 128.088057 -59.831402 
L 127.700172 -59.86031 
L 127.312287 -59.60856 
L 126.924402 -60.485048 
L 126.536517 -60.214372 
L 126.148632 -60.440787 
L 125.760747 -60.505583 
L 125.372862 -59.702145 
L 124.984977 -60.115156 
L 124.597092 -59.779787 
L 124.209207 -59.986442 
L 123.821322 -59.072766 
L 123.433437 -59.005369 
L 123.045552 -59.727793 
L 122.657667 -59.79801 
L 122.269782 -59.707276 
L 121.881897 -60.039988 
L 121.494012 -59.506912 
L 121.106127 -60.332307 
L 120.718242 -60.417159 
L 120.330357 -60.124811 
L 119.942472 -60.296437 
L 119.554587 -59.174587 
L 119.166702 -60.793431 
L 118.778817 -62.277877 
L 118.390932 -61.770583 
L 118.003047 -59.829856 
L 117.615162 -60.583542 
L 117.227277 -60.410663 
L 116.839392 -60.342391 
L 116.451507 -60.775135 
L 116.063622 -60.692664 
L 115.675737 -60.112722 
L 115.287852 -59.069966 
L 114.899967 -59.499419 
L 114.512082 -60.128801 
L 114.124197 -60.782994 
L 113.736312 -59.642445 
L 113.348427 -60.285334 
L 112.960542 -59.959277 
L 112.572657 -60.344718 
L 112.184772 -59.541725 
L 111.796887 -59.050455 
L 111.409002 -59.501363 
L 111.021117 -60.021569 
L 110.633232 -59.982891 
L 110.245347 -59.542189 
L 109.857461 -59.710072 
L 109.469576 -59.471547 
L 109.081691 -59.72134 
L 108.693806 -59.759376 
L 108.305921 -59.205786 
L 107.918036 -60.292942 
L 107.530151 -59.475263 
L 107.142266 -59.062166 
L 106.754381 -60.15453 
L 106.366496 -59.36058 
L 105.978611 -59.45904 
L 105.590726 -60.757143 
L 105.202841 -58.877014 
L 104.814956 -59.733166 
L 104.427071 -59.729916 
L 104.039186 -59.971613 
L 103.651301 -58.564636 
L 103.263416 -59.216242 
L 102.875531 -59.151129 
L 102.487646 -59.292188 
L 102.099761 -59.864138 
L 101.711876 -59.26038 
L 101.323991 -60.484893 
L 100.936106 -59.502444 
L 100.548221 -59.320598 
L 100.160336 -59.557672 
L 99.772451 -59.355917 
L 99.384566 -59.2821 
L 98.996681 -59.886235 
L 98.608796 -58.62062 
L 98.220911 -58.989734 
L 97.833026 -59.843146 
L 97.445141 -58.145893 
L 97.057256 -58.961055 
L 96.669371 -59.568767 
L 96.281486 -59.532336 
L 95.893601 -59.352403 
L 95.505716 -58.505366 
L 95.117831 -59.444745 
L 94.729946 -58.638954 
L 94.342061 -58.655792 
L 93.954176 -58.309808 
L 93.566291 -59.124445 
L 93.178406 -58.548628 
L 92.790521 -58.851898 
L 92.402636 -59.010405 
L 92.014751 -59.059258 
L 91.626866 -58.210628 
L 91.238981 -58.7977 
L 90.851096 -59.130928 
L 90.463211 -59.354241 
L 90.075326 -59.606269 
L 89.687441 -59.148205 
L 89.299556 -58.783989 
L 88.911671 -59.576025 
L 88.523786 -58.318518 
L 88.135901 -59.078096 
L 87.748016 -58.017552 
L 87.360131 -58.226431 
L 86.972246 -57.271143 
L 86.584361 -58.190158 
L 86.196476 -57.589819 
L 85.808591 -58.345091 
L 85.420706 -57.811949 
L 85.032821 -58.461636 
L 84.644936 -58.097563 
L 84.257051 -58.357778 
L 83.869166 -58.83493 
L 83.481281 -58.993722 
L 83.093396 -58.844506 
L 82.705511 -58.341366 
L 82.317626 -58.760977 
L 81.929741 -59.274384 
L 81.541856 -58.604659 
L 81.153971 -57.818598 
L 80.766086 -57.508131 
L 80.378201 -57.318675 
L 79.990316 -58.380349 
L 79.602431 -57.618685 
L 79.214546 -56.673687 
L 78.826661 -57.961442 
L 78.438776 -58.917188 
L 78.050891 -57.930285 
L 77.663006 -57.64755 
L 77.275121 -56.81011 
L 76.887236 -56.96687 
L 76.499351 -58.092164 
L 76.111466 -57.624404 
L 75.723581 -56.934318 
L 75.335696 -58.047075 
L 74.947811 -58.010143 
L 74.559926 -56.786051 
L 74.172041 -56.934325 
L 73.784156 -57.193541 
L 73.396271 -57.60505 
L 73.008386 -57.308876 
L 72.620501 -57.348992 
L 72.232616 -57.225018 
L 71.84473 -56.74595 
L 71.456845 -57.019204 
L 71.06896 -57.669338 
L 70.681075 -56.601995 
L 70.29319 -55.953126 
L 69.905305 -56.856202 
L 69.51742 -57.146705 
L 69.129535 -57.232742 
L 68.74165 -55.508912 
L 68.353765 -55.957608 
L 67.96588 -56.435834 
L 67.577995 -55.716523 
L 67.19011 -56.335886 
L 66.802225 -56.349983 
L 66.41434 -56.029021 
L 66.026455 -55.913283 
L 65.63857 -56.493683 
L 65.250685 -56.034483 
L 64.8628 -55.420653 
L 64.474915 -56.032589 
L 64.08703 -56.517052 
L 63.699145 -55.085134 
L 63.31126 -55.094482 
L 62.923375 -55.994063 
L 62.53549 -55.757493 
L 62.147605 -55.432793 
L 61.75972 -54.961777 
L 61.371835 -55.220768 
L 60.98395 -54.897045 
L 60.596065 -55.61759 
L 60.20818 -55.157327 
L 59.820295 -55.599749 
L 59.43241 -53.911224 
L 59.044525 -53.98065 
L 58.65664 -54.812599 
L 58.268755 -54.270275 
L 57.88087 -54.653267 
L 57.492985 -53.728946 
L 57.1051 -54.568681 
L 56.717215 -54.42785 
L 56.32933 -53.764799 
L 55.941445 -54.161475 
L 55.55356 -53.79039 
L 55.165675 -53.887287 
L 54.77779 -53.991578 
L 54.389905 -53.991553 
L 54.00202 -54.215302 
L 53.614135 -53.564017 
L 53.22625 -54.393681 
z
"/>
    </defs>
    <g clip-path="url(#p383f21e573)">
     <use xlink:href="#m1bc6fe3d1a" x="0" y="200.793466" style="fill: #1f77b4; fill-opacity: 0.15"/>
    </g>
   </g>
   <g id="matplotlib.axis_1">
    <g id="xtick_1">
     <g id="line2d_1">
      <path d="M 52.838365 163.237216 
L 52.838365 7.2 
" clip-path="url(#p383f21e573)" style="fill: none; stroke: #b0b0b0; stroke-opacity: 0.3; stroke-width: 0.8; stroke-linecap: square"/>
     </g>
     <g id="line2d_2">
      <defs>
       <path id="md52ec2ff24" d="M 0 0 
L 0 3.5 
" style="stroke: #000000; stroke-width: 0.8"/>
      </defs>
      <g>
       <use xlink:href="#md52ec2ff24" x="52.838365" y="163.237216" style="stroke: #000000; stroke-width: 0.8"/>
      </g>
     </g>
     <g id="text_1">
      <text style="font-size: 10px; font-family: 'DejaVu Sans', 'Bitstream Vera Sans', 'Computer Modern Sans Serif', 'Lucida Grande', 'Verdana', 'Geneva', 'Lucid', 'Arial', 'Helvetica', 'Avant Garde', sans-serif; text-anchor: middle" x="52.838365" y="177.835654" transform="rotate(-0 52.838365 177.835654)">0.0</text>
     </g>
    </g>
    <g id="xtick_2">
     <g id="line2d_3">
      <path d="M 90.717761 163.237216 
L 90.717761 7.2 
" clip-path="url(#p383f21e573)" style="fill: none; stroke: #b0b0b0; stroke-opacity: 0.3; stroke-width: 0.8; stroke-linecap: square"/>
     </g>
     <g id="line2d_4">
      <g>
       <use xlink:href="#md52ec2ff24" x="90.717761" y="163.237216" style="stroke: #000000; stroke-width: 0.8"/>
      </g>
     </g>
     <g id="text_2">
      <text style="font-size: 10px; font-family: 'DejaVu Sans', 'Bitstream Vera Sans', 'Computer Modern Sans Serif', 'Lucida Grande', 'Verdana', 'Geneva', 'Lucid', 'Arial', 'Helvetica', 'Avant Garde', sans-serif; text-anchor: middle" x="90.717761" y="177.835654" transform="rotate(-0 90.717761 177.835654)">0.2</text>
     </g>
    </g>
    <g id="xtick_3">
     <g id="line2d_5">
      <path d="M 128.597156 163.237216 
L 128.597156 7.2 
" clip-path="url(#p383f21e573)" style="fill: none; stroke: #b0b0b0; stroke-opacity: 0.3; stroke-width: 0.8; stroke-linecap: square"/>
     </g>
     <g id="line2d_6">
      <g>
       <use xlink:href="#md52ec2ff24" x="128.597156" y="163.237216" style="stroke: #000000; stroke-width: 0.8"/>
      </g>
     </g>
     <g id="text_3">
      <text style="font-size: 10px; font-family: 'DejaVu Sans', 'Bitstream Vera Sans', 'Computer Modern Sans Serif', 'Lucida Grande', 'Verdana', 'Geneva', 'Lucid', 'Arial', 'Helvetica', 'Avant Garde', sans-serif; text-anchor: middle" x="128.597156" y="177.835654" transform="rotate(-0 128.597156 177.835654)">0.4</text>
     </g>
    </g>
    <g id="xtick_4">
     <g id="line2d_7">
      <path d="M 166.476552 163.237216 
L 166.476552 7.2 
" clip-path="url(#p383f21e573)" style="fill: none; stroke: #b0b0b0; stroke-opacity: 0.3; stroke-width: 0.8; stroke-linecap: square"/>
     </g>
     <g id="line2d_8">
      <g>
       <use xlink:href="#md52ec2ff24" x="166.476552" y="163.237216" style="stroke: #000000; stroke-width: 0.8"/>
      </g>
     </g>
     <g id="text_4">
      <text style="font-size: 10px; font-family: 'DejaVu Sans', 'Bitstream Vera Sans', 'Computer Modern Sans Serif', 'Lucida Grande', 'Verdana', 'Geneva', 'Lucid', 'Arial', 'Helvetica', 'Avant Garde', sans-serif; text-anchor: middle" x="166.476552" y="177.835654" transform="rotate(-0 166.476552 177.835654)">0.6</text>
     </g>
    </g>
    <g id="xtick_5">
     <g id="line2d_9">
      <path d="M 204.355947 163.237216 
L 204.355947 7.2 
" clip-path="url(#p383f21e573)" style="fill: none; stroke: #b0b0b0; stroke-opacity: 0.3; stroke-width: 0.8; stroke-linecap: square"/>
     </g>
     <g id="line2d_10">
      <g>
       <use xlink:href="#md52ec2ff24" x="204.355947" y="163.237216" style="stroke: #000000; stroke-width: 0.8"/>
      </g>
     </g>
     <g id="text_5">
      <text style="font-size: 10px; font-family: 'DejaVu Sans', 'Bitstream Vera Sans', 'Computer Modern Sans Serif', 'Lucida Grande', 'Verdana', 'Geneva', 'Lucid', 'Arial', 'Helvetica', 'Avant Garde', sans-serif; text-anchor: middle" x="204.355947" y="177.835654" transform="rotate(-0 204.355947 177.835654)">0.8</text>
     </g>
    </g>
    <g id="xtick_6">
     <g id="line2d_11">
      <path d="M 242.235343 163.237216 
L 242.235343 7.2 
" clip-path="url(#p383f21e573)" style="fill: none; stroke: #b0b0b0; stroke-opacity: 0.3; stroke-width: 0.8; stroke-linecap: square"/>
     </g>
     <g id="line2d_12">
      <g>
       <use xlink:href="#md52ec2ff24" x="242.235343" y="163.237216" style="stroke: #000000; stroke-width: 0.8"/>
      </g>
     </g>
     <g id="text_6">
      <text style="font-size: 10px; font-family: 'DejaVu Sans', 'Bitstream Vera Sans', 'Computer Modern Sans Serif', 'Lucida Grande', 'Verdana', 'Geneva', 'Lucid', 'Arial', 'Helvetica', 'Avant Garde', sans-serif; text-anchor: middle" x="242.235343" y="177.835654" transform="rotate(-0 242.235343 177.835654)">1.0</text>
     </g>
    </g>
    <g id="text_7">
     <text style="font-size: 10px; font-family: 'DejaVu Sans', 'Bitstream Vera Sans', 'Computer Modern Sans Serif', 'Lucida Grande', 'Verdana', 'Geneva', 'Lucid', 'Arial', 'Helvetica', 'Avant Garde', sans-serif; text-anchor: middle" x="147.67625" y="191.513779" transform="rotate(-0 147.67625 191.513779)">environment step</text>
    </g>
    <g id="text_8">
     <text style="font-size: 10px; font-family: 'DejaVu Sans', 'Bitstream Vera Sans', 'Computer Modern Sans Serif', 'Lucida Grande', 'Verdana', 'Geneva', 'Lucid', 'Arial', 'Helvetica', 'Avant Garde', sans-serif; text-anchor: end" x="251.57125" y="190.513779" transform="rotate(-0 251.57125 190.513779)">1e6</text>
    </g>
   </g>
   <g id="matplotlib.axis_2">
    <g id="ytick_1">
     <g id="line2d_13">
      <path d="M 43.78125 156.015569 
L 251.57125 156.015569 
" clip-path="url(#p383f21e573)" style="fill: none; stroke: #b0b0b0; stroke-opacity: 0.3; stroke-width: 0.8; stroke-linecap: square"/>
     </g>
     <g id="line2d_14">
      <defs>
       <path id="meb23fb85bc" d="M 0 0 
L -3.5 0 
" style="stroke: #000000; stroke-width: 0.8"/>
      </defs>
      <g>
       <use xlink:href="#meb23fb85bc" x="43.78125" y="156.015569" style="stroke: #000000; stroke-width: 0.8"/>
      </g>
     </g>
     <g id="text_9">
      <text style="font-size: 10px; font-family: 'DejaVu Sans', 'Bitstream Vera Sans', 'Computer Modern Sans Serif', 'Lucida Grande', 'Verdana', 'Geneva', 'Lucid', 'Arial', 'Helvetica', 'Avant Garde', sans-serif; text-anchor: end" x="36.78125" y="159.814788" transform="rotate(-0 36.78125 159.814788)">0.0</text>
     </g>
    </g>
    <g id="ytick_2">
     <g id="line2d_15">
      <path d="M 43.78125 131.853071 
L 251.57125 131.853071 
" clip-path="url(#p383f21e573)" style="fill: none; stroke: #b0b0b0; stroke-opacity: 0.3; stroke-width: 0.8; stroke-linecap: square"/>
     </g>
     <g id="line2d_16">
      <g>
       <use xlink:href="#meb23fb85bc" x="43.78125" y="131.853071" style="stroke: #000000; stroke-width: 0.8"/>
      </g>
     </g>
     <g id="text_10">
      <text style="font-size: 10px; font-family: 'DejaVu Sans', 'Bitstream Vera Sans', 'Computer Modern Sans Serif', 'Lucida Grande', 'Verdana', 'Geneva', 'Lucid', 'Arial', 'Helvetica', 'Avant Garde', sans-serif; text-anchor: end" x="36.78125" y="135.652289" transform="rotate(-0 36.78125 135.652289)">0.1</text>
     </g>
    </g>
    <g id="ytick_3">
     <g id="line2d_17">
      <path d="M 43.78125 107.690572 
L 251.57125 107.690572 
" clip-path="url(#p383f21e573)" style="fill: none; stroke: #b0b0b0; stroke-opacity: 0.3; stroke-width: 0.8; stroke-linecap: square"/>
     </g>
     <g id="line2d_18">
      <g>
       <use xlink:href="#meb23fb85bc" x="43.78125" y="107.690572" style="stroke: #000000; stroke-width: 0.8"/>
      </g>
     </g>
     <g id="text_11">
      <text style="font-size: 10px; font-family: 'DejaVu Sans', 'Bitstream Vera Sans', 'Computer Modern Sans Serif', 'Lucida Grande', 'Verdana', 'Geneva', 'Lucid', 'Arial', 'Helvetica', 'Avant Garde', sans-serif; text-anchor: end" x="36.78125" y="111.489791" transform="rotate(-0 36.78125 111.489791)">0.2</text>
     </g>
    </g>
    <g id="ytick_4">
     <g id="line2d_19">
      <path d="M 43.78125 83.528074 
L 251.57125 83.528074 
" clip-path="url(#p383f21e573)" style="fill: none; stroke: #b0b0b0; stroke-opacity: 0.3; stroke-width: 0.8; stroke-linecap: square"/>
     </g>
     <g id="line2d_20">
      <g>
       <use xlink:href="#meb23fb85bc" x="43.78125" y="83.528074" style="stroke: #000000; stroke-width: 0.8"/>
      </g>
     </g>
     <g id="text_12">
      <text style="font-size: 10px; font-family: 'DejaVu Sans', 'Bitstream Vera Sans', 'Computer Modern Sans Serif', 'Lucida Grande', 'Verdana', 'Geneva', 'Lucid', 'Arial', 'Helvetica', 'Avant Garde', sans-serif; text-anchor: end" x="36.78125" y="87.327293" transform="rotate(-0 36.78125 87.327293)">0.3</text>
     </g>
    </g>
    <g id="ytick_5">
     <g id="line2d_21">
      <path d="M 43.78125 59.365576 
L 251.57125 59.365576 
" clip-path="url(#p383f21e573)" style="fill: none; stroke: #b0b0b0; stroke-opacity: 0.3; stroke-width: 0.8; stroke-linecap: square"/>
     </g>
     <g id="line2d_22">
      <g>
       <use xlink:href="#meb23fb85bc" x="43.78125" y="59.365576" style="stroke: #000000; stroke-width: 0.8"/>
      </g>
     </g>
     <g id="text_13">
      <text style="font-size: 10px; font-family: 'DejaVu Sans', 'Bitstream Vera Sans', 'Computer Modern Sans Serif', 'Lucida Grande', 'Verdana', 'Geneva', 'Lucid', 'Arial', 'Helvetica', 'Avant Garde', sans-serif; text-anchor: end" x="36.78125" y="63.164795" transform="rotate(-0 36.78125 63.164795)">0.4</text>
     </g>
    </g>
    <g id="ytick_6">
     <g id="line2d_23">
      <path d="M 43.78125 35.203078 
L 251.57125 35.203078 
" clip-path="url(#p383f21e573)" style="fill: none; stroke: #b0b0b0; stroke-opacity: 0.3; stroke-width: 0.8; stroke-linecap: square"/>
     </g>
     <g id="line2d_24">
      <g>
       <use xlink:href="#meb23fb85bc" x="43.78125" y="35.203078" style="stroke: #000000; stroke-width: 0.8"/>
      </g>
     </g>
     <g id="text_14">
      <text style="font-size: 10px; font-family: 'DejaVu Sans', 'Bitstream Vera Sans', 'Computer Modern Sans Serif', 'Lucida Grande', 'Verdana', 'Geneva', 'Lucid', 'Arial', 'Helvetica', 'Avant Garde', sans-serif; text-anchor: end" x="36.78125" y="39.002296" transform="rotate(-0 36.78125 39.002296)">0.5</text>
     </g>
    </g>
    <g id="ytick_7">
     <g id="line2d_25">
      <path d="M 43.78125 11.040579 
L 251.57125 11.040579 
" clip-path="url(#p383f21e573)" style="fill: none; stroke: #b0b0b0; stroke-opacity: 0.3; stroke-width: 0.8; stroke-linecap: square"/>
     </g>
     <g id="line2d_26">
      <g>
       <use xlink:href="#meb23fb85bc" x="43.78125" y="11.040579" style="stroke: #000000; stroke-width: 0.8"/>
      </g>
     </g>
     <g id="text_15">
      <text style="font-size: 10px; font-family: 'DejaVu Sans', 'Bitstream Vera Sans', 'Computer Modern Sans Serif', 'Lucida Grande', 'Verdana', 'Geneva', 'Lucid', 'Arial', 'Helvetica', 'Avant Garde', sans-serif; text-anchor: end" x="36.78125" y="14.839798" transform="rotate(-0 36.78125 14.839798)">0.6</text>
     </g>
    </g>
    <g id="text_16">
     <text style="font-size: 10px; font-family: 'DejaVu Sans', 'Bitstream Vera Sans', 'Computer Modern Sans Serif', 'Lucida Grande', 'Verdana', 'Geneva', 'Lucid', 'Arial', 'Helvetica', 'Avant Garde', sans-serif; text-anchor: middle" x="14.798438" y="85.218608" transform="rotate(-90 14.798438 85.218608)">batch fraction</text>
    </g>
   </g>
   <g id="line2d_27">
    <path d="M 53.22625 93.488026 
L 53.614135 84.797549 
L 54.00202 79.125025 
L 54.77779 64.474151 
L 55.165675 63.195237 
L 55.941445 59.148491 
L 56.717215 53.719008 
L 57.492985 49.783163 
L 57.88087 49.065839 
L 58.268755 49.18382 
L 59.044525 45.297528 
L 59.43241 45.866196 
L 59.820295 44.249857 
L 60.20818 44.360759 
L 60.596065 46.425425 
L 60.98395 44.613238 
L 61.371835 44.096481 
L 61.75972 44.620317 
L 62.147605 44.245137 
L 62.53549 42.36924 
L 62.923375 39.759502 
L 63.31126 42.024736 
L 63.699145 39.52354 
L 64.08703 40.349407 
L 64.474915 40.69863 
L 64.8628 38.990266 
L 65.250685 39.688713 
L 66.026455 37.999226 
L 66.41434 38.475869 
L 66.802225 39.950631 
L 67.19011 38.638683 
L 67.577995 35.99591 
L 67.96588 37.468312 
L 68.353765 35.212516 
L 68.74165 36.043102 
L 69.129535 35.080377 
L 69.51742 36.220073 
L 69.905305 36.137487 
L 70.29319 35.160604 
L 70.681075 33.876972 
L 71.06896 34.176643 
L 71.456845 34.636769 
L 71.84473 32.89773 
L 72.232616 33.08414 
L 72.620501 32.491875 
L 73.008386 32.744355 
L 73.396271 35.627809 
L 74.172041 31.03835 
L 74.559926 33.685843 
L 74.947811 32.716039 
L 75.335696 31.373416 
L 75.723581 30.755196 
L 76.111466 31.064306 
L 76.499351 32.680645 
L 77.275121 29.646175 
L 77.663006 29.945846 
L 78.050891 30.646653 
L 78.438776 30.592382 
L 78.826661 30.151133 
L 79.602431 28.185571 
L 79.990316 30.833063 
L 80.378201 28.954807 
L 80.766086 30.523953 
L 81.153971 27.782076 
L 81.541856 28.275236 
L 82.317626 28.596144 
L 82.705511 27.019919 
L 83.093396 27.652297 
L 83.481281 28.848624 
L 83.869166 28.49704 
L 84.644936 27.513079 
L 85.032821 27.102506 
L 85.420706 27.173294 
L 85.808591 27.111944 
L 86.196476 23.683418 
L 86.584361 27.904776 
L 86.972246 25.472009 
L 87.360131 25.821233 
L 87.748016 24.551758 
L 88.135901 27.751401 
L 88.523786 25.337511 
L 88.911671 25.582911 
L 89.299556 24.386584 
L 89.687441 24.315796 
L 90.075326 27.333748 
L 90.463211 24.648502 
L 90.851096 25.844829 
L 91.626866 24.731089 
L 92.014751 24.337032 
L 92.402636 24.695694 
L 92.790521 24.16478 
L 93.178406 24.023203 
L 93.566291 23.088794 
L 93.954176 23.348352 
L 94.342061 22.468214 
L 94.729946 24.681537 
L 95.117831 24.362988 
L 95.505716 23.076996 
L 95.893601 23.673979 
L 96.281486 25.717409 
L 96.669371 22.501249 
L 97.057256 23.898143 
L 97.445141 22.048202 
L 97.833026 24.068036 
L 98.220911 21.538524 
L 98.608796 22.647545 
L 98.996681 24.823114 
L 99.384566 23.154863 
L 99.772451 24.497486 
L 100.160336 23.876906 
L 100.548221 23.527683 
L 100.936106 23.697575 
L 101.323991 25.46257 
L 101.711876 22.68058 
L 102.099761 24.674458 
L 102.487646 22.796201 
L 103.263416 23.67162 
L 103.651301 24.237928 
L 104.039186 20.273768 
L 104.427071 24.204894 
L 104.814956 22.791482 
L 105.202841 23.957134 
L 105.590726 21.68718 
L 105.978611 23.008567 
L 106.366496 22.286523 
L 106.754381 21.984492 
L 107.142266 22.687659 
L 107.530151 22.810359 
L 107.918036 24.303998 
L 108.693806 18.53237 
L 109.081691 20.979294 
L 109.469576 20.844796 
L 109.857461 21.257729 
L 110.245347 22.001009 
L 110.633232 22.1827 
L 111.021117 21.62583 
L 111.409002 21.274247 
L 111.796887 21.361553 
L 112.184772 20.700859 
L 112.572657 21.031206 
L 112.960542 22.699457 
L 113.348427 19.308684 
L 114.124197 21.460657 
L 114.512082 20.486134 
L 114.899967 21.774486 
L 115.287852 22.038763 
L 115.675737 23.060478 
L 116.063622 20.306803 
L 116.451507 21.234133 
L 116.839392 23.275204 
L 117.227277 20.672544 
L 117.615162 20.627711 
L 118.003047 20.226576 
L 118.390932 23.270484 
L 118.778817 23.907582 
L 119.554587 19.988254 
L 119.942472 21.547963 
L 120.330357 23.673979 
L 120.718242 20.875471 
L 121.106127 20.849515 
L 121.494012 21.887748 
L 121.881897 20.32804 
L 122.269782 20.309163 
L 122.657667 19.476217 
L 123.045552 19.190703 
L 123.433437 19.318123 
L 123.821322 17.748976 
L 124.209207 20.535686 
L 124.597092 22.128429 
L 124.984977 22.92362 
L 125.372862 20.618273 
L 125.760747 20.26197 
L 126.148632 20.271409 
L 126.536517 20.051964 
L 126.924402 22.048202 
L 127.312287 19.787687 
L 127.700172 20.059043 
L 128.088057 21.769767 
L 128.475942 21.031206 
L 128.863827 19.341719 
L 129.251712 19.006653 
L 129.639597 21.972694 
L 130.027482 22.137867 
L 130.415367 24.150622 
L 130.803252 21.212897 
L 131.191137 22.734851 
L 131.579022 19.945781 
L 131.966907 20.45074 
L 132.354792 21.571559 
L 132.742677 21.064241 
L 133.130562 21.588076 
L 133.518447 18.987776 
L 133.906332 21.488972 
L 134.294217 20.110955 
L 134.682102 19.818362 
L 135.457872 21.642347 
L 135.845757 20.382311 
L 136.233642 21.264808 
L 136.621527 18.640912 
L 137.009412 20.764569 
L 137.397297 20.613553 
L 138.173067 20.059043 
L 138.560952 20.530967 
L 138.948837 20.108595 
L 139.336722 18.579562 
L 139.724607 24.070395 
L 140.112492 19.820721 
L 140.500377 19.591838 
L 140.888262 22.069438 
L 141.276147 19.983535 
L 141.664032 20.745692 
L 142.051917 20.417705 
L 142.439802 20.361074 
L 142.827687 21.050083 
L 143.215572 20.889629 
L 143.603457 20.193541 
L 143.991342 19.240255 
L 144.379227 20.155787 
L 145.154997 20.689061 
L 145.542882 22.699457 
L 145.930767 22.362031 
L 146.318652 22.602712 
L 146.706537 21.757969 
L 147.094422 21.271887 
L 147.482307 22.980251 
L 147.870193 22.227533 
L 148.258078 20.292645 
L 148.645963 21.472455 
L 149.033848 21.946738 
L 149.421733 23.650383 
L 150.197503 23.062838 
L 150.585388 21.267168 
L 150.973273 24.891543 
L 151.361158 21.703697 
L 151.749043 23.386106 
L 152.136928 21.241212 
L 152.524813 22.454056 
L 152.912698 22.173262 
L 153.300583 21.418184 
L 153.688468 23.239809 
L 154.076353 20.844796 
L 154.464238 21.13031 
L 154.852123 24.28748 
L 155.240008 24.995366 
L 155.627893 23.084075 
L 156.015778 22.992049 
L 156.403663 22.279444 
L 156.791548 22.550801 
L 157.179433 24.091632 
L 157.567318 22.319558 
L 157.955203 24.757044 
L 158.730973 21.972694 
L 159.118858 22.258208 
L 159.506743 24.294559 
L 159.894628 22.80328 
L 160.282513 23.131267 
L 160.670398 21.942019 
L 161.058283 24.051518 
L 161.446168 22.892945 
L 161.834053 26.375743 
L 162.221938 25.613586 
L 162.609823 23.020365 
L 162.997708 24.877385 
L 163.385593 24.594231 
L 163.773478 23.447456 
L 164.161363 25.266722 
L 164.549248 24.667379 
L 164.937133 23.076996 
L 165.325018 26.163377 
L 165.712903 24.035001 
L 166.100788 23.013286 
L 166.488673 25.070874 
L 166.876558 24.457373 
L 167.264443 23.211494 
L 167.652328 24.886823 
L 168.040213 27.241723 
L 168.428098 25.004804 
L 168.815983 25.552236 
L 169.203868 25.167618 
L 169.591753 25.917977 
L 169.979638 26.368664 
L 171.143293 23.829714 
L 171.531178 25.075593 
L 172.306948 24.627265 
L 172.694833 26.342708 
L 173.082718 27.310152 
L 173.858488 26.196412 
L 174.246373 28.298832 
L 174.634258 28.407375 
L 175.022143 26.918455 
L 175.410028 27.067111 
L 175.797913 28.367261 
L 176.185798 27.616903 
L 176.961568 28.893456 
L 177.349453 28.93593 
L 177.737338 28.674012 
L 178.125223 25.7764 
L 178.513108 27.607464 
L 178.900993 26.883061 
L 179.288878 29.270995 
L 179.676763 29.384257 
L 180.064648 28.228044 
L 180.452533 30.863738 
L 180.840418 30.641934 
L 181.228303 31.956242 
L 181.616188 30.092143 
L 182.391958 31.208243 
L 183.167728 29.643815 
L 183.555613 34.157766 
L 183.943498 30.960483 
L 184.331383 33.046386 
L 184.719268 31.500835 
L 185.107153 31.84298 
L 185.495039 31.800507 
L 185.882924 34.81846 
L 186.270809 34.058662 
L 186.658694 32.126134 
L 187.046579 32.994474 
L 187.822349 32.3385 
L 188.210234 34.370132 
L 188.598119 32.102538 
L 188.986004 33.416846 
L 189.373889 33.187963 
L 189.761774 33.220998 
L 190.149659 37.248867 
L 190.537544 33.806183 
L 190.925429 37.642924 
L 191.313314 37.638204 
L 191.701199 35.00487 
L 192.089084 38.235188 
L 192.476969 35.752869 
L 192.864854 37.494268 
L 193.252739 37.060098 
L 193.640624 37.60045 
L 194.028509 39.530619 
L 194.416394 38.855768 
L 194.804279 36.295581 
L 195.580049 39.52118 
L 195.967934 39.245105 
L 196.355819 40.219627 
L 196.743704 39.495224 
L 197.131589 41.026617 
L 197.519474 40.106366 
L 197.907359 42.107323 
L 198.295244 40.644359 
L 198.683129 40.509861 
L 199.071014 43.600961 
L 199.458899 40.507501 
L 199.846784 43.270615 
L 200.234669 41.123362 
L 200.622554 41.644837 
L 201.010439 42.454187 
L 201.398324 42.831726 
L 201.786209 42.482502 
L 202.174094 44.674588 
L 202.561979 44.285251 
L 202.949864 46.390031 
L 203.337749 43.756696 
L 203.725634 47.88603 
L 204.501404 46.012492 
L 204.889289 48.537284 
L 205.277174 46.857236 
L 205.665059 49.190899 
L 206.052944 47.916705 
L 206.828714 50.811957 
L 207.216599 46.70386 
L 207.604484 50.330595 
L 207.992369 51.84547 
L 208.380254 51.715691 
L 208.768139 50.217333 
L 209.156024 50.73173 
L 209.543909 54.75724 
L 209.931794 55.304672 
L 210.319679 54.45049 
L 210.707564 56.078627 
L 211.095449 56.007838 
L 211.483334 58.258915 
L 211.871219 53.291917 
L 212.259104 57.489679 
L 212.646989 56.024355 
L 213.034874 60.231556 
L 213.422759 58.372176 
L 213.810644 60.243354 
L 214.198529 58.735558 
L 214.586414 57.728 
L 214.974299 61.177763 
L 215.362184 60.937082 
L 215.750069 62.489711 
L 216.525839 61.666204 
L 216.913724 64.714832 
L 217.301609 65.830932 
L 217.689494 64.792699 
L 218.077379 65.278781 
L 218.465264 66.720508 
L 218.853149 66.406679 
L 219.241034 69.519016 
L 219.628919 70.356681 
L 220.016804 72.15943 
L 220.404689 67.853125 
L 220.792574 70.703545 
L 221.568344 73.159908 
L 221.956229 72.475619 
L 222.344114 74.828159 
L 222.731999 79.353908 
L 223.119884 74.670064 
L 223.50777 79.825832 
L 223.895655 79.054237 
L 224.28354 81.258121 
L 224.671425 81.800833 
L 225.05931 83.348743 
L 225.447195 83.341664 
L 225.83508 81.394979 
L 226.222965 86.298267 
L 226.61085 89.542743 
L 226.998735 89.663083 
L 227.38662 86.980197 
L 227.774505 91.904721 
L 228.16239 91.317176 
L 228.550275 92.808456 
L 228.93816 92.168999 
L 229.326045 94.483785 
L 229.71393 98.270973 
L 230.101815 97.589044 
L 230.4897 98.683907 
L 230.877585 100.760371 
L 231.26547 101.347917 
L 231.653355 106.182776 
L 232.04124 105.234209 
L 232.429125 109.693889 
L 232.81701 108.049234 
L 233.204895 110.12098 
L 233.59278 113.469279 
L 233.980665 113.65333 
L 234.36855 116.970954 
L 234.756435 117.280064 
L 235.532205 122.353245 
L 235.92009 122.966746 
L 236.307975 126.822363 
L 236.69586 129.097036 
L 237.083745 130.510447 
L 237.47163 132.450054 
L 237.859515 135.170695 
L 238.635285 139.389694 
L 239.411055 144.48883 
L 239.79894 145.635605 
L 240.57471 150.68283 
L 240.962595 152.185907 
L 241.35048 154.687103 
L 241.738365 155.461058 
L 242.12625 155.984894 
L 242.12625 155.984894 
" clip-path="url(#p383f21e573)" style="fill: none; stroke: #c0392b; stroke-width: 1.5; stroke-linecap: square"/>
   </g>
   <g id="line2d_28">
    <path d="M 53.22625 146.730468 
L 53.614135 148.066013 
L 54.00202 147.700272 
L 54.389905 147.65072 
L 54.77779 147.785218 
L 55.165675 147.719149 
L 55.55356 147.792297 
L 55.941445 147.053736 
L 56.32933 147.863085 
L 57.1051 146.874405 
L 57.492985 147.504423 
L 57.88087 146.789459 
L 58.268755 147.21655 
L 58.65664 146.730468 
L 59.044525 147.244865 
L 59.43241 147.435994 
L 59.820295 146.204273 
L 60.20818 146.522822 
L 60.596065 145.772463 
L 60.98395 146.404841 
L 61.371835 145.939996 
L 61.75972 146.197194 
L 62.147605 146.260904 
L 62.53549 145.85505 
L 62.923375 146.121687 
L 63.699145 146.303377 
L 64.08703 145.484589 
L 64.474915 145.385485 
L 64.8628 145.7937 
L 65.250685 145.9164 
L 65.63857 145.071656 
L 66.026455 145.180199 
L 66.41434 145.640324 
L 66.802225 145.239189 
L 67.19011 145.038621 
L 67.577995 145.640324 
L 67.96588 144.981991 
L 68.74165 145.645044 
L 69.129535 144.774344 
L 69.51742 144.477032 
L 69.905305 144.656363 
L 70.29319 145.10705 
L 71.06896 144.330736 
L 71.456845 144.49119 
L 71.84473 144.512426 
L 72.232616 144.805019 
L 72.620501 144.359051 
L 73.008386 144.606811 
L 73.396271 143.924881 
L 73.784156 144.387367 
L 74.172041 144.49355 
L 74.559926 144.269386 
L 74.947811 143.606333 
L 75.723581 144.149045 
L 76.111466 144.05938 
L 76.499351 143.74555 
L 77.275121 144.604452 
L 77.663006 143.854093 
L 78.050891 143.62049 
L 78.438776 143.212276 
L 78.826661 143.351494 
L 79.214546 144.439278 
L 79.602431 143.712516 
L 79.990316 143.608692 
L 80.378201 144.257588 
L 80.766086 143.81162 
L 81.153971 143.99567 
L 81.929741 142.811141 
L 82.705511 143.780945 
L 83.093396 143.519027 
L 83.481281 142.907886 
L 83.869166 143.403406 
L 84.257051 143.688919 
L 84.644936 143.43644 
L 85.032821 142.964516 
L 85.420706 143.476554 
L 85.808591 143.294863 
L 86.196476 143.967354 
L 86.584361 143.332617 
L 86.972246 144.344894 
L 87.360131 143.495431 
L 87.748016 143.408125 
L 88.135901 142.947999 
L 88.523786 143.327898 
L 88.911671 142.148088 
L 89.299556 142.688441 
L 89.687441 142.891368 
L 90.075326 142.636529 
L 90.463211 142.877211 
L 90.851096 143.259469 
L 91.238981 142.825299 
L 91.626866 143.287784 
L 92.402636 142.188202 
L 92.790521 142.966876 
L 93.566291 142.662485 
L 93.954176 143.158005 
L 94.342061 143.150926 
L 94.729946 142.771028 
L 95.117831 142.004151 
L 95.505716 143.195759 
L 95.893601 142.100896 
L 96.281486 142.4454 
L 96.669371 142.308542 
L 97.057256 142.598775 
L 97.445141 143.172163 
L 97.833026 142.117413 
L 98.220911 142.629451 
L 98.608796 142.752151 
L 98.996681 142.150448 
L 99.384566 142.50675 
L 99.772451 142.38641 
L 100.160336 142.027748 
L 100.548221 142.688441 
L 100.936106 142.735633 
L 101.323991 141.435483 
L 101.711876 142.01595 
L 102.099761 141.529868 
L 102.487646 142.535066 
L 102.875531 142.306183 
L 103.263416 142.256631 
L 103.651301 142.872491 
L 104.039186 142.2 
L 104.427071 141.895609 
L 104.814956 141.869653 
L 105.202841 142.327419 
L 105.590726 141.430764 
L 105.978611 142.046625 
L 106.366496 142.041905 
L 106.754381 141.553464 
L 107.142266 142.487873 
L 107.530151 141.595937 
L 107.918036 141.553464 
L 108.305921 142.242473 
L 108.693806 142.424164 
L 109.469576 141.975836 
L 109.857461 142.216517 
L 110.245347 142.159886 
L 110.633232 141.45908 
L 111.021117 142.218877 
L 111.409002 142.551583 
L 112.572657 141.562903 
L 112.960542 141.692682 
L 113.348427 142.464277 
L 113.736312 141.886171 
L 114.124197 140.951761 
L 114.512082 141.867294 
L 114.899967 141.947521 
L 115.287852 142.308542 
L 115.675737 141.633691 
L 116.451507 141.175925 
L 116.839392 141.614814 
L 117.227277 141.659647 
L 117.615162 141.503912 
L 118.003047 142.117413 
L 118.390932 140.89749 
L 118.778817 140.432645 
L 119.554587 142.001792 
L 119.942472 141.619534 
L 120.330357 141.544026 
L 120.718242 141.838978 
L 121.106127 140.937604 
L 121.494012 142.202359 
L 121.881897 141.600657 
L 122.269782 141.928644 
L 122.657667 141.680884 
L 123.045552 142.13629 
L 123.433437 142.341577 
L 123.821322 142.844176 
L 124.597092 141.749313 
L 124.984977 142.027748 
L 125.760747 141.749313 
L 126.148632 141.303345 
L 126.924402 141.862574 
L 127.312287 142.025388 
L 127.700172 141.907407 
L 128.088057 141.612455 
L 128.475942 141.102777 
L 128.863827 141.595937 
L 129.251712 142.874851 
L 129.639597 141.52043 
L 130.027482 141.359976 
L 130.803252 142.067861 
L 131.191137 141.440203 
L 131.579022 141.428404 
L 131.966907 141.607736 
L 132.354792 141.954599 
L 132.742677 141.461439 
L 133.130562 141.291547 
L 133.518447 142.440681 
L 133.906332 141.82718 
L 134.294217 141.973476 
L 134.682102 142.395848 
L 135.069987 142.041905 
L 135.457872 142.115054 
L 135.845757 142.405287 
L 136.233642 141.909767 
L 136.621527 142.343937 
L 137.009412 141.848417 
L 137.397297 141.572341 
L 137.785182 142.485514 
L 138.173067 142.494952 
L 138.560952 142.056063 
L 138.948837 142.457198 
L 139.336722 142.402927 
L 139.724607 140.791307 
L 140.112492 141.867294 
L 140.500377 142.582258 
L 140.888262 141.58178 
L 141.276147 142.553943 
L 141.664032 142.742712 
L 142.439802 142.601135 
L 142.827687 142.299104 
L 143.215572 142.192921 
L 143.603457 142.284946 
L 143.991342 142.202359 
L 144.379227 142.740353 
L 144.767112 141.916846 
L 145.154997 142.610574 
L 145.542882 142.487873 
L 145.930767 142.990472 
L 146.706537 142.023028 
L 147.094422 142.310902 
L 147.482307 141.409528 
L 147.870193 142.537425 
L 148.645963 142.563381 
L 149.033848 141.987634 
L 149.421733 141.997073 
L 150.197503 142.327419 
L 150.585388 142.893728 
L 150.973273 141.975836 
L 151.361158 142.676643 
L 151.749043 141.933363 
L 152.136928 142.202359 
L 152.524813 143.082497 
L 152.912698 142.57282 
L 153.688468 142.667204 
L 154.076353 143.035305 
L 154.464238 142.513829 
L 154.852123 141.711559 
L 155.240008 142.50675 
L 155.627893 142.648327 
L 156.015778 142.365173 
L 156.403663 142.992832 
L 157.179433 143.042384 
L 157.567318 142.351015 
L 157.955203 142.426523 
L 158.343088 142.638889 
L 158.730973 142.69552 
L 159.506743 142.32034 
L 159.894628 143.365652 
L 160.282513 142.214158 
L 160.670398 143.06834 
L 161.058283 142.520908 
L 161.446168 143.639367 
L 161.834053 142.174044 
L 162.221938 142.169325 
L 162.609823 143.511948 
L 162.997708 143.596894 
L 163.385593 142.650687 
L 163.773478 143.509588 
L 164.161363 143.379809 
L 164.549248 142.973955 
L 164.937133 143.639367 
L 165.325018 142.88193 
L 165.712903 142.94092 
L 166.100788 143.780945 
L 166.488673 143.788023 
L 166.876558 143.594535 
L 167.264443 143.259469 
L 168.428098 142.855974 
L 168.815983 142.476075 
L 169.203868 143.816339 
L 169.979638 142.837097 
L 170.367523 142.763949 
L 170.755408 144.101853 
L 171.143293 143.917802 
L 171.919063 143.410484 
L 172.694833 143.226434 
L 173.082718 143.337336 
L 173.470603 143.608692 
L 173.858488 144.255228 
L 174.246373 143.615771 
L 175.022143 144.720073 
L 175.410028 143.084857 
L 176.573683 143.707796 
L 176.961568 143.43644 
L 177.349453 143.665323 
L 177.737338 143.719594 
L 178.125223 143.634648 
L 178.513108 144.283543 
L 178.900993 145.180199 
L 179.288878 144.295342 
L 179.676763 144.472313 
L 180.064648 144.101853 
L 180.452533 143.898926 
L 181.228303 144.387367 
L 181.616188 144.913562 
L 182.004073 143.408125 
L 182.779843 144.61389 
L 183.167728 144.878167 
L 183.555613 143.441159 
L 183.943498 144.184439 
L 184.331383 144.252868 
L 184.719268 144.448717 
L 185.107153 144.484111 
L 185.495039 144.250509 
L 185.882924 144.507707 
L 186.270809 145.177839 
L 186.658694 144.36377 
L 187.046579 144.106572 
L 187.434464 144.469953 
L 187.822349 145.038621 
L 188.210234 144.672881 
L 188.598119 145.881005 
L 188.986004 144.767265 
L 189.373889 144.750748 
L 189.761774 144.939517 
L 190.149659 144.812098 
L 190.537544 145.399643 
L 191.313314 144.628048 
L 191.701199 144.691757 
L 192.089084 144.11601 
L 192.476969 145.220312 
L 192.864854 145.10705 
L 193.252739 145.35481 
L 193.640624 145.909321 
L 194.028509 144.830975 
L 194.416394 145.262785 
L 194.804279 145.052779 
L 195.580049 145.637965 
L 195.967934 146.433156 
L 196.355819 145.680438 
L 196.743704 145.538861 
L 197.131589 145.819655 
L 197.519474 145.859769 
L 197.907359 145.571895 
L 198.683129 146.194835 
L 199.458899 145.982469 
L 199.846784 146.629005 
L 200.234669 146.53462 
L 200.622554 147.034859 
L 201.010439 146.525181 
L 201.398324 146.685636 
L 201.786209 147.39824 
L 202.174094 147.169357 
L 202.561979 146.355289 
L 203.337749 147.190594 
L 203.725634 146.59833 
L 204.501404 147.520941 
L 204.889289 146.671478 
L 205.277174 147.329812 
L 205.665059 146.59833 
L 206.052944 147.240146 
L 206.440829 147.58937 
L 206.828714 147.405319 
L 207.604484 147.58701 
L 207.992369 146.990026 
L 208.380254 148.025899 
L 208.768139 147.520941 
L 209.156024 147.52566 
L 209.543909 146.919238 
L 209.931794 147.745104 
L 210.319679 147.787578 
L 210.707564 147.657799 
L 211.095449 147.969268 
L 211.483334 148.096688 
L 212.259104 148.688952 
L 212.646989 148.200511 
L 213.034874 148.032978 
L 213.422759 147.735666 
L 213.810644 147.929155 
L 214.198529 148.292536 
L 214.586414 148.8848 
L 214.974299 148.57569 
L 215.362184 148.858845 
L 215.750069 148.561533 
L 216.137954 149.226945 
L 216.525839 148.861204 
L 216.913724 148.688952 
L 217.301609 149.94191 
L 217.689494 149.330768 
L 218.077379 149.330768 
L 218.465264 149.153797 
L 218.853149 149.340207 
L 219.241034 149.250541 
L 219.628919 149.436951 
L 220.016804 149.335488 
L 220.404689 149.007501 
L 220.792574 149.769658 
L 221.180459 149.788534 
L 221.568344 150.100004 
L 221.956229 149.578528 
L 222.344114 149.977304 
L 222.731999 149.512459 
L 223.119884 149.960787 
L 223.50777 150.078768 
L 223.895655 150.458666 
L 224.28354 149.925392 
L 225.05931 150.751259 
L 225.447195 150.668672 
L 226.222965 151.348243 
L 226.61085 151.291612 
L 226.998735 151.017896 
L 227.38662 150.461026 
L 227.774505 150.923511 
L 228.16239 151.692747 
L 228.550275 151.390716 
L 229.326045 151.652633 
L 229.71393 152.098601 
L 230.4897 152.058488 
L 230.877585 152.096242 
L 231.26547 152.464342 
L 231.653355 152.016015 
L 232.81701 152.735699 
L 233.204895 152.54221 
L 233.59278 153.040089 
L 235.14432 153.497856 
L 235.532205 153.71494 
L 235.92009 153.622915 
L 236.307975 154.217539 
L 236.69586 154.064164 
L 237.859515 154.604517 
L 238.2474 154.52429 
L 238.635285 154.941942 
L 239.02317 154.993854 
L 239.411055 155.324201 
L 240.57471 155.642749 
L 242.12625 156.015569 
L 242.12625 156.015569 
" clip-path="url(#p383f21e573)" style="fill: none; stroke: #1f77b4; stroke-width: 1.5; stroke-linecap: square"/>
   </g>
   <g id="patch_3">
    <path d="M 43.78125 163.237216 
L 43.78125 7.2 
" style="fill: none; stroke: #000000; stroke-width: 0.8; stroke-linejoin: miter; stroke-linecap: square"/>
   </g>
   <g id="patch_4">
    <path d="M 251.57125 163.237216 
L 251.57125 7.2 
" style="fill: none; stroke: #000000; stroke-width: 0.8; stroke-linejoin: miter; stroke-linecap: square"/>
   </g>
   <g id="patch_5">
    <path d="M 43.78125 163.237216 
L 251.57125 163.237216 
" style="fill: none; stroke: #000000; stroke-width: 0.8; stroke-linejoin: miter; stroke-linecap: square"/>
   </g>
   <g id="patch_6">
    <path d="M 43.78125 7.2 
L 251.57125 7.2 
" style="fill: none; stroke: #000000; stroke-width: 0.8; stroke-linejoin: miter; stroke-linecap: square"/>
   </g>
   <g id="legend_1">
    <g id="patch_7">
     <path d="M 209.09845 33.833334 
L 246.71325 33.833334 
Q 248.10125 33.833334 248.10125 32.445334 
L 248.10125 12.058 
Q 248.10125 10.67 246.71325 10.67 
L 209.09845 10.67 
Q 207.71045 10.67 207.71045 12.058 
L 207.71045 32.445334 
Q 207.71045 33.833334 209.09845 33.833334 
z
" style="fill: #ffffff; opacity: 0.8; stroke: #cccccc; stroke-linejoin: miter"/>
    </g>
    <g id="line2d_29">
     <path d="M 210.48645 16.290316 
L 217.42645 16.290316 
L 224.36645 16.290316 
" style="fill: none; stroke: #c0392b; stroke-width: 1.5; stroke-linecap: square"/>
    </g>
    <g id="text_17">
     <!-- $\mathcal{I}_{\mathrm{kill}}$ -->
     <g transform="translate(229.91845 18.719316)">
      <text>
       <tspan x="0" y="-0.40625" style="font-style: italic; font-size: 6.94px; font-family: 'STIXNonUnicode'"></tspan>
       <tspan x="4.055505" y="0.732812" style="font-size: 4.858px; font-family: 'DejaVu Sans'">k</tspan>
       <tspan x="6.867767" y="0.732812" style="font-size: 4.858px; font-family: 'DejaVu Sans'">i</tspan>
       <tspan x="8.216989" y="0.732812" style="font-size: 4.858px; font-family: 'DejaVu Sans'">l</tspan>
       <tspan x="9.56621" y="0.732812" style="font-size: 4.858px; font-family: 'DejaVu Sans'">l</tspan>
      </text>
     </g>
    </g>
    <g id="line2d_30">
     <path d="M 210.48645 26.476934 
L 217.42645 26.476934 
L 224.36645 26.476934 
" style="fill: none; stroke: #1f77b4; stroke-width: 1.5; stroke-linecap: square"/>
    </g>
    <g id="text_18">
     <!-- $\mathcal{I}_{\mathrm{pass}}$ -->
     <g transform="translate(229.91845 28.905934)">
      <text>
       <tspan x="0" y="-0.40625" style="font-style: italic; font-size: 6.94px; font-family: 'STIXNonUnicode'"></tspan>
       <tspan x="4.055505" y="0.732812" style="font-size: 4.858px; font-family: 'DejaVu Sans'">p</tspan>
       <tspan x="7.138085" y="0.732812" style="font-size: 4.858px; font-family: 'DejaVu Sans'">a</tspan>
       <tspan x="10.113961" y="0.732812" style="font-size: 4.858px; font-family: 'DejaVu Sans'">s</tspan>
       <tspan x="12.644048" y="0.732812" style="font-size: 4.858px; font-family: 'DejaVu Sans'">s</tspan>
      </text>
     </g>
    </g>
   </g>
  </g>
 </g>
 <defs>
  <clipPath id="p383f21e573">
   <rect x="43.78125" y="7.2" width="207.79" height="156.037216"/>
  </clipPath>
 </defs>
</svg>
