<?xml version="1.0" encoding="utf-8" standalone="no"?>
<!DOCTYPE svg PUBLIC "-//W3C//DTD SVG 1.1//EN"
  "http://www.w3.org/Graphics/SVG/1.1/DTD/svg11.dtd">
<svg xmlns:xlink="http://www.w3.org/1999/xlink" width="258.71625pt" height="200.79625pt" viewBox="0 0 258.71625 200.79625" xmlns="http://www.w3.org/2000/svg" version="1.1">
 <metadata>
  <rdf:RDF xmlns:dc="http://purl.org/dc/elements/1.1/" xmlns:cc="http://creativecommons.org/ns#" xmlns:rdf="http://www.w3.org/1999/02/22-rdf-syntax-ns#">
   <cc:Work>
    <dc:type rdf:resource="http://purl.org/dc/dcmitype/StillImage"/>
    <dc:format>image/svg+xml</dc:format>
    <dc:creator>
     <cc:Agent>
      <dc:title>Matplotlib v3.10.9, https://matplotlib.org/</dc:title>
     </cc:Agent>
    </dc:creator>
   </cc:Work>
  </rdf:RDF>
 </metadata>
 <defs>
  <style type="text/css">*{stroke-linejoin: round; stroke-linecap: butt}</style>
 </defs>
 <g id="figure_1">
  <g id="patch_1">
   <path d="M 0 200.79625 
L 258.71625 200.79625 
L 258.71625 0 
L 0 0 
z
" style="fill: #ffffff"/>
  </g>
  <g id="axes_1">
   <g id="patch_2">
    <path d="M 56.50625 163.24 
L 251.51625 163.24 
L 251.51625 7.2 
L 56.50625 7.2 
z
" style="fill: #ffffff"/>
   </g>
   <g id="FillBetweenPolyCollection_1">
    <defs>
     <path id="mbe44ab695f" d="M 65.370341 -146.206363 
L 65.370341 -131.240115 
L 65.734369 -150.521669 
L 66.098398 -165.313453 
L 66.462426 -157.318238 
L 66.826454 -125.389252 
L 67.190483 -121.119834 
L 67.554511 -122.740316 
L 67.91854 -111.022384 
L 68.282568 -114.218457 
L 68.646596 -112.029324 
L 69.010625 -110.809441 
L 69.374653 -115.561116 
L 69.738681 -104.185674 
L 70.10271 -118.408878 
L 70.466738 -122.56169 
L 70.830767 -125.463805 
L 71.194795 -110.052761 
L 71.558823 -113.89029 
L 71.922852 -113.86168 
L 72.28688 -107.626937 
L 72.650908 -113.741864 
L 73.014937 -118.699385 
L 73.378965 -109.903566 
L 73.742994 -115.326661 
L 74.107022 -116.124238 
L 74.47105 -118.361286 
L 74.835079 -122.22409 
L 75.199107 -112.657239 
L 75.563135 -119.799922 
L 75.927164 -119.454556 
L 76.291192 -115.972112 
L 76.655221 -114.335544 
L 77.019249 -123.593585 
L 77.383277 -104.205041 
L 77.747306 -116.384762 
L 78.111334 -119.778381 
L 78.475362 -122.882974 
L 78.839391 -111.242767 
L 79.203419 -118.035818 
L 79.567447 -110.763064 
L 79.931476 -116.915503 
L 80.295504 -116.407924 
L 80.659533 -118.66128 
L 81.023561 -109.40478 
L 81.387589 -121.378012 
L 81.751618 -120.967406 
L 82.115646 -133.608315 
L 82.479674 -127.124105 
L 82.843703 -114.474541 
L 83.207731 -118.523519 
L 83.57176 -121.103954 
L 83.935788 -124.459665 
L 84.299816 -126.262139 
L 84.663845 -130.936851 
L 85.027873 -126.290916 
L 85.391901 -129.047521 
L 85.75593 -116.473569 
L 86.119958 -125.292512 
L 86.483987 -122.340427 
L 86.848015 -129.296833 
L 87.212043 -134.704319 
L 87.576072 -132.462739 
L 87.9401 -121.017009 
L 88.304128 -129.430371 
L 88.668157 -127.369397 
L 89.032185 -129.4164 
L 89.396214 -135.862041 
L 89.760242 -123.702289 
L 90.12427 -132.242962 
L 90.488299 -127.648332 
L 90.852327 -136.679312 
L 91.216355 -132.641036 
L 91.580384 -142.057963 
L 91.944412 -132.19009 
L 92.308441 -128.658807 
L 92.672469 -133.794953 
L 93.036497 -129.581023 
L 93.400526 -142.562792 
L 93.764554 -138.618824 
L 94.128582 -136.139212 
L 94.492611 -130.004053 
L 94.856639 -146.704941 
L 95.220668 -128.637209 
L 95.584696 -142.61483 
L 95.948724 -124.598036 
L 96.312753 -129.796331 
L 96.676781 -144.555183 
L 97.040809 -140.692459 
L 97.404838 -145.445247 
L 97.768866 -146.407445 
L 98.132895 -138.958451 
L 98.496923 -148.446544 
L 98.860951 -137.528047 
L 99.22498 -140.854472 
L 99.589008 -138.429863 
L 99.953036 -144.4994 
L 100.317065 -136.812293 
L 100.681093 -137.67041 
L 101.045122 -137.566571 
L 101.40915 -140.32875 
L 101.773178 -142.194202 
L 102.137207 -143.067142 
L 102.501235 -139.310708 
L 102.865263 -137.709052 
L 103.229292 -146.975115 
L 103.59332 -144.721366 
L 103.957349 -136.812642 
L 104.321377 -143.21285 
L 104.685405 -131.689813 
L 105.049434 -134.97314 
L 105.413462 -142.376723 
L 105.77749 -141.14172 
L 106.141519 -135.742549 
L 106.505547 -137.938094 
L 106.869576 -142.701946 
L 107.233604 -141.356884 
L 107.597632 -145.45908 
L 107.961661 -138.881469 
L 108.325689 -145.373278 
L 108.689717 -144.068699 
L 109.053746 -145.723066 
L 109.417774 -143.377234 
L 109.781803 -143.722755 
L 110.145831 -139.461543 
L 110.509859 -148.211499 
L 110.873888 -143.463817 
L 111.237916 -144.654026 
L 111.601944 -145.265318 
L 111.965973 -133.935111 
L 112.330001 -140.704202 
L 112.69403 -146.695243 
L 113.058058 -144.714983 
L 113.422086 -145.203063 
L 113.786115 -143.284632 
L 114.150143 -150.272315 
L 114.514171 -140.633463 
L 114.8782 -145.118647 
L 115.242228 -137.421728 
L 115.606257 -145.430725 
L 115.970285 -151.575402 
L 116.334313 -146.087428 
L 116.698342 -139.428014 
L 117.06237 -152.53382 
L 117.426398 -149.513118 
L 117.790427 -151.224933 
L 118.154455 -140.575991 
L 118.518484 -143.934488 
L 118.882512 -152.682071 
L 119.24654 -146.794314 
L 119.610569 -151.650547 
L 119.974597 -145.101567 
L 120.338625 -150.532717 
L 120.702654 -149.605969 
L 121.066682 -152.649753 
L 121.430711 -145.049127 
L 121.794739 -146.786993 
L 122.158767 -155.010434 
L 122.522796 -147.267865 
L 122.886824 -153.300499 
L 123.250852 -140.574472 
L 123.614881 -142.723865 
L 123.978909 -143.475402 
L 124.342938 -143.017004 
L 124.706966 -140.203068 
L 125.070994 -140.89612 
L 125.435023 -150.858867 
L 125.799051 -134.577697 
L 126.163079 -145.222517 
L 126.527108 -142.169896 
L 126.891136 -148.261098 
L 127.255165 -147.599093 
L 127.619193 -143.91338 
L 127.983221 -141.446162 
L 128.34725 -137.279219 
L 128.711278 -142.639551 
L 129.075306 -155.005249 
L 129.439335 -138.794183 
L 129.803363 -150.040599 
L 130.167391 -146.723382 
L 130.53142 -145.124208 
L 130.895448 -151.445243 
L 131.259477 -150.314395 
L 131.623505 -151.477655 
L 131.987533 -145.956737 
L 132.351562 -145.771783 
L 132.71559 -145.435961 
L 133.079618 -158.093261 
L 133.443647 -144.55323 
L 133.807675 -154.165421 
L 134.171704 -150.952327 
L 134.535732 -151.44804 
L 134.89976 -145.117518 
L 135.263789 -146.499697 
L 135.627817 -145.826759 
L 135.991845 -148.113341 
L 136.355874 -151.230451 
L 136.719902 -140.583365 
L 137.083931 -147.06306 
L 137.447959 -139.067713 
L 137.811987 -145.090082 
L 138.176016 -150.258129 
L 138.540044 -155.998908 
L 138.904072 -146.739316 
L 139.268101 -158.959967 
L 139.632129 -146.914949 
L 139.996158 -162.729754 
L 140.360186 -145.9058 
L 140.724214 -148.445424 
L 141.088243 -140.465248 
L 141.452271 -152.448975 
L 141.816299 -156.858344 
L 142.180328 -141.64455 
L 142.544356 -151.378509 
L 142.908385 -140.255787 
L 143.272413 -143.404321 
L 143.636441 -146.006696 
L 144.00047 -143.217373 
L 144.364498 -152.808588 
L 144.728526 -154.089651 
L 145.092555 -150.355671 
L 145.456583 -154.353559 
L 145.820612 -133.010662 
L 146.18464 -144.031384 
L 146.548668 -149.412823 
L 146.912697 -139.265992 
L 147.276725 -140.384964 
L 147.640753 -143.574843 
L 148.004782 -141.976598 
L 148.36881 -149.833456 
L 148.732839 -151.044586 
L 149.096867 -152.075704 
L 149.460895 -142.004577 
L 149.824924 -142.569963 
L 150.188952 -141.309341 
L 150.55298 -152.374509 
L 150.917009 -140.305841 
L 151.281037 -141.146194 
L 151.645066 -140.3857 
L 152.009094 -148.559144 
L 152.373122 -153.862811 
L 152.737151 -141.513382 
L 153.101179 -141.573871 
L 153.465207 -147.258518 
L 153.829236 -162.782956 
L 154.193264 -141.12788 
L 154.557293 -151.050659 
L 154.921321 -145.856523 
L 155.285349 -148.671473 
L 155.649378 -145.740009 
L 156.013406 -138.351184 
L 156.377434 -150.414002 
L 156.741463 -150.428357 
L 157.105491 -147.885669 
L 157.46952 -145.690291 
L 157.833548 -148.119866 
L 158.197576 -148.744302 
L 158.561605 -135.977311 
L 158.925633 -149.195176 
L 159.289661 -147.737065 
L 159.65369 -138.266535 
L 160.017718 -144.547502 
L 160.381747 -141.111174 
L 160.745775 -144.285217 
L 161.109803 -148.383164 
L 161.473832 -140.80036 
L 161.83786 -147.045898 
L 162.201888 -145.375149 
L 162.565917 -143.798068 
L 162.929945 -145.135182 
L 163.293974 -145.766398 
L 163.658002 -142.345239 
L 164.02203 -128.233651 
L 164.386059 -139.114705 
L 164.750087 -139.998201 
L 165.114115 -142.196308 
L 165.478144 -135.476455 
L 165.842172 -140.948657 
L 166.206201 -135.941788 
L 166.570229 -135.42396 
L 166.934257 -142.977589 
L 167.298286 -146.908039 
L 167.662314 -142.727228 
L 168.026342 -137.118304 
L 168.390371 -144.04756 
L 168.754399 -138.209451 
L 169.118428 -140.289627 
L 169.482456 -140.441468 
L 169.846484 -138.180945 
L 170.210513 -145.468506 
L 170.574541 -140.888715 
L 170.938569 -141.345841 
L 171.302598 -139.2138 
L 171.666626 -144.587199 
L 172.030655 -148.632983 
L 172.394683 -136.497487 
L 172.758711 -136.987418 
L 173.12274 -136.471875 
L 173.486768 -137.330425 
L 173.850796 -137.601013 
L 174.214825 -139.710782 
L 174.578853 -139.003852 
L 174.942882 -143.635623 
L 175.30691 -132.372659 
L 175.670938 -129.232776 
L 176.034967 -136.864163 
L 176.398995 -140.774598 
L 176.763023 -138.507035 
L 177.127052 -144.710703 
L 177.49108 -136.552365 
L 177.855109 -135.85007 
L 178.219137 -138.950568 
L 178.583165 -129.375609 
L 178.947194 -135.323983 
L 179.311222 -136.307117 
L 179.67525 -137.610686 
L 180.039279 -135.433743 
L 180.403307 -134.077261 
L 180.767335 -127.374516 
L 181.131364 -138.149368 
L 181.495392 -133.847765 
L 181.859421 -131.170402 
L 182.223449 -129.853508 
L 182.587477 -128.094086 
L 182.951506 -138.286867 
L 183.315534 -131.44515 
L 183.679562 -137.565579 
L 184.043591 -137.355575 
L 184.407619 -133.800332 
L 184.771648 -128.128597 
L 185.135676 -131.028666 
L 185.499704 -127.705103 
L 185.863733 -134.476115 
L 186.227761 -133.454521 
L 186.591789 -130.131579 
L 186.955818 -118.615245 
L 187.319846 -135.027581 
L 187.683875 -138.303796 
L 188.047903 -132.876025 
L 188.411931 -132.975506 
L 188.77596 -138.59259 
L 189.139988 -129.660788 
L 189.504016 -138.724329 
L 189.868045 -137.674186 
L 190.232073 -131.458918 
L 190.596102 -131.53902 
L 190.96013 -122.593714 
L 191.324158 -126.237532 
L 191.688187 -128.038005 
L 192.052215 -129.460303 
L 192.416243 -127.970026 
L 192.780272 -132.248541 
L 193.1443 -121.03205 
L 193.508329 -122.014864 
L 193.872357 -124.165622 
L 194.236385 -118.320722 
L 194.600414 -127.070494 
L 194.964442 -122.827384 
L 195.32847 -126.520677 
L 195.692499 -122.919189 
L 196.056527 -118.380411 
L 196.420556 -125.5428 
L 196.784584 -123.838749 
L 197.148612 -118.495177 
L 197.512641 -121.165211 
L 197.876669 -118.053594 
L 198.240697 -124.178935 
L 198.604726 -124.461414 
L 198.968754 -118.169874 
L 199.332783 -125.935224 
L 199.696811 -118.221323 
L 200.060839 -114.649471 
L 200.424868 -115.877217 
L 200.788896 -122.675942 
L 201.152924 -120.599534 
L 201.516953 -116.464568 
L 201.880981 -117.753657 
L 202.24501 -118.54161 
L 202.609038 -110.126134 
L 202.973066 -113.056932 
L 203.337095 -120.775906 
L 203.701123 -119.331969 
L 204.065151 -107.618645 
L 204.42918 -119.206224 
L 204.793208 -109.247066 
L 205.157237 -117.50068 
L 205.521265 -120.838914 
L 205.885293 -118.806833 
L 206.249322 -112.98582 
L 206.61335 -125.49185 
L 206.977378 -117.40271 
L 207.341407 -115.325577 
L 207.705435 -106.761251 
L 208.069464 -110.126542 
L 208.433492 -110.324207 
L 208.79752 -107.032218 
L 209.161549 -117.851358 
L 209.525577 -113.123852 
L 209.889605 -106.301289 
L 210.253634 -108.740791 
L 210.617662 -102.996165 
L 210.981691 -103.25808 
L 211.345719 -106.198636 
L 211.709747 -111.131514 
L 212.073776 -104.73585 
L 212.437804 -104.30136 
L 212.801832 -106.517178 
L 213.165861 -99.564352 
L 213.529889 -106.921263 
L 213.893918 -105.664952 
L 214.257946 -105.007143 
L 214.621974 -103.176632 
L 214.986003 -102.968606 
L 215.350031 -110.356497 
L 215.714059 -102.521692 
L 216.078088 -98.097654 
L 216.442116 -107.11915 
L 216.806145 -97.675831 
L 217.170173 -97.354817 
L 217.534201 -96.81352 
L 217.89823 -94.515802 
L 218.262258 -100.391737 
L 218.626286 -102.132173 
L 218.990315 -98.879013 
L 219.354343 -90.419587 
L 219.718372 -100.056606 
L 220.0824 -98.431191 
L 220.446428 -90.901051 
L 220.810457 -97.080928 
L 221.174485 -94.413657 
L 221.538513 -97.383242 
L 221.902542 -95.302656 
L 222.26657 -98.164061 
L 222.630599 -86.381846 
L 222.994627 -87.000029 
L 223.358655 -90.59094 
L 223.722684 -89.153349 
L 224.086712 -94.178601 
L 224.45074 -95.791121 
L 224.814769 -94.389608 
L 225.178797 -88.35138 
L 225.542826 -87.333596 
L 225.906854 -90.23276 
L 226.270882 -82.429152 
L 226.634911 -84.195374 
L 226.998939 -78.97626 
L 227.362967 -82.597112 
L 227.726996 -89.102496 
L 228.091024 -82.562127 
L 228.455053 -85.319438 
L 228.819081 -86.509937 
L 229.183109 -72.169841 
L 229.547138 -76.203793 
L 229.911166 -77.523643 
L 230.275194 -85.421192 
L 230.639223 -78.892734 
L 231.003251 -78.664356 
L 231.367279 -72.517435 
L 231.731308 -76.902734 
L 232.095336 -72.107469 
L 232.459365 -68.807303 
L 232.823393 -67.247599 
L 233.187421 -74.41003 
L 233.55145 -73.176317 
L 233.915478 -73.88553 
L 234.279506 -66.447591 
L 234.643535 -66.873705 
L 235.007563 -69.308745 
L 235.371592 -63.876228 
L 235.73562 -62.108887 
L 236.099648 -61.306925 
L 236.463677 -56.006773 
L 236.827705 -61.916514 
L 237.191733 -60.262469 
L 237.555762 -58.673384 
L 237.91979 -55.816023 
L 238.283819 -53.234993 
L 238.647847 -52.765887 
L 239.011875 -55.194103 
L 239.375904 -52.258628 
L 239.739932 -53.100868 
L 240.10396 -47.351017 
L 240.467989 -45.362749 
L 240.832017 -45.475355 
L 241.196046 -45.373507 
L 241.560074 -44.648977 
L 241.924102 -44.934173 
L 242.288131 -45.148286 
L 242.652159 -45.148286 
L 242.652159 -45.148286 
L 242.652159 -45.148286 
L 242.288131 -45.148286 
L 241.924102 -46.095037 
L 241.560074 -47.611688 
L 241.196046 -46.279224 
L 240.832017 -47.860884 
L 240.467989 -53.11754 
L 240.10396 -51.191625 
L 239.739932 -63.118601 
L 239.375904 -57.47622 
L 239.011875 -65.623836 
L 238.647847 -57.498954 
L 238.283819 -67.30236 
L 237.91979 -63.14694 
L 237.555762 -69.985334 
L 237.191733 -63.938072 
L 236.827705 -72.883888 
L 236.463677 -67.492307 
L 236.099648 -71.981438 
L 235.73562 -71.709469 
L 235.371592 -80.557578 
L 235.007563 -79.926174 
L 234.643535 -76.250706 
L 234.279506 -77.097697 
L 233.915478 -84.094275 
L 233.55145 -77.305645 
L 233.187421 -81.231571 
L 232.823393 -85.073751 
L 232.459365 -79.632627 
L 232.095336 -86.807619 
L 231.731308 -83.430864 
L 231.367279 -85.961188 
L 231.003251 -89.385318 
L 230.639223 -95.532444 
L 230.275194 -97.062999 
L 229.911166 -84.742871 
L 229.547138 -93.233216 
L 229.183109 -94.211913 
L 228.819081 -101.46124 
L 228.455053 -98.318267 
L 228.091024 -97.786503 
L 227.726996 -93.272578 
L 227.362967 -98.936209 
L 226.998939 -86.563741 
L 226.634911 -106.519297 
L 226.270882 -104.388511 
L 225.906854 -100.466323 
L 225.542826 -92.89033 
L 225.178797 -99.245685 
L 224.814769 -104.009962 
L 224.45074 -104.182841 
L 224.086712 -108.227093 
L 223.722684 -111.007669 
L 223.358655 -104.223384 
L 222.994627 -108.905457 
L 222.630599 -97.957321 
L 222.26657 -113.703569 
L 221.902542 -115.255579 
L 221.538513 -110.150915 
L 221.174485 -105.404424 
L 220.810457 -113.976125 
L 220.446428 -112.471102 
L 220.0824 -109.820016 
L 219.718372 -112.294253 
L 219.354343 -106.608236 
L 218.990315 -111.850691 
L 218.626286 -125.604073 
L 218.262258 -112.92558 
L 217.89823 -112.691006 
L 217.534201 -114.617645 
L 217.170173 -114.091936 
L 216.806145 -119.273497 
L 216.442116 -116.345975 
L 216.078088 -110.901778 
L 215.714059 -117.373774 
L 215.350031 -124.441127 
L 214.986003 -117.95567 
L 214.621974 -124.512849 
L 214.257946 -113.719221 
L 213.893918 -118.189874 
L 213.529889 -122.514079 
L 213.165861 -127.657488 
L 212.801832 -122.575226 
L 212.437804 -122.639896 
L 212.073776 -129.282372 
L 211.709747 -132.84746 
L 211.345719 -126.993421 
L 210.981691 -121.703497 
L 210.617662 -124.35038 
L 210.253634 -128.14563 
L 209.889605 -127.654582 
L 209.525577 -130.184837 
L 209.161549 -125.239098 
L 208.79752 -128.653924 
L 208.433492 -127.559847 
L 208.069464 -126.214297 
L 207.705435 -127.896081 
L 207.341407 -126.658129 
L 206.977378 -129.631518 
L 206.61335 -133.482811 
L 206.249322 -130.447574 
L 205.885293 -139.856067 
L 205.521265 -131.370541 
L 205.157237 -135.737585 
L 204.793208 -131.801359 
L 204.42918 -130.228561 
L 204.065151 -133.102431 
L 203.701123 -132.92425 
L 203.337095 -139.087272 
L 202.973066 -134.66317 
L 202.609038 -135.583112 
L 202.24501 -128.648499 
L 201.880981 -142.43687 
L 201.516953 -131.972583 
L 201.152924 -129.069072 
L 200.788896 -138.356339 
L 200.424868 -134.25903 
L 200.060839 -130.716838 
L 199.696811 -137.323971 
L 199.332783 -135.424405 
L 198.968754 -134.772218 
L 198.604726 -145.315753 
L 198.240697 -147.718204 
L 197.876669 -143.103391 
L 197.512641 -140.771175 
L 197.148612 -137.486582 
L 196.784584 -141.682885 
L 196.420556 -141.724693 
L 196.056527 -140.391605 
L 195.692499 -143.27273 
L 195.32847 -130.162543 
L 194.964442 -141.353679 
L 194.600414 -140.680229 
L 194.236385 -144.628886 
L 193.872357 -134.918155 
L 193.508329 -141.043861 
L 193.1443 -138.410251 
L 192.780272 -142.00239 
L 192.416243 -144.301225 
L 192.052215 -145.928555 
L 191.688187 -142.674444 
L 191.324158 -143.321402 
L 190.96013 -149.490481 
L 190.596102 -144.676004 
L 190.232073 -143.477887 
L 189.868045 -151.120379 
L 189.504016 -148.199672 
L 189.139988 -146.975113 
L 188.77596 -142.860012 
L 188.411931 -142.647173 
L 188.047903 -142.512833 
L 187.683875 -145.502598 
L 187.319846 -143.712703 
L 186.955818 -146.485512 
L 186.591789 -151.757488 
L 186.227761 -144.974003 
L 185.863733 -149.797921 
L 185.499704 -143.272342 
L 185.135676 -151.686566 
L 184.771648 -149.364645 
L 184.407619 -148.197851 
L 184.043591 -140.059727 
L 183.679562 -155.125993 
L 183.315534 -157.06883 
L 182.951506 -150.102409 
L 182.587477 -150.490318 
L 182.223449 -144.054487 
L 181.859421 -149.705443 
L 181.495392 -153.310057 
L 181.131364 -152.671641 
L 180.767335 -149.354912 
L 180.403307 -147.952098 
L 180.039279 -148.996173 
L 179.67525 -150.482417 
L 179.311222 -152.362744 
L 178.947194 -152.270303 
L 178.583165 -145.935308 
L 178.219137 -149.766056 
L 177.855109 -152.352149 
L 177.49108 -152.164259 
L 177.127052 -155.135776 
L 176.763023 -156.834503 
L 176.398995 -154.489 
L 176.034967 -158.35267 
L 175.670938 -152.952464 
L 175.30691 -150.794626 
L 174.942882 -164.81545 
L 174.578853 -158.535599 
L 174.214825 -155.053999 
L 173.850796 -159.299328 
L 173.486768 -151.760312 
L 173.12274 -157.279684 
L 172.758711 -154.036235 
L 172.394683 -145.142171 
L 172.030655 -157.698117 
L 171.666626 -157.114256 
L 171.302598 -156.969492 
L 170.938569 -159.887973 
L 170.574541 -160.843916 
L 170.210513 -155.890012 
L 169.846484 -154.495039 
L 169.482456 -153.886848 
L 169.118428 -150.437854 
L 168.754399 -156.913855 
L 168.390371 -154.645404 
L 168.026342 -160.452322 
L 167.662314 -156.526906 
L 167.298286 -163.444773 
L 166.934257 -160.75031 
L 166.570229 -151.936506 
L 166.206201 -156.032735 
L 165.842172 -158.710766 
L 165.478144 -151.681366 
L 165.114115 -156.901945 
L 164.750087 -152.927192 
L 164.386059 -156.148893 
L 164.02203 -148.184017 
L 163.658002 -153.417176 
L 163.293974 -160.938815 
L 162.929945 -167.929948 
L 162.565917 -158.838669 
L 162.201888 -164.712666 
L 161.83786 -150.19738 
L 161.473832 -157.549668 
L 161.109803 -157.184123 
L 160.745775 -160.705312 
L 160.381747 -171.392786 
L 160.017718 -161.347133 
L 159.65369 -149.842157 
L 159.289661 -158.391391 
L 158.925633 -159.630009 
L 158.561605 -153.924004 
L 158.197576 -167.796958 
L 157.833548 -156.917428 
L 157.46952 -163.056954 
L 157.105491 -162.124207 
L 156.741463 -159.986808 
L 156.377434 -164.412575 
L 156.013406 -162.259108 
L 155.649378 -158.782879 
L 155.285349 -163.785723 
L 154.921321 -165.291279 
L 154.557293 -156.091019 
L 154.193264 -163.893825 
L 153.829236 -170.34397 
L 153.465207 -169.173627 
L 153.101179 -153.798843 
L 152.737151 -157.444579 
L 152.373122 -167.02751 
L 152.009094 -165.971261 
L 151.645066 -170.029464 
L 151.281037 -161.209958 
L 150.917009 -157.794779 
L 150.55298 -171.508714 
L 150.188952 -167.23526 
L 149.824924 -162.903796 
L 149.460895 -163.07948 
L 149.096867 -159.13445 
L 148.732839 -166.977537 
L 148.36881 -160.877881 
L 148.004782 -155.765496 
L 147.640753 -162.647141 
L 147.276725 -162.329713 
L 146.912697 -162.357523 
L 146.548668 -168.14166 
L 146.18464 -162.65824 
L 145.820612 -159.05739 
L 145.456583 -163.154159 
L 145.092555 -169.770837 
L 144.728526 -160.54987 
L 144.364498 -171.433161 
L 144.00047 -157.938501 
L 143.636441 -162.382025 
L 143.272413 -161.118567 
L 142.908385 -155.927504 
L 142.544356 -162.559551 
L 142.180328 -168.349737 
L 141.816299 -163.283752 
L 141.452271 -167.817825 
L 141.088243 -161.735024 
L 140.724214 -158.290965 
L 140.360186 -166.021404 
L 139.996158 -168.246024 
L 139.632129 -160.647606 
L 139.268101 -166.762645 
L 138.904072 -158.968263 
L 138.540044 -162.3038 
L 138.176016 -163.929339 
L 137.811987 -161.895715 
L 137.447959 -161.308759 
L 137.083931 -166.313831 
L 136.719902 -169.19269 
L 136.355874 -156.908861 
L 135.991845 -161.257425 
L 135.627817 -163.060778 
L 135.263789 -169.386866 
L 134.89976 -167.667027 
L 134.535732 -174.851329 
L 134.171704 -167.397146 
L 133.807675 -161.549674 
L 133.443647 -165.176061 
L 133.079618 -169.484326 
L 132.71559 -158.291938 
L 132.351562 -161.915476 
L 131.987533 -158.534975 
L 131.623505 -164.081559 
L 131.259477 -165.930693 
L 130.895448 -164.737493 
L 130.53142 -165.602717 
L 130.167391 -160.480648 
L 129.803363 -168.96357 
L 129.439335 -176.702679 
L 129.075306 -171.60588 
L 128.711278 -164.050074 
L 128.34725 -162.551672 
L 127.983221 -165.492872 
L 127.619193 -160.609508 
L 127.255165 -165.980442 
L 126.891136 -162.029363 
L 126.527108 -160.264196 
L 126.163079 -161.202112 
L 125.799051 -170.553124 
L 125.435023 -173.164648 
L 125.070994 -149.44166 
L 124.706966 -170.461505 
L 124.342938 -171.934277 
L 123.978909 -167.921809 
L 123.614881 -161.378147 
L 123.250852 -161.111395 
L 122.886824 -163.708403 
L 122.522796 -169.429276 
L 122.158767 -175.154766 
L 121.794739 -163.347587 
L 121.430711 -162.856364 
L 121.066682 -166.182948 
L 120.702654 -171.14406 
L 120.338625 -164.886205 
L 119.974597 -161.151593 
L 119.610569 -171.593567 
L 119.24654 -154.345971 
L 118.882512 -163.874777 
L 118.518484 -156.099047 
L 118.154455 -158.444322 
L 117.790427 -168.854811 
L 117.426398 -157.550619 
L 117.06237 -164.989486 
L 116.698342 -164.175181 
L 116.334313 -157.126066 
L 115.970285 -157.701836 
L 115.606257 -157.502184 
L 115.242228 -155.129553 
L 114.8782 -160.245995 
L 114.514171 -166.851151 
L 114.150143 -158.568458 
L 113.786115 -163.108821 
L 113.422086 -157.745434 
L 113.058058 -158.872623 
L 112.69403 -166.011362 
L 112.330001 -163.990154 
L 111.965973 -159.847624 
L 111.601944 -157.683179 
L 111.237916 -153.384242 
L 110.873888 -159.048216 
L 110.509859 -156.093157 
L 110.145831 -150.798297 
L 109.781803 -156.373132 
L 109.417774 -156.188661 
L 109.053746 -162.478598 
L 108.689717 -156.666298 
L 108.325689 -162.968679 
L 107.961661 -152.453945 
L 107.597632 -164.6755 
L 107.233604 -154.140534 
L 106.869576 -168.087331 
L 106.505547 -146.881523 
L 106.141519 -160.970736 
L 105.77749 -149.227236 
L 105.413462 -156.316241 
L 105.049434 -150.345294 
L 104.685405 -144.696678 
L 104.321377 -153.095146 
L 103.957349 -156.751861 
L 103.59332 -162.997069 
L 103.229292 -155.755149 
L 102.865263 -152.753432 
L 102.501235 -160.255187 
L 102.137207 -154.815245 
L 101.773178 -155.953181 
L 101.40915 -156.400123 
L 101.045122 -165.709275 
L 100.681093 -150.453869 
L 100.317065 -158.716301 
L 99.953036 -153.585631 
L 99.589008 -151.003811 
L 99.22498 -159.179063 
L 98.860951 -152.560325 
L 98.496923 -154.346073 
L 98.132895 -161.215376 
L 97.768866 -153.501386 
L 97.404838 -156.069151 
L 97.040809 -155.599948 
L 96.676781 -163.973829 
L 96.312753 -159.512639 
L 95.948724 -142.451225 
L 95.584696 -152.757884 
L 95.220668 -146.221656 
L 94.856639 -162.135832 
L 94.492611 -154.690859 
L 94.128582 -150.535381 
L 93.764554 -149.817216 
L 93.400526 -149.380555 
L 93.036497 -163.656131 
L 92.672469 -145.537677 
L 92.308441 -158.499014 
L 91.944412 -143.417001 
L 91.580384 -150.181556 
L 91.216355 -144.259861 
L 90.852327 -147.485607 
L 90.488299 -149.190213 
L 90.12427 -148.040538 
L 89.760242 -151.920389 
L 89.396214 -145.574973 
L 89.032185 -158.536411 
L 88.668157 -146.133309 
L 88.304128 -146.987297 
L 87.9401 -140.576441 
L 87.576072 -150.034261 
L 87.212043 -139.858373 
L 86.848015 -141.85208 
L 86.483987 -142.666802 
L 86.119958 -146.105809 
L 85.75593 -139.477014 
L 85.391901 -148.851009 
L 85.027873 -140.290704 
L 84.663845 -156.532731 
L 84.299816 -144.076197 
L 83.935788 -134.87352 
L 83.57176 -136.000143 
L 83.207731 -132.828594 
L 82.843703 -137.844031 
L 82.479674 -136.433437 
L 82.115646 -144.664329 
L 81.751618 -141.093685 
L 81.387589 -133.044943 
L 81.023561 -134.963895 
L 80.659533 -135.449915 
L 80.295504 -139.947947 
L 79.931476 -132.893395 
L 79.567447 -127.947156 
L 79.203419 -132.131605 
L 78.839391 -132.175038 
L 78.475362 -132.646732 
L 78.111334 -125.915277 
L 77.747306 -132.379738 
L 77.383277 -134.988408 
L 77.019249 -137.859572 
L 76.655221 -136.704809 
L 76.291192 -136.128227 
L 75.927164 -137.914537 
L 75.563135 -128.48135 
L 75.199107 -127.892369 
L 74.835079 -139.774649 
L 74.47105 -129.343228 
L 74.107022 -139.6237 
L 73.742994 -144.068877 
L 73.378965 -138.299765 
L 73.014937 -138.092951 
L 72.650908 -130.502107 
L 72.28688 -133.312371 
L 71.922852 -132.564616 
L 71.558823 -128.389589 
L 71.194795 -130.948899 
L 70.830767 -138.764023 
L 70.466738 -139.717634 
L 70.10271 -130.729735 
L 69.738681 -123.363515 
L 69.374653 -124.754672 
L 69.010625 -119.639122 
L 68.646596 -123.48535 
L 68.282568 -133.517233 
L 67.91854 -143.992917 
L 67.554511 -138.88431 
L 67.190483 -139.881271 
L 66.826454 -150.545186 
L 66.462426 -178.863942 
L 66.098398 -186.503523 
L 65.734369 -165.801359 
L 65.370341 -146.206363 
z
"/>
    </defs>
    <g clip-path="url(#p2f83561cc0)">
     <use xlink:href="#mbe44ab695f" x="0" y="200.79625" style="fill: #c0392b; fill-opacity: 0.15"/>
    </g>
   </g>
   <g id="FillBetweenPolyCollection_2">
    <defs>
     <path id="m9578b33b99" d="M 65.370341 -90.099129 
L 65.370341 -81.161679 
L 65.734369 -89.227826 
L 66.098398 -96.16322 
L 66.462426 -91.792637 
L 66.826454 -83.529381 
L 67.190483 -79.408102 
L 67.554511 -78.080458 
L 67.91854 -74.400077 
L 68.282568 -75.955601 
L 68.646596 -77.540372 
L 69.010625 -76.720148 
L 69.374653 -78.607154 
L 69.738681 -75.045113 
L 70.10271 -78.166492 
L 70.466738 -83.653008 
L 70.830767 -84.80601 
L 71.194795 -79.628688 
L 71.558823 -83.687433 
L 71.922852 -80.285234 
L 72.28688 -77.512159 
L 72.650908 -79.490302 
L 73.014937 -82.125702 
L 73.378965 -79.985585 
L 73.742994 -81.383762 
L 74.107022 -75.842979 
L 74.47105 -80.750652 
L 74.835079 -81.249971 
L 75.199107 -80.748633 
L 75.563135 -81.366856 
L 75.927164 -82.469307 
L 76.291192 -79.754754 
L 76.655221 -83.683856 
L 77.019249 -84.00561 
L 77.383277 -75.982779 
L 77.747306 -79.021006 
L 78.111334 -84.669462 
L 78.475362 -79.860839 
L 78.839391 -78.123488 
L 79.203419 -77.486706 
L 79.567447 -75.881294 
L 79.931476 -81.128505 
L 80.295504 -80.186084 
L 80.659533 -76.336071 
L 81.023561 -77.087779 
L 81.387589 -78.665082 
L 81.751618 -84.163274 
L 82.115646 -86.880232 
L 82.479674 -82.489381 
L 82.843703 -82.28897 
L 83.207731 -79.010917 
L 83.57176 -80.361038 
L 83.935788 -80.404998 
L 84.299816 -85.832857 
L 84.663845 -85.728298 
L 85.027873 -83.71648 
L 85.391901 -84.906051 
L 85.75593 -78.079136 
L 86.119958 -86.02029 
L 86.483987 -81.287788 
L 86.848015 -84.364724 
L 87.212043 -86.553799 
L 87.576072 -84.35061 
L 87.9401 -80.411691 
L 88.304128 -81.789304 
L 88.668157 -87.694682 
L 89.032185 -87.256909 
L 89.396214 -86.354446 
L 89.760242 -81.130922 
L 90.12427 -86.951552 
L 90.488299 -85.842322 
L 90.852327 -86.665732 
L 91.216355 -88.706481 
L 91.580384 -84.962117 
L 91.944412 -82.014713 
L 92.308441 -84.630445 
L 92.672469 -83.581938 
L 93.036497 -79.559099 
L 93.400526 -84.136118 
L 93.764554 -87.128442 
L 94.128582 -85.253356 
L 94.492611 -86.029198 
L 94.856639 -92.362736 
L 95.220668 -84.649206 
L 95.584696 -84.009552 
L 95.948724 -84.139312 
L 96.312753 -86.966397 
L 96.676781 -86.994582 
L 97.040809 -85.215212 
L 97.404838 -89.272584 
L 97.768866 -87.870205 
L 98.132895 -83.891623 
L 98.496923 -89.320698 
L 98.860951 -85.030536 
L 99.22498 -91.408329 
L 99.589008 -85.835087 
L 99.953036 -89.877461 
L 100.317065 -88.933809 
L 100.681093 -88.805956 
L 101.045122 -86.048945 
L 101.40915 -83.559693 
L 101.773178 -87.844812 
L 102.137207 -88.386067 
L 102.501235 -85.411605 
L 102.865263 -86.362925 
L 103.229292 -88.175834 
L 103.59332 -91.206938 
L 103.957349 -88.98129 
L 104.321377 -90.793055 
L 104.685405 -81.377553 
L 105.049434 -87.642913 
L 105.413462 -89.477618 
L 105.77749 -85.343211 
L 106.141519 -92.050641 
L 106.505547 -84.492425 
L 106.869576 -86.31713 
L 107.233604 -86.777128 
L 107.597632 -87.144012 
L 107.961661 -86.930138 
L 108.325689 -87.538647 
L 108.689717 -87.579769 
L 109.053746 -89.719778 
L 109.417774 -85.584344 
L 109.781803 -88.218067 
L 110.145831 -85.020984 
L 110.509859 -94.427075 
L 110.873888 -89.640848 
L 111.237916 -86.712553 
L 111.601944 -87.779187 
L 111.965973 -88.404982 
L 112.330001 -90.827366 
L 112.69403 -87.45068 
L 113.058058 -88.245255 
L 113.422086 -95.380152 
L 113.786115 -90.613833 
L 114.150143 -89.318115 
L 114.514171 -84.819586 
L 114.8782 -89.842558 
L 115.242228 -91.164263 
L 115.606257 -91.455292 
L 115.970285 -91.164334 
L 116.334313 -90.438955 
L 116.698342 -84.840095 
L 117.06237 -89.693797 
L 117.426398 -89.770163 
L 117.790427 -91.027357 
L 118.154455 -88.309463 
L 118.518484 -90.856334 
L 118.882512 -92.265307 
L 119.24654 -89.989641 
L 119.610569 -91.866899 
L 119.974597 -84.70729 
L 120.338625 -91.302345 
L 120.702654 -91.990334 
L 121.066682 -90.682306 
L 121.430711 -88.820666 
L 121.794739 -87.324684 
L 122.158767 -94.306368 
L 122.522796 -89.591325 
L 122.886824 -96.130745 
L 123.250852 -87.004009 
L 123.614881 -89.480207 
L 123.978909 -85.350355 
L 124.342938 -91.182036 
L 124.706966 -88.38058 
L 125.070994 -88.148742 
L 125.435023 -90.310739 
L 125.799051 -82.184521 
L 126.163079 -91.192635 
L 126.527108 -90.458901 
L 126.891136 -87.744093 
L 127.255165 -90.998203 
L 127.619193 -89.212403 
L 127.983221 -88.910507 
L 128.34725 -89.699084 
L 128.711278 -89.456454 
L 129.075306 -88.242355 
L 129.439335 -88.575318 
L 129.803363 -92.787862 
L 130.167391 -90.35024 
L 130.53142 -89.393509 
L 130.895448 -91.514083 
L 131.259477 -96.105336 
L 131.623505 -92.606205 
L 131.987533 -89.69292 
L 132.351562 -88.860283 
L 132.71559 -92.576453 
L 133.079618 -96.238388 
L 133.443647 -90.318495 
L 133.807675 -94.840057 
L 134.171704 -96.509401 
L 134.535732 -93.123263 
L 134.89976 -93.883503 
L 135.263789 -89.901822 
L 135.627817 -89.088022 
L 135.991845 -86.896162 
L 136.355874 -94.240177 
L 136.719902 -87.747131 
L 137.083931 -85.649573 
L 137.447959 -91.037287 
L 137.811987 -88.522128 
L 138.176016 -91.308329 
L 138.540044 -93.110602 
L 138.904072 -88.953457 
L 139.268101 -95.472343 
L 139.632129 -92.530428 
L 139.996158 -92.653579 
L 140.360186 -90.997919 
L 140.724214 -90.091976 
L 141.088243 -88.454798 
L 141.452271 -99.938932 
L 141.816299 -93.918124 
L 142.180328 -93.324542 
L 142.544356 -96.034043 
L 142.908385 -86.603153 
L 143.272413 -88.673072 
L 143.636441 -89.350676 
L 144.00047 -86.434759 
L 144.364498 -96.592388 
L 144.728526 -91.322669 
L 145.092555 -93.83389 
L 145.456583 -95.723509 
L 145.820612 -85.095126 
L 146.18464 -88.798796 
L 146.548668 -90.663792 
L 146.912697 -88.947981 
L 147.276725 -87.060436 
L 147.640753 -88.904322 
L 148.004782 -89.265289 
L 148.36881 -93.264358 
L 148.732839 -88.650499 
L 149.096867 -89.094009 
L 149.460895 -88.75367 
L 149.824924 -93.696892 
L 150.188952 -89.305149 
L 150.55298 -93.552616 
L 150.917009 -91.1247 
L 151.281037 -86.345285 
L 151.645066 -89.022206 
L 152.009094 -94.457876 
L 152.373122 -95.232235 
L 152.737151 -87.107898 
L 153.101179 -89.613851 
L 153.465207 -87.068008 
L 153.829236 -96.765953 
L 154.193264 -88.143757 
L 154.557293 -91.373329 
L 154.921321 -92.244462 
L 155.285349 -87.444593 
L 155.649378 -89.818728 
L 156.013406 -88.53326 
L 156.377434 -93.407379 
L 156.741463 -94.90875 
L 157.105491 -96.232942 
L 157.46952 -94.773855 
L 157.833548 -88.795285 
L 158.197576 -89.536085 
L 158.561605 -85.06768 
L 158.925633 -90.324316 
L 159.289661 -89.991779 
L 159.65369 -88.954803 
L 160.017718 -91.249182 
L 160.381747 -91.290476 
L 160.745775 -90.55198 
L 161.109803 -92.651223 
L 161.473832 -91.149297 
L 161.83786 -90.931109 
L 162.201888 -90.123527 
L 162.565917 -89.982278 
L 162.929945 -88.060228 
L 163.293974 -94.741421 
L 163.658002 -87.200762 
L 164.02203 -84.686894 
L 164.386059 -89.234744 
L 164.750087 -89.056367 
L 165.114115 -90.519454 
L 165.478144 -87.599101 
L 165.842172 -87.16044 
L 166.206201 -88.418899 
L 166.570229 -86.812472 
L 166.934257 -87.745961 
L 167.298286 -85.421687 
L 167.662314 -86.276372 
L 168.026342 -91.565887 
L 168.390371 -88.199126 
L 168.754399 -86.34457 
L 169.118428 -89.550454 
L 169.482456 -86.997803 
L 169.846484 -89.181096 
L 170.210513 -91.112657 
L 170.574541 -91.201045 
L 170.938569 -86.780184 
L 171.302598 -84.975346 
L 171.666626 -87.483572 
L 172.030655 -90.293192 
L 172.394683 -87.955988 
L 172.758711 -85.208307 
L 173.12274 -85.724365 
L 173.486768 -88.023677 
L 173.850796 -84.879152 
L 174.214825 -87.540665 
L 174.578853 -93.984647 
L 174.942882 -89.873491 
L 175.30691 -83.934107 
L 175.670938 -86.859838 
L 176.034967 -90.091345 
L 176.398995 -91.731578 
L 176.763023 -88.933896 
L 177.127052 -83.888321 
L 177.49108 -87.639814 
L 177.855109 -86.401035 
L 178.219137 -91.550417 
L 178.583165 -85.162716 
L 178.947194 -88.357883 
L 179.311222 -84.383975 
L 179.67525 -87.166465 
L 180.039279 -87.484941 
L 180.403307 -84.006048 
L 180.767335 -86.161905 
L 181.131364 -84.626711 
L 181.495392 -85.467169 
L 181.859421 -84.824522 
L 182.223449 -80.98841 
L 182.587477 -84.618909 
L 182.951506 -87.854807 
L 183.315534 -89.639711 
L 183.679562 -85.351611 
L 184.043591 -86.013744 
L 184.407619 -86.178176 
L 184.771648 -87.207403 
L 185.135676 -87.466936 
L 185.499704 -83.352668 
L 185.863733 -84.182409 
L 186.227761 -84.261216 
L 186.591789 -85.14582 
L 186.955818 -82.38572 
L 187.319846 -81.589937 
L 187.683875 -85.656087 
L 188.047903 -87.366299 
L 188.411931 -85.196748 
L 188.77596 -85.019779 
L 189.139988 -88.068683 
L 189.504016 -88.623449 
L 189.868045 -90.033141 
L 190.232073 -85.007888 
L 190.596102 -83.341261 
L 190.96013 -86.182796 
L 191.324158 -83.326378 
L 191.688187 -83.749684 
L 192.052215 -85.41445 
L 192.416243 -82.264858 
L 192.780272 -86.16023 
L 193.1443 -79.626296 
L 193.508329 -83.189764 
L 193.872357 -78.417347 
L 194.236385 -81.022081 
L 194.600414 -83.257865 
L 194.964442 -80.872011 
L 195.32847 -83.58974 
L 195.692499 -82.910456 
L 196.056527 -80.729751 
L 196.420556 -84.842383 
L 196.784584 -77.554816 
L 197.148612 -82.118405 
L 197.512641 -76.695765 
L 197.876669 -81.374249 
L 198.240697 -80.493349 
L 198.604726 -78.745699 
L 198.968754 -78.407131 
L 199.332783 -80.042508 
L 199.696811 -82.844258 
L 200.060839 -80.516018 
L 200.424868 -78.349222 
L 200.788896 -81.618645 
L 201.152924 -75.699666 
L 201.516953 -76.425193 
L 201.880981 -81.935433 
L 202.24501 -77.22592 
L 202.609038 -79.958155 
L 202.973066 -76.597989 
L 203.337095 -77.300077 
L 203.701123 -77.132191 
L 204.065151 -78.712203 
L 204.42918 -79.266772 
L 204.793208 -77.349401 
L 205.157237 -75.946995 
L 205.521265 -79.821586 
L 205.885293 -77.244137 
L 206.249322 -76.592631 
L 206.61335 -80.834658 
L 206.977378 -80.732248 
L 207.341407 -75.943397 
L 207.705435 -80.160164 
L 208.069464 -76.669367 
L 208.433492 -74.309069 
L 208.79752 -74.425001 
L 209.161549 -77.367649 
L 209.525577 -80.652238 
L 209.889605 -73.328275 
L 210.253634 -71.873698 
L 210.617662 -73.552114 
L 210.981691 -76.144902 
L 211.345719 -76.484673 
L 211.709747 -80.502721 
L 212.073776 -76.317582 
L 212.437804 -72.673701 
L 212.801832 -73.145707 
L 213.165861 -72.408567 
L 213.529889 -76.534997 
L 213.893918 -71.350812 
L 214.257946 -75.537926 
L 214.621974 -73.729788 
L 214.986003 -70.691608 
L 215.350031 -73.475341 
L 215.714059 -72.376936 
L 216.078088 -70.794982 
L 216.442116 -74.412215 
L 216.806145 -70.508915 
L 217.170173 -72.272832 
L 217.534201 -72.027581 
L 217.89823 -66.690794 
L 218.262258 -69.272398 
L 218.626286 -73.477737 
L 218.990315 -69.945156 
L 219.354343 -68.226495 
L 219.718372 -69.93702 
L 220.0824 -71.747411 
L 220.446428 -65.250023 
L 220.810457 -67.526795 
L 221.174485 -70.21934 
L 221.538513 -71.012142 
L 221.902542 -68.825312 
L 222.26657 -74.552675 
L 222.630599 -62.113941 
L 222.994627 -67.467082 
L 223.358655 -67.108769 
L 223.722684 -64.423056 
L 224.086712 -68.169036 
L 224.45074 -68.500045 
L 224.814769 -70.863645 
L 225.178797 -66.485794 
L 225.542826 -65.136856 
L 225.906854 -66.035706 
L 226.270882 -64.357986 
L 226.634911 -68.765086 
L 226.998939 -59.832955 
L 227.362967 -62.182803 
L 227.726996 -64.522172 
L 228.091024 -63.176592 
L 228.455053 -63.137373 
L 228.819081 -64.187259 
L 229.183109 -58.236196 
L 229.547138 -60.327447 
L 229.911166 -61.336048 
L 230.275194 -63.620213 
L 230.639223 -59.920137 
L 231.003251 -59.64987 
L 231.367279 -58.406664 
L 231.731308 -60.622376 
L 232.095336 -57.64802 
L 232.459365 -56.360817 
L 232.823393 -54.814918 
L 233.187421 -60.090814 
L 233.55145 -55.344606 
L 233.915478 -58.363342 
L 234.279506 -55.781855 
L 234.643535 -54.824902 
L 235.007563 -57.567331 
L 235.371592 -55.407659 
L 235.73562 -52.029651 
L 236.099648 -52.313372 
L 236.463677 -50.021705 
L 236.827705 -54.130399 
L 237.191733 -51.921917 
L 237.555762 -50.993812 
L 237.91979 -50.307432 
L 238.283819 -48.241242 
L 238.647847 -49.227566 
L 239.011875 -50.841642 
L 239.375904 -48.72855 
L 239.739932 -48.530889 
L 240.10396 -45.962652 
L 240.467989 -45.289209 
L 240.832017 -45.184262 
L 241.196046 -45.228318 
L 241.560074 -44.850756 
L 241.924102 -44.997772 
L 242.288131 -45.148286 
L 242.652159 -45.148286 
L 242.652159 -45.148286 
L 242.652159 -45.148286 
L 242.288131 -45.148286 
L 241.924102 -45.750853 
L 241.560074 -46.194043 
L 241.196046 -45.894421 
L 240.832017 -46.54641 
L 240.467989 -49.527893 
L 240.10396 -48.05946 
L 239.739932 -54.485517 
L 239.375904 -50.952018 
L 239.011875 -55.682071 
L 238.647847 -53.86678 
L 238.283819 -54.993397 
L 237.91979 -54.127486 
L 237.555762 -59.81661 
L 237.191733 -56.830885 
L 236.827705 -59.298813 
L 236.463677 -59.448147 
L 236.099648 -60.741727 
L 235.73562 -59.716053 
L 235.371592 -64.116473 
L 235.007563 -64.80941 
L 234.643535 -61.207511 
L 234.279506 -62.619939 
L 233.915478 -67.660999 
L 233.55145 -61.669852 
L 233.187421 -66.557048 
L 232.823393 -61.856604 
L 232.459365 -64.488298 
L 232.095336 -68.610142 
L 231.731308 -65.183733 
L 231.367279 -70.28323 
L 231.003251 -66.062711 
L 230.639223 -75.363495 
L 230.275194 -70.837253 
L 229.911166 -65.795043 
L 229.547138 -69.250965 
L 229.183109 -70.43811 
L 228.819081 -76.053366 
L 228.455053 -71.678618 
L 228.091024 -70.813232 
L 227.726996 -71.977326 
L 227.362967 -73.381413 
L 226.998939 -68.498414 
L 226.634911 -78.022513 
L 226.270882 -70.676237 
L 225.906854 -74.656972 
L 225.542826 -71.705579 
L 225.178797 -74.627761 
L 224.814769 -73.289576 
L 224.45074 -78.147261 
L 224.086712 -76.935055 
L 223.722684 -78.82606 
L 223.358655 -76.062407 
L 222.994627 -79.601101 
L 222.630599 -68.134756 
L 222.26657 -82.694493 
L 221.902542 -78.897569 
L 221.538513 -79.080119 
L 221.174485 -76.521495 
L 220.810457 -76.719955 
L 220.446428 -80.274945 
L 220.0824 -82.085978 
L 219.718372 -75.291775 
L 219.354343 -74.414688 
L 218.990315 -82.220313 
L 218.626286 -84.470892 
L 218.262258 -78.123134 
L 217.89823 -77.493603 
L 217.534201 -80.745821 
L 217.170173 -83.571413 
L 216.806145 -79.022178 
L 216.442116 -79.389998 
L 216.078088 -78.315234 
L 215.714059 -81.0044 
L 215.350031 -89.851159 
L 214.986003 -82.409143 
L 214.621974 -88.73937 
L 214.257946 -79.074864 
L 213.893918 -82.544929 
L 213.529889 -82.333326 
L 213.165861 -82.344516 
L 212.801832 -87.172303 
L 212.437804 -86.724615 
L 212.073776 -86.135988 
L 211.709747 -90.321622 
L 211.345719 -82.742175 
L 210.981691 -82.723421 
L 210.617662 -82.681831 
L 210.253634 -85.466998 
L 209.889605 -82.562734 
L 209.525577 -86.477742 
L 209.161549 -90.86908 
L 208.79752 -88.293566 
L 208.433492 -85.572476 
L 208.069464 -85.160682 
L 207.705435 -88.232447 
L 207.341407 -84.530493 
L 206.977378 -83.311302 
L 206.61335 -87.698244 
L 206.249322 -88.479729 
L 205.885293 -92.831981 
L 205.521265 -90.098651 
L 205.157237 -88.564195 
L 204.793208 -87.130614 
L 204.42918 -91.386103 
L 204.065151 -90.943038 
L 203.701123 -90.325137 
L 203.337095 -90.141663 
L 202.973066 -88.754955 
L 202.609038 -87.405646 
L 202.24501 -90.62111 
L 201.880981 -93.128855 
L 201.516953 -87.587181 
L 201.152924 -87.829478 
L 200.788896 -92.167424 
L 200.424868 -88.016944 
L 200.060839 -87.3466 
L 199.696811 -87.434504 
L 199.332783 -92.106818 
L 198.968754 -92.230156 
L 198.604726 -94.822137 
L 198.240697 -95.552985 
L 197.876669 -92.209176 
L 197.512641 -90.777151 
L 197.148612 -91.122083 
L 196.784584 -91.461315 
L 196.420556 -94.85155 
L 196.056527 -94.630709 
L 195.692499 -89.581806 
L 195.32847 -93.002175 
L 194.964442 -91.542312 
L 194.600414 -88.704404 
L 194.236385 -91.875471 
L 193.872357 -89.242626 
L 193.508329 -91.048358 
L 193.1443 -92.803614 
L 192.780272 -97.430711 
L 192.416243 -89.666235 
L 192.052215 -92.689503 
L 191.688187 -93.808688 
L 191.324158 -87.248557 
L 190.96013 -91.313224 
L 190.596102 -97.537362 
L 190.232073 -92.862245 
L 189.868045 -102.770327 
L 189.504016 -98.786559 
L 189.139988 -94.399919 
L 188.77596 -99.444091 
L 188.411931 -91.660163 
L 188.047903 -91.314412 
L 187.683875 -98.059558 
L 187.319846 -96.591957 
L 186.955818 -93.800906 
L 186.591789 -95.951036 
L 186.227761 -95.058604 
L 185.863733 -91.5054 
L 185.499704 -94.096588 
L 185.135676 -92.149057 
L 184.771648 -96.523831 
L 184.407619 -91.582841 
L 184.043591 -101.146856 
L 183.679562 -96.711703 
L 183.315534 -100.513791 
L 182.951506 -93.538221 
L 182.587477 -98.613507 
L 182.223449 -95.182628 
L 181.859421 -95.492932 
L 181.495392 -101.350494 
L 181.131364 -100.975086 
L 180.767335 -95.10642 
L 180.403307 -96.233466 
L 180.039279 -96.199528 
L 179.67525 -91.529834 
L 179.311222 -96.853173 
L 178.947194 -98.896245 
L 178.583165 -94.250632 
L 178.219137 -96.358409 
L 177.855109 -101.959843 
L 177.49108 -99.193437 
L 177.127052 -109.897193 
L 176.763023 -99.05287 
L 176.398995 -95.912252 
L 176.034967 -100.483034 
L 175.670938 -96.060818 
L 175.30691 -97.084808 
L 174.942882 -99.999426 
L 174.578853 -100.56468 
L 174.214825 -95.972335 
L 173.850796 -103.606431 
L 173.486768 -95.879024 
L 173.12274 -99.191558 
L 172.758711 -100.54937 
L 172.394683 -95.26084 
L 172.030655 -104.193783 
L 171.666626 -103.948149 
L 171.302598 -97.960897 
L 170.938569 -99.569838 
L 170.574541 -101.773891 
L 170.210513 -100.817881 
L 169.846484 -98.119796 
L 169.482456 -103.670104 
L 169.118428 -102.972428 
L 168.754399 -104.93127 
L 168.390371 -101.720555 
L 168.026342 -98.400559 
L 167.662314 -98.623963 
L 167.298286 -102.892428 
L 166.934257 -101.082558 
L 166.570229 -98.259332 
L 166.206201 -95.140866 
L 165.842172 -100.701622 
L 165.478144 -94.651269 
L 165.114115 -97.966129 
L 164.750087 -97.963941 
L 164.386059 -99.734067 
L 164.02203 -98.124645 
L 163.658002 -96.920172 
L 163.293974 -102.831984 
L 162.929945 -96.621875 
L 162.565917 -100.171224 
L 162.201888 -99.546746 
L 161.83786 -100.344731 
L 161.473832 -101.046237 
L 161.109803 -104.501305 
L 160.745775 -108.128175 
L 160.381747 -106.999979 
L 160.017718 -108.00773 
L 159.65369 -95.789652 
L 159.289661 -103.076685 
L 158.925633 -104.599123 
L 158.561605 -99.910596 
L 158.197576 -105.434119 
L 157.833548 -100.095586 
L 157.46952 -105.215695 
L 157.105491 -105.87658 
L 156.741463 -105.330209 
L 156.377434 -103.698385 
L 156.013406 -101.370834 
L 155.649378 -108.035262 
L 155.285349 -108.944122 
L 154.921321 -107.823028 
L 154.557293 -100.837793 
L 154.193264 -103.178848 
L 153.829236 -109.209401 
L 153.465207 -100.653762 
L 153.101179 -98.061154 
L 152.737151 -100.489167 
L 152.373122 -105.053487 
L 152.009094 -105.173149 
L 151.645066 -103.500677 
L 151.281037 -104.556443 
L 150.917009 -101.02407 
L 150.55298 -106.125173 
L 150.188952 -103.778903 
L 149.824924 -100.18215 
L 149.460895 -106.886819 
L 149.096867 -104.940913 
L 148.732839 -99.725968 
L 148.36881 -102.594364 
L 148.004782 -103.148477 
L 147.640753 -99.596848 
L 147.276725 -98.385481 
L 146.912697 -100.878173 
L 146.548668 -108.655473 
L 146.18464 -108.400496 
L 145.820612 -104.341327 
L 145.456583 -108.225401 
L 145.092555 -107.122118 
L 144.728526 -103.429302 
L 144.364498 -105.485958 
L 144.00047 -103.827859 
L 143.636441 -99.805192 
L 143.272413 -100.872497 
L 142.908385 -98.328358 
L 142.544356 -105.997539 
L 142.180328 -107.537938 
L 141.816299 -104.200862 
L 141.452271 -102.918816 
L 141.088243 -101.792233 
L 140.724214 -102.88296 
L 140.360186 -106.653426 
L 139.996158 -103.984544 
L 139.632129 -104.46622 
L 139.268101 -106.200714 
L 138.904072 -101.153281 
L 138.540044 -105.070737 
L 138.176016 -105.922139 
L 137.811987 -95.707923 
L 137.447959 -95.390676 
L 137.083931 -102.524249 
L 136.719902 -106.412495 
L 136.355874 -100.028565 
L 135.991845 -102.197354 
L 135.627817 -103.731034 
L 135.263789 -106.642773 
L 134.89976 -98.499087 
L 134.535732 -108.752439 
L 134.171704 -101.625173 
L 133.807675 -99.007808 
L 133.443647 -101.674395 
L 133.079618 -103.080877 
L 132.71559 -101.333764 
L 132.351562 -104.254945 
L 131.987533 -100.289113 
L 131.623505 -106.120714 
L 131.259477 -103.1204 
L 130.895448 -100.977623 
L 130.53142 -106.262568 
L 130.167391 -105.149957 
L 129.803363 -96.57065 
L 129.439335 -104.851671 
L 129.075306 -101.911147 
L 128.711278 -100.68146 
L 128.34725 -100.454419 
L 127.983221 -102.225041 
L 127.619193 -100.099346 
L 127.255165 -104.361702 
L 126.891136 -104.544969 
L 126.527108 -97.590217 
L 126.163079 -102.031709 
L 125.799051 -103.791388 
L 125.435023 -107.714719 
L 125.070994 -99.308031 
L 124.706966 -98.764432 
L 124.342938 -101.247319 
L 123.978909 -103.384636 
L 123.614881 -99.815953 
L 123.250852 -100.468351 
L 122.886824 -99.837093 
L 122.522796 -103.679784 
L 122.158767 -105.714358 
L 121.794739 -102.782054 
L 121.430711 -98.184053 
L 121.066682 -101.684696 
L 120.702654 -101.280774 
L 120.338625 -100.581428 
L 119.974597 -97.480728 
L 119.610569 -101.622442 
L 119.24654 -97.763304 
L 118.882512 -99.540527 
L 118.518484 -99.795985 
L 118.154455 -96.21676 
L 117.790427 -102.758156 
L 117.426398 -100.991272 
L 117.06237 -104.637297 
L 116.698342 -99.888772 
L 116.334313 -98.950734 
L 115.970285 -103.416169 
L 115.606257 -95.923541 
L 115.242228 -94.531062 
L 114.8782 -96.943929 
L 114.514171 -100.735447 
L 114.150143 -97.780133 
L 113.786115 -97.653517 
L 113.422086 -97.205083 
L 113.058058 -102.516181 
L 112.69403 -101.159607 
L 112.330001 -102.708739 
L 111.965973 -93.034811 
L 111.601944 -98.492895 
L 111.237916 -97.922786 
L 110.873888 -97.426223 
L 110.509859 -102.974861 
L 110.145831 -92.786797 
L 109.781803 -95.606695 
L 109.417774 -95.933388 
L 109.053746 -95.835255 
L 108.689717 -96.463224 
L 108.325689 -92.950276 
L 107.961661 -95.554053 
L 107.597632 -104.568293 
L 107.233604 -96.767049 
L 106.869576 -101.560519 
L 106.505547 -91.351265 
L 106.141519 -97.463752 
L 105.77749 -95.691293 
L 105.413462 -99.023553 
L 105.049434 -93.485119 
L 104.685405 -94.559665 
L 104.321377 -94.621686 
L 103.957349 -95.607285 
L 103.59332 -99.648026 
L 103.229292 -96.194509 
L 102.865263 -99.924745 
L 102.501235 -97.19729 
L 102.137207 -97.05985 
L 101.773178 -97.149052 
L 101.40915 -91.707239 
L 101.045122 -99.833437 
L 100.681093 -91.636203 
L 100.317065 -94.781836 
L 99.953036 -96.566089 
L 99.589008 -93.67179 
L 99.22498 -97.030489 
L 98.860951 -95.11545 
L 98.496923 -97.69961 
L 98.132895 -99.933139 
L 97.768866 -98.900695 
L 97.404838 -94.77041 
L 97.040809 -102.553322 
L 96.676781 -99.402205 
L 96.312753 -93.195177 
L 95.948724 -92.624071 
L 95.584696 -94.219106 
L 95.220668 -91.38154 
L 94.856639 -102.420411 
L 94.492611 -94.771485 
L 94.128582 -93.22471 
L 93.764554 -90.227286 
L 93.400526 -96.477508 
L 93.036497 -108.770604 
L 92.672469 -90.952357 
L 92.308441 -94.143794 
L 91.944412 -91.303715 
L 91.580384 -95.96327 
L 91.216355 -93.076248 
L 90.852327 -95.756107 
L 90.488299 -95.28571 
L 90.12427 -91.074461 
L 89.760242 -98.329191 
L 89.396214 -100.60351 
L 89.032185 -94.292 
L 88.668157 -91.92131 
L 88.304128 -94.522026 
L 87.9401 -91.176466 
L 87.576072 -95.343323 
L 87.212043 -88.33902 
L 86.848015 -89.109584 
L 86.483987 -90.970654 
L 86.119958 -93.548938 
L 85.75593 -90.03289 
L 85.391901 -89.862064 
L 85.027873 -90.833402 
L 84.663845 -93.794167 
L 84.299816 -92.816678 
L 83.935788 -86.989978 
L 83.57176 -93.269151 
L 83.207731 -86.965549 
L 82.843703 -88.363904 
L 82.479674 -89.410537 
L 82.115646 -92.003124 
L 81.751618 -91.01013 
L 81.387589 -85.752581 
L 81.023561 -87.532528 
L 80.659533 -88.56482 
L 80.295504 -90.420027 
L 79.931476 -90.210243 
L 79.567447 -89.502826 
L 79.203419 -89.939446 
L 78.839391 -86.387703 
L 78.475362 -83.824186 
L 78.111334 -89.178959 
L 77.747306 -82.35699 
L 77.383277 -89.136344 
L 77.019249 -87.831955 
L 76.655221 -88.496646 
L 76.291192 -90.461656 
L 75.927164 -90.630888 
L 75.563135 -84.936958 
L 75.199107 -87.14516 
L 74.835079 -90.54083 
L 74.47105 -90.3231 
L 74.107022 -90.02437 
L 73.742994 -93.57141 
L 73.378965 -89.544951 
L 73.014937 -91.520075 
L 72.650908 -86.782336 
L 72.28688 -94.060409 
L 71.922852 -87.655324 
L 71.558823 -86.591329 
L 71.194795 -87.890992 
L 70.830767 -93.204416 
L 70.466738 -93.437724 
L 70.10271 -85.284712 
L 69.738681 -84.540259 
L 69.374653 -84.454349 
L 69.010625 -86.107535 
L 68.646596 -81.826768 
L 68.282568 -88.960878 
L 67.91854 -90.625518 
L 67.554511 -87.927184 
L 67.190483 -87.690702 
L 66.826454 -94.839569 
L 66.462426 -99.576732 
L 66.098398 -100.724311 
L 65.734369 -95.532217 
L 65.370341 -90.099129 
z
"/>
    </defs>
    <g clip-path="url(#p2f83561cc0)">
     <use xlink:href="#m9578b33b99" x="0" y="200.79625" style="fill: #1f77b4; fill-opacity: 0.15"/>
    </g>
   </g>
   <g id="matplotlib.axis_1">
    <g id="xtick_1">
     <g id="line2d_1">
      <path d="M 65.006313 163.24 
L 65.006313 7.2 
" clip-path="url(#p2f83561cc0)" style="fill: none; stroke: #b0b0b0; stroke-opacity: 0.3; stroke-width: 0.8; stroke-linecap: square"/>
     </g>
     <g id="line2d_2">
      <defs>
       <path id="md52ec2ff24" d="M 0 0 
L 0 3.5 
" style="stroke: #000000; stroke-width: 0.8"/>
      </defs>
      <g>
       <use xlink:href="#md52ec2ff24" x="65.006313" y="163.24" style="stroke: #000000; stroke-width: 0.8"/>
      </g>
     </g>
     <g id="text_1">
      <text style="font-size: 10px; font-family: 'DejaVu Sans', 'Bitstream Vera Sans', 'Computer Modern Sans Serif', 'Lucida Grande', 'Verdana', 'Geneva', 'Lucid', 'Arial', 'Helvetica', 'Avant Garde', sans-serif; text-anchor: middle" x="65.006313" y="177.838437" transform="rotate(-0 65.006313 177.838437)">0.0</text>
     </g>
    </g>
    <g id="xtick_2">
     <g id="line2d_3">
      <path d="M 100.555958 163.24 
L 100.555958 7.2 
" clip-path="url(#p2f83561cc0)" style="fill: none; stroke: #b0b0b0; stroke-opacity: 0.3; stroke-width: 0.8; stroke-linecap: square"/>
     </g>
     <g id="line2d_4">
      <g>
       <use xlink:href="#md52ec2ff24" x="100.555958" y="163.24" style="stroke: #000000; stroke-width: 0.8"/>
      </g>
     </g>
     <g id="text_2">
      <text style="font-size: 10px; font-family: 'DejaVu Sans', 'Bitstream Vera Sans', 'Computer Modern Sans Serif', 'Lucida Grande', 'Verdana', 'Geneva', 'Lucid', 'Arial', 'Helvetica', 'Avant Garde', sans-serif; text-anchor: middle" x="100.555958" y="177.838437" transform="rotate(-0 100.555958 177.838437)">0.2</text>
     </g>
    </g>
    <g id="xtick_3">
     <g id="line2d_5">
      <path d="M 136.105604 163.24 
L 136.105604 7.2 
" clip-path="url(#p2f83561cc0)" style="fill: none; stroke: #b0b0b0; stroke-opacity: 0.3; stroke-width: 0.8; stroke-linecap: square"/>
     </g>
     <g id="line2d_6">
      <g>
       <use xlink:href="#md52ec2ff24" x="136.105604" y="163.24" style="stroke: #000000; stroke-width: 0.8"/>
      </g>
     </g>
     <g id="text_3">
      <text style="font-size: 10px; font-family: 'DejaVu Sans', 'Bitstream Vera Sans', 'Computer Modern Sans Serif', 'Lucida Grande', 'Verdana', 'Geneva', 'Lucid', 'Arial', 'Helvetica', 'Avant Garde', sans-serif; text-anchor: middle" x="136.105604" y="177.838437" transform="rotate(-0 136.105604 177.838437)">0.4</text>
     </g>
    </g>
    <g id="xtick_4">
     <g id="line2d_7">
      <path d="M 171.65525 163.24 
L 171.65525 7.2 
" clip-path="url(#p2f83561cc0)" style="fill: none; stroke: #b0b0b0; stroke-opacity: 0.3; stroke-width: 0.8; stroke-linecap: square"/>
     </g>
     <g id="line2d_8">
      <g>
       <use xlink:href="#md52ec2ff24" x="171.65525" y="163.24" style="stroke: #000000; stroke-width: 0.8"/>
      </g>
     </g>
     <g id="text_4">
      <text style="font-size: 10px; font-family: 'DejaVu Sans', 'Bitstream Vera Sans', 'Computer Modern Sans Serif', 'Lucida Grande', 'Verdana', 'Geneva', 'Lucid', 'Arial', 'Helvetica', 'Avant Garde', sans-serif; text-anchor: middle" x="171.65525" y="177.838437" transform="rotate(-0 171.65525 177.838437)">0.6</text>
     </g>
    </g>
    <g id="xtick_5">
     <g id="line2d_9">
      <path d="M 207.204896 163.24 
L 207.204896 7.2 
" clip-path="url(#p2f83561cc0)" style="fill: none; stroke: #b0b0b0; stroke-opacity: 0.3; stroke-width: 0.8; stroke-linecap: square"/>
     </g>
     <g id="line2d_10">
      <g>
       <use xlink:href="#md52ec2ff24" x="207.204896" y="163.24" style="stroke: #000000; stroke-width: 0.8"/>
      </g>
     </g>
     <g id="text_5">
      <text style="font-size: 10px; font-family: 'DejaVu Sans', 'Bitstream Vera Sans', 'Computer Modern Sans Serif', 'Lucida Grande', 'Verdana', 'Geneva', 'Lucid', 'Arial', 'Helvetica', 'Avant Garde', sans-serif; text-anchor: middle" x="207.204896" y="177.838437" transform="rotate(-0 207.204896 177.838437)">0.8</text>
     </g>
    </g>
    <g id="xtick_6">
     <g id="line2d_11">
      <path d="M 242.754542 163.24 
L 242.754542 7.2 
" clip-path="url(#p2f83561cc0)" style="fill: none; stroke: #b0b0b0; stroke-opacity: 0.3; stroke-width: 0.8; stroke-linecap: square"/>
     </g>
     <g id="line2d_12">
      <g>
       <use xlink:href="#md52ec2ff24" x="242.754542" y="163.24" style="stroke: #000000; stroke-width: 0.8"/>
      </g>
     </g>
     <g id="text_6">
      <text style="font-size: 10px; font-family: 'DejaVu Sans', 'Bitstream Vera Sans', 'Computer Modern Sans Serif', 'Lucida Grande', 'Verdana', 'Geneva', 'Lucid', 'Arial', 'Helvetica', 'Avant Garde', sans-serif; text-anchor: middle" x="242.754542" y="177.838437" transform="rotate(-0 242.754542 177.838437)">1.0</text>
     </g>
    </g>
    <g id="text_7">
     <text style="font-size: 10px; font-family: 'DejaVu Sans', 'Bitstream Vera Sans', 'Computer Modern Sans Serif', 'Lucida Grande', 'Verdana', 'Geneva', 'Lucid', 'Arial', 'Helvetica', 'Avant Garde', sans-serif; text-anchor: middle" x="154.01125" y="191.516562" transform="rotate(-0 154.01125 191.516562)">environment step</text>
    </g>
    <g id="text_8">
     <text style="font-size: 10px; font-family: 'DejaVu Sans', 'Bitstream Vera Sans', 'Computer Modern Sans Serif', 'Lucida Grande', 'Verdana', 'Geneva', 'Lucid', 'Arial', 'Helvetica', 'Avant Garde', sans-serif; text-anchor: end" x="251.51625" y="190.516562" transform="rotate(-0 251.51625 190.516562)">1e6</text>
    </g>
   </g>
   <g id="matplotlib.axis_2">
    <g id="ytick_1">
     <g id="line2d_13">
      <path d="M 56.50625 155.647964 
L 251.51625 155.647964 
" clip-path="url(#p2f83561cc0)" style="fill: none; stroke: #b0b0b0; stroke-opacity: 0.3; stroke-width: 0.8; stroke-linecap: square"/>
     </g>
     <g id="line2d_14">
      <defs>
       <path id="meb23fb85bc" d="M 0 0 
L -3.5 0 
" style="stroke: #000000; stroke-width: 0.8"/>
      </defs>
      <g>
       <use xlink:href="#meb23fb85bc" x="56.50625" y="155.647964" style="stroke: #000000; stroke-width: 0.8"/>
      </g>
     </g>
     <g id="text_9">
      <text style="font-size: 10px; font-family: 'DejaVu Sans', 'Bitstream Vera Sans', 'Computer Modern Sans Serif', 'Lucida Grande', 'Verdana', 'Geneva', 'Lucid', 'Arial', 'Helvetica', 'Avant Garde', sans-serif; text-anchor: end" x="49.50625" y="159.447182" transform="rotate(-0 49.50625 159.447182)">0.000</text>
     </g>
    </g>
    <g id="ytick_2">
     <g id="line2d_15">
      <path d="M 56.50625 135.695283 
L 251.51625 135.695283 
" clip-path="url(#p2f83561cc0)" style="fill: none; stroke: #b0b0b0; stroke-opacity: 0.3; stroke-width: 0.8; stroke-linecap: square"/>
     </g>
     <g id="line2d_16">
      <g>
       <use xlink:href="#meb23fb85bc" x="56.50625" y="135.695283" style="stroke: #000000; stroke-width: 0.8"/>
      </g>
     </g>
     <g id="text_10">
      <text style="font-size: 10px; font-family: 'DejaVu Sans', 'Bitstream Vera Sans', 'Computer Modern Sans Serif', 'Lucida Grande', 'Verdana', 'Geneva', 'Lucid', 'Arial', 'Helvetica', 'Avant Garde', sans-serif; text-anchor: end" x="49.50625" y="139.494502" transform="rotate(-0 49.50625 139.494502)">0.025</text>
     </g>
    </g>
    <g id="ytick_3">
     <g id="line2d_17">
      <path d="M 56.50625 115.742603 
L 251.51625 115.742603 
" clip-path="url(#p2f83561cc0)" style="fill: none; stroke: #b0b0b0; stroke-opacity: 0.3; stroke-width: 0.8; stroke-linecap: square"/>
     </g>
     <g id="line2d_18">
      <g>
       <use xlink:href="#meb23fb85bc" x="56.50625" y="115.742603" style="stroke: #000000; stroke-width: 0.8"/>
      </g>
     </g>
     <g id="text_11">
      <text style="font-size: 10px; font-family: 'DejaVu Sans', 'Bitstream Vera Sans', 'Computer Modern Sans Serif', 'Lucida Grande', 'Verdana', 'Geneva', 'Lucid', 'Arial', 'Helvetica', 'Avant Garde', sans-serif; text-anchor: end" x="49.50625" y="119.541822" transform="rotate(-0 49.50625 119.541822)">0.050</text>
     </g>
    </g>
    <g id="ytick_4">
     <g id="line2d_19">
      <path d="M 56.50625 95.789923 
L 251.51625 95.789923 
" clip-path="url(#p2f83561cc0)" style="fill: none; stroke: #b0b0b0; stroke-opacity: 0.3; stroke-width: 0.8; stroke-linecap: square"/>
     </g>
     <g id="line2d_20">
      <g>
       <use xlink:href="#meb23fb85bc" x="56.50625" y="95.789923" style="stroke: #000000; stroke-width: 0.8"/>
      </g>
     </g>
     <g id="text_12">
      <text style="font-size: 10px; font-family: 'DejaVu Sans', 'Bitstream Vera Sans', 'Computer Modern Sans Serif', 'Lucida Grande', 'Verdana', 'Geneva', 'Lucid', 'Arial', 'Helvetica', 'Avant Garde', sans-serif; text-anchor: end" x="49.50625" y="99.589142" transform="rotate(-0 49.50625 99.589142)">0.075</text>
     </g>
    </g>
    <g id="ytick_5">
     <g id="line2d_21">
      <path d="M 56.50625 75.837243 
L 251.51625 75.837243 
" clip-path="url(#p2f83561cc0)" style="fill: none; stroke: #b0b0b0; stroke-opacity: 0.3; stroke-width: 0.8; stroke-linecap: square"/>
     </g>
     <g id="line2d_22">
      <g>
       <use xlink:href="#meb23fb85bc" x="56.50625" y="75.837243" style="stroke: #000000; stroke-width: 0.8"/>
      </g>
     </g>
     <g id="text_13">
      <text style="font-size: 10px; font-family: 'DejaVu Sans', 'Bitstream Vera Sans', 'Computer Modern Sans Serif', 'Lucida Grande', 'Verdana', 'Geneva', 'Lucid', 'Arial', 'Helvetica', 'Avant Garde', sans-serif; text-anchor: end" x="49.50625" y="79.636462" transform="rotate(-0 49.50625 79.636462)">0.100</text>
     </g>
    </g>
    <g id="ytick_6">
     <g id="line2d_23">
      <path d="M 56.50625 55.884563 
L 251.51625 55.884563 
" clip-path="url(#p2f83561cc0)" style="fill: none; stroke: #b0b0b0; stroke-opacity: 0.3; stroke-width: 0.8; stroke-linecap: square"/>
     </g>
     <g id="line2d_24">
      <g>
       <use xlink:href="#meb23fb85bc" x="56.50625" y="55.884563" style="stroke: #000000; stroke-width: 0.8"/>
      </g>
     </g>
     <g id="text_14">
      <text style="font-size: 10px; font-family: 'DejaVu Sans', 'Bitstream Vera Sans', 'Computer Modern Sans Serif', 'Lucida Grande', 'Verdana', 'Geneva', 'Lucid', 'Arial', 'Helvetica', 'Avant Garde', sans-serif; text-anchor: end" x="49.50625" y="59.683781" transform="rotate(-0 49.50625 59.683781)">0.125</text>
     </g>
    </g>
    <g id="ytick_7">
     <g id="line2d_25">
      <path d="M 56.50625 35.931882 
L 251.51625 35.931882 
" clip-path="url(#p2f83561cc0)" style="fill: none; stroke: #b0b0b0; stroke-opacity: 0.3; stroke-width: 0.8; stroke-linecap: square"/>
     </g>
     <g id="line2d_26">
      <g>
       <use xlink:href="#meb23fb85bc" x="56.50625" y="35.931882" style="stroke: #000000; stroke-width: 0.8"/>
      </g>
     </g>
     <g id="text_15">
      <text style="font-size: 10px; font-family: 'DejaVu Sans', 'Bitstream Vera Sans', 'Computer Modern Sans Serif', 'Lucida Grande', 'Verdana', 'Geneva', 'Lucid', 'Arial', 'Helvetica', 'Avant Garde', sans-serif; text-anchor: end" x="49.50625" y="39.731101" transform="rotate(-0 49.50625 39.731101)">0.150</text>
     </g>
    </g>
    <g id="ytick_8">
     <g id="line2d_27">
      <path d="M 56.50625 15.979202 
L 251.51625 15.979202 
" clip-path="url(#p2f83561cc0)" style="fill: none; stroke: #b0b0b0; stroke-opacity: 0.3; stroke-width: 0.8; stroke-linecap: square"/>
     </g>
     <g id="line2d_28">
      <g>
       <use xlink:href="#meb23fb85bc" x="56.50625" y="15.979202" style="stroke: #000000; stroke-width: 0.8"/>
      </g>
     </g>
     <g id="text_16">
      <text style="font-size: 10px; font-family: 'DejaVu Sans', 'Bitstream Vera Sans', 'Computer Modern Sans Serif', 'Lucida Grande', 'Verdana', 'Geneva', 'Lucid', 'Arial', 'Helvetica', 'Avant Garde', sans-serif; text-anchor: end" x="49.50625" y="19.778421" transform="rotate(-0 49.50625 19.778421)">0.175</text>
     </g>
    </g>
    <g id="text_17">
     <text style="font-size: 10px; font-family: 'DejaVu Sans', 'Bitstream Vera Sans', 'Computer Modern Sans Serif', 'Lucida Grande', 'Verdana', 'Geneva', 'Lucid', 'Arial', 'Helvetica', 'Avant Garde', sans-serif; text-anchor: middle" x="14.798438" y="85.22" transform="rotate(-90 14.798438 85.22)">batch fraction</text>
    </g>
   </g>
   <g id="line2d_29">
    <path d="M 65.370341 62.073011 
L 66.098398 24.887762 
L 66.462426 32.70516 
L 66.826454 62.829031 
L 67.190483 70.295698 
L 67.554511 69.983937 
L 68.282568 76.928405 
L 68.646596 83.038913 
L 69.010625 85.571968 
L 69.374653 80.638356 
L 69.738681 87.021655 
L 70.10271 76.226944 
L 70.466738 69.656588 
L 70.830767 68.682336 
L 71.194795 80.29542 
L 71.558823 79.65631 
L 71.922852 77.583102 
L 72.28688 80.326596 
L 72.650908 78.674264 
L 73.014937 72.400082 
L 73.378965 76.694584 
L 73.742994 71.098481 
L 74.107022 72.922281 
L 74.47105 76.943993 
L 74.835079 69.796881 
L 75.199107 80.521446 
L 75.927164 72.111703 
L 76.291192 74.746081 
L 76.655221 75.276074 
L 77.019249 70.069671 
L 77.383277 81.199526 
L 77.747306 76.414 
L 78.111334 77.949421 
L 78.475362 73.031397 
L 78.839391 79.087347 
L 79.203419 75.712539 
L 79.567447 81.44114 
L 79.931476 75.891801 
L 80.295504 72.618314 
L 80.659533 73.740653 
L 81.023561 78.611912 
L 81.751618 69.765705 
L 82.115646 61.659928 
L 82.843703 74.636964 
L 83.207731 75.120193 
L 83.57176 72.244202 
L 83.935788 71.129657 
L 84.299816 65.627082 
L 84.663845 57.061459 
L 85.027873 67.50544 
L 85.391901 61.846985 
L 85.75593 72.820959 
L 86.119958 65.097089 
L 86.483987 68.292636 
L 86.848015 65.221793 
L 87.212043 63.514904 
L 87.576072 59.54775 
L 87.9401 69.999525 
L 88.304128 62.587416 
L 88.668157 64.044897 
L 89.032185 56.819844 
L 89.760242 62.984911 
L 90.12427 60.6545 
L 90.488299 62.376978 
L 90.852327 58.71379 
L 91.216355 62.345802 
L 91.580384 54.67649 
L 91.944412 62.992705 
L 92.308441 57.217339 
L 92.672469 61.129935 
L 93.036497 54.177673 
L 93.400526 54.824576 
L 93.764554 56.57823 
L 94.492611 58.448794 
L 94.856639 46.375863 
L 95.220668 63.366818 
L 95.584696 53.109893 
L 95.948724 67.27162 
L 96.676781 46.531744 
L 97.040809 52.650046 
L 97.404838 50.039051 
L 97.768866 50.841834 
L 98.132895 50.709336 
L 98.496923 49.399941 
L 98.860951 55.752064 
L 99.22498 50.779482 
L 99.589008 56.079413 
L 99.953036 51.753734 
L 100.317065 53.031953 
L 100.681093 56.73411 
L 101.045122 49.158327 
L 101.40915 52.431814 
L 101.773178 51.722558 
L 102.137207 51.855056 
L 102.501235 51.013303 
L 102.865263 55.565008 
L 103.229292 49.431118 
L 103.59332 46.937033 
L 103.957349 54.013999 
L 104.321377 52.642252 
L 104.685405 62.603004 
L 105.049434 58.137033 
L 105.413462 51.449768 
L 105.77749 55.611772 
L 106.141519 52.439608 
L 106.505547 58.386442 
L 106.869576 45.401611 
L 107.233604 53.047541 
L 107.597632 45.72896 
L 107.961661 55.128543 
L 108.325689 46.625272 
L 108.689717 50.428752 
L 109.053746 46.695418 
L 109.417774 51.013303 
L 109.781803 50.748306 
L 110.145831 55.66633 
L 110.509859 48.643922 
L 110.873888 49.540234 
L 111.237916 51.777116 
L 111.601944 49.322001 
L 111.965973 53.904883 
L 112.69403 44.442948 
L 113.058058 49.002447 
L 113.422086 49.322001 
L 114.150143 46.375863 
L 114.514171 47.053943 
L 114.8782 48.113929 
L 115.242228 54.52061 
L 115.606257 49.329795 
L 115.970285 46.157631 
L 116.334313 49.189503 
L 116.698342 48.994653 
L 117.06237 42.034597 
L 117.426398 47.264381 
L 117.790427 40.756378 
L 118.154455 51.286093 
L 118.518484 50.779482 
L 118.882512 42.517826 
L 119.24654 50.226107 
L 119.610569 39.174193 
L 119.974597 47.66967 
L 120.338625 43.086789 
L 120.702654 40.421235 
L 121.066682 41.379899 
L 121.430711 46.843504 
L 121.794739 45.72896 
L 122.158767 35.71365 
L 122.522796 42.447679 
L 122.886824 42.291799 
L 123.250852 49.953317 
L 123.614881 48.745244 
L 123.978909 45.097645 
L 124.342938 43.320609 
L 124.706966 45.463964 
L 125.070994 55.62736 
L 125.435023 38.784492 
L 125.799051 48.230839 
L 126.163079 47.583936 
L 126.527108 49.579204 
L 126.891136 45.65102 
L 127.255165 44.006483 
L 127.619193 48.534806 
L 127.983221 47.326733 
L 128.34725 50.880804 
L 128.711278 47.451438 
L 129.075306 37.490686 
L 129.439335 43.047819 
L 129.803363 41.294165 
L 130.167391 47.194235 
L 130.53142 45.432788 
L 130.895448 42.704882 
L 131.259477 42.673706 
L 131.623505 43.016643 
L 131.987533 48.550394 
L 132.351562 46.952621 
L 132.71559 48.932301 
L 133.079618 37.007457 
L 133.443647 45.931605 
L 133.807675 42.938702 
L 134.171704 41.621514 
L 134.535732 37.646566 
L 134.89976 44.403977 
L 135.263789 42.852968 
L 135.627817 46.352481 
L 135.991845 46.110867 
L 136.355874 46.726594 
L 136.719902 45.908222 
L 137.083931 44.107805 
L 137.447959 50.608014 
L 138.540044 41.644896 
L 138.904072 47.942461 
L 139.268101 37.934944 
L 139.632129 47.014973 
L 139.996158 35.308361 
L 140.360186 44.832648 
L 141.088243 49.696114 
L 141.452271 40.66285 
L 141.816299 40.725202 
L 142.180328 45.799106 
L 142.544356 43.82722 
L 142.908385 52.704604 
L 143.272413 48.534806 
L 143.636441 46.60189 
L 144.00047 50.218313 
L 144.364498 38.675376 
L 144.728526 43.47649 
L 145.092555 40.732996 
L 145.456583 42.042391 
L 145.820612 54.762224 
L 146.548668 42.019009 
L 146.912697 49.984493 
L 147.276725 49.438912 
L 147.640753 47.685258 
L 148.004782 51.925203 
L 148.36881 45.440582 
L 148.732839 41.785188 
L 149.460895 48.254221 
L 149.824924 48.059371 
L 150.188952 46.52395 
L 150.55298 38.854638 
L 150.917009 51.74594 
L 151.281037 49.618174 
L 151.645066 45.588668 
L 152.009094 43.531048 
L 152.373122 40.351089 
L 152.737151 51.317269 
L 153.101179 53.109893 
L 153.829236 34.232787 
L 154.193264 48.285397 
L 154.557293 47.225411 
L 154.921321 45.222349 
L 155.285349 44.567652 
L 155.649378 48.534806 
L 156.013406 50.491104 
L 156.377434 43.382961 
L 156.741463 45.588668 
L 157.105491 45.791312 
L 157.46952 46.422628 
L 157.833548 48.277603 
L 158.197576 42.52562 
L 158.561605 55.845592 
L 158.925633 46.383657 
L 159.289661 47.732022 
L 159.65369 56.741904 
L 160.017718 47.848932 
L 160.381747 44.54427 
L 160.745775 48.300985 
L 161.109803 48.012607 
L 161.473832 51.621236 
L 161.83786 52.174611 
L 162.201888 45.752342 
L 162.565917 49.477882 
L 162.929945 44.263685 
L 163.293974 47.443644 
L 163.658002 52.915043 
L 164.02203 62.587416 
L 164.386059 53.164451 
L 164.750087 54.333553 
L 165.114115 51.247123 
L 165.478144 57.217339 
L 165.842172 50.966539 
L 166.206201 54.808988 
L 166.570229 57.116017 
L 166.934257 48.932301 
L 167.298286 45.619844 
L 167.662314 51.169183 
L 168.026342 52.010937 
L 168.390371 51.449768 
L 169.118428 55.43251 
L 169.482456 53.632092 
L 169.846484 54.458258 
L 170.210513 50.116991 
L 170.574541 49.929935 
L 170.938569 50.179343 
L 171.302598 52.704604 
L 172.030655 47.6307 
L 172.394683 59.976421 
L 172.758711 55.284423 
L 173.12274 53.920471 
L 173.486768 56.250881 
L 173.850796 52.346079 
L 174.214825 53.41386 
L 174.578853 52.026525 
L 174.942882 46.570714 
L 175.30691 59.212607 
L 175.670938 59.70363 
L 176.034967 53.187833 
L 176.763023 53.125481 
L 177.127052 50.87301 
L 177.49108 56.437938 
L 177.855109 56.69514 
L 178.219137 56.437938 
L 178.583165 63.140791 
L 178.947194 56.999107 
L 179.311222 56.46132 
L 179.67525 56.749698 
L 180.039279 58.581292 
L 180.403307 59.78157 
L 180.767335 62.431536 
L 181.131364 55.385746 
L 181.495392 57.217339 
L 182.223449 63.842253 
L 182.587477 61.504048 
L 182.951506 56.601612 
L 183.315534 56.53926 
L 183.679562 54.450464 
L 184.043591 62.088599 
L 184.407619 59.797158 
L 184.771648 62.049629 
L 185.135676 59.438634 
L 185.499704 65.307528 
L 185.863733 58.659232 
L 186.227761 61.581988 
L 186.591789 59.851717 
L 186.955818 68.245871 
L 187.319846 61.426108 
L 187.683875 58.893053 
L 188.047903 63.101821 
L 188.411931 62.984911 
L 188.77596 60.069949 
L 189.139988 62.4783 
L 189.504016 57.334249 
L 189.868045 56.398968 
L 190.232073 63.327848 
L 190.596102 62.688738 
L 190.96013 64.754152 
L 191.324158 66.016783 
L 191.688187 65.440026 
L 192.052215 63.101821 
L 192.416243 64.660624 
L 192.780272 63.670784 
L 193.1443 71.075099 
L 193.508329 69.266888 
L 193.872357 71.254362 
L 194.600414 66.920889 
L 194.964442 68.705718 
L 195.32847 72.45464 
L 195.692499 67.70029 
L 196.056527 71.410242 
L 196.420556 67.162503 
L 196.784584 68.035433 
L 197.148612 72.805371 
L 197.512641 69.828057 
L 197.876669 70.217757 
L 198.240697 64.847681 
L 198.604726 65.907667 
L 198.968754 74.325204 
L 199.332783 70.116435 
L 199.696811 73.023603 
L 200.060839 78.113095 
L 200.424868 75.728127 
L 200.788896 70.28011 
L 201.152924 75.961947 
L 201.516953 76.577674 
L 201.880981 70.700986 
L 202.24501 77.201196 
L 202.609038 77.941627 
L 202.973066 76.936199 
L 203.337095 70.864661 
L 203.701123 74.66814 
L 204.065151 80.435712 
L 204.42918 76.078857 
L 204.793208 80.272038 
L 205.157237 74.177117 
L 205.521265 74.691522 
L 205.885293 71.4648 
L 206.249322 79.079553 
L 206.61335 71.30892 
L 206.977378 77.279136 
L 207.341407 79.804397 
L 207.705435 83.467584 
L 208.433492 81.854223 
L 208.79752 82.953179 
L 209.161549 79.251022 
L 209.525577 79.141905 
L 209.889605 83.818315 
L 210.253634 82.35304 
L 210.617662 87.122977 
L 210.981691 88.315462 
L 211.345719 84.200222 
L 211.709747 78.806763 
L 212.437804 87.325622 
L 212.801832 86.250048 
L 213.165861 87.18533 
L 213.529889 86.078579 
L 214.257946 91.433068 
L 214.621974 86.951509 
L 214.986003 90.334112 
L 215.350031 83.397438 
L 216.078088 96.296534 
L 216.442116 89.063687 
L 217.170173 95.072874 
L 217.534201 95.080668 
L 217.89823 97.192846 
L 218.262258 94.137592 
L 218.626286 86.928127 
L 219.354343 102.282338 
L 219.718372 94.620821 
L 220.446428 99.110174 
L 220.810457 95.267724 
L 221.174485 100.887209 
L 221.538513 97.029171 
L 221.902542 95.517132 
L 222.26657 94.862435 
L 222.630599 108.626667 
L 222.994627 102.843507 
L 223.358655 103.389088 
L 223.722684 100.715741 
L 224.086712 99.593403 
L 224.45074 100.809269 
L 224.814769 101.596465 
L 225.178797 106.997718 
L 225.542826 110.684287 
L 225.906854 105.446708 
L 226.270882 107.387418 
L 226.634911 105.438914 
L 226.998939 118.02625 
L 227.362967 110.02959 
L 227.726996 109.608713 
L 228.091024 110.621935 
L 228.455053 108.977398 
L 228.819081 106.810661 
L 229.183109 117.605373 
L 229.547138 116.077746 
L 229.911166 119.662993 
L 230.275194 109.554155 
L 231.367279 121.556939 
L 231.731308 120.629451 
L 232.095336 121.338706 
L 232.459365 126.576285 
L 233.187421 122.97545 
L 233.55145 125.555269 
L 233.915478 121.806347 
L 234.279506 129.023606 
L 234.643535 129.234044 
L 235.007563 126.17879 
L 235.371592 128.579347 
L 235.73562 133.887072 
L 236.099648 134.152068 
L 236.463677 139.04671 
L 236.827705 133.396049 
L 237.191733 138.695979 
L 237.555762 136.466891 
L 237.91979 141.314769 
L 238.283819 140.527573 
L 238.647847 145.663829 
L 239.011875 140.387281 
L 239.375904 145.928826 
L 239.739932 142.686515 
L 240.10396 151.524929 
L 240.467989 151.556105 
L 240.832017 154.12813 
L 241.196046 154.969884 
L 241.560074 154.665918 
L 241.924102 155.281645 
L 242.288131 155.647964 
L 242.652159 155.647964 
L 242.652159 155.647964 
" clip-path="url(#p2f83561cc0)" style="fill: none; stroke: #c0392b; stroke-width: 1.5; stroke-linecap: square"/>
   </g>
   <g id="line2d_30">
    <path d="M 65.370341 115.165846 
L 66.098398 102.352484 
L 66.462426 105.111566 
L 67.190483 117.246848 
L 67.91854 118.283452 
L 68.282568 118.33801 
L 68.646596 121.11268 
L 69.010625 119.382408 
L 69.374653 119.265498 
L 69.738681 121.003564 
L 70.10271 119.070648 
L 70.466738 112.250884 
L 70.830767 111.791037 
L 71.194795 117.03641 
L 71.558823 115.656869 
L 71.922852 116.825971 
L 72.28688 115.009966 
L 72.650908 117.659931 
L 73.014937 113.973362 
L 73.378965 116.030982 
L 73.742994 113.318664 
L 74.107022 117.862575 
L 74.47105 115.259374 
L 74.835079 114.900849 
L 75.199107 116.849353 
L 75.563135 117.644343 
L 75.927164 114.246152 
L 76.291192 115.688045 
L 76.655221 114.705999 
L 77.019249 114.877467 
L 77.383277 118.236688 
L 77.747306 120.107252 
L 78.111334 113.872039 
L 78.475362 118.953738 
L 78.839391 118.540655 
L 79.203419 117.083174 
L 79.567447 118.10419 
L 79.931476 115.126876 
L 80.295504 115.493195 
L 80.659533 118.345804 
L 81.387589 118.587419 
L 81.751618 113.209548 
L 82.115646 111.354572 
L 82.479674 114.846291 
L 82.843703 115.469813 
L 83.207731 117.808017 
L 83.57176 113.981156 
L 83.935788 117.098762 
L 84.299816 111.471483 
L 84.663845 111.035018 
L 85.027873 113.521309 
L 85.391901 113.412192 
L 85.75593 116.740237 
L 86.119958 111.011636 
L 86.483987 114.667029 
L 87.212043 113.34984 
L 87.576072 110.949283 
L 87.9401 115.002172 
L 88.668157 110.988254 
L 89.032185 110.021796 
L 89.396214 107.317272 
L 89.760242 111.066194 
L 90.12427 111.783243 
L 90.488299 110.232234 
L 90.852327 109.585331 
L 91.580384 110.333556 
L 91.944412 114.137036 
L 92.308441 111.40913 
L 92.672469 113.529103 
L 93.036497 106.631399 
L 93.400526 110.489437 
L 93.764554 112.118386 
L 94.128582 111.557217 
L 94.492611 110.395908 
L 94.856639 103.404676 
L 95.220668 112.780877 
L 95.584696 111.681921 
L 95.948724 112.414558 
L 96.312753 110.715463 
L 96.676781 107.597857 
L 97.040809 106.911983 
L 97.404838 108.774753 
L 97.768866 107.4108 
L 98.132895 108.883869 
L 98.496923 107.286096 
L 98.860951 110.723257 
L 99.22498 106.576841 
L 99.589008 111.042812 
L 99.953036 107.574475 
L 100.681093 110.575171 
L 101.045122 107.855059 
L 101.40915 113.162784 
L 101.773178 108.299318 
L 102.137207 108.073292 
L 102.501235 109.491803 
L 102.865263 107.652415 
L 103.229292 108.611079 
L 103.59332 105.368768 
L 103.957349 108.501963 
L 104.321377 108.08888 
L 104.685405 112.827641 
L 105.049434 110.232234 
L 105.413462 106.545665 
L 105.77749 110.278998 
L 106.141519 106.039054 
L 106.505547 112.874405 
L 106.869576 106.857425 
L 107.233604 109.024162 
L 107.597632 104.940097 
L 107.961661 109.554155 
L 108.325689 110.551789 
L 108.689717 108.774753 
L 109.053746 108.018734 
L 109.417774 110.037384 
L 109.781803 108.883869 
L 110.145831 111.892359 
L 110.509859 102.095282 
L 110.873888 107.262714 
L 111.237916 108.478581 
L 111.601944 107.660209 
L 111.965973 110.076354 
L 112.330001 104.028198 
L 112.69403 106.491107 
L 113.422086 104.503633 
L 113.786115 106.662575 
L 114.514171 108.018734 
L 114.8782 107.403006 
L 115.242228 107.948587 
L 115.606257 107.106834 
L 115.970285 103.505999 
L 116.698342 108.431816 
L 117.06237 103.630703 
L 117.426398 105.415532 
L 117.790427 103.903493 
L 118.154455 108.533139 
L 118.518484 105.47009 
L 118.882512 104.893333 
L 119.24654 106.919777 
L 119.610569 104.05158 
L 119.974597 109.702241 
L 120.338625 104.854363 
L 120.702654 104.160696 
L 121.066682 104.612749 
L 121.430711 107.29389 
L 121.794739 105.742881 
L 122.158767 100.785887 
L 122.522796 104.160696 
L 122.886824 102.812331 
L 123.250852 107.06007 
L 123.614881 106.14817 
L 123.978909 106.428754 
L 124.342938 104.581573 
L 124.706966 107.223744 
L 125.070994 107.067864 
L 125.435023 101.783521 
L 125.799051 107.808295 
L 126.163079 104.184078 
L 126.527108 106.771691 
L 127.255165 103.116298 
L 127.619193 106.140376 
L 127.983221 105.228476 
L 128.34725 105.719499 
L 129.075306 105.719499 
L 129.439335 104.082756 
L 129.803363 106.116994 
L 130.167391 103.046152 
L 130.53142 102.968211 
L 130.895448 104.550397 
L 131.259477 101.183382 
L 131.623505 101.43279 
L 131.987533 105.805233 
L 132.351562 104.238636 
L 132.71559 103.841141 
L 133.079618 101.136618 
L 133.443647 104.799805 
L 133.807675 103.872317 
L 134.535732 99.858399 
L 134.89976 104.604955 
L 135.263789 102.523953 
L 135.991845 106.249492 
L 136.355874 103.661879 
L 136.719902 103.716437 
L 137.083931 106.709339 
L 137.811987 108.681225 
L 138.176016 102.181016 
L 138.540044 101.705581 
L 138.904072 105.742881 
L 139.268101 99.959721 
L 139.632129 102.297926 
L 139.996158 102.477188 
L 140.360186 101.970577 
L 140.724214 104.308782 
L 141.088243 105.672735 
L 141.452271 99.367376 
L 141.816299 101.736757 
L 142.180328 100.36501 
L 142.544356 99.780459 
L 142.908385 108.330494 
L 143.272413 106.023466 
L 143.636441 106.218316 
L 144.00047 105.664941 
L 144.364498 99.757077 
L 144.728526 103.420264 
L 145.092555 100.318246 
L 145.456583 98.821795 
L 145.820612 106.078024 
L 146.18464 102.196604 
L 146.548668 101.136618 
L 146.912697 105.883173 
L 147.276725 108.073292 
L 148.004782 104.589367 
L 148.36881 102.866889 
L 148.732839 106.608017 
L 149.096867 103.778789 
L 149.460895 102.976005 
L 149.824924 103.856729 
L 150.188952 104.254224 
L 150.55298 100.957355 
L 150.917009 104.721865 
L 151.281037 105.345386 
L 151.645066 104.534809 
L 152.009094 100.980737 
L 152.373122 100.653389 
L 152.737151 106.997718 
L 153.465207 106.935365 
L 153.829236 97.808573 
L 154.193264 105.134948 
L 154.557293 104.690689 
L 154.921321 100.762505 
L 155.285349 102.601893 
L 155.649378 101.869255 
L 156.013406 105.844203 
L 156.377434 102.243368 
L 156.741463 100.676771 
L 157.105491 99.741489 
L 157.46952 100.801475 
L 157.833548 106.350814 
L 158.197576 103.311148 
L 158.561605 108.307112 
L 158.925633 103.33453 
L 159.289661 104.262018 
L 159.65369 108.424022 
L 160.017718 101.167794 
L 160.381747 101.651023 
L 160.745775 101.456172 
L 161.109803 102.219986 
L 161.473832 104.698483 
L 161.83786 105.15833 
L 162.201888 105.961113 
L 162.565917 105.719499 
L 162.929945 108.455198 
L 163.293974 102.009547 
L 163.658002 108.735783 
L 164.02203 109.39048 
L 164.386059 106.311844 
L 164.750087 107.286096 
L 165.114115 106.553459 
L 165.478144 109.671065 
L 165.842172 106.865219 
L 166.206201 109.016368 
L 166.570229 108.260348 
L 166.934257 106.38199 
L 167.298286 106.639193 
L 167.662314 108.346082 
L 168.026342 105.813027 
L 168.390371 105.836409 
L 169.118428 104.534809 
L 169.482456 105.462296 
L 169.846484 107.145804 
L 170.210513 104.830981 
L 170.574541 104.308782 
L 170.938569 107.621239 
L 171.302598 109.328128 
L 171.666626 105.08039 
L 172.030655 103.552763 
L 172.394683 109.187836 
L 172.758711 107.917411 
L 173.486768 108.844899 
L 173.850796 106.553459 
L 174.214825 109.03975 
L 174.578853 103.521587 
L 174.942882 105.859791 
L 175.30691 110.286792 
L 175.670938 109.335922 
L 176.034967 105.509061 
L 176.398995 106.974335 
L 176.763023 106.802867 
L 177.127052 103.903493 
L 177.49108 107.379624 
L 177.855109 106.615811 
L 178.219137 106.841837 
L 178.583165 111.089576 
L 178.947194 107.169186 
L 179.311222 110.177676 
L 179.67525 111.448101 
L 180.039279 108.954015 
L 180.403307 110.676493 
L 180.767335 110.162088 
L 181.131364 107.995352 
L 181.495392 107.387418 
L 181.859421 110.637523 
L 182.223449 112.710731 
L 182.587477 109.180042 
L 182.951506 110.099736 
L 183.315534 105.719499 
L 183.679562 109.764593 
L 184.043591 107.21595 
L 184.407619 111.915741 
L 184.771648 108.930633 
L 185.135676 110.988254 
L 185.863733 112.952346 
L 186.227761 111.13634 
L 186.591789 110.247822 
L 186.955818 112.702937 
L 187.319846 111.705303 
L 187.683875 108.938427 
L 188.047903 111.455895 
L 188.411931 112.367794 
L 188.77596 108.564315 
L 189.139988 109.561949 
L 189.868045 104.394516 
L 190.232073 111.861183 
L 190.596102 110.356938 
L 190.96013 112.04824 
L 191.324158 115.508783 
L 191.688187 112.017064 
L 192.052215 111.744273 
L 192.416243 114.830703 
L 192.780272 109.00078 
L 193.1443 114.581295 
L 193.508329 113.677189 
L 193.872357 116.966264 
L 194.236385 114.347474 
L 194.600414 114.815115 
L 194.964442 114.589089 
L 195.32847 112.500293 
L 195.692499 114.550119 
L 196.056527 113.11602 
L 196.420556 110.949283 
L 196.784584 116.288184 
L 197.148612 114.176006 
L 197.512641 117.059792 
L 197.876669 114.004538 
L 198.240697 112.773083 
L 198.968754 115.477607 
L 199.332783 114.721587 
L 200.424868 117.613167 
L 200.788896 113.903215 
L 201.152924 119.031678 
L 201.516953 118.790063 
L 201.880981 113.264106 
L 202.24501 116.872735 
L 202.609038 117.11435 
L 202.973066 118.119778 
L 203.337095 117.07538 
L 203.701123 117.067586 
L 204.065151 115.96863 
L 204.42918 115.469813 
L 204.793208 118.556243 
L 205.157237 118.540655 
L 205.521265 115.836131 
L 205.885293 115.758191 
L 206.249322 118.26007 
L 206.61335 116.529799 
L 207.341407 120.559305 
L 207.705435 116.599945 
L 208.069464 119.881225 
L 208.433492 120.855477 
L 208.79752 119.436967 
L 209.161549 116.677885 
L 209.525577 117.23126 
L 209.889605 122.850745 
L 210.253634 122.125902 
L 210.617662 122.679277 
L 210.981691 121.362088 
L 211.345719 121.182826 
L 211.709747 115.384078 
L 212.073776 119.569465 
L 212.437804 121.097092 
L 212.801832 120.637245 
L 213.165861 123.419709 
L 213.529889 121.362088 
L 213.893918 123.848379 
L 214.257946 123.489855 
L 214.621974 119.561671 
L 214.986003 124.245874 
L 215.350031 119.133 
L 215.714059 124.105582 
L 216.078088 126.241142 
L 216.442116 123.895144 
L 216.806145 126.030704 
L 217.170173 122.874128 
L 217.534201 124.409549 
L 217.89823 128.704051 
L 218.262258 127.098484 
L 218.626286 121.821935 
L 218.990315 124.713515 
L 219.354343 129.475659 
L 219.718372 128.181852 
L 220.0824 123.879556 
L 220.446428 128.033766 
L 220.810457 128.672875 
L 221.174485 127.425833 
L 221.538513 125.750119 
L 221.902542 126.93481 
L 222.26657 122.172666 
L 222.630599 135.671901 
L 222.994627 127.262158 
L 223.358655 129.210662 
L 223.722684 129.171692 
L 224.45074 127.472597 
L 225.178797 130.239472 
L 225.542826 132.375033 
L 225.906854 130.449911 
L 226.270882 133.279138 
L 226.634911 127.402451 
L 226.998939 136.630565 
L 227.362967 133.014142 
L 227.726996 132.546501 
L 228.091024 133.801338 
L 228.455053 133.388255 
L 228.819081 130.675937 
L 229.183109 136.459097 
L 229.547138 136.007044 
L 229.911166 137.230704 
L 230.275194 133.567517 
L 230.639223 133.154434 
L 231.003251 137.93996 
L 231.367279 136.451303 
L 231.731308 137.893196 
L 232.095336 137.667169 
L 232.823393 142.460489 
L 233.187421 137.472319 
L 233.55145 142.289021 
L 233.915478 137.78408 
L 234.279506 141.595353 
L 234.643535 142.780044 
L 235.007563 139.607879 
L 235.371592 141.034184 
L 235.73562 144.923398 
L 236.099648 144.268701 
L 236.463677 146.061324 
L 236.827705 144.081644 
L 237.191733 146.419849 
L 237.555762 145.391039 
L 237.91979 148.578791 
L 238.283819 149.178931 
L 238.647847 149.249077 
L 239.011875 147.534393 
L 239.375904 150.955966 
L 239.739932 149.288047 
L 240.10396 153.785194 
L 240.467989 153.387699 
L 240.832017 154.930914 
L 241.196046 155.234881 
L 241.924102 155.421937 
L 242.288131 155.647964 
L 242.652159 155.647964 
L 242.652159 155.647964 
" clip-path="url(#p2f83561cc0)" style="fill: none; stroke: #1f77b4; stroke-width: 1.5; stroke-linecap: square"/>
   </g>
   <g id="patch_3">
    <path d="M 56.50625 163.24 
L 56.50625 7.2 
" style="fill: none; stroke: #000000; stroke-width: 0.8; stroke-linejoin: miter; stroke-linecap: square"/>
   </g>
   <g id="patch_4">
    <path d="M 251.51625 163.24 
L 251.51625 7.2 
" style="fill: none; stroke: #000000; stroke-width: 0.8; stroke-linejoin: miter; stroke-linecap: square"/>
   </g>
   <g id="patch_5">
    <path d="M 56.50625 163.24 
L 251.51625 163.24 
" style="fill: none; stroke: #000000; stroke-width: 0.8; stroke-linejoin: miter; stroke-linecap: square"/>
   </g>
   <g id="patch_6">
    <path d="M 56.50625 7.2 
L 251.51625 7.2 
" style="fill: none; stroke: #000000; stroke-width: 0.8; stroke-linejoin: miter; stroke-linecap: square"/>
   </g>
   <g id="legend_1">
    <g id="patch_7">
     <path d="M 209.04345 33.833334 
L 246.65825 33.833334 
Q 248.04625 33.833334 248.04625 32.445334 
L 248.04625 12.058 
Q 248.04625 10.67 246.65825 10.67 
L 209.04345 10.67 
Q 207.65545 10.67 207.65545 12.058 
L 207.65545 32.445334 
Q 207.65545 33.833334 209.04345 33.833334 
z
" style="fill: #ffffff; opacity: 0.8; stroke: #cccccc; stroke-linejoin: miter"/>
    </g>
    <g id="line2d_31">
     <path d="M 210.43145 16.290316 
L 217.37145 16.290316 
L 224.31145 16.290316 
" style="fill: none; stroke: #c0392b; stroke-width: 1.5; stroke-linecap: square"/>
    </g>
    <g id="text_18">
     <!-- $\mathcal{I}_{\mathrm{kill}}$ -->
     <g transform="translate(229.86345 18.719316)">
      <text>
       <tspan x="0" y="-0.40625" style="font-style: italic; font-size: 6.94px; font-family: 'STIXNonUnicode'"></tspan>
       <tspan x="4.055505" y="0.732812" style="font-size: 4.858px; font-family: 'DejaVu Sans'">k</tspan>
       <tspan x="6.867767" y="0.732812" style="font-size: 4.858px; font-family: 'DejaVu Sans'">i</tspan>
       <tspan x="8.216989" y="0.732812" style="font-size: 4.858px; font-family: 'DejaVu Sans'">l</tspan>
       <tspan x="9.56621" y="0.732812" style="font-size: 4.858px; font-family: 'DejaVu Sans'">l</tspan>
      </text>
     </g>
    </g>
    <g id="line2d_32">
     <path d="M 210.43145 26.476934 
L 217.37145 26.476934 
L 224.31145 26.476934 
" style="fill: none; stroke: #1f77b4; stroke-width: 1.5; stroke-linecap: square"/>
    </g>
    <g id="text_19">
     <!-- $\mathcal{I}_{\mathrm{pass}}$ -->
     <g transform="translate(229.86345 28.905934)">
      <text>
       <tspan x="0" y="-0.40625" style="font-style: italic; font-size: 6.94px; font-family: 'STIXNonUnicode'"></tspan>
       <tspan x="4.055505" y="0.732812" style="font-size: 4.858px; font-family: 'DejaVu Sans'">p</tspan>
       <tspan x="7.138085" y="0.732812" style="font-size: 4.858px; font-family: 'DejaVu Sans'">a</tspan>
       <tspan x="10.113961" y="0.732812" style="font-size: 4.858px; font-family: 'DejaVu Sans'">s</tspan>
       <tspan x="12.644048" y="0.732812" style="font-size: 4.858px; font-family: 'DejaVu Sans'">s</tspan>
      </text>
     </g>
    </g>
   </g>
  </g>
 </g>
 <defs>
  <clipPath id="p2f83561cc0">
   <rect x="56.50625" y="7.2" width="195.01" height="156.04"/>
  </clipPath>
 </defs>
</svg>
