<?xml version="1.0" encoding="utf-8" standalone="no"?>
<!DOCTYPE svg PUBLIC "-//W3C//DTD SVG 1.1//EN"
  "http://www.w3.org/Graphics/SVG/1.1/DTD/svg11.dtd">
<svg xmlns:xlink="http://www.w3.org/1999/xlink" width="258.74375pt" height="200.79625pt" viewBox="0 0 258.74375 200.79625" xmlns="http://www.w3.org/2000/svg" version="1.1">
 <metadata>
  <rdf:RDF xmlns:dc="http://purl.org/dc/elements/1.1/" xmlns:cc="http://creativecommons.org/ns#" xmlns:rdf="http://www.w3.org/1999/02/22-rdf-syntax-ns#">
   <cc:Work>
    <dc:type rdf:resource="http://purl.org/dc/dcmitype/StillImage"/>
    <dc:format>image/svg+xml</dc:format>
    <dc:creator>
     <cc:Agent>
      <dc:title>Matplotlib v3.10.9, https://matplotlib.org/</dc:title>
     </cc:Agent>
    </dc:creator>
   </cc:Work>
  </rdf:RDF>
 </metadata>
 <defs>
  <style type="text/css">*{stroke-linejoin: round; stroke-linecap: butt}</style>
 </defs>
 <g id="figure_1">
  <g id="patch_1">
   <path d="M 0 200.79625 
L 258.74375 200.79625 
L 258.74375 0 
L 0 0 
z
" style="fill: #ffffff"/>
  </g>
  <g id="axes_1">
   <g id="patch_2">
    <path d="M 50.14375 163.24 
L 251.54375 163.24 
L 251.54375 7.2 
L 50.14375 7.2 
z
" style="fill: #ffffff"/>
   </g>
   <g id="FillBetweenPolyCollection_1">
    <defs>
     <path id="m86f9d7273a" d="M 59.298295 -107.944047 
L 59.298295 -102.75267 
L 59.674252 -99.180319 
L 60.050209 -103.995929 
L 60.426166 -104.833628 
L 60.802122 -108.943032 
L 61.178079 -106.902173 
L 61.554036 -112.729837 
L 61.929992 -110.094945 
L 62.305949 -111.239897 
L 62.681906 -110.206365 
L 63.057862 -109.530163 
L 63.433819 -122.41053 
L 63.809776 -112.484137 
L 64.185732 -114.256533 
L 64.561689 -116.370128 
L 64.937646 -115.830148 
L 65.313603 -117.834405 
L 65.689559 -114.933721 
L 66.065516 -119.267664 
L 66.441473 -113.996594 
L 66.817429 -119.173752 
L 67.193386 -121.021739 
L 67.569343 -122.400459 
L 67.945299 -125.469446 
L 68.321256 -122.656634 
L 68.697213 -120.028252 
L 69.073169 -124.342196 
L 69.449126 -128.036958 
L 69.825083 -120.684407 
L 70.20104 -125.215695 
L 70.576996 -124.642753 
L 70.952953 -122.266597 
L 71.32891 -125.956508 
L 71.704866 -122.411315 
L 72.080823 -124.659065 
L 72.45678 -124.51567 
L 72.832736 -121.340908 
L 73.208693 -127.652673 
L 73.58465 -127.362937 
L 73.960606 -126.236707 
L 74.336563 -128.782157 
L 74.71252 -130.186034 
L 75.088477 -125.958794 
L 75.464433 -133.387778 
L 75.84039 -129.952525 
L 76.216347 -134.602035 
L 76.592303 -129.380552 
L 76.96826 -131.880432 
L 77.344217 -133.166215 
L 77.720173 -126.922941 
L 78.09613 -134.346239 
L 78.472087 -134.587183 
L 78.848043 -132.440727 
L 79.224 -134.421601 
L 79.599957 -136.282354 
L 79.975914 -135.713745 
L 80.35187 -132.014243 
L 80.727827 -129.800294 
L 81.103784 -135.423192 
L 81.47974 -138.360164 
L 81.855697 -139.182193 
L 82.231654 -140.121393 
L 82.60761 -137.306703 
L 82.983567 -140.035532 
L 83.359524 -142.209135 
L 83.73548 -138.659301 
L 84.111437 -139.296295 
L 84.487394 -137.177307 
L 84.863351 -138.383745 
L 85.239307 -143.607565 
L 85.615264 -141.783135 
L 85.991221 -139.580554 
L 86.367177 -144.202405 
L 86.743134 -134.491834 
L 87.119091 -139.43617 
L 87.495047 -141.122752 
L 87.871004 -141.174475 
L 88.246961 -146.816719 
L 88.622917 -146.011453 
L 88.998874 -146.320499 
L 89.374831 -146.649423 
L 89.750788 -146.715879 
L 90.126744 -141.043261 
L 90.502701 -149.020367 
L 90.878658 -147.033617 
L 91.254614 -148.577766 
L 91.630571 -147.403793 
L 92.006528 -143.938298 
L 92.382484 -148.97907 
L 92.758441 -150.867701 
L 93.134398 -152.008154 
L 93.510354 -144.121477 
L 93.886311 -146.925858 
L 94.262268 -149.598652 
L 94.638225 -148.163532 
L 95.014181 -151.210552 
L 95.390138 -152.328566 
L 95.766095 -146.909129 
L 96.142051 -155.15243 
L 96.518008 -154.201175 
L 96.893965 -154.438278 
L 97.269921 -151.763008 
L 97.645878 -154.95188 
L 98.021835 -153.460745 
L 98.397791 -152.629943 
L 98.773748 -147.491 
L 99.149705 -156.811511 
L 99.525662 -155.2945 
L 99.901618 -156.774935 
L 100.277575 -156.376076 
L 100.653532 -159.26711 
L 101.029488 -154.888453 
L 101.405445 -155.757167 
L 101.781402 -152.519465 
L 102.157358 -150.202776 
L 102.533315 -157.757545 
L 102.909272 -153.362364 
L 103.285228 -160.031448 
L 103.661185 -154.512221 
L 104.037142 -154.443006 
L 104.413099 -158.488516 
L 104.789055 -156.354189 
L 105.165012 -159.775473 
L 105.540969 -162.385757 
L 105.916925 -155.41487 
L 106.292882 -156.711469 
L 106.668839 -158.581662 
L 107.044795 -160.067483 
L 107.420752 -156.139701 
L 107.796709 -160.415046 
L 108.172665 -154.518242 
L 108.548622 -160.865031 
L 108.924579 -158.452608 
L 109.300536 -163.678119 
L 109.676492 -161.238601 
L 110.052449 -158.639051 
L 110.428406 -152.93147 
L 110.804362 -161.207289 
L 111.180319 -166.084084 
L 111.556276 -157.346256 
L 111.932232 -160.922569 
L 112.308189 -155.815096 
L 112.684146 -166.621215 
L 113.060102 -158.995268 
L 113.436059 -163.698169 
L 113.812016 -161.386801 
L 114.187973 -161.752562 
L 114.563929 -162.061038 
L 114.939886 -163.295026 
L 115.315843 -161.915473 
L 115.691799 -160.430943 
L 116.067756 -159.143357 
L 116.443713 -162.229263 
L 116.819669 -159.518621 
L 117.195626 -172.330219 
L 117.571583 -168.053274 
L 117.947539 -159.100494 
L 118.323496 -160.333063 
L 118.699453 -160.594345 
L 119.07541 -168.080576 
L 119.451366 -158.054109 
L 119.827323 -166.524662 
L 120.20328 -160.752143 
L 120.579236 -164.044111 
L 120.955193 -164.982426 
L 121.33115 -164.810571 
L 121.707106 -162.547216 
L 122.083063 -162.764698 
L 122.45902 -161.66129 
L 122.834976 -163.594455 
L 123.210933 -164.522532 
L 123.58689 -166.00518 
L 123.962847 -161.399046 
L 124.338803 -167.4598 
L 124.71476 -160.755582 
L 125.090717 -170.147625 
L 125.466673 -164.264233 
L 125.84263 -162.950671 
L 126.218587 -164.086354 
L 126.594543 -159.153694 
L 126.9705 -158.972862 
L 127.346457 -163.335146 
L 127.722413 -164.886809 
L 128.09837 -160.802617 
L 128.474327 -159.820006 
L 128.850284 -169.107956 
L 129.22624 -159.255617 
L 129.602197 -165.689232 
L 129.978154 -166.700409 
L 130.35411 -166.003677 
L 130.730067 -167.020067 
L 131.106024 -169.98724 
L 131.48198 -167.638002 
L 131.857937 -163.711974 
L 132.233894 -164.03774 
L 132.60985 -161.798662 
L 132.985807 -160.424325 
L 133.361764 -165.665295 
L 133.737721 -162.237323 
L 134.113677 -164.989932 
L 134.489634 -165.225801 
L 134.865591 -161.494753 
L 135.241547 -161.412002 
L 135.617504 -170.430701 
L 135.993461 -164.326924 
L 136.369417 -160.834955 
L 136.745374 -158.163661 
L 137.121331 -167.803926 
L 137.497287 -165.332726 
L 137.873244 -164.08639 
L 138.249201 -168.117727 
L 138.625158 -161.008332 
L 139.001114 -168.266027 
L 139.377071 -168.512184 
L 139.753028 -169.615563 
L 140.128984 -166.484309 
L 140.504941 -161.283113 
L 140.880898 -159.629415 
L 141.256854 -169.75353 
L 141.632811 -160.747648 
L 142.008768 -172.888128 
L 142.384724 -159.622796 
L 142.760681 -170.061808 
L 143.136638 -163.320683 
L 143.512595 -167.79872 
L 143.888551 -162.969573 
L 144.264508 -169.552047 
L 144.640465 -166.672459 
L 145.016421 -163.209553 
L 145.392378 -176.340046 
L 145.768335 -165.848837 
L 146.144291 -167.080761 
L 146.520248 -168.925525 
L 146.896205 -169.725584 
L 147.272161 -162.398113 
L 147.648118 -166.968668 
L 148.024075 -173.101315 
L 148.400032 -166.161852 
L 148.775988 -164.187886 
L 149.151945 -167.443644 
L 149.527902 -169.751507 
L 149.903858 -163.728816 
L 150.279815 -164.758297 
L 150.655772 -161.916481 
L 151.031728 -168.577762 
L 151.407685 -168.063313 
L 151.783642 -167.047915 
L 152.159598 -166.745642 
L 152.535555 -162.717489 
L 152.911512 -156.49285 
L 153.287468 -166.632444 
L 153.663425 -161.475495 
L 154.039382 -164.349199 
L 154.415339 -156.455311 
L 154.791295 -164.925251 
L 155.167252 -160.492359 
L 155.543209 -161.068141 
L 155.919165 -158.130541 
L 156.295122 -161.437463 
L 156.671079 -171.152823 
L 157.047035 -162.419304 
L 157.422992 -165.316664 
L 157.798949 -162.49813 
L 158.174905 -168.949706 
L 158.550862 -166.776052 
L 158.926819 -159.833096 
L 159.302776 -167.039442 
L 159.678732 -163.838243 
L 160.054689 -165.08485 
L 160.430646 -166.127102 
L 160.806602 -166.078718 
L 161.182559 -157.642303 
L 161.558516 -162.119667 
L 161.934472 -164.952191 
L 162.310429 -167.682589 
L 162.686386 -167.674337 
L 163.062342 -164.46628 
L 163.438299 -161.53472 
L 163.814256 -162.44974 
L 164.190213 -164.272924 
L 164.566169 -157.773253 
L 164.942126 -156.295367 
L 165.318083 -153.995569 
L 165.694039 -155.896652 
L 166.069996 -158.91158 
L 166.445953 -151.47779 
L 166.821909 -153.053604 
L 167.197866 -159.752796 
L 167.573823 -162.831891 
L 167.949779 -155.770762 
L 168.325736 -162.201569 
L 168.701693 -164.166957 
L 169.07765 -161.74932 
L 169.453606 -157.346619 
L 169.829563 -153.797673 
L 170.20552 -150.707425 
L 170.581476 -153.415053 
L 170.957433 -160.517954 
L 171.33339 -156.131108 
L 171.709346 -158.081044 
L 172.085303 -155.822686 
L 172.46126 -162.032165 
L 172.837216 -169.569586 
L 173.213173 -164.786841 
L 173.58913 -153.430991 
L 173.965087 -158.521268 
L 174.341043 -160.663773 
L 174.717 -162.174649 
L 175.092957 -159.153476 
L 175.468913 -153.349936 
L 175.84487 -156.762785 
L 176.220827 -150.656463 
L 176.596783 -158.368586 
L 176.97274 -154.679176 
L 177.348697 -150.1135 
L 177.724653 -154.12199 
L 178.10061 -155.503542 
L 178.476567 -153.824219 
L 178.852524 -143.905967 
L 179.22848 -148.223941 
L 179.604437 -155.162981 
L 179.980394 -149.805591 
L 180.35635 -152.387404 
L 180.732307 -152.690308 
L 181.108264 -159.135407 
L 181.48422 -154.76311 
L 181.860177 -149.438443 
L 182.236134 -155.434198 
L 182.61209 -156.32986 
L 182.988047 -142.012532 
L 183.364004 -149.496878 
L 183.739961 -153.125221 
L 184.115917 -144.324744 
L 184.491874 -139.093973 
L 184.867831 -149.40486 
L 185.243787 -153.410172 
L 185.619744 -150.850893 
L 185.995701 -149.87912 
L 186.371657 -152.770323 
L 186.747614 -150.128719 
L 187.123571 -148.290818 
L 187.499527 -151.425447 
L 187.875484 -154.175166 
L 188.251441 -156.380923 
L 188.627398 -149.761527 
L 189.003354 -155.091068 
L 189.379311 -149.392111 
L 189.755268 -148.540339 
L 190.131224 -145.940032 
L 190.507181 -147.658336 
L 190.883138 -143.756763 
L 191.259094 -142.826389 
L 191.635051 -149.148707 
L 192.011008 -147.592865 
L 192.386964 -147.125466 
L 192.762921 -139.536602 
L 193.138878 -145.859313 
L 193.514835 -142.118498 
L 193.890791 -145.312138 
L 194.266748 -138.63423 
L 194.642705 -146.659085 
L 195.018661 -142.697314 
L 195.394618 -139.977577 
L 195.770575 -138.804105 
L 196.146531 -138.541159 
L 196.522488 -142.238432 
L 196.898445 -141.95749 
L 197.274401 -144.49394 
L 197.650358 -141.753647 
L 198.026315 -134.600343 
L 198.402272 -141.882759 
L 198.778228 -140.490906 
L 199.154185 -131.718714 
L 199.530142 -134.374546 
L 199.906098 -132.994392 
L 200.282055 -133.391943 
L 200.658012 -136.759183 
L 201.033968 -138.816158 
L 201.409925 -133.94334 
L 201.785882 -133.814872 
L 202.161838 -123.238087 
L 202.537795 -136.773816 
L 202.913752 -130.317187 
L 203.289709 -133.4588 
L 203.665665 -128.561368 
L 204.041622 -133.335925 
L 204.417579 -132.50342 
L 204.793535 -133.646184 
L 205.169492 -119.779568 
L 205.545449 -128.074679 
L 205.921405 -128.726186 
L 206.297362 -125.947436 
L 206.673319 -124.063193 
L 207.049275 -133.62411 
L 207.425232 -126.835853 
L 207.801189 -126.971258 
L 208.177146 -133.746193 
L 208.553102 -132.554391 
L 208.929059 -128.22198 
L 209.305016 -127.242311 
L 209.680972 -122.940384 
L 210.056929 -113.804241 
L 210.432886 -120.783152 
L 210.808842 -127.680605 
L 211.184799 -121.739183 
L 211.560756 -125.547292 
L 211.936712 -114.14654 
L 212.312669 -119.341525 
L 212.688626 -114.103934 
L 213.064583 -121.418657 
L 213.440539 -112.141897 
L 213.816496 -123.432216 
L 214.192453 -119.294661 
L 214.568409 -121.193657 
L 214.944366 -115.957149 
L 215.320323 -114.962096 
L 215.696279 -118.518946 
L 216.072236 -110.388301 
L 216.448193 -118.427786 
L 216.824149 -115.287123 
L 217.200106 -116.143725 
L 217.576063 -118.371859 
L 217.95202 -114.534618 
L 218.327976 -104.612033 
L 218.703933 -112.146182 
L 219.07989 -113.532872 
L 219.455846 -108.903874 
L 219.831803 -107.878868 
L 220.20776 -108.487483 
L 220.583716 -106.353279 
L 220.959673 -103.273219 
L 221.33563 -109.318334 
L 221.711586 -106.011993 
L 222.087543 -104.762691 
L 222.4635 -102.870495 
L 222.839457 -102.005416 
L 223.215413 -101.507615 
L 223.59137 -101.962526 
L 223.967327 -101.583979 
L 224.343283 -100.732777 
L 224.71924 -98.996529 
L 225.095197 -98.067893 
L 225.471153 -97.510103 
L 225.84711 -95.073929 
L 226.223067 -96.975378 
L 226.599023 -91.880513 
L 226.97498 -95.569485 
L 227.350937 -92.739544 
L 227.726894 -89.138058 
L 228.10285 -93.870024 
L 228.478807 -90.464565 
L 228.854764 -86.127137 
L 229.23072 -91.977719 
L 229.606677 -94.864234 
L 229.982634 -88.573023 
L 230.35859 -88.972267 
L 230.734547 -85.929646 
L 231.110504 -87.427451 
L 231.48646 -84.714891 
L 231.862417 -84.193342 
L 232.238374 -82.54371 
L 232.614331 -87.085939 
L 232.990287 -80.842228 
L 233.366244 -78.866004 
L 233.742201 -79.8937 
L 234.118157 -76.471031 
L 234.494114 -78.203851 
L 234.870071 -73.328028 
L 235.246027 -73.251225 
L 235.621984 -74.54372 
L 235.997941 -72.255439 
L 236.373897 -74.959057 
L 236.749854 -70.540672 
L 237.125811 -68.840289 
L 237.501768 -66.024678 
L 237.877724 -60.980037 
L 238.253681 -67.762498 
L 238.629638 -59.767903 
L 239.005594 -61.365293 
L 239.381551 -56.668994 
L 239.757508 -55.433786 
L 240.133464 -55.225108 
L 240.509421 -49.793733 
L 240.885378 -49.749883 
L 241.261334 -45.514002 
L 241.637291 -45.277877 
L 242.013248 -44.697643 
L 242.389205 -44.717727 
L 242.389205 -44.717727 
L 242.389205 -44.717727 
L 242.013248 -45.00561 
L 241.637291 -45.58927 
L 241.261334 -50.18382 
L 240.885378 -54.744093 
L 240.509421 -53.402449 
L 240.133464 -60.15591 
L 239.757508 -61.636423 
L 239.381551 -67.085881 
L 239.005594 -65.582564 
L 238.629638 -66.685557 
L 238.253681 -72.781288 
L 237.877724 -70.046599 
L 237.501768 -74.15861 
L 237.125811 -78.161563 
L 236.749854 -75.029487 
L 236.373897 -81.086148 
L 235.997941 -80.112685 
L 235.621984 -80.749589 
L 235.246027 -84.297772 
L 234.870071 -81.821081 
L 234.494114 -87.492403 
L 234.118157 -85.043445 
L 233.742201 -89.139736 
L 233.366244 -85.398557 
L 232.990287 -91.435691 
L 232.614331 -92.257743 
L 232.238374 -88.045019 
L 231.862417 -96.015536 
L 231.48646 -88.840222 
L 231.110504 -96.437908 
L 230.734547 -94.959028 
L 230.35859 -95.717088 
L 229.982634 -99.402014 
L 229.606677 -99.795467 
L 229.23072 -100.199696 
L 228.854764 -95.863632 
L 228.478807 -95.810981 
L 228.10285 -103.725162 
L 227.726894 -100.351071 
L 227.350937 -108.470923 
L 226.97498 -105.208385 
L 226.599023 -100.7501 
L 226.223067 -104.245389 
L 225.84711 -109.391321 
L 225.471153 -106.46075 
L 225.095197 -111.114733 
L 224.71924 -108.218807 
L 224.343283 -110.849736 
L 223.967327 -111.873124 
L 223.59137 -113.194068 
L 223.215413 -109.837999 
L 222.839457 -115.262667 
L 222.4635 -112.718697 
L 222.087543 -116.326672 
L 221.711586 -111.22519 
L 221.33563 -115.561409 
L 220.959673 -114.80856 
L 220.583716 -118.330765 
L 220.20776 -112.70488 
L 219.831803 -117.309873 
L 219.455846 -116.140669 
L 219.07989 -124.304203 
L 218.703933 -119.644825 
L 218.327976 -118.485819 
L 217.95202 -122.025264 
L 217.576063 -124.821188 
L 217.200106 -123.55764 
L 216.824149 -126.340332 
L 216.448193 -125.218458 
L 216.072236 -123.091897 
L 215.696279 -124.8389 
L 215.320323 -125.429365 
L 214.944366 -131.160177 
L 214.568409 -125.120274 
L 214.192453 -128.069864 
L 213.816496 -133.511259 
L 213.440539 -133.090539 
L 213.064583 -127.44966 
L 212.688626 -130.314806 
L 212.312669 -130.031489 
L 211.936712 -133.712382 
L 211.560756 -132.075979 
L 211.184799 -129.83802 
L 210.808842 -135.484036 
L 210.432886 -132.380242 
L 210.056929 -134.167981 
L 209.680972 -137.422672 
L 209.305016 -137.776321 
L 208.929059 -138.568243 
L 208.553102 -135.822023 
L 208.177146 -138.6678 
L 207.801189 -128.272725 
L 207.425232 -134.2173 
L 207.049275 -137.213992 
L 206.673319 -138.782151 
L 206.297362 -134.930618 
L 205.921405 -134.077957 
L 205.545449 -140.229636 
L 205.169492 -134.52712 
L 204.793535 -142.918687 
L 204.417579 -143.175656 
L 204.041622 -145.814232 
L 203.665665 -148.085903 
L 203.289709 -145.969457 
L 202.913752 -139.284921 
L 202.537795 -149.133107 
L 202.161838 -151.905392 
L 201.785882 -145.355886 
L 201.409925 -152.457979 
L 201.033968 -152.683635 
L 200.658012 -144.996861 
L 200.282055 -149.383796 
L 199.906098 -147.515358 
L 199.530142 -145.888006 
L 199.154185 -146.040951 
L 198.778228 -149.535995 
L 198.402272 -151.254725 
L 198.026315 -144.024518 
L 197.650358 -150.343543 
L 197.274401 -150.950733 
L 196.898445 -150.283899 
L 196.522488 -155.575228 
L 196.146531 -149.415453 
L 195.770575 -153.004686 
L 195.394618 -150.378922 
L 195.018661 -159.215724 
L 194.642705 -151.309074 
L 194.266748 -156.666243 
L 193.890791 -152.532422 
L 193.514835 -154.747567 
L 193.138878 -153.602338 
L 192.762921 -154.290979 
L 192.386964 -159.865446 
L 192.011008 -158.440151 
L 191.635051 -153.166029 
L 191.259094 -155.584667 
L 190.883138 -155.066291 
L 190.507181 -162.989057 
L 190.131224 -160.494683 
L 189.755268 -165.938633 
L 189.379311 -157.279502 
L 189.003354 -165.042575 
L 188.627398 -153.243305 
L 188.251441 -162.104728 
L 187.875484 -165.536179 
L 187.499527 -159.283745 
L 187.123571 -156.640104 
L 186.747614 -157.418389 
L 186.371657 -162.718044 
L 185.995701 -154.732504 
L 185.619744 -168.057056 
L 185.243787 -163.684986 
L 184.867831 -160.789334 
L 184.491874 -156.1756 
L 184.115917 -161.512573 
L 183.739961 -166.441924 
L 183.364004 -170.358666 
L 182.988047 -160.446403 
L 182.61209 -161.012497 
L 182.236134 -159.940869 
L 181.860177 -164.340133 
L 181.48422 -162.744046 
L 181.108264 -170.093088 
L 180.732307 -163.199756 
L 180.35635 -159.382683 
L 179.980394 -167.464667 
L 179.604437 -163.744968 
L 179.22848 -166.059332 
L 178.852524 -169.769609 
L 178.476567 -163.672637 
L 178.10061 -166.422291 
L 177.724653 -169.544534 
L 177.348697 -160.204294 
L 176.97274 -168.256052 
L 176.596783 -166.286733 
L 176.220827 -165.213002 
L 175.84487 -164.493551 
L 175.468913 -166.08331 
L 175.092957 -168.056229 
L 174.717 -165.735452 
L 174.341043 -172.695 
L 173.965087 -166.082551 
L 173.58913 -169.174639 
L 173.213173 -174.865199 
L 172.837216 -174.552631 
L 172.46126 -173.417497 
L 172.085303 -172.674512 
L 171.709346 -164.596685 
L 171.33339 -167.216118 
L 170.957433 -173.005618 
L 170.581476 -170.29267 
L 170.20552 -173.752195 
L 169.829563 -171.228444 
L 169.453606 -169.09059 
L 169.07765 -173.308944 
L 168.701693 -172.250899 
L 168.325736 -171.126304 
L 167.949779 -163.528584 
L 167.573823 -166.932201 
L 167.197866 -180.022843 
L 166.821909 -168.72803 
L 166.445953 -170.664342 
L 166.069996 -170.986411 
L 165.694039 -170.221259 
L 165.318083 -174.903328 
L 164.942126 -170.61564 
L 164.566169 -172.670635 
L 164.190213 -168.612051 
L 163.814256 -170.641234 
L 163.438299 -172.34935 
L 163.062342 -179.625036 
L 162.686386 -172.606 
L 162.310429 -174.297239 
L 161.934472 -175.472344 
L 161.558516 -170.981608 
L 161.182559 -178.703454 
L 160.806602 -172.316728 
L 160.430646 -177.428617 
L 160.054689 -172.002504 
L 159.678732 -174.629303 
L 159.302776 -180.873155 
L 158.926819 -178.62415 
L 158.550862 -174.709378 
L 158.174905 -180.549082 
L 157.798949 -172.312935 
L 157.422992 -178.795252 
L 157.047035 -184.926795 
L 156.671079 -186.503523 
L 156.295122 -173.8371 
L 155.919165 -172.612045 
L 155.543209 -176.348811 
L 155.167252 -178.459285 
L 154.791295 -174.973987 
L 154.415339 -174.246076 
L 154.039382 -174.983543 
L 153.663425 -174.396464 
L 153.287468 -173.699393 
L 152.911512 -175.969827 
L 152.535555 -176.522553 
L 152.159598 -174.307191 
L 151.783642 -177.125801 
L 151.407685 -178.59269 
L 151.031728 -179.705632 
L 150.655772 -177.199962 
L 150.279815 -173.420851 
L 149.903858 -174.161934 
L 149.527902 -178.325889 
L 149.151945 -176.410774 
L 148.775988 -181.747121 
L 148.400032 -181.791944 
L 148.024075 -177.324468 
L 147.648118 -177.843645 
L 147.272161 -175.132138 
L 146.896205 -178.073714 
L 146.520248 -175.814688 
L 146.144291 -179.801841 
L 145.768335 -178.036481 
L 145.392378 -180.111205 
L 145.016421 -173.877801 
L 144.640465 -176.327064 
L 144.264508 -180.09094 
L 143.888551 -176.424969 
L 143.512595 -182.112066 
L 143.136638 -179.812739 
L 142.760681 -185.349149 
L 142.384724 -180.92534 
L 142.008768 -179.875743 
L 141.632811 -174.691714 
L 141.256854 -174.512885 
L 140.880898 -173.21436 
L 140.504941 -173.682451 
L 140.128984 -180.357093 
L 139.753028 -176.855041 
L 139.377071 -172.31405 
L 139.001114 -175.77379 
L 138.625158 -168.446762 
L 138.249201 -174.366798 
L 137.873244 -174.988853 
L 137.497287 -177.450497 
L 137.121331 -177.677884 
L 136.745374 -171.538631 
L 136.369417 -173.183014 
L 135.993461 -170.937339 
L 135.617504 -175.833904 
L 135.241547 -176.942244 
L 134.865591 -169.98943 
L 134.489634 -176.403829 
L 134.113677 -172.746318 
L 133.737721 -169.978156 
L 133.361764 -181.567505 
L 132.985807 -172.56365 
L 132.60985 -176.267186 
L 132.233894 -176.963593 
L 131.857937 -172.973682 
L 131.48198 -186.289763 
L 131.106024 -180.129544 
L 130.730067 -173.291169 
L 130.35411 -172.989167 
L 129.978154 -175.794416 
L 129.602197 -176.084597 
L 129.22624 -168.757484 
L 128.850284 -179.680136 
L 128.474327 -172.282174 
L 128.09837 -170.393167 
L 127.722413 -173.930935 
L 127.346457 -175.441399 
L 126.9705 -172.325922 
L 126.594543 -175.667671 
L 126.218587 -168.808921 
L 125.84263 -179.863452 
L 125.466673 -173.667716 
L 125.090717 -172.100001 
L 124.71476 -177.928263 
L 124.338803 -168.31946 
L 123.962847 -168.498945 
L 123.58689 -172.688964 
L 123.210933 -172.98712 
L 122.834976 -173.956396 
L 122.45902 -167.247907 
L 122.083063 -178.772232 
L 121.707106 -172.964246 
L 121.33115 -173.976273 
L 120.955193 -179.067691 
L 120.579236 -176.246526 
L 120.20328 -170.011044 
L 119.827323 -170.181593 
L 119.451366 -170.638788 
L 119.07541 -173.095856 
L 118.699453 -165.441167 
L 118.323496 -171.954515 
L 117.947539 -170.498798 
L 117.571583 -172.762659 
L 117.195626 -178.414863 
L 116.819669 -171.821362 
L 116.443713 -167.957126 
L 116.067756 -172.073027 
L 115.691799 -168.581253 
L 115.315843 -175.27488 
L 114.939886 -169.765048 
L 114.563929 -173.440124 
L 114.187973 -170.287818 
L 113.812016 -170.509379 
L 113.436059 -170.958397 
L 113.060102 -173.549809 
L 112.684146 -170.806036 
L 112.308189 -173.495798 
L 111.932232 -172.158106 
L 111.556276 -169.513252 
L 111.180319 -181.189916 
L 110.804362 -167.516508 
L 110.428406 -170.271556 
L 110.052449 -174.390124 
L 109.676492 -174.49946 
L 109.300536 -171.658244 
L 108.924579 -175.936159 
L 108.548622 -171.813946 
L 108.172665 -165.306402 
L 107.796709 -167.742254 
L 107.420752 -162.49015 
L 107.044795 -167.245222 
L 106.668839 -176.744401 
L 106.292882 -167.253754 
L 105.916925 -161.639089 
L 105.540969 -165.864243 
L 105.165012 -171.379111 
L 104.789055 -170.299319 
L 104.413099 -170.698779 
L 104.037142 -163.311349 
L 103.661185 -163.479033 
L 103.285228 -166.931059 
L 102.909272 -168.790067 
L 102.533315 -169.215261 
L 102.157358 -159.249823 
L 101.781402 -165.852887 
L 101.405445 -164.294076 
L 101.029488 -168.386673 
L 100.653532 -167.592397 
L 100.277575 -162.882071 
L 99.901618 -171.104266 
L 99.525662 -166.734332 
L 99.149705 -170.099495 
L 98.773748 -157.84162 
L 98.397791 -161.81813 
L 98.021835 -159.895533 
L 97.645878 -165.449561 
L 97.269921 -171.223719 
L 96.893965 -166.745959 
L 96.518008 -157.733711 
L 96.142051 -162.200227 
L 95.766095 -160.483481 
L 95.390138 -159.369421 
L 95.014181 -159.663439 
L 94.638225 -156.736491 
L 94.262268 -157.773358 
L 93.886311 -153.946886 
L 93.510354 -155.031176 
L 93.134398 -160.26663 
L 92.758441 -159.439793 
L 92.382484 -159.000637 
L 92.006528 -153.411864 
L 91.630571 -158.680724 
L 91.254614 -157.208052 
L 90.878658 -156.599512 
L 90.502701 -156.147454 
L 90.126744 -157.810693 
L 89.750788 -158.287143 
L 89.374831 -161.711381 
L 88.998874 -159.39322 
L 88.622917 -156.313583 
L 88.246961 -153.901525 
L 87.871004 -154.053898 
L 87.495047 -156.165611 
L 87.119091 -150.611331 
L 86.743134 -148.263305 
L 86.367177 -152.704859 
L 85.991221 -149.364852 
L 85.615264 -153.846936 
L 85.239307 -151.528109 
L 84.863351 -147.502577 
L 84.487394 -152.406696 
L 84.111437 -144.911136 
L 83.73548 -146.464825 
L 83.359524 -150.701751 
L 82.983567 -144.995895 
L 82.60761 -147.529025 
L 82.231654 -150.739803 
L 81.855697 -147.435426 
L 81.47974 -148.329554 
L 81.103784 -141.996575 
L 80.727827 -138.58642 
L 80.35187 -144.972926 
L 79.975914 -146.660296 
L 79.599957 -143.6712 
L 79.224 -143.997261 
L 78.848043 -144.97904 
L 78.472087 -144.274576 
L 78.09613 -141.054739 
L 77.720173 -139.517084 
L 77.344217 -135.673697 
L 76.96826 -141.357557 
L 76.592303 -138.202767 
L 76.216347 -142.570533 
L 75.84039 -144.00646 
L 75.464433 -139.232214 
L 75.088477 -134.87806 
L 74.71252 -145.297343 
L 74.336563 -137.925666 
L 73.960606 -140.502016 
L 73.58465 -138.716589 
L 73.208693 -139.17875 
L 72.832736 -133.758876 
L 72.45678 -136.310884 
L 72.080823 -136.198389 
L 71.704866 -129.546985 
L 71.32891 -136.322338 
L 70.952953 -132.143091 
L 70.576996 -135.421605 
L 70.20104 -128.565696 
L 69.825083 -131.356294 
L 69.449126 -138.300067 
L 69.073169 -132.910277 
L 68.697213 -129.581661 
L 68.321256 -133.792443 
L 67.945299 -131.401929 
L 67.569343 -131.051334 
L 67.193386 -125.63209 
L 66.817429 -126.316183 
L 66.441473 -125.85927 
L 66.065516 -123.152887 
L 65.689559 -119.576472 
L 65.313603 -128.603125 
L 64.937646 -122.800023 
L 64.561689 -127.111317 
L 64.185732 -119.048566 
L 63.809776 -124.065445 
L 63.433819 -126.251788 
L 63.057862 -121.828246 
L 62.681906 -122.109939 
L 62.305949 -119.912513 
L 61.929992 -117.586384 
L 61.554036 -116.249285 
L 61.178079 -113.579493 
L 60.802122 -115.555613 
L 60.426166 -113.773447 
L 60.050209 -112.200959 
L 59.674252 -105.61453 
L 59.298295 -107.944047 
z
"/>
    </defs>
    <g clip-path="url(#p60cbc98ccc)">
     <use xlink:href="#m86f9d7273a" x="0" y="200.79625" style="fill: #c0392b; fill-opacity: 0.15"/>
    </g>
   </g>
   <g id="FillBetweenPolyCollection_2">
    <defs>
     <path id="md7b37fa4e7" d="M 59.298295 -69.333274 
L 59.298295 -65.689741 
L 59.674252 -63.109566 
L 60.050209 -65.881547 
L 60.426166 -66.667073 
L 60.802122 -66.57214 
L 61.178079 -65.958685 
L 61.554036 -65.741875 
L 61.929992 -65.889624 
L 62.305949 -68.017362 
L 62.681906 -65.683078 
L 63.057862 -65.874741 
L 63.433819 -68.285854 
L 63.809776 -65.965247 
L 64.185732 -66.632064 
L 64.561689 -67.62451 
L 64.937646 -67.454409 
L 65.313603 -70.728731 
L 65.689559 -67.80728 
L 66.065516 -69.127388 
L 66.441473 -67.366901 
L 66.817429 -69.841823 
L 67.193386 -67.357182 
L 67.569343 -68.708247 
L 67.945299 -69.010473 
L 68.321256 -70.291089 
L 68.697213 -70.385298 
L 69.073169 -68.864726 
L 69.449126 -69.891636 
L 69.825083 -69.487861 
L 70.20104 -69.027979 
L 70.576996 -72.071204 
L 70.952953 -68.203387 
L 71.32891 -74.184266 
L 71.704866 -68.675678 
L 72.080823 -68.37784 
L 72.45678 -68.521427 
L 72.832736 -72.173544 
L 73.208693 -71.728187 
L 73.58465 -69.958149 
L 73.960606 -69.913328 
L 74.336563 -68.991878 
L 74.71252 -69.965193 
L 75.088477 -70.269276 
L 75.464433 -70.183485 
L 75.84039 -70.070652 
L 76.216347 -70.853609 
L 76.592303 -69.410946 
L 76.96826 -68.658491 
L 77.344217 -69.175629 
L 77.720173 -69.866508 
L 78.09613 -69.935433 
L 78.472087 -70.236044 
L 78.848043 -72.278039 
L 79.224 -73.994328 
L 79.599957 -73.062639 
L 79.975914 -69.991922 
L 80.35187 -72.229354 
L 80.727827 -69.311336 
L 81.103784 -71.874336 
L 81.47974 -70.588332 
L 81.855697 -71.827962 
L 82.231654 -70.937028 
L 82.60761 -72.3248 
L 82.983567 -71.524072 
L 83.359524 -70.660894 
L 83.73548 -72.909335 
L 84.111437 -71.275961 
L 84.487394 -69.740191 
L 84.863351 -69.50862 
L 85.239307 -69.711692 
L 85.615264 -70.174232 
L 85.991221 -74.223928 
L 86.367177 -73.189171 
L 86.743134 -71.331078 
L 87.119091 -73.008451 
L 87.495047 -71.829696 
L 87.871004 -70.691127 
L 88.246961 -71.957046 
L 88.622917 -71.929016 
L 88.998874 -74.722507 
L 89.374831 -73.394099 
L 89.750788 -74.250595 
L 90.126744 -71.69906 
L 90.502701 -72.101134 
L 90.878658 -73.409819 
L 91.254614 -72.89222 
L 91.630571 -72.916657 
L 92.006528 -72.705356 
L 92.382484 -73.072847 
L 92.758441 -73.994509 
L 93.134398 -76.265255 
L 93.510354 -72.392121 
L 93.886311 -71.848664 
L 94.262268 -72.575178 
L 94.638225 -73.296552 
L 95.014181 -73.525206 
L 95.390138 -73.633886 
L 95.766095 -70.573976 
L 96.142051 -73.475818 
L 96.518008 -75.513568 
L 96.893965 -76.893423 
L 97.269921 -75.545055 
L 97.645878 -77.59028 
L 98.021835 -72.729628 
L 98.397791 -74.171838 
L 98.773748 -70.894542 
L 99.149705 -74.534772 
L 99.525662 -74.888992 
L 99.901618 -73.935069 
L 100.277575 -75.51104 
L 100.653532 -73.590863 
L 101.029488 -77.165413 
L 101.405445 -75.716007 
L 101.781402 -75.52286 
L 102.157358 -73.517592 
L 102.533315 -76.792465 
L 102.909272 -74.47354 
L 103.285228 -77.334546 
L 103.661185 -75.287771 
L 104.037142 -77.874572 
L 104.413099 -76.38147 
L 104.789055 -75.47413 
L 105.165012 -78.780123 
L 105.540969 -78.627771 
L 105.916925 -75.993104 
L 106.292882 -77.514093 
L 106.668839 -78.129349 
L 107.044795 -77.353457 
L 107.420752 -74.479751 
L 107.796709 -76.33496 
L 108.172665 -75.770862 
L 108.548622 -75.983764 
L 108.924579 -79.464398 
L 109.300536 -78.988207 
L 109.676492 -77.026066 
L 110.052449 -75.455232 
L 110.428406 -74.824004 
L 110.804362 -77.803027 
L 111.180319 -74.532704 
L 111.556276 -77.848631 
L 111.932232 -74.269067 
L 112.308189 -78.747166 
L 112.684146 -78.536202 
L 113.060102 -75.8966 
L 113.436059 -76.784551 
L 113.812016 -75.358706 
L 114.187973 -78.903709 
L 114.563929 -80.527839 
L 114.939886 -82.108355 
L 115.315843 -77.532738 
L 115.691799 -80.531234 
L 116.067756 -78.869101 
L 116.443713 -79.384986 
L 116.819669 -80.669343 
L 117.195626 -79.854124 
L 117.571583 -80.166912 
L 117.947539 -79.496439 
L 118.323496 -80.348883 
L 118.699453 -80.294787 
L 119.07541 -80.39372 
L 119.451366 -82.58373 
L 119.827323 -80.987322 
L 120.20328 -82.809943 
L 120.579236 -83.082782 
L 120.955193 -85.061708 
L 121.33115 -80.68996 
L 121.707106 -82.052832 
L 122.083063 -81.388839 
L 122.45902 -80.666606 
L 122.834976 -82.24013 
L 123.210933 -79.988168 
L 123.58689 -78.317537 
L 123.962847 -78.592897 
L 124.338803 -83.259981 
L 124.71476 -80.902132 
L 125.090717 -83.878229 
L 125.466673 -80.487865 
L 125.84263 -80.405487 
L 126.218587 -81.110494 
L 126.594543 -80.536686 
L 126.9705 -80.29327 
L 127.346457 -82.809679 
L 127.722413 -81.311725 
L 128.09837 -80.336204 
L 128.474327 -84.023537 
L 128.850284 -81.540681 
L 129.22624 -79.011142 
L 129.602197 -82.980849 
L 129.978154 -82.403909 
L 130.35411 -80.08923 
L 130.730067 -81.894167 
L 131.106024 -82.619334 
L 131.48198 -82.564938 
L 131.857937 -81.314741 
L 132.233894 -85.454289 
L 132.60985 -83.821979 
L 132.985807 -79.617349 
L 133.361764 -87.68465 
L 133.737721 -81.065198 
L 134.113677 -82.320405 
L 134.489634 -79.862995 
L 134.865591 -82.056517 
L 135.241547 -81.625922 
L 135.617504 -85.484733 
L 135.993461 -83.559987 
L 136.369417 -83.541216 
L 136.745374 -82.092429 
L 137.121331 -84.052105 
L 137.497287 -84.431611 
L 137.873244 -85.599148 
L 138.249201 -83.814769 
L 138.625158 -81.649952 
L 139.001114 -81.007113 
L 139.377071 -79.996209 
L 139.753028 -83.627386 
L 140.128984 -82.820091 
L 140.504941 -83.191807 
L 140.880898 -83.774028 
L 141.256854 -83.570895 
L 141.632811 -82.567053 
L 142.008768 -83.205417 
L 142.384724 -81.423012 
L 142.760681 -85.716346 
L 143.136638 -84.983142 
L 143.512595 -84.367857 
L 143.888551 -83.845812 
L 144.264508 -83.224997 
L 144.640465 -83.697245 
L 145.016421 -80.838015 
L 145.392378 -82.773974 
L 145.768335 -84.033929 
L 146.144291 -84.401313 
L 146.520248 -84.056732 
L 146.896205 -83.582358 
L 147.272161 -84.020469 
L 147.648118 -84.561572 
L 148.024075 -83.252596 
L 148.400032 -86.005427 
L 148.775988 -87.499642 
L 149.151945 -85.629664 
L 149.527902 -83.931938 
L 149.903858 -85.463584 
L 150.279815 -85.466905 
L 150.655772 -80.461725 
L 151.031728 -82.334904 
L 151.407685 -85.690156 
L 151.783642 -85.06552 
L 152.159598 -82.927913 
L 152.535555 -86.120391 
L 152.911512 -84.11122 
L 153.287468 -86.610233 
L 153.663425 -84.712301 
L 154.039382 -85.887661 
L 154.415339 -84.599393 
L 154.791295 -83.982404 
L 155.167252 -85.381948 
L 155.543209 -87.701821 
L 155.919165 -86.276657 
L 156.295122 -83.934392 
L 156.671079 -85.484391 
L 157.047035 -83.836842 
L 157.422992 -86.076006 
L 157.798949 -85.260523 
L 158.174905 -83.870803 
L 158.550862 -87.490418 
L 158.926819 -84.229409 
L 159.302776 -87.111626 
L 159.678732 -89.094392 
L 160.054689 -84.920701 
L 160.430646 -84.260642 
L 160.806602 -81.895041 
L 161.182559 -88.361238 
L 161.558516 -87.558237 
L 161.934472 -82.572344 
L 162.310429 -84.776808 
L 162.686386 -84.773703 
L 163.062342 -87.450275 
L 163.438299 -86.574268 
L 163.814256 -84.456499 
L 164.190213 -83.513417 
L 164.566169 -84.34342 
L 164.942126 -81.943212 
L 165.318083 -87.189667 
L 165.694039 -83.25977 
L 166.069996 -84.523631 
L 166.445953 -82.43983 
L 166.821909 -84.849802 
L 167.197866 -85.532036 
L 167.573823 -85.494403 
L 167.949779 -84.928869 
L 168.325736 -83.489221 
L 168.701693 -84.871177 
L 169.07765 -83.800215 
L 169.453606 -83.866345 
L 169.829563 -83.721945 
L 170.20552 -87.278936 
L 170.581476 -84.456216 
L 170.957433 -83.721032 
L 171.33339 -84.122042 
L 171.709346 -83.735477 
L 172.085303 -86.827564 
L 172.46126 -83.043911 
L 172.837216 -85.474559 
L 173.213173 -86.958703 
L 173.58913 -86.494321 
L 173.965087 -83.410115 
L 174.341043 -79.782805 
L 174.717 -83.482274 
L 175.092957 -86.335905 
L 175.468913 -83.867629 
L 175.84487 -85.887918 
L 176.220827 -85.854294 
L 176.596783 -81.38831 
L 176.97274 -82.550898 
L 177.348697 -83.860682 
L 177.724653 -85.883038 
L 178.10061 -84.550967 
L 178.476567 -81.904866 
L 178.852524 -82.6011 
L 179.22848 -82.239382 
L 179.604437 -81.846931 
L 179.980394 -79.282612 
L 180.35635 -80.03971 
L 180.732307 -79.696288 
L 181.108264 -83.720366 
L 181.48422 -83.089314 
L 181.860177 -80.925128 
L 182.236134 -80.553804 
L 182.61209 -83.812038 
L 182.988047 -81.40603 
L 183.364004 -82.204374 
L 183.739961 -82.695048 
L 184.115917 -82.542284 
L 184.491874 -79.238246 
L 184.867831 -79.847556 
L 185.243787 -81.387659 
L 185.619744 -79.783537 
L 185.995701 -81.738733 
L 186.371657 -81.488612 
L 186.747614 -81.485874 
L 187.123571 -79.516893 
L 187.499527 -83.790222 
L 187.875484 -79.483537 
L 188.251441 -83.371384 
L 188.627398 -79.983144 
L 189.003354 -81.510967 
L 189.379311 -78.915983 
L 189.755268 -81.428573 
L 190.131224 -82.544753 
L 190.507181 -81.825964 
L 190.883138 -80.465354 
L 191.259094 -78.121778 
L 191.635051 -79.22544 
L 192.011008 -78.660716 
L 192.386964 -80.014518 
L 192.762921 -77.714273 
L 193.138878 -77.351894 
L 193.514835 -80.639094 
L 193.890791 -77.294197 
L 194.266748 -76.595343 
L 194.642705 -79.072387 
L 195.018661 -79.483643 
L 195.394618 -79.147 
L 195.770575 -79.41158 
L 196.146531 -77.892252 
L 196.522488 -80.972246 
L 196.898445 -77.13828 
L 197.274401 -80.614713 
L 197.650358 -77.130138 
L 198.026315 -79.311383 
L 198.402272 -79.936404 
L 198.778228 -78.312278 
L 199.154185 -76.787006 
L 199.530142 -75.197418 
L 199.906098 -76.612443 
L 200.282055 -75.174218 
L 200.658012 -80.764545 
L 201.033968 -79.698628 
L 201.409925 -74.573945 
L 201.785882 -74.671838 
L 202.161838 -72.754878 
L 202.537795 -77.439674 
L 202.913752 -73.946092 
L 203.289709 -74.0851 
L 203.665665 -74.182655 
L 204.041622 -77.299851 
L 204.417579 -78.696538 
L 204.793535 -73.632333 
L 205.169492 -73.04536 
L 205.545449 -75.014646 
L 205.921405 -72.236822 
L 206.297362 -73.665084 
L 206.673319 -73.15881 
L 207.049275 -72.60432 
L 207.425232 -75.553593 
L 207.801189 -69.029887 
L 208.177146 -73.967137 
L 208.553102 -73.373782 
L 208.929059 -75.7234 
L 209.305016 -73.55691 
L 209.680972 -73.225492 
L 210.056929 -69.572353 
L 210.432886 -73.020819 
L 210.808842 -74.193486 
L 211.184799 -72.284574 
L 211.560756 -72.178985 
L 211.936712 -72.935441 
L 212.312669 -70.122306 
L 212.688626 -68.75293 
L 213.064583 -72.18338 
L 213.440539 -69.542058 
L 213.816496 -73.506611 
L 214.192453 -69.916658 
L 214.568409 -71.944737 
L 214.944366 -71.064626 
L 215.320323 -70.447805 
L 215.696279 -69.100793 
L 216.072236 -71.280238 
L 216.448193 -69.25381 
L 216.824149 -70.573025 
L 217.200106 -69.276383 
L 217.576063 -71.171854 
L 217.95202 -68.484461 
L 218.327976 -67.099615 
L 218.703933 -65.583775 
L 219.07989 -71.005439 
L 219.455846 -68.144337 
L 219.831803 -66.341629 
L 220.20776 -66.30657 
L 220.583716 -67.6054 
L 220.959673 -65.320673 
L 221.33563 -69.431813 
L 221.711586 -69.597113 
L 222.087543 -66.159693 
L 222.4635 -63.928515 
L 222.839457 -67.406342 
L 223.215413 -63.533464 
L 223.59137 -64.225908 
L 223.967327 -63.124591 
L 224.343283 -61.611947 
L 224.71924 -61.741153 
L 225.095197 -61.402372 
L 225.471153 -64.110452 
L 225.84711 -63.209608 
L 226.223067 -62.988555 
L 226.599023 -63.029046 
L 226.97498 -65.192817 
L 227.350937 -62.847313 
L 227.726894 -61.94275 
L 228.10285 -62.848866 
L 228.478807 -61.078934 
L 228.854764 -61.7107 
L 229.23072 -58.839731 
L 229.606677 -62.108401 
L 229.982634 -61.179248 
L 230.35859 -59.79127 
L 230.734547 -59.530713 
L 231.110504 -59.166436 
L 231.48646 -60.553876 
L 231.862417 -59.392238 
L 232.238374 -59.793146 
L 232.614331 -62.367699 
L 232.990287 -56.960628 
L 233.366244 -55.666529 
L 233.742201 -59.260668 
L 234.118157 -56.829531 
L 234.494114 -57.491231 
L 234.870071 -57.796867 
L 235.246027 -54.788189 
L 235.621984 -54.739547 
L 235.997941 -56.565084 
L 236.373897 -57.306944 
L 236.749854 -54.438765 
L 237.125811 -53.095878 
L 237.501768 -52.518162 
L 237.877724 -51.806926 
L 238.253681 -52.788585 
L 238.629638 -49.692314 
L 239.005594 -51.071481 
L 239.381551 -49.066155 
L 239.757508 -48.53209 
L 240.133464 -48.527077 
L 240.509421 -46.177986 
L 240.885378 -46.371336 
L 241.261334 -44.648977 
L 241.637291 -44.821464 
L 242.013248 -44.716355 
L 242.389205 -44.717727 
L 242.389205 -44.717727 
L 242.389205 -44.717727 
L 242.013248 -44.852999 
L 241.637291 -45.108388 
L 241.261334 -47.464463 
L 240.885378 -48.358291 
L 240.509421 -47.964544 
L 240.133464 -51.620321 
L 239.757508 -51.821307 
L 239.381551 -53.233932 
L 239.005594 -55.111686 
L 238.629638 -54.770762 
L 238.253681 -58.843253 
L 237.877724 -55.086937 
L 237.501768 -58.155781 
L 237.125811 -59.916153 
L 236.749854 -57.656571 
L 236.373897 -59.835365 
L 235.997941 -60.597825 
L 235.621984 -63.237058 
L 235.246027 -61.612524 
L 234.870071 -58.346347 
L 234.494114 -63.348759 
L 234.118157 -59.190084 
L 233.742201 -63.814409 
L 233.366244 -61.52728 
L 232.990287 -64.775457 
L 232.614331 -64.30206 
L 232.238374 -62.705135 
L 231.862417 -66.453525 
L 231.48646 -63.417298 
L 231.110504 -65.299135 
L 230.734547 -68.663438 
L 230.35859 -63.819405 
L 229.982634 -65.923109 
L 229.606677 -68.392938 
L 229.23072 -67.160532 
L 228.854764 -64.88696 
L 228.478807 -65.817424 
L 228.10285 -70.10386 
L 227.726894 -66.189601 
L 227.350937 -68.241123 
L 226.97498 -67.708409 
L 226.599023 -65.288705 
L 226.223067 -68.831176 
L 225.84711 -68.445325 
L 225.471153 -68.141878 
L 225.095197 -71.715154 
L 224.71924 -68.193689 
L 224.343283 -67.560699 
L 223.967327 -70.858129 
L 223.59137 -70.27181 
L 223.215413 -70.552256 
L 222.839457 -69.110166 
L 222.4635 -68.262015 
L 222.087543 -72.200504 
L 221.711586 -72.378365 
L 221.33563 -73.068963 
L 220.959673 -68.991646 
L 220.583716 -73.741782 
L 220.20776 -69.530141 
L 219.831803 -71.709571 
L 219.455846 -71.153156 
L 219.07989 -73.431727 
L 218.703933 -74.867312 
L 218.327976 -74.917063 
L 217.95202 -74.387112 
L 217.576063 -75.737299 
L 217.200106 -71.803 
L 216.824149 -75.017735 
L 216.448193 -74.040061 
L 216.072236 -73.682225 
L 215.696279 -77.293362 
L 215.320323 -74.720657 
L 214.944366 -76.699422 
L 214.568409 -75.963511 
L 214.192453 -77.394192 
L 213.816496 -79.35591 
L 213.440539 -75.492504 
L 213.064583 -78.135055 
L 212.688626 -77.321927 
L 212.312669 -77.363644 
L 211.936712 -79.618082 
L 211.560756 -77.459654 
L 211.184799 -75.469174 
L 210.808842 -80.317027 
L 210.432886 -75.423026 
L 210.056929 -79.973585 
L 209.680972 -81.017222 
L 209.305016 -79.058412 
L 208.929059 -80.424804 
L 208.553102 -82.671422 
L 208.177146 -82.860864 
L 207.801189 -77.240669 
L 207.425232 -79.780915 
L 207.049275 -80.5466 
L 206.673319 -80.167209 
L 206.297362 -80.49523 
L 205.921405 -78.689309 
L 205.545449 -80.72156 
L 205.169492 -79.508163 
L 204.793535 -82.072974 
L 204.417579 -84.218731 
L 204.041622 -85.584517 
L 203.665665 -84.004938 
L 203.289709 -80.621112 
L 202.913752 -81.697415 
L 202.537795 -84.332301 
L 202.161838 -79.252748 
L 201.785882 -83.896853 
L 201.409925 -82.058357 
L 201.033968 -83.875837 
L 200.658012 -87.352196 
L 200.282055 -84.558367 
L 199.906098 -81.58545 
L 199.530142 -84.813266 
L 199.154185 -79.392098 
L 198.778228 -83.294897 
L 198.402272 -87.902239 
L 198.026315 -85.529975 
L 197.650358 -84.065039 
L 197.274401 -85.730438 
L 196.898445 -86.374386 
L 196.522488 -84.40471 
L 196.146531 -85.682213 
L 195.770575 -83.719987 
L 195.394618 -82.305676 
L 195.018661 -88.457999 
L 194.642705 -87.427262 
L 194.266748 -88.441714 
L 193.890791 -91.60534 
L 193.514835 -85.592757 
L 193.138878 -87.201066 
L 192.762921 -83.223406 
L 192.386964 -85.207938 
L 192.011008 -86.015844 
L 191.635051 -87.562608 
L 191.259094 -86.142784 
L 190.883138 -85.529598 
L 190.507181 -85.847879 
L 190.131224 -88.249974 
L 189.755268 -87.038366 
L 189.379311 -88.335563 
L 189.003354 -86.935373 
L 188.627398 -87.5362 
L 188.251441 -89.339133 
L 187.875484 -88.911302 
L 187.499527 -87.653402 
L 187.123571 -88.053951 
L 186.747614 -90.709646 
L 186.371657 -87.586024 
L 185.995701 -85.749712 
L 185.619744 -90.135695 
L 185.243787 -87.965076 
L 184.867831 -91.534268 
L 184.491874 -87.632202 
L 184.115917 -90.693531 
L 183.739961 -88.480777 
L 183.364004 -90.732742 
L 182.988047 -85.206919 
L 182.61209 -88.434981 
L 182.236134 -90.168824 
L 181.860177 -87.418212 
L 181.48422 -88.138011 
L 181.108264 -94.840521 
L 180.732307 -91.551637 
L 180.35635 -94.0613 
L 179.980394 -85.723546 
L 179.604437 -90.595788 
L 179.22848 -94.889812 
L 178.852524 -94.167596 
L 178.476567 -90.651152 
L 178.10061 -90.25044 
L 177.724653 -93.955042 
L 177.348697 -91.393922 
L 176.97274 -91.138113 
L 176.596783 -86.182534 
L 176.220827 -91.995896 
L 175.84487 -91.529675 
L 175.468913 -88.678089 
L 175.092957 -95.273766 
L 174.717 -95.56271 
L 174.341043 -93.19551 
L 173.965087 -94.738773 
L 173.58913 -90.449474 
L 173.213173 -92.395279 
L 172.837216 -93.848523 
L 172.46126 -92.437292 
L 172.085303 -93.247414 
L 171.709346 -90.386132 
L 171.33339 -93.697248 
L 170.957433 -90.215179 
L 170.581476 -89.727193 
L 170.20552 -95.978726 
L 169.829563 -96.909231 
L 169.453606 -95.024139 
L 169.07765 -91.876686 
L 168.701693 -92.958413 
L 168.325736 -93.032276 
L 167.949779 -92.571123 
L 167.573823 -91.71719 
L 167.197866 -91.12336 
L 166.821909 -91.784994 
L 166.445953 -91.63028 
L 166.069996 -93.398659 
L 165.694039 -92.602531 
L 165.318083 -89.30093 
L 164.942126 -95.59798 
L 164.566169 -97.019051 
L 164.190213 -93.03898 
L 163.814256 -96.875073 
L 163.438299 -96.034497 
L 163.062342 -92.542304 
L 162.686386 -94.37428 
L 162.310429 -95.081872 
L 161.934472 -93.197257 
L 161.558516 -92.877239 
L 161.182559 -91.72404 
L 160.806602 -90.753677 
L 160.430646 -91.25146 
L 160.054689 -92.75439 
L 159.678732 -95.110865 
L 159.302776 -92.036357 
L 158.926819 -94.331477 
L 158.550862 -93.305556 
L 158.174905 -91.466201 
L 157.798949 -95.525152 
L 157.422992 -92.165582 
L 157.047035 -96.804633 
L 156.671079 -93.313394 
L 156.295122 -90.434417 
L 155.919165 -90.749538 
L 155.543209 -90.725166 
L 155.167252 -93.086239 
L 154.791295 -92.477293 
L 154.415339 -94.054193 
L 154.039382 -93.363322 
L 153.663425 -90.171505 
L 153.287468 -91.991853 
L 152.911512 -91.987979 
L 152.535555 -92.059397 
L 152.159598 -89.576606 
L 151.783642 -96.348451 
L 151.407685 -94.003725 
L 151.031728 -93.259598 
L 150.655772 -92.465091 
L 150.279815 -92.166986 
L 149.903858 -89.574721 
L 149.527902 -92.52776 
L 149.151945 -91.44803 
L 148.775988 -91.85434 
L 148.400032 -91.072267 
L 148.024075 -87.882029 
L 147.648118 -91.053529 
L 147.272161 -86.671259 
L 146.896205 -93.618935 
L 146.520248 -89.560181 
L 146.144291 -92.326183 
L 145.768335 -94.794756 
L 145.392378 -86.75386 
L 145.016421 -90.760108 
L 144.640465 -91.814857 
L 144.264508 -87.652129 
L 143.888551 -94.869574 
L 143.512595 -91.865241 
L 143.136638 -89.684365 
L 142.760681 -92.010245 
L 142.384724 -89.783713 
L 142.008768 -92.749583 
L 141.632811 -92.75965 
L 141.256854 -90.303516 
L 140.880898 -90.079783 
L 140.504941 -91.764098 
L 140.128984 -89.828627 
L 139.753028 -93.378209 
L 139.377071 -94.012101 
L 139.001114 -92.105102 
L 138.625158 -87.496784 
L 138.249201 -91.501634 
L 137.873244 -91.324047 
L 137.497287 -87.969908 
L 137.121331 -89.472108 
L 136.745374 -89.742592 
L 136.369417 -89.653399 
L 135.993461 -89.418329 
L 135.617504 -91.974059 
L 135.241547 -87.901912 
L 134.865591 -88.964809 
L 134.489634 -91.31283 
L 134.113677 -90.472511 
L 133.737721 -89.317531 
L 133.361764 -90.989536 
L 132.985807 -89.972284 
L 132.60985 -88.105742 
L 132.233894 -89.975414 
L 131.857937 -87.708395 
L 131.48198 -89.249484 
L 131.106024 -89.596785 
L 130.730067 -88.643061 
L 130.35411 -87.553714 
L 129.978154 -86.341129 
L 129.602197 -89.018972 
L 129.22624 -89.599997 
L 128.850284 -88.996547 
L 128.474327 -89.799374 
L 128.09837 -86.317945 
L 127.722413 -85.919221 
L 127.346457 -89.457941 
L 126.9705 -86.546278 
L 126.594543 -88.908749 
L 126.218587 -86.944447 
L 125.84263 -88.40135 
L 125.466673 -87.381677 
L 125.090717 -87.575695 
L 124.71476 -85.329719 
L 124.338803 -89.543235 
L 123.962847 -83.714674 
L 123.58689 -85.318728 
L 123.210933 -88.221273 
L 122.834976 -87.720301 
L 122.45902 -92.888506 
L 122.083063 -86.707302 
L 121.707106 -84.189319 
L 121.33115 -85.531592 
L 120.955193 -87.226511 
L 120.579236 -89.195138 
L 120.20328 -86.553091 
L 119.827323 -88.396313 
L 119.451366 -87.531201 
L 119.07541 -86.456128 
L 118.699453 -84.525972 
L 118.323496 -84.925073 
L 117.947539 -82.162236 
L 117.571583 -85.75594 
L 117.195626 -86.171728 
L 116.819669 -84.429514 
L 116.443713 -85.064974 
L 116.067756 -84.303667 
L 115.691799 -82.806333 
L 115.315843 -86.690624 
L 114.939886 -88.603972 
L 114.563929 -84.972716 
L 114.187973 -85.226953 
L 113.812016 -87.154865 
L 113.436059 -83.051034 
L 113.060102 -83.403388 
L 112.684146 -83.585971 
L 112.308189 -85.805794 
L 111.932232 -81.24054 
L 111.556276 -82.316552 
L 111.180319 -85.920877 
L 110.804362 -80.817165 
L 110.428406 -84.754082 
L 110.052449 -86.574242 
L 109.676492 -83.005218 
L 109.300536 -82.093671 
L 108.924579 -82.163377 
L 108.548622 -82.481928 
L 108.172665 -81.881135 
L 107.796709 -81.811433 
L 107.420752 -80.906257 
L 107.044795 -84.459718 
L 106.668839 -83.292427 
L 106.292882 -83.598685 
L 105.916925 -78.908807 
L 105.540969 -82.176009 
L 105.165012 -84.361744 
L 104.789055 -82.239666 
L 104.413099 -79.560735 
L 104.037142 -80.488121 
L 103.661185 -80.304236 
L 103.285228 -81.687343 
L 102.909272 -82.931257 
L 102.533315 -79.572038 
L 102.157358 -79.056531 
L 101.781402 -80.748943 
L 101.405445 -78.176509 
L 101.029488 -81.897675 
L 100.653532 -79.786655 
L 100.277575 -79.52477 
L 99.901618 -79.493949 
L 99.525662 -78.869625 
L 99.149705 -81.314734 
L 98.773748 -75.849812 
L 98.397791 -79.978176 
L 98.021835 -76.847211 
L 97.645878 -81.34921 
L 97.269921 -80.201451 
L 96.893965 -80.192076 
L 96.518008 -77.029655 
L 96.142051 -77.728412 
L 95.766095 -76.345476 
L 95.390138 -76.231351 
L 95.014181 -78.379421 
L 94.638225 -79.710169 
L 94.262268 -81.399737 
L 93.886311 -76.131683 
L 93.510354 -74.85693 
L 93.134398 -78.904454 
L 92.758441 -78.002816 
L 92.382484 -78.749379 
L 92.006528 -76.964182 
L 91.630571 -77.772576 
L 91.254614 -76.282921 
L 90.878658 -75.240024 
L 90.502701 -76.713509 
L 90.126744 -78.279476 
L 89.750788 -78.08663 
L 89.374831 -78.345728 
L 88.998874 -77.789816 
L 88.622917 -80.07861 
L 88.246961 -76.013002 
L 87.871004 -78.700313 
L 87.495047 -77.582343 
L 87.119091 -75.682592 
L 86.743134 -75.258776 
L 86.367177 -76.943865 
L 85.991221 -77.660099 
L 85.615264 -75.107529 
L 85.239307 -77.094461 
L 84.863351 -74.681347 
L 84.487394 -73.481581 
L 84.111437 -75.767091 
L 83.73548 -75.174012 
L 83.359524 -76.361558 
L 82.983567 -74.406585 
L 82.60761 -75.964545 
L 82.231654 -75.508627 
L 81.855697 -74.215995 
L 81.47974 -76.897618 
L 81.103784 -74.983317 
L 80.727827 -73.498438 
L 80.35187 -78.985176 
L 79.975914 -78.606422 
L 79.599957 -75.226706 
L 79.224 -76.179908 
L 78.848043 -77.576898 
L 78.472087 -77.095406 
L 78.09613 -75.531727 
L 77.720173 -74.488258 
L 77.344217 -71.749255 
L 76.96826 -73.471487 
L 76.592303 -73.470928 
L 76.216347 -75.107948 
L 75.84039 -73.18202 
L 75.464433 -74.202181 
L 75.088477 -75.136085 
L 74.71252 -72.432584 
L 74.336563 -74.116595 
L 73.960606 -76.182129 
L 73.58465 -75.921009 
L 73.208693 -74.892567 
L 72.832736 -76.744098 
L 72.45678 -76.101138 
L 72.080823 -72.691243 
L 71.704866 -75.29799 
L 71.32891 -77.586461 
L 70.952953 -73.555793 
L 70.576996 -74.868848 
L 70.20104 -74.955989 
L 69.825083 -74.166509 
L 69.449126 -73.958433 
L 69.073169 -74.604245 
L 68.697213 -74.165167 
L 68.321256 -76.185466 
L 67.945299 -74.334898 
L 67.569343 -72.659535 
L 67.193386 -73.145404 
L 66.817429 -73.08125 
L 66.441473 -73.290185 
L 66.065516 -73.136489 
L 65.689559 -72.921905 
L 65.313603 -74.419131 
L 64.937646 -73.542575 
L 64.561689 -71.281585 
L 64.185732 -69.719644 
L 63.809776 -73.806043 
L 63.433819 -71.866534 
L 63.057862 -70.147369 
L 62.681906 -71.997323 
L 62.305949 -69.735139 
L 61.929992 -68.855293 
L 61.554036 -70.980631 
L 61.178079 -68.405134 
L 60.802122 -68.801073 
L 60.426166 -71.435626 
L 60.050209 -66.988779 
L 59.674252 -67.711072 
L 59.298295 -69.333274 
z
"/>
    </defs>
    <g clip-path="url(#p60cbc98ccc)">
     <use xlink:href="#md7b37fa4e7" x="0" y="200.79625" style="fill: #1f77b4; fill-opacity: 0.15"/>
    </g>
   </g>
   <g id="matplotlib.axis_1">
    <g id="xtick_1">
     <g id="line2d_1">
      <path d="M 58.922339 163.24 
L 58.922339 7.2 
" clip-path="url(#p60cbc98ccc)" style="fill: none; stroke: #b0b0b0; stroke-opacity: 0.3; stroke-width: 0.8; stroke-linecap: square"/>
     </g>
     <g id="line2d_2">
      <defs>
       <path id="md52ec2ff24" d="M 0 0 
L 0 3.5 
" style="stroke: #000000; stroke-width: 0.8"/>
      </defs>
      <g>
       <use xlink:href="#md52ec2ff24" x="58.922339" y="163.24" style="stroke: #000000; stroke-width: 0.8"/>
      </g>
     </g>
     <g id="text_1">
      <text style="font-size: 10px; font-family: 'DejaVu Sans', 'Bitstream Vera Sans', 'Computer Modern Sans Serif', 'Lucida Grande', 'Verdana', 'Geneva', 'Lucid', 'Arial', 'Helvetica', 'Avant Garde', sans-serif; text-anchor: middle" x="58.922339" y="177.838437" transform="rotate(-0 58.922339 177.838437)">0.0</text>
     </g>
    </g>
    <g id="xtick_2">
     <g id="line2d_3">
      <path d="M 95.636859 163.24 
L 95.636859 7.2 
" clip-path="url(#p60cbc98ccc)" style="fill: none; stroke: #b0b0b0; stroke-opacity: 0.3; stroke-width: 0.8; stroke-linecap: square"/>
     </g>
     <g id="line2d_4">
      <g>
       <use xlink:href="#md52ec2ff24" x="95.636859" y="163.24" style="stroke: #000000; stroke-width: 0.8"/>
      </g>
     </g>
     <g id="text_2">
      <text style="font-size: 10px; font-family: 'DejaVu Sans', 'Bitstream Vera Sans', 'Computer Modern Sans Serif', 'Lucida Grande', 'Verdana', 'Geneva', 'Lucid', 'Arial', 'Helvetica', 'Avant Garde', sans-serif; text-anchor: middle" x="95.636859" y="177.838437" transform="rotate(-0 95.636859 177.838437)">0.2</text>
     </g>
    </g>
    <g id="xtick_3">
     <g id="line2d_5">
      <path d="M 132.35138 163.24 
L 132.35138 7.2 
" clip-path="url(#p60cbc98ccc)" style="fill: none; stroke: #b0b0b0; stroke-opacity: 0.3; stroke-width: 0.8; stroke-linecap: square"/>
     </g>
     <g id="line2d_6">
      <g>
       <use xlink:href="#md52ec2ff24" x="132.35138" y="163.24" style="stroke: #000000; stroke-width: 0.8"/>
      </g>
     </g>
     <g id="text_3">
      <text style="font-size: 10px; font-family: 'DejaVu Sans', 'Bitstream Vera Sans', 'Computer Modern Sans Serif', 'Lucida Grande', 'Verdana', 'Geneva', 'Lucid', 'Arial', 'Helvetica', 'Avant Garde', sans-serif; text-anchor: middle" x="132.35138" y="177.838437" transform="rotate(-0 132.35138 177.838437)">0.4</text>
     </g>
    </g>
    <g id="xtick_4">
     <g id="line2d_7">
      <path d="M 169.065901 163.24 
L 169.065901 7.2 
" clip-path="url(#p60cbc98ccc)" style="fill: none; stroke: #b0b0b0; stroke-opacity: 0.3; stroke-width: 0.8; stroke-linecap: square"/>
     </g>
     <g id="line2d_8">
      <g>
       <use xlink:href="#md52ec2ff24" x="169.065901" y="163.24" style="stroke: #000000; stroke-width: 0.8"/>
      </g>
     </g>
     <g id="text_4">
      <text style="font-size: 10px; font-family: 'DejaVu Sans', 'Bitstream Vera Sans', 'Computer Modern Sans Serif', 'Lucida Grande', 'Verdana', 'Geneva', 'Lucid', 'Arial', 'Helvetica', 'Avant Garde', sans-serif; text-anchor: middle" x="169.065901" y="177.838437" transform="rotate(-0 169.065901 177.838437)">0.6</text>
     </g>
    </g>
    <g id="xtick_5">
     <g id="line2d_9">
      <path d="M 205.780422 163.24 
L 205.780422 7.2 
" clip-path="url(#p60cbc98ccc)" style="fill: none; stroke: #b0b0b0; stroke-opacity: 0.3; stroke-width: 0.8; stroke-linecap: square"/>
     </g>
     <g id="line2d_10">
      <g>
       <use xlink:href="#md52ec2ff24" x="205.780422" y="163.24" style="stroke: #000000; stroke-width: 0.8"/>
      </g>
     </g>
     <g id="text_5">
      <text style="font-size: 10px; font-family: 'DejaVu Sans', 'Bitstream Vera Sans', 'Computer Modern Sans Serif', 'Lucida Grande', 'Verdana', 'Geneva', 'Lucid', 'Arial', 'Helvetica', 'Avant Garde', sans-serif; text-anchor: middle" x="205.780422" y="177.838437" transform="rotate(-0 205.780422 177.838437)">0.8</text>
     </g>
    </g>
    <g id="xtick_6">
     <g id="line2d_11">
      <path d="M 242.494942 163.24 
L 242.494942 7.2 
" clip-path="url(#p60cbc98ccc)" style="fill: none; stroke: #b0b0b0; stroke-opacity: 0.3; stroke-width: 0.8; stroke-linecap: square"/>
     </g>
     <g id="line2d_12">
      <g>
       <use xlink:href="#md52ec2ff24" x="242.494942" y="163.24" style="stroke: #000000; stroke-width: 0.8"/>
      </g>
     </g>
     <g id="text_6">
      <text style="font-size: 10px; font-family: 'DejaVu Sans', 'Bitstream Vera Sans', 'Computer Modern Sans Serif', 'Lucida Grande', 'Verdana', 'Geneva', 'Lucid', 'Arial', 'Helvetica', 'Avant Garde', sans-serif; text-anchor: middle" x="242.494942" y="177.838437" transform="rotate(-0 242.494942 177.838437)">1.0</text>
     </g>
    </g>
    <g id="text_7">
     <text style="font-size: 10px; font-family: 'DejaVu Sans', 'Bitstream Vera Sans', 'Computer Modern Sans Serif', 'Lucida Grande', 'Verdana', 'Geneva', 'Lucid', 'Arial', 'Helvetica', 'Avant Garde', sans-serif; text-anchor: middle" x="150.84375" y="191.516562" transform="rotate(-0 150.84375 191.516562)">environment step</text>
    </g>
    <g id="text_8">
     <text style="font-size: 10px; font-family: 'DejaVu Sans', 'Bitstream Vera Sans', 'Computer Modern Sans Serif', 'Lucida Grande', 'Verdana', 'Geneva', 'Lucid', 'Arial', 'Helvetica', 'Avant Garde', sans-serif; text-anchor: end" x="251.54375" y="190.516562" transform="rotate(-0 251.54375 190.516562)">1e6</text>
    </g>
   </g>
   <g id="matplotlib.axis_2">
    <g id="ytick_1">
     <g id="line2d_13">
      <path d="M 50.14375 156.078523 
L 251.54375 156.078523 
" clip-path="url(#p60cbc98ccc)" style="fill: none; stroke: #b0b0b0; stroke-opacity: 0.3; stroke-width: 0.8; stroke-linecap: square"/>
     </g>
     <g id="line2d_14">
      <defs>
       <path id="meb23fb85bc" d="M 0 0 
L -3.5 0 
" style="stroke: #000000; stroke-width: 0.8"/>
      </defs>
      <g>
       <use xlink:href="#meb23fb85bc" x="50.14375" y="156.078523" style="stroke: #000000; stroke-width: 0.8"/>
      </g>
     </g>
     <g id="text_9">
      <text style="font-size: 10px; font-family: 'DejaVu Sans', 'Bitstream Vera Sans', 'Computer Modern Sans Serif', 'Lucida Grande', 'Verdana', 'Geneva', 'Lucid', 'Arial', 'Helvetica', 'Avant Garde', sans-serif; text-anchor: end" x="43.14375" y="159.877741" transform="rotate(-0 43.14375 159.877741)">0.00</text>
     </g>
    </g>
    <g id="ytick_2">
     <g id="line2d_15">
      <path d="M 50.14375 129.710661 
L 251.54375 129.710661 
" clip-path="url(#p60cbc98ccc)" style="fill: none; stroke: #b0b0b0; stroke-opacity: 0.3; stroke-width: 0.8; stroke-linecap: square"/>
     </g>
     <g id="line2d_16">
      <g>
       <use xlink:href="#meb23fb85bc" x="50.14375" y="129.710661" style="stroke: #000000; stroke-width: 0.8"/>
      </g>
     </g>
     <g id="text_10">
      <text style="font-size: 10px; font-family: 'DejaVu Sans', 'Bitstream Vera Sans', 'Computer Modern Sans Serif', 'Lucida Grande', 'Verdana', 'Geneva', 'Lucid', 'Arial', 'Helvetica', 'Avant Garde', sans-serif; text-anchor: end" x="43.14375" y="133.50988" transform="rotate(-0 43.14375 133.50988)">0.05</text>
     </g>
    </g>
    <g id="ytick_3">
     <g id="line2d_17">
      <path d="M 50.14375 103.3428 
L 251.54375 103.3428 
" clip-path="url(#p60cbc98ccc)" style="fill: none; stroke: #b0b0b0; stroke-opacity: 0.3; stroke-width: 0.8; stroke-linecap: square"/>
     </g>
     <g id="line2d_18">
      <g>
       <use xlink:href="#meb23fb85bc" x="50.14375" y="103.3428" style="stroke: #000000; stroke-width: 0.8"/>
      </g>
     </g>
     <g id="text_11">
      <text style="font-size: 10px; font-family: 'DejaVu Sans', 'Bitstream Vera Sans', 'Computer Modern Sans Serif', 'Lucida Grande', 'Verdana', 'Geneva', 'Lucid', 'Arial', 'Helvetica', 'Avant Garde', sans-serif; text-anchor: end" x="43.14375" y="107.142019" transform="rotate(-0 43.14375 107.142019)">0.10</text>
     </g>
    </g>
    <g id="ytick_4">
     <g id="line2d_19">
      <path d="M 50.14375 76.974938 
L 251.54375 76.974938 
" clip-path="url(#p60cbc98ccc)" style="fill: none; stroke: #b0b0b0; stroke-opacity: 0.3; stroke-width: 0.8; stroke-linecap: square"/>
     </g>
     <g id="line2d_20">
      <g>
       <use xlink:href="#meb23fb85bc" x="50.14375" y="76.974938" style="stroke: #000000; stroke-width: 0.8"/>
      </g>
     </g>
     <g id="text_12">
      <text style="font-size: 10px; font-family: 'DejaVu Sans', 'Bitstream Vera Sans', 'Computer Modern Sans Serif', 'Lucida Grande', 'Verdana', 'Geneva', 'Lucid', 'Arial', 'Helvetica', 'Avant Garde', sans-serif; text-anchor: end" x="43.14375" y="80.774157" transform="rotate(-0 43.14375 80.774157)">0.15</text>
     </g>
    </g>
    <g id="ytick_5">
     <g id="line2d_21">
      <path d="M 50.14375 50.607077 
L 251.54375 50.607077 
" clip-path="url(#p60cbc98ccc)" style="fill: none; stroke: #b0b0b0; stroke-opacity: 0.3; stroke-width: 0.8; stroke-linecap: square"/>
     </g>
     <g id="line2d_22">
      <g>
       <use xlink:href="#meb23fb85bc" x="50.14375" y="50.607077" style="stroke: #000000; stroke-width: 0.8"/>
      </g>
     </g>
     <g id="text_13">
      <text style="font-size: 10px; font-family: 'DejaVu Sans', 'Bitstream Vera Sans', 'Computer Modern Sans Serif', 'Lucida Grande', 'Verdana', 'Geneva', 'Lucid', 'Arial', 'Helvetica', 'Avant Garde', sans-serif; text-anchor: end" x="43.14375" y="54.406296" transform="rotate(-0 43.14375 54.406296)">0.20</text>
     </g>
    </g>
    <g id="ytick_6">
     <g id="line2d_23">
      <path d="M 50.14375 24.239215 
L 251.54375 24.239215 
" clip-path="url(#p60cbc98ccc)" style="fill: none; stroke: #b0b0b0; stroke-opacity: 0.3; stroke-width: 0.8; stroke-linecap: square"/>
     </g>
     <g id="line2d_24">
      <g>
       <use xlink:href="#meb23fb85bc" x="50.14375" y="24.239215" style="stroke: #000000; stroke-width: 0.8"/>
      </g>
     </g>
     <g id="text_14">
      <text style="font-size: 10px; font-family: 'DejaVu Sans', 'Bitstream Vera Sans', 'Computer Modern Sans Serif', 'Lucida Grande', 'Verdana', 'Geneva', 'Lucid', 'Arial', 'Helvetica', 'Avant Garde', sans-serif; text-anchor: end" x="43.14375" y="28.038434" transform="rotate(-0 43.14375 28.038434)">0.25</text>
     </g>
    </g>
    <g id="text_15">
     <text style="font-size: 10px; font-family: 'DejaVu Sans', 'Bitstream Vera Sans', 'Computer Modern Sans Serif', 'Lucida Grande', 'Verdana', 'Geneva', 'Lucid', 'Arial', 'Helvetica', 'Avant Garde', sans-serif; text-anchor: middle" x="14.798438" y="85.22" transform="rotate(-90 14.798438 85.22)">batch fraction</text>
    </g>
   </g>
   <g id="line2d_25">
    <path d="M 59.298295 95.447891 
L 59.674252 98.398826 
L 60.050209 92.697806 
L 60.426166 91.492712 
L 60.802122 88.546928 
L 61.178079 90.555417 
L 61.554036 86.306689 
L 61.929992 86.955586 
L 62.305949 85.220045 
L 62.681906 84.638098 
L 63.057862 85.117046 
L 63.433819 76.465091 
L 63.809776 82.521459 
L 64.185732 84.143701 
L 64.561689 79.055527 
L 64.937646 81.481165 
L 65.313603 77.577485 
L 65.689559 83.541154 
L 66.065516 79.585975 
L 66.441473 80.868318 
L 66.817429 78.051283 
L 67.193386 77.469336 
L 67.569343 74.070354 
L 67.945299 72.360563 
L 68.321256 72.571711 
L 68.697213 75.991293 
L 69.449126 67.627737 
L 69.825083 74.7759 
L 70.20104 73.905554 
L 70.576996 70.764071 
L 70.952953 73.591406 
L 71.32891 69.656827 
L 71.704866 74.8171 
L 72.080823 70.367523 
L 72.45678 70.382973 
L 72.832736 73.246358 
L 73.208693 67.380539 
L 73.58465 67.756487 
L 73.960606 67.426888 
L 74.336563 67.442338 
L 74.71252 63.054561 
L 75.088477 70.377823 
L 75.464433 64.486254 
L 75.84039 63.816757 
L 76.216347 62.209966 
L 76.592303 67.004591 
L 76.96826 64.177256 
L 77.344217 66.376294 
L 77.720173 67.576238 
L 78.09613 63.095761 
L 78.472087 61.36537 
L 78.848043 62.086367 
L 79.224 61.586819 
L 79.599957 60.819473 
L 79.975914 59.60923 
L 80.35187 62.302665 
L 80.727827 66.602893 
L 81.47974 57.451391 
L 81.855697 57.487441 
L 82.231654 55.365652 
L 82.60761 58.378386 
L 82.983567 58.280537 
L 83.359524 54.340807 
L 83.73548 58.234187 
L 84.111437 58.692534 
L 84.487394 56.004249 
L 84.863351 57.853089 
L 85.239307 53.228413 
L 85.615264 52.981214 
L 85.991221 56.323547 
L 86.367177 52.342618 
L 86.743134 59.418681 
L 87.495047 52.152069 
L 87.871004 53.182063 
L 88.246961 50.437128 
L 88.622917 49.633732 
L 89.374831 46.615848 
L 89.750788 48.294739 
L 90.126744 51.369273 
L 90.502701 48.212339 
L 90.878658 48.979685 
L 91.254614 47.903341 
L 91.630571 47.753992 
L 92.006528 52.121169 
L 92.382484 46.806397 
L 93.134398 44.658858 
L 93.510354 51.219924 
L 93.886311 50.359878 
L 94.262268 47.110245 
L 94.638225 48.346239 
L 95.014181 45.359254 
L 95.390138 44.947257 
L 95.766095 47.099945 
L 96.142051 42.119921 
L 96.518008 44.828807 
L 96.893965 40.204132 
L 97.269921 39.302886 
L 97.645878 40.595529 
L 98.021835 44.118111 
L 98.397791 43.572214 
L 98.773748 48.12994 
L 99.149705 37.340747 
L 99.525662 39.781834 
L 99.901618 36.856649 
L 100.277575 41.167176 
L 100.653532 37.366496 
L 101.405445 40.770629 
L 101.781402 41.610074 
L 102.157358 46.069951 
L 102.533315 37.309847 
L 102.909272 39.720034 
L 103.285228 37.314997 
L 103.661185 41.800623 
L 104.037142 41.919073 
L 104.413099 36.202603 
L 104.789055 37.469496 
L 105.165012 35.218958 
L 105.540969 36.67125 
L 105.916925 42.269271 
L 106.292882 38.813639 
L 106.668839 33.133219 
L 107.420752 41.481325 
L 107.796709 36.7176 
L 108.172665 40.883928 
L 108.548622 34.456762 
L 108.924579 33.601866 
L 109.300536 33.128069 
L 109.676492 32.92722 
L 110.052449 34.281663 
L 110.428406 39.194737 
L 110.804362 36.434351 
L 111.180319 27.15925 
L 111.556276 37.366496 
L 111.932232 34.255913 
L 112.308189 36.140803 
L 112.684146 32.082624 
L 113.060102 34.523711 
L 113.436059 33.467967 
L 113.812016 34.84816 
L 114.187973 34.77606 
L 114.563929 33.045669 
L 114.939886 34.266213 
L 115.315843 32.201074 
L 115.691799 36.290152 
L 116.067756 35.188058 
L 116.443713 35.703055 
L 116.819669 35.126258 
L 117.195626 25.423709 
L 117.947539 35.996604 
L 118.323496 34.652461 
L 118.699453 37.778494 
L 119.07541 30.208034 
L 119.451366 36.449801 
L 119.827323 32.443122 
L 120.20328 35.414657 
L 120.579236 30.650932 
L 120.955193 28.771192 
L 121.33115 31.402828 
L 121.707106 33.040519 
L 122.083063 30.027785 
L 122.45902 36.341652 
L 122.834976 32.020825 
L 123.210933 32.041424 
L 123.58689 31.449178 
L 123.962847 35.847254 
L 124.338803 32.90662 
L 125.090717 29.672437 
L 125.466673 31.830276 
L 125.84263 29.389188 
L 126.218587 34.348612 
L 126.594543 33.385567 
L 126.9705 35.146858 
L 127.346457 31.407978 
L 127.722413 31.387378 
L 128.09837 35.198358 
L 128.474327 34.74516 
L 128.850284 26.402204 
L 129.22624 36.789699 
L 129.602197 29.909336 
L 129.978154 29.548838 
L 130.35411 31.299828 
L 130.730067 30.640632 
L 131.106024 25.737858 
L 131.48198 23.832368 
L 131.857937 32.453422 
L 132.233894 30.295584 
L 132.60985 31.763326 
L 132.985807 34.302263 
L 133.361764 27.17985 
L 133.737721 34.688511 
L 134.489634 29.981435 
L 134.865591 35.054159 
L 135.617504 27.663947 
L 135.993461 33.164119 
L 136.369417 33.787265 
L 136.745374 35.945104 
L 137.121331 28.055345 
L 137.497287 29.404638 
L 137.873244 31.258629 
L 138.249201 29.553987 
L 138.625158 36.068703 
L 139.001114 28.776342 
L 139.377071 30.383133 
L 139.753028 27.560948 
L 140.128984 27.375549 
L 140.504941 33.313468 
L 140.880898 34.374362 
L 141.256854 28.663042 
L 141.632811 33.076569 
L 142.008768 24.414314 
L 142.384724 30.522182 
L 142.760681 23.090771 
L 143.136638 29.229539 
L 143.512595 25.840857 
L 143.888551 31.098979 
L 144.264508 25.974756 
L 145.016421 32.252573 
L 145.392378 22.570624 
L 145.768335 28.853591 
L 146.144291 27.354949 
L 146.520248 28.426143 
L 146.896205 26.896601 
L 147.272161 32.031124 
L 148.024075 25.583358 
L 148.775988 27.828747 
L 149.151945 28.869041 
L 149.527902 26.757552 
L 149.903858 31.850875 
L 150.279815 31.706676 
L 150.655772 31.238029 
L 151.031728 26.654553 
L 151.407685 27.468248 
L 152.535555 31.176229 
L 152.911512 34.564911 
L 153.287468 30.630332 
L 153.663425 32.86027 
L 154.039382 31.129879 
L 154.415339 35.445557 
L 154.791295 30.846631 
L 155.167252 31.320428 
L 155.543209 32.087774 
L 155.919165 35.424957 
L 156.295122 33.158969 
L 156.671079 21.968077 
L 157.047035 27.1232 
L 157.422992 28.740292 
L 157.798949 33.390717 
L 158.174905 26.046856 
L 158.550862 30.053535 
L 158.926819 31.567627 
L 159.302776 26.839952 
L 159.678732 31.562477 
L 160.054689 32.252573 
L 160.430646 29.01839 
L 160.806602 31.598527 
L 161.182559 32.623371 
L 161.558516 34.245613 
L 161.934472 30.583982 
L 162.310429 29.806336 
L 162.686386 30.656082 
L 163.062342 28.750592 
L 163.438299 33.854215 
L 163.814256 34.250763 
L 164.190213 34.353762 
L 164.566169 35.574306 
L 164.942126 37.340747 
L 165.318083 36.346802 
L 165.694039 37.737294 
L 166.069996 35.847254 
L 166.445953 39.725184 
L 166.821909 39.905433 
L 167.197866 30.90843 
L 167.949779 41.146577 
L 168.325736 34.132313 
L 168.701693 32.587322 
L 169.07765 33.267118 
L 169.453606 37.577645 
L 169.829563 38.283192 
L 170.581476 38.942388 
L 170.957433 34.034464 
L 171.33339 39.122637 
L 171.709346 39.457385 
L 172.46126 33.071419 
L 172.837216 28.735142 
L 173.213173 30.97023 
L 173.58913 39.493435 
L 173.965087 38.494341 
L 174.341043 34.116864 
L 174.717 36.841199 
L 175.092957 37.191397 
L 175.468913 41.079627 
L 175.84487 40.168082 
L 176.220827 42.861518 
L 176.596783 38.468591 
L 176.97274 39.328636 
L 177.348697 45.637353 
L 177.724653 38.962988 
L 178.10061 39.833333 
L 178.852524 43.958462 
L 179.22848 43.654613 
L 179.604437 41.342276 
L 179.980394 42.161121 
L 180.35635 44.911207 
L 180.732307 42.851218 
L 181.108264 36.182003 
L 181.48422 42.042672 
L 181.860177 43.906962 
L 182.61209 42.125071 
L 182.988047 49.566782 
L 183.364004 40.868478 
L 183.739961 41.012677 
L 184.491874 53.161463 
L 184.867831 45.699153 
L 185.243787 42.248671 
L 185.619744 41.342276 
L 185.995701 48.490438 
L 186.371657 43.052067 
L 186.747614 47.022696 
L 187.123571 48.330789 
L 187.499527 45.441654 
L 187.875484 40.940578 
L 188.251441 41.553424 
L 188.627398 49.293834 
L 189.003354 40.729429 
L 189.379311 47.460443 
L 189.755268 43.556764 
L 190.131224 47.578893 
L 190.507181 45.472554 
L 190.883138 51.384723 
L 191.259094 51.590722 
L 192.011008 47.779742 
L 192.386964 47.300794 
L 192.762921 53.88246 
L 193.138878 51.065424 
L 193.514835 52.363218 
L 193.890791 51.87397 
L 194.266748 53.146014 
L 194.642705 51.812171 
L 195.018661 49.839731 
L 195.394618 55.618001 
L 195.770575 54.891854 
L 196.146531 56.817944 
L 196.522488 51.88942 
L 196.898445 54.675555 
L 197.274401 53.073914 
L 197.650358 54.747655 
L 198.026315 61.48382 
L 198.402272 54.227508 
L 198.778228 55.7828 
L 199.154185 61.916417 
L 199.530142 60.664974 
L 199.906098 60.541375 
L 200.282055 59.408381 
L 200.658012 59.918228 
L 201.033968 55.046354 
L 201.409925 57.59559 
L 201.785882 61.210871 
L 202.161838 63.224511 
L 202.537795 57.842789 
L 202.913752 65.995196 
L 203.289709 61.082122 
L 203.665665 62.472615 
L 204.041622 61.221171 
L 204.417579 62.956712 
L 204.793535 62.513814 
L 205.169492 73.642906 
L 205.545449 66.644093 
L 205.921405 69.394178 
L 206.297362 70.357223 
L 206.673319 69.373578 
L 207.049275 65.377199 
L 207.425232 70.269674 
L 207.801189 73.174258 
L 208.177146 64.589253 
L 208.553102 66.608043 
L 209.305016 68.286934 
L 209.680972 70.614722 
L 210.056929 76.810139 
L 210.432886 74.214553 
L 210.808842 69.213929 
L 211.184799 75.007649 
L 211.560756 71.984615 
L 211.936712 76.866789 
L 212.312669 76.109743 
L 212.688626 78.58688 
L 213.064583 76.362092 
L 213.440539 78.180032 
L 213.816496 72.324513 
L 214.192453 77.113988 
L 214.568409 77.639285 
L 214.944366 77.237587 
L 215.320323 80.600519 
L 215.696279 79.117327 
L 216.072236 84.056151 
L 216.448193 78.973128 
L 217.200106 80.945567 
L 217.576063 79.199727 
L 217.95202 82.516309 
L 218.327976 89.247324 
L 218.703933 84.900747 
L 219.07989 81.877713 
L 219.455846 88.273979 
L 219.831803 88.201879 
L 220.20776 90.200069 
L 220.583716 88.454228 
L 220.959673 91.755361 
L 221.33563 88.356379 
L 221.711586 92.177658 
L 222.087543 90.251569 
L 222.4635 93.001654 
L 222.839457 92.162209 
L 223.215413 95.123443 
L 223.59137 93.217953 
L 224.343283 95.004994 
L 224.71924 97.188582 
L 225.095197 96.204937 
L 225.471153 98.810824 
L 225.84711 98.563625 
L 226.223067 100.185866 
L 226.599023 104.480944 
L 226.97498 100.407315 
L 227.350937 100.191016 
L 227.726894 106.051686 
L 228.10285 101.998657 
L 228.478807 107.658477 
L 228.854764 109.800866 
L 229.23072 104.707543 
L 229.606677 103.466399 
L 229.982634 106.808732 
L 230.734547 110.351913 
L 231.110504 108.863571 
L 231.48646 114.018694 
L 231.862417 110.691811 
L 232.238374 115.501886 
L 232.614331 111.124409 
L 233.366244 118.663969 
L 233.742201 116.279532 
L 234.118157 120.039012 
L 234.494114 117.948123 
L 234.870071 123.221695 
L 235.246027 122.021752 
L 235.997941 124.612188 
L 236.373897 122.773648 
L 236.749854 128.01117 
L 237.125811 127.295324 
L 237.501768 130.704606 
L 237.877724 135.282932 
L 238.253681 130.524357 
L 238.629638 137.56952 
L 239.005594 137.322321 
L 239.381551 138.918813 
L 239.757508 142.261145 
L 240.133464 143.105741 
L 240.509421 149.198159 
L 240.885378 148.549262 
L 241.261334 152.947339 
L 241.637291 155.362676 
L 242.013248 155.944623 
L 242.389205 156.078523 
L 242.389205 156.078523 
" clip-path="url(#p60cbc98ccc)" style="fill: none; stroke: #c0392b; stroke-width: 1.5; stroke-linecap: square"/>
   </g>
   <g id="line2d_26">
    <path d="M 59.298295 133.284742 
L 59.674252 135.385931 
L 60.050209 134.361087 
L 60.426166 131.744901 
L 60.802122 133.109643 
L 61.178079 133.614341 
L 61.554036 132.434997 
L 61.929992 133.423792 
L 62.305949 131.92 
L 62.681906 131.956049 
L 63.057862 132.785195 
L 63.433819 130.720056 
L 63.809776 130.910605 
L 64.185732 132.620396 
L 64.937646 130.297758 
L 65.313603 128.222319 
L 65.689559 130.431657 
L 66.065516 129.664311 
L 66.441473 130.467707 
L 66.817429 129.334713 
L 67.193386 130.544957 
L 67.569343 130.112359 
L 67.945299 129.123564 
L 68.321256 127.557973 
L 68.697213 128.521017 
L 69.073169 129.061765 
L 69.449126 128.871216 
L 69.825083 128.969065 
L 70.20104 128.804266 
L 70.576996 127.326224 
L 70.952953 129.91666 
L 71.32891 124.910886 
L 71.704866 128.809416 
L 72.080823 130.261708 
L 72.832736 126.337429 
L 73.208693 127.485873 
L 73.58465 127.856671 
L 73.960606 127.748522 
L 74.336563 129.242014 
L 74.71252 129.597362 
L 75.088477 128.09357 
L 75.84039 129.169914 
L 76.216347 127.815471 
L 76.592303 129.355313 
L 76.96826 129.731261 
L 77.344217 130.333808 
L 77.720173 128.618867 
L 78.09613 128.06267 
L 78.472087 127.130525 
L 78.848043 125.868781 
L 79.224 125.709132 
L 79.599957 126.651577 
L 79.975914 126.497078 
L 80.35187 125.188985 
L 80.727827 129.391363 
L 81.103784 127.367424 
L 81.47974 127.053275 
L 81.855697 127.774271 
L 82.231654 127.573422 
L 82.60761 126.651577 
L 82.983567 127.830921 
L 83.73548 126.754577 
L 84.111437 127.274724 
L 84.487394 129.185364 
L 84.863351 128.701267 
L 85.239307 127.393173 
L 85.615264 128.155369 
L 85.991221 124.854237 
L 86.367177 125.729732 
L 86.743134 127.501323 
L 87.119091 126.450728 
L 87.495047 126.09023 
L 87.871004 126.10053 
L 88.246961 126.811226 
L 88.622917 124.792437 
L 88.998874 124.540088 
L 89.374831 124.926336 
L 89.750788 124.627638 
L 90.126744 125.806982 
L 90.502701 126.388929 
L 90.878658 126.471328 
L 91.254614 126.20868 
L 91.630571 125.451634 
L 92.006528 125.961481 
L 92.382484 124.885137 
L 92.758441 124.797587 
L 93.134398 123.211395 
L 93.510354 127.171725 
L 93.886311 126.806076 
L 94.262268 123.808792 
L 95.014181 124.843937 
L 95.390138 125.863631 
L 95.766095 127.336524 
L 96.142051 125.194135 
L 96.518008 124.524638 
L 96.893965 122.2535 
L 97.269921 122.922997 
L 97.645878 121.326505 
L 98.021835 126.007831 
L 98.397791 123.721243 
L 98.773748 127.424073 
L 99.149705 122.871497 
L 99.525662 123.916942 
L 99.901618 124.081741 
L 100.277575 123.278345 
L 100.653532 124.107491 
L 101.029488 121.264706 
L 101.405445 123.849992 
L 101.781402 122.660348 
L 102.157358 124.509189 
L 102.533315 122.613999 
L 102.909272 122.093851 
L 103.285228 121.285306 
L 103.661185 123.000246 
L 104.037142 121.614904 
L 104.413099 122.825147 
L 104.789055 121.939352 
L 105.165012 119.225316 
L 105.540969 120.39436 
L 105.916925 123.345295 
L 106.292882 120.239861 
L 107.044795 119.889663 
L 107.420752 123.103246 
L 107.796709 121.723053 
L 108.172665 121.970252 
L 108.548622 121.563404 
L 108.924579 119.982362 
L 109.300536 120.255311 
L 109.676492 120.780608 
L 110.052449 119.781513 
L 110.428406 121.007207 
L 110.804362 121.486154 
L 111.180319 120.569459 
L 111.556276 120.713659 
L 111.932232 123.041446 
L 112.308189 118.51977 
L 113.060102 121.146256 
L 113.436059 120.878458 
L 113.812016 119.539465 
L 114.563929 118.045973 
L 114.939886 115.440086 
L 115.315843 118.684569 
L 115.691799 119.127467 
L 116.067756 119.209866 
L 116.443713 118.57127 
L 117.195626 117.783324 
L 117.571583 117.834824 
L 117.947539 119.966912 
L 118.323496 118.159272 
L 118.699453 118.385871 
L 119.07541 117.371326 
L 119.451366 115.738785 
L 119.827323 116.104433 
L 120.20328 116.114733 
L 120.579236 114.65729 
L 120.955193 114.65214 
L 121.33115 117.685474 
L 121.707106 117.675174 
L 122.083063 116.748179 
L 122.45902 114.018694 
L 122.834976 115.816034 
L 123.210933 116.69153 
L 123.58689 118.978118 
L 123.962847 119.642464 
L 124.338803 114.394642 
L 124.71476 117.680324 
L 125.090717 115.069288 
L 125.466673 116.861479 
L 125.84263 116.392831 
L 126.218587 116.768779 
L 126.594543 116.073533 
L 126.9705 117.376476 
L 127.346457 114.66244 
L 127.722413 117.180777 
L 128.09837 117.469176 
L 128.474327 113.884794 
L 128.850284 115.527636 
L 129.22624 116.490681 
L 129.602197 114.79634 
L 129.978154 116.423731 
L 130.35411 116.974778 
L 130.730067 115.527636 
L 131.106024 114.68819 
L 131.48198 114.889039 
L 131.857937 116.284682 
L 132.233894 113.081399 
L 132.60985 114.832389 
L 132.985807 116.001433 
L 133.361764 111.459157 
L 133.737721 115.604885 
L 134.113677 114.399792 
L 134.489634 115.208337 
L 134.865591 115.285587 
L 135.241547 116.032333 
L 135.617504 112.066854 
L 135.993461 114.307092 
L 136.369417 114.198943 
L 136.745374 114.878739 
L 137.121331 114.034144 
L 137.497287 114.595491 
L 137.873244 112.334653 
L 138.249201 113.138048 
L 138.625158 116.222882 
L 139.001114 114.240143 
L 139.377071 113.792095 
L 139.753028 112.293453 
L 140.128984 114.471891 
L 140.504941 113.318297 
L 140.880898 113.869344 
L 141.256854 113.859045 
L 141.632811 113.132898 
L 142.008768 112.81875 
L 142.384724 115.192888 
L 142.760681 111.932955 
L 143.136638 113.462497 
L 143.512595 112.679701 
L 143.888551 111.438557 
L 144.264508 115.357687 
L 144.640465 113.040199 
L 145.016421 114.997189 
L 145.392378 116.032333 
L 145.768335 111.381908 
L 146.144291 112.432502 
L 146.520248 113.987794 
L 146.896205 112.195603 
L 147.272161 115.450386 
L 147.648118 112.988699 
L 148.024075 115.228937 
L 148.400032 112.257403 
L 148.775988 111.119259 
L 149.151945 112.257403 
L 149.527902 112.566401 
L 149.903858 113.277098 
L 150.279815 111.979304 
L 150.655772 114.332842 
L 151.031728 112.998999 
L 151.407685 110.94931 
L 151.783642 110.089264 
L 152.159598 114.543991 
L 152.535555 111.706356 
L 152.911512 112.74665 
L 153.287468 111.495207 
L 153.663425 113.354347 
L 154.039382 111.170759 
L 154.415339 111.469457 
L 154.791295 112.566401 
L 155.167252 111.562157 
L 155.543209 111.582756 
L 155.919165 112.283153 
L 156.295122 113.611846 
L 156.671079 111.397357 
L 157.047035 110.475512 
L 157.422992 111.675456 
L 157.798949 110.403413 
L 158.174905 113.127748 
L 158.550862 110.398263 
L 158.926819 111.515807 
L 159.302776 111.222258 
L 159.678732 108.693622 
L 160.054689 111.958705 
L 160.430646 113.040199 
L 160.806602 114.471891 
L 161.182559 110.753611 
L 161.558516 110.578512 
L 161.934472 112.911449 
L 162.310429 110.86691 
L 162.686386 111.222258 
L 163.062342 110.799961 
L 163.438299 109.491867 
L 163.814256 110.130464 
L 164.190213 112.520052 
L 164.566169 110.115014 
L 164.942126 112.025654 
L 165.318083 112.550951 
L 165.694039 112.8651 
L 166.069996 111.835105 
L 166.445953 113.761195 
L 166.821909 112.478852 
L 167.197866 112.468552 
L 167.949779 112.046254 
L 168.325736 112.535501 
L 168.701693 111.881455 
L 169.07765 112.957799 
L 169.453606 111.351008 
L 169.829563 110.480662 
L 170.20552 109.167419 
L 170.581476 113.704545 
L 170.957433 113.828145 
L 171.33339 111.886605 
L 171.709346 113.735445 
L 172.085303 110.758761 
L 172.46126 113.055649 
L 172.837216 111.134709 
L 173.213173 111.119259 
L 173.58913 112.324353 
L 173.965087 111.721806 
L 174.341043 114.307092 
L 174.717 111.273758 
L 175.092957 109.991415 
L 175.468913 114.523391 
L 175.84487 112.087454 
L 176.220827 111.871155 
L 176.596783 117.010828 
L 176.97274 113.951744 
L 177.348697 113.168948 
L 177.724653 110.87721 
L 178.10061 113.395547 
L 178.476567 114.518241 
L 178.852524 112.411902 
L 179.22848 112.231653 
L 179.604437 114.574891 
L 179.980394 118.293171 
L 180.35635 113.745745 
L 180.732307 115.172288 
L 181.108264 111.515807 
L 181.48422 115.182588 
L 181.860177 116.62458 
L 182.236134 115.434936 
L 182.61209 114.67274 
L 182.988047 117.489775 
L 183.364004 114.327692 
L 183.739961 115.208337 
L 184.115917 114.178343 
L 184.491874 117.361026 
L 184.867831 115.105338 
L 185.243787 116.119883 
L 185.619744 115.836634 
L 185.995701 117.052028 
L 186.371657 116.258932 
L 186.747614 114.69849 
L 187.123571 117.010828 
L 187.499527 115.074438 
L 187.875484 116.59883 
L 188.251441 114.440991 
L 188.627398 117.036578 
L 189.003354 116.57308 
L 189.379311 117.170477 
L 189.755268 116.56278 
L 190.131224 115.398886 
L 190.507181 116.959328 
L 191.259094 118.663969 
L 191.635051 117.402226 
L 192.011008 118.45797 
L 192.386964 118.185022 
L 192.762921 120.327411 
L 193.138878 118.51977 
L 193.514835 117.680324 
L 193.890791 116.346481 
L 194.266748 118.277721 
L 195.018661 116.825429 
L 195.394618 120.069912 
L 195.770575 119.230466 
L 196.146531 119.009017 
L 196.522488 118.107772 
L 196.898445 119.039917 
L 197.274401 117.623675 
L 197.650358 120.198661 
L 198.402272 116.876929 
L 199.154185 122.706698 
L 199.530142 120.790908 
L 199.906098 121.697303 
L 200.282055 120.929957 
L 200.658012 116.737879 
L 201.033968 119.009017 
L 201.409925 122.480099 
L 201.785882 121.511904 
L 202.161838 124.792437 
L 202.537795 119.910263 
L 202.913752 122.974497 
L 203.289709 123.443144 
L 203.665665 121.702453 
L 204.041622 119.354066 
L 204.417579 119.338616 
L 204.793535 122.943597 
L 205.169492 124.519489 
L 205.545449 122.928147 
L 205.921405 125.333184 
L 206.297362 123.716093 
L 206.673319 124.133241 
L 207.049275 124.22079 
L 207.425232 123.128996 
L 207.801189 127.660972 
L 208.177146 122.38225 
L 208.553102 122.773648 
L 208.929059 122.722148 
L 209.305016 124.488589 
L 209.680972 123.674893 
L 210.056929 126.023281 
L 210.432886 126.574328 
L 210.808842 123.540994 
L 211.184799 126.919376 
L 211.560756 125.976931 
L 211.936712 124.519489 
L 212.312669 127.053275 
L 212.688626 127.758821 
L 213.064583 125.637033 
L 213.440539 128.278969 
L 213.816496 124.364989 
L 214.192453 127.140825 
L 214.568409 126.842126 
L 214.944366 126.914226 
L 215.320323 128.212019 
L 215.696279 127.599172 
L 216.448193 129.149314 
L 216.824149 128.00087 
L 217.200106 130.256558 
L 217.576063 127.341674 
L 217.95202 129.360463 
L 218.327976 129.787911 
L 218.703933 130.570707 
L 219.07989 128.577667 
L 219.455846 131.147504 
L 219.831803 131.77065 
L 220.20776 132.877895 
L 220.583716 130.122659 
L 220.959673 133.640091 
L 221.33563 129.545862 
L 221.711586 129.808511 
L 222.087543 131.616151 
L 222.4635 134.700985 
L 222.839457 132.537996 
L 223.215413 133.75339 
L 223.59137 133.547391 
L 223.967327 133.80489 
L 224.343283 136.209927 
L 224.71924 135.828829 
L 225.095197 134.237487 
L 225.84711 134.968784 
L 226.223067 134.886384 
L 226.599023 136.637375 
L 226.97498 134.345637 
L 227.350937 135.252032 
L 227.726894 136.730074 
L 228.10285 134.319887 
L 228.478807 137.348071 
L 228.854764 137.49742 
L 229.23072 137.796119 
L 229.606677 135.545581 
L 230.35859 138.990912 
L 230.734547 136.699175 
L 231.110504 138.563465 
L 231.48646 138.810663 
L 231.862417 137.873368 
L 232.238374 139.54711 
L 232.614331 137.461371 
L 233.366244 142.199346 
L 233.742201 139.258711 
L 234.118157 142.786443 
L 234.494114 140.376255 
L 234.870071 142.724643 
L 235.246027 142.595894 
L 235.621984 141.807948 
L 235.997941 142.214796 
L 236.373897 142.225095 
L 236.749854 144.748582 
L 237.125811 144.290235 
L 237.501768 145.459278 
L 237.877724 147.349319 
L 238.253681 144.980331 
L 238.629638 148.564712 
L 239.005594 147.704667 
L 239.381551 149.646206 
L 239.757508 150.619551 
L 240.133464 150.722551 
L 240.509421 153.724985 
L 240.885378 153.431437 
L 241.637291 155.831324 
L 242.389205 156.078523 
L 242.389205 156.078523 
" clip-path="url(#p60cbc98ccc)" style="fill: none; stroke: #1f77b4; stroke-width: 1.5; stroke-linecap: square"/>
   </g>
   <g id="patch_3">
    <path d="M 50.14375 163.24 
L 50.14375 7.2 
" style="fill: none; stroke: #000000; stroke-width: 0.8; stroke-linejoin: miter; stroke-linecap: square"/>
   </g>
   <g id="patch_4">
    <path d="M 251.54375 163.24 
L 251.54375 7.2 
" style="fill: none; stroke: #000000; stroke-width: 0.8; stroke-linejoin: miter; stroke-linecap: square"/>
   </g>
   <g id="patch_5">
    <path d="M 50.14375 163.24 
L 251.54375 163.24 
" style="fill: none; stroke: #000000; stroke-width: 0.8; stroke-linejoin: miter; stroke-linecap: square"/>
   </g>
   <g id="patch_6">
    <path d="M 50.14375 7.2 
L 251.54375 7.2 
" style="fill: none; stroke: #000000; stroke-width: 0.8; stroke-linejoin: miter; stroke-linecap: square"/>
   </g>
   <g id="legend_1">
    <g id="patch_7">
     <path d="M 209.07095 33.833334 
L 246.68575 33.833334 
Q 248.07375 33.833334 248.07375 32.445334 
L 248.07375 12.058 
Q 248.07375 10.67 246.68575 10.67 
L 209.07095 10.67 
Q 207.68295 10.67 207.68295 12.058 
L 207.68295 32.445334 
Q 207.68295 33.833334 209.07095 33.833334 
z
" style="fill: #ffffff; opacity: 0.8; stroke: #cccccc; stroke-linejoin: miter"/>
    </g>
    <g id="line2d_27">
     <path d="M 210.45895 16.290316 
L 217.39895 16.290316 
L 224.33895 16.290316 
" style="fill: none; stroke: #c0392b; stroke-width: 1.5; stroke-linecap: square"/>
    </g>
    <g id="text_16">
     <!-- $\mathcal{I}_{\mathrm{kill}}$ -->
     <g transform="translate(229.89095 18.719316)">
      <text>
       <tspan x="0" y="-0.40625" style="font-style: italic; font-size: 6.94px; font-family: 'STIXNonUnicode'"></tspan>
       <tspan x="4.055505" y="0.732812" style="font-size: 4.858px; font-family: 'DejaVu Sans'">k</tspan>
       <tspan x="6.867767" y="0.732812" style="font-size: 4.858px; font-family: 'DejaVu Sans'">i</tspan>
       <tspan x="8.216989" y="0.732812" style="font-size: 4.858px; font-family: 'DejaVu Sans'">l</tspan>
       <tspan x="9.56621" y="0.732812" style="font-size: 4.858px; font-family: 'DejaVu Sans'">l</tspan>
      </text>
     </g>
    </g>
    <g id="line2d_28">
     <path d="M 210.45895 26.476934 
L 217.39895 26.476934 
L 224.33895 26.476934 
" style="fill: none; stroke: #1f77b4; stroke-width: 1.5; stroke-linecap: square"/>
    </g>
    <g id="text_17">
     <!-- $\mathcal{I}_{\mathrm{pass}}$ -->
     <g transform="translate(229.89095 28.905934)">
      <text>
       <tspan x="0" y="-0.40625" style="font-style: italic; font-size: 6.94px; font-family: 'STIXNonUnicode'"></tspan>
       <tspan x="4.055505" y="0.732812" style="font-size: 4.858px; font-family: 'DejaVu Sans'">p</tspan>
       <tspan x="7.138085" y="0.732812" style="font-size: 4.858px; font-family: 'DejaVu Sans'">a</tspan>
       <tspan x="10.113961" y="0.732812" style="font-size: 4.858px; font-family: 'DejaVu Sans'">s</tspan>
       <tspan x="12.644048" y="0.732812" style="font-size: 4.858px; font-family: 'DejaVu Sans'">s</tspan>
      </text>
     </g>
    </g>
   </g>
  </g>
 </g>
 <defs>
  <clipPath id="p60cbc98ccc">
   <rect x="50.14375" y="7.2" width="201.4" height="156.04"/>
  </clipPath>
 </defs>
</svg>
