<?xml version="1.0" encoding="utf-8" standalone="no"?>
<!DOCTYPE svg PUBLIC "-//W3C//DTD SVG 1.1//EN"
  "http://www.w3.org/Graphics/SVG/1.1/DTD/svg11.dtd">
<svg xmlns:xlink="http://www.w3.org/1999/xlink" width="258.74375pt" height="200.79625pt" viewBox="0 0 258.74375 200.79625" xmlns="http://www.w3.org/2000/svg" version="1.1">
 <metadata>
  <rdf:RDF xmlns:dc="http://purl.org/dc/elements/1.1/" xmlns:cc="http://creativecommons.org/ns#" xmlns:rdf="http://www.w3.org/1999/02/22-rdf-syntax-ns#">
   <cc:Work>
    <dc:type rdf:resource="http://purl.org/dc/dcmitype/StillImage"/>
    <dc:format>image/svg+xml</dc:format>
    <dc:creator>
     <cc:Agent>
      <dc:title>Matplotlib v3.10.9, https://matplotlib.org/</dc:title>
     </cc:Agent>
    </dc:creator>
   </cc:Work>
  </rdf:RDF>
 </metadata>
 <defs>
  <style type="text/css">*{stroke-linejoin: round; stroke-linecap: butt}</style>
 </defs>
 <g id="figure_1">
  <g id="patch_1">
   <path d="M 0 200.79625 
L 258.74375 200.79625 
L 258.74375 0 
L 0 0 
z
" style="fill: #ffffff"/>
  </g>
  <g id="axes_1">
   <g id="patch_2">
    <path d="M 50.14375 163.24 
L 251.54375 163.24 
L 251.54375 7.2 
L 50.14375 7.2 
z
" style="fill: #ffffff"/>
   </g>
   <g id="FillBetweenPolyCollection_1">
    <defs>
     <path id="mcffaf64ff2" d="M 59.298295 -102.66827 
L 59.298295 -98.597737 
L 59.674252 -101.784917 
L 60.050209 -98.977128 
L 60.426166 -100.8731 
L 60.802122 -105.170104 
L 61.178079 -109.414457 
L 61.554036 -99.267587 
L 61.929992 -107.846098 
L 62.305949 -103.220744 
L 62.681906 -107.882212 
L 63.057862 -113.531508 
L 63.433819 -104.71644 
L 63.809776 -112.616522 
L 64.185732 -109.51567 
L 64.561689 -109.993918 
L 64.937646 -110.873157 
L 65.313603 -111.147761 
L 65.689559 -108.376269 
L 66.065516 -119.852401 
L 66.441473 -115.192721 
L 66.817429 -114.503144 
L 67.193386 -115.271497 
L 67.569343 -107.995158 
L 67.945299 -122.654761 
L 68.321256 -116.729026 
L 68.697213 -112.679091 
L 69.073169 -111.964443 
L 69.449126 -119.021639 
L 69.825083 -116.879464 
L 70.20104 -122.863829 
L 70.576996 -111.876324 
L 70.952953 -119.995993 
L 71.32891 -120.59001 
L 71.704866 -122.819128 
L 72.080823 -120.439396 
L 72.45678 -120.105827 
L 72.832736 -118.816662 
L 73.208693 -117.925538 
L 73.58465 -125.168874 
L 73.960606 -118.047172 
L 74.336563 -120.732543 
L 74.71252 -116.124174 
L 75.088477 -117.80174 
L 75.464433 -125.309635 
L 75.84039 -120.682674 
L 76.216347 -124.130216 
L 76.592303 -121.372466 
L 76.96826 -124.908901 
L 77.344217 -131.409428 
L 77.720173 -134.984176 
L 78.09613 -121.905673 
L 78.472087 -118.149402 
L 78.848043 -128.608887 
L 79.224 -124.366268 
L 79.599957 -129.561611 
L 79.975914 -129.599408 
L 80.35187 -126.486945 
L 80.727827 -130.297122 
L 81.103784 -122.799496 
L 81.47974 -131.91842 
L 81.855697 -127.837884 
L 82.231654 -134.631936 
L 82.60761 -129.674192 
L 82.983567 -130.435006 
L 83.359524 -134.870135 
L 83.73548 -117.931376 
L 84.111437 -137.468233 
L 84.487394 -133.152926 
L 84.863351 -127.976349 
L 85.239307 -130.756985 
L 85.615264 -126.92668 
L 85.991221 -123.304842 
L 86.367177 -137.401671 
L 86.743134 -134.958591 
L 87.119091 -131.906834 
L 87.495047 -127.680111 
L 87.871004 -130.696602 
L 88.246961 -137.161305 
L 88.622917 -136.711277 
L 88.998874 -134.977671 
L 89.374831 -132.717628 
L 89.750788 -137.806671 
L 90.126744 -143.201337 
L 90.502701 -132.812705 
L 90.878658 -150.603422 
L 91.254614 -139.570763 
L 91.630571 -134.283137 
L 92.006528 -136.162198 
L 92.382484 -138.297007 
L 92.758441 -142.168724 
L 93.134398 -142.569424 
L 93.510354 -140.337099 
L 93.886311 -146.731082 
L 94.262268 -142.375013 
L 94.638225 -142.612053 
L 95.014181 -142.085145 
L 95.390138 -146.54894 
L 95.766095 -148.012767 
L 96.142051 -139.122355 
L 96.518008 -141.450957 
L 96.893965 -136.478746 
L 97.269921 -146.414381 
L 97.645878 -143.73112 
L 98.021835 -140.033134 
L 98.397791 -141.441162 
L 98.773748 -147.68031 
L 99.149705 -140.945141 
L 99.525662 -146.70867 
L 99.901618 -149.812287 
L 100.277575 -140.897407 
L 100.653532 -147.282915 
L 101.029488 -139.890933 
L 101.405445 -139.55583 
L 101.781402 -149.546217 
L 102.157358 -150.056601 
L 102.533315 -142.510932 
L 102.909272 -144.00987 
L 103.285228 -140.952645 
L 103.661185 -149.745026 
L 104.037142 -148.543312 
L 104.413099 -161.25023 
L 104.789055 -151.81203 
L 105.165012 -148.886039 
L 105.540969 -151.634698 
L 105.916925 -145.309208 
L 106.292882 -150.714484 
L 106.668839 -150.87714 
L 107.044795 -157.071248 
L 107.420752 -155.990134 
L 107.796709 -147.606276 
L 108.172665 -150.475718 
L 108.548622 -154.262505 
L 108.924579 -154.064388 
L 109.300536 -153.861244 
L 109.676492 -149.459545 
L 110.052449 -148.090887 
L 110.428406 -153.06988 
L 110.804362 -152.703552 
L 111.180319 -155.636939 
L 111.556276 -152.223097 
L 111.932232 -144.320015 
L 112.308189 -152.977396 
L 112.684146 -152.330565 
L 113.060102 -143.350362 
L 113.436059 -156.799401 
L 113.812016 -152.543268 
L 114.187973 -159.526428 
L 114.563929 -158.092725 
L 114.939886 -155.176574 
L 115.315843 -150.322714 
L 115.691799 -152.818111 
L 116.067756 -159.57041 
L 116.443713 -152.92158 
L 116.819669 -153.078527 
L 117.195626 -152.186275 
L 117.571583 -157.771894 
L 117.947539 -159.285191 
L 118.323496 -158.130758 
L 118.699453 -162.747147 
L 119.07541 -160.758885 
L 119.451366 -153.112836 
L 119.827323 -156.039717 
L 120.20328 -156.491244 
L 120.579236 -142.909858 
L 120.955193 -156.970153 
L 121.33115 -157.31334 
L 121.707106 -158.737987 
L 122.083063 -152.898612 
L 122.45902 -150.846617 
L 122.834976 -153.585348 
L 123.210933 -149.169507 
L 123.58689 -162.481528 
L 123.962847 -148.321512 
L 124.338803 -144.326699 
L 124.71476 -164.022446 
L 125.090717 -159.788404 
L 125.466673 -156.67687 
L 125.84263 -165.440964 
L 126.218587 -157.028344 
L 126.594543 -159.994493 
L 126.9705 -160.681172 
L 127.346457 -153.997606 
L 127.722413 -159.743882 
L 128.09837 -168.213271 
L 128.474327 -158.724333 
L 128.850284 -151.481481 
L 129.22624 -158.344562 
L 129.602197 -157.990683 
L 129.978154 -153.886077 
L 130.35411 -149.228649 
L 130.730067 -158.251886 
L 131.106024 -156.38205 
L 131.48198 -153.524134 
L 131.857937 -164.460337 
L 132.233894 -149.200024 
L 132.60985 -151.152953 
L 132.985807 -160.45093 
L 133.361764 -155.612348 
L 133.737721 -158.368884 
L 134.113677 -160.515831 
L 134.489634 -151.170861 
L 134.865591 -161.467551 
L 135.241547 -167.952794 
L 135.617504 -158.725533 
L 135.993461 -157.834449 
L 136.369417 -157.738977 
L 136.745374 -154.964561 
L 137.121331 -162.401007 
L 137.497287 -161.799715 
L 137.873244 -152.865705 
L 138.249201 -149.395303 
L 138.625158 -159.98958 
L 139.001114 -159.472956 
L 139.377071 -163.55329 
L 139.753028 -154.899036 
L 140.128984 -163.812358 
L 140.504941 -158.851646 
L 140.880898 -158.889884 
L 141.256854 -166.774968 
L 141.632811 -155.804758 
L 142.008768 -164.696239 
L 142.384724 -162.911396 
L 142.760681 -158.136698 
L 143.136638 -157.906479 
L 143.512595 -160.290853 
L 143.888551 -155.645202 
L 144.264508 -159.241156 
L 144.640465 -159.287785 
L 145.016421 -157.909537 
L 145.392378 -163.515198 
L 145.768335 -154.251372 
L 146.144291 -160.889373 
L 146.520248 -159.647361 
L 146.896205 -161.540611 
L 147.272161 -155.391688 
L 147.648118 -160.744826 
L 148.024075 -158.884209 
L 148.400032 -154.308252 
L 148.775988 -158.721236 
L 149.151945 -152.66663 
L 149.527902 -164.77649 
L 149.903858 -158.373887 
L 150.279815 -160.173795 
L 150.655772 -157.222331 
L 151.031728 -159.411419 
L 151.407685 -163.766726 
L 151.783642 -156.588301 
L 152.159598 -157.247181 
L 152.535555 -153.050928 
L 152.911512 -159.42029 
L 153.287468 -165.073138 
L 153.663425 -148.827646 
L 154.039382 -161.014827 
L 154.415339 -155.212796 
L 154.791295 -157.860856 
L 155.167252 -159.746788 
L 155.543209 -154.85719 
L 155.919165 -163.317124 
L 156.295122 -157.807255 
L 156.671079 -158.017472 
L 157.047035 -159.659503 
L 157.422992 -153.246265 
L 157.798949 -169.016985 
L 158.174905 -144.914757 
L 158.550862 -154.286434 
L 158.926819 -158.020432 
L 159.302776 -149.587802 
L 159.678732 -162.392928 
L 160.054689 -152.187887 
L 160.430646 -163.881656 
L 160.806602 -153.615399 
L 161.182559 -165.42287 
L 161.558516 -155.959548 
L 161.934472 -145.348839 
L 162.310429 -157.639863 
L 162.686386 -155.013851 
L 163.062342 -159.665228 
L 163.438299 -157.751604 
L 163.814256 -155.862401 
L 164.190213 -145.505826 
L 164.566169 -154.713386 
L 164.942126 -150.711081 
L 165.318083 -147.945599 
L 165.694039 -157.430199 
L 166.069996 -163.058176 
L 166.445953 -151.876616 
L 166.821909 -147.376326 
L 167.197866 -151.72717 
L 167.573823 -150.016551 
L 167.949779 -162.100585 
L 168.325736 -162.237508 
L 168.701693 -156.924465 
L 169.07765 -150.518974 
L 169.453606 -152.619596 
L 169.829563 -150.07384 
L 170.20552 -152.267371 
L 170.581476 -154.678254 
L 170.957433 -149.734228 
L 171.33339 -150.457911 
L 171.709346 -153.201021 
L 172.085303 -152.983101 
L 172.46126 -147.96285 
L 172.837216 -155.394895 
L 173.213173 -152.6038 
L 173.58913 -147.169841 
L 173.965087 -153.333506 
L 174.341043 -144.0267 
L 174.717 -148.161546 
L 175.092957 -145.964835 
L 175.468913 -148.870384 
L 175.84487 -146.408813 
L 176.220827 -149.531753 
L 176.596783 -150.951555 
L 176.97274 -146.046786 
L 177.348697 -145.663192 
L 177.724653 -147.436821 
L 178.10061 -146.200439 
L 178.476567 -150.848064 
L 178.852524 -144.310318 
L 179.22848 -146.733314 
L 179.604437 -146.508993 
L 179.980394 -148.640787 
L 180.35635 -142.564775 
L 180.732307 -145.855804 
L 181.108264 -138.993511 
L 181.48422 -150.259446 
L 181.860177 -148.435793 
L 182.236134 -146.61602 
L 182.61209 -143.425355 
L 182.988047 -139.613558 
L 183.364004 -141.915574 
L 183.739961 -144.685279 
L 184.115917 -132.304953 
L 184.491874 -140.173637 
L 184.867831 -135.896106 
L 185.243787 -140.75868 
L 185.619744 -143.988634 
L 185.995701 -143.043228 
L 186.371657 -142.743196 
L 186.747614 -141.551712 
L 187.123571 -137.922712 
L 187.499527 -149.448837 
L 187.875484 -144.082136 
L 188.251441 -133.38568 
L 188.627398 -135.566889 
L 189.003354 -128.939178 
L 189.379311 -129.994008 
L 189.755268 -138.10622 
L 190.131224 -136.442039 
L 190.507181 -137.816702 
L 190.883138 -139.429323 
L 191.259094 -148.882817 
L 191.635051 -138.112808 
L 192.011008 -139.120471 
L 192.386964 -132.11093 
L 192.762921 -137.765978 
L 193.138878 -132.695162 
L 193.514835 -132.389266 
L 193.890791 -144.30684 
L 194.266748 -135.650874 
L 194.642705 -129.250839 
L 195.018661 -131.410179 
L 195.394618 -132.131781 
L 195.770575 -135.303125 
L 196.146531 -132.64454 
L 196.522488 -135.072987 
L 196.898445 -117.436039 
L 197.274401 -129.642703 
L 197.650358 -137.415412 
L 198.026315 -126.471356 
L 198.402272 -133.442385 
L 198.778228 -129.162847 
L 199.154185 -132.221654 
L 199.530142 -121.110925 
L 199.906098 -129.346204 
L 200.282055 -132.241448 
L 200.658012 -124.030415 
L 201.033968 -127.40278 
L 201.409925 -134.238908 
L 201.785882 -130.452784 
L 202.161838 -128.206951 
L 202.537795 -123.531398 
L 202.913752 -126.334336 
L 203.289709 -124.823677 
L 203.665665 -123.09613 
L 204.041622 -127.357604 
L 204.417579 -126.810264 
L 204.793535 -127.911844 
L 205.169492 -125.767325 
L 205.545449 -121.428426 
L 205.921405 -123.269931 
L 206.297362 -125.636163 
L 206.673319 -120.638371 
L 207.049275 -119.473993 
L 207.425232 -121.635891 
L 207.801189 -115.628595 
L 208.177146 -125.076982 
L 208.553102 -110.931677 
L 208.929059 -122.969393 
L 209.305016 -122.698351 
L 209.680972 -118.673635 
L 210.056929 -115.66405 
L 210.432886 -118.703572 
L 210.808842 -114.812166 
L 211.184799 -113.153587 
L 211.560756 -124.002676 
L 211.936712 -108.873517 
L 212.312669 -108.284527 
L 212.688626 -113.977252 
L 213.064583 -111.910339 
L 213.440539 -114.871102 
L 213.816496 -113.738312 
L 214.192453 -108.14153 
L 214.568409 -114.127337 
L 214.944366 -112.07051 
L 215.320323 -106.499291 
L 215.696279 -105.990092 
L 216.072236 -106.941515 
L 216.448193 -114.626098 
L 216.824149 -111.979924 
L 217.200106 -114.71961 
L 217.576063 -104.716439 
L 217.95202 -111.746047 
L 218.327976 -105.365593 
L 218.703933 -103.79435 
L 219.07989 -107.320292 
L 219.455846 -103.466727 
L 219.831803 -102.4697 
L 220.20776 -105.123471 
L 220.583716 -110.944038 
L 220.959673 -103.036957 
L 221.33563 -107.491578 
L 221.711586 -92.845619 
L 222.087543 -95.992096 
L 222.4635 -98.018003 
L 222.839457 -100.227071 
L 223.215413 -98.024447 
L 223.59137 -100.754073 
L 223.967327 -101.351459 
L 224.343283 -101.276371 
L 224.71924 -95.47158 
L 225.095197 -99.380859 
L 225.471153 -99.062951 
L 225.84711 -95.558532 
L 226.223067 -99.662717 
L 226.599023 -90.38876 
L 226.97498 -84.179413 
L 227.350937 -99.178768 
L 227.726894 -83.957987 
L 228.10285 -89.155747 
L 228.478807 -92.907058 
L 228.854764 -91.050502 
L 229.23072 -85.982381 
L 229.606677 -89.183833 
L 229.982634 -90.452269 
L 230.35859 -83.544799 
L 230.734547 -85.166718 
L 231.110504 -79.50254 
L 231.48646 -84.610375 
L 231.862417 -78.312572 
L 232.238374 -85.695346 
L 232.614331 -74.472595 
L 232.990287 -78.220215 
L 233.366244 -72.682254 
L 233.742201 -71.729235 
L 234.118157 -72.708789 
L 234.494114 -73.269187 
L 234.870071 -67.196409 
L 235.246027 -74.268816 
L 235.621984 -73.075977 
L 235.997941 -67.30102 
L 236.373897 -71.217527 
L 236.749854 -63.490117 
L 237.125811 -65.450541 
L 237.501768 -58.807983 
L 237.877724 -64.866519 
L 238.253681 -66.134372 
L 238.629638 -66.402356 
L 239.005594 -59.30346 
L 239.381551 -56.570973 
L 239.757508 -55.445042 
L 240.133464 -50.18025 
L 240.509421 -51.78833 
L 240.885378 -48.961141 
L 241.261334 -47.802066 
L 241.637291 -45.375443 
L 242.013248 -44.659831 
L 242.389205 -44.648977 
L 242.389205 -44.676313 
L 242.389205 -44.676313 
L 242.013248 -45.143839 
L 241.637291 -48.610627 
L 241.261334 -53.182007 
L 240.885378 -55.767957 
L 240.509421 -60.075452 
L 240.133464 -59.510323 
L 239.757508 -63.157051 
L 239.381551 -59.352197 
L 239.005594 -71.668151 
L 238.629638 -77.663175 
L 238.253681 -77.630463 
L 237.877724 -74.879932 
L 237.501768 -77.289118 
L 237.125811 -76.592129 
L 236.749854 -72.046597 
L 236.373897 -80.939445 
L 235.997941 -81.712317 
L 235.621984 -84.98556 
L 235.246027 -90.161997 
L 234.870071 -83.375078 
L 234.494114 -92.747111 
L 234.118157 -93.006814 
L 233.742201 -87.316396 
L 233.366244 -89.780371 
L 232.990287 -90.680027 
L 232.614331 -91.461696 
L 232.238374 -89.328148 
L 231.862417 -91.175393 
L 231.48646 -98.682244 
L 231.110504 -99.320651 
L 230.734547 -100.217101 
L 230.35859 -97.970983 
L 229.982634 -104.307781 
L 229.606677 -98.960917 
L 229.23072 -99.538118 
L 228.854764 -101.87804 
L 228.478807 -105.84404 
L 228.10285 -106.957433 
L 227.726894 -99.662663 
L 227.350937 -104.000755 
L 226.97498 -103.445954 
L 226.599023 -103.100168 
L 226.223067 -108.355269 
L 225.84711 -104.245001 
L 225.471153 -115.283308 
L 225.095197 -111.821765 
L 224.71924 -107.502923 
L 224.343283 -110.636988 
L 223.967327 -111.614334 
L 223.59137 -113.865545 
L 223.215413 -106.890908 
L 222.839457 -108.63833 
L 222.4635 -106.788009 
L 222.087543 -113.119328 
L 221.711586 -107.723321 
L 221.33563 -112.11685 
L 220.959673 -112.498415 
L 220.583716 -116.796836 
L 220.20776 -110.767269 
L 219.831803 -120.296031 
L 219.455846 -109.157367 
L 219.07989 -115.418103 
L 218.703933 -118.096631 
L 218.327976 -116.047008 
L 217.95202 -121.366341 
L 217.576063 -120.837559 
L 217.200106 -130.092565 
L 216.824149 -134.11704 
L 216.448193 -120.563822 
L 216.072236 -119.227542 
L 215.696279 -122.324837 
L 215.320323 -115.282345 
L 214.944366 -126.181037 
L 214.568409 -122.060346 
L 214.192453 -129.631638 
L 213.816496 -125.729684 
L 213.440539 -133.371735 
L 213.064583 -121.762437 
L 212.688626 -130.506892 
L 212.312669 -128.381535 
L 211.936712 -123.528136 
L 211.560756 -131.47052 
L 211.184799 -126.792788 
L 210.808842 -129.357614 
L 210.432886 -133.21595 
L 210.056929 -132.264423 
L 209.680972 -139.560492 
L 209.305016 -132.200789 
L 208.929059 -137.943656 
L 208.553102 -134.454552 
L 208.177146 -138.610666 
L 207.801189 -139.653249 
L 207.425232 -136.734915 
L 207.049275 -134.345378 
L 206.673319 -134.834825 
L 206.297362 -141.728171 
L 205.921405 -133.078015 
L 205.545449 -142.833278 
L 205.169492 -139.505809 
L 204.793535 -137.839669 
L 204.417579 -139.282948 
L 204.041622 -134.730891 
L 203.665665 -143.994844 
L 203.289709 -137.879877 
L 202.913752 -131.749442 
L 202.537795 -143.655253 
L 202.161838 -134.633283 
L 201.785882 -137.635952 
L 201.409925 -137.048134 
L 201.033968 -138.950124 
L 200.658012 -147.762342 
L 200.282055 -144.840816 
L 199.906098 -145.111809 
L 199.530142 -141.647302 
L 199.154185 -139.844464 
L 198.778228 -143.832692 
L 198.402272 -153.385145 
L 198.026315 -148.314688 
L 197.650358 -147.30725 
L 197.274401 -143.721872 
L 196.898445 -153.235944 
L 196.522488 -142.405648 
L 196.146531 -144.123361 
L 195.770575 -148.203087 
L 195.394618 -144.595116 
L 195.018661 -145.754092 
L 194.642705 -149.498918 
L 194.266748 -146.447536 
L 193.890791 -157.200095 
L 193.514835 -156.707148 
L 193.138878 -152.437539 
L 192.762921 -146.874676 
L 192.386964 -145.709405 
L 192.011008 -145.779875 
L 191.635051 -143.630236 
L 191.259094 -158.309996 
L 190.883138 -160.13676 
L 190.507181 -146.523256 
L 190.131224 -151.219238 
L 189.755268 -154.748887 
L 189.379311 -152.760465 
L 189.003354 -159.063798 
L 188.627398 -150.782262 
L 188.251441 -148.84941 
L 187.875484 -161.429516 
L 187.499527 -162.869466 
L 187.123571 -159.89387 
L 186.747614 -158.15105 
L 186.371657 -160.062197 
L 185.995701 -157.821312 
L 185.619744 -163.614218 
L 185.243787 -155.650101 
L 184.867831 -156.248267 
L 184.491874 -158.217 
L 184.115917 -154.850608 
L 183.739961 -160.156642 
L 183.364004 -152.962393 
L 182.988047 -161.879709 
L 182.61209 -165.339275 
L 182.236134 -163.324056 
L 181.860177 -158.975707 
L 181.48422 -160.432369 
L 181.108264 -158.604383 
L 180.732307 -161.227665 
L 180.35635 -166.568891 
L 179.980394 -165.686709 
L 179.604437 -160.383125 
L 179.22848 -161.252242 
L 178.852524 -163.770913 
L 178.476567 -166.158356 
L 178.10061 -154.705105 
L 177.724653 -162.339239 
L 177.348697 -158.932706 
L 176.97274 -160.353285 
L 176.596783 -162.801886 
L 176.220827 -168.882468 
L 175.84487 -165.308099 
L 175.468913 -161.097028 
L 175.092957 -159.792841 
L 174.717 -161.081463 
L 174.341043 -164.122872 
L 173.965087 -167.74597 
L 173.58913 -166.802288 
L 173.213173 -174.093213 
L 172.837216 -164.454463 
L 172.46126 -166.200631 
L 172.085303 -168.301395 
L 171.709346 -166.415981 
L 171.33339 -164.730667 
L 170.957433 -161.709325 
L 170.581476 -168.752114 
L 170.20552 -166.187853 
L 169.829563 -163.037206 
L 169.453606 -166.847059 
L 169.07765 -171.927299 
L 168.701693 -169.48552 
L 168.325736 -168.300206 
L 167.949779 -172.48285 
L 167.573823 -172.962773 
L 167.197866 -172.140573 
L 166.821909 -169.233722 
L 166.445953 -166.195905 
L 166.069996 -169.707418 
L 165.694039 -165.617465 
L 165.318083 -168.432093 
L 164.942126 -164.860201 
L 164.566169 -170.780845 
L 164.190213 -164.43425 
L 163.814256 -178.707366 
L 163.438299 -170.407883 
L 163.062342 -171.337198 
L 162.686386 -166.215972 
L 162.310429 -176.615541 
L 161.934472 -167.967227 
L 161.558516 -173.115693 
L 161.182559 -170.363347 
L 160.806602 -179.970274 
L 160.430646 -173.845413 
L 160.054689 -167.593132 
L 159.678732 -166.313278 
L 159.302776 -176.767512 
L 158.926819 -183.615678 
L 158.550862 -178.219468 
L 158.174905 -171.408264 
L 157.798949 -182.924779 
L 157.422992 -174.065808 
L 157.047035 -176.058374 
L 156.671079 -174.584107 
L 156.295122 -181.751323 
L 155.919165 -170.268549 
L 155.543209 -176.104232 
L 155.167252 -173.251162 
L 154.791295 -174.877403 
L 154.415339 -179.288631 
L 154.039382 -174.361351 
L 153.663425 -172.648201 
L 153.287468 -184.326382 
L 152.911512 -181.259062 
L 152.535555 -175.873966 
L 152.159598 -172.251767 
L 151.783642 -177.858454 
L 151.407685 -177.746372 
L 151.031728 -179.846463 
L 150.655772 -172.93268 
L 150.279815 -173.972264 
L 149.903858 -180.063917 
L 149.527902 -177.324331 
L 149.151945 -171.515476 
L 148.775988 -177.023977 
L 148.400032 -169.737174 
L 148.024075 -176.232278 
L 147.648118 -175.834134 
L 147.272161 -175.52873 
L 146.896205 -171.580351 
L 146.520248 -167.733051 
L 146.144291 -180.979093 
L 145.768335 -176.64171 
L 145.392378 -184.025478 
L 145.016421 -181.621705 
L 144.640465 -175.02229 
L 144.264508 -175.355947 
L 143.888551 -173.949422 
L 143.512595 -176.274438 
L 143.136638 -178.426457 
L 142.760681 -176.419401 
L 142.384724 -175.266716 
L 142.008768 -178.83972 
L 141.632811 -169.757813 
L 141.256854 -176.89767 
L 140.880898 -179.998964 
L 140.504941 -178.123685 
L 140.128984 -179.299893 
L 139.753028 -171.743306 
L 139.377071 -176.387991 
L 139.001114 -178.718824 
L 138.625158 -176.575711 
L 138.249201 -178.764184 
L 137.873244 -179.476182 
L 137.497287 -176.624421 
L 137.121331 -177.922977 
L 136.745374 -175.955857 
L 136.369417 -174.848934 
L 135.993461 -176.120259 
L 135.617504 -181.010729 
L 135.241547 -177.729037 
L 134.865591 -171.653411 
L 134.489634 -172.259506 
L 134.113677 -169.010453 
L 133.737721 -185.249083 
L 133.361764 -174.337643 
L 132.985807 -175.690654 
L 132.60985 -177.922288 
L 132.233894 -174.503703 
L 131.857937 -179.403653 
L 131.48198 -179.063776 
L 131.106024 -173.116899 
L 130.730067 -179.22916 
L 130.35411 -180.981034 
L 129.978154 -181.271413 
L 129.602197 -180.693144 
L 129.22624 -186.503523 
L 128.850284 -179.561949 
L 128.474327 -171.376006 
L 128.09837 -174.215582 
L 127.722413 -177.901179 
L 127.346457 -174.790608 
L 126.9705 -177.660956 
L 126.594543 -176.912498 
L 126.218587 -175.87393 
L 125.84263 -173.092516 
L 125.466673 -179.396375 
L 125.090717 -175.013719 
L 124.71476 -179.499845 
L 124.338803 -171.73663 
L 123.962847 -183.706012 
L 123.58689 -171.596192 
L 123.210933 -169.996452 
L 122.834976 -173.357689 
L 122.45902 -169.330773 
L 122.083063 -182.983281 
L 121.707106 -176.84321 
L 121.33115 -175.670942 
L 120.955193 -174.086944 
L 120.579236 -177.909926 
L 120.20328 -173.636431 
L 119.827323 -182.931138 
L 119.451366 -171.369966 
L 119.07541 -172.034045 
L 118.699453 -181.0075 
L 118.323496 -172.147265 
L 117.947539 -173.726427 
L 117.571583 -178.957414 
L 117.195626 -176.096224 
L 116.819669 -178.702973 
L 116.443713 -170.89149 
L 116.067756 -168.8351 
L 115.691799 -181.245941 
L 115.315843 -175.567889 
L 114.939886 -171.192408 
L 114.563929 -172.267305 
L 114.187973 -177.517243 
L 113.812016 -172.622933 
L 113.436059 -177.975386 
L 113.060102 -177.223399 
L 112.684146 -177.400739 
L 112.308189 -175.127419 
L 111.932232 -179.479387 
L 111.556276 -166.314136 
L 111.180319 -168.381151 
L 110.804362 -166.079703 
L 110.428406 -165.904727 
L 110.052449 -172.592218 
L 109.676492 -170.362477 
L 109.300536 -168.885725 
L 108.924579 -169.926366 
L 108.548622 -163.741677 
L 108.172665 -171.300824 
L 107.796709 -168.853424 
L 107.420752 -170.542863 
L 107.044795 -159.730152 
L 106.668839 -164.666806 
L 106.292882 -164.077724 
L 105.916925 -170.057054 
L 105.540969 -171.946017 
L 105.165012 -165.195433 
L 104.789055 -168.351692 
L 104.413099 -171.638376 
L 104.037142 -162.011823 
L 103.661185 -167.794445 
L 103.285228 -159.693208 
L 102.909272 -155.897913 
L 102.533315 -164.094158 
L 102.157358 -167.305185 
L 101.781402 -160.106831 
L 101.405445 -157.632025 
L 101.029488 -164.171913 
L 100.653532 -156.930279 
L 100.277575 -156.673152 
L 99.901618 -158.979679 
L 99.525662 -153.035097 
L 99.149705 -158.90797 
L 98.773748 -157.667326 
L 98.397791 -157.154495 
L 98.021835 -161.227778 
L 97.645878 -159.716668 
L 97.269921 -155.078886 
L 96.893965 -151.264539 
L 96.518008 -149.44963 
L 96.142051 -155.90596 
L 95.766095 -153.002121 
L 95.390138 -156.461473 
L 95.014181 -153.653905 
L 94.638225 -162.735583 
L 94.262268 -162.412236 
L 93.886311 -155.021877 
L 93.510354 -160.664121 
L 93.134398 -155.028471 
L 92.758441 -160.363309 
L 92.382484 -144.935845 
L 92.006528 -142.642231 
L 91.630571 -149.059059 
L 91.254614 -151.042796 
L 90.878658 -158.940282 
L 90.502701 -153.427102 
L 90.126744 -159.631392 
L 89.750788 -144.182396 
L 89.374831 -151.171288 
L 88.998874 -144.482821 
L 88.622917 -143.432614 
L 88.246961 -152.891867 
L 87.871004 -143.693071 
L 87.495047 -152.231424 
L 87.119091 -149.576518 
L 86.743134 -151.117201 
L 86.367177 -150.16393 
L 85.991221 -146.492391 
L 85.615264 -141.230397 
L 85.239307 -153.008919 
L 84.863351 -149.761978 
L 84.487394 -149.792899 
L 84.111437 -147.473116 
L 83.73548 -146.056967 
L 83.359524 -144.658696 
L 82.983567 -139.621919 
L 82.60761 -135.612609 
L 82.231654 -145.798981 
L 81.855697 -146.196422 
L 81.47974 -144.357434 
L 81.103784 -136.200037 
L 80.727827 -141.085597 
L 80.35187 -142.913917 
L 79.975914 -142.384701 
L 79.599957 -142.81887 
L 79.224 -140.237135 
L 78.848043 -143.662249 
L 78.472087 -138.280552 
L 78.09613 -136.834168 
L 77.720173 -141.319013 
L 77.344217 -142.460862 
L 76.96826 -139.448479 
L 76.592303 -131.107443 
L 76.216347 -134.472945 
L 75.84039 -131.797234 
L 75.464433 -139.621799 
L 75.088477 -131.999246 
L 74.71252 -129.330395 
L 74.336563 -131.118639 
L 73.960606 -140.268962 
L 73.58465 -139.038158 
L 73.208693 -137.657001 
L 72.832736 -133.731586 
L 72.45678 -133.863891 
L 72.080823 -131.138426 
L 71.704866 -132.449048 
L 71.32891 -132.108586 
L 70.952953 -136.926008 
L 70.576996 -132.088436 
L 70.20104 -132.85539 
L 69.825083 -124.652397 
L 69.449126 -124.915786 
L 69.073169 -127.913593 
L 68.697213 -123.016545 
L 68.321256 -131.828174 
L 67.945299 -131.533644 
L 67.569343 -128.56156 
L 67.193386 -122.829702 
L 66.817429 -129.461617 
L 66.441473 -128.252656 
L 66.065516 -125.875529 
L 65.689559 -129.92995 
L 65.313603 -123.755132 
L 64.937646 -120.093359 
L 64.561689 -120.82225 
L 64.185732 -115.368597 
L 63.809776 -126.468771 
L 63.433819 -128.573631 
L 63.057862 -127.521974 
L 62.681906 -125.1345 
L 62.305949 -112.341964 
L 61.929992 -114.05855 
L 61.554036 -110.458896 
L 61.178079 -120.895996 
L 60.802122 -116.379177 
L 60.426166 -113.787521 
L 60.050209 -108.75383 
L 59.674252 -110.989524 
L 59.298295 -102.66827 
z
"/>
    </defs>
    <g clip-path="url(#p60cbc98ccc)">
     <use xlink:href="#mcffaf64ff2" x="0" y="200.79625" style="fill: #c0392b; fill-opacity: 0.15"/>
    </g>
   </g>
   <g id="FillBetweenPolyCollection_2">
    <defs>
     <path id="m58a6246389" d="M 59.298295 -77.507992 
L 59.298295 -70.671599 
L 59.674252 -72.802729 
L 60.050209 -67.858155 
L 60.426166 -73.942439 
L 60.802122 -71.388799 
L 61.178079 -75.810534 
L 61.554036 -70.637135 
L 61.929992 -73.598584 
L 62.305949 -71.903488 
L 62.681906 -75.747023 
L 63.057862 -73.856648 
L 63.433819 -71.400512 
L 63.809776 -75.80769 
L 64.185732 -74.387408 
L 64.561689 -75.04955 
L 64.937646 -73.819526 
L 65.313603 -75.988795 
L 65.689559 -72.527667 
L 66.065516 -78.50359 
L 66.441473 -77.989347 
L 66.817429 -75.454706 
L 67.193386 -72.110248 
L 67.569343 -73.706742 
L 67.945299 -80.726359 
L 68.321256 -75.070081 
L 68.697213 -76.091921 
L 69.073169 -73.582306 
L 69.449126 -74.777099 
L 69.825083 -77.080615 
L 70.20104 -76.216421 
L 70.576996 -71.382559 
L 70.952953 -74.727604 
L 71.32891 -75.558552 
L 71.704866 -77.064463 
L 72.080823 -73.513244 
L 72.45678 -75.425719 
L 72.832736 -75.480184 
L 73.208693 -74.266111 
L 73.58465 -74.603666 
L 73.960606 -76.189169 
L 74.336563 -74.817039 
L 74.71252 -72.230965 
L 75.088477 -74.095471 
L 75.464433 -73.371666 
L 75.84039 -73.295611 
L 76.216347 -76.585695 
L 76.592303 -74.882629 
L 76.96826 -76.398941 
L 77.344217 -74.693379 
L 77.720173 -78.069812 
L 78.09613 -74.002123 
L 78.472087 -72.856174 
L 78.848043 -76.827613 
L 79.224 -79.275676 
L 79.599957 -79.137447 
L 79.975914 -77.292143 
L 80.35187 -80.039711 
L 80.727827 -80.254497 
L 81.103784 -76.314694 
L 81.47974 -79.406047 
L 81.855697 -77.714928 
L 82.231654 -82.402326 
L 82.60761 -79.448456 
L 82.983567 -78.919117 
L 83.359524 -80.295608 
L 83.73548 -77.863949 
L 84.111437 -80.693283 
L 84.487394 -82.599934 
L 84.863351 -76.275462 
L 85.239307 -78.591914 
L 85.615264 -80.195393 
L 85.991221 -76.492149 
L 86.367177 -79.597815 
L 86.743134 -79.851414 
L 87.119091 -79.743217 
L 87.495047 -80.152529 
L 87.871004 -81.920895 
L 88.246961 -83.665848 
L 88.622917 -78.304983 
L 88.998874 -83.097991 
L 89.374831 -81.264534 
L 89.750788 -79.887699 
L 90.126744 -84.409213 
L 90.502701 -82.490893 
L 90.878658 -81.702863 
L 91.254614 -79.209427 
L 91.630571 -83.188659 
L 92.006528 -82.536421 
L 92.382484 -82.570454 
L 92.758441 -81.233658 
L 93.134398 -82.457039 
L 93.510354 -83.933242 
L 93.886311 -81.646433 
L 94.262268 -81.99529 
L 94.638225 -86.923354 
L 95.014181 -85.020375 
L 95.390138 -84.959786 
L 95.766095 -85.804602 
L 96.142051 -85.515696 
L 96.518008 -85.640574 
L 96.893965 -86.253289 
L 97.269921 -85.945587 
L 97.645878 -84.238302 
L 98.021835 -86.518391 
L 98.397791 -84.319875 
L 98.773748 -85.491459 
L 99.149705 -86.897459 
L 99.525662 -83.541919 
L 99.901618 -90.861752 
L 100.277575 -89.0369 
L 100.653532 -88.883621 
L 101.029488 -81.830614 
L 101.405445 -86.117162 
L 101.781402 -85.181273 
L 102.157358 -89.627406 
L 102.533315 -84.82722 
L 102.909272 -86.827693 
L 103.285228 -84.67262 
L 103.661185 -94.36413 
L 104.037142 -88.455849 
L 104.413099 -91.451073 
L 104.789055 -91.080816 
L 105.165012 -87.642708 
L 105.540969 -89.83633 
L 105.916925 -84.05856 
L 106.292882 -91.822684 
L 106.668839 -90.867498 
L 107.044795 -89.31977 
L 107.420752 -91.020182 
L 107.796709 -88.105751 
L 108.172665 -91.498347 
L 108.548622 -91.373486 
L 108.924579 -91.638114 
L 109.300536 -91.255444 
L 109.676492 -90.665541 
L 110.052449 -87.472002 
L 110.428406 -89.108671 
L 110.804362 -92.024883 
L 111.180319 -91.563295 
L 111.556276 -95.177498 
L 111.932232 -87.909484 
L 112.308189 -93.513368 
L 112.684146 -88.660896 
L 113.060102 -89.878197 
L 113.436059 -92.896184 
L 113.812016 -91.455881 
L 114.187973 -91.166174 
L 114.563929 -93.979785 
L 114.939886 -89.550071 
L 115.315843 -92.825983 
L 115.691799 -90.470133 
L 116.067756 -92.65664 
L 116.443713 -92.42149 
L 116.819669 -89.417983 
L 117.195626 -96.581424 
L 117.571583 -94.411575 
L 117.947539 -92.259192 
L 118.323496 -95.610161 
L 118.699453 -98.374975 
L 119.07541 -96.568298 
L 119.451366 -96.032342 
L 119.827323 -93.429243 
L 120.20328 -93.915782 
L 120.579236 -92.556671 
L 120.955193 -94.787508 
L 121.33115 -95.326478 
L 121.707106 -97.58808 
L 122.083063 -91.465041 
L 122.45902 -89.797546 
L 122.834976 -91.097683 
L 123.210933 -91.240448 
L 123.58689 -94.48922 
L 123.962847 -91.190779 
L 124.338803 -89.466419 
L 124.71476 -94.466994 
L 125.090717 -94.582456 
L 125.466673 -94.595001 
L 125.84263 -94.618918 
L 126.218587 -94.482806 
L 126.594543 -93.935624 
L 126.9705 -95.746285 
L 127.346457 -91.976453 
L 127.722413 -94.11074 
L 128.09837 -94.238775 
L 128.474327 -94.396827 
L 128.850284 -96.148484 
L 129.22624 -96.923858 
L 129.602197 -93.302553 
L 129.978154 -97.485373 
L 130.35411 -94.944078 
L 130.730067 -94.562621 
L 131.106024 -92.844118 
L 131.48198 -95.178368 
L 131.857937 -94.440552 
L 132.233894 -94.670847 
L 132.60985 -95.943432 
L 132.985807 -93.965759 
L 133.361764 -95.40938 
L 133.737721 -98.499399 
L 134.113677 -99.047643 
L 134.489634 -95.26759 
L 134.865591 -92.631377 
L 135.241547 -94.802204 
L 135.617504 -98.156089 
L 135.993461 -98.433625 
L 136.369417 -97.889458 
L 136.745374 -92.033806 
L 137.121331 -94.488988 
L 137.497287 -95.812238 
L 137.873244 -94.919575 
L 138.249201 -92.85527 
L 138.625158 -94.915204 
L 139.001114 -93.961167 
L 139.377071 -96.229363 
L 139.753028 -95.418633 
L 140.128984 -95.405231 
L 140.504941 -97.445746 
L 140.880898 -95.244177 
L 141.256854 -96.778107 
L 141.632811 -93.049051 
L 142.008768 -96.780423 
L 142.384724 -95.741145 
L 142.760681 -92.15332 
L 143.136638 -94.699795 
L 143.512595 -95.432267 
L 143.888551 -91.25015 
L 144.264508 -93.784154 
L 144.640465 -97.345545 
L 145.016421 -99.485342 
L 145.392378 -92.9117 
L 145.768335 -98.671114 
L 146.144291 -96.0176 
L 146.520248 -96.425751 
L 146.896205 -93.547246 
L 147.272161 -95.47508 
L 147.648118 -96.594522 
L 148.024075 -98.795584 
L 148.400032 -94.966896 
L 148.775988 -99.237731 
L 149.151945 -97.986075 
L 149.527902 -100.820961 
L 149.903858 -98.490315 
L 150.279815 -96.12308 
L 150.655772 -93.063531 
L 151.031728 -98.950115 
L 151.407685 -95.90441 
L 151.783642 -92.762092 
L 152.159598 -101.28548 
L 152.535555 -96.573203 
L 152.911512 -98.807684 
L 153.287468 -100.678368 
L 153.663425 -93.985232 
L 154.039382 -97.640077 
L 154.415339 -98.580572 
L 154.791295 -94.014371 
L 155.167252 -101.070607 
L 155.543209 -92.992106 
L 155.919165 -96.824823 
L 156.295122 -98.152949 
L 156.671079 -97.060388 
L 157.047035 -98.01698 
L 157.422992 -95.856598 
L 157.798949 -98.908107 
L 158.174905 -96.907061 
L 158.550862 -95.485798 
L 158.926819 -95.544307 
L 159.302776 -96.923087 
L 159.678732 -93.757503 
L 160.054689 -95.627649 
L 160.430646 -100.268353 
L 160.806602 -96.564954 
L 161.182559 -98.393807 
L 161.558516 -94.678797 
L 161.934472 -89.661152 
L 162.310429 -99.867186 
L 162.686386 -95.73533 
L 163.062342 -94.909416 
L 163.438299 -95.065288 
L 163.814256 -95.099179 
L 164.190213 -94.935464 
L 164.566169 -91.119273 
L 164.942126 -91.75589 
L 165.318083 -91.107511 
L 165.694039 -98.572393 
L 166.069996 -97.683166 
L 166.445953 -100.790802 
L 166.821909 -95.246449 
L 167.197866 -93.395656 
L 167.573823 -93.718229 
L 167.949779 -93.596737 
L 168.325736 -91.148053 
L 168.701693 -94.000036 
L 169.07765 -93.596901 
L 169.453606 -93.135203 
L 169.829563 -93.161231 
L 170.20552 -97.065258 
L 170.581476 -92.89791 
L 170.957433 -95.789598 
L 171.33339 -93.73342 
L 171.709346 -95.134787 
L 172.085303 -93.973826 
L 172.46126 -93.237667 
L 172.837216 -93.819735 
L 173.213173 -94.032873 
L 173.58913 -92.957385 
L 173.965087 -94.452944 
L 174.341043 -92.133356 
L 174.717 -96.497328 
L 175.092957 -90.306733 
L 175.468913 -93.328305 
L 175.84487 -91.691752 
L 176.220827 -91.323588 
L 176.596783 -95.31172 
L 176.97274 -93.070637 
L 177.348697 -89.376949 
L 177.724653 -95.301666 
L 178.10061 -92.595842 
L 178.476567 -92.055676 
L 178.852524 -92.031987 
L 179.22848 -90.808506 
L 179.604437 -89.529261 
L 179.980394 -90.811839 
L 180.35635 -88.834657 
L 180.732307 -90.920961 
L 181.108264 -90.110125 
L 181.48422 -95.509073 
L 181.860177 -93.300774 
L 182.236134 -91.207564 
L 182.61209 -92.59984 
L 182.988047 -91.216219 
L 183.364004 -93.742774 
L 183.739961 -93.739709 
L 184.115917 -85.834096 
L 184.491874 -88.714132 
L 184.867831 -87.074533 
L 185.243787 -87.624235 
L 185.619744 -90.056265 
L 185.995701 -93.546015 
L 186.371657 -85.396613 
L 186.747614 -89.463487 
L 187.123571 -85.287063 
L 187.499527 -89.686586 
L 187.875484 -88.249474 
L 188.251441 -89.433036 
L 188.627398 -90.842972 
L 189.003354 -84.852993 
L 189.379311 -89.418822 
L 189.755268 -87.944793 
L 190.131224 -86.991735 
L 190.507181 -89.104805 
L 190.883138 -89.138076 
L 191.259094 -88.821946 
L 191.635051 -88.926829 
L 192.011008 -83.592294 
L 192.386964 -90.288389 
L 192.762921 -83.323486 
L 193.138878 -84.611501 
L 193.514835 -87.50199 
L 193.890791 -89.84669 
L 194.266748 -86.042238 
L 194.642705 -86.339957 
L 195.018661 -81.374734 
L 195.394618 -86.105508 
L 195.770575 -85.496512 
L 196.146531 -86.021952 
L 196.522488 -88.602168 
L 196.898445 -80.751949 
L 197.274401 -84.707386 
L 197.650358 -83.539285 
L 198.026315 -81.092193 
L 198.402272 -87.451395 
L 198.778228 -83.033905 
L 199.154185 -84.369442 
L 199.530142 -79.546526 
L 199.906098 -83.30415 
L 200.282055 -82.205181 
L 200.658012 -85.242082 
L 201.033968 -85.208563 
L 201.409925 -84.500002 
L 201.785882 -83.495171 
L 202.161838 -84.455794 
L 202.537795 -82.339101 
L 202.913752 -81.000386 
L 203.289709 -77.515598 
L 203.665665 -81.925511 
L 204.041622 -81.302929 
L 204.417579 -83.639106 
L 204.793535 -80.39739 
L 205.169492 -82.169391 
L 205.545449 -79.764308 
L 205.921405 -79.323481 
L 206.297362 -83.013696 
L 206.673319 -79.948691 
L 207.049275 -82.885658 
L 207.425232 -79.558401 
L 207.801189 -77.643087 
L 208.177146 -83.256986 
L 208.553102 -74.010863 
L 208.929059 -78.544916 
L 209.305016 -80.087517 
L 209.680972 -78.027414 
L 210.056929 -77.320852 
L 210.432886 -80.259938 
L 210.808842 -80.268439 
L 211.184799 -77.55458 
L 211.560756 -80.783572 
L 211.936712 -74.907394 
L 212.312669 -76.086675 
L 212.688626 -74.970232 
L 213.064583 -78.788596 
L 213.440539 -78.194234 
L 213.816496 -79.626861 
L 214.192453 -74.942958 
L 214.568409 -74.849491 
L 214.944366 -79.16899 
L 215.320323 -75.471 
L 215.696279 -73.373996 
L 216.072236 -74.979511 
L 216.448193 -76.585368 
L 216.824149 -77.894517 
L 217.200106 -80.307844 
L 217.576063 -72.183555 
L 217.95202 -74.713165 
L 218.327976 -73.883756 
L 218.703933 -72.388788 
L 219.07989 -71.939991 
L 219.455846 -70.057513 
L 219.831803 -74.361285 
L 220.20776 -69.629746 
L 220.583716 -73.224137 
L 220.959673 -72.20684 
L 221.33563 -69.990167 
L 221.711586 -69.499964 
L 222.087543 -68.928442 
L 222.4635 -69.314782 
L 222.839457 -69.72092 
L 223.215413 -68.030657 
L 223.59137 -71.487189 
L 223.967327 -74.175635 
L 224.343283 -68.543629 
L 224.71924 -68.187014 
L 225.095197 -69.421873 
L 225.471153 -69.426548 
L 225.84711 -69.396035 
L 226.223067 -70.174681 
L 226.599023 -65.34434 
L 226.97498 -64.07337 
L 227.350937 -67.127156 
L 227.726894 -65.162019 
L 228.10285 -65.803427 
L 228.478807 -64.16335 
L 228.854764 -68.108029 
L 229.23072 -65.70584 
L 229.606677 -67.593036 
L 229.982634 -65.586811 
L 230.35859 -63.86561 
L 230.734547 -66.78081 
L 231.110504 -62.362605 
L 231.48646 -63.333315 
L 231.862417 -60.701861 
L 232.238374 -62.182478 
L 232.614331 -59.810251 
L 232.990287 -60.131512 
L 233.366244 -57.304106 
L 233.742201 -55.807365 
L 234.118157 -58.561827 
L 234.494114 -57.786625 
L 234.870071 -56.089786 
L 235.246027 -59.565705 
L 235.621984 -55.657263 
L 235.997941 -52.77639 
L 236.373897 -58.164308 
L 236.749854 -53.037516 
L 237.125811 -54.000986 
L 237.501768 -52.787008 
L 237.877724 -53.756656 
L 238.253681 -55.787447 
L 238.629638 -54.464693 
L 239.005594 -54.609694 
L 239.381551 -49.740376 
L 239.757508 -49.757931 
L 240.133464 -46.43155 
L 240.509421 -48.890183 
L 240.885378 -46.683379 
L 241.261334 -45.442289 
L 241.637291 -44.856247 
L 242.013248 -44.666974 
L 242.389205 -44.655811 
L 242.389205 -44.655811 
L 242.389205 -44.655811 
L 242.013248 -44.781328 
L 241.637291 -46.929279 
L 241.261334 -48.557449 
L 240.885378 -50.528333 
L 240.509421 -52.818293 
L 240.133464 -50.985181 
L 239.757508 -53.358346 
L 239.381551 -52.733507 
L 239.005594 -61.436488 
L 238.629638 -59.599633 
L 238.253681 -61.311169 
L 237.877724 -58.667512 
L 237.501768 -63.341181 
L 237.125811 -61.047434 
L 236.749854 -59.67368 
L 236.373897 -62.843349 
L 235.997941 -61.848322 
L 235.621984 -66.525839 
L 235.246027 -70.476483 
L 234.870071 -65.901965 
L 234.494114 -70.834094 
L 234.118157 -70.632947 
L 233.742201 -65.774346 
L 233.366244 -66.177454 
L 232.990287 -69.14527 
L 232.614331 -70.231937 
L 232.238374 -68.174073 
L 231.862417 -68.342565 
L 231.48646 -70.248878 
L 231.110504 -74.076195 
L 230.734547 -74.305102 
L 230.35859 -71.985468 
L 229.982634 -76.920571 
L 229.606677 -70.417582 
L 229.23072 -76.350499 
L 228.854764 -77.392639 
L 228.478807 -77.100246 
L 228.10285 -74.558082 
L 227.726894 -72.506899 
L 227.350937 -76.323316 
L 226.97498 -76.274471 
L 226.599023 -74.962497 
L 226.223067 -78.155257 
L 225.84711 -74.423472 
L 225.471153 -78.794048 
L 225.095197 -77.746287 
L 224.71924 -76.876278 
L 224.343283 -76.27364 
L 223.967327 -78.254696 
L 223.59137 -79.453333 
L 223.215413 -77.839046 
L 222.839457 -78.622687 
L 222.4635 -77.361332 
L 222.087543 -81.287678 
L 221.711586 -78.843642 
L 221.33563 -78.544791 
L 220.959673 -78.95237 
L 220.583716 -80.873687 
L 220.20776 -79.356256 
L 219.831803 -83.604576 
L 219.455846 -81.224709 
L 219.07989 -80.613352 
L 218.703933 -83.007494 
L 218.327976 -84.328129 
L 217.95202 -81.639875 
L 217.576063 -82.638672 
L 217.200106 -84.286985 
L 216.824149 -90.855376 
L 216.448193 -83.348682 
L 216.072236 -81.277853 
L 215.696279 -86.806077 
L 215.320323 -81.22374 
L 214.944366 -86.136574 
L 214.568409 -82.296292 
L 214.192453 -86.68592 
L 213.816496 -86.375769 
L 213.440539 -87.71272 
L 213.064583 -84.193412 
L 212.688626 -89.173554 
L 212.312669 -87.496724 
L 211.936712 -87.076852 
L 211.560756 -88.007326 
L 211.184799 -84.429666 
L 210.808842 -85.529172 
L 210.432886 -89.269031 
L 210.056929 -90.08958 
L 209.680972 -96.613377 
L 209.305016 -91.3413 
L 208.929059 -89.070535 
L 208.553102 -92.032771 
L 208.177146 -90.044343 
L 207.801189 -92.049897 
L 207.425232 -88.699446 
L 207.049275 -92.301852 
L 206.673319 -90.933407 
L 206.297362 -95.167101 
L 205.921405 -91.230586 
L 205.545449 -94.671464 
L 205.169492 -90.65356 
L 204.793535 -90.457372 
L 204.417579 -90.714657 
L 204.041622 -92.545119 
L 203.665665 -95.230188 
L 203.289709 -94.282254 
L 202.913752 -90.77013 
L 202.537795 -95.349649 
L 202.161838 -96.130566 
L 201.785882 -91.21396 
L 201.409925 -98.09555 
L 201.033968 -90.211303 
L 200.658012 -97.503818 
L 200.282055 -97.533765 
L 199.906098 -95.136338 
L 199.530142 -93.850479 
L 199.154185 -93.715679 
L 198.778228 -96.158321 
L 198.402272 -99.750264 
L 198.026315 -94.587364 
L 197.650358 -95.365914 
L 197.274401 -92.25696 
L 196.898445 -100.955185 
L 196.522488 -95.633541 
L 196.146531 -102.273146 
L 195.770575 -102.320207 
L 195.394618 -94.262164 
L 195.018661 -93.006365 
L 194.642705 -97.335365 
L 194.266748 -102.020504 
L 193.890791 -100.047561 
L 193.514835 -101.531179 
L 193.138878 -101.715409 
L 192.762921 -101.021567 
L 192.386964 -94.835739 
L 192.011008 -99.208277 
L 191.635051 -95.623244 
L 191.259094 -100.047207 
L 190.883138 -101.986293 
L 190.507181 -99.914696 
L 190.131224 -103.544911 
L 189.755268 -106.049851 
L 189.379311 -97.509478 
L 189.003354 -103.20975 
L 188.627398 -102.768968 
L 188.251441 -96.251479 
L 187.875484 -103.175591 
L 187.499527 -105.893543 
L 187.123571 -105.058232 
L 186.747614 -105.187219 
L 186.371657 -103.308524 
L 185.995701 -101.706082 
L 185.619744 -102.885944 
L 185.243787 -103.650482 
L 184.867831 -104.22752 
L 184.491874 -101.644831 
L 184.115917 -101.107873 
L 183.739961 -105.312086 
L 183.364004 -100.470557 
L 182.988047 -102.614409 
L 182.61209 -105.003149 
L 182.236134 -105.178976 
L 181.860177 -106.379747 
L 181.48422 -107.028055 
L 181.108264 -105.593015 
L 180.732307 -107.857474 
L 180.35635 -109.000688 
L 179.980394 -103.333152 
L 179.604437 -104.629398 
L 179.22848 -112.95874 
L 178.852524 -105.297642 
L 178.476567 -106.627083 
L 178.10061 -100.100344 
L 177.724653 -107.672837 
L 177.348697 -109.934537 
L 176.97274 -109.261471 
L 176.596783 -105.885946 
L 176.220827 -111.363888 
L 175.84487 -106.70398 
L 175.468913 -108.443417 
L 175.092957 -109.797495 
L 174.717 -103.593232 
L 174.341043 -108.818287 
L 173.965087 -110.558088 
L 173.58913 -109.456731 
L 173.213173 -112.31762 
L 172.837216 -107.979322 
L 172.46126 -108.301698 
L 172.085303 -107.059825 
L 171.709346 -110.135936 
L 171.33339 -109.951818 
L 170.957433 -106.993553 
L 170.581476 -107.889717 
L 170.20552 -110.023306 
L 169.829563 -108.596823 
L 169.453606 -102.772957 
L 169.07765 -110.361696 
L 168.701693 -106.814927 
L 168.325736 -107.138334 
L 167.949779 -112.5214 
L 167.573823 -110.349712 
L 167.197866 -107.022936 
L 166.821909 -111.787443 
L 166.445953 -104.192893 
L 166.069996 -113.628802 
L 165.694039 -108.270147 
L 165.318083 -109.379421 
L 164.942126 -105.587408 
L 164.566169 -112.19693 
L 164.190213 -109.692864 
L 163.814256 -111.14197 
L 163.438299 -115.727297 
L 163.062342 -105.522843 
L 162.686386 -110.3008 
L 162.310429 -111.45845 
L 161.934472 -112.288253 
L 161.558516 -113.66722 
L 161.182559 -113.027505 
L 160.806602 -115.662769 
L 160.430646 -109.25311 
L 160.054689 -109.60207 
L 159.678732 -112.839014 
L 159.302776 -112.530036 
L 158.926819 -110.50549 
L 158.550862 -108.582143 
L 158.174905 -109.908143 
L 157.798949 -114.044018 
L 157.422992 -114.3756 
L 157.047035 -109.741314 
L 156.671079 -109.481457 
L 156.295122 -118.585205 
L 155.919165 -108.295552 
L 155.543209 -111.813906 
L 155.167252 -112.701596 
L 154.791295 -112.882841 
L 154.415339 -113.838502 
L 154.039382 -111.908723 
L 153.663425 -110.725104 
L 153.287468 -114.939012 
L 152.911512 -116.864368 
L 152.535555 -115.408496 
L 152.159598 -108.974053 
L 151.783642 -116.486012 
L 151.407685 -108.409554 
L 151.031728 -113.496295 
L 150.655772 -110.12966 
L 150.279815 -110.350425 
L 149.903858 -111.673543 
L 149.527902 -113.470626 
L 149.151945 -110.551294 
L 148.775988 -113.099335 
L 148.400032 -110.344831 
L 148.024075 -112.953759 
L 147.648118 -108.908556 
L 147.272161 -110.15101 
L 146.896205 -115.48217 
L 146.520248 -109.637714 
L 146.144291 -117.344564 
L 145.768335 -109.073512 
L 145.392378 -115.188294 
L 145.016421 -110.090793 
L 144.640465 -114.185111 
L 144.264508 -111.554908 
L 143.888551 -110.890607 
L 143.512595 -111.76564 
L 143.136638 -112.142745 
L 142.760681 -114.251845 
L 142.384724 -113.411283 
L 142.008768 -113.588454 
L 141.632811 -109.925452 
L 141.256854 -116.365369 
L 140.880898 -116.177135 
L 140.504941 -113.620199 
L 140.128984 -116.904499 
L 139.753028 -109.045679 
L 139.377071 -115.369633 
L 139.001114 -114.425855 
L 138.625158 -114.647263 
L 138.249201 -113.249199 
L 137.873244 -116.064361 
L 137.497287 -116.415485 
L 137.121331 -111.150771 
L 136.745374 -116.066188 
L 136.369417 -112.834787 
L 135.993461 -108.887294 
L 135.617504 -111.52939 
L 135.241547 -112.88775 
L 134.865591 -110.479806 
L 134.489634 -107.064518 
L 134.113677 -112.524017 
L 133.737721 -115.081453 
L 133.361764 -110.298718 
L 132.985807 -107.095228 
L 132.60985 -112.375249 
L 132.233894 -105.392378 
L 131.857937 -109.777737 
L 131.48198 -114.725799 
L 131.106024 -110.185057 
L 130.730067 -110.981461 
L 130.35411 -114.167346 
L 129.978154 -110.696629 
L 129.602197 -111.435119 
L 129.22624 -116.014599 
L 128.850284 -109.176911 
L 128.474327 -109.821462 
L 128.09837 -109.610478 
L 127.722413 -115.369719 
L 127.346457 -110.943378 
L 126.9705 -109.073395 
L 126.594543 -113.002592 
L 126.218587 -107.972315 
L 125.84263 -107.84987 
L 125.466673 -108.488846 
L 125.090717 -108.378379 
L 124.71476 -113.892692 
L 124.338803 -105.512319 
L 123.962847 -108.626422 
L 123.58689 -112.325985 
L 123.210933 -107.961694 
L 122.834976 -108.36415 
L 122.45902 -108.994557 
L 122.083063 -108.639187 
L 121.707106 -115.897096 
L 121.33115 -106.718602 
L 120.955193 -108.501358 
L 120.579236 -108.955359 
L 120.20328 -108.347986 
L 119.827323 -112.11484 
L 119.451366 -111.179234 
L 119.07541 -106.105509 
L 118.699453 -106.581385 
L 118.323496 -107.405346 
L 117.947539 -105.822176 
L 117.571583 -107.961537 
L 117.195626 -107.787213 
L 116.819669 -108.759061 
L 116.443713 -104.334085 
L 116.067756 -109.306433 
L 115.691799 -107.720579 
L 115.315843 -108.508363 
L 114.939886 -107.519867 
L 114.563929 -105.509384 
L 114.187973 -106.641835 
L 113.812016 -108.757691 
L 113.436059 -108.875537 
L 113.060102 -103.392044 
L 112.684146 -104.609344 
L 112.308189 -106.577192 
L 111.932232 -105.524773 
L 111.556276 -103.259237 
L 111.180319 -104.973592 
L 110.804362 -108.257029 
L 110.428406 -105.077324 
L 110.052449 -100.45406 
L 109.676492 -103.780146 
L 109.300536 -104.092329 
L 108.924579 -103.408963 
L 108.548622 -102.361466 
L 108.172665 -103.261703 
L 107.796709 -98.672201 
L 107.420752 -101.976699 
L 107.044795 -101.845602 
L 106.668839 -105.765064 
L 106.292882 -102.814354 
L 105.916925 -101.352595 
L 105.540969 -102.613833 
L 105.165012 -100.830073 
L 104.789055 -105.005028 
L 104.413099 -96.816689 
L 104.037142 -97.461022 
L 103.661185 -101.571366 
L 103.285228 -98.661003 
L 102.909272 -97.65404 
L 102.533315 -100.28324 
L 102.157358 -99.856806 
L 101.781402 -101.719692 
L 101.405445 -98.624263 
L 101.029488 -101.885712 
L 100.653532 -97.949003 
L 100.277575 -92.615562 
L 99.901618 -97.775045 
L 99.525662 -96.415715 
L 99.149705 -97.556938 
L 98.773748 -93.878452 
L 98.397791 -97.04556 
L 98.021835 -95.024727 
L 97.645878 -103.209382 
L 97.269921 -97.292361 
L 96.893965 -91.599476 
L 96.518008 -93.551652 
L 96.142051 -95.275683 
L 95.766095 -95.164461 
L 95.390138 -96.186961 
L 95.014181 -95.716332 
L 94.638225 -96.888648 
L 94.262268 -96.376858 
L 93.886311 -94.730191 
L 93.510354 -99.578065 
L 93.134398 -92.894487 
L 92.758441 -95.347985 
L 92.382484 -89.869793 
L 92.006528 -87.64861 
L 91.630571 -90.126338 
L 91.254614 -91.713675 
L 90.878658 -91.256767 
L 90.502701 -91.821866 
L 90.126744 -93.634904 
L 89.750788 -90.037641 
L 89.374831 -87.813391 
L 88.998874 -88.699861 
L 88.622917 -87.765987 
L 88.246961 -91.371314 
L 87.871004 -86.446295 
L 87.495047 -89.759142 
L 87.119091 -93.448768 
L 86.743134 -91.222036 
L 86.367177 -91.666986 
L 85.991221 -86.462523 
L 85.615264 -86.230945 
L 85.239307 -85.538204 
L 84.863351 -87.321605 
L 84.487394 -87.694441 
L 84.111437 -85.951742 
L 83.73548 -85.446091 
L 83.359524 -84.271885 
L 82.983567 -84.486598 
L 82.60761 -84.039268 
L 82.231654 -87.728033 
L 81.855697 -87.399284 
L 81.47974 -88.264076 
L 81.103784 -86.421291 
L 80.727827 -85.50211 
L 80.35187 -82.764613 
L 79.975914 -82.546231 
L 79.599957 -83.502862 
L 79.224 -83.460309 
L 78.848043 -87.165826 
L 78.472087 -81.337326 
L 78.09613 -82.391922 
L 77.720173 -81.044159 
L 77.344217 -82.315724 
L 76.96826 -86.282371 
L 76.592303 -79.994269 
L 76.216347 -84.400789 
L 75.84039 -82.756733 
L 75.464433 -82.954038 
L 75.088477 -78.772236 
L 74.71252 -82.522923 
L 74.336563 -79.499473 
L 73.960606 -81.804029 
L 73.58465 -85.56274 
L 73.208693 -82.155269 
L 72.832736 -80.285133 
L 72.45678 -79.956895 
L 72.080823 -80.529909 
L 71.704866 -84.851443 
L 71.32891 -80.056417 
L 70.952953 -82.308835 
L 70.576996 -82.797274 
L 70.20104 -84.291684 
L 69.825083 -77.878291 
L 69.449126 -82.273008 
L 69.073169 -81.3766 
L 68.697213 -79.700732 
L 68.321256 -82.663425 
L 67.945299 -83.608779 
L 67.569343 -81.566529 
L 67.193386 -80.784794 
L 66.817429 -79.613545 
L 66.441473 -80.823928 
L 66.065516 -81.321116 
L 65.689559 -82.977958 
L 65.313603 -80.282237 
L 64.937646 -79.786251 
L 64.561689 -79.020938 
L 64.185732 -79.450724 
L 63.809776 -82.800566 
L 63.433819 -78.091205 
L 63.057862 -80.227508 
L 62.681906 -81.439764 
L 62.305949 -80.034796 
L 61.929992 -79.747502 
L 61.554036 -77.597128 
L 61.178079 -81.540269 
L 60.802122 -75.847702 
L 60.426166 -76.54704 
L 60.050209 -73.81548 
L 59.674252 -76.33362 
L 59.298295 -77.507992 
z
"/>
    </defs>
    <g clip-path="url(#p60cbc98ccc)">
     <use xlink:href="#m58a6246389" x="0" y="200.79625" style="fill: #1f77b4; fill-opacity: 0.15"/>
    </g>
   </g>
   <g id="matplotlib.axis_1">
    <g id="xtick_1">
     <g id="line2d_1">
      <path d="M 58.922339 163.24 
L 58.922339 7.2 
" clip-path="url(#p60cbc98ccc)" style="fill: none; stroke: #b0b0b0; stroke-opacity: 0.3; stroke-width: 0.8; stroke-linecap: square"/>
     </g>
     <g id="line2d_2">
      <defs>
       <path id="md52ec2ff24" d="M 0 0 
L 0 3.5 
" style="stroke: #000000; stroke-width: 0.8"/>
      </defs>
      <g>
       <use xlink:href="#md52ec2ff24" x="58.922339" y="163.24" style="stroke: #000000; stroke-width: 0.8"/>
      </g>
     </g>
     <g id="text_1">
      <text style="font-size: 10px; font-family: 'DejaVu Sans', 'Bitstream Vera Sans', 'Computer Modern Sans Serif', 'Lucida Grande', 'Verdana', 'Geneva', 'Lucid', 'Arial', 'Helvetica', 'Avant Garde', sans-serif; text-anchor: middle" x="58.922339" y="177.838437" transform="rotate(-0 58.922339 177.838437)">0.0</text>
     </g>
    </g>
    <g id="xtick_2">
     <g id="line2d_3">
      <path d="M 95.636859 163.24 
L 95.636859 7.2 
" clip-path="url(#p60cbc98ccc)" style="fill: none; stroke: #b0b0b0; stroke-opacity: 0.3; stroke-width: 0.8; stroke-linecap: square"/>
     </g>
     <g id="line2d_4">
      <g>
       <use xlink:href="#md52ec2ff24" x="95.636859" y="163.24" style="stroke: #000000; stroke-width: 0.8"/>
      </g>
     </g>
     <g id="text_2">
      <text style="font-size: 10px; font-family: 'DejaVu Sans', 'Bitstream Vera Sans', 'Computer Modern Sans Serif', 'Lucida Grande', 'Verdana', 'Geneva', 'Lucid', 'Arial', 'Helvetica', 'Avant Garde', sans-serif; text-anchor: middle" x="95.636859" y="177.838437" transform="rotate(-0 95.636859 177.838437)">0.2</text>
     </g>
    </g>
    <g id="xtick_3">
     <g id="line2d_5">
      <path d="M 132.35138 163.24 
L 132.35138 7.2 
" clip-path="url(#p60cbc98ccc)" style="fill: none; stroke: #b0b0b0; stroke-opacity: 0.3; stroke-width: 0.8; stroke-linecap: square"/>
     </g>
     <g id="line2d_6">
      <g>
       <use xlink:href="#md52ec2ff24" x="132.35138" y="163.24" style="stroke: #000000; stroke-width: 0.8"/>
      </g>
     </g>
     <g id="text_3">
      <text style="font-size: 10px; font-family: 'DejaVu Sans', 'Bitstream Vera Sans', 'Computer Modern Sans Serif', 'Lucida Grande', 'Verdana', 'Geneva', 'Lucid', 'Arial', 'Helvetica', 'Avant Garde', sans-serif; text-anchor: middle" x="132.35138" y="177.838437" transform="rotate(-0 132.35138 177.838437)">0.4</text>
     </g>
    </g>
    <g id="xtick_4">
     <g id="line2d_7">
      <path d="M 169.065901 163.24 
L 169.065901 7.2 
" clip-path="url(#p60cbc98ccc)" style="fill: none; stroke: #b0b0b0; stroke-opacity: 0.3; stroke-width: 0.8; stroke-linecap: square"/>
     </g>
     <g id="line2d_8">
      <g>
       <use xlink:href="#md52ec2ff24" x="169.065901" y="163.24" style="stroke: #000000; stroke-width: 0.8"/>
      </g>
     </g>
     <g id="text_4">
      <text style="font-size: 10px; font-family: 'DejaVu Sans', 'Bitstream Vera Sans', 'Computer Modern Sans Serif', 'Lucida Grande', 'Verdana', 'Geneva', 'Lucid', 'Arial', 'Helvetica', 'Avant Garde', sans-serif; text-anchor: middle" x="169.065901" y="177.838437" transform="rotate(-0 169.065901 177.838437)">0.6</text>
     </g>
    </g>
    <g id="xtick_5">
     <g id="line2d_9">
      <path d="M 205.780422 163.24 
L 205.780422 7.2 
" clip-path="url(#p60cbc98ccc)" style="fill: none; stroke: #b0b0b0; stroke-opacity: 0.3; stroke-width: 0.8; stroke-linecap: square"/>
     </g>
     <g id="line2d_10">
      <g>
       <use xlink:href="#md52ec2ff24" x="205.780422" y="163.24" style="stroke: #000000; stroke-width: 0.8"/>
      </g>
     </g>
     <g id="text_5">
      <text style="font-size: 10px; font-family: 'DejaVu Sans', 'Bitstream Vera Sans', 'Computer Modern Sans Serif', 'Lucida Grande', 'Verdana', 'Geneva', 'Lucid', 'Arial', 'Helvetica', 'Avant Garde', sans-serif; text-anchor: middle" x="205.780422" y="177.838437" transform="rotate(-0 205.780422 177.838437)">0.8</text>
     </g>
    </g>
    <g id="xtick_6">
     <g id="line2d_11">
      <path d="M 242.494942 163.24 
L 242.494942 7.2 
" clip-path="url(#p60cbc98ccc)" style="fill: none; stroke: #b0b0b0; stroke-opacity: 0.3; stroke-width: 0.8; stroke-linecap: square"/>
     </g>
     <g id="line2d_12">
      <g>
       <use xlink:href="#md52ec2ff24" x="242.494942" y="163.24" style="stroke: #000000; stroke-width: 0.8"/>
      </g>
     </g>
     <g id="text_6">
      <text style="font-size: 10px; font-family: 'DejaVu Sans', 'Bitstream Vera Sans', 'Computer Modern Sans Serif', 'Lucida Grande', 'Verdana', 'Geneva', 'Lucid', 'Arial', 'Helvetica', 'Avant Garde', sans-serif; text-anchor: middle" x="242.494942" y="177.838437" transform="rotate(-0 242.494942 177.838437)">1.0</text>
     </g>
    </g>
    <g id="text_7">
     <text style="font-size: 10px; font-family: 'DejaVu Sans', 'Bitstream Vera Sans', 'Computer Modern Sans Serif', 'Lucida Grande', 'Verdana', 'Geneva', 'Lucid', 'Arial', 'Helvetica', 'Avant Garde', sans-serif; text-anchor: middle" x="150.84375" y="191.516562" transform="rotate(-0 150.84375 191.516562)">environment step</text>
    </g>
    <g id="text_8">
     <text style="font-size: 10px; font-family: 'DejaVu Sans', 'Bitstream Vera Sans', 'Computer Modern Sans Serif', 'Lucida Grande', 'Verdana', 'Geneva', 'Lucid', 'Arial', 'Helvetica', 'Avant Garde', sans-serif; text-anchor: end" x="251.54375" y="190.516562" transform="rotate(-0 251.54375 190.516562)">1e6</text>
    </g>
   </g>
   <g id="matplotlib.axis_2">
    <g id="ytick_1">
     <g id="line2d_13">
      <path d="M 50.14375 156.140439 
L 251.54375 156.140439 
" clip-path="url(#p60cbc98ccc)" style="fill: none; stroke: #b0b0b0; stroke-opacity: 0.3; stroke-width: 0.8; stroke-linecap: square"/>
     </g>
     <g id="line2d_14">
      <defs>
       <path id="meb23fb85bc" d="M 0 0 
L -3.5 0 
" style="stroke: #000000; stroke-width: 0.8"/>
      </defs>
      <g>
       <use xlink:href="#meb23fb85bc" x="50.14375" y="156.140439" style="stroke: #000000; stroke-width: 0.8"/>
      </g>
     </g>
     <g id="text_9">
      <text style="font-size: 10px; font-family: 'DejaVu Sans', 'Bitstream Vera Sans', 'Computer Modern Sans Serif', 'Lucida Grande', 'Verdana', 'Geneva', 'Lucid', 'Arial', 'Helvetica', 'Avant Garde', sans-serif; text-anchor: end" x="43.14375" y="159.939657" transform="rotate(-0 43.14375 159.939657)">0.00</text>
     </g>
    </g>
    <g id="ytick_2">
     <g id="line2d_15">
      <path d="M 50.14375 121.150423 
L 251.54375 121.150423 
" clip-path="url(#p60cbc98ccc)" style="fill: none; stroke: #b0b0b0; stroke-opacity: 0.3; stroke-width: 0.8; stroke-linecap: square"/>
     </g>
     <g id="line2d_16">
      <g>
       <use xlink:href="#meb23fb85bc" x="50.14375" y="121.150423" style="stroke: #000000; stroke-width: 0.8"/>
      </g>
     </g>
     <g id="text_10">
      <text style="font-size: 10px; font-family: 'DejaVu Sans', 'Bitstream Vera Sans', 'Computer Modern Sans Serif', 'Lucida Grande', 'Verdana', 'Geneva', 'Lucid', 'Arial', 'Helvetica', 'Avant Garde', sans-serif; text-anchor: end" x="43.14375" y="124.949641" transform="rotate(-0 43.14375 124.949641)">0.05</text>
     </g>
    </g>
    <g id="ytick_3">
     <g id="line2d_17">
      <path d="M 50.14375 86.160406 
L 251.54375 86.160406 
" clip-path="url(#p60cbc98ccc)" style="fill: none; stroke: #b0b0b0; stroke-opacity: 0.3; stroke-width: 0.8; stroke-linecap: square"/>
     </g>
     <g id="line2d_18">
      <g>
       <use xlink:href="#meb23fb85bc" x="50.14375" y="86.160406" style="stroke: #000000; stroke-width: 0.8"/>
      </g>
     </g>
     <g id="text_11">
      <text style="font-size: 10px; font-family: 'DejaVu Sans', 'Bitstream Vera Sans', 'Computer Modern Sans Serif', 'Lucida Grande', 'Verdana', 'Geneva', 'Lucid', 'Arial', 'Helvetica', 'Avant Garde', sans-serif; text-anchor: end" x="43.14375" y="89.959625" transform="rotate(-0 43.14375 89.959625)">0.10</text>
     </g>
    </g>
    <g id="ytick_4">
     <g id="line2d_19">
      <path d="M 50.14375 51.17039 
L 251.54375 51.17039 
" clip-path="url(#p60cbc98ccc)" style="fill: none; stroke: #b0b0b0; stroke-opacity: 0.3; stroke-width: 0.8; stroke-linecap: square"/>
     </g>
     <g id="line2d_20">
      <g>
       <use xlink:href="#meb23fb85bc" x="50.14375" y="51.17039" style="stroke: #000000; stroke-width: 0.8"/>
      </g>
     </g>
     <g id="text_12">
      <text style="font-size: 10px; font-family: 'DejaVu Sans', 'Bitstream Vera Sans', 'Computer Modern Sans Serif', 'Lucida Grande', 'Verdana', 'Geneva', 'Lucid', 'Arial', 'Helvetica', 'Avant Garde', sans-serif; text-anchor: end" x="43.14375" y="54.969609" transform="rotate(-0 43.14375 54.969609)">0.15</text>
     </g>
    </g>
    <g id="ytick_5">
     <g id="line2d_21">
      <path d="M 50.14375 16.180374 
L 251.54375 16.180374 
" clip-path="url(#p60cbc98ccc)" style="fill: none; stroke: #b0b0b0; stroke-opacity: 0.3; stroke-width: 0.8; stroke-linecap: square"/>
     </g>
     <g id="line2d_22">
      <g>
       <use xlink:href="#meb23fb85bc" x="50.14375" y="16.180374" style="stroke: #000000; stroke-width: 0.8"/>
      </g>
     </g>
     <g id="text_13">
      <text style="font-size: 10px; font-family: 'DejaVu Sans', 'Bitstream Vera Sans', 'Computer Modern Sans Serif', 'Lucida Grande', 'Verdana', 'Geneva', 'Lucid', 'Arial', 'Helvetica', 'Avant Garde', sans-serif; text-anchor: end" x="43.14375" y="19.979593" transform="rotate(-0 43.14375 19.979593)">0.20</text>
     </g>
    </g>
    <g id="text_14">
     <text style="font-size: 10px; font-family: 'DejaVu Sans', 'Bitstream Vera Sans', 'Computer Modern Sans Serif', 'Lucida Grande', 'Verdana', 'Geneva', 'Lucid', 'Arial', 'Helvetica', 'Avant Garde', sans-serif; text-anchor: middle" x="14.798438" y="85.22" transform="rotate(-90 14.798438 85.22)">batch fraction</text>
    </g>
   </g>
   <g id="line2d_23">
    <path d="M 59.298295 100.163247 
L 59.674252 94.409029 
L 60.050209 96.930771 
L 61.178079 85.641023 
L 61.554036 95.933009 
L 61.929992 89.843926 
L 62.305949 93.014896 
L 62.681906 84.287894 
L 63.057862 80.269509 
L 63.433819 84.151214 
L 63.809776 81.253603 
L 64.185732 88.354116 
L 64.561689 85.388166 
L 64.937646 85.312992 
L 65.689559 81.643141 
L 66.065516 77.932285 
L 66.441473 79.073561 
L 66.817429 78.81387 
L 67.193386 81.74565 
L 67.569343 82.517891 
L 67.945299 73.702047 
L 68.321256 76.51765 
L 68.697213 82.948432 
L 69.449126 78.827538 
L 69.825083 80.03032 
L 70.20104 72.936641 
L 70.576996 78.81387 
L 70.952953 72.33525 
L 71.32891 74.446952 
L 71.704866 73.162162 
L 72.080823 75.007339 
L 72.45678 73.811391 
L 72.832736 74.522126 
L 73.208693 73.00498 
L 73.58465 68.692734 
L 74.71252 78.068965 
L 75.088477 75.895757 
L 75.464433 68.330533 
L 75.84039 74.556296 
L 76.216347 71.494669 
L 76.592303 74.556296 
L 77.344217 63.861105 
L 77.720173 62.644655 
L 78.09613 71.426329 
L 78.472087 72.581273 
L 78.848043 64.660682 
L 79.224 68.494549 
L 79.599957 64.60601 
L 79.975914 64.804195 
L 80.35187 66.095819 
L 80.727827 65.104891 
L 81.103784 71.296484 
L 81.47974 62.658323 
L 81.855697 63.779097 
L 82.231654 60.580791 
L 82.60761 68.152849 
L 82.983567 65.767788 
L 83.359524 61.031834 
L 83.73548 68.802078 
L 84.111437 58.325575 
L 84.487394 59.323337 
L 84.863351 61.927087 
L 85.239307 58.913298 
L 85.615264 66.717712 
L 85.991221 65.897633 
L 86.367177 57.01345 
L 86.743134 57.758354 
L 87.119091 60.054574 
L 87.495047 60.840483 
L 87.871004 63.601414 
L 88.246961 55.769664 
L 88.622917 60.724305 
L 88.998874 61.066004 
L 89.374831 58.851792 
L 89.750788 59.801716 
L 90.126744 49.379886 
L 90.502701 57.676346 
L 90.878658 46.024398 
L 91.254614 55.48947 
L 91.630571 59.125152 
L 92.006528 61.394036 
L 92.382484 59.179824 
L 92.758441 49.530233 
L 93.134398 51.997303 
L 93.510354 50.29564 
L 93.886311 49.919771 
L 94.262268 48.402625 
L 94.638225 48.122432 
L 95.014181 52.926725 
L 95.390138 49.291044 
L 95.766095 50.288806 
L 96.142051 53.282092 
L 96.893965 56.924608 
L 97.269921 50.049616 
L 97.645878 49.072356 
L 98.397791 51.498422 
L 98.773748 48.122432 
L 99.149705 50.869695 
L 99.525662 50.924367 
L 99.901618 46.400267 
L 100.277575 52.010971 
L 100.653532 48.689653 
L 101.029488 48.764827 
L 101.405445 52.202322 
L 101.781402 45.969726 
L 102.157358 42.115357 
L 102.533315 47.493705 
L 102.909272 50.842359 
L 103.285228 50.473324 
L 103.661185 42.026515 
L 104.037142 45.518683 
L 104.413099 34.351947 
L 104.789055 40.714389 
L 105.165012 43.755514 
L 105.540969 39.005892 
L 105.916925 43.113119 
L 106.292882 43.400146 
L 106.668839 43.024277 
L 107.044795 42.39555 
L 107.420752 37.529751 
L 107.796709 42.5664 
L 108.172665 39.907979 
L 108.548622 41.794159 
L 108.924579 38.800873 
L 109.300536 39.422766 
L 109.676492 40.885239 
L 110.052449 40.454698 
L 110.428406 41.308946 
L 110.804362 41.404622 
L 111.180319 38.787205 
L 111.556276 41.527634 
L 112.308189 36.743843 
L 112.684146 35.930598 
L 113.060102 40.50937 
L 113.436059 33.408857 
L 113.812016 38.21315 
L 114.187973 32.274415 
L 114.563929 35.616235 
L 114.939886 37.611759 
L 115.315843 37.850949 
L 115.691799 33.764224 
L 116.443713 38.889715 
L 116.819669 34.9055 
L 117.195626 36.655001 
L 117.571583 32.431596 
L 118.323496 35.657239 
L 118.699453 28.918927 
L 119.451366 38.554849 
L 119.827323 31.310822 
L 120.579236 40.386358 
L 120.955193 35.267701 
L 121.33115 34.304109 
L 121.707106 33.005651 
L 122.083063 32.855304 
L 122.45902 40.707555 
L 122.834976 37.324732 
L 123.210933 41.21327 
L 123.58689 33.75739 
L 123.962847 34.782488 
L 124.338803 42.764586 
L 124.71476 29.035105 
L 125.090717 33.395189 
L 125.466673 32.759628 
L 125.84263 31.52951 
L 126.218587 34.345113 
L 126.594543 32.342755 
L 126.9705 31.625186 
L 127.346457 36.402143 
L 127.722413 31.973719 
L 128.09837 29.581824 
L 128.474327 35.74608 
L 128.850284 35.274535 
L 129.22624 28.372208 
L 129.602197 31.454336 
L 129.978154 33.217505 
L 130.35411 35.691408 
L 130.730067 32.055727 
L 131.106024 36.046776 
L 131.48198 34.502295 
L 131.857937 28.864255 
L 132.233894 38.944387 
L 132.60985 36.258629 
L 132.985807 32.725458 
L 133.361764 35.821254 
L 133.737721 28.987267 
L 134.113677 36.033108 
L 134.489634 39.081066 
L 135.241547 27.955335 
L 135.993461 33.818896 
L 136.745374 35.336041 
L 137.121331 30.634258 
L 137.497287 31.584182 
L 137.873244 34.625306 
L 138.249201 36.716507 
L 138.625158 32.513604 
L 139.377071 30.825609 
L 139.753028 37.475079 
L 140.128984 29.240124 
L 140.504941 32.308585 
L 140.880898 31.351826 
L 141.256854 28.959931 
L 141.632811 38.014964 
L 142.008768 29.028271 
L 142.384724 31.707194 
L 142.760681 33.5182 
L 143.136638 32.629782 
L 143.512595 32.513604 
L 143.888551 35.998938 
L 144.264508 33.497698 
L 144.640465 33.641212 
L 145.016421 31.030629 
L 145.392378 27.025912 
L 145.768335 35.349709 
L 146.144291 29.862017 
L 146.520248 37.106044 
L 146.896205 34.235769 
L 147.272161 35.336041 
L 147.648118 32.50677 
L 148.024075 33.238007 
L 148.400032 38.773537 
L 148.775988 32.923644 
L 149.151945 38.705197 
L 149.527902 29.745839 
L 150.655772 35.718744 
L 151.031728 31.167309 
L 151.407685 30.039701 
L 151.783642 33.572872 
L 152.159598 36.046776 
L 152.535555 36.333803 
L 153.287468 26.09649 
L 153.663425 40.058327 
L 154.039382 33.108161 
L 154.415339 33.545536 
L 154.791295 34.427121 
L 155.167252 34.297275 
L 155.543209 35.315539 
L 155.919165 34.003414 
L 156.295122 31.016961 
L 156.671079 34.495461 
L 157.047035 32.937312 
L 157.422992 37.140214 
L 157.798949 24.825368 
L 158.174905 42.63474 
L 158.550862 34.543299 
L 158.926819 29.978195 
L 159.302776 37.618593 
L 159.678732 36.443147 
L 160.054689 40.905741 
L 160.430646 31.932715 
L 160.806602 34.003414 
L 161.182559 32.903142 
L 161.558516 36.258629 
L 161.934472 44.138217 
L 162.310429 33.668548 
L 162.686386 40.181338 
L 163.062342 35.295037 
L 163.438299 36.716507 
L 163.814256 33.511366 
L 164.190213 45.826212 
L 164.566169 38.049134 
L 164.942126 43.010609 
L 165.318083 42.607404 
L 165.694039 39.272418 
L 166.069996 34.413453 
L 166.445953 41.759989 
L 166.821909 42.491226 
L 167.197866 38.862379 
L 167.573823 39.306588 
L 167.949779 33.504532 
L 169.453606 41.062923 
L 169.829563 44.240727 
L 170.581476 39.081066 
L 170.957433 45.074473 
L 171.709346 40.987749 
L 172.085303 40.154002 
L 172.46126 43.71451 
L 173.213173 37.447743 
L 173.58913 43.810186 
L 173.965087 40.256512 
L 174.341043 46.721464 
L 174.717 46.174745 
L 175.092957 47.917412 
L 175.468913 45.812544 
L 175.84487 44.937794 
L 176.220827 41.58914 
L 176.596783 43.919529 
L 176.97274 47.596215 
L 177.348697 48.498301 
L 177.724653 45.90822 
L 178.10061 50.343478 
L 178.476567 42.29304 
L 178.852524 46.755634 
L 179.22848 46.803472 
L 179.604437 47.350191 
L 179.980394 43.632502 
L 180.35635 46.229417 
L 180.732307 47.254515 
L 181.108264 51.997303 
L 181.48422 45.450343 
L 181.860177 47.0905 
L 182.236134 45.826212 
L 182.61209 46.413935 
L 183.364004 53.357266 
L 183.739961 48.375289 
L 184.115917 57.218469 
L 184.491874 51.600931 
L 184.867831 54.724064 
L 185.243787 52.59186 
L 185.619744 46.994824 
L 185.995701 50.36398 
L 186.371657 49.393553 
L 186.747614 50.944869 
L 187.123571 51.887959 
L 187.499527 44.637098 
L 187.875484 48.040424 
L 188.251441 59.678705 
L 188.627398 57.621674 
L 189.003354 56.794762 
L 189.379311 59.419013 
L 189.755268 54.368696 
L 190.131224 56.965612 
L 190.507181 58.626271 
L 190.883138 51.013209 
L 191.259094 47.199843 
L 191.635051 59.924728 
L 192.011008 58.346077 
L 192.386964 61.886083 
L 192.762921 58.475923 
L 193.138878 58.229899 
L 193.514835 56.248043 
L 193.890791 50.042782 
L 194.266748 59.747045 
L 194.642705 61.421372 
L 195.018661 62.214114 
L 195.394618 62.432802 
L 195.770575 59.043144 
L 196.146531 62.4123 
L 196.522488 62.056932 
L 196.898445 65.460258 
L 197.274401 64.113963 
L 197.650358 58.434919 
L 198.026315 63.403228 
L 198.402272 57.382485 
L 198.778228 64.29848 
L 199.154185 64.763191 
L 199.530142 69.417137 
L 199.906098 63.567244 
L 200.282055 62.255118 
L 201.033968 67.619798 
L 201.409925 65.152729 
L 201.785882 66.751882 
L 202.161838 69.376133 
L 202.537795 67.202925 
L 202.913752 71.754361 
L 203.665665 67.250763 
L 204.041622 69.752002 
L 204.417579 67.749644 
L 205.169492 68.159683 
L 205.545449 68.665398 
L 205.921405 72.622277 
L 206.297362 67.114083 
L 206.673319 73.059652 
L 207.049275 73.886565 
L 207.425232 71.610847 
L 207.801189 73.155328 
L 208.177146 68.952426 
L 208.553102 78.103135 
L 208.929059 70.339725 
L 209.305016 73.34668 
L 209.680972 71.679187 
L 210.056929 76.832013 
L 210.432886 74.836489 
L 210.808842 78.71136 
L 211.184799 80.823062 
L 211.560756 73.059652 
L 211.936712 84.595423 
L 212.312669 82.463219 
L 212.688626 78.554178 
L 213.064583 83.959862 
L 213.440539 76.674832 
L 213.816496 81.062252 
L 214.568409 82.702409 
L 214.944366 81.670477 
L 215.320323 89.905432 
L 215.696279 86.638786 
L 216.072236 87.711722 
L 216.824149 77.747768 
L 217.200106 78.390163 
L 217.576063 88.019251 
L 217.95202 84.240056 
L 218.327976 90.089949 
L 218.703933 89.85076 
L 219.07989 89.427052 
L 219.455846 94.484203 
L 219.831803 89.413384 
L 220.20776 92.85088 
L 220.583716 86.925813 
L 220.959673 93.028564 
L 221.33563 90.992036 
L 221.711586 100.51178 
L 222.087543 96.240538 
L 222.4635 98.393244 
L 222.839457 96.36355 
L 223.215413 98.338572 
L 223.59137 93.486441 
L 223.967327 94.313354 
L 224.343283 94.839571 
L 224.71924 99.308998 
L 225.095197 95.194938 
L 225.471153 93.623121 
L 225.84711 100.894484 
L 226.223067 96.787257 
L 226.599023 104.051786 
L 226.97498 106.983566 
L 227.350937 99.206489 
L 227.726894 108.985925 
L 228.10285 102.73966 
L 228.478807 101.420701 
L 229.23072 108.036 
L 229.606677 106.723875 
L 229.982634 103.416225 
L 230.35859 110.038359 
L 230.734547 108.10434 
L 231.110504 111.384654 
L 231.48646 109.14994 
L 231.862417 116.052268 
L 232.238374 113.284503 
L 232.614331 117.829105 
L 232.990287 116.346129 
L 233.366244 119.564937 
L 233.742201 121.273434 
L 234.118157 117.938448 
L 234.494114 117.788101 
L 234.870071 125.510507 
L 235.246027 118.580843 
L 235.621984 121.765481 
L 235.997941 126.289581 
L 236.373897 124.717764 
L 236.749854 133.027893 
L 237.125811 129.774915 
L 237.501768 132.747699 
L 238.253681 128.913832 
L 238.629638 128.763485 
L 239.381551 142.834665 
L 239.757508 141.495203 
L 240.133464 145.950963 
L 240.509421 144.864359 
L 240.885378 148.431701 
L 241.261334 150.304213 
L 241.637291 153.803215 
L 242.013248 155.894415 
L 242.389205 156.133605 
L 242.389205 156.133605 
" clip-path="url(#p60cbc98ccc)" style="fill: none; stroke: #c0392b; stroke-width: 1.5; stroke-linecap: square"/>
   </g>
   <g id="line2d_24">
    <path d="M 59.298295 126.706454 
L 59.674252 126.228075 
L 60.050209 129.959433 
L 60.426166 125.551511 
L 60.802122 127.178 
L 61.178079 122.120849 
L 61.554036 126.679118 
L 61.929992 124.123207 
L 62.305949 124.827108 
L 62.681906 122.202857 
L 63.057862 123.754172 
L 63.433819 126.050392 
L 63.809776 121.492122 
L 64.185732 123.877184 
L 64.561689 123.761006 
L 64.937646 123.993361 
L 65.313603 122.660734 
L 65.689559 123.043437 
L 66.065516 120.883897 
L 66.441473 121.389612 
L 66.817429 123.262125 
L 67.193386 124.348729 
L 67.569343 123.159615 
L 67.945299 118.628681 
L 68.321256 121.929497 
L 68.697213 122.899923 
L 69.073169 123.316797 
L 69.449126 122.271197 
L 69.825083 123.316797 
L 70.20104 120.542198 
L 70.576996 123.706334 
L 70.952953 122.278031 
L 71.32891 122.988765 
L 71.704866 119.838297 
L 72.080823 123.774674 
L 72.45678 123.104943 
L 72.832736 122.913591 
L 73.208693 122.58556 
L 73.58465 120.713047 
L 73.960606 121.799651 
L 74.336563 123.637994 
L 74.71252 123.419306 
L 75.088477 124.362397 
L 75.464433 122.633398 
L 75.84039 122.770078 
L 76.216347 120.303008 
L 76.592303 123.357801 
L 76.96826 119.455594 
L 77.344217 122.291698 
L 77.720173 121.239264 
L 78.472087 123.6995 
L 78.848043 118.799531 
L 79.224 119.428258 
L 79.599957 119.476096 
L 79.975914 120.877063 
L 80.727827 117.917946 
L 81.103784 119.428258 
L 81.47974 116.961188 
L 81.855697 118.239144 
L 82.231654 115.73107 
L 82.60761 119.052388 
L 82.983567 119.093392 
L 83.359524 118.512503 
L 83.73548 119.14123 
L 84.487394 115.649063 
L 84.863351 118.997717 
L 85.239307 118.731191 
L 85.615264 117.583081 
L 85.991221 119.318914 
L 86.367177 115.163849 
L 86.743134 115.259525 
L 87.119091 114.200257 
L 87.495047 115.840414 
L 87.871004 116.612655 
L 88.246961 113.277669 
L 88.622917 117.760765 
L 88.998874 114.897324 
L 89.374831 116.257288 
L 89.750788 115.83358 
L 90.126744 111.774192 
L 90.502701 113.63987 
L 90.878658 114.316435 
L 91.254614 115.334699 
L 91.630571 114.138751 
L 92.006528 115.703735 
L 92.382484 114.576127 
L 92.758441 112.505428 
L 93.134398 113.120487 
L 93.510354 109.040597 
L 93.886311 112.607938 
L 94.262268 111.610176 
L 94.638225 108.890249 
L 95.014181 110.427896 
L 95.390138 110.222877 
L 96.142051 110.40056 
L 96.893965 111.869868 
L 97.645878 107.072408 
L 98.021835 110.024691 
L 98.397791 110.113533 
L 98.773748 111.111295 
L 99.149705 108.569052 
L 99.525662 110.817433 
L 99.901618 106.477851 
L 100.277575 109.970019 
L 100.653532 107.379938 
L 101.029488 108.938087 
L 101.405445 108.425538 
L 102.157358 106.054144 
L 102.533315 108.24102 
L 102.909272 108.555384 
L 103.285228 109.129439 
L 103.661185 102.828502 
L 104.037142 107.837815 
L 104.413099 106.662369 
L 104.789055 102.753328 
L 105.165012 106.559859 
L 105.540969 104.571169 
L 105.916925 108.090672 
L 106.292882 103.477731 
L 106.668839 102.479969 
L 107.044795 105.213564 
L 107.420752 104.297809 
L 107.796709 107.407274 
L 108.172665 103.416225 
L 108.548622 103.928774 
L 108.924579 103.272711 
L 109.300536 103.122363 
L 109.676492 103.573407 
L 110.052449 106.833219 
L 110.804362 100.655294 
L 111.180319 102.527807 
L 111.556276 101.577882 
L 111.932232 104.079122 
L 112.308189 100.75097 
L 112.684146 104.16113 
L 113.060102 104.16113 
L 113.436059 99.910389 
L 113.812016 100.689464 
L 114.187973 101.892246 
L 114.563929 101.051665 
L 114.939886 102.261281 
L 115.315843 100.129077 
L 115.691799 101.700894 
L 116.067756 99.814713 
L 116.443713 102.418463 
L 116.819669 101.707728 
L 117.195626 98.611932 
L 117.571583 99.609694 
L 117.947539 101.755566 
L 118.323496 99.288496 
L 118.699453 98.31807 
L 119.07541 99.459346 
L 119.451366 97.190462 
L 119.827323 98.024209 
L 120.20328 99.664366 
L 120.579236 100.040235 
L 120.955193 99.151817 
L 121.33115 99.77371 
L 121.707106 94.053662 
L 122.083063 100.744136 
L 122.45902 101.400199 
L 122.834976 101.065333 
L 123.210933 101.195179 
L 123.58689 97.388648 
L 123.962847 100.88765 
L 124.338803 103.306881 
L 124.71476 96.616407 
L 125.090717 99.315832 
L 125.466673 99.254327 
L 125.84263 99.561856 
L 126.218587 99.56869 
L 126.594543 97.327142 
L 127.346457 99.336334 
L 127.722413 96.05602 
L 128.09837 98.871623 
L 128.474327 98.687106 
L 128.850284 98.133553 
L 129.22624 94.327022 
L 129.602197 98.427414 
L 129.978154 96.705249 
L 130.35411 96.240538 
L 131.106024 99.281662 
L 131.48198 95.844167 
L 132.233894 100.764638 
L 132.60985 96.636909 
L 132.985807 100.265757 
L 133.361764 97.942201 
L 133.737721 94.005824 
L 134.113677 95.01042 
L 134.489634 99.630196 
L 134.865591 99.240659 
L 135.241547 96.951273 
L 135.617504 95.953511 
L 135.993461 97.13579 
L 136.369417 95.434127 
L 137.121331 97.976371 
L 137.497287 94.682389 
L 137.873244 95.304282 
L 138.249201 97.744015 
L 138.625158 96.015016 
L 139.001114 96.602739 
L 139.377071 94.996752 
L 139.753028 98.564094 
L 140.128984 94.641385 
L 140.504941 95.263278 
L 140.880898 95.085594 
L 141.256854 94.224512 
L 141.632811 99.308998 
L 142.008768 95.611811 
L 142.384724 96.220036 
L 142.760681 97.593668 
L 143.512595 97.197296 
L 143.888551 99.725872 
L 144.264508 98.126719 
L 144.640465 95.030922 
L 145.392378 96.746253 
L 145.768335 96.923937 
L 146.144291 94.115168 
L 146.520248 97.764517 
L 146.896205 96.281542 
L 147.272161 97.983205 
L 147.648118 98.044711 
L 148.024075 94.921578 
L 148.400032 98.140387 
L 148.775988 94.627717 
L 149.151945 96.527565 
L 149.527902 93.650457 
L 150.279815 97.559498 
L 150.655772 99.199655 
L 151.031728 94.573045 
L 151.407685 98.639268 
L 151.783642 96.172198 
L 152.159598 95.666483 
L 152.535555 94.805401 
L 152.911512 92.960224 
L 153.287468 92.98756 
L 153.663425 98.441082 
L 154.039382 96.02185 
L 154.415339 94.586713 
L 154.791295 97.347644 
L 155.167252 93.910148 
L 155.543209 98.393244 
L 155.919165 98.236062 
L 156.295122 92.427173 
L 156.671079 97.525328 
L 157.047035 96.917103 
L 157.798949 94.320188 
L 158.174905 97.388648 
L 158.550862 98.762279 
L 158.926819 97.771351 
L 159.302776 96.069688 
L 159.678732 97.497992 
L 160.054689 98.18139 
L 160.430646 96.035518 
L 160.806602 94.682389 
L 161.182559 95.085594 
L 161.558516 96.623241 
L 161.934472 99.821547 
L 162.310429 95.133432 
L 163.062342 100.58012 
L 163.438299 95.399958 
L 163.814256 97.675675 
L 164.566169 99.138149 
L 164.942126 102.124601 
L 165.318083 100.552784 
L 166.069996 95.140266 
L 166.445953 98.304402 
L 166.821909 97.279304 
L 167.197866 100.586954 
L 167.573823 98.762279 
L 167.949779 97.737181 
L 168.325736 101.653056 
L 169.07765 98.816951 
L 169.453606 102.84217 
L 170.20552 97.251968 
L 170.581476 100.402436 
L 170.957433 99.404674 
L 171.33339 98.953631 
L 171.709346 98.160889 
L 172.085303 100.279425 
L 172.837216 99.896721 
L 173.213173 97.621004 
L 173.58913 99.589192 
L 173.965087 98.290734 
L 174.341043 100.320429 
L 174.717 100.75097 
L 175.092957 100.744136 
L 175.468913 99.910389 
L 175.84487 101.598384 
L 176.220827 99.452512 
L 176.596783 100.197417 
L 176.97274 99.630196 
L 177.348697 101.140507 
L 177.724653 99.308998 
L 178.10061 104.448157 
L 178.476567 101.454871 
L 178.852524 102.131435 
L 179.22848 98.912627 
L 179.604437 103.71692 
L 179.980394 103.723754 
L 180.35635 101.878578 
L 180.732307 101.407033 
L 181.108264 102.94468 
L 181.48422 99.527686 
L 182.236134 102.60298 
L 182.61209 101.994756 
L 182.988047 103.880936 
L 183.364004 103.689584 
L 183.739961 101.270353 
L 184.115917 107.325266 
L 184.491874 105.616769 
L 184.867831 105.145224 
L 185.243787 105.158892 
L 185.619744 104.325145 
L 185.995701 103.170201 
L 186.371657 106.443681 
L 186.747614 103.470897 
L 187.123571 105.623603 
L 187.499527 103.006186 
L 187.875484 105.083718 
L 188.251441 107.953993 
L 188.627398 103.99028 
L 189.003354 106.764879 
L 189.379311 107.3321 
L 189.755268 103.798928 
L 190.131224 105.527927 
L 190.507181 106.2865 
L 190.883138 105.234066 
L 191.259094 106.361674 
L 191.635051 108.521214 
L 192.011008 109.395964 
L 192.386964 108.234186 
L 192.762921 108.623723 
L 193.138878 107.632795 
L 193.514835 106.279666 
L 193.890791 105.849124 
L 194.266748 106.764879 
L 194.642705 108.958589 
L 195.018661 113.6057 
L 195.770575 106.887891 
L 196.146531 106.648701 
L 196.522488 108.678395 
L 196.898445 109.942683 
L 197.274401 112.314077 
L 197.650358 111.34365 
L 198.026315 112.956472 
L 198.402272 107.19542 
L 198.778228 111.200137 
L 199.154185 111.75369 
L 199.530142 114.097747 
L 199.906098 111.576006 
L 200.282055 110.926777 
L 200.658012 109.4233 
L 201.033968 113.086317 
L 201.409925 109.498474 
L 201.785882 113.441685 
L 202.161838 110.50307 
L 202.537795 111.951875 
L 202.913752 114.910992 
L 203.289709 114.897324 
L 203.665665 112.218401 
L 204.041622 113.872226 
L 204.417579 113.619368 
L 204.793535 115.368869 
L 205.545449 113.578364 
L 205.921405 115.519217 
L 206.297362 111.705852 
L 206.673319 115.355201 
L 207.049275 113.202495 
L 207.425232 116.667327 
L 207.801189 115.949758 
L 208.177146 114.145585 
L 208.553102 117.774433 
L 208.929059 116.988524 
L 209.680972 113.475855 
L 210.056929 117.091034 
L 210.432886 116.031766 
L 211.184799 119.804127 
L 211.560756 116.400801 
L 211.936712 119.804127 
L 212.312669 119.00455 
L 212.688626 118.724357 
L 213.064583 119.305246 
L 213.440539 117.842773 
L 213.816496 117.794935 
L 214.568409 122.223359 
L 214.944366 118.143468 
L 215.320323 122.44888 
L 215.696279 120.706213 
L 216.072236 122.667568 
L 216.448193 120.829225 
L 216.824149 116.421303 
L 217.200106 118.498835 
L 217.576063 123.385136 
L 218.327976 121.690308 
L 219.07989 124.519578 
L 219.455846 125.155139 
L 219.831803 121.813319 
L 220.20776 126.303249 
L 220.583716 123.747338 
L 221.33563 126.528771 
L 221.711586 126.624447 
L 222.087543 125.68819 
L 222.4635 127.458193 
L 222.839457 126.624447 
L 223.215413 127.861398 
L 223.59137 125.325989 
L 223.967327 124.581084 
L 224.343283 128.387615 
L 224.71924 128.264604 
L 225.095197 127.21217 
L 225.471153 126.685952 
L 225.84711 128.886496 
L 226.223067 126.631281 
L 226.599023 130.642831 
L 226.97498 130.622329 
L 227.350937 129.071014 
L 227.726894 131.961791 
L 228.10285 130.615495 
L 228.478807 130.164452 
L 228.854764 128.045916 
L 229.606677 131.790941 
L 229.982634 129.542559 
L 230.35859 132.870711 
L 230.734547 130.253294 
L 231.110504 132.57685 
L 231.48646 134.005153 
L 231.862417 136.274037 
L 232.238374 135.617974 
L 232.614331 135.775156 
L 232.990287 136.157859 
L 233.366244 139.05547 
L 233.742201 140.005394 
L 234.118157 136.198863 
L 234.494114 136.485891 
L 234.870071 139.800375 
L 235.246027 135.775156 
L 235.997941 143.483894 
L 236.373897 140.292422 
L 236.749854 144.440652 
L 237.125811 143.27204 
L 237.501768 142.732155 
L 237.877724 144.584166 
L 238.253681 142.246942 
L 238.629638 143.764087 
L 239.005594 142.773159 
L 239.381551 149.559309 
L 239.757508 149.238111 
L 240.133464 152.087884 
L 240.509421 149.942012 
L 241.261334 153.796381 
L 242.013248 156.072099 
L 242.389205 156.140439 
L 242.389205 156.140439 
" clip-path="url(#p60cbc98ccc)" style="fill: none; stroke: #1f77b4; stroke-width: 1.5; stroke-linecap: square"/>
   </g>
   <g id="patch_3">
    <path d="M 50.14375 163.24 
L 50.14375 7.2 
" style="fill: none; stroke: #000000; stroke-width: 0.8; stroke-linejoin: miter; stroke-linecap: square"/>
   </g>
   <g id="patch_4">
    <path d="M 251.54375 163.24 
L 251.54375 7.2 
" style="fill: none; stroke: #000000; stroke-width: 0.8; stroke-linejoin: miter; stroke-linecap: square"/>
   </g>
   <g id="patch_5">
    <path d="M 50.14375 163.24 
L 251.54375 163.24 
" style="fill: none; stroke: #000000; stroke-width: 0.8; stroke-linejoin: miter; stroke-linecap: square"/>
   </g>
   <g id="patch_6">
    <path d="M 50.14375 7.2 
L 251.54375 7.2 
" style="fill: none; stroke: #000000; stroke-width: 0.8; stroke-linejoin: miter; stroke-linecap: square"/>
   </g>
   <g id="legend_1">
    <g id="patch_7">
     <path d="M 209.07095 33.833334 
L 246.68575 33.833334 
Q 248.07375 33.833334 248.07375 32.445334 
L 248.07375 12.058 
Q 248.07375 10.67 246.68575 10.67 
L 209.07095 10.67 
Q 207.68295 10.67 207.68295 12.058 
L 207.68295 32.445334 
Q 207.68295 33.833334 209.07095 33.833334 
z
" style="fill: #ffffff; opacity: 0.8; stroke: #cccccc; stroke-linejoin: miter"/>
    </g>
    <g id="line2d_25">
     <path d="M 210.45895 16.290316 
L 217.39895 16.290316 
L 224.33895 16.290316 
" style="fill: none; stroke: #c0392b; stroke-width: 1.5; stroke-linecap: square"/>
    </g>
    <g id="text_15">
     <!-- $\mathcal{I}_{\mathrm{kill}}$ -->
     <g transform="translate(229.89095 18.719316)">
      <text>
       <tspan x="0" y="-0.40625" style="font-style: italic; font-size: 6.94px; font-family: 'STIXNonUnicode'"></tspan>
       <tspan x="4.055505" y="0.732812" style="font-size: 4.858px; font-family: 'DejaVu Sans'">k</tspan>
       <tspan x="6.867767" y="0.732812" style="font-size: 4.858px; font-family: 'DejaVu Sans'">i</tspan>
       <tspan x="8.216989" y="0.732812" style="font-size: 4.858px; font-family: 'DejaVu Sans'">l</tspan>
       <tspan x="9.56621" y="0.732812" style="font-size: 4.858px; font-family: 'DejaVu Sans'">l</tspan>
      </text>
     </g>
    </g>
    <g id="line2d_26">
     <path d="M 210.45895 26.476934 
L 217.39895 26.476934 
L 224.33895 26.476934 
" style="fill: none; stroke: #1f77b4; stroke-width: 1.5; stroke-linecap: square"/>
    </g>
    <g id="text_16">
     <!-- $\mathcal{I}_{\mathrm{pass}}$ -->
     <g transform="translate(229.89095 28.905934)">
      <text>
       <tspan x="0" y="-0.40625" style="font-style: italic; font-size: 6.94px; font-family: 'STIXNonUnicode'"></tspan>
       <tspan x="4.055505" y="0.732812" style="font-size: 4.858px; font-family: 'DejaVu Sans'">p</tspan>
       <tspan x="7.138085" y="0.732812" style="font-size: 4.858px; font-family: 'DejaVu Sans'">a</tspan>
       <tspan x="10.113961" y="0.732812" style="font-size: 4.858px; font-family: 'DejaVu Sans'">s</tspan>
       <tspan x="12.644048" y="0.732812" style="font-size: 4.858px; font-family: 'DejaVu Sans'">s</tspan>
      </text>
     </g>
    </g>
   </g>
  </g>
 </g>
 <defs>
  <clipPath id="p60cbc98ccc">
   <rect x="50.14375" y="7.2" width="201.4" height="156.04"/>
  </clipPath>
 </defs>
</svg>
