<?xml version="1.0" encoding="utf-8" standalone="no"?>
<!DOCTYPE svg PUBLIC "-//W3C//DTD SVG 1.1//EN"
  "http://www.w3.org/Graphics/SVG/1.1/DTD/svg11.dtd">
<svg xmlns:xlink="http://www.w3.org/1999/xlink" width="258.74375pt" height="200.79625pt" viewBox="0 0 258.74375 200.79625" xmlns="http://www.w3.org/2000/svg" version="1.1">
 <metadata>
  <rdf:RDF xmlns:dc="http://purl.org/dc/elements/1.1/" xmlns:cc="http://creativecommons.org/ns#" xmlns:rdf="http://www.w3.org/1999/02/22-rdf-syntax-ns#">
   <cc:Work>
    <dc:type rdf:resource="http://purl.org/dc/dcmitype/StillImage"/>
    <dc:format>image/svg+xml</dc:format>
    <dc:creator>
     <cc:Agent>
      <dc:title>Matplotlib v3.10.9, https://matplotlib.org/</dc:title>
     </cc:Agent>
    </dc:creator>
   </cc:Work>
  </rdf:RDF>
 </metadata>
 <defs>
  <style type="text/css">*{stroke-linejoin: round; stroke-linecap: butt}</style>
 </defs>
 <g id="figure_1">
  <g id="patch_1">
   <path d="M 0 200.79625 
L 258.74375 200.79625 
L 258.74375 0 
L 0 0 
z
" style="fill: #ffffff"/>
  </g>
  <g id="axes_1">
   <g id="patch_2">
    <path d="M 50.14375 163.24 
L 251.54375 163.24 
L 251.54375 7.2 
L 50.14375 7.2 
z
" style="fill: #ffffff"/>
   </g>
   <g id="FillBetweenPolyCollection_1">
    <defs>
     <path id="m90b77a0b06" d="M 59.298295 -141.346279 
L 59.298295 -95.433267 
L 59.674252 -158.376075 
L 60.050209 -157.07201 
L 60.426166 -154.21634 
L 60.802122 -140.665309 
L 61.178079 -138.862641 
L 61.554036 -136.756374 
L 61.929992 -104.642507 
L 62.305949 -106.649171 
L 62.681906 -98.338278 
L 63.057862 -103.897204 
L 63.433819 -99.107265 
L 63.809776 -96.64897 
L 64.185732 -113.449892 
L 64.561689 -118.06718 
L 64.937646 -117.505027 
L 65.313603 -117.348872 
L 65.689559 -131.579077 
L 66.065516 -127.265687 
L 66.441473 -129.311039 
L 66.817429 -112.768113 
L 67.193386 -109.942939 
L 67.569343 -103.968569 
L 67.945299 -105.059928 
L 68.321256 -128.832354 
L 68.697213 -119.254956 
L 69.073169 -116.154078 
L 69.449126 -111.6938 
L 69.825083 -108.39902 
L 70.20104 -122.761185 
L 70.576996 -115.083124 
L 70.952953 -114.185262 
L 71.32891 -114.070262 
L 71.704866 -115.944779 
L 72.080823 -127.44641 
L 72.45678 -122.004895 
L 72.832736 -124.293709 
L 73.208693 -115.9011 
L 73.58465 -119.290236 
L 73.960606 -104.229711 
L 74.336563 -117.148377 
L 74.71252 -129.992081 
L 75.088477 -112.441408 
L 75.464433 -128.353583 
L 75.84039 -115.2431 
L 76.216347 -113.840629 
L 76.592303 -121.400672 
L 76.96826 -115.501166 
L 77.344217 -113.670026 
L 77.720173 -124.805937 
L 78.09613 -123.135133 
L 78.472087 -135.203501 
L 78.848043 -125.361964 
L 79.224 -127.375857 
L 79.599957 -124.68818 
L 79.975914 -138.080048 
L 80.35187 -130.725705 
L 80.727827 -121.36816 
L 81.103784 -124.474425 
L 81.47974 -132.782726 
L 81.855697 -114.576675 
L 82.231654 -129.365958 
L 82.60761 -126.534158 
L 82.983567 -121.729477 
L 83.359524 -129.056378 
L 83.73548 -130.321158 
L 84.111437 -127.833722 
L 84.487394 -137.179283 
L 84.863351 -131.957639 
L 85.239307 -125.310538 
L 85.615264 -126.446506 
L 85.991221 -129.449843 
L 86.367177 -132.723061 
L 86.743134 -126.846467 
L 87.119091 -129.659475 
L 87.495047 -122.621672 
L 87.871004 -132.062469 
L 88.246961 -132.14065 
L 88.622917 -133.97995 
L 88.998874 -120.116947 
L 89.374831 -132.909905 
L 89.750788 -128.591663 
L 90.126744 -134.575572 
L 90.502701 -120.918009 
L 90.878658 -126.5312 
L 91.254614 -122.717105 
L 91.630571 -126.926064 
L 92.006528 -138.66771 
L 92.382484 -132.436541 
L 92.758441 -132.261815 
L 93.134398 -131.085483 
L 93.510354 -129.741007 
L 93.886311 -129.024369 
L 94.262268 -134.618811 
L 94.638225 -137.429722 
L 95.014181 -126.555894 
L 95.390138 -140.696515 
L 95.766095 -137.850894 
L 96.142051 -137.079947 
L 96.518008 -140.86081 
L 96.893965 -137.77693 
L 97.269921 -129.530657 
L 97.645878 -135.486883 
L 98.021835 -131.403165 
L 98.397791 -128.973851 
L 98.773748 -135.949846 
L 99.149705 -125.397653 
L 99.525662 -126.151649 
L 99.901618 -130.902425 
L 100.277575 -134.557071 
L 100.653532 -138.257674 
L 101.029488 -128.618372 
L 101.405445 -130.809891 
L 101.781402 -135.267647 
L 102.157358 -145.280084 
L 102.533315 -137.307174 
L 102.909272 -149.259493 
L 103.285228 -128.961739 
L 103.661185 -138.765971 
L 104.037142 -146.955316 
L 104.413099 -138.665032 
L 104.789055 -142.078594 
L 105.165012 -142.321826 
L 105.540969 -152.555885 
L 105.916925 -150.789409 
L 106.292882 -135.801985 
L 106.668839 -141.161342 
L 107.044795 -127.244989 
L 107.420752 -137.441477 
L 107.796709 -148.801819 
L 108.172665 -126.447415 
L 108.548622 -137.146487 
L 108.924579 -141.270335 
L 109.300536 -138.903417 
L 109.676492 -129.794307 
L 110.052449 -133.235882 
L 110.428406 -139.071457 
L 110.804362 -130.055109 
L 111.180319 -126.387023 
L 111.556276 -150.953946 
L 111.932232 -140.044975 
L 112.308189 -145.550475 
L 112.684146 -134.990126 
L 113.060102 -134.118541 
L 113.436059 -145.972437 
L 113.812016 -137.388658 
L 114.187973 -144.771029 
L 114.563929 -141.26101 
L 114.939886 -138.60311 
L 115.315843 -131.743991 
L 115.691799 -147.787505 
L 116.067756 -136.835347 
L 116.443713 -137.066784 
L 116.819669 -132.244224 
L 117.195626 -142.426651 
L 117.571583 -148.071914 
L 117.947539 -136.759647 
L 118.323496 -136.457431 
L 118.699453 -132.298965 
L 119.07541 -142.949355 
L 119.451366 -147.563342 
L 119.827323 -135.796015 
L 120.20328 -135.351384 
L 120.579236 -136.413501 
L 120.955193 -147.602345 
L 121.33115 -135.56426 
L 121.707106 -140.408008 
L 122.083063 -139.467442 
L 122.45902 -148.01493 
L 122.834976 -129.389784 
L 123.210933 -130.8701 
L 123.58689 -136.08913 
L 123.962847 -139.558417 
L 124.338803 -146.854261 
L 124.71476 -144.853566 
L 125.090717 -142.283844 
L 125.466673 -149.215306 
L 125.84263 -141.387774 
L 126.218587 -136.950629 
L 126.594543 -147.699657 
L 126.9705 -140.375254 
L 127.346457 -154.392771 
L 127.722413 -158.590153 
L 128.09837 -150.046458 
L 128.474327 -149.62162 
L 128.850284 -149.510399 
L 129.22624 -136.294601 
L 129.602197 -146.750029 
L 129.978154 -139.020972 
L 130.35411 -135.134853 
L 130.730067 -148.718397 
L 131.106024 -160.475467 
L 131.48198 -142.497537 
L 131.857937 -148.221522 
L 132.233894 -137.775975 
L 132.60985 -142.225741 
L 132.985807 -132.210208 
L 133.361764 -133.543633 
L 133.737721 -144.857328 
L 134.113677 -148.991618 
L 134.489634 -140.762212 
L 134.865591 -131.192835 
L 135.241547 -141.337519 
L 135.617504 -145.322013 
L 135.993461 -130.966347 
L 136.369417 -145.522285 
L 136.745374 -152.565533 
L 137.121331 -144.082734 
L 137.497287 -151.131657 
L 137.873244 -145.301415 
L 138.249201 -145.836514 
L 138.625158 -141.620156 
L 139.001114 -148.620104 
L 139.377071 -141.120549 
L 139.753028 -137.204056 
L 140.128984 -149.945892 
L 140.504941 -153.514346 
L 140.880898 -147.841491 
L 141.256854 -134.570752 
L 141.632811 -143.740971 
L 142.008768 -143.039967 
L 142.384724 -147.232217 
L 142.760681 -145.109844 
L 143.136638 -133.000459 
L 143.512595 -136.692921 
L 143.888551 -139.308985 
L 144.264508 -139.886504 
L 144.640465 -147.174146 
L 145.016421 -141.77761 
L 145.392378 -137.426504 
L 145.768335 -141.535802 
L 146.144291 -142.323811 
L 146.520248 -137.252649 
L 146.896205 -140.177201 
L 147.272161 -150.02107 
L 147.648118 -141.121279 
L 148.024075 -142.734135 
L 148.400032 -145.93582 
L 148.775988 -137.677334 
L 149.151945 -140.116775 
L 149.527902 -145.241613 
L 149.903858 -140.492511 
L 150.279815 -135.30279 
L 150.655772 -141.501407 
L 151.031728 -142.202965 
L 151.407685 -158.333204 
L 151.783642 -138.986368 
L 152.159598 -137.388218 
L 152.535555 -144.627488 
L 152.911512 -144.296016 
L 153.287468 -141.386837 
L 153.663425 -148.948756 
L 154.039382 -133.387762 
L 154.415339 -130.969541 
L 154.791295 -136.91071 
L 155.167252 -140.348094 
L 155.543209 -138.613624 
L 155.919165 -134.834011 
L 156.295122 -145.260677 
L 156.671079 -146.591353 
L 157.047035 -143.952225 
L 157.422992 -151.032801 
L 157.798949 -133.780269 
L 158.174905 -139.40579 
L 158.550862 -138.896212 
L 158.926819 -137.607651 
L 159.302776 -146.987211 
L 159.678732 -144.45688 
L 160.054689 -136.687717 
L 160.430646 -144.340139 
L 160.806602 -140.990805 
L 161.182559 -133.880013 
L 161.558516 -144.235318 
L 161.934472 -135.674904 
L 162.310429 -134.791454 
L 162.686386 -136.884101 
L 163.062342 -135.527244 
L 163.438299 -135.711438 
L 163.814256 -136.021128 
L 164.190213 -132.335757 
L 164.566169 -130.649158 
L 164.942126 -132.04379 
L 165.318083 -133.588124 
L 165.694039 -143.236842 
L 166.069996 -136.638722 
L 166.445953 -136.961528 
L 166.821909 -140.053276 
L 167.197866 -142.678634 
L 167.573823 -133.125248 
L 167.949779 -139.54577 
L 168.325736 -146.540909 
L 168.701693 -132.637016 
L 169.07765 -146.833043 
L 169.453606 -139.650421 
L 169.829563 -131.698356 
L 170.20552 -129.98527 
L 170.581476 -139.368087 
L 170.957433 -128.936132 
L 171.33339 -134.198429 
L 171.709346 -136.902915 
L 172.085303 -130.642856 
L 172.46126 -138.357285 
L 172.837216 -125.783009 
L 173.213173 -133.195472 
L 173.58913 -129.360773 
L 173.965087 -149.272151 
L 174.341043 -130.896803 
L 174.717 -132.980477 
L 175.092957 -141.775024 
L 175.468913 -130.700159 
L 175.84487 -129.192878 
L 176.220827 -130.53677 
L 176.596783 -133.591602 
L 176.97274 -136.38227 
L 177.348697 -135.597162 
L 177.724653 -132.909777 
L 178.10061 -138.121259 
L 178.476567 -138.824081 
L 178.852524 -127.649342 
L 179.22848 -138.443389 
L 179.604437 -118.090473 
L 179.980394 -111.679956 
L 180.35635 -127.605736 
L 180.732307 -129.123535 
L 181.108264 -122.680102 
L 181.48422 -123.136775 
L 181.860177 -122.328949 
L 182.236134 -126.630128 
L 182.61209 -138.180417 
L 182.988047 -124.247854 
L 183.364004 -128.554036 
L 183.739961 -132.021102 
L 184.115917 -134.576738 
L 184.491874 -123.730758 
L 184.867831 -134.859691 
L 185.243787 -121.536786 
L 185.619744 -129.521804 
L 185.995701 -134.78318 
L 186.371657 -131.767119 
L 186.747614 -130.849443 
L 187.123571 -122.149966 
L 187.499527 -133.245697 
L 187.875484 -115.042875 
L 188.251441 -119.050354 
L 188.627398 -107.822394 
L 189.003354 -136.468329 
L 189.379311 -118.052529 
L 189.755268 -141.870364 
L 190.131224 -123.504792 
L 190.507181 -121.075596 
L 190.883138 -130.483507 
L 191.259094 -106.409325 
L 191.635051 -124.699312 
L 192.011008 -134.556897 
L 192.386964 -129.927478 
L 192.762921 -122.006284 
L 193.138878 -111.87279 
L 193.514835 -122.910862 
L 193.890791 -108.270993 
L 194.266748 -127.081733 
L 194.642705 -119.417842 
L 195.018661 -133.788349 
L 195.394618 -137.837192 
L 195.770575 -112.01335 
L 196.146531 -115.698103 
L 196.522488 -117.528212 
L 196.898445 -126.324181 
L 197.274401 -118.441251 
L 197.650358 -111.867387 
L 198.026315 -124.833913 
L 198.402272 -118.799428 
L 198.778228 -111.384704 
L 199.154185 -120.526149 
L 199.530142 -118.711263 
L 199.906098 -117.998755 
L 200.282055 -98.655938 
L 200.658012 -117.671658 
L 201.033968 -101.579352 
L 201.409925 -117.610149 
L 201.785882 -110.337161 
L 202.161838 -110.653394 
L 202.537795 -108.705899 
L 202.913752 -112.366966 
L 203.289709 -120.324507 
L 203.665665 -119.095258 
L 204.041622 -117.213683 
L 204.417579 -115.291303 
L 204.793535 -108.672089 
L 205.169492 -117.471736 
L 205.545449 -99.769904 
L 205.921405 -116.80002 
L 206.297362 -113.571259 
L 206.673319 -115.230963 
L 207.049275 -100.648239 
L 207.425232 -99.645675 
L 207.801189 -107.425226 
L 208.177146 -109.232412 
L 208.553102 -102.031607 
L 208.929059 -114.764857 
L 209.305016 -93.473296 
L 209.680972 -93.23472 
L 210.056929 -106.282771 
L 210.432886 -97.60005 
L 210.808842 -113.970937 
L 211.184799 -101.100663 
L 211.560756 -107.873779 
L 211.936712 -102.809371 
L 212.312669 -113.634404 
L 212.688626 -98.752257 
L 213.064583 -108.526948 
L 213.440539 -99.29072 
L 213.816496 -96.661666 
L 214.192453 -102.104542 
L 214.568409 -104.581231 
L 214.944366 -95.113971 
L 215.320323 -117.629474 
L 215.696279 -99.163136 
L 216.072236 -100.178543 
L 216.448193 -87.3052 
L 216.824149 -97.296717 
L 217.200106 -99.076205 
L 217.576063 -101.448208 
L 217.95202 -100.729016 
L 218.327976 -97.300515 
L 218.703933 -97.666092 
L 219.07989 -94.306361 
L 219.455846 -105.384977 
L 219.831803 -96.251519 
L 220.20776 -85.813486 
L 220.583716 -90.513843 
L 220.959673 -96.707467 
L 221.33563 -94.269011 
L 221.711586 -75.884335 
L 222.087543 -86.289913 
L 222.4635 -89.414188 
L 222.839457 -88.208624 
L 223.215413 -90.20749 
L 223.59137 -87.750318 
L 223.967327 -89.97133 
L 224.343283 -85.80836 
L 224.71924 -87.820408 
L 225.095197 -95.226974 
L 225.471153 -87.326884 
L 225.84711 -79.696674 
L 226.223067 -85.831594 
L 226.599023 -88.675597 
L 226.97498 -79.655088 
L 227.350937 -77.458378 
L 227.726894 -90.348105 
L 228.10285 -82.248953 
L 228.478807 -78.63283 
L 228.854764 -83.163867 
L 229.23072 -79.949686 
L 229.606677 -88.15658 
L 229.982634 -91.464849 
L 230.35859 -79.875165 
L 230.734547 -86.177479 
L 231.110504 -74.056671 
L 231.48646 -88.710665 
L 231.862417 -78.146867 
L 232.238374 -73.420841 
L 232.614331 -75.151961 
L 232.990287 -72.454947 
L 233.366244 -69.907843 
L 233.742201 -76.52521 
L 234.118157 -70.423575 
L 234.494114 -75.994242 
L 234.870071 -65.979307 
L 235.246027 -62.283235 
L 235.621984 -71.661704 
L 235.997941 -68.241519 
L 236.373897 -66.575528 
L 236.749854 -63.509123 
L 237.125811 -64.960316 
L 237.501768 -53.52227 
L 237.877724 -55.29001 
L 238.253681 -58.251638 
L 238.629638 -51.343679 
L 239.005594 -54.714364 
L 239.381551 -50.32273 
L 239.757508 -50.395007 
L 240.133464 -46.114947 
L 240.509421 -47.034342 
L 240.885378 -45.956133 
L 241.261334 -44.90922 
L 241.637291 -44.672337 
L 242.013248 -44.687105 
L 242.389205 -44.680957 
L 242.389205 -44.680957 
L 242.389205 -44.680957 
L 242.013248 -44.791272 
L 241.637291 -45.341765 
L 241.261334 -47.038151 
L 240.885378 -48.786328 
L 240.509421 -51.01564 
L 240.133464 -60.064084 
L 239.757508 -57.251446 
L 239.381551 -62.634391 
L 239.005594 -65.579865 
L 238.629638 -66.714478 
L 238.253681 -70.125055 
L 237.877724 -68.89405 
L 237.501768 -69.543754 
L 237.125811 -85.218068 
L 236.749854 -76.047925 
L 236.373897 -76.871351 
L 235.997941 -82.07662 
L 235.621984 -85.248186 
L 235.246027 -90.294267 
L 234.870071 -81.590328 
L 234.494114 -100.830653 
L 234.118157 -93.334281 
L 233.742201 -95.128771 
L 233.366244 -92.07979 
L 232.990287 -93.818489 
L 232.614331 -90.539165 
L 232.238374 -83.60551 
L 231.862417 -91.107997 
L 231.48646 -103.626973 
L 231.110504 -83.365652 
L 230.734547 -96.633564 
L 230.35859 -96.600344 
L 229.982634 -105.694316 
L 229.606677 -95.539575 
L 229.23072 -91.867342 
L 228.854764 -98.31951 
L 228.478807 -96.771229 
L 228.10285 -106.222145 
L 227.726894 -107.952387 
L 227.350937 -117.977149 
L 226.97498 -118.901622 
L 226.599023 -111.441704 
L 226.223067 -115.590082 
L 225.84711 -104.37216 
L 225.471153 -99.700085 
L 225.095197 -118.493091 
L 224.71924 -95.107097 
L 224.343283 -101.661165 
L 223.967327 -104.020068 
L 223.59137 -96.108884 
L 223.215413 -103.527691 
L 222.839457 -103.546703 
L 222.4635 -110.609943 
L 222.087543 -113.641049 
L 221.711586 -111.259096 
L 221.33563 -116.865597 
L 220.959673 -114.566895 
L 220.583716 -125.838263 
L 220.20776 -113.395411 
L 219.831803 -113.997978 
L 219.455846 -115.252933 
L 219.07989 -115.500581 
L 218.703933 -117.987243 
L 218.327976 -115.74407 
L 217.95202 -124.497497 
L 217.576063 -126.130838 
L 217.200106 -127.384806 
L 216.824149 -121.338045 
L 216.448193 -110.692492 
L 216.072236 -117.175137 
L 215.696279 -131.560385 
L 215.320323 -124.833419 
L 214.944366 -128.575244 
L 214.568409 -124.954377 
L 214.192453 -116.483636 
L 213.816496 -124.465384 
L 213.440539 -127.566261 
L 213.064583 -130.279037 
L 212.688626 -126.70718 
L 212.312669 -120.093837 
L 211.936712 -132.665801 
L 211.560756 -124.107532 
L 211.184799 -144.739629 
L 210.808842 -127.606845 
L 210.432886 -133.263225 
L 210.056929 -127.259131 
L 209.680972 -125.28358 
L 209.305016 -133.779657 
L 208.929059 -133.45126 
L 208.553102 -129.763365 
L 208.177146 -126.592146 
L 207.801189 -124.439622 
L 207.425232 -121.877346 
L 207.049275 -124.718029 
L 206.673319 -143.979169 
L 206.297362 -133.456945 
L 205.921405 -133.67546 
L 205.545449 -129.719119 
L 205.169492 -142.73997 
L 204.793535 -135.025302 
L 204.417579 -136.348797 
L 204.041622 -136.382979 
L 203.665665 -129.493537 
L 203.289709 -135.880905 
L 202.913752 -128.76826 
L 202.537795 -117.731819 
L 202.161838 -135.396529 
L 201.785882 -144.633754 
L 201.409925 -140.621702 
L 201.033968 -128.981122 
L 200.658012 -142.703094 
L 200.282055 -131.415395 
L 199.906098 -140.093342 
L 199.530142 -131.414831 
L 199.154185 -138.637398 
L 198.778228 -142.794268 
L 198.402272 -141.156061 
L 198.026315 -143.763059 
L 197.650358 -146.760435 
L 197.274401 -141.444361 
L 196.898445 -137.800649 
L 196.522488 -150.672789 
L 196.146531 -125.01786 
L 195.770575 -139.393827 
L 195.394618 -149.533458 
L 195.018661 -148.318217 
L 194.642705 -133.177247 
L 194.266748 -141.259022 
L 193.890791 -144.813236 
L 193.514835 -150.181544 
L 193.138878 -140.93193 
L 192.762921 -140.697709 
L 192.386964 -141.977015 
L 192.011008 -145.989079 
L 191.635051 -136.44409 
L 191.259094 -139.594014 
L 190.883138 -149.01431 
L 190.507181 -153.297892 
L 190.131224 -150.496017 
L 189.755268 -160.966443 
L 189.379311 -143.510136 
L 189.003354 -146.313717 
L 188.627398 -133.406002 
L 188.251441 -149.663079 
L 187.875484 -146.985638 
L 187.499527 -156.011637 
L 187.123571 -157.417728 
L 186.747614 -150.045918 
L 186.371657 -153.064658 
L 185.995701 -170.476037 
L 185.619744 -149.649919 
L 185.243787 -146.384706 
L 184.867831 -160.523546 
L 184.491874 -141.372352 
L 184.115917 -143.966091 
L 183.739961 -162.500316 
L 183.364004 -147.682844 
L 182.988047 -140.715502 
L 182.61209 -155.013334 
L 182.236134 -166.121067 
L 181.860177 -145.429496 
L 181.48422 -144.179114 
L 181.108264 -138.556469 
L 180.732307 -156.476892 
L 180.35635 -142.598411 
L 179.980394 -162.414023 
L 179.604437 -157.564097 
L 179.22848 -154.680485 
L 178.852524 -148.051813 
L 178.476567 -150.013991 
L 178.10061 -154.18738 
L 177.724653 -150.477872 
L 177.348697 -159.879245 
L 176.97274 -167.316355 
L 176.596783 -149.702877 
L 176.220827 -165.568532 
L 175.84487 -148.930687 
L 175.468913 -157.858404 
L 175.092957 -149.32241 
L 174.717 -152.293856 
L 174.341043 -158.24407 
L 173.965087 -162.998079 
L 173.58913 -161.596907 
L 173.213173 -150.588147 
L 172.837216 -160.935454 
L 172.46126 -160.845906 
L 172.085303 -155.05074 
L 171.709346 -161.834429 
L 171.33339 -161.441025 
L 170.957433 -172.153744 
L 170.581476 -157.482571 
L 170.20552 -158.363661 
L 169.829563 -154.600843 
L 169.453606 -155.290261 
L 169.07765 -174.893905 
L 168.701693 -167.567749 
L 168.325736 -151.031815 
L 167.949779 -152.949209 
L 167.573823 -154.664665 
L 167.197866 -153.496545 
L 166.821909 -148.971135 
L 166.445953 -166.76039 
L 166.069996 -163.123487 
L 165.694039 -163.722721 
L 165.318083 -145.630184 
L 164.942126 -164.177974 
L 164.566169 -165.71236 
L 164.190213 -159.064479 
L 163.814256 -169.121627 
L 163.438299 -165.564778 
L 163.062342 -161.85914 
L 162.686386 -165.952705 
L 162.310429 -166.85744 
L 161.934472 -144.125714 
L 161.558516 -162.18852 
L 161.182559 -154.468918 
L 160.806602 -166.48119 
L 160.430646 -160.965663 
L 160.054689 -146.164206 
L 159.678732 -154.955943 
L 159.302776 -152.961338 
L 158.926819 -165.252448 
L 158.550862 -165.873865 
L 158.174905 -168.159375 
L 157.798949 -162.278448 
L 157.422992 -165.476647 
L 157.047035 -161.143945 
L 156.671079 -172.876231 
L 156.295122 -155.968954 
L 155.919165 -151.139094 
L 155.543209 -163.361363 
L 155.167252 -160.858244 
L 154.791295 -150.413355 
L 154.415339 -158.753641 
L 154.039382 -164.138377 
L 153.663425 -166.628996 
L 153.287468 -175.541875 
L 152.911512 -167.135689 
L 152.535555 -169.925399 
L 152.159598 -166.077484 
L 151.783642 -174.168974 
L 151.407685 -172.594244 
L 151.031728 -170.835916 
L 150.655772 -159.448715 
L 150.279815 -171.610188 
L 149.903858 -157.965324 
L 149.527902 -167.214957 
L 149.151945 -153.566117 
L 148.775988 -165.275935 
L 148.400032 -172.832992 
L 148.024075 -158.262572 
L 147.648118 -160.946879 
L 147.272161 -159.686997 
L 146.896205 -168.948555 
L 146.520248 -168.332661 
L 146.144291 -168.525583 
L 145.768335 -158.133238 
L 145.392378 -165.037624 
L 145.016421 -164.855859 
L 144.640465 -163.838295 
L 144.264508 -167.655369 
L 143.888551 -162.339909 
L 143.512595 -158.83007 
L 143.136638 -167.157721 
L 142.760681 -165.879304 
L 142.384724 -181.249528 
L 142.008768 -162.754975 
L 141.632811 -171.394226 
L 141.256854 -158.25032 
L 140.880898 -159.024902 
L 140.504941 -170.588426 
L 140.128984 -182.565439 
L 139.753028 -180.120627 
L 139.377071 -165.536212 
L 139.001114 -160.365898 
L 138.625158 -160.727511 
L 138.249201 -161.588897 
L 137.873244 -167.248325 
L 137.497287 -176.045713 
L 137.121331 -169.258947 
L 136.745374 -176.335475 
L 136.369417 -173.130065 
L 135.993461 -156.776981 
L 135.617504 -171.397067 
L 135.241547 -173.494876 
L 134.865591 -167.987065 
L 134.489634 -160.18791 
L 134.113677 -164.373355 
L 133.737721 -155.836578 
L 133.361764 -164.262015 
L 132.985807 -179.733929 
L 132.60985 -179.943762 
L 132.233894 -172.630863 
L 131.857937 -168.124879 
L 131.48198 -169.679524 
L 131.106024 -170.242348 
L 130.730067 -161.129424 
L 130.35411 -154.611622 
L 129.978154 -166.09849 
L 129.602197 -166.871162 
L 129.22624 -166.122942 
L 128.850284 -169.794138 
L 128.474327 -174.900416 
L 128.09837 -165.158616 
L 127.722413 -166.164806 
L 127.346457 -173.227154 
L 126.9705 -161.18047 
L 126.594543 -169.508564 
L 126.218587 -174.993508 
L 125.84263 -157.83871 
L 125.466673 -175.097098 
L 125.090717 -170.335773 
L 124.71476 -159.869925 
L 124.338803 -183.397706 
L 123.962847 -168.146502 
L 123.58689 -172.943456 
L 123.210933 -163.348517 
L 122.834976 -170.535473 
L 122.45902 -176.833199 
L 122.083063 -161.645726 
L 121.707106 -169.835784 
L 121.33115 -166.457313 
L 120.955193 -173.775216 
L 120.579236 -174.389308 
L 120.20328 -156.864086 
L 119.827323 -162.335726 
L 119.451366 -163.682023 
L 119.07541 -168.226133 
L 118.699453 -166.112285 
L 118.323496 -173.553436 
L 117.947539 -176.954713 
L 117.571583 -164.268194 
L 117.195626 -168.189819 
L 116.819669 -163.954248 
L 116.443713 -148.626812 
L 116.067756 -164.161359 
L 115.691799 -169.350838 
L 115.315843 -173.328887 
L 114.939886 -164.303574 
L 114.563929 -170.892758 
L 114.187973 -161.210253 
L 113.812016 -174.741819 
L 113.436059 -161.03371 
L 113.060102 -159.354719 
L 112.684146 -161.907118 
L 112.308189 -177.178045 
L 111.932232 -158.459444 
L 111.556276 -170.656539 
L 111.180319 -166.993067 
L 110.804362 -156.640061 
L 110.428406 -159.50284 
L 110.052449 -168.855567 
L 109.676492 -150.588621 
L 109.300536 -161.441103 
L 108.924579 -149.105035 
L 108.548622 -152.250602 
L 108.172665 -166.257195 
L 107.796709 -165.238634 
L 107.420752 -168.260295 
L 107.044795 -173.728425 
L 106.668839 -149.773046 
L 106.292882 -155.20228 
L 105.916925 -164.438957 
L 105.540969 -166.702067 
L 105.165012 -160.095717 
L 104.789055 -157.310937 
L 104.413099 -156.415404 
L 104.037142 -167.364647 
L 103.661185 -164.839485 
L 103.285228 -157.733431 
L 102.909272 -160.238941 
L 102.533315 -155.420729 
L 102.157358 -170.460715 
L 101.781402 -155.340647 
L 101.405445 -157.53904 
L 101.029488 -158.146675 
L 100.653532 -159.641142 
L 100.277575 -148.527777 
L 99.901618 -158.634418 
L 99.525662 -151.599238 
L 99.149705 -147.904384 
L 98.773748 -155.613437 
L 98.397791 -155.927804 
L 98.021835 -150.633524 
L 97.645878 -153.677282 
L 97.269921 -156.442448 
L 96.893965 -161.70577 
L 96.518008 -156.455697 
L 96.142051 -161.657397 
L 95.766095 -158.394162 
L 95.390138 -152.334189 
L 95.014181 -158.5321 
L 94.638225 -159.747031 
L 94.262268 -145.088637 
L 93.886311 -164.332429 
L 93.510354 -155.137356 
L 93.134398 -169.398791 
L 92.758441 -152.686425 
L 92.382484 -157.542858 
L 92.006528 -170.10866 
L 91.630571 -141.717493 
L 91.254614 -164.443913 
L 90.878658 -158.067654 
L 90.502701 -138.501754 
L 90.126744 -155.799798 
L 89.750788 -155.914021 
L 89.374831 -148.032041 
L 88.998874 -142.167782 
L 88.622917 -144.632756 
L 88.246961 -148.521787 
L 87.871004 -149.554957 
L 87.495047 -158.506613 
L 87.119091 -151.771612 
L 86.743134 -149.763092 
L 86.367177 -154.85722 
L 85.991221 -144.78389 
L 85.615264 -134.068 
L 85.239307 -171.004395 
L 84.863351 -165.545207 
L 84.487394 -153.056333 
L 84.111437 -149.358147 
L 83.73548 -146.428155 
L 83.359524 -143.686641 
L 82.983567 -140.135989 
L 82.60761 -156.27118 
L 82.231654 -166.110449 
L 81.855697 -169.230237 
L 81.47974 -145.317546 
L 81.103784 -140.512223 
L 80.727827 -150.140362 
L 80.35187 -146.559333 
L 79.975914 -150.571684 
L 79.599957 -144.397932 
L 79.224 -146.997631 
L 78.848043 -155.044257 
L 78.472087 -153.820909 
L 78.09613 -133.512834 
L 77.720173 -149.84706 
L 77.344217 -147.054113 
L 76.96826 -155.145537 
L 76.592303 -134.455354 
L 76.216347 -139.2436 
L 75.84039 -140.84585 
L 75.464433 -149.74669 
L 75.088477 -135.565077 
L 74.71252 -142.191921 
L 74.336563 -143.109913 
L 73.960606 -134.576274 
L 73.58465 -144.764717 
L 73.208693 -132.710988 
L 72.832736 -144.37314 
L 72.45678 -142.376151 
L 72.080823 -131.577383 
L 71.704866 -141.774639 
L 71.32891 -128.951648 
L 70.952953 -143.394402 
L 70.576996 -148.832074 
L 70.20104 -137.893076 
L 69.825083 -168.629802 
L 69.449126 -140.482026 
L 69.073169 -137.419292 
L 68.697213 -142.191247 
L 68.321256 -157.047582 
L 67.945299 -130.135735 
L 67.569343 -144.806566 
L 67.193386 -137.993669 
L 66.817429 -134.982156 
L 66.441473 -143.385396 
L 66.065516 -144.801852 
L 65.689559 -156.839731 
L 65.313603 -137.994721 
L 64.937646 -169.53953 
L 64.561689 -163.247445 
L 64.185732 -140.566033 
L 63.809776 -136.566838 
L 63.433819 -140.513955 
L 63.057862 -130.34347 
L 62.681906 -117.524689 
L 62.305949 -132.576077 
L 61.929992 -141.477293 
L 61.554036 -164.380087 
L 61.178079 -158.220942 
L 60.802122 -160.773954 
L 60.426166 -164.785396 
L 60.050209 -180.889744 
L 59.674252 -186.503523 
L 59.298295 -141.346279 
z
"/>
    </defs>
    <g clip-path="url(#p60cbc98ccc)">
     <use xlink:href="#m90b77a0b06" x="0" y="200.79625" style="fill: #c0392b; fill-opacity: 0.15"/>
    </g>
   </g>
   <g id="FillBetweenPolyCollection_2">
    <defs>
     <path id="m30e953d28f" d="M 59.298295 -93.487354 
L 59.298295 -73.414977 
L 59.674252 -100.557409 
L 60.050209 -101.019072 
L 60.426166 -101.082668 
L 60.802122 -93.568508 
L 61.178079 -97.185067 
L 61.554036 -96.339017 
L 61.929992 -80.272639 
L 62.305949 -86.9148 
L 62.681906 -81.350012 
L 63.057862 -80.192087 
L 63.433819 -76.349576 
L 63.809776 -78.597574 
L 64.185732 -93.755944 
L 64.561689 -98.528464 
L 64.937646 -85.279834 
L 65.313603 -91.024058 
L 65.689559 -100.476638 
L 66.065516 -95.7341 
L 66.441473 -95.090696 
L 66.817429 -83.222586 
L 67.193386 -81.087586 
L 67.569343 -83.971197 
L 67.945299 -80.534333 
L 68.321256 -98.378397 
L 68.697213 -89.804051 
L 69.073169 -94.151168 
L 69.449126 -91.50952 
L 69.825083 -86.480878 
L 70.20104 -91.743228 
L 70.576996 -86.588037 
L 70.952953 -89.632079 
L 71.32891 -88.033141 
L 71.704866 -91.385344 
L 72.080823 -92.588402 
L 72.45678 -92.383559 
L 72.832736 -90.845537 
L 73.208693 -88.220434 
L 73.58465 -87.374914 
L 73.960606 -85.316487 
L 74.336563 -92.570132 
L 74.71252 -99.602593 
L 75.088477 -87.506432 
L 75.464433 -96.75785 
L 75.84039 -88.277107 
L 76.216347 -86.563245 
L 76.592303 -89.436928 
L 76.96826 -89.090713 
L 77.344217 -86.657763 
L 77.720173 -94.280417 
L 78.09613 -96.19345 
L 78.472087 -95.631259 
L 78.848043 -92.525342 
L 79.224 -97.151864 
L 79.599957 -92.180673 
L 79.975914 -100.748796 
L 80.35187 -99.645059 
L 80.727827 -96.647181 
L 81.103784 -95.016463 
L 81.47974 -95.031022 
L 81.855697 -89.551951 
L 82.231654 -98.31203 
L 82.60761 -93.594463 
L 82.983567 -88.796074 
L 83.359524 -98.527569 
L 83.73548 -98.56387 
L 84.111437 -97.92784 
L 84.487394 -99.334102 
L 84.863351 -102.03883 
L 85.239307 -97.844833 
L 85.615264 -96.100231 
L 85.991221 -95.242375 
L 86.367177 -98.397479 
L 86.743134 -97.986861 
L 87.119091 -91.660265 
L 87.495047 -93.027233 
L 87.871004 -92.211986 
L 88.246961 -103.811561 
L 88.622917 -96.778832 
L 88.998874 -88.561914 
L 89.374831 -97.591197 
L 89.750788 -94.013947 
L 90.126744 -97.025513 
L 90.502701 -91.975546 
L 90.878658 -97.601861 
L 91.254614 -92.786819 
L 91.630571 -96.173071 
L 92.006528 -97.357337 
L 92.382484 -98.606423 
L 92.758441 -96.570396 
L 93.134398 -96.497463 
L 93.510354 -102.602583 
L 93.886311 -97.682493 
L 94.262268 -103.396593 
L 94.638225 -103.203541 
L 95.014181 -93.944664 
L 95.390138 -97.079965 
L 95.766095 -105.043954 
L 96.142051 -101.999609 
L 96.518008 -100.459033 
L 96.893965 -98.205283 
L 97.269921 -103.748792 
L 97.645878 -98.290955 
L 98.021835 -102.94989 
L 98.397791 -101.510626 
L 98.773748 -99.634769 
L 99.149705 -99.593493 
L 99.525662 -92.203256 
L 99.901618 -102.714277 
L 100.277575 -99.223249 
L 100.653532 -97.337637 
L 101.029488 -97.445758 
L 101.405445 -98.692894 
L 101.781402 -100.936886 
L 102.157358 -100.174326 
L 102.533315 -103.831866 
L 102.909272 -102.160922 
L 103.285228 -96.490612 
L 103.661185 -105.546142 
L 104.037142 -101.978881 
L 104.413099 -102.45784 
L 104.789055 -101.014231 
L 105.165012 -105.495208 
L 105.540969 -112.672234 
L 105.916925 -112.168502 
L 106.292882 -105.598008 
L 106.668839 -103.277728 
L 107.044795 -99.943038 
L 107.420752 -101.309227 
L 107.796709 -104.145607 
L 108.172665 -98.450567 
L 108.548622 -97.086375 
L 108.924579 -107.170572 
L 109.300536 -101.828276 
L 109.676492 -94.118974 
L 110.052449 -103.891644 
L 110.428406 -97.097379 
L 110.804362 -98.264402 
L 111.180319 -95.378337 
L 111.556276 -107.379594 
L 111.932232 -98.279042 
L 112.308189 -104.988734 
L 112.684146 -103.50206 
L 113.060102 -99.754757 
L 113.436059 -107.328832 
L 113.812016 -105.103782 
L 114.187973 -106.138723 
L 114.563929 -107.702082 
L 114.939886 -103.451657 
L 115.315843 -100.874032 
L 115.691799 -108.80352 
L 116.067756 -101.757791 
L 116.443713 -99.41757 
L 116.819669 -101.79653 
L 117.195626 -105.677821 
L 117.571583 -108.141915 
L 117.947539 -101.683669 
L 118.323496 -103.344897 
L 118.699453 -100.508638 
L 119.07541 -102.325181 
L 119.451366 -107.461469 
L 119.827323 -103.460221 
L 120.20328 -99.128963 
L 120.579236 -101.958888 
L 120.955193 -102.858306 
L 121.33115 -103.66103 
L 121.707106 -101.106653 
L 122.083063 -104.527409 
L 122.45902 -108.333674 
L 122.834976 -103.165883 
L 123.210933 -100.985913 
L 123.58689 -103.401184 
L 123.962847 -103.462832 
L 124.338803 -113.252519 
L 124.71476 -99.865174 
L 125.090717 -100.471125 
L 125.466673 -107.997027 
L 125.84263 -102.828486 
L 126.218587 -108.903821 
L 126.594543 -108.424621 
L 126.9705 -101.37055 
L 127.346457 -111.777022 
L 127.722413 -106.078457 
L 128.09837 -103.060657 
L 128.474327 -105.351715 
L 128.850284 -105.296847 
L 129.22624 -105.420528 
L 129.602197 -107.912608 
L 129.978154 -97.539169 
L 130.35411 -108.488006 
L 130.730067 -103.462156 
L 131.106024 -111.35278 
L 131.48198 -112.558323 
L 131.857937 -109.608224 
L 132.233894 -107.354101 
L 132.60985 -108.59605 
L 132.985807 -105.514069 
L 133.361764 -99.767819 
L 133.737721 -103.524516 
L 134.113677 -109.315245 
L 134.489634 -104.196935 
L 134.865591 -103.762114 
L 135.241547 -105.012179 
L 135.617504 -109.149383 
L 135.993461 -98.923098 
L 136.369417 -106.622858 
L 136.745374 -111.843486 
L 137.121331 -107.567206 
L 137.497287 -114.0822 
L 137.873244 -107.722745 
L 138.249201 -106.738513 
L 138.625158 -104.409698 
L 139.001114 -105.641757 
L 139.377071 -108.495917 
L 139.753028 -100.449908 
L 140.128984 -112.369251 
L 140.504941 -109.011818 
L 140.880898 -108.226382 
L 141.256854 -105.410591 
L 141.632811 -111.187787 
L 142.008768 -110.61517 
L 142.384724 -109.047734 
L 142.760681 -107.316289 
L 143.136638 -105.818054 
L 143.512595 -102.958673 
L 143.888551 -108.614972 
L 144.264508 -102.990213 
L 144.640465 -110.893809 
L 145.016421 -107.600896 
L 145.392378 -106.576538 
L 145.768335 -105.09514 
L 146.144291 -110.195433 
L 146.520248 -99.206118 
L 146.896205 -104.896452 
L 147.272161 -108.835824 
L 147.648118 -108.566901 
L 148.024075 -105.531669 
L 148.400032 -104.79859 
L 148.775988 -104.65835 
L 149.151945 -105.597632 
L 149.527902 -104.320747 
L 149.903858 -109.927904 
L 150.279815 -104.971961 
L 150.655772 -107.80447 
L 151.031728 -105.15942 
L 151.407685 -114.686225 
L 151.783642 -103.177554 
L 152.159598 -105.053416 
L 152.535555 -109.164149 
L 152.911512 -108.260772 
L 153.287468 -100.487722 
L 153.663425 -110.380047 
L 154.039382 -99.858533 
L 154.415339 -102.327449 
L 154.791295 -102.274296 
L 155.167252 -104.385612 
L 155.543209 -101.308267 
L 155.919165 -101.97461 
L 156.295122 -101.708692 
L 156.671079 -108.806721 
L 157.047035 -102.447684 
L 157.422992 -111.070909 
L 157.798949 -102.679627 
L 158.174905 -102.331313 
L 158.550862 -104.336109 
L 158.926819 -106.897254 
L 159.302776 -102.513742 
L 159.678732 -105.713699 
L 160.054689 -98.638721 
L 160.430646 -103.596901 
L 160.806602 -109.325546 
L 161.182559 -99.303305 
L 161.558516 -101.420352 
L 161.934472 -101.044765 
L 162.310429 -103.906109 
L 162.686386 -106.52998 
L 163.062342 -100.544248 
L 163.438299 -92.368093 
L 163.814256 -102.659255 
L 164.190213 -101.007838 
L 164.566169 -96.508876 
L 164.942126 -100.192629 
L 165.318083 -98.366805 
L 165.694039 -105.89251 
L 166.069996 -103.924692 
L 166.445953 -99.597418 
L 166.821909 -98.266746 
L 167.197866 -100.654237 
L 167.573823 -101.634247 
L 167.949779 -100.412919 
L 168.325736 -99.454627 
L 168.701693 -97.75247 
L 169.07765 -111.22888 
L 169.453606 -104.515023 
L 169.829563 -93.544735 
L 170.20552 -98.627537 
L 170.581476 -108.054542 
L 170.957433 -98.920418 
L 171.33339 -104.694389 
L 171.709346 -103.53706 
L 172.085303 -97.356972 
L 172.46126 -101.679366 
L 172.837216 -99.48363 
L 173.213173 -98.95204 
L 173.58913 -98.743103 
L 173.965087 -109.788781 
L 174.341043 -93.946468 
L 174.717 -98.222496 
L 175.092957 -101.50627 
L 175.468913 -98.136129 
L 175.84487 -93.111726 
L 176.220827 -95.491732 
L 176.596783 -96.099826 
L 176.97274 -101.784313 
L 177.348697 -98.446345 
L 177.724653 -95.164438 
L 178.10061 -103.212806 
L 178.476567 -98.42825 
L 178.852524 -96.670022 
L 179.22848 -99.90238 
L 179.604437 -89.114184 
L 179.980394 -91.289653 
L 180.35635 -99.70329 
L 180.732307 -97.229714 
L 181.108264 -94.147675 
L 181.48422 -94.521987 
L 181.860177 -94.691579 
L 182.236134 -90.62301 
L 182.61209 -95.591961 
L 182.988047 -91.144166 
L 183.364004 -93.469524 
L 183.739961 -99.408361 
L 184.115917 -98.13396 
L 184.491874 -94.957095 
L 184.867831 -98.398024 
L 185.243787 -94.879132 
L 185.619744 -96.324603 
L 185.995701 -89.004797 
L 186.371657 -100.624793 
L 186.747614 -91.861547 
L 187.123571 -88.12751 
L 187.499527 -97.468466 
L 187.875484 -90.723572 
L 188.251441 -88.831591 
L 188.627398 -87.730886 
L 189.003354 -95.889873 
L 189.379311 -93.312464 
L 189.755268 -96.472115 
L 190.131224 -92.419836 
L 190.507181 -87.80629 
L 190.883138 -101.216293 
L 191.259094 -86.159322 
L 191.635051 -91.886224 
L 192.011008 -98.256198 
L 192.386964 -94.63264 
L 192.762921 -94.70965 
L 193.138878 -89.943469 
L 193.514835 -92.647074 
L 193.890791 -83.153599 
L 194.266748 -88.49717 
L 194.642705 -90.07788 
L 195.018661 -100.518396 
L 195.394618 -97.802124 
L 195.770575 -85.91514 
L 196.146531 -87.271811 
L 196.522488 -93.054446 
L 196.898445 -91.85551 
L 197.274401 -91.417539 
L 197.650358 -87.650068 
L 198.026315 -86.515984 
L 198.402272 -88.301277 
L 198.778228 -78.622288 
L 199.154185 -92.46512 
L 199.530142 -86.937729 
L 199.906098 -89.201023 
L 200.282055 -80.039296 
L 200.658012 -87.956299 
L 201.033968 -81.143054 
L 201.409925 -92.459725 
L 201.785882 -84.233627 
L 202.161838 -84.881369 
L 202.537795 -81.113686 
L 202.913752 -84.803257 
L 203.289709 -88.688761 
L 203.665665 -87.477134 
L 204.041622 -91.391317 
L 204.417579 -92.516983 
L 204.793535 -87.91788 
L 205.169492 -87.203267 
L 205.545449 -81.552592 
L 205.921405 -87.81759 
L 206.297362 -83.406587 
L 206.673319 -86.621584 
L 207.049275 -76.555738 
L 207.425232 -78.167159 
L 207.801189 -75.45617 
L 208.177146 -88.859355 
L 208.553102 -74.500647 
L 208.929059 -82.781219 
L 209.305016 -75.680275 
L 209.680972 -75.885956 
L 210.056929 -83.250239 
L 210.432886 -77.009331 
L 210.808842 -85.27955 
L 211.184799 -80.300299 
L 211.560756 -80.028989 
L 211.936712 -77.749431 
L 212.312669 -80.184182 
L 212.688626 -77.422697 
L 213.064583 -79.727875 
L 213.440539 -77.618365 
L 213.816496 -74.384907 
L 214.192453 -79.197755 
L 214.568409 -78.71479 
L 214.944366 -79.066148 
L 215.320323 -85.78597 
L 215.696279 -76.513475 
L 216.072236 -79.123333 
L 216.448193 -72.949976 
L 216.824149 -74.66707 
L 217.200106 -77.428424 
L 217.576063 -79.897894 
L 217.95202 -77.648523 
L 218.327976 -70.888078 
L 218.703933 -76.661573 
L 219.07989 -74.986709 
L 219.455846 -81.089591 
L 219.831803 -78.349826 
L 220.20776 -64.406963 
L 220.583716 -74.025969 
L 220.959673 -73.762978 
L 221.33563 -73.044882 
L 221.711586 -64.277791 
L 222.087543 -69.800374 
L 222.4635 -70.536679 
L 222.839457 -71.361643 
L 223.215413 -72.280359 
L 223.59137 -70.018218 
L 223.967327 -72.538509 
L 224.343283 -66.984432 
L 224.71924 -69.284887 
L 225.095197 -73.689315 
L 225.471153 -69.818638 
L 225.84711 -64.491973 
L 226.223067 -68.922549 
L 226.599023 -70.834157 
L 226.97498 -63.238287 
L 227.350937 -64.845046 
L 227.726894 -72.833249 
L 228.10285 -65.91353 
L 228.478807 -67.113379 
L 228.854764 -65.491645 
L 229.23072 -67.763714 
L 229.606677 -68.865492 
L 229.982634 -71.838208 
L 230.35859 -67.220569 
L 230.734547 -71.161801 
L 231.110504 -63.528903 
L 231.48646 -72.815623 
L 231.862417 -64.138552 
L 232.238374 -63.507798 
L 232.614331 -60.427778 
L 232.990287 -61.386334 
L 233.366244 -61.215524 
L 233.742201 -60.208119 
L 234.118157 -56.638701 
L 234.494114 -67.441082 
L 234.870071 -56.836428 
L 235.246027 -54.393997 
L 235.621984 -59.559974 
L 235.997941 -57.472242 
L 236.373897 -56.799152 
L 236.749854 -53.221791 
L 237.125811 -53.72037 
L 237.501768 -49.982588 
L 237.877724 -49.943624 
L 238.253681 -50.175674 
L 238.629638 -47.173315 
L 239.005594 -50.129256 
L 239.381551 -47.070602 
L 239.757508 -47.657745 
L 240.133464 -45.776354 
L 240.509421 -46.4474 
L 240.885378 -45.56554 
L 241.261334 -44.882116 
L 241.637291 -44.675329 
L 242.013248 -44.648977 
L 242.389205 -44.680957 
L 242.389205 -44.680957 
L 242.389205 -44.680957 
L 242.013248 -44.829399 
L 241.637291 -44.849633 
L 241.261334 -45.691004 
L 240.885378 -46.591464 
L 240.509421 -47.922382 
L 240.133464 -54.696038 
L 239.757508 -53.42025 
L 239.381551 -54.869211 
L 239.005594 -56.515624 
L 238.629638 -58.819377 
L 238.253681 -60.242575 
L 237.877724 -59.612806 
L 237.501768 -55.544256 
L 237.125811 -63.475968 
L 236.749854 -64.999413 
L 236.373897 -65.358469 
L 235.997941 -68.994474 
L 235.621984 -65.602367 
L 235.246027 -73.423678 
L 234.870071 -65.623995 
L 234.494114 -77.123833 
L 234.118157 -72.273718 
L 233.742201 -76.833349 
L 233.366244 -74.288645 
L 232.990287 -74.909777 
L 232.614331 -71.815454 
L 232.238374 -73.62684 
L 231.862417 -72.972793 
L 231.48646 -81.136131 
L 231.110504 -71.835512 
L 230.734547 -74.218347 
L 230.35859 -71.404782 
L 229.982634 -80.250153 
L 229.606677 -78.424634 
L 229.23072 -75.799627 
L 228.854764 -83.894797 
L 228.478807 -78.196893 
L 228.10285 -85.126673 
L 227.726894 -78.579632 
L 227.350937 -92.13472 
L 226.97498 -91.71504 
L 226.599023 -82.838088 
L 226.223067 -83.538491 
L 225.84711 -83.054369 
L 225.471153 -76.889178 
L 225.095197 -92.584122 
L 224.71924 -77.283175 
L 224.343283 -80.864712 
L 223.967327 -83.230053 
L 223.59137 -75.781194 
L 223.215413 -83.791003 
L 222.839457 -79.352466 
L 222.4635 -79.01281 
L 222.087543 -87.202685 
L 221.711586 -79.029333 
L 221.33563 -96.629245 
L 220.959673 -85.615906 
L 220.583716 -93.551841 
L 220.20776 -89.381744 
L 219.831803 -86.85216 
L 219.455846 -85.04409 
L 219.07989 -83.996204 
L 218.703933 -88.936383 
L 218.327976 -81.083821 
L 217.95202 -91.722803 
L 217.576063 -90.824391 
L 217.200106 -93.247277 
L 216.824149 -91.420026 
L 216.448193 -85.240996 
L 216.072236 -90.434332 
L 215.696279 -92.135787 
L 215.320323 -92.972196 
L 214.944366 -94.800612 
L 214.568409 -92.426758 
L 214.192453 -89.800892 
L 213.816496 -87.602726 
L 213.440539 -94.617927 
L 213.064583 -96.258494 
L 212.688626 -90.807301 
L 212.312669 -90.934075 
L 211.936712 -91.295802 
L 211.560756 -94.885929 
L 211.184799 -97.898848 
L 210.808842 -95.085791 
L 210.432886 -99.396301 
L 210.056929 -92.014066 
L 209.680972 -93.741586 
L 209.305016 -97.394544 
L 208.929059 -95.767315 
L 208.553102 -94.847386 
L 208.177146 -91.971834 
L 207.801189 -91.189944 
L 207.425232 -94.185595 
L 207.049275 -88.949049 
L 206.673319 -102.78121 
L 206.297362 -97.261555 
L 205.921405 -101.212526 
L 205.545449 -95.551812 
L 205.169492 -99.124929 
L 204.793535 -99.668107 
L 204.417579 -103.663901 
L 204.041622 -96.800273 
L 203.665665 -96.591699 
L 203.289709 -96.544692 
L 202.913752 -93.186258 
L 202.537795 -89.748354 
L 202.161838 -100.654886 
L 201.785882 -97.133288 
L 201.409925 -101.182287 
L 201.033968 -98.197421 
L 200.658012 -103.286595 
L 200.282055 -96.855477 
L 199.906098 -99.922262 
L 199.530142 -93.171396 
L 199.154185 -97.729616 
L 198.778228 -101.696469 
L 198.402272 -103.54722 
L 198.026315 -103.725336 
L 197.650358 -102.917347 
L 197.274401 -102.014841 
L 196.898445 -103.673187 
L 196.522488 -102.986684 
L 196.146531 -96.890192 
L 195.770575 -104.535812 
L 195.394618 -108.604126 
L 195.018661 -110.127071 
L 194.642705 -100.699166 
L 194.266748 -106.262878 
L 193.890791 -104.781773 
L 193.514835 -108.308753 
L 193.138878 -101.206256 
L 192.762921 -105.663867 
L 192.386964 -107.953656 
L 192.011008 -101.907687 
L 191.635051 -102.45456 
L 191.259094 -96.721599 
L 190.883138 -108.474186 
L 190.507181 -103.925745 
L 190.131224 -107.045278 
L 189.755268 -116.735517 
L 189.379311 -102.565619 
L 189.003354 -105.275585 
L 188.627398 -100.181194 
L 188.251441 -110.377305 
L 187.875484 -99.890428 
L 187.499527 -112.105551 
L 187.123571 -107.494357 
L 186.747614 -109.420374 
L 186.371657 -110.649569 
L 185.995701 -116.865727 
L 185.619744 -103.839283 
L 185.243787 -104.818905 
L 184.867831 -109.033092 
L 184.491874 -108.30468 
L 184.115917 -108.971062 
L 183.739961 -113.915734 
L 183.364004 -110.421147 
L 182.988047 -104.687332 
L 182.61209 -109.416744 
L 182.236134 -114.921421 
L 181.860177 -105.891569 
L 181.48422 -104.360816 
L 181.108264 -102.825151 
L 180.732307 -112.018209 
L 180.35635 -103.069345 
L 179.980394 -111.622736 
L 179.604437 -112.540415 
L 179.22848 -105.059741 
L 178.852524 -108.059175 
L 178.476567 -104.414262 
L 178.10061 -110.460675 
L 177.724653 -104.976155 
L 177.348697 -111.407181 
L 176.97274 -112.634524 
L 176.596783 -106.370007 
L 176.220827 -108.235892 
L 175.84487 -109.404692 
L 175.468913 -110.529484 
L 175.092957 -112.772813 
L 174.717 -104.130875 
L 174.341043 -115.068531 
L 173.965087 -114.669082 
L 173.58913 -110.202019 
L 173.213173 -109.364188 
L 172.837216 -110.230141 
L 172.46126 -113.135442 
L 172.085303 -108.630015 
L 171.709346 -106.642559 
L 171.33339 -111.844057 
L 170.957433 -110.047997 
L 170.581476 -111.954472 
L 170.20552 -116.65312 
L 169.829563 -111.347509 
L 169.453606 -115.540576 
L 169.07765 -124.595677 
L 168.701693 -115.268823 
L 168.325736 -116.198708 
L 167.949779 -114.79786 
L 167.573823 -109.989502 
L 167.197866 -108.221007 
L 166.821909 -112.238967 
L 166.445953 -113.051197 
L 166.069996 -116.200784 
L 165.694039 -115.677095 
L 165.318083 -109.926129 
L 164.942126 -112.432693 
L 164.566169 -115.999985 
L 164.190213 -114.808544 
L 163.814256 -117.722438 
L 163.438299 -113.96828 
L 163.062342 -115.784567 
L 162.686386 -117.462036 
L 162.310429 -116.848263 
L 161.934472 -107.807188 
L 161.558516 -110.576075 
L 161.182559 -115.255287 
L 160.806602 -119.068734 
L 160.430646 -113.919826 
L 160.054689 -106.859125 
L 159.678732 -115.716153 
L 159.302776 -109.366223 
L 158.926819 -116.698791 
L 158.550862 -114.764502 
L 158.174905 -119.308169 
L 157.798949 -113.649188 
L 157.422992 -116.368383 
L 157.047035 -121.288115 
L 156.671079 -127.017837 
L 156.295122 -115.388772 
L 155.919165 -107.296606 
L 155.543209 -116.418092 
L 155.167252 -113.340747 
L 154.791295 -111.166261 
L 154.415339 -115.701711 
L 154.039382 -111.182906 
L 153.663425 -118.340327 
L 153.287468 -114.583303 
L 152.911512 -119.294982 
L 152.535555 -115.82944 
L 152.159598 -112.696236 
L 151.783642 -121.396772 
L 151.407685 -126.868264 
L 151.031728 -126.006656 
L 150.655772 -117.957768 
L 150.279815 -117.692387 
L 149.903858 -115.298609 
L 149.527902 -122.023802 
L 149.151945 -112.338359 
L 148.775988 -118.704771 
L 148.400032 -125.808469 
L 148.024075 -110.983485 
L 147.648118 -115.588161 
L 147.272161 -116.250935 
L 146.896205 -115.531826 
L 146.520248 -118.636703 
L 146.144291 -120.038948 
L 145.768335 -112.188663 
L 145.392378 -116.041226 
L 145.016421 -116.600751 
L 144.640465 -120.179098 
L 144.264508 -123.587259 
L 143.888551 -114.212423 
L 143.512595 -121.266267 
L 143.136638 -116.566786 
L 142.760681 -119.331061 
L 142.384724 -122.351266 
L 142.008768 -120.527614 
L 141.632811 -123.751659 
L 141.256854 -112.385645 
L 140.880898 -126.736357 
L 140.504941 -117.705409 
L 140.128984 -125.574915 
L 139.753028 -129.085701 
L 139.377071 -115.752315 
L 139.001114 -117.791241 
L 138.625158 -127.897706 
L 138.249201 -119.885544 
L 137.873244 -119.716547 
L 137.497287 -120.764076 
L 137.121331 -124.833368 
L 136.745374 -120.67355 
L 136.369417 -120.956188 
L 135.993461 -115.239523 
L 135.617504 -122.575712 
L 135.241547 -119.189468 
L 134.865591 -117.993831 
L 134.489634 -117.46584 
L 134.113677 -115.794806 
L 133.737721 -114.201842 
L 133.361764 -120.730336 
L 132.985807 -122.530825 
L 132.60985 -124.689635 
L 132.233894 -123.066619 
L 131.857937 -116.992541 
L 131.48198 -122.427708 
L 131.106024 -117.414178 
L 130.730067 -113.914816 
L 130.35411 -115.50401 
L 129.978154 -121.701197 
L 129.602197 -117.733168 
L 129.22624 -116.032615 
L 128.850284 -122.445246 
L 128.474327 -129.331515 
L 128.09837 -119.557107 
L 127.722413 -117.843681 
L 127.346457 -127.751028 
L 126.9705 -116.053008 
L 126.594543 -125.79276 
L 126.218587 -124.381865 
L 125.84263 -116.737973 
L 125.466673 -124.776226 
L 125.090717 -118.699363 
L 124.71476 -120.283595 
L 124.338803 -126.508455 
L 123.962847 -116.359843 
L 123.58689 -120.055107 
L 123.210933 -115.459364 
L 122.834976 -117.891289 
L 122.45902 -125.511029 
L 122.083063 -119.767408 
L 121.707106 -115.944226 
L 121.33115 -120.540617 
L 120.955193 -121.62285 
L 120.579236 -128.205615 
L 120.20328 -113.845745 
L 119.827323 -114.87174 
L 119.451366 -116.483962 
L 119.07541 -120.106244 
L 118.699453 -122.947652 
L 118.323496 -122.30088 
L 117.947539 -123.589429 
L 117.571583 -115.430838 
L 117.195626 -120.992821 
L 116.819669 -119.610028 
L 116.443713 -115.280776 
L 116.067756 -116.387832 
L 115.691799 -116.399701 
L 115.315843 -121.999948 
L 114.939886 -123.405324 
L 114.563929 -119.248069 
L 114.187973 -113.683952 
L 113.812016 -120.378948 
L 113.436059 -117.897682 
L 113.060102 -117.016613 
L 112.684146 -122.097132 
L 112.308189 -123.079452 
L 111.932232 -113.577631 
L 111.556276 -120.292622 
L 111.180319 -110.42231 
L 110.804362 -107.326614 
L 110.428406 -115.78416 
L 110.052449 -120.542928 
L 109.676492 -112.170814 
L 109.300536 -117.971106 
L 108.924579 -113.560507 
L 108.548622 -115.422485 
L 108.172665 -119.532008 
L 107.796709 -119.124344 
L 107.420752 -115.53202 
L 107.044795 -125.958955 
L 106.668839 -113.633396 
L 106.292882 -115.692088 
L 105.916925 -117.413691 
L 105.540969 -118.121164 
L 105.165012 -116.86634 
L 104.789055 -113.614238 
L 104.413099 -111.844535 
L 104.037142 -123.597018 
L 103.661185 -110.829258 
L 103.285228 -115.575693 
L 102.909272 -118.826373 
L 102.533315 -118.80919 
L 102.157358 -121.395279 
L 101.781402 -117.907509 
L 101.405445 -107.736648 
L 101.029488 -112.477645 
L 100.653532 -113.843556 
L 100.277575 -104.644128 
L 99.901618 -116.642551 
L 99.525662 -108.752571 
L 99.149705 -106.463371 
L 98.773748 -111.593009 
L 98.397791 -111.580544 
L 98.021835 -110.863345 
L 97.645878 -115.731912 
L 97.269921 -113.698058 
L 96.893965 -117.448052 
L 96.518008 -116.778185 
L 96.142051 -114.515544 
L 95.766095 -117.131254 
L 95.390138 -109.838718 
L 95.014181 -112.997311 
L 94.638225 -112.985519 
L 94.262268 -113.188438 
L 93.886311 -118.087304 
L 93.510354 -114.657927 
L 93.134398 -120.693171 
L 92.758441 -110.161948 
L 92.382484 -110.757962 
L 92.006528 -118.622091 
L 91.630571 -105.132142 
L 91.254614 -118.999976 
L 90.878658 -113.369701 
L 90.502701 -104.694479 
L 90.126744 -108.72855 
L 89.750788 -114.48862 
L 89.374831 -109.816626 
L 88.998874 -103.845601 
L 88.622917 -109.045108 
L 88.246961 -108.068404 
L 87.871004 -107.113373 
L 87.495047 -116.31386 
L 87.119091 -111.368586 
L 86.743134 -108.093295 
L 86.367177 -113.925042 
L 85.991221 -106.598563 
L 85.615264 -102.200262 
L 85.239307 -118.996414 
L 84.863351 -109.538334 
L 84.487394 -113.314513 
L 84.111437 -104.029561 
L 83.73548 -108.774076 
L 83.359524 -109.625612 
L 82.983567 -101.608294 
L 82.60761 -112.765202 
L 82.231654 -117.993492 
L 81.855697 -123.748851 
L 81.47974 -101.173155 
L 81.103784 -101.374053 
L 80.727827 -112.903544 
L 80.35187 -110.161883 
L 79.975914 -110.898246 
L 79.599957 -105.421048 
L 79.224 -104.036887 
L 78.848043 -108.104392 
L 78.472087 -113.523495 
L 78.09613 -100.24365 
L 77.720173 -111.264014 
L 77.344217 -114.740619 
L 76.96826 -112.2145 
L 76.592303 -101.759381 
L 76.216347 -98.879841 
L 75.84039 -103.454928 
L 75.464433 -113.701278 
L 75.088477 -101.081129 
L 74.71252 -109.109605 
L 74.336563 -105.497437 
L 73.960606 -100.289645 
L 73.58465 -105.172354 
L 73.208693 -101.252238 
L 72.832736 -103.471954 
L 72.45678 -105.753887 
L 72.080823 -100.517884 
L 71.704866 -111.107782 
L 71.32891 -101.812209 
L 70.952953 -102.14654 
L 70.576996 -110.035403 
L 70.20104 -99.709298 
L 69.825083 -111.214012 
L 69.449126 -99.803252 
L 69.073169 -99.374382 
L 68.697213 -101.042872 
L 68.321256 -108.214192 
L 67.945299 -99.644669 
L 67.569343 -104.919164 
L 67.193386 -97.134853 
L 66.817429 -100.077598 
L 66.441473 -103.675645 
L 66.065516 -104.639417 
L 65.689559 -109.726274 
L 65.313603 -102.920755 
L 64.937646 -112.461641 
L 64.561689 -107.179014 
L 64.185732 -103.333344 
L 63.809776 -100.766193 
L 63.433819 -104.900877 
L 63.057862 -98.799002 
L 62.681906 -91.841269 
L 62.305949 -100.810941 
L 61.929992 -98.625281 
L 61.554036 -112.699275 
L 61.178079 -104.749041 
L 60.802122 -99.491194 
L 60.426166 -108.281717 
L 60.050209 -109.975782 
L 59.674252 -115.14251 
L 59.298295 -93.487354 
z
"/>
    </defs>
    <g clip-path="url(#p60cbc98ccc)">
     <use xlink:href="#m30e953d28f" x="0" y="200.79625" style="fill: #1f77b4; fill-opacity: 0.15"/>
    </g>
   </g>
   <g id="matplotlib.axis_1">
    <g id="xtick_1">
     <g id="line2d_1">
      <path d="M 58.922339 163.24 
L 58.922339 7.2 
" clip-path="url(#p60cbc98ccc)" style="fill: none; stroke: #b0b0b0; stroke-opacity: 0.3; stroke-width: 0.8; stroke-linecap: square"/>
     </g>
     <g id="line2d_2">
      <defs>
       <path id="md52ec2ff24" d="M 0 0 
L 0 3.5 
" style="stroke: #000000; stroke-width: 0.8"/>
      </defs>
      <g>
       <use xlink:href="#md52ec2ff24" x="58.922339" y="163.24" style="stroke: #000000; stroke-width: 0.8"/>
      </g>
     </g>
     <g id="text_1">
      <text style="font-size: 10px; font-family: 'DejaVu Sans', 'Bitstream Vera Sans', 'Computer Modern Sans Serif', 'Lucida Grande', 'Verdana', 'Geneva', 'Lucid', 'Arial', 'Helvetica', 'Avant Garde', sans-serif; text-anchor: middle" x="58.922339" y="177.838437" transform="rotate(-0 58.922339 177.838437)">0.0</text>
     </g>
    </g>
    <g id="xtick_2">
     <g id="line2d_3">
      <path d="M 95.636859 163.24 
L 95.636859 7.2 
" clip-path="url(#p60cbc98ccc)" style="fill: none; stroke: #b0b0b0; stroke-opacity: 0.3; stroke-width: 0.8; stroke-linecap: square"/>
     </g>
     <g id="line2d_4">
      <g>
       <use xlink:href="#md52ec2ff24" x="95.636859" y="163.24" style="stroke: #000000; stroke-width: 0.8"/>
      </g>
     </g>
     <g id="text_2">
      <text style="font-size: 10px; font-family: 'DejaVu Sans', 'Bitstream Vera Sans', 'Computer Modern Sans Serif', 'Lucida Grande', 'Verdana', 'Geneva', 'Lucid', 'Arial', 'Helvetica', 'Avant Garde', sans-serif; text-anchor: middle" x="95.636859" y="177.838437" transform="rotate(-0 95.636859 177.838437)">0.2</text>
     </g>
    </g>
    <g id="xtick_3">
     <g id="line2d_5">
      <path d="M 132.35138 163.24 
L 132.35138 7.2 
" clip-path="url(#p60cbc98ccc)" style="fill: none; stroke: #b0b0b0; stroke-opacity: 0.3; stroke-width: 0.8; stroke-linecap: square"/>
     </g>
     <g id="line2d_6">
      <g>
       <use xlink:href="#md52ec2ff24" x="132.35138" y="163.24" style="stroke: #000000; stroke-width: 0.8"/>
      </g>
     </g>
     <g id="text_3">
      <text style="font-size: 10px; font-family: 'DejaVu Sans', 'Bitstream Vera Sans', 'Computer Modern Sans Serif', 'Lucida Grande', 'Verdana', 'Geneva', 'Lucid', 'Arial', 'Helvetica', 'Avant Garde', sans-serif; text-anchor: middle" x="132.35138" y="177.838437" transform="rotate(-0 132.35138 177.838437)">0.4</text>
     </g>
    </g>
    <g id="xtick_4">
     <g id="line2d_7">
      <path d="M 169.065901 163.24 
L 169.065901 7.2 
" clip-path="url(#p60cbc98ccc)" style="fill: none; stroke: #b0b0b0; stroke-opacity: 0.3; stroke-width: 0.8; stroke-linecap: square"/>
     </g>
     <g id="line2d_8">
      <g>
       <use xlink:href="#md52ec2ff24" x="169.065901" y="163.24" style="stroke: #000000; stroke-width: 0.8"/>
      </g>
     </g>
     <g id="text_4">
      <text style="font-size: 10px; font-family: 'DejaVu Sans', 'Bitstream Vera Sans', 'Computer Modern Sans Serif', 'Lucida Grande', 'Verdana', 'Geneva', 'Lucid', 'Arial', 'Helvetica', 'Avant Garde', sans-serif; text-anchor: middle" x="169.065901" y="177.838437" transform="rotate(-0 169.065901 177.838437)">0.6</text>
     </g>
    </g>
    <g id="xtick_5">
     <g id="line2d_9">
      <path d="M 205.780422 163.24 
L 205.780422 7.2 
" clip-path="url(#p60cbc98ccc)" style="fill: none; stroke: #b0b0b0; stroke-opacity: 0.3; stroke-width: 0.8; stroke-linecap: square"/>
     </g>
     <g id="line2d_10">
      <g>
       <use xlink:href="#md52ec2ff24" x="205.780422" y="163.24" style="stroke: #000000; stroke-width: 0.8"/>
      </g>
     </g>
     <g id="text_5">
      <text style="font-size: 10px; font-family: 'DejaVu Sans', 'Bitstream Vera Sans', 'Computer Modern Sans Serif', 'Lucida Grande', 'Verdana', 'Geneva', 'Lucid', 'Arial', 'Helvetica', 'Avant Garde', sans-serif; text-anchor: middle" x="205.780422" y="177.838437" transform="rotate(-0 205.780422 177.838437)">0.8</text>
     </g>
    </g>
    <g id="xtick_6">
     <g id="line2d_11">
      <path d="M 242.494942 163.24 
L 242.494942 7.2 
" clip-path="url(#p60cbc98ccc)" style="fill: none; stroke: #b0b0b0; stroke-opacity: 0.3; stroke-width: 0.8; stroke-linecap: square"/>
     </g>
     <g id="line2d_12">
      <g>
       <use xlink:href="#md52ec2ff24" x="242.494942" y="163.24" style="stroke: #000000; stroke-width: 0.8"/>
      </g>
     </g>
     <g id="text_6">
      <text style="font-size: 10px; font-family: 'DejaVu Sans', 'Bitstream Vera Sans', 'Computer Modern Sans Serif', 'Lucida Grande', 'Verdana', 'Geneva', 'Lucid', 'Arial', 'Helvetica', 'Avant Garde', sans-serif; text-anchor: middle" x="242.494942" y="177.838437" transform="rotate(-0 242.494942 177.838437)">1.0</text>
     </g>
    </g>
    <g id="text_7">
     <text style="font-size: 10px; font-family: 'DejaVu Sans', 'Bitstream Vera Sans', 'Computer Modern Sans Serif', 'Lucida Grande', 'Verdana', 'Geneva', 'Lucid', 'Arial', 'Helvetica', 'Avant Garde', sans-serif; text-anchor: middle" x="150.84375" y="191.516562" transform="rotate(-0 150.84375 191.516562)">environment step</text>
    </g>
    <g id="text_8">
     <text style="font-size: 10px; font-family: 'DejaVu Sans', 'Bitstream Vera Sans', 'Computer Modern Sans Serif', 'Lucida Grande', 'Verdana', 'Geneva', 'Lucid', 'Arial', 'Helvetica', 'Avant Garde', sans-serif; text-anchor: end" x="251.54375" y="190.516562" transform="rotate(-0 251.54375 190.516562)">1e6</text>
    </g>
   </g>
   <g id="matplotlib.axis_2">
    <g id="ytick_1">
     <g id="line2d_13">
      <path d="M 50.14375 156.115293 
L 251.54375 156.115293 
" clip-path="url(#p60cbc98ccc)" style="fill: none; stroke: #b0b0b0; stroke-opacity: 0.3; stroke-width: 0.8; stroke-linecap: square"/>
     </g>
     <g id="line2d_14">
      <defs>
       <path id="meb23fb85bc" d="M 0 0 
L -3.5 0 
" style="stroke: #000000; stroke-width: 0.8"/>
      </defs>
      <g>
       <use xlink:href="#meb23fb85bc" x="50.14375" y="156.115293" style="stroke: #000000; stroke-width: 0.8"/>
      </g>
     </g>
     <g id="text_9">
      <text style="font-size: 10px; font-family: 'DejaVu Sans', 'Bitstream Vera Sans', 'Computer Modern Sans Serif', 'Lucida Grande', 'Verdana', 'Geneva', 'Lucid', 'Arial', 'Helvetica', 'Avant Garde', sans-serif; text-anchor: end" x="43.14375" y="159.914511" transform="rotate(-0 43.14375 159.914511)">0.00</text>
     </g>
    </g>
    <g id="ytick_2">
     <g id="line2d_15">
      <path d="M 50.14375 132.26387 
L 251.54375 132.26387 
" clip-path="url(#p60cbc98ccc)" style="fill: none; stroke: #b0b0b0; stroke-opacity: 0.3; stroke-width: 0.8; stroke-linecap: square"/>
     </g>
     <g id="line2d_16">
      <g>
       <use xlink:href="#meb23fb85bc" x="50.14375" y="132.26387" style="stroke: #000000; stroke-width: 0.8"/>
      </g>
     </g>
     <g id="text_10">
      <text style="font-size: 10px; font-family: 'DejaVu Sans', 'Bitstream Vera Sans', 'Computer Modern Sans Serif', 'Lucida Grande', 'Verdana', 'Geneva', 'Lucid', 'Arial', 'Helvetica', 'Avant Garde', sans-serif; text-anchor: end" x="43.14375" y="136.063089" transform="rotate(-0 43.14375 136.063089)">0.02</text>
     </g>
    </g>
    <g id="ytick_3">
     <g id="line2d_17">
      <path d="M 50.14375 108.412447 
L 251.54375 108.412447 
" clip-path="url(#p60cbc98ccc)" style="fill: none; stroke: #b0b0b0; stroke-opacity: 0.3; stroke-width: 0.8; stroke-linecap: square"/>
     </g>
     <g id="line2d_18">
      <g>
       <use xlink:href="#meb23fb85bc" x="50.14375" y="108.412447" style="stroke: #000000; stroke-width: 0.8"/>
      </g>
     </g>
     <g id="text_11">
      <text style="font-size: 10px; font-family: 'DejaVu Sans', 'Bitstream Vera Sans', 'Computer Modern Sans Serif', 'Lucida Grande', 'Verdana', 'Geneva', 'Lucid', 'Arial', 'Helvetica', 'Avant Garde', sans-serif; text-anchor: end" x="43.14375" y="112.211666" transform="rotate(-0 43.14375 112.211666)">0.04</text>
     </g>
    </g>
    <g id="ytick_4">
     <g id="line2d_19">
      <path d="M 50.14375 84.561024 
L 251.54375 84.561024 
" clip-path="url(#p60cbc98ccc)" style="fill: none; stroke: #b0b0b0; stroke-opacity: 0.3; stroke-width: 0.8; stroke-linecap: square"/>
     </g>
     <g id="line2d_20">
      <g>
       <use xlink:href="#meb23fb85bc" x="50.14375" y="84.561024" style="stroke: #000000; stroke-width: 0.8"/>
      </g>
     </g>
     <g id="text_12">
      <text style="font-size: 10px; font-family: 'DejaVu Sans', 'Bitstream Vera Sans', 'Computer Modern Sans Serif', 'Lucida Grande', 'Verdana', 'Geneva', 'Lucid', 'Arial', 'Helvetica', 'Avant Garde', sans-serif; text-anchor: end" x="43.14375" y="88.360243" transform="rotate(-0 43.14375 88.360243)">0.06</text>
     </g>
    </g>
    <g id="ytick_5">
     <g id="line2d_21">
      <path d="M 50.14375 60.709602 
L 251.54375 60.709602 
" clip-path="url(#p60cbc98ccc)" style="fill: none; stroke: #b0b0b0; stroke-opacity: 0.3; stroke-width: 0.8; stroke-linecap: square"/>
     </g>
     <g id="line2d_22">
      <g>
       <use xlink:href="#meb23fb85bc" x="50.14375" y="60.709602" style="stroke: #000000; stroke-width: 0.8"/>
      </g>
     </g>
     <g id="text_13">
      <text style="font-size: 10px; font-family: 'DejaVu Sans', 'Bitstream Vera Sans', 'Computer Modern Sans Serif', 'Lucida Grande', 'Verdana', 'Geneva', 'Lucid', 'Arial', 'Helvetica', 'Avant Garde', sans-serif; text-anchor: end" x="43.14375" y="64.50882" transform="rotate(-0 43.14375 64.50882)">0.08</text>
     </g>
    </g>
    <g id="ytick_6">
     <g id="line2d_23">
      <path d="M 50.14375 36.858179 
L 251.54375 36.858179 
" clip-path="url(#p60cbc98ccc)" style="fill: none; stroke: #b0b0b0; stroke-opacity: 0.3; stroke-width: 0.8; stroke-linecap: square"/>
     </g>
     <g id="line2d_24">
      <g>
       <use xlink:href="#meb23fb85bc" x="50.14375" y="36.858179" style="stroke: #000000; stroke-width: 0.8"/>
      </g>
     </g>
     <g id="text_14">
      <text style="font-size: 10px; font-family: 'DejaVu Sans', 'Bitstream Vera Sans', 'Computer Modern Sans Serif', 'Lucida Grande', 'Verdana', 'Geneva', 'Lucid', 'Arial', 'Helvetica', 'Avant Garde', sans-serif; text-anchor: end" x="43.14375" y="40.657398" transform="rotate(-0 43.14375 40.657398)">0.10</text>
     </g>
    </g>
    <g id="ytick_7">
     <g id="line2d_25">
      <path d="M 50.14375 13.006756 
L 251.54375 13.006756 
" clip-path="url(#p60cbc98ccc)" style="fill: none; stroke: #b0b0b0; stroke-opacity: 0.3; stroke-width: 0.8; stroke-linecap: square"/>
     </g>
     <g id="line2d_26">
      <g>
       <use xlink:href="#meb23fb85bc" x="50.14375" y="13.006756" style="stroke: #000000; stroke-width: 0.8"/>
      </g>
     </g>
     <g id="text_15">
      <text style="font-size: 10px; font-family: 'DejaVu Sans', 'Bitstream Vera Sans', 'Computer Modern Sans Serif', 'Lucida Grande', 'Verdana', 'Geneva', 'Lucid', 'Arial', 'Helvetica', 'Avant Garde', sans-serif; text-anchor: end" x="43.14375" y="16.805975" transform="rotate(-0 43.14375 16.805975)">0.12</text>
     </g>
    </g>
    <g id="text_16">
     <text style="font-size: 10px; font-family: 'DejaVu Sans', 'Bitstream Vera Sans', 'Computer Modern Sans Serif', 'Lucida Grande', 'Verdana', 'Geneva', 'Lucid', 'Arial', 'Helvetica', 'Avant Garde', sans-serif; text-anchor: middle" x="14.798438" y="85.22" transform="rotate(-90 14.798438 85.22)">batch fraction</text>
    </g>
   </g>
   <g id="line2d_27">
    <path d="M 59.298295 82.406477 
L 59.674252 28.356451 
L 60.050209 31.815373 
L 60.802122 50.076619 
L 61.178079 52.254459 
L 61.554036 50.228019 
L 61.929992 77.73635 
L 62.305949 81.183626 
L 62.681906 92.864767 
L 63.057862 83.675913 
L 63.433819 80.98564 
L 63.809776 84.188346 
L 64.185732 73.788287 
L 64.561689 60.138938 
L 64.937646 57.273972 
L 65.313603 73.124454 
L 65.689559 56.586846 
L 66.065516 64.76248 
L 66.441473 64.448033 
L 66.817429 76.921116 
L 67.193386 76.827946 
L 67.569343 76.408683 
L 67.945299 83.198419 
L 68.321256 57.856282 
L 68.697213 70.073149 
L 69.073169 74.009565 
L 69.449126 74.708337 
L 69.825083 62.281839 
L 70.20104 70.469119 
L 70.576996 68.838651 
L 70.952953 72.006418 
L 71.32891 79.285295 
L 71.704866 71.936541 
L 72.080823 71.284354 
L 72.832736 66.462826 
L 73.208693 76.490206 
L 73.58465 68.768774 
L 73.960606 81.393257 
L 74.336563 70.667105 
L 74.71252 64.704249 
L 75.088477 76.793007 
L 75.464433 61.746114 
L 75.84039 72.751775 
L 76.216347 74.254135 
L 76.592303 72.868237 
L 76.96826 65.472899 
L 77.344217 70.434181 
L 77.720173 63.469752 
L 78.09613 72.472266 
L 78.472087 56.284045 
L 78.848043 60.59314 
L 79.599957 66.253194 
L 79.975914 56.470384 
L 80.35187 62.153731 
L 81.103784 68.302926 
L 81.47974 61.746114 
L 81.855697 58.892794 
L 82.231654 53.058047 
L 82.60761 59.393581 
L 82.983567 69.863517 
L 83.359524 64.42474 
L 83.73548 62.421593 
L 84.111437 62.200316 
L 84.487394 55.678442 
L 84.863351 52.044827 
L 85.239307 52.638783 
L 85.615264 70.538997 
L 86.367177 57.006109 
L 86.743134 62.491471 
L 87.119091 60.080707 
L 87.495047 60.232107 
L 87.871004 59.987537 
L 88.246961 60.465031 
L 88.622917 61.489897 
L 88.998874 69.653885 
L 89.374831 60.325277 
L 89.750788 58.543408 
L 90.126744 55.608565 
L 90.502701 71.086368 
L 90.878658 58.496823 
L 91.254614 57.215741 
L 91.630571 66.474472 
L 92.006528 46.408065 
L 92.382484 55.80655 
L 92.758441 58.32213 
L 93.134398 50.554113 
L 93.510354 58.357069 
L 93.886311 54.117851 
L 94.262268 60.942526 
L 94.638225 52.207874 
L 95.014181 58.252253 
L 95.390138 54.280898 
L 96.142051 51.427578 
L 96.518008 52.137997 
L 96.893965 51.0549 
L 97.269921 57.809697 
L 97.645878 56.214168 
L 98.021835 59.777905 
L 98.397791 58.345423 
L 98.773748 55.014609 
L 99.149705 64.145231 
L 99.525662 61.920807 
L 99.901618 56.027828 
L 100.277575 59.253826 
L 100.653532 51.846842 
L 101.029488 57.413726 
L 101.405445 56.621785 
L 101.781402 55.492103 
L 102.157358 42.92585 
L 102.533315 54.432299 
L 102.909272 46.047033 
L 103.285228 57.448665 
L 103.661185 48.993522 
L 104.037142 43.636269 
L 104.413099 53.256032 
L 105.165012 49.587478 
L 105.540969 41.167274 
L 105.916925 43.182067 
L 106.292882 55.294118 
L 106.668839 55.329056 
L 107.044795 50.309543 
L 107.420752 47.945364 
L 107.796709 43.776023 
L 108.172665 54.443945 
L 108.548622 56.097705 
L 108.924579 55.608565 
L 109.300536 50.62399 
L 109.676492 60.604786 
L 110.052449 49.750525 
L 110.428406 51.509102 
L 110.804362 57.448665 
L 111.180319 54.106205 
L 111.556276 39.991007 
L 111.932232 51.54404 
L 112.308189 39.43199 
L 112.684146 52.347628 
L 113.060102 54.05962 
L 113.436059 47.293176 
L 113.812016 44.731012 
L 114.187973 47.805609 
L 114.563929 44.719366 
L 114.939886 49.342908 
L 115.315843 48.259811 
L 115.691799 42.227078 
L 116.443713 57.949452 
L 116.819669 52.697014 
L 117.195626 45.488015 
L 117.947539 43.93907 
L 118.323496 45.790816 
L 118.699453 51.590625 
L 119.07541 45.208506 
L 119.451366 45.173568 
L 119.827323 51.73038 
L 120.20328 54.688515 
L 120.579236 45.394845 
L 120.955193 40.107469 
L 121.33115 49.785464 
L 121.707106 45.674354 
L 122.083063 50.239666 
L 122.45902 38.372185 
L 122.834976 50.833622 
L 123.210933 53.686942 
L 123.58689 46.279957 
L 123.962847 46.94379 
L 124.338803 35.670266 
L 124.71476 48.434504 
L 125.090717 44.486442 
L 125.466673 38.640048 
L 125.84263 51.183008 
L 126.218587 44.824181 
L 126.594543 42.19214 
L 126.9705 50.018388 
L 127.346457 36.986287 
L 127.722413 38.41877 
L 128.09837 43.193713 
L 128.474327 38.535232 
L 128.850284 41.143981 
L 129.22624 49.587478 
L 129.602197 43.985655 
L 129.978154 48.236519 
L 130.35411 55.923012 
L 131.106024 35.437342 
L 131.48198 44.707719 
L 131.857937 42.623049 
L 132.233894 45.592831 
L 132.60985 39.711499 
L 132.985807 44.824181 
L 133.361764 51.893426 
L 133.737721 50.449297 
L 134.113677 44.113763 
L 134.489634 50.321189 
L 134.865591 51.2063 
L 135.241547 43.380052 
L 135.617504 42.43671 
L 135.993461 56.924586 
L 136.369417 41.470075 
L 136.745374 36.345746 
L 137.121331 44.125409 
L 137.497287 37.207565 
L 137.873244 44.52138 
L 138.625158 49.622417 
L 139.001114 46.303249 
L 139.377071 47.467869 
L 139.753028 42.133909 
L 140.128984 34.540585 
L 140.504941 38.744864 
L 141.256854 54.385714 
L 141.632811 43.228652 
L 142.008768 47.898779 
L 142.384724 36.555378 
L 142.760681 45.301676 
L 143.136638 50.71716 
L 143.512595 53.034754 
L 144.264508 47.025314 
L 144.640465 45.29003 
L 145.392378 49.564186 
L 145.768335 50.96173 
L 146.144291 45.371553 
L 146.520248 48.003595 
L 146.896205 46.233372 
L 147.272161 45.942217 
L 147.648118 49.762171 
L 148.024075 50.297897 
L 148.400032 41.411844 
L 148.775988 49.319616 
L 149.151945 53.954804 
L 149.527902 44.567965 
L 149.903858 51.567333 
L 150.279815 47.339761 
L 150.655772 50.321189 
L 151.031728 44.27681 
L 151.407685 35.332526 
L 151.783642 44.218579 
L 152.159598 49.063399 
L 152.535555 43.519807 
L 152.911512 45.080398 
L 153.287468 42.331894 
L 153.663425 43.007374 
L 154.039382 52.033181 
L 154.415339 55.934659 
L 154.791295 57.134218 
L 155.167252 50.193081 
L 155.543209 49.808756 
L 155.919165 57.809697 
L 156.671079 41.062458 
L 157.047035 48.248165 
L 157.422992 42.541526 
L 157.798949 52.766892 
L 158.174905 47.013668 
L 158.550862 48.411212 
L 158.926819 49.3662 
L 159.302776 50.821976 
L 159.678732 51.089838 
L 160.054689 59.370288 
L 160.430646 48.143349 
L 160.806602 47.060252 
L 161.182559 56.621785 
L 161.558516 47.584331 
L 161.934472 60.895941 
L 162.310429 49.971803 
L 162.686386 49.377847 
L 163.062342 52.103058 
L 163.814256 48.224873 
L 164.190213 55.096132 
L 164.566169 52.615491 
L 164.942126 52.685368 
L 165.318083 61.187096 
L 165.694039 47.316469 
L 166.069996 50.915145 
L 166.445953 48.935291 
L 166.821909 56.284045 
L 167.197866 52.708661 
L 167.573823 56.901293 
L 168.325736 52.009888 
L 168.701693 50.693868 
L 169.07765 39.932776 
L 169.453606 53.325909 
L 169.829563 57.64665 
L 170.20552 56.621785 
L 170.581476 52.370921 
L 170.957433 50.251312 
L 171.33339 52.976523 
L 171.709346 51.427578 
L 172.085303 57.949452 
L 172.46126 51.194654 
L 172.837216 57.437019 
L 173.213173 58.90444 
L 173.58913 55.31741 
L 173.965087 44.661135 
L 174.341043 56.225814 
L 174.717 58.159083 
L 175.092957 55.247533 
L 175.468913 56.516969 
L 175.84487 61.734468 
L 176.220827 52.743599 
L 176.596783 59.149011 
L 176.97274 48.946937 
L 177.348697 53.058047 
L 177.724653 59.102426 
L 178.10061 54.64193 
L 178.476567 56.377214 
L 178.852524 62.945673 
L 179.22848 54.234313 
L 179.604437 62.968965 
L 179.980394 63.749261 
L 180.35635 65.694176 
L 180.732307 57.996037 
L 181.108264 70.177964 
L 181.48422 67.138305 
L 181.860177 66.917028 
L 182.236134 54.420652 
L 182.61209 54.199374 
L 182.988047 68.314572 
L 183.364004 62.67781 
L 183.739961 53.535541 
L 184.491874 68.244695 
L 184.867831 53.104631 
L 185.243787 66.835504 
L 185.619744 61.210388 
L 185.995701 48.166642 
L 186.371657 58.380361 
L 186.747614 60.348569 
L 187.123571 61.012403 
L 187.499527 56.167583 
L 187.875484 69.781993 
L 188.251441 66.439533 
L 188.627398 80.182052 
L 189.003354 59.405227 
L 189.379311 70.014917 
L 189.755268 49.377847 
L 190.131224 63.795845 
L 190.507181 63.609506 
L 190.883138 61.047342 
L 191.259094 77.794581 
L 192.011008 60.523262 
L 193.138878 74.39389 
L 193.514835 64.250047 
L 193.890791 74.254135 
L 194.266748 66.625873 
L 194.642705 74.498705 
L 195.018661 59.742967 
L 195.394618 57.110925 
L 195.770575 75.092662 
L 196.146531 80.438269 
L 196.522488 66.69575 
L 197.274401 70.853444 
L 197.650358 71.482339 
L 198.026315 66.497764 
L 198.402272 70.818505 
L 198.778228 73.706764 
L 199.154185 71.214476 
L 199.530142 75.733203 
L 199.906098 71.750202 
L 200.282055 85.760583 
L 200.658012 70.608874 
L 201.033968 85.516013 
L 201.409925 71.680324 
L 201.785882 73.310793 
L 202.161838 77.771288 
L 202.537795 87.577391 
L 203.289709 72.693544 
L 203.665665 76.501852 
L 204.041622 73.997919 
L 204.417579 74.9762 
L 204.793535 78.947555 
L 205.169492 70.690397 
L 205.545449 86.051738 
L 205.921405 75.55851 
L 206.297362 77.282148 
L 206.673319 71.191184 
L 207.049275 88.113116 
L 207.425232 90.03474 
L 207.801189 84.863826 
L 208.177146 82.883971 
L 208.553102 84.898764 
L 208.929059 76.688192 
L 209.305016 87.169774 
L 209.680972 91.5371 
L 210.056929 84.025299 
L 210.432886 85.364612 
L 210.808842 80.007359 
L 211.184799 77.876104 
L 211.560756 84.805595 
L 211.936712 83.058664 
L 212.312669 83.932129 
L 212.688626 88.066531 
L 213.064583 81.393257 
L 213.440539 87.367759 
L 213.816496 90.232725 
L 214.192453 91.502161 
L 214.568409 86.028446 
L 214.944366 88.951643 
L 215.320323 79.564804 
L 216.072236 92.11941 
L 216.448193 101.797404 
L 216.824149 91.478869 
L 217.200106 87.565745 
L 217.576063 87.006727 
L 217.95202 88.182993 
L 218.327976 94.273957 
L 218.703933 92.969583 
L 219.07989 95.892779 
L 219.455846 90.477295 
L 220.20776 101.191802 
L 220.583716 92.620197 
L 220.959673 95.159069 
L 221.33563 95.228946 
L 221.711586 107.224535 
L 222.087543 100.830769 
L 222.4635 100.784185 
L 222.839457 104.918586 
L 223.215413 103.928659 
L 223.59137 108.866649 
L 223.967327 103.800551 
L 224.343283 107.061488 
L 224.71924 109.332497 
L 225.095197 93.936217 
L 225.471153 107.282766 
L 225.84711 108.761833 
L 226.223067 100.085412 
L 226.97498 101.517895 
L 227.350937 103.078486 
L 227.726894 101.646004 
L 228.10285 106.560701 
L 228.478807 113.094221 
L 228.854764 110.054562 
L 229.23072 114.887736 
L 229.982634 102.216667 
L 230.35859 112.558495 
L 230.734547 109.390728 
L 231.110504 122.085089 
L 231.48646 104.627431 
L 231.862417 116.168818 
L 232.238374 122.283074 
L 232.614331 117.950687 
L 232.990287 117.659532 
L 233.366244 119.802433 
L 233.742201 114.969259 
L 234.118157 118.917322 
L 234.494114 112.383802 
L 234.870071 127.011433 
L 235.621984 122.341305 
L 236.373897 129.07281 
L 236.749854 131.017726 
L 237.125811 125.707058 
L 237.501768 139.263238 
L 237.877724 138.70422 
L 238.253681 136.607903 
L 238.629638 141.767171 
L 239.005594 140.649136 
L 239.757508 146.973024 
L 240.133464 147.706734 
L 240.509421 151.771259 
L 241.261334 154.822564 
L 241.637291 155.789199 
L 242.013248 156.057062 
L 242.389205 156.115293 
L 242.389205 156.115293 
" clip-path="url(#p60cbc98ccc)" style="fill: none; stroke: #c0392b; stroke-width: 1.5; stroke-linecap: square"/>
   </g>
   <g id="line2d_28">
    <path d="M 59.298295 117.345084 
L 59.674252 92.94629 
L 60.050209 95.298823 
L 60.426166 96.114057 
L 60.802122 104.266399 
L 61.554036 96.277104 
L 61.929992 111.34729 
L 62.305949 106.933379 
L 62.681906 114.20061 
L 63.057862 111.300705 
L 63.433819 110.171024 
L 63.809776 111.114366 
L 64.185732 102.251606 
L 64.561689 97.942511 
L 64.937646 101.925512 
L 65.313603 103.823843 
L 65.689559 95.694794 
L 66.065516 100.609491 
L 66.441473 101.413079 
L 66.817429 109.146158 
L 67.193386 111.68503 
L 67.569343 106.351069 
L 67.945299 110.706749 
L 68.321256 97.499955 
L 68.697213 105.372788 
L 69.073169 104.033475 
L 69.449126 105.139864 
L 69.825083 101.948805 
L 70.20104 105.069987 
L 70.576996 102.48453 
L 70.952953 104.90694 
L 71.32891 105.873575 
L 71.704866 99.549687 
L 72.080823 104.243107 
L 72.45678 101.727527 
L 73.208693 106.059914 
L 73.58465 104.522616 
L 73.960606 107.993184 
L 74.71252 96.440151 
L 75.088477 106.50247 
L 75.464433 95.566686 
L 75.84039 104.930233 
L 76.216347 108.074707 
L 76.592303 105.198095 
L 76.96826 100.143643 
L 77.344217 100.097059 
L 77.720173 98.024035 
L 78.09613 102.5777 
L 78.472087 96.218873 
L 78.848043 100.481383 
L 79.224 100.201874 
L 79.599957 101.99539 
L 79.975914 94.972729 
L 80.35187 95.892779 
L 80.727827 96.020888 
L 81.103784 102.600992 
L 81.47974 102.694162 
L 81.855697 94.145849 
L 82.231654 92.643489 
L 82.60761 97.616417 
L 82.983567 105.594066 
L 83.359524 96.71966 
L 83.73548 97.127277 
L 84.111437 99.81755 
L 84.487394 94.471943 
L 84.863351 95.007668 
L 85.239307 92.375626 
L 85.615264 101.646004 
L 85.991221 99.875781 
L 86.367177 94.63499 
L 86.743134 97.756172 
L 87.119091 99.281824 
L 87.495047 96.125704 
L 87.871004 101.133571 
L 88.246961 94.856267 
L 88.622917 97.88428 
L 88.998874 104.592493 
L 89.374831 97.092338 
L 89.750788 96.544967 
L 90.126744 97.919219 
L 90.502701 102.461238 
L 90.878658 95.310469 
L 91.254614 94.902852 
L 91.630571 100.143643 
L 92.006528 92.806536 
L 92.382484 96.114057 
L 92.758441 97.430078 
L 93.134398 92.200933 
L 93.510354 92.165995 
L 93.886311 92.911352 
L 94.262268 92.503735 
L 94.638225 92.70172 
L 95.014181 97.325262 
L 95.390138 97.336909 
L 95.766095 89.708646 
L 96.142051 92.538673 
L 96.518008 92.177641 
L 96.893965 92.969583 
L 97.269921 92.072825 
L 97.645878 93.784817 
L 98.021835 93.889633 
L 98.397791 94.250665 
L 98.773748 95.182361 
L 99.525662 100.318336 
L 99.901618 91.117836 
L 100.277575 98.862561 
L 100.653532 95.205654 
L 101.029488 95.834548 
L 101.405445 97.581479 
L 101.781402 91.374053 
L 102.157358 90.011447 
L 102.533315 89.475722 
L 102.909272 90.302602 
L 103.285228 94.763098 
L 103.661185 92.60855 
L 104.037142 88.0083 
L 104.413099 93.645062 
L 104.789055 93.482016 
L 105.540969 85.399551 
L 105.916925 86.005154 
L 106.292882 90.151202 
L 106.668839 92.340688 
L 107.044795 87.845254 
L 107.420752 92.375626 
L 107.796709 89.161274 
L 108.548622 94.54182 
L 108.924579 90.43071 
L 109.300536 90.896559 
L 109.676492 97.651356 
L 110.052449 88.578964 
L 110.428406 94.355481 
L 110.804362 98.000742 
L 111.180319 97.895926 
L 111.556276 86.960142 
L 111.932232 94.867914 
L 112.308189 86.762157 
L 112.684146 87.996654 
L 113.060102 92.410565 
L 113.436059 88.182993 
L 113.812016 88.054885 
L 114.187973 90.884912 
L 114.563929 87.321174 
L 114.939886 87.367759 
L 115.315843 89.35926 
L 115.691799 88.19464 
L 116.067756 91.723439 
L 116.443713 93.447077 
L 117.195626 87.460929 
L 117.571583 89.009874 
L 117.947539 88.159701 
L 118.323496 87.973362 
L 118.699453 89.068105 
L 119.07541 89.580538 
L 119.451366 88.823535 
L 120.20328 94.308896 
L 120.579236 85.713998 
L 120.955193 88.555672 
L 121.33115 88.695426 
L 121.707106 92.27081 
L 122.083063 88.648842 
L 122.45902 83.873898 
L 122.834976 90.267664 
L 123.210933 92.573612 
L 123.58689 89.068105 
L 123.962847 90.884912 
L 124.338803 80.915763 
L 124.71476 90.721866 
L 125.090717 91.211006 
L 125.466673 84.409624 
L 125.84263 91.013021 
L 126.218587 84.153407 
L 126.594543 83.687559 
L 126.9705 92.084471 
L 127.346457 81.032225 
L 127.722413 88.835181 
L 128.09837 89.487368 
L 128.474327 83.454635 
L 129.22624 90.069678 
L 129.602197 87.973362 
L 129.978154 91.176067 
L 130.35411 88.800242 
L 130.730067 92.107764 
L 131.106024 86.412771 
L 131.48198 83.303235 
L 131.857937 87.495867 
L 132.60985 84.153407 
L 132.985807 86.773803 
L 133.361764 90.547173 
L 133.737721 91.933071 
L 134.113677 88.241224 
L 134.489634 89.964862 
L 134.865591 89.918278 
L 135.241547 88.695426 
L 135.617504 84.933703 
L 135.993461 93.71494 
L 136.369417 87.006727 
L 136.745374 84.537732 
L 137.121331 84.595963 
L 137.497287 83.373112 
L 137.873244 87.076604 
L 138.249201 87.484221 
L 138.625158 84.642548 
L 139.001114 89.079751 
L 139.377071 88.672134 
L 139.753028 86.028446 
L 140.128984 81.824167 
L 140.504941 87.437636 
L 140.880898 83.314881 
L 141.256854 91.898132 
L 141.632811 83.326527 
L 142.008768 85.224858 
L 142.384724 85.09675 
L 143.136638 89.60383 
L 143.512595 88.68378 
L 143.888551 89.382552 
L 144.640465 85.259797 
L 145.016421 88.695426 
L 145.392378 89.487368 
L 145.768335 92.154348 
L 146.144291 85.67906 
L 146.520248 91.87484 
L 146.896205 90.582111 
L 147.272161 88.252871 
L 147.648118 88.718719 
L 148.024075 92.538673 
L 148.400032 85.492721 
L 149.151945 91.828255 
L 149.527902 87.623976 
L 149.903858 88.182993 
L 150.279815 89.464076 
L 150.655772 87.915131 
L 151.031728 85.213212 
L 151.407685 80.019005 
L 151.783642 88.509087 
L 152.159598 91.921424 
L 152.535555 88.299455 
L 152.911512 87.018373 
L 153.287468 93.260738 
L 153.663425 86.436063 
L 154.039382 95.275531 
L 154.415339 91.78167 
L 154.791295 94.075972 
L 155.167252 91.933071 
L 155.543209 91.933071 
L 155.919165 96.160642 
L 156.295122 92.247518 
L 156.671079 82.883971 
L 157.047035 88.92835 
L 157.422992 87.076604 
L 157.798949 92.631843 
L 158.174905 89.976509 
L 158.550862 91.245945 
L 158.926819 88.998228 
L 159.302776 94.856267 
L 159.678732 90.081324 
L 160.054689 98.047327 
L 160.806602 86.59911 
L 161.182559 93.516954 
L 161.934472 96.370274 
L 162.310429 90.419064 
L 162.686386 88.800242 
L 163.062342 92.631843 
L 163.438299 97.628064 
L 163.814256 90.605404 
L 164.566169 94.54182 
L 164.942126 94.483589 
L 165.318083 96.649783 
L 165.694039 90.011447 
L 166.069996 90.733512 
L 166.445953 94.471943 
L 167.197866 96.358628 
L 167.949779 93.19086 
L 168.325736 92.969583 
L 168.701693 94.285604 
L 169.07765 82.883971 
L 169.829563 98.350128 
L 170.20552 93.155922 
L 170.581476 90.791743 
L 170.957433 96.312043 
L 171.33339 92.527027 
L 171.709346 95.70644 
L 172.085303 97.802757 
L 172.46126 93.388846 
L 172.837216 95.939364 
L 173.213173 96.638136 
L 173.58913 96.323689 
L 173.965087 88.567318 
L 174.341043 96.28875 
L 174.717 99.619564 
L 175.092957 93.656709 
L 175.84487 99.538041 
L 176.220827 98.932438 
L 176.596783 99.561333 
L 176.97274 93.586831 
L 177.348697 95.869487 
L 177.724653 100.725954 
L 178.10061 93.95951 
L 178.476567 99.374994 
L 178.852524 98.431652 
L 179.22848 98.31519 
L 179.604437 99.96895 
L 179.980394 99.340055 
L 180.35635 99.409933 
L 180.732307 96.172288 
L 181.108264 102.309837 
L 181.860177 100.504676 
L 182.236134 98.024035 
L 182.61209 98.291897 
L 182.988047 102.880501 
L 183.739961 94.134203 
L 184.115917 97.243739 
L 184.491874 99.165362 
L 184.867831 97.080692 
L 185.243787 100.947231 
L 185.619744 100.714307 
L 186.371657 95.159069 
L 186.747614 100.15529 
L 187.123571 102.985317 
L 187.499527 96.009241 
L 187.875484 105.48925 
L 188.251441 101.191802 
L 188.627398 106.84021 
L 189.003354 100.213521 
L 189.379311 102.857209 
L 189.755268 94.192434 
L 190.131224 101.063693 
L 190.507181 104.930233 
L 190.883138 95.95101 
L 191.259094 109.35579 
L 191.635051 103.625858 
L 192.011008 100.714307 
L 192.386964 99.503102 
L 192.762921 100.609491 
L 193.138878 105.221388 
L 193.514835 100.318336 
L 193.890791 106.828564 
L 194.266748 103.416226 
L 194.642705 105.407727 
L 195.018661 95.473516 
L 195.394618 97.593125 
L 195.770575 105.570774 
L 196.146531 108.715248 
L 196.522488 102.775685 
L 196.898445 103.031902 
L 197.274401 104.08006 
L 197.650358 105.512543 
L 198.026315 105.67559 
L 198.402272 104.872002 
L 198.778228 110.636872 
L 199.154185 105.698882 
L 199.530142 110.741688 
L 199.906098 106.234607 
L 200.282055 112.348864 
L 200.658012 105.174803 
L 201.033968 111.126012 
L 201.409925 103.975244 
L 201.785882 110.112793 
L 202.161838 108.028122 
L 202.537795 115.36523 
L 203.289709 108.179523 
L 203.665665 108.761833 
L 204.041622 106.700455 
L 204.417579 102.705808 
L 204.793535 107.003257 
L 205.169492 107.632152 
L 205.545449 112.244048 
L 205.921405 106.281192 
L 206.297362 110.462179 
L 206.673319 106.094853 
L 207.049275 118.043857 
L 207.425232 114.619873 
L 207.801189 117.473193 
L 208.177146 110.380655 
L 208.553102 116.122233 
L 208.929059 111.521983 
L 209.305016 114.258841 
L 209.680972 115.982479 
L 210.056929 113.164098 
L 210.432886 112.593434 
L 210.808842 110.613579 
L 211.184799 111.696676 
L 211.560756 113.338791 
L 211.936712 116.273634 
L 212.312669 115.237122 
L 212.688626 116.681251 
L 213.064583 112.803066 
L 213.440539 114.678104 
L 213.816496 119.802433 
L 214.192453 116.296926 
L 214.944366 113.86287 
L 215.320323 111.417167 
L 215.696279 116.471619 
L 216.072236 116.017417 
L 216.448193 121.700764 
L 216.824149 117.752702 
L 217.200106 115.4584 
L 217.576063 115.435107 
L 217.95202 116.110587 
L 218.327976 124.8103 
L 218.703933 117.997272 
L 219.07989 121.304793 
L 219.455846 117.729409 
L 219.831803 118.195257 
L 220.20776 123.901897 
L 220.583716 117.007345 
L 220.959673 121.106808 
L 221.33563 115.959186 
L 221.711586 129.142688 
L 222.087543 122.294721 
L 222.4635 126.021505 
L 222.839457 125.439195 
L 223.215413 122.760569 
L 223.59137 127.896544 
L 223.967327 122.911969 
L 224.343283 126.871678 
L 224.71924 127.512219 
L 225.095197 117.659532 
L 225.471153 127.442342 
L 225.84711 127.023079 
L 226.223067 124.56573 
L 226.97498 123.319586 
L 227.350937 122.306367 
L 227.726894 125.089809 
L 228.10285 125.276148 
L 228.478807 128.141114 
L 228.854764 126.103029 
L 229.23072 129.014579 
L 229.982634 124.752069 
L 230.35859 131.483574 
L 230.734547 128.106176 
L 231.110504 133.114043 
L 231.48646 123.820373 
L 231.862417 132.240577 
L 232.238374 132.228931 
L 232.614331 134.674634 
L 232.990287 132.648195 
L 233.366244 133.044165 
L 233.742201 132.275516 
L 234.118157 136.340041 
L 234.494114 128.513793 
L 234.870071 139.566039 
L 235.246027 136.887412 
L 235.621984 138.215079 
L 235.997941 137.562892 
L 236.749854 141.685648 
L 237.125811 142.198081 
L 237.501768 148.032828 
L 237.877724 146.018035 
L 238.253681 145.587126 
L 238.629638 147.799904 
L 239.005594 147.47381 
L 239.381551 149.826343 
L 240.133464 150.560054 
L 240.509421 153.611359 
L 241.261334 155.50969 
L 241.637291 156.033769 
L 242.389205 156.115293 
L 242.389205 156.115293 
" clip-path="url(#p60cbc98ccc)" style="fill: none; stroke: #1f77b4; stroke-width: 1.5; stroke-linecap: square"/>
   </g>
   <g id="patch_3">
    <path d="M 50.14375 163.24 
L 50.14375 7.2 
" style="fill: none; stroke: #000000; stroke-width: 0.8; stroke-linejoin: miter; stroke-linecap: square"/>
   </g>
   <g id="patch_4">
    <path d="M 251.54375 163.24 
L 251.54375 7.2 
" style="fill: none; stroke: #000000; stroke-width: 0.8; stroke-linejoin: miter; stroke-linecap: square"/>
   </g>
   <g id="patch_5">
    <path d="M 50.14375 163.24 
L 251.54375 163.24 
" style="fill: none; stroke: #000000; stroke-width: 0.8; stroke-linejoin: miter; stroke-linecap: square"/>
   </g>
   <g id="patch_6">
    <path d="M 50.14375 7.2 
L 251.54375 7.2 
" style="fill: none; stroke: #000000; stroke-width: 0.8; stroke-linejoin: miter; stroke-linecap: square"/>
   </g>
   <g id="legend_1">
    <g id="patch_7">
     <path d="M 209.07095 33.833334 
L 246.68575 33.833334 
Q 248.07375 33.833334 248.07375 32.445334 
L 248.07375 12.058 
Q 248.07375 10.67 246.68575 10.67 
L 209.07095 10.67 
Q 207.68295 10.67 207.68295 12.058 
L 207.68295 32.445334 
Q 207.68295 33.833334 209.07095 33.833334 
z
" style="fill: #ffffff; opacity: 0.8; stroke: #cccccc; stroke-linejoin: miter"/>
    </g>
    <g id="line2d_29">
     <path d="M 210.45895 16.290316 
L 217.39895 16.290316 
L 224.33895 16.290316 
" style="fill: none; stroke: #c0392b; stroke-width: 1.5; stroke-linecap: square"/>
    </g>
    <g id="text_17">
     <!-- $\mathcal{I}_{\mathrm{kill}}$ -->
     <g transform="translate(229.89095 18.719316)">
      <text>
       <tspan x="0" y="-0.40625" style="font-style: italic; font-size: 6.94px; font-family: 'STIXNonUnicode'"></tspan>
       <tspan x="4.055505" y="0.732812" style="font-size: 4.858px; font-family: 'DejaVu Sans'">k</tspan>
       <tspan x="6.867767" y="0.732812" style="font-size: 4.858px; font-family: 'DejaVu Sans'">i</tspan>
       <tspan x="8.216989" y="0.732812" style="font-size: 4.858px; font-family: 'DejaVu Sans'">l</tspan>
       <tspan x="9.56621" y="0.732812" style="font-size: 4.858px; font-family: 'DejaVu Sans'">l</tspan>
      </text>
     </g>
    </g>
    <g id="line2d_30">
     <path d="M 210.45895 26.476934 
L 217.39895 26.476934 
L 224.33895 26.476934 
" style="fill: none; stroke: #1f77b4; stroke-width: 1.5; stroke-linecap: square"/>
    </g>
    <g id="text_18">
     <!-- $\mathcal{I}_{\mathrm{pass}}$ -->
     <g transform="translate(229.89095 28.905934)">
      <text>
       <tspan x="0" y="-0.40625" style="font-style: italic; font-size: 6.94px; font-family: 'STIXNonUnicode'"></tspan>
       <tspan x="4.055505" y="0.732812" style="font-size: 4.858px; font-family: 'DejaVu Sans'">p</tspan>
       <tspan x="7.138085" y="0.732812" style="font-size: 4.858px; font-family: 'DejaVu Sans'">a</tspan>
       <tspan x="10.113961" y="0.732812" style="font-size: 4.858px; font-family: 'DejaVu Sans'">s</tspan>
       <tspan x="12.644048" y="0.732812" style="font-size: 4.858px; font-family: 'DejaVu Sans'">s</tspan>
      </text>
     </g>
    </g>
   </g>
  </g>
 </g>
 <defs>
  <clipPath id="p60cbc98ccc">
   <rect x="50.14375" y="7.2" width="201.4" height="156.04"/>
  </clipPath>
 </defs>
</svg>
